<svg xmlns="http://www.w3.org/2000/svg" xmlns:xlink="http://www.w3.org/1999/xlink" xmlns:lucid="lucid" width="492.11" height="1214.11"><g transform="translate(-67.88979775893921 11.510791366906467)" lucid:page-tab-id="0_0"><path d="M245.82 21.22c0 7.04-6.55 12.74-14.64 12.74-8.08 0-14.64-5.7-14.64-12.74 0-7.03 6.56-12.73 14.64-12.73 8.1 0 14.64 5.7 14.64 12.72z" stroke="#000" stroke-width="2"/><path d="M136.36 161.3h191.2v67.9h-191.2z" stroke="#000" stroke-width="2" fill="#fff"/><use xlink:href="#a" transform="matrix(1,0,0,1,141.3647977589392,166.294964028777) translate(12.679012345679027 10.844444444444445)"/><use xlink:href="#b" transform="matrix(1,0,0,1,141.3647977589392,166.294964028777) translate(67.61666666666667 10.844444444444445)"/><use xlink:href="#c" transform="matrix(1,0,0,1,141.3647977589392,166.294964028777) translate(78.91296296296296 10.844444444444445)"/><use xlink:href="#d" transform="matrix(1,0,0,1,141.3647977589392,166.294964028777) translate(117.47098765432098 10.844444444444445)"/><use xlink:href="#e" transform="matrix(1,0,0,1,141.3647977589392,166.294964028777) translate(161.79012345679013 10.844444444444445)"/><use xlink:href="#f" transform="matrix(1,0,0,1,141.3647977589392,166.294964028777) translate(0.7990740740740847 27.11111111111111)"/><use xlink:href="#g" transform="matrix(1,0,0,1,141.3647977589392,166.294964028777) translate(38.37808641975309 27.11111111111111)"/><use xlink:href="#h" transform="matrix(1,0,0,1,141.3647977589392,166.294964028777) translate(103.8212962962963 27.11111111111111)"/><use xlink:href="#i" transform="matrix(1,0,0,1,141.3647977589392,166.294964028777) translate(134.66018518518518 27.11111111111111)"/><use xlink:href="#j" transform="matrix(1,0,0,1,141.3647977589392,166.294964028777) translate(173.67006172839507 27.11111111111111)"/><use xlink:href="#k" transform="matrix(1,0,0,1,141.3647977589392,166.294964028777) translate(40.5996913580247 43.37777777777778)"/><use xlink:href="#l" transform="matrix(1,0,0,1,141.3647977589392,166.294964028777) translate(90.98117283950617 43.37777777777778)"/><use xlink:href="#m" transform="matrix(1,0,0,1,141.3647977589392,166.294964028777) translate(109.80833333333334 43.37777777777778)"/><use xlink:href="#n" transform="matrix(1,0,0,1,141.3647977589392,166.294964028777) translate(47.377469135802485 59.644444444444446)"/><path d="M178.32 59.42H280.3l33.98 38.2-34 38.2H178.33l-34-38.2z" stroke="#000" stroke-width="2" fill="#fff"/><use xlink:href="#o" transform="matrix(1,0,0,1,149.33128201369698,64.4244604316547) translate(34.475925925925935 11.811111111111114)"/><use xlink:href="#p" transform="matrix(1,0,0,1,149.33128201369698,64.4244604316547) translate(88.6604938271605 11.811111111111114)"/><use xlink:href="#e" transform="matrix(1,0,0,1,149.33128201369698,64.4244604316547) translate(117.9932098765432 11.811111111111114)"/><use xlink:href="#q" transform="matrix(1,0,0,1,149.33128201369698,64.4244604316547) translate(20.186111111111124 28.07777777777778)"/><use xlink:href="#l" transform="matrix(1,0,0,1,149.33128201369698,64.4244604316547) translate(99.14722222222221 28.07777777777778)"/><use xlink:href="#r" transform="matrix(1,0,0,1,149.33128201369698,64.4244604316547) translate(117.97438271604938 28.07777777777778)"/><use xlink:href="#s" transform="matrix(1,0,0,1,149.33128201369698,64.4244604316547) translate(5.312654320987647 44.34444444444445)"/><use xlink:href="#h" transform="matrix(1,0,0,1,149.33128201369698,64.4244604316547) translate(71.17006172839507 44.34444444444445)"/><use xlink:href="#t" transform="matrix(1,0,0,1,149.33128201369698,64.4244604316547) translate(102.00895061728396 44.34444444444445)"/><use xlink:href="#u" transform="matrix(1,0,0,1,149.33128201369698,64.4244604316547) translate(140.3787037037037 44.34444444444445)"/><use xlink:href="#v" transform="matrix(1,0,0,1,149.33128201369698,64.4244604316547) translate(28.488888888888894 60.611111111111114)"/><use xlink:href="#w" transform="matrix(1,0,0,1,149.33128201369698,64.4244604316547) translate(105.94382716049383 60.611111111111114)"/><path d="M231.96 266.05l74.36 42.45-74.36 42.44-74.35-42.44z" stroke="#000" stroke-width="2" fill="#fff"/><use xlink:href="#x" transform="matrix(1,0,0,1,162.60875577162665,271.0517985611512) translate(31.51179012345679 41.31319444444445)"/><use xlink:href="#y" transform="matrix(1,0,0,1,162.60875577162665,271.0517985611512) translate(80.3870987654321 41.31319444444445)"/><use xlink:href="#z" transform="matrix(1,0,0,1,162.60875577162665,271.0517985611512) translate(99.96734567901234 41.31319444444445)"/><path d="M136.37 399h152.95l38.24 30-38.24 30H136.37z" stroke="#000" stroke-width="2" fill="#fff"/><use xlink:href="#A" transform="matrix(1,0,0,1,144.36571091750326,406.99280575539586) translate(12.60030864197531 10.844444444444445)"/><use xlink:href="#B" transform="matrix(1,0,0,1,144.36571091750326,406.99280575539586) translate(50.21697530864197 10.844444444444445)"/><use xlink:href="#C" transform="matrix(1,0,0,1,144.36571091750326,406.99280575539586) translate(72.77191358024692 10.844444444444445)"/><use xlink:href="#D" transform="matrix(1,0,0,1,144.36571091750326,406.99280575539586) translate(104.32623456790122 10.844444444444445)"/><use xlink:href="#i" transform="matrix(1,0,0,1,144.36571091750326,406.99280575539586) translate(14.125308641975309 27.11111111111111)"/><use xlink:href="#b" transform="matrix(1,0,0,1,144.36571091750326,406.99280575539586) translate(53.135185185185186 27.11111111111111)"/><use xlink:href="#k" transform="matrix(1,0,0,1,144.36571091750326,406.99280575539586) translate(64.43148148148148 27.11111111111111)"/><use xlink:href="#E" transform="matrix(1,0,0,1,144.36571091750326,406.99280575539586) translate(114.81296296296296 27.11111111111111)"/><use xlink:href="#F" transform="matrix(1,0,0,1,144.36571091750326,406.99280575539586) translate(10.698765432098782 43.37777777777778)"/><use xlink:href="#n" transform="matrix(1,0,0,1,144.36571091750326,406.99280575539586) translate(46.05617283950618 43.37777777777778)"/><path d="M232.96 364.24h-2V353.1h2z"/><path d="M232.96 353.12h-2v-1.6l1 .58 1-.58zM231.96 394.76l-2.9-8.92h5.8z"/><path d="M231.96 398l-3.94-12.16h2.1l1.84 5.68 1.85-5.68h2.1z"/><use xlink:href="#G" transform="matrix(1,0,0,1,216.51302574531417,364.2440810485403) translate(0 14.4)"/><path d="M96.36 307.5h58.23v2H94.35v-36.7h2zm20.5-111.25h-20.5v54.94h-2v-56.95h22.5z"/><path d="M155.6 308.5l1.74 1h-2.77v-2h2.77zM132.13 195.25l-14.27 4.64v-9.28z"/><path d="M135.36 195.25l-18.5 6v-12zm-16.5 3.26l10.03-3.25-10.04-3.26z"/><use xlink:href="#H" transform="matrix(1,0,0,1,78.88979775893921,251.1882675294467) translate(0 14.4)"/><path d="M157.6 483.88h148.72v67.92h-148.7z" stroke="#000" stroke-width="2" fill="#fff"/><use xlink:href="#I" transform="matrix(1,0,0,1,162.60875577162662,488.88489208633115) translate(16.10617283950618 14.469444444444445)"/><use xlink:href="#b" transform="matrix(1,0,0,1,162.60875577162662,488.88489208633115) translate(82.22716049382717 14.469444444444445)"/><use xlink:href="#J" transform="matrix(1,0,0,1,162.60875577162662,488.88489208633115) translate(93.52345679012345 14.469444444444445)"/><use xlink:href="#k" transform="matrix(1,0,0,1,162.60875577162662,488.88489208633115) translate(36.7783950617284 30.73611111111111)"/><use xlink:href="#E" transform="matrix(1,0,0,1,162.60875577162662,488.88489208633115) translate(87.15987654320988 30.73611111111111)"/><use xlink:href="#K" transform="matrix(1,0,0,1,162.60875577162662,488.88489208633115) translate(30.35833333333335 47.00277777777778)"/><path d="M438.03 399h76.48l25.5 33.95-25.5 33.96h-76.47l-25.5-33.95z" stroke="#000" stroke-width="2" fill="#fff"/><use xlink:href="#L" transform="matrix(1,0,0,1,417.53625192387545,403.99280575539586) translate(7.313950617283959 25.344444444444445)"/><use xlink:href="#b" transform="matrix(1,0,0,1,417.53625192387545,403.99280575539586) translate(41.95592592592593 25.344444444444445)"/><use xlink:href="#M" transform="matrix(1,0,0,1,417.53625192387545,403.99280575539586) translate(53.25222222222223 25.344444444444445)"/><use xlink:href="#N" transform="matrix(1,0,0,1,417.53625192387545,403.99280575539586) translate(94.63432098765432 25.344444444444445)"/><use xlink:href="#O" transform="matrix(1,0,0,1,417.53625192387545,403.99280575539586) translate(46.202530864197534 41.611111111111114)"/><path d="M438.03 485.24h76.48L540 519.2l-25.5 33.96h-76.47l-25.5-33.96z" stroke="#000" stroke-width="2" fill="#fff"/><use xlink:href="#P" transform="matrix(1,0,0,1,417.53625192387545,490.24316546762594) translate(15.296666666666676 25.344444444444445)"/><use xlink:href="#b" transform="matrix(1,0,0,1,417.53625192387545,490.24316546762594) translate(43.80098765432099 25.344444444444445)"/><use xlink:href="#Q" transform="matrix(1,0,0,1,417.53625192387545,490.24316546762594) translate(55.09728395061729 25.344444444444445)"/><use xlink:href="#R" transform="matrix(1,0,0,1,417.53625192387545,490.24316546762594) translate(27.78956790123457 41.611111111111114)"/><path d="M438.03 571.5h76.48l25.5 33.95-25.5 33.96h-76.47l-25.5-33.95z" stroke="#000" stroke-width="2" fill="#fff"/><use xlink:href="#P" transform="matrix(1,0,0,1,417.53625192387545,576.4935251798561) translate(13.037407407407409 25.344444444444445)"/><use xlink:href="#S" transform="matrix(1,0,0,1,417.53625192387545,576.4935251798561) translate(41.541728395061725 25.344444444444445)"/><use xlink:href="#T" transform="matrix(1,0,0,1,417.53625192387545,576.4935251798561) translate(59.6158024691358 25.344444444444445)"/><use xlink:href="#l" transform="matrix(1,0,0,1,417.53625192387545,576.4935251798561) translate(22.141419753086424 41.611111111111114)"/><use xlink:href="#U" transform="matrix(1,0,0,1,417.53625192387545,576.4935251798561) translate(40.96858024691358 41.611111111111114)"/><path d="M410.5 433.57l-88.73 70.9" stroke="#000" stroke-width="2" fill="none"/><path d="M413.15 430.47l-1.86 2.48.6.8-.8.62-1.24-1.56 3.15-2.5z"/><path d="M309.84 513.98l8.26-12.52 5.78 7.24z" stroke="#000" stroke-width="2"/><path d="M410.3 519.2H325.8" stroke="#000" stroke-width="2" fill="none"/><path d="M412.04 518.2l-.75 1 .74 1h-1.78v-2z"/><path d="M310.55 519.2l14.27-4.64v9.27z" stroke="#000" stroke-width="2"/><path d="M410.5 604.83l-88.73-70.9" stroke="#000" stroke-width="2" fill="none"/><path d="M411.9 604.65l-.6.8 1.85 2.48-.14.17-3.14-2.5 1.25-1.57z"/><path d="M309.84 524.4l14.04 5.3-5.78 7.24z" stroke="#000" stroke-width="2"/><path d="M231.96 760l75.68 33.96-75.68 33.95-75.68-33.94z" stroke="#000" stroke-width="2" fill="#fff"/><use xlink:href="#V" transform="matrix(1,0,0,1,161.28100839583362,765) translate(43.412716049382716 18.854444444444447)"/><use xlink:href="#W" transform="matrix(1,0,0,1,161.28100839583362,765) translate(25.104382716049383 35.121111111111105)"/><path d="M136.36 579.98h191.2V640h-191.2l38.24-30z" stroke="#000" stroke-width="2" fill="#fff"/><use xlink:href="#X" transform="matrix(1,0,0,1,174.60300902321245,587.9827338129495) translate(21.61851851851852 10.844444444444445)"/><use xlink:href="#B" transform="matrix(1,0,0,1,174.60300902321245,587.9827338129495) translate(72.03765432098766 10.844444444444445)"/><use xlink:href="#Y" transform="matrix(1,0,0,1,174.60300902321245,587.9827338129495) translate(94.59259259259258 10.844444444444445)"/><use xlink:href="#Z" transform="matrix(1,0,0,1,174.60300902321245,587.9827338129495) translate(9.945679012345686 27.11111111111111)"/><use xlink:href="#aa" transform="matrix(1,0,0,1,174.60300902321245,587.9827338129495) translate(81.37592592592591 27.11111111111111)"/><use xlink:href="#ab" transform="matrix(1,0,0,1,174.60300902321245,587.9827338129495) translate(107.73395061728394 27.11111111111111)"/><use xlink:href="#ac" transform="matrix(1,0,0,1,174.60300902321245,587.9827338129495) translate(11.433024691358035 43.37777777777778)"/><use xlink:href="#ad" transform="matrix(1,0,0,1,174.60300902321245,587.9827338129495) translate(40.8033950617284 43.37777777777778)"/><use xlink:href="#ae" transform="matrix(1,0,0,1,174.60300902321245,587.9827338129495) translate(58.83981481481482 43.37777777777778)"/><path d="M152.3 659.1h159.33v67.92H152.3z" stroke="#000" stroke-width="2" fill="#fff"/><g><use xlink:href="#af" transform="matrix(1,0,0,1,157.29776626845478,664.1021582733812) translate(11.025308641975307 14.469444444444445)"/><use xlink:href="#ag" transform="matrix(1,0,0,1,157.29776626845478,664.1021582733812) translate(61.444444444444436 14.469444444444445)"/><use xlink:href="#ah" transform="matrix(1,0,0,1,157.29776626845478,664.1021582733812) translate(79.5185185185185 14.469444444444445)"/><use xlink:href="#B" transform="matrix(1,0,0,1,157.29776626845478,664.1021582733812) translate(12.173765432098762 30.73611111111111)"/><use xlink:href="#ai" transform="matrix(1,0,0,1,157.29776626845478,664.1021582733812) translate(34.7287037037037 30.73611111111111)"/><use xlink:href="#E" transform="matrix(1,0,0,1,157.29776626845478,664.1021582733812) translate(122.7645061728395 30.73611111111111)"/><use xlink:href="#aj" transform="matrix(1,0,0,1,157.29776626845478,664.1021582733812) translate(51.67314814814815 47.00277777777778)"/></g><path d="M152.3 880h154v50.94h-154z" stroke="#000" stroke-width="2" fill="#fff"/><g><use xlink:href="#I" transform="matrix(1,0,0,1,157.29131741024017,885) translate(11.236419753086423 10.844444444444445)"/><use xlink:href="#h" transform="matrix(1,0,0,1,157.29131741024017,885) translate(77.35740740740741 10.844444444444445)"/><use xlink:href="#ak" transform="matrix(1,0,0,1,157.29131741024017,885) translate(108.1962962962963 10.844444444444445)"/><use xlink:href="#al" transform="matrix(1,0,0,1,157.29131741024017,885) translate(5.927160493827174 27.11111111111111)"/><use xlink:href="#l" transform="matrix(1,0,0,1,157.29131741024017,885) translate(47.271604938271615 27.11111111111111)"/><use xlink:href="#am" transform="matrix(1,0,0,1,157.29131741024017,885) translate(66.09876543209877 27.11111111111111)"/><use xlink:href="#an" transform="matrix(1,0,0,1,157.29131741024017,885) translate(124.7641975308642 27.11111111111111)"/><use xlink:href="#ao" transform="matrix(1,0,0,1,157.29131741024017,885) translate(45.407716049382714 43.37777777777778)"/></g><path d="M231.96 553.8v6.68" stroke="#000" stroke-width="2" fill="none"/><path d="M232.96 553.82h-2v-1.02h2z"/><path d="M231.96 575.75l-4.63-14.27h9.27z" stroke="#000" stroke-width="2"/><path d="M232.17 461v3.38" stroke="#000" stroke-width="2" fill="none"/><path d="M233.17 461.02h-2V460h2z"/><path d="M232.17 479.65l-4.63-14.27h9.27z" stroke="#000" stroke-width="2"/><path d="M231.3 642v-1" stroke="#000" stroke-width="2" fill="none"/><path d="M232.3 642.03h-2V641h2z"/><path d="M231.3 654.87l-4.63-14.27h9.27z" stroke="#000" stroke-width="2"/><path d="M231.96 729.02v11.38" stroke="#000" stroke-width="2" fill="none"/><path d="M232.96 729.04h-2v-1.02h2z"/><path d="M231.96 755.67l-4.63-14.27h9.27z" stroke="#000" stroke-width="2"/><path d="M232.9 830.06l-.7 13.14h-2l.7-13.24z"/><path d="M232.9 830.1l-2-.12.08-1.4.98.43 1.03-.45zM229.47 875.77l-2.93-10.97h7.15z"/><path d="M229.3 879l-3.8-14.2h2.08l2.06 7.74 2.98-7.74h2.14z"/><g><use xlink:href="#G" transform="matrix(1,0,0,1,215.18163701113232,843.2048567364053) translate(0 14.4)"/></g><path d="M231.96 231.2v15.2" stroke="#000" stroke-width="2" fill="none"/><path d="M232.96 231.23h-2v-1.02h2z"/><path d="M231.96 261.66l-4.63-14.26h9.27z" stroke="#000" stroke-width="2"/><path d="M229.42 137.82l.46 4.1" stroke="#000" stroke-width="2" fill="none"/><path d="M230.42 137.73l-2 .23-.12-1.13h2z"/><path d="M231.6 157.08l-6.2-13.65 9.2-1.05z" stroke="#000" stroke-width="2"/><path d="M229.3 39.92v-4.2" stroke="#000" stroke-width="2" fill="none"/><path d="M229.3 55.2l-4.63-14.28h9.27z" stroke="#000" stroke-width="2"/><path d="M230.3 34.85v.9h-2V34.6zM112.3 792.96h40.54v2H110.3v-39.38h2zm20.5-98.9h-20.5v39.92h-2v-41.92h22.5z"/><path d="M153.84 793.96l2.23 1h-3.26v-2h3.27zM148.06 693.06l-14.26 4.63v-9.28z"/><path d="M151.3 693.06l-18.5 6v-12zm-16.5 3.26l10.03-3.26-10.03-3.26z"/><g><use xlink:href="#H" transform="matrix(1,0,0,1,94.82276626845479,733.9781255695558) translate(0 14.4)"/></g><path d="M231.96 963.53l71.7 42.44-71.7 42.45-71.7-42.45z" stroke="#000" stroke-width="2" fill="#fff"/><g><use xlink:href="#ap" transform="matrix(1,0,0,1,165.26425052321258,968.5251798561154) translate(16.104691358024702 38.96944444444445)"/><use xlink:href="#aq" transform="matrix(1,0,0,1,165.26425052321258,968.5251798561154) translate(56.69604938271605 38.96944444444445)"/><use xlink:href="#ar" transform="matrix(1,0,0,1,165.26425052321258,968.5251798561154) translate(83.7695061728395 38.96944444444445)"/><use xlink:href="#as" transform="matrix(1,0,0,1,165.26425052321258,968.5251798561154) translate(35.75191358024692 55.236111111111114)"/><use xlink:href="#at" transform="matrix(1,0,0,1,165.26425052321258,968.5251798561154) translate(54.57907407407408 55.236111111111114)"/></g><path d="M370.05 976.26h143.4v59.42h-143.4z" stroke="#000" stroke-width="2" fill="#fff"/><g><use xlink:href="#au" transform="matrix(1,0,0,1,375.04833589850057,981.2589928057556) translate(30.512962962962966 13.969444444444445)"/><use xlink:href="#u" transform="matrix(1,0,0,1,375.04833589850057,981.2589928057556) translate(89.1783950617284 13.969444444444445)"/><use xlink:href="#av" transform="matrix(1,0,0,1,375.04833589850057,981.2589928057556) translate(8.033333333333353 30.23611111111111)"/><use xlink:href="#aw" transform="matrix(1,0,0,1,375.04833589850057,981.2589928057556) translate(93.09444444444443 30.23611111111111)"/><use xlink:href="#ax" transform="matrix(1,0,0,1,375.04833589850057,981.2589928057556) translate(105.89691358024689 30.23611111111111)"/><use xlink:href="#ay" transform="matrix(1,0,0,1,375.04833589850057,981.2589928057556) translate(117.1932098765432 30.23611111111111)"/><use xlink:href="#l" transform="matrix(1,0,0,1,375.04833589850057,981.2589928057556) translate(12.457716049382732 46.50277777777778)"/><use xlink:href="#az" transform="matrix(1,0,0,1,375.04833589850057,981.2589928057556) translate(31.28487654320989 46.50277777777778)"/><use xlink:href="#aA" transform="matrix(1,0,0,1,375.04833589850057,981.2589928057556) translate(99.74043209876541 46.50277777777778)"/></g><g><path d="M317.58 1086.62v8.5m0 33.94c-9.15 0-16.57-7.6-16.57-16.97 0-9.4 7.43-17 16.58-17 9.16 0 16.58 7.6 16.58 17 0 9.36-7.42 16.96-16.58 16.96z" stroke="#000" stroke-width="2" fill="#fff"/><path d="M318.25 1086.62v8.5h-1.33v-8.5z" fill="none"/></g><path d="M320.86 1006.97h-14.24v-2h14.24z"/><path d="M306.65 1006.97h-2.72l1.7-1-1.7-1h2.72zM365.8 1005.97l-12 3.9v-7.8z"/><path d="M369.05 1005.97l-15.24 4.95v-2.1l8.78-2.85-8.77-2.85v-2.1z"/><g><use xlink:href="#H" transform="matrix(1,0,0,1,320.8611399184493,995.171223021583) translate(0 14.4)"/></g><path d="M318.58 1060.15v7.97h-2v-5.97h-31.43v-2zm-64.33 0v2h-23.3v-11.57h2v9.57z"/><path d="M232.96 1050.6h-2v-1.6l1 .58 1-.6zM317.58 1083.38l-4.63-14.26h9.27z"/><path d="M317.58 1086.62l-6-18.5h12zm-3.26-16.5l3.26 10.03 3.26-10.03z"/><g><use xlink:href="#G" transform="matrix(1,0,0,1,254.24601892804873,1050.351079136691) translate(0 14.4)"/></g><path d="M441.75 1037.68v23.47H317.58v6.97" stroke="#000" stroke-width="2" fill="none"/><path d="M442.75 1037.7h-2v-1.02h2z"/><path d="M317.58 1083.38l-4.63-14.26h9.27z" stroke="#000" stroke-width="2"/><path d="M229.3 932.94v12.5" stroke="#000" stroke-width="2" fill="none"/><path d="M230.3 932.96h-2v-1.02h2z"/><path d="M229.3 960.7l-4.63-14.26h9.27z" stroke="#000" stroke-width="2"/><path d="M245.82 12.73h116.84V29.7H245.82z" stroke="#000" stroke-opacity="0" stroke-width="2" fill="#fff" fill-opacity="0"/><g><use xlink:href="#aB" transform="matrix(1,0,0,1,250.82253637420524,17.733812949640296) translate(6.883950617283958 10.844444444444445)"/><use xlink:href="#b" transform="matrix(1,0,0,1,250.82253637420524,17.733812949640296) translate(42.20370370370371 10.844444444444445)"/><use xlink:href="#aC" transform="matrix(1,0,0,1,250.82253637420524,17.733812949640296) translate(53.50000000000001 10.844444444444445)"/></g><path d="M224 1129.06h196.5V1180H224z" stroke="#000" stroke-opacity="0" stroke-width="2" fill="#fff" fill-opacity="0"/><g><use xlink:href="#A" transform="matrix(1,0,0,1,228.9961245612747,1134.064748201439) translate(14.520061728395078 10.844444444444445)"/><use xlink:href="#aD" transform="matrix(1,0,0,1,228.9961245612747,1134.064748201439) translate(52.13672839506174 10.844444444444445)"/><use xlink:href="#aE" transform="matrix(1,0,0,1,228.9961245612747,1134.064748201439) translate(63.433024691358035 10.844444444444445)"/><use xlink:href="#h" transform="matrix(1,0,0,1,228.9961245612747,1134.064748201439) translate(134.11018518518517 10.844444444444445)"/><use xlink:href="#e" transform="matrix(1,0,0,1,228.9961245612747,1134.064748201439) translate(164.94907407407408 10.844444444444445)"/><use xlink:href="#q" transform="matrix(1,0,0,1,228.9961245612747,1134.064748201439) translate(22.03209876543211 27.11111111111111)"/><use xlink:href="#l" transform="matrix(1,0,0,1,228.9961245612747,1134.064748201439) translate(100.9932098765432 27.11111111111111)"/><use xlink:href="#aF" transform="matrix(1,0,0,1,228.9961245612747,1134.064748201439) translate(119.82037037037036 27.11111111111111)"/><use xlink:href="#aG" transform="matrix(1,0,0,1,228.9961245612747,1134.064748201439) translate(145.42530864197528 27.11111111111111)"/><use xlink:href="#aH" transform="matrix(1,0,0,1,228.9961245612747,1134.064748201439) translate(37.22561728395061 43.37777777777778)"/><use xlink:href="#aI" transform="matrix(1,0,0,1,228.9961245612747,1134.064748201439) translate(96.64413580246912 43.37777777777778)"/></g><defs><path d="M205 0l-28-72H64L36 0H1l101-248h38L239 0h-34zm-38-99l-47-123c-12 45-31 82-46 123h93" id="aJ"/><path d="M177-190C167-65 218 103 67 71c-23-6-38-20-44-43l32-5c15 47 100 32 89-28v-30C133-14 115 1 83 1 29 1 15-40 15-95c0-56 16-97 71-98 29-1 48 16 59 35 1-10 0-23 2-32h30zM94-22c36 0 50-32 50-73 0-42-14-75-50-75-39 0-46 34-46 75s6 73 46 73" id="aK"/><path d="M84 4C-5 8 30-112 23-190h32v120c0 31 7 50 39 49 72-2 45-101 50-169h31l1 190h-30c-1-10 1-25-2-33-11 22-28 36-60 37" id="aL"/><path d="M141-36C126-15 110 5 73 4 37 3 15-17 15-53c-1-64 63-63 125-63 3-35-9-54-41-54-24 1-41 7-42 31l-33-3c5-37 33-52 76-52 45 0 72 20 72 64v82c-1 20 7 32 28 27v20c-31 9-61-2-59-35zM48-53c0 20 12 33 32 33 41-3 63-29 60-74-43 2-92-5-92 41" id="aM"/><path d="M114-163C36-179 61-72 57 0H25l-1-190h30c1 12-1 29 2 39 6-27 23-49 58-41v29" id="aN"/><path d="M85-194c31 0 48 13 60 33l-1-100h32l1 261h-30c-2-10 0-23-3-31C134-8 116 4 85 4 32 4 16-35 15-94c0-66 23-100 70-100zm9 24c-40 0-46 34-46 75 0 40 6 74 45 74 42 0 51-32 51-76 0-42-9-74-50-73" id="aO"/><g id="a"><use transform="matrix(0.03765432098765432,0,0,0.03765432098765432,0,0)" xlink:href="#aJ"/><use transform="matrix(0.03765432098765432,0,0,0.03765432098765432,9.037037037037036,0)" xlink:href="#aK"/><use transform="matrix(0.03765432098765432,0,0,0.03765432098765432,16.5679012345679,0)" xlink:href="#aL"/><use transform="matrix(0.03765432098765432,0,0,0.03765432098765432,24.098765432098762,0)" xlink:href="#aM"/><use transform="matrix(0.03765432098765432,0,0,0.03765432098765432,31.629629629629626,0)" xlink:href="#aN"/><use transform="matrix(0.03765432098765432,0,0,0.03765432098765432,36.11049382716049,0)" xlink:href="#aO"/><use transform="matrix(0.03765432098765432,0,0,0.03765432098765432,43.64135802469136,0)" xlink:href="#aM"/></g><path d="M100-194c62-1 85 37 85 99 1 63-27 99-86 99S16-35 15-95c0-66 28-99 85-99zM99-20c44 1 53-31 53-75 0-43-8-75-51-75s-53 32-53 75 10 74 51 75" id="aP"/><use transform="matrix(0.03765432098765432,0,0,0.03765432098765432,0,0)" xlink:href="#aP" id="b"/><path d="M137 0h-34L2-248h35l83 218 83-218h36" id="aQ"/><path d="M190 0L58-211 59 0H30v-248h39L202-35l-2-213h31V0h-41" id="aR"/><path d="M127-220V0H93v-220H8v-28h204v28h-85" id="aS"/><g id="c"><use transform="matrix(0.03765432098765432,0,0,0.03765432098765432,0,0)" xlink:href="#aQ"/><use transform="matrix(0.03765432098765432,0,0,0.03765432098765432,8.020370370370369,0)" xlink:href="#aJ"/><use transform="matrix(0.03765432098765432,0,0,0.03765432098765432,17.057407407407403,0)" xlink:href="#aR"/><use transform="matrix(0.03765432098765432,0,0,0.03765432098765432,26.80987654320987,0)" xlink:href="#aS"/></g><path d="M59-47c-2 24 18 29 38 22v24C64 9 27 4 27-40v-127H5v-23h24l9-43h21v43h35v23H59v120" id="aT"/><path d="M24-231v-30h32v30H24zM24 0v-190h32V0H24" id="aU"/><path d="M117-194c89-4 53 116 60 194h-32v-121c0-31-8-49-39-48C34-167 62-67 57 0H25l-1-190h30c1 10-1 24 2 32 11-22 29-35 61-36" id="aV"/><g id="d"><use transform="matrix(0.03765432098765432,0,0,0.03765432098765432,0,0)" xlink:href="#aM"/><use transform="matrix(0.03765432098765432,0,0,0.03765432098765432,7.530864197530864,0)" xlink:href="#aT"/><use transform="matrix(0.03765432098765432,0,0,0.03765432098765432,11.296296296296296,0)" xlink:href="#aU"/><use transform="matrix(0.03765432098765432,0,0,0.03765432098765432,14.270987654320987,0)" xlink:href="#aV"/><use transform="matrix(0.03765432098765432,0,0,0.03765432098765432,21.80185185185185,0)" xlink:href="#aK"/><use transform="matrix(0.03765432098765432,0,0,0.03765432098765432,29.332716049382714,0)" xlink:href="#aU"/><use transform="matrix(0.03765432098765432,0,0,0.03765432098765432,32.3074074074074,0)" xlink:href="#aN"/></g><use transform="matrix(0.03765432098765432,0,0,0.03765432098765432,0,0)" xlink:href="#aM" id="e"/><path d="M24 0v-261h32V0H24" id="aW"/><g id="f"><use transform="matrix(0.03765432098765432,0,0,0.03765432098765432,0,0)" xlink:href="#aM"/><use transform="matrix(0.03765432098765432,0,0,0.03765432098765432,7.530864197530864,0)" xlink:href="#aW"/><use transform="matrix(0.03765432098765432,0,0,0.03765432098765432,10.505555555555555,0)" xlink:href="#aT"/><use transform="matrix(0.03765432098765432,0,0,0.03765432098765432,14.270987654320987,0)" xlink:href="#aL"/><use transform="matrix(0.03765432098765432,0,0,0.03765432098765432,21.80185185185185,0)" xlink:href="#aN"/><use transform="matrix(0.03765432098765432,0,0,0.03765432098765432,26.282716049382714,0)" xlink:href="#aM"/></g><path d="M100-194c63 0 86 42 84 106H49c0 40 14 67 53 68 26 1 43-12 49-29l28 8c-11 28-37 45-77 45C44 4 14-33 15-96c1-61 26-98 85-98zm52 81c6-60-76-77-97-28-3 7-6 17-6 28h103" id="aX"/><path d="M135-143c-3-34-86-38-87 0 15 53 115 12 119 90S17 21 10-45l28-5c4 36 97 45 98 0-10-56-113-15-118-90-4-57 82-63 122-42 12 7 21 19 24 35" id="aY"/><path d="M115-194c55 1 70 41 70 98S169 2 115 4C84 4 66-9 55-30l1 105H24l-1-265h31l2 30c10-21 28-34 59-34zm-8 174c40 0 45-34 45-75s-6-73-45-74c-42 0-51 32-51 76 0 43 10 73 51 73" id="aZ"/><g id="g"><use transform="matrix(0.03765432098765432,0,0,0.03765432098765432,0,0)" xlink:href="#aX"/><use transform="matrix(0.03765432098765432,0,0,0.03765432098765432,7.530864197530864,0)" xlink:href="#aY"/><use transform="matrix(0.03765432098765432,0,0,0.03765432098765432,14.30864197530864,0)" xlink:href="#aT"/><use transform="matrix(0.03765432098765432,0,0,0.03765432098765432,18.074074074074073,0)" xlink:href="#aU"/><use transform="matrix(0.03765432098765432,0,0,0.03765432098765432,21.048765432098765,0)" xlink:href="#aZ"/><use transform="matrix(0.03765432098765432,0,0,0.03765432098765432,28.579629629629625,0)" xlink:href="#aL"/><use transform="matrix(0.03765432098765432,0,0,0.03765432098765432,36.1104938271605,0)" xlink:href="#aW"/><use transform="matrix(0.03765432098765432,0,0,0.03765432098765432,39.08518518518519,0)" xlink:href="#aM"/><use transform="matrix(0.03765432098765432,0,0,0.03765432098765432,46.61604938271606,0)" xlink:href="#aO"/><use transform="matrix(0.03765432098765432,0,0,0.03765432098765432,54.14691358024692,0)" xlink:href="#aM"/></g><g id="h"><use transform="matrix(0.03765432098765432,0,0,0.03765432098765432,0,0)" xlink:href="#aZ"/><use transform="matrix(0.03765432098765432,0,0,0.03765432098765432,7.530864197530864,0)" xlink:href="#aM"/><use transform="matrix(0.03765432098765432,0,0,0.03765432098765432,15.061728395061728,0)" xlink:href="#aN"/><use transform="matrix(0.03765432098765432,0,0,0.03765432098765432,19.54259259259259,0)" xlink:href="#aM"/></g><path d="M96-169c-40 0-48 33-48 73s9 75 48 75c24 0 41-14 43-38l32 2c-6 37-31 61-74 61-59 0-76-41-82-99-10-93 101-131 147-64 4 7 5 14 7 22l-32 3c-4-21-16-35-41-35" id="ba"/><g id="i"><use transform="matrix(0.03765432098765432,0,0,0.03765432098765432,0,0)" xlink:href="#aU"/><use transform="matrix(0.03765432098765432,0,0,0.03765432098765432,2.974691358024691,0)" xlink:href="#aV"/><use transform="matrix(0.03765432098765432,0,0,0.03765432098765432,10.505555555555555,0)" xlink:href="#aU"/><use transform="matrix(0.03765432098765432,0,0,0.03765432098765432,13.480246913580245,0)" xlink:href="#ba"/><use transform="matrix(0.03765432098765432,0,0,0.03765432098765432,20.258024691358024,0)" xlink:href="#aU"/><use transform="matrix(0.03765432098765432,0,0,0.03765432098765432,23.232716049382717,0)" xlink:href="#aM"/><use transform="matrix(0.03765432098765432,0,0,0.03765432098765432,30.76358024691358,0)" xlink:href="#aN"/></g><use transform="matrix(0.03765432098765432,0,0,0.03765432098765432,0,0)" xlink:href="#aP" id="j"/><path d="M210-169c-67 3-38 105-44 169h-31v-121c0-29-5-50-35-48C34-165 62-65 56 0H25l-1-190h30c1 10-1 24 2 32 10-44 99-50 107 0 11-21 27-35 58-36 85-2 47 119 55 194h-31v-121c0-29-5-49-35-48" id="bb"/><g id="k"><use transform="matrix(0.03765432098765432,0,0,0.03765432098765432,0,0)" xlink:href="#aY"/><use transform="matrix(0.03765432098765432,0,0,0.03765432098765432,6.777777777777777,0)" xlink:href="#aU"/><use transform="matrix(0.03765432098765432,0,0,0.03765432098765432,9.752469135802468,0)" xlink:href="#aY"/><use transform="matrix(0.03765432098765432,0,0,0.03765432098765432,16.530246913580243,0)" xlink:href="#aT"/><use transform="matrix(0.03765432098765432,0,0,0.03765432098765432,20.295679012345673,0)" xlink:href="#aX"/><use transform="matrix(0.03765432098765432,0,0,0.03765432098765432,27.826543209876537,0)" xlink:href="#bb"/><use transform="matrix(0.03765432098765432,0,0,0.03765432098765432,39.08518518518518,0)" xlink:href="#aM"/></g><g id="l"><use transform="matrix(0.03765432098765432,0,0,0.03765432098765432,0,0)" xlink:href="#aO"/><use transform="matrix(0.03765432098765432,0,0,0.03765432098765432,7.530864197530864,0)" xlink:href="#aX"/></g><path d="M108 0H70L1-190h34L89-25l56-165h34" id="bc"/><path d="M141-36C126-15 110 5 73 4 37 3 15-17 15-53c-1-64 63-63 125-63 3-35-9-54-41-54-24 1-41 7-42 31l-33-3c5-37 33-52 76-52 45 0 72 20 72 64v82c-1 20 7 32 28 27v20c-31 9-61-2-59-35zM48-53c0 20 12 33 32 33 41-3 63-29 60-74-43 2-92-5-92 41zm117-205c-3 23-9 48-36 47-26-1-65-44-74 0H39c4-23 8-48 36-47s64 44 74 0h16" id="bd"/><g id="m"><use transform="matrix(0.03765432098765432,0,0,0.03765432098765432,0,0)" xlink:href="#bc"/><use transform="matrix(0.03765432098765432,0,0,0.03765432098765432,6.777777777777777,0)" xlink:href="#aU"/><use transform="matrix(0.03765432098765432,0,0,0.03765432098765432,9.752469135802468,0)" xlink:href="#aY"/><use transform="matrix(0.03765432098765432,0,0,0.03765432098765432,16.530246913580243,0)" xlink:href="#bd"/><use transform="matrix(0.03765432098765432,0,0,0.03765432098765432,24.061111111111103,0)" xlink:href="#aP"/></g><g id="n"><use transform="matrix(0.03765432098765432,0,0,0.03765432098765432,0,0)" xlink:href="#ba"/><use transform="matrix(0.03765432098765432,0,0,0.03765432098765432,6.777777777777777,0)" xlink:href="#aP"/><use transform="matrix(0.03765432098765432,0,0,0.03765432098765432,14.30864197530864,0)" xlink:href="#bb"/><use transform="matrix(0.03765432098765432,0,0,0.03765432098765432,25.56728395061728,0)" xlink:href="#aZ"/><use transform="matrix(0.03765432098765432,0,0,0.03765432098765432,33.09814814814814,0)" xlink:href="#aL"/><use transform="matrix(0.03765432098765432,0,0,0.03765432098765432,40.629012345679,0)" xlink:href="#aT"/><use transform="matrix(0.03765432098765432,0,0,0.03765432098765432,44.39444444444443,0)" xlink:href="#aM"/><use transform="matrix(0.03765432098765432,0,0,0.03765432098765432,51.92530864197529,0)" xlink:href="#ba"/><use transform="matrix(0.03765432098765432,0,0,0.03765432098765432,58.70308641975307,0)" xlink:href="#aU"/><use transform="matrix(0.03765432098765432,0,0,0.03765432098765432,61.67777777777776,0)" xlink:href="#aP"/><use transform="matrix(0.03765432098765432,0,0,0.03765432098765432,69.20864197530862,0)" xlink:href="#aV"/><use transform="matrix(0.03765432098765432,0,0,0.03765432098765432,76.73950617283948,0)" xlink:href="#aM"/><use transform="matrix(0.03765432098765432,0,0,0.03765432098765432,84.27037037037034,0)" xlink:href="#aW"/></g><path d="M212-179c-10-28-35-45-73-45-59 0-87 40-87 99 0 60 29 101 89 101 43 0 62-24 78-52l27 14C228-24 195 4 139 4 59 4 22-46 18-125c-6-104 99-153 187-111 19 9 31 26 39 46" id="be"/><g id="o"><use transform="matrix(0.03765432098765432,0,0,0.03765432098765432,0,0)" xlink:href="#be"/><use transform="matrix(0.03765432098765432,0,0,0.03765432098765432,9.752469135802468,0)" xlink:href="#aP"/><use transform="matrix(0.03765432098765432,0,0,0.03765432098765432,17.28333333333333,0)" xlink:href="#aV"/><use transform="matrix(0.03765432098765432,0,0,0.03765432098765432,24.814197530864195,0)" xlink:href="#aX"/><use transform="matrix(0.03765432098765432,0,0,0.03765432098765432,32.34506172839506,0)" xlink:href="#ba"/><use transform="matrix(0.03765432098765432,0,0,0.03765432098765432,39.12283950617284,0)" xlink:href="#aT"/><use transform="matrix(0.03765432098765432,0,0,0.03765432098765432,42.88827160493827,0)" xlink:href="#aM"/></g><g id="p"><use transform="matrix(0.03765432098765432,0,0,0.03765432098765432,0,0)" xlink:href="#ba"/><use transform="matrix(0.03765432098765432,0,0,0.03765432098765432,6.777777777777777,0)" xlink:href="#aP"/><use transform="matrix(0.03765432098765432,0,0,0.03765432098765432,14.30864197530864,0)" xlink:href="#bb"/></g><g id="q"><use transform="matrix(0.03765432098765432,0,0,0.03765432098765432,0,0)" xlink:href="#ba"/><use transform="matrix(0.03765432098765432,0,0,0.03765432098765432,6.777777777777777,0)" xlink:href="#aP"/><use transform="matrix(0.03765432098765432,0,0,0.03765432098765432,14.30864197530864,0)" xlink:href="#aV"/><use transform="matrix(0.03765432098765432,0,0,0.03765432098765432,21.83950617283951,0)" xlink:href="#aT"/><use transform="matrix(0.03765432098765432,0,0,0.03765432098765432,25.604938271604937,0)" xlink:href="#aN"/><use transform="matrix(0.03765432098765432,0,0,0.03765432098765432,30.0858024691358,0)" xlink:href="#aP"/><use transform="matrix(0.03765432098765432,0,0,0.03765432098765432,37.61666666666666,0)" xlink:href="#aW"/><use transform="matrix(0.03765432098765432,0,0,0.03765432098765432,40.59135802469135,0)" xlink:href="#aM"/><use transform="matrix(0.03765432098765432,0,0,0.03765432098765432,48.12222222222222,0)" xlink:href="#aO"/><use transform="matrix(0.03765432098765432,0,0,0.03765432098765432,55.65308641975308,0)" xlink:href="#aP"/><use transform="matrix(0.03765432098765432,0,0,0.03765432098765432,63.18395061728395,0)" xlink:href="#aN"/><use transform="matrix(0.03765432098765432,0,0,0.03765432098765432,67.6648148148148,0)" xlink:href="#aM"/></g><g id="r"><use transform="matrix(0.03765432098765432,0,0,0.03765432098765432,0,0)" xlink:href="#bc"/><use transform="matrix(0.03765432098765432,0,0,0.03765432098765432,6.777777777777777,0)" xlink:href="#aP"/><use transform="matrix(0.03765432098765432,0,0,0.03765432098765432,14.30864197530864,0)" xlink:href="#aP"/></g><path d="M87 75C49 33 22-17 22-94c0-76 28-126 65-167h31c-38 41-64 92-64 168S80 34 118 75H87" id="bf"/><path d="M240 0l2-218c-23 76-54 145-80 218h-23L58-218 59 0H30v-248h44l77 211c21-75 51-140 76-211h43V0h-30" id="bg"/><path d="M30 0v-248h33v221h125V0H30" id="bh"/><path d="M143 0L79-87 56-68V0H24v-261h32v163l83-92h37l-77 82L181 0h-38" id="bi"/><path d="M33-261c38 41 65 92 65 168S71 34 33 75H2C39 34 66-17 66-93S39-220 2-261h31" id="bj"/><g id="s"><use transform="matrix(0.03765432098765432,0,0,0.03765432098765432,0,0)" xlink:href="#bf"/><use transform="matrix(0.03765432098765432,0,0,0.03765432098765432,4.480864197530864,0)" xlink:href="#bg"/><use transform="matrix(0.03765432098765432,0,0,0.03765432098765432,15.739506172839505,0)" xlink:href="#aJ"/><use transform="matrix(0.03765432098765432,0,0,0.03765432098765432,23.759876543209877,0)" xlink:href="#aQ"/><use transform="matrix(0.03765432098765432,0,0,0.03765432098765432,32.796913580246915,0)" xlink:href="#bh"/><use transform="matrix(0.03765432098765432,0,0,0.03765432098765432,40.32777777777778,0)" xlink:href="#aU"/><use transform="matrix(0.03765432098765432,0,0,0.03765432098765432,43.302469135802475,0)" xlink:href="#aV"/><use transform="matrix(0.03765432098765432,0,0,0.03765432098765432,50.83333333333334,0)" xlink:href="#bi"/><use transform="matrix(0.03765432098765432,0,0,0.03765432098765432,57.61111111111112,0)" xlink:href="#bj"/></g><g id="t"><use transform="matrix(0.03765432098765432,0,0,0.03765432098765432,0,0)" xlink:href="#aZ"/><use transform="matrix(0.03765432098765432,0,0,0.03765432098765432,7.530864197530864,0)" xlink:href="#aX"/><use transform="matrix(0.03765432098765432,0,0,0.03765432098765432,15.061728395061728,0)" xlink:href="#aK"/><use transform="matrix(0.03765432098765432,0,0,0.03765432098765432,22.59259259259259,0)" xlink:href="#aM"/><use transform="matrix(0.03765432098765432,0,0,0.03765432098765432,30.123456790123456,0)" xlink:href="#aN"/></g><g id="u"><use transform="matrix(0.03765432098765432,0,0,0.03765432098765432,0,0)" xlink:href="#aM"/><use transform="matrix(0.03765432098765432,0,0,0.03765432098765432,7.530864197530864,0)" xlink:href="#aY"/></g><path d="M101-234c-31-9-42 10-38 44h38v23H63V0H32v-167H5v-23h27c-7-52 17-82 69-68v24" id="bk"/><path d="M96-169c-40 0-48 33-48 73s9 75 48 75c24 0 41-14 43-38l32 2c-6 37-31 61-74 61-59 0-76-41-82-99-10-93 101-131 147-64 4 7 5 14 7 22l-32 3c-4-21-16-35-41-35zm3 187c19-1 33 8 33 26 0 31-30 33-64 32V58c18 2 39 4 41-13 1-15-18-13-34-13L87 0h19" id="bl"/><path d="M100-194c62-1 85 37 85 99 1 63-27 99-86 99S16-35 15-95c0-66 28-99 85-99zM99-20c44 1 53-31 53-75 0-43-8-75-51-75s-53 32-53 75 10 74 51 75zm66-238c-3 23-9 48-36 47-26-1-65-44-74 0H39c4-23 8-48 36-47s64 44 74 0h16" id="bm"/><g id="v"><use transform="matrix(0.03765432098765432,0,0,0.03765432098765432,0,0)" xlink:href="#aU"/><use transform="matrix(0.03765432098765432,0,0,0.03765432098765432,2.974691358024691,0)" xlink:href="#aV"/><use transform="matrix(0.03765432098765432,0,0,0.03765432098765432,10.505555555555555,0)" xlink:href="#bk"/><use transform="matrix(0.03765432098765432,0,0,0.03765432098765432,14.270987654320987,0)" xlink:href="#aP"/><use transform="matrix(0.03765432098765432,0,0,0.03765432098765432,21.80185185185185,0)" xlink:href="#aN"/><use transform="matrix(0.03765432098765432,0,0,0.03765432098765432,26.282716049382714,0)" xlink:href="#bb"/><use transform="matrix(0.03765432098765432,0,0,0.03765432098765432,37.541358024691355,0)" xlink:href="#aM"/><use transform="matrix(0.03765432098765432,0,0,0.03765432098765432,45.07222222222223,0)" xlink:href="#bl"/><use transform="matrix(0.03765432098765432,0,0,0.03765432098765432,51.85,0)" xlink:href="#bm"/><use transform="matrix(0.03765432098765432,0,0,0.03765432098765432,59.38086419753087,0)" xlink:href="#aX"/><use transform="matrix(0.03765432098765432,0,0,0.03765432098765432,66.91172839506173,0)" xlink:href="#aY"/></g><g id="w"><use transform="matrix(0.03765432098765432,0,0,0.03765432098765432,0,0)" xlink:href="#aO"/><use transform="matrix(0.03765432098765432,0,0,0.03765432098765432,7.530864197530864,0)" xlink:href="#aX"/><use transform="matrix(0.03765432098765432,0,0,0.03765432098765432,15.061728395061728,0)" xlink:href="#aW"/><use transform="matrix(0.03765432098765432,0,0,0.03765432098765432,18.03641975308642,0)" xlink:href="#aM"/></g><g id="x"><use transform="matrix(0.03765432098765432,0,0,0.03765432098765432,0,0)" xlink:href="#aJ"/><use transform="matrix(0.03765432098765432,0,0,0.03765432098765432,9.037037037037036,0)" xlink:href="#aW"/><use transform="matrix(0.03765432098765432,0,0,0.03765432098765432,12.011728395061727,0)" xlink:href="#aT"/><use transform="matrix(0.03765432098765432,0,0,0.03765432098765432,15.777160493827159,0)" xlink:href="#aU"/><use transform="matrix(0.03765432098765432,0,0,0.03765432098765432,18.75185185185185,0)" xlink:href="#aT"/><use transform="matrix(0.03765432098765432,0,0,0.03765432098765432,22.517283950617283,0)" xlink:href="#aL"/><use transform="matrix(0.03765432098765432,0,0,0.03765432098765432,30.048148148148144,0)" xlink:href="#aO"/><use transform="matrix(0.03765432098765432,0,0,0.03765432098765432,37.57901234567901,0)" xlink:href="#aX"/></g><path d="M18-27v-27l151-64-151-65v-27l175 74v36" id="bn"/><path d="M18-150v-26h174v26H18zm0 90v-26h174v26H18" id="bo"/><g id="y"><use transform="matrix(0.03765432098765432,0,0,0.03765432098765432,0,0)" xlink:href="#bn"/><use transform="matrix(0.03765432098765432,0,0,0.03765432098765432,7.9074074074074066,0)" xlink:href="#bo"/></g><path d="M106-169C34-169 62-67 57 0H25v-261h32l-1 103c12-21 28-36 61-36 89 0 53 116 60 194h-32v-121c2-32-8-49-39-48" id="bp"/><use transform="matrix(0.03765432098765432,0,0,0.03765432098765432,0,0)" xlink:href="#bp" id="z"/><path d="M30 0v-248h187v28H63v79h144v27H63v87h162V0H30" id="bq"/><g id="A"><use transform="matrix(0.03765432098765432,0,0,0.03765432098765432,0,0)" xlink:href="#bq"/><use transform="matrix(0.03765432098765432,0,0,0.03765432098765432,9.037037037037036,0)" xlink:href="#aV"/><use transform="matrix(0.03765432098765432,0,0,0.03765432098765432,16.5679012345679,0)" xlink:href="#bc"/><use transform="matrix(0.03765432098765432,0,0,0.03765432098765432,23.345679012345677,0)" xlink:href="#aU"/><use transform="matrix(0.03765432098765432,0,0,0.03765432098765432,26.32037037037037,0)" xlink:href="#aM"/></g><g id="B"><use transform="matrix(0.03765432098765432,0,0,0.03765432098765432,0,0)" xlink:href="#aL"/><use transform="matrix(0.03765432098765432,0,0,0.03765432098765432,7.530864197530864,0)" xlink:href="#bb"/></g><g id="C"><use transform="matrix(0.03765432098765432,0,0,0.03765432098765432,0,0)" xlink:href="#aY"/><use transform="matrix(0.03765432098765432,0,0,0.03765432098765432,6.777777777777777,0)" xlink:href="#aU"/><use transform="matrix(0.03765432098765432,0,0,0.03765432098765432,9.752469135802468,0)" xlink:href="#aV"/><use transform="matrix(0.03765432098765432,0,0,0.03765432098765432,17.28333333333333,0)" xlink:href="#aM"/><use transform="matrix(0.03765432098765432,0,0,0.03765432098765432,24.814197530864195,0)" xlink:href="#aW"/></g><g id="D"><use transform="matrix(0.03765432098765432,0,0,0.03765432098765432,0,0)" xlink:href="#aZ"/><use transform="matrix(0.03765432098765432,0,0,0.03765432098765432,7.530864197530864,0)" xlink:href="#aM"/><use transform="matrix(0.03765432098765432,0,0,0.03765432098765432,15.061728395061728,0)" xlink:href="#aN"/><use transform="matrix(0.03765432098765432,0,0,0.03765432098765432,19.54259259259259,0)" xlink:href="#aM"/></g><g id="E"><use transform="matrix(0.03765432098765432,0,0,0.03765432098765432,0,0)" xlink:href="#aO"/><use transform="matrix(0.03765432098765432,0,0,0.03765432098765432,7.530864197530864,0)" xlink:href="#aX"/></g><g id="F"><use transform="matrix(0.03765432098765432,0,0,0.03765432098765432,0,0)" xlink:href="#bc"/><use transform="matrix(0.03765432098765432,0,0,0.03765432098765432,6.777777777777777,0)" xlink:href="#aU"/><use transform="matrix(0.03765432098765432,0,0,0.03765432098765432,9.752469135802468,0)" xlink:href="#aY"/><use transform="matrix(0.03765432098765432,0,0,0.03765432098765432,16.530246913580243,0)" xlink:href="#bd"/><use transform="matrix(0.03765432098765432,0,0,0.03765432098765432,24.061111111111103,0)" xlink:href="#aP"/></g><path d="M185-189c-5-48-123-54-124 2 14 75 158 14 163 119 3 78-121 87-175 55-17-10-28-26-33-46l33-7c5 56 141 63 141-1 0-78-155-14-162-118-5-82 145-84 179-34 5 7 8 16 11 25" id="br"/><g id="G"><use transform="matrix(0.05,0,0,0.05,0,0)" xlink:href="#br"/><use transform="matrix(0.05,0,0,0.05,12,0)" xlink:href="#aU"/><use transform="matrix(0.05,0,0,0.05,15.949999999999998,0)" xlink:href="#bb"/></g><g id="H"><use transform="matrix(0.05,0,0,0.05,0,0)" xlink:href="#aR"/><use transform="matrix(0.05,0,0,0.05,12.950000000000001,0)" xlink:href="#bd"/><use transform="matrix(0.05,0,0,0.05,22.950000000000003,0)" xlink:href="#aP"/></g><path d="M30-248c118-7 216 8 213 122C240-48 200 0 122 0H30v-248zM63-27c89 8 146-16 146-99s-60-101-146-95v194" id="bs"/><g id="I"><use transform="matrix(0.03765432098765432,0,0,0.03765432098765432,0,0)" xlink:href="#bs"/><use transform="matrix(0.03765432098765432,0,0,0.03765432098765432,9.752469135802468,0)" xlink:href="#aX"/><use transform="matrix(0.03765432098765432,0,0,0.03765432098765432,17.28333333333333,0)" xlink:href="#aT"/><use transform="matrix(0.03765432098765432,0,0,0.03765432098765432,21.048765432098765,0)" xlink:href="#aX"/><use transform="matrix(0.03765432098765432,0,0,0.03765432098765432,28.579629629629625,0)" xlink:href="#aN"/><use transform="matrix(0.03765432098765432,0,0,0.03765432098765432,33.06049382716049,0)" xlink:href="#bb"/><use transform="matrix(0.03765432098765432,0,0,0.03765432098765432,44.319135802469134,0)" xlink:href="#aU"/><use transform="matrix(0.03765432098765432,0,0,0.03765432098765432,47.29382716049382,0)" xlink:href="#aV"/><use transform="matrix(0.03765432098765432,0,0,0.03765432098765432,54.824691358024694,0)" xlink:href="#aM"/></g><g id="J"><use transform="matrix(0.03765432098765432,0,0,0.03765432098765432,0,0)" xlink:href="#aV"/><use transform="matrix(0.03765432098765432,0,0,0.03765432098765432,7.530864197530864,0)" xlink:href="#aP"/><use transform="matrix(0.03765432098765432,0,0,0.03765432098765432,15.061728395061728,0)" xlink:href="#bc"/><use transform="matrix(0.03765432098765432,0,0,0.03765432098765432,21.83950617283951,0)" xlink:href="#aP"/></g><g id="K"><use transform="matrix(0.03765432098765432,0,0,0.03765432098765432,0,0)" xlink:href="#ba"/><use transform="matrix(0.03765432098765432,0,0,0.03765432098765432,6.777777777777777,0)" xlink:href="#aP"/><use transform="matrix(0.03765432098765432,0,0,0.03765432098765432,14.30864197530864,0)" xlink:href="#aP"/><use transform="matrix(0.03765432098765432,0,0,0.03765432098765432,21.83950617283951,0)" xlink:href="#aN"/><use transform="matrix(0.03765432098765432,0,0,0.03765432098765432,26.32037037037037,0)" xlink:href="#aO"/><use transform="matrix(0.03765432098765432,0,0,0.03765432098765432,33.85123456790123,0)" xlink:href="#aX"/><use transform="matrix(0.03765432098765432,0,0,0.03765432098765432,41.38209876543208,0)" xlink:href="#aV"/><use transform="matrix(0.03765432098765432,0,0,0.03765432098765432,48.91296296296295,0)" xlink:href="#aM"/><use transform="matrix(0.03765432098765432,0,0,0.03765432098765432,56.44382716049381,0)" xlink:href="#aO"/><use transform="matrix(0.03765432098765432,0,0,0.03765432098765432,63.97469135802467,0)" xlink:href="#aM"/><use transform="matrix(0.03765432098765432,0,0,0.03765432098765432,71.50555555555553,0)" xlink:href="#aY"/></g><g id="L"><use transform="matrix(0.03765432098765432,0,0,0.03765432098765432,0,0)" xlink:href="#aJ"/><use transform="matrix(0.03765432098765432,0,0,0.03765432098765432,9.037037037037036,0)" xlink:href="#ba"/><use transform="matrix(0.03765432098765432,0,0,0.03765432098765432,15.814814814814813,0)" xlink:href="#bp"/><use transform="matrix(0.03765432098765432,0,0,0.03765432098765432,23.345679012345677,0)" xlink:href="#aM"/></g><g id="M"><use transform="matrix(0.03765432098765432,0,0,0.03765432098765432,0,0)" xlink:href="#ba"/><use transform="matrix(0.03765432098765432,0,0,0.03765432098765432,6.777777777777777,0)" xlink:href="#aX"/><use transform="matrix(0.03765432098765432,0,0,0.03765432098765432,14.30864197530864,0)" xlink:href="#aV"/><use transform="matrix(0.03765432098765432,0,0,0.03765432098765432,21.83950617283951,0)" xlink:href="#aT"/><use transform="matrix(0.03765432098765432,0,0,0.03765432098765432,25.604938271604937,0)" xlink:href="#aN"/><use transform="matrix(0.03765432098765432,0,0,0.03765432098765432,30.0858024691358,0)" xlink:href="#aP"/></g><g id="N"><use transform="matrix(0.03765432098765432,0,0,0.03765432098765432,0,0)" xlink:href="#aO"/><use transform="matrix(0.03765432098765432,0,0,0.03765432098765432,7.530864197530864,0)" xlink:href="#aM"/></g><g id="O"><use transform="matrix(0.03765432098765432,0,0,0.03765432098765432,0,0)" xlink:href="#bk"/><use transform="matrix(0.03765432098765432,0,0,0.03765432098765432,3.765432098765432,0)" xlink:href="#aM"/><use transform="matrix(0.03765432098765432,0,0,0.03765432098765432,11.296296296296296,0)" xlink:href="#ba"/><use transform="matrix(0.03765432098765432,0,0,0.03765432098765432,18.074074074074073,0)" xlink:href="#aX"/></g><g id="P"><use transform="matrix(0.03765432098765432,0,0,0.03765432098765432,0,0)" xlink:href="#be"/><use transform="matrix(0.03765432098765432,0,0,0.03765432098765432,9.752469135802468,0)" xlink:href="#aN"/><use transform="matrix(0.03765432098765432,0,0,0.03765432098765432,14.23333333333333,0)" xlink:href="#aU"/><use transform="matrix(0.03765432098765432,0,0,0.03765432098765432,17.208024691358023,0)" xlink:href="#aM"/></g><g id="Q"><use transform="matrix(0.03765432098765432,0,0,0.03765432098765432,0,0)" xlink:href="#aY"/><use transform="matrix(0.03765432098765432,0,0,0.03765432098765432,6.777777777777777,0)" xlink:href="#aU"/><use transform="matrix(0.03765432098765432,0,0,0.03765432098765432,9.752469135802468,0)" xlink:href="#aY"/><use transform="matrix(0.03765432098765432,0,0,0.03765432098765432,16.530246913580243,0)" xlink:href="#aT"/><use transform="matrix(0.03765432098765432,0,0,0.03765432098765432,20.295679012345673,0)" xlink:href="#aX"/><use transform="matrix(0.03765432098765432,0,0,0.03765432098765432,27.826543209876537,0)" xlink:href="#bb"/><use transform="matrix(0.03765432098765432,0,0,0.03765432098765432,39.08518518518518,0)" xlink:href="#aM"/></g><g id="R"><use transform="matrix(0.03765432098765432,0,0,0.03765432098765432,0,0)" xlink:href="#ba"/><use transform="matrix(0.03765432098765432,0,0,0.03765432098765432,6.777777777777777,0)" xlink:href="#aM"/><use transform="matrix(0.03765432098765432,0,0,0.03765432098765432,14.30864197530864,0)" xlink:href="#aN"/><use transform="matrix(0.03765432098765432,0,0,0.03765432098765432,18.789506172839506,0)" xlink:href="#aT"/><use transform="matrix(0.03765432098765432,0,0,0.03765432098765432,22.55493827160494,0)" xlink:href="#aX"/><use transform="matrix(0.03765432098765432,0,0,0.03765432098765432,30.085802469135803,0)" xlink:href="#aY"/><use transform="matrix(0.03765432098765432,0,0,0.03765432098765432,36.86358024691358,0)" xlink:href="#aU"/><use transform="matrix(0.03765432098765432,0,0,0.03765432098765432,39.83827160493827,0)" xlink:href="#aM"/><use transform="matrix(0.03765432098765432,0,0,0.03765432098765432,47.36913580246913,0)" xlink:href="#aV"/><use transform="matrix(0.03765432098765432,0,0,0.03765432098765432,54.89999999999999,0)" xlink:href="#aP"/></g><g id="S"><use transform="matrix(0.03765432098765432,0,0,0.03765432098765432,0,0)" xlink:href="#aM"/><use transform="matrix(0.03765432098765432,0,0,0.03765432098765432,7.530864197530864,0)" xlink:href="#aY"/></g><g id="T"><use transform="matrix(0.03765432098765432,0,0,0.03765432098765432,0,0)" xlink:href="#aN"/><use transform="matrix(0.03765432098765432,0,0,0.03765432098765432,4.480864197530864,0)" xlink:href="#aX"/><use transform="matrix(0.03765432098765432,0,0,0.03765432098765432,12.011728395061727,0)" xlink:href="#aK"/><use transform="matrix(0.03765432098765432,0,0,0.03765432098765432,19.54259259259259,0)" xlink:href="#aU"/><use transform="matrix(0.03765432098765432,0,0,0.03765432098765432,22.517283950617283,0)" xlink:href="#bm"/><use transform="matrix(0.03765432098765432,0,0,0.03765432098765432,30.048148148148144,0)" xlink:href="#aX"/><use transform="matrix(0.03765432098765432,0,0,0.03765432098765432,37.57901234567901,0)" xlink:href="#aY"/></g><g id="U"><use transform="matrix(0.03765432098765432,0,0,0.03765432098765432,0,0)" xlink:href="#aU"/><use transform="matrix(0.03765432098765432,0,0,0.03765432098765432,2.974691358024691,0)" xlink:href="#aV"/><use transform="matrix(0.03765432098765432,0,0,0.03765432098765432,10.505555555555555,0)" xlink:href="#aT"/><use transform="matrix(0.03765432098765432,0,0,0.03765432098765432,14.270987654320987,0)" xlink:href="#aX"/><use transform="matrix(0.03765432098765432,0,0,0.03765432098765432,21.80185185185185,0)" xlink:href="#aN"/><use transform="matrix(0.03765432098765432,0,0,0.03765432098765432,26.282716049382714,0)" xlink:href="#aX"/><use transform="matrix(0.03765432098765432,0,0,0.03765432098765432,33.813580246913574,0)" xlink:href="#aY"/><use transform="matrix(0.03765432098765432,0,0,0.03765432098765432,40.59135802469135,0)" xlink:href="#aY"/><use transform="matrix(0.03765432098765432,0,0,0.03765432098765432,47.36913580246913,0)" xlink:href="#aX"/></g><g id="V"><use transform="matrix(0.03765432098765432,0,0,0.03765432098765432,0,0)" xlink:href="#bs"/><use transform="matrix(0.03765432098765432,0,0,0.03765432098765432,9.752469135802468,0)" xlink:href="#aX"/><use transform="matrix(0.03765432098765432,0,0,0.03765432098765432,17.28333333333333,0)" xlink:href="#aT"/><use transform="matrix(0.03765432098765432,0,0,0.03765432098765432,21.048765432098765,0)" xlink:href="#aX"/><use transform="matrix(0.03765432098765432,0,0,0.03765432098765432,28.579629629629625,0)" xlink:href="#ba"/><use transform="matrix(0.03765432098765432,0,0,0.03765432098765432,35.3574074074074,0)" xlink:href="#aT"/><use transform="matrix(0.03765432098765432,0,0,0.03765432098765432,39.12283950617283,0)" xlink:href="#aP"/><use transform="matrix(0.03765432098765432,0,0,0.03765432098765432,46.6537037037037,0)" xlink:href="#aL"/></g><path d="M103-251c84 0 111 97 45 133-19 10-37 24-39 52H78c0-63 77-55 77-114 0-30-21-42-52-43-32 0-53 17-56 46l-32-2c7-45 34-72 88-72zM77 0v-35h34V0H77" id="bt"/><g id="W"><use transform="matrix(0.03765432098765432,0,0,0.03765432098765432,0,0)" xlink:href="#aO"/><use transform="matrix(0.03765432098765432,0,0,0.03765432098765432,7.530864197530864,0)" xlink:href="#aX"/><use transform="matrix(0.03765432098765432,0,0,0.03765432098765432,15.061728395061728,0)" xlink:href="#aY"/><use transform="matrix(0.03765432098765432,0,0,0.03765432098765432,21.83950617283951,0)" xlink:href="#aW"/><use transform="matrix(0.03765432098765432,0,0,0.03765432098765432,24.8141975308642,0)" xlink:href="#aP"/><use transform="matrix(0.03765432098765432,0,0,0.03765432098765432,32.345061728395066,0)" xlink:href="#ba"/><use transform="matrix(0.03765432098765432,0,0,0.03765432098765432,39.122839506172845,0)" xlink:href="#aM"/><use transform="matrix(0.03765432098765432,0,0,0.03765432098765432,46.65370370370372,0)" xlink:href="#bb"/><use transform="matrix(0.03765432098765432,0,0,0.03765432098765432,57.912345679012354,0)" xlink:href="#aX"/><use transform="matrix(0.03765432098765432,0,0,0.03765432098765432,65.44320987654322,0)" xlink:href="#aV"/><use transform="matrix(0.03765432098765432,0,0,0.03765432098765432,72.97407407407408,0)" xlink:href="#aT"/><use transform="matrix(0.03765432098765432,0,0,0.03765432098765432,76.73950617283951,0)" xlink:href="#aP"/><use transform="matrix(0.03765432098765432,0,0,0.03765432098765432,84.27037037037039,0)" xlink:href="#bt"/></g><path d="M233-177c-1 41-23 64-60 70L243 0h-38l-65-103H63V0H30v-248c88 3 205-21 203 71zM63-129c60-2 137 13 137-47 0-61-80-42-137-45v92" id="bu"/><path d="M115-194c53 0 69 39 70 98 0 66-23 100-70 100C84 3 66-7 56-30L54 0H23l1-261h32v101c10-23 28-34 59-34zm-8 174c40 0 45-34 45-75 0-40-5-75-45-74-42 0-51 32-51 76 0 43 10 73 51 73" id="bv"/><g id="X"><use transform="matrix(0.03765432098765432,0,0,0.03765432098765432,0,0)" xlink:href="#bu"/><use transform="matrix(0.03765432098765432,0,0,0.03765432098765432,9.752469135802468,0)" xlink:href="#aX"/><use transform="matrix(0.03765432098765432,0,0,0.03765432098765432,17.28333333333333,0)" xlink:href="#ba"/><use transform="matrix(0.03765432098765432,0,0,0.03765432098765432,24.06111111111111,0)" xlink:href="#aX"/><use transform="matrix(0.03765432098765432,0,0,0.03765432098765432,31.591975308641974,0)" xlink:href="#bv"/><use transform="matrix(0.03765432098765432,0,0,0.03765432098765432,39.12283950617284,0)" xlink:href="#aX"/></g><g id="Y"><use transform="matrix(0.03765432098765432,0,0,0.03765432098765432,0,0)" xlink:href="#aY"/><use transform="matrix(0.03765432098765432,0,0,0.03765432098765432,6.777777777777777,0)" xlink:href="#aU"/><use transform="matrix(0.03765432098765432,0,0,0.03765432098765432,9.752469135802468,0)" xlink:href="#aV"/><use transform="matrix(0.03765432098765432,0,0,0.03765432098765432,17.28333333333333,0)" xlink:href="#aM"/><use transform="matrix(0.03765432098765432,0,0,0.03765432098765432,24.814197530864195,0)" xlink:href="#aW"/></g><g id="Z"><use transform="matrix(0.03765432098765432,0,0,0.03765432098765432,0,0)" xlink:href="#aU"/><use transform="matrix(0.03765432098765432,0,0,0.03765432098765432,2.974691358024691,0)" xlink:href="#aV"/><use transform="matrix(0.03765432098765432,0,0,0.03765432098765432,10.505555555555555,0)" xlink:href="#bk"/><use transform="matrix(0.03765432098765432,0,0,0.03765432098765432,14.270987654320987,0)" xlink:href="#aP"/><use transform="matrix(0.03765432098765432,0,0,0.03765432098765432,21.80185185185185,0)" xlink:href="#aN"/><use transform="matrix(0.03765432098765432,0,0,0.03765432098765432,26.282716049382714,0)" xlink:href="#bb"/><use transform="matrix(0.03765432098765432,0,0,0.03765432098765432,37.541358024691355,0)" xlink:href="#aM"/><use transform="matrix(0.03765432098765432,0,0,0.03765432098765432,45.07222222222223,0)" xlink:href="#aV"/><use transform="matrix(0.03765432098765432,0,0,0.03765432098765432,52.60308641975308,0)" xlink:href="#aO"/><use transform="matrix(0.03765432098765432,0,0,0.03765432098765432,60.13395061728394,0)" xlink:href="#aP"/></g><path d="M145-31C134-9 116 4 85 4 32 4 16-35 15-94c0-59 17-99 70-100 32-1 48 14 60 33 0-11-1-24 2-32h30l-1 268h-32zM93-21c41 0 51-33 51-76s-8-73-50-73c-40 0-46 35-46 75s5 74 45 74" id="bw"/><g id="aa"><use transform="matrix(0.03765432098765432,0,0,0.03765432098765432,0,0)" xlink:href="#bw"/><use transform="matrix(0.03765432098765432,0,0,0.03765432098765432,7.530864197530864,0)" xlink:href="#aL"/><use transform="matrix(0.03765432098765432,0,0,0.03765432098765432,15.061728395061728,0)" xlink:href="#aX"/></g><g id="ab"><use transform="matrix(0.03765432098765432,0,0,0.03765432098765432,0,0)" xlink:href="#aL"/><use transform="matrix(0.03765432098765432,0,0,0.03765432098765432,7.530864197530864,0)" xlink:href="#bb"/><use transform="matrix(0.03765432098765432,0,0,0.03765432098765432,18.789506172839506,0)" xlink:href="#aM"/></g><g id="ac"><use transform="matrix(0.03765432098765432,0,0,0.03765432098765432,0,0)" xlink:href="#bk"/><use transform="matrix(0.03765432098765432,0,0,0.03765432098765432,3.765432098765432,0)" xlink:href="#aM"/><use transform="matrix(0.03765432098765432,0,0,0.03765432098765432,11.296296296296296,0)" xlink:href="#ba"/><use transform="matrix(0.03765432098765432,0,0,0.03765432098765432,18.074074074074073,0)" xlink:href="#aX"/></g><g id="ad"><use transform="matrix(0.03765432098765432,0,0,0.03765432098765432,0,0)" xlink:href="#bk"/><use transform="matrix(0.03765432098765432,0,0,0.03765432098765432,3.765432098765432,0)" xlink:href="#aP"/><use transform="matrix(0.03765432098765432,0,0,0.03765432098765432,11.296296296296296,0)" xlink:href="#aU"/></g><g id="ae"><use transform="matrix(0.03765432098765432,0,0,0.03765432098765432,0,0)" xlink:href="#aN"/><use transform="matrix(0.03765432098765432,0,0,0.03765432098765432,4.480864197530864,0)" xlink:href="#aX"/><use transform="matrix(0.03765432098765432,0,0,0.03765432098765432,12.011728395061727,0)" xlink:href="#ba"/><use transform="matrix(0.03765432098765432,0,0,0.03765432098765432,18.789506172839502,0)" xlink:href="#aP"/><use transform="matrix(0.03765432098765432,0,0,0.03765432098765432,26.32037037037037,0)" xlink:href="#aV"/><use transform="matrix(0.03765432098765432,0,0,0.03765432098765432,33.85123456790123,0)" xlink:href="#bp"/><use transform="matrix(0.03765432098765432,0,0,0.03765432098765432,41.38209876543208,0)" xlink:href="#aX"/><use transform="matrix(0.03765432098765432,0,0,0.03765432098765432,48.91296296296295,0)" xlink:href="#ba"/><use transform="matrix(0.03765432098765432,0,0,0.03765432098765432,55.69074074074073,0)" xlink:href="#aU"/><use transform="matrix(0.03765432098765432,0,0,0.03765432098765432,58.66543209876542,0)" xlink:href="#aO"/><use transform="matrix(0.03765432098765432,0,0,0.03765432098765432,66.19629629629628,0)" xlink:href="#aM"/></g><g id="af"><use transform="matrix(0.03765432098765432,0,0,0.03765432098765432,0,0)" xlink:href="#bs"/><use transform="matrix(0.03765432098765432,0,0,0.03765432098765432,9.752469135802468,0)" xlink:href="#aX"/><use transform="matrix(0.03765432098765432,0,0,0.03765432098765432,17.28333333333333,0)" xlink:href="#aT"/><use transform="matrix(0.03765432098765432,0,0,0.03765432098765432,21.048765432098765,0)" xlink:href="#aX"/><use transform="matrix(0.03765432098765432,0,0,0.03765432098765432,28.579629629629625,0)" xlink:href="#ba"/><use transform="matrix(0.03765432098765432,0,0,0.03765432098765432,35.3574074074074,0)" xlink:href="#aT"/><use transform="matrix(0.03765432098765432,0,0,0.03765432098765432,39.12283950617283,0)" xlink:href="#aM"/></g><g id="ag"><use transform="matrix(0.03765432098765432,0,0,0.03765432098765432,0,0)" xlink:href="#aY"/><use transform="matrix(0.03765432098765432,0,0,0.03765432098765432,6.777777777777777,0)" xlink:href="#aX"/></g><g id="ah"><use transform="matrix(0.03765432098765432,0,0,0.03765432098765432,0,0)" xlink:href="#aM"/><use transform="matrix(0.03765432098765432,0,0,0.03765432098765432,7.530864197530864,0)" xlink:href="#ba"/><use transform="matrix(0.03765432098765432,0,0,0.03765432098765432,14.30864197530864,0)" xlink:href="#aP"/><use transform="matrix(0.03765432098765432,0,0,0.03765432098765432,21.83950617283951,0)" xlink:href="#aV"/><use transform="matrix(0.03765432098765432,0,0,0.03765432098765432,29.37037037037037,0)" xlink:href="#aT"/><use transform="matrix(0.03765432098765432,0,0,0.03765432098765432,33.135802469135804,0)" xlink:href="#aX"/><use transform="matrix(0.03765432098765432,0,0,0.03765432098765432,40.66666666666667,0)" xlink:href="#ba"/><use transform="matrix(0.03765432098765432,0,0,0.03765432098765432,47.44444444444445,0)" xlink:href="#aX"/><use transform="matrix(0.03765432098765432,0,0,0.03765432098765432,54.97530864197532,0)" xlink:href="#aN"/></g><g id="ai"><use transform="matrix(0.03765432098765432,0,0,0.03765432098765432,0,0)" xlink:href="#aO"/><use transform="matrix(0.03765432098765432,0,0,0.03765432098765432,7.530864197530864,0)" xlink:href="#aX"/><use transform="matrix(0.03765432098765432,0,0,0.03765432098765432,15.061728395061728,0)" xlink:href="#aY"/><use transform="matrix(0.03765432098765432,0,0,0.03765432098765432,21.83950617283951,0)" xlink:href="#aW"/><use transform="matrix(0.03765432098765432,0,0,0.03765432098765432,24.8141975308642,0)" xlink:href="#aP"/><use transform="matrix(0.03765432098765432,0,0,0.03765432098765432,32.345061728395066,0)" xlink:href="#ba"/><use transform="matrix(0.03765432098765432,0,0,0.03765432098765432,39.122839506172845,0)" xlink:href="#aM"/><use transform="matrix(0.03765432098765432,0,0,0.03765432098765432,46.65370370370372,0)" xlink:href="#bb"/><use transform="matrix(0.03765432098765432,0,0,0.03765432098765432,57.912345679012354,0)" xlink:href="#aX"/><use transform="matrix(0.03765432098765432,0,0,0.03765432098765432,65.44320987654322,0)" xlink:href="#aV"/><use transform="matrix(0.03765432098765432,0,0,0.03765432098765432,72.97407407407408,0)" xlink:href="#aT"/><use transform="matrix(0.03765432098765432,0,0,0.03765432098765432,76.73950617283951,0)" xlink:href="#aP"/></g><g id="aj"><use transform="matrix(0.03765432098765432,0,0,0.03765432098765432,0,0)" xlink:href="#aZ"/><use transform="matrix(0.03765432098765432,0,0,0.03765432098765432,7.530864197530864,0)" xlink:href="#aP"/><use transform="matrix(0.03765432098765432,0,0,0.03765432098765432,15.061728395061728,0)" xlink:href="#aY"/><use transform="matrix(0.03765432098765432,0,0,0.03765432098765432,21.83950617283951,0)" xlink:href="#aU"/><use transform="matrix(0.03765432098765432,0,0,0.03765432098765432,24.8141975308642,0)" xlink:href="#bl"/><use transform="matrix(0.03765432098765432,0,0,0.03765432098765432,31.591975308641977,0)" xlink:href="#bd"/><use transform="matrix(0.03765432098765432,0,0,0.03765432098765432,39.12283950617284,0)" xlink:href="#aP"/></g><g id="ak"><use transform="matrix(0.03765432098765432,0,0,0.03765432098765432,0,0)" xlink:href="#bw"/><use transform="matrix(0.03765432098765432,0,0,0.03765432098765432,7.530864197530864,0)" xlink:href="#aL"/><use transform="matrix(0.03765432098765432,0,0,0.03765432098765432,15.061728395061728,0)" xlink:href="#aM"/><use transform="matrix(0.03765432098765432,0,0,0.03765432098765432,22.59259259259259,0)" xlink:href="#aW"/></g><g id="al"><use transform="matrix(0.03765432098765432,0,0,0.03765432098765432,0,0)" xlink:href="#aN"/><use transform="matrix(0.03765432098765432,0,0,0.03765432098765432,4.480864197530864,0)" xlink:href="#aX"/><use transform="matrix(0.03765432098765432,0,0,0.03765432098765432,12.011728395061727,0)" xlink:href="#aK"/><use transform="matrix(0.03765432098765432,0,0,0.03765432098765432,19.54259259259259,0)" xlink:href="#aU"/><use transform="matrix(0.03765432098765432,0,0,0.03765432098765432,22.517283950617283,0)" xlink:href="#bd"/><use transform="matrix(0.03765432098765432,0,0,0.03765432098765432,30.048148148148144,0)" xlink:href="#aP"/></g><g id="am"><use transform="matrix(0.03765432098765432,0,0,0.03765432098765432,0,0)" xlink:href="#aU"/><use transform="matrix(0.03765432098765432,0,0,0.03765432098765432,2.974691358024691,0)" xlink:href="#aV"/><use transform="matrix(0.03765432098765432,0,0,0.03765432098765432,10.505555555555555,0)" xlink:href="#aT"/><use transform="matrix(0.03765432098765432,0,0,0.03765432098765432,14.270987654320987,0)" xlink:href="#aX"/><use transform="matrix(0.03765432098765432,0,0,0.03765432098765432,21.80185185185185,0)" xlink:href="#aN"/><use transform="matrix(0.03765432098765432,0,0,0.03765432098765432,26.282716049382714,0)" xlink:href="#aX"/><use transform="matrix(0.03765432098765432,0,0,0.03765432098765432,33.813580246913574,0)" xlink:href="#aY"/><use transform="matrix(0.03765432098765432,0,0,0.03765432098765432,40.59135802469135,0)" xlink:href="#aY"/><use transform="matrix(0.03765432098765432,0,0,0.03765432098765432,47.36913580246913,0)" xlink:href="#aX"/></g><g id="an"><use transform="matrix(0.03765432098765432,0,0,0.03765432098765432,0,0)" xlink:href="#aY"/><use transform="matrix(0.03765432098765432,0,0,0.03765432098765432,6.777777777777777,0)" xlink:href="#aX"/></g><g id="ao"><use transform="matrix(0.03765432098765432,0,0,0.03765432098765432,0,0)" xlink:href="#aO"/><use transform="matrix(0.03765432098765432,0,0,0.03765432098765432,7.530864197530864,0)" xlink:href="#aX"/><use transform="matrix(0.03765432098765432,0,0,0.03765432098765432,15.061728395061728,0)" xlink:href="#aY"/><use transform="matrix(0.03765432098765432,0,0,0.03765432098765432,21.83950617283951,0)" xlink:href="#aW"/><use transform="matrix(0.03765432098765432,0,0,0.03765432098765432,24.8141975308642,0)" xlink:href="#aP"/><use transform="matrix(0.03765432098765432,0,0,0.03765432098765432,32.345061728395066,0)" xlink:href="#ba"/><use transform="matrix(0.03765432098765432,0,0,0.03765432098765432,39.122839506172845,0)" xlink:href="#aP"/><use transform="matrix(0.03765432098765432,0,0,0.03765432098765432,46.65370370370372,0)" xlink:href="#aL"/></g><path d="M68-38c1 34 0 65-14 84H32c9-13 17-26 17-46H33v-38h35" id="bx"/><g id="ap"><use transform="matrix(0.03765432098765432,0,0,0.03765432098765432,0,0)" xlink:href="#aR"/><use transform="matrix(0.03765432098765432,0,0,0.03765432098765432,9.752469135802468,0)" xlink:href="#aP"/><use transform="matrix(0.03765432098765432,0,0,0.03765432098765432,17.28333333333333,0)" xlink:href="#aN"/><use transform="matrix(0.03765432098765432,0,0,0.03765432098765432,21.764197530864195,0)" xlink:href="#aT"/><use transform="matrix(0.03765432098765432,0,0,0.03765432098765432,25.52962962962962,0)" xlink:href="#aX"/><use transform="matrix(0.03765432098765432,0,0,0.03765432098765432,33.060493827160485,0)" xlink:href="#bx"/></g><g id="aq"><use transform="matrix(0.03765432098765432,0,0,0.03765432098765432,0,0)" xlink:href="#br"/><use transform="matrix(0.03765432098765432,0,0,0.03765432098765432,9.037037037037036,0)" xlink:href="#aL"/><use transform="matrix(0.03765432098765432,0,0,0.03765432098765432,16.5679012345679,0)" xlink:href="#aW"/><use transform="matrix(0.03765432098765432,0,0,0.03765432098765432,19.54259259259259,0)" xlink:href="#bx"/></g><g id="ar"><use transform="matrix(0.03765432098765432,0,0,0.03765432098765432,0,0)" xlink:href="#bh"/><use transform="matrix(0.03765432098765432,0,0,0.03765432098765432,7.530864197530864,0)" xlink:href="#aX"/><use transform="matrix(0.03765432098765432,0,0,0.03765432098765432,15.061728395061728,0)" xlink:href="#aY"/><use transform="matrix(0.03765432098765432,0,0,0.03765432098765432,21.83950617283951,0)" xlink:href="#aT"/><use transform="matrix(0.03765432098765432,0,0,0.03765432098765432,25.604938271604937,0)" xlink:href="#aX"/></g><g id="as"><use transform="matrix(0.03765432098765432,0,0,0.03765432098765432,0,0)" xlink:href="#aP"/><use transform="matrix(0.03765432098765432,0,0,0.03765432098765432,7.530864197530864,0)" xlink:href="#aL"/></g><path d="M140-251c81 0 123 46 123 126C263-46 219 4 140 4 59 4 17-45 17-125s42-126 123-126zm0 227c63 0 89-41 89-101s-29-99-89-99c-61 0-89 39-89 99S79-25 140-24" id="by"/><g id="at"><use transform="matrix(0.03765432098765432,0,0,0.03765432098765432,0,0)" xlink:href="#by"/><use transform="matrix(0.03765432098765432,0,0,0.03765432098765432,10.543209876543209,0)" xlink:href="#aX"/><use transform="matrix(0.03765432098765432,0,0,0.03765432098765432,18.074074074074073,0)" xlink:href="#aY"/><use transform="matrix(0.03765432098765432,0,0,0.03765432098765432,24.85185185185185,0)" xlink:href="#aT"/><use transform="matrix(0.03765432098765432,0,0,0.03765432098765432,28.617283950617278,0)" xlink:href="#aX"/><use transform="matrix(0.03765432098765432,0,0,0.03765432098765432,36.14814814814814,0)" xlink:href="#bt"/></g><g id="au"><use transform="matrix(0.03765432098765432,0,0,0.03765432098765432,0,0)" xlink:href="#be"/><use transform="matrix(0.03765432098765432,0,0,0.03765432098765432,9.752469135802468,0)" xlink:href="#aP"/><use transform="matrix(0.03765432098765432,0,0,0.03765432098765432,17.28333333333333,0)" xlink:href="#bb"/><use transform="matrix(0.03765432098765432,0,0,0.03765432098765432,28.541975308641973,0)" xlink:href="#aZ"/><use transform="matrix(0.03765432098765432,0,0,0.03765432098765432,36.07283950617284,0)" xlink:href="#aL"/><use transform="matrix(0.03765432098765432,0,0,0.03765432098765432,43.6037037037037,0)" xlink:href="#aT"/><use transform="matrix(0.03765432098765432,0,0,0.03765432098765432,47.36913580246913,0)" xlink:href="#aM"/></g><g id="av"><use transform="matrix(0.03765432098765432,0,0,0.03765432098765432,0,0)" xlink:href="#ba"/><use transform="matrix(0.03765432098765432,0,0,0.03765432098765432,6.777777777777777,0)" xlink:href="#aP"/><use transform="matrix(0.03765432098765432,0,0,0.03765432098765432,14.30864197530864,0)" xlink:href="#bb"/><use transform="matrix(0.03765432098765432,0,0,0.03765432098765432,25.56728395061728,0)" xlink:href="#aZ"/><use transform="matrix(0.03765432098765432,0,0,0.03765432098765432,33.09814814814814,0)" xlink:href="#aP"/><use transform="matrix(0.03765432098765432,0,0,0.03765432098765432,40.629012345679,0)" xlink:href="#aV"/><use transform="matrix(0.03765432098765432,0,0,0.03765432098765432,48.15987654320986,0)" xlink:href="#aX"/><use transform="matrix(0.03765432098765432,0,0,0.03765432098765432,55.69074074074072,0)" xlink:href="#aV"/><use transform="matrix(0.03765432098765432,0,0,0.03765432098765432,63.22160493827158,0)" xlink:href="#aT"/><use transform="matrix(0.03765432098765432,0,0,0.03765432098765432,66.98703703703701,0)" xlink:href="#aX"/><use transform="matrix(0.03765432098765432,0,0,0.03765432098765432,74.51790123456787,0)" xlink:href="#aY"/></g><path d="M195 0l-74-108L45 0H8l94-129-87-119h37l69 98 67-98h37l-84 118L233 0h-38" id="bz"/><use transform="matrix(0.03765432098765432,0,0,0.03765432098765432,0,0)" xlink:href="#bz" id="aw"/><use transform="matrix(0.03765432098765432,0,0,0.03765432098765432,0,0)" xlink:href="#aX" id="ax"/><path d="M137-103V0h-34v-103L8-248h37l75 118 75-118h37" id="bA"/><use transform="matrix(0.03765432098765432,0,0,0.03765432098765432,0,0)" xlink:href="#bA" id="ay"/><g id="az"><use transform="matrix(0.03765432098765432,0,0,0.03765432098765432,0,0)" xlink:href="#bc"/><use transform="matrix(0.03765432098765432,0,0,0.03765432098765432,6.777777777777777,0)" xlink:href="#aX"/><use transform="matrix(0.03765432098765432,0,0,0.03765432098765432,14.30864197530864,0)" xlink:href="#aW"/><use transform="matrix(0.03765432098765432,0,0,0.03765432098765432,17.28333333333333,0)" xlink:href="#aP"/><use transform="matrix(0.03765432098765432,0,0,0.03765432098765432,24.814197530864195,0)" xlink:href="#ba"/><use transform="matrix(0.03765432098765432,0,0,0.03765432098765432,31.591975308641974,0)" xlink:href="#aU"/><use transform="matrix(0.03765432098765432,0,0,0.03765432098765432,34.56666666666666,0)" xlink:href="#aO"/><use transform="matrix(0.03765432098765432,0,0,0.03765432098765432,42.09753086419753,0)" xlink:href="#aM"/><use transform="matrix(0.03765432098765432,0,0,0.03765432098765432,49.62839506172838,0)" xlink:href="#aO"/><use transform="matrix(0.03765432098765432,0,0,0.03765432098765432,57.159259259259244,0)" xlink:href="#aX"/></g><path d="M0 4l72-265h28L28 4H0" id="bB"/><g id="aA"><use transform="matrix(0.03765432098765432,0,0,0.03765432098765432,0,0)" xlink:href="#bb"/><use transform="matrix(0.03765432098765432,0,0,0.03765432098765432,11.258641975308642,0)" xlink:href="#bB"/><use transform="matrix(0.03765432098765432,0,0,0.03765432098765432,15.024074074074072,0)" xlink:href="#aY"/></g><path d="M33 0v-248h34V0H33" id="bC"/><g id="aB"><use transform="matrix(0.03765432098765432,0,0,0.03765432098765432,0,0)" xlink:href="#bC"/><use transform="matrix(0.03765432098765432,0,0,0.03765432098765432,3.765432098765432,0)" xlink:href="#aV"/><use transform="matrix(0.03765432098765432,0,0,0.03765432098765432,11.296296296296296,0)" xlink:href="#aU"/><use transform="matrix(0.03765432098765432,0,0,0.03765432098765432,14.270987654320987,0)" xlink:href="#ba"/><use transform="matrix(0.03765432098765432,0,0,0.03765432098765432,21.048765432098765,0)" xlink:href="#aU"/><use transform="matrix(0.03765432098765432,0,0,0.03765432098765432,24.023456790123454,0)" xlink:href="#aM"/></g><g id="aC"><use transform="matrix(0.03765432098765432,0,0,0.03765432098765432,0,0)" xlink:href="#aY"/><use transform="matrix(0.03765432098765432,0,0,0.03765432098765432,6.777777777777777,0)" xlink:href="#aU"/><use transform="matrix(0.03765432098765432,0,0,0.03765432098765432,9.752469135802468,0)" xlink:href="#aY"/><use transform="matrix(0.03765432098765432,0,0,0.03765432098765432,16.530246913580243,0)" xlink:href="#aT"/><use transform="matrix(0.03765432098765432,0,0,0.03765432098765432,20.295679012345673,0)" xlink:href="#aX"/><use transform="matrix(0.03765432098765432,0,0,0.03765432098765432,27.826543209876537,0)" xlink:href="#bb"/><use transform="matrix(0.03765432098765432,0,0,0.03765432098765432,39.08518518518518,0)" xlink:href="#aM"/></g><use transform="matrix(0.03765432098765432,0,0,0.03765432098765432,0,0)" xlink:href="#aM" id="aD"/><g id="aE"><use transform="matrix(0.03765432098765432,0,0,0.03765432098765432,0,0)" xlink:href="#aU"/><use transform="matrix(0.03765432098765432,0,0,0.03765432098765432,2.974691358024691,0)" xlink:href="#aV"/><use transform="matrix(0.03765432098765432,0,0,0.03765432098765432,10.505555555555555,0)" xlink:href="#bk"/><use transform="matrix(0.03765432098765432,0,0,0.03765432098765432,14.270987654320987,0)" xlink:href="#aP"/><use transform="matrix(0.03765432098765432,0,0,0.03765432098765432,21.80185185185185,0)" xlink:href="#aN"/><use transform="matrix(0.03765432098765432,0,0,0.03765432098765432,26.282716049382714,0)" xlink:href="#bb"/><use transform="matrix(0.03765432098765432,0,0,0.03765432098765432,37.541358024691355,0)" xlink:href="#aM"/><use transform="matrix(0.03765432098765432,0,0,0.03765432098765432,45.07222222222223,0)" xlink:href="#bl"/><use transform="matrix(0.03765432098765432,0,0,0.03765432098765432,51.85,0)" xlink:href="#bd"/><use transform="matrix(0.03765432098765432,0,0,0.03765432098765432,59.38086419753087,0)" xlink:href="#aP"/></g><g id="aF"><use transform="matrix(0.03765432098765432,0,0,0.03765432098765432,0,0)" xlink:href="#bc"/><use transform="matrix(0.03765432098765432,0,0,0.03765432098765432,6.777777777777777,0)" xlink:href="#aP"/><use transform="matrix(0.03765432098765432,0,0,0.03765432098765432,14.30864197530864,0)" xlink:href="#aP"/></g><g id="aG"><use transform="matrix(0.03765432098765432,0,0,0.03765432098765432,0,0)" xlink:href="#aZ"/><use transform="matrix(0.03765432098765432,0,0,0.03765432098765432,7.530864197530864,0)" xlink:href="#aP"/><use transform="matrix(0.03765432098765432,0,0,0.03765432098765432,15.061728395061728,0)" xlink:href="#aN"/></g><g id="aH"><use transform="matrix(0.03765432098765432,0,0,0.03765432098765432,0,0)" xlink:href="#aZ"/><use transform="matrix(0.03765432098765432,0,0,0.03765432098765432,7.530864197530864,0)" xlink:href="#aN"/><use transform="matrix(0.03765432098765432,0,0,0.03765432098765432,12.011728395061727,0)" xlink:href="#aP"/><use transform="matrix(0.03765432098765432,0,0,0.03765432098765432,19.54259259259259,0)" xlink:href="#aT"/><use transform="matrix(0.03765432098765432,0,0,0.03765432098765432,23.30802469135802,0)" xlink:href="#aP"/><use transform="matrix(0.03765432098765432,0,0,0.03765432098765432,30.838888888888885,0)" xlink:href="#ba"/><use transform="matrix(0.03765432098765432,0,0,0.03765432098765432,37.61666666666666,0)" xlink:href="#aP"/><use transform="matrix(0.03765432098765432,0,0,0.03765432098765432,45.14753086419752,0)" xlink:href="#aW"/><use transform="matrix(0.03765432098765432,0,0,0.03765432098765432,48.122222222222206,0)" xlink:href="#aP"/></g><g id="aI"><use transform="matrix(0.03765432098765432,0,0,0.03765432098765432,0,0)" xlink:href="#bg"/><use transform="matrix(0.03765432098765432,0,0,0.03765432098765432,11.258641975308642,0)" xlink:href="#aJ"/><use transform="matrix(0.03765432098765432,0,0,0.03765432098765432,19.279012345679014,0)" xlink:href="#aQ"/><use transform="matrix(0.03765432098765432,0,0,0.03765432098765432,28.316049382716052,0)" xlink:href="#bh"/><use transform="matrix(0.03765432098765432,0,0,0.03765432098765432,35.84691358024692,0)" xlink:href="#aU"/><use transform="matrix(0.03765432098765432,0,0,0.03765432098765432,38.82160493827161,0)" xlink:href="#aV"/><use transform="matrix(0.03765432098765432,0,0,0.03765432098765432,46.35246913580248,0)" xlink:href="#bi"/></g></defs></g></svg>