<?xml version="1.0" encoding="iso-8859-1"?>
<!-- Generator: Adobe Illustrator 19.0.0, SVG Export Plug-In . SVG Version: 6.00 Build 0)  -->
<svg version="1.1" id="Capa_1" xmlns="http://www.w3.org/2000/svg" xmlns:xlink="http://www.w3.org/1999/xlink" x="0px" y="0px"
	 viewBox="0 0 496 496" style="enable-background:new 0 0 496 496;" xml:space="preserve">
<circle style="fill:#FFCB57;" cx="248" cy="248" r="64"/>
<g>
	<path style="fill:#E56565;" d="M337.768,118.008c-0.504-1.976-0.856-3.992-1.144-6.008H376V96h-39.36
		c3.904-27.096,27.208-48,55.36-48s51.456,20.904,55.36,48H408v16h39.36c-3.904,27.096-27.208,48-55.36,48
		c-2.376,0-4.712-0.152-7.008-0.432l-1.984,15.872c2.952,0.376,5.976,0.56,8.992,0.56c39.704,0,72-32.304,72-72s-32.296-72-72-72
		s-72,32.304-72,72c0,6.08,0.768,12.128,2.264,17.992L337.768,118.008z"/>
	<path style="fill:#E56565;" d="M158.232,377.992c0.504,1.976,0.856,3.992,1.144,6.008H120v16h39.36
		c-3.904,27.096-27.208,48-55.36,48s-51.456-20.904-55.36-48H88v-16H48.64c3.904-27.096,27.208-48,55.36-48
		c2.376,0,4.712,0.152,7.008,0.432l1.984-15.872c-2.952-0.376-5.976-0.56-8.992-0.56c-39.704,0-72,32.304-72,72s32.296,72,72,72
		s72-32.304,72-72c0-6.08-0.768-12.128-2.264-17.992L158.232,377.992z"/>
	<path style="fill:#E56565;" d="M392,320c-3.016,0-6.04,0.184-8.992,0.56l0.992,7.936V376h16v-39.36
		c27.088,3.904,48,27.208,48,55.36s-20.912,51.456-48,55.36V408h-16v39.36c-27.088-3.904-48-27.208-48-55.36
		c0-4.736,0.592-9.448,1.768-14.008l-15.504-3.976C320.768,379.872,320,385.92,320,392c0,39.696,32.296,72,72,72s72-32.304,72-72
		S431.704,320,392,320z"/>
	<path style="fill:#E56565;" d="M104,32c-39.704,0-72,32.304-72,72s32.296,72,72,72c3.016,0,6.04-0.184,8.992-0.56L112,167.504V120
		H96v39.36c-27.088-3.904-48-27.208-48-55.36s20.912-51.456,48-55.36V88h16V48.64c27.088,3.904,48,27.208,48,55.36
		c0,4.736-0.592,9.448-1.768,14.008l15.504,3.976C175.232,116.128,176,110.08,176,104C176,64.304,143.704,32,104,32z"/>
</g>
<g>
	<path style="fill:#3F3A34;" d="M248,288c22.056,0,40-17.944,40-40s-17.944-40-40-40s-40,17.944-40,40S225.944,288,248,288z
		 M248,224c13.232,0,24,10.768,24,24s-10.768,24-24,24s-24-10.768-24-24S234.768,224,248,224z"/>
	<path style="fill:#3F3A34;" d="M273.504,315.248l94.88,72.984c-0.2,1.232-0.384,2.48-0.384,3.768c0,13.232,10.768,24,24,24
		s24-10.768,24-24c0-11.712-8.448-21.464-19.568-23.552L318.92,259.936c0.656-3.888,1.08-7.864,1.08-11.936
		s-0.424-8.048-1.072-11.936l77.512-108.512C407.552,125.464,416,115.712,416,104c0-13.232-10.768-24-24-24s-24,10.768-24,24
		c0,1.288,0.184,2.536,0.384,3.768l-94.88,72.984C265.56,177.728,256.992,176,248,176s-17.56,1.728-25.504,4.752l-94.88-72.984
		c0.2-1.232,0.384-2.48,0.384-3.768c0-13.232-10.768-24-24-24s-24,10.768-24,24c0,11.712,8.448,21.464,19.568,23.552l77.512,108.512
		c-0.656,3.888-1.08,7.864-1.08,11.936c0,4.072,0.424,8.048,1.072,11.936L99.56,368.448C88.448,370.536,80,380.288,80,392
		c0,13.232,10.768,24,24,24s24-10.768,24-24c0-1.288-0.184-2.536-0.384-3.768l94.88-72.984C230.44,318.272,239.008,320,248,320
		S265.56,318.272,273.504,315.248z M392,400c-4.416,0-8-3.592-8-8s3.584-8,8-8s8,3.592,8,8S396.416,400,392,400z M379.168,371.792
		c-1.056,0.672-2.024,1.456-2.96,2.28l-87.128-67.024c10.176-7.104,18.392-16.768,23.808-28.048L379.168,371.792z M392,96
		c4.416,0,8,3.592,8,8s-3.584,8-8,8s-8-3.592-8-8S387.584,96,392,96z M376.208,121.928c0.936,0.824,1.904,1.608,2.96,2.28
		L312.888,217c-5.408-11.28-13.632-20.952-23.808-28.048L376.208,121.928z M304,248c0,30.88-25.128,56-56,56s-56-25.12-56-56
		s25.128-56,56-56S304,217.12,304,248z M104,96c4.416,0,8,3.592,8,8s-3.584,8-8,8s-8-3.592-8-8S99.584,96,104,96z M116.832,124.208
		c1.056-0.672,2.024-1.456,2.96-2.28l87.128,67.024c-10.176,7.104-18.392,16.768-23.808,28.048L116.832,124.208z M104,400
		c-4.416,0-8-3.592-8-8s3.584-8,8-8s8,3.592,8,8S108.416,400,104,400z M119.792,374.072c-0.936-0.824-1.904-1.608-2.96-2.28
		L183.112,279c5.408,11.28,13.624,20.952,23.808,28.048L119.792,374.072z"/>
	<path style="fill:#3F3A34;" d="M309,133.336c-3.32-9.392-5-19.264-5-29.336c0-48.52,39.48-88,88-88s88,39.48,88,88s-39.48,88-88,88
		c-7.456,0-14.856-0.936-22.008-2.768l-3.984,15.496C374.464,206.896,383.2,208,392,208c57.344,0,104-46.656,104-104
		S449.344,0,392,0S288,46.656,288,104c0,11.896,1.992,23.56,5.92,34.664L309,133.336z"/>
	<path style="fill:#3F3A34;" d="M187,362.664c3.32,9.392,5,19.264,5,29.336c0,48.52-39.48,88-88,88s-88-39.48-88-88s39.48-88,88-88
		c7.456,0,14.856,0.936,22.008,2.768l3.984-15.496C121.536,289.104,112.8,288,104,288C46.656,288,0,334.656,0,392
		s46.656,104,104,104s104-46.656,104-104c0-11.896-1.992-23.56-5.92-34.664L187,362.664z"/>
	<path style="fill:#3F3A34;" d="M392,288c-8.8,0-17.536,1.104-25.992,3.28l3.984,15.496C377.144,304.936,384.544,304,392,304
		c48.52,0,88,39.48,88,88s-39.48,88-88,88s-88-39.48-88-88c0-10.072,1.68-19.944,5-29.336l-15.08-5.336
		C289.992,368.44,288,380.104,288,392c0,57.344,46.656,104,104,104s104-46.656,104-104S449.344,288,392,288z"/>
	<path style="fill:#3F3A34;" d="M104,208c8.8,0,17.536-1.104,25.992-3.28l-3.984-15.496C118.856,191.064,111.456,192,104,192
		c-48.52,0-88-39.48-88-88s39.48-88,88-88s88,39.48,88,88c0,10.072-1.68,19.944-5,29.336l15.08,5.336
		C206.008,127.56,208,115.896,208,104C208,46.656,161.344,0,104,0S0,46.656,0,104S46.656,208,104,208z"/>
</g>
<g>
</g>
<g>
</g>
<g>
</g>
<g>
</g>
<g>
</g>
<g>
</g>
<g>
</g>
<g>
</g>
<g>
</g>
<g>
</g>
<g>
</g>
<g>
</g>
<g>
</g>
<g>
</g>
<g>
</g>
</svg>
