<?xml version="1.0" encoding="UTF-8"?>
<!DOCTYPE svg PUBLIC "-//W3C//DTD SVG 1.1//EN" "http://www.w3.org/Graphics/SVG/1.1/DTD/svg11.dtd">
<svg width="160mm" height="90mm" viewBox="0 0 16000 9000" version="1.1" xmlns="http://www.w3.org/2000/svg" stroke-width="28.222" stroke-linejoin="round" xml:space="preserve">
 <path fill="rgb(255,255,255)" stroke="none" d="M 8000,8999 L 0,8999 0,0 15999,0 15999,8999 8000,8999 Z"/>
 <path fill="none" stroke="rgb(179,179,179)" stroke-linejoin="round" d="M 9486,8172 L 7265,8172 7265,180 11707,180 11707,8172 9486,8172 Z"/>
 <path fill="none" stroke="rgb(179,179,179)" stroke-linejoin="round" d="M 7265,179 L 7265,8171"/>
 <path fill="none" stroke="rgb(179,179,179)" stroke-linejoin="round" d="M 8745,179 L 8745,8171"/>
 <path fill="none" stroke="rgb(179,179,179)" stroke-linejoin="round" d="M 10226,179 L 10226,8171"/>
 <path fill="none" stroke="rgb(179,179,179)" stroke-linejoin="round" d="M 11707,179 L 11707,8171"/>
 <path fill="none" stroke="rgb(179,179,179)" stroke-linejoin="round" d="M 7115,8171 L 7265,8171"/>
 <path fill="none" stroke="rgb(179,179,179)" stroke-linejoin="round" d="M 7115,8171 L 7265,8171"/>
 <path fill="none" stroke="rgb(179,179,179)" stroke-linejoin="round" d="M 7115,5506 L 7265,5506"/>
 <path fill="none" stroke="rgb(179,179,179)" stroke-linejoin="round" d="M 7115,5506 L 7265,5506"/>
 <path fill="none" stroke="rgb(179,179,179)" stroke-linejoin="round" d="M 7115,2843 L 7265,2843"/>
 <path fill="none" stroke="rgb(179,179,179)" stroke-linejoin="round" d="M 7115,2843 L 7265,2843"/>
 <path fill="none" stroke="rgb(179,179,179)" stroke-linejoin="round" d="M 7115,179 L 7265,179"/>
 <path fill="none" stroke="rgb(179,179,179)" stroke-linejoin="round" d="M 7115,179 L 7265,179"/>
 <path fill="none" stroke="rgb(179,179,179)" stroke-linejoin="round" d="M 7265,8171 L 7265,179"/>
 <path fill="none" stroke="rgb(179,179,179)" stroke-linejoin="round" d="M 7265,8321 L 7265,8171"/>
 <path fill="none" stroke="rgb(179,179,179)" stroke-linejoin="round" d="M 7265,8321 L 7265,8171"/>
 <path fill="none" stroke="rgb(179,179,179)" stroke-linejoin="round" d="M 8745,8321 L 8745,8171"/>
 <path fill="none" stroke="rgb(179,179,179)" stroke-linejoin="round" d="M 8745,8321 L 8745,8171"/>
 <path fill="none" stroke="rgb(179,179,179)" stroke-linejoin="round" d="M 10226,8321 L 10226,8171"/>
 <path fill="none" stroke="rgb(179,179,179)" stroke-linejoin="round" d="M 10226,8321 L 10226,8171"/>
 <path fill="none" stroke="rgb(179,179,179)" stroke-linejoin="round" d="M 11707,8321 L 11707,8171"/>
 <path fill="none" stroke="rgb(179,179,179)" stroke-linejoin="round" d="M 11707,8321 L 11707,8171"/>
 <path fill="none" stroke="rgb(179,179,179)" stroke-linejoin="round" d="M 7265,8171 L 11707,8171"/>
 <path fill="rgb(237,28,36)" stroke="none" d="M 7265,2177 L 7265,845 11144,845 11144,2177 7265,2177 Z"/>
 <path fill="rgb(237,28,36)" stroke="none" d="M 7265,4840 L 7265,3509 9248,3509 9248,4840 7265,4840 Z"/>
 <path fill="rgb(237,28,36)" stroke="none" d="M 7265,7504 L 7265,6172 9248,6172 9248,7504 7265,7504 Z"/>
 <text class="TextShape"><tspan class="TextParagraph" font-family="Liberation Sans, sans-serif" font-size="353px" font-weight="400"><tspan class="TextPosition" x="374" y="6959"><tspan fill="rgb(0,0,0)" stroke="none">Computador das simulações (Método CNN)</tspan></tspan></tspan></text>
 <text class="TextShape"><tspan class="TextParagraph" font-family="Liberation Sans, sans-serif" font-size="353px" font-weight="400"><tspan class="TextPosition" x="321" y="4295"><tspan fill="rgb(0,0,0)" stroke="none">Computador das simulações (Método HOG)</tspan></tspan></tspan></text>
 <text class="TextShape"><tspan class="TextParagraph" font-family="Liberation Sans, sans-serif" font-size="353px" font-weight="400"><tspan class="TextPosition" x="2702" y="1631"><tspan fill="rgb(0,0,0)" stroke="none">Raspberry Pi (Método HOG)</tspan></tspan></tspan></text>
 <text class="TextShape"><tspan class="TextParagraph" font-family="Liberation Sans, sans-serif" font-size="353px" font-weight="400"><tspan class="TextPosition" x="6802" y="8739"><tspan fill="rgb(0,0,0)" stroke="none">15350</tspan></tspan></tspan></text>
 <text class="TextShape"><tspan class="TextParagraph" font-family="Liberation Sans, sans-serif" font-size="353px" font-weight="400"><tspan class="TextPosition" x="8283" y="8739"><tspan fill="rgb(0,0,0)" stroke="none">15400</tspan></tspan></tspan></text>
 <text class="TextShape"><tspan class="TextParagraph" font-family="Liberation Sans, sans-serif" font-size="353px" font-weight="400"><tspan class="TextPosition" x="9764" y="8739"><tspan fill="rgb(0,0,0)" stroke="none">15450</tspan></tspan></tspan></text>
 <text class="TextShape"><tspan class="TextParagraph" font-family="Liberation Sans, sans-serif" font-size="353px" font-weight="400"><tspan class="TextPosition" x="11245" y="8739"><tspan fill="rgb(0,0,0)" stroke="none">15500</tspan></tspan></tspan></text>
 <path fill="rgb(237,28,36)" stroke="none" d="M 12714,4604 L 12608,4604 12608,4394 12819,4394 12819,4604 12714,4604 Z"/>
 <text class="TextShape"><tspan class="TextParagraph" font-family="Liberation Sans, sans-serif" font-size="353px" font-weight="400"><tspan class="TextPosition" x="12919" y="4618"><tspan fill="rgb(0,0,0)" stroke="none">Faces detectadas</tspan></tspan></tspan></text>
</svg>