<svg xmlns="http://www.w3.org/2000/svg" xmlns:xlink="http://www.w3.org/1999/xlink" xmlns:lucid="lucid" width="1000" height="1000"><g transform="translate(-360 0)" lucid:page-tab-id="0_0"><path d="M1275.2 408.24c0 81.86-66.08 148.23-147.6 148.23S980 490.1 980 408.24c0-81.87 66.08-148.24 147.6-148.24s147.6 66.37 147.6 148.24z" stroke="#c92d39" stroke-width="3" fill="#c92d39" fill-opacity=".4"/><path d="M1000 62c0-1.1.9-2 2-2h336c1.1 0 2 .9 2 2v916c0 1.1-.9 2-2 2h-336c-1.1 0-2-.9-2-2z" fill="#fff" fill-opacity="0"/><path d="M1008.92 60h5.93m3.95 0h5.93m3.95 0h5.93m3.96 0h5.93m3.95 0h5.93m3.95 0h5.93m3.95 0h5.94m3.95 0h5.92m3.96 0h5.93m3.96 0h5.93m3.94 0h5.93m3.95 0h5.93m3.96 0h5.94m3.95 0h5.92m3.95 0h5.93m3.95 0h5.93m3.96 0h5.92m3.96 0h5.93m3.95 0h5.93m3.95 0h5.93m3.96 0h5.93m3.95 0h5.93m3.95 0h5.93m3.95 0h5.94m3.95 0h5.92m3.96 0h5.93m3.96 0h5.93m3.94 0h5.93m3.95 0h5.93m3.96 0h5.94m3.95 0h5.92m3.95 0h5.93m3.95 0h5.93m3.96 0h2.96l1.4.6.6 1.4v3m0 3.97v5.97m0 4v5.96m0 3.98v5.98m0 3.98v5.97m0 4v5.97m0 3.98v5.98m0 3.98v5.98m0 4v5.96m0 3.98v5.98m0 3.98v5.97m0 3.98v5.98m0 4v5.97m0 3.98v5.97m0 3.98v5.98m0 3.98v5.97m0 4v5.96m0 3.97v5.98m0 3.98v5.97m0 4v5.96m0 3.98v5.98m0 3.98v5.97m0 4v5.96m0 3.98v6m0 3.97v5.97m0 4v5.96m0 3.98v5.98m0 3.98v5.97m0 4v5.97m0 3.98v5.98m0 3.98v5.98m0 4v5.96m0 3.98v5.98m0 3.98v5.97m0 3.98v5.98m0 4v5.97m0 3.98v5.97m0 3.98v5.98m0 3.98v5.97m0 4v5.96m0 3.97v5.98m0 3.98v5.97m0 4v5.96m0 3.98v5.98m0 3.98v5.97m0 4v5.96m0 3.98v6m0 3.97v5.97m0 4v5.96m0 3.98v5.98m0 3.98v5.97m0 4v5.97m0 3.98v5.98m0 3.98v5.98m0 4v5.96m0 3.98v5.98m0 3.98v5.97m0 3.98v5.98m0 4v5.97m0 3.98v5.97m0 3.98v5.98m0 3.98v5.97m0 4v5.96m0 3.97v5.98m0 3.98v5.97m0 4v5.96m0 3.98v5.98m0 3.98v5.97m0 4v5.96m0 3.98v6m0 3.97v5.97m0 4v5.96m0 3.98v5.98m0 3.98v5.97m0 4v5.97m0 3.98v5.98m0 3.98v5.98m0 4v5.96m0 3.98v5.98m0 3.98v5.97m0 3.98v5.98m0 4v5.97m0 3.98v5.97m0 3.98v5.98m0 3.98v5.97m0 4v5.96m0 3.97v5.98m0 3.98v5.97m0 4v5.96m0 3.98v5.98m0 3.98v5.97m0 4v5.96m0 3.98v3l-.6 1.4-1.4.6h-2.96m-3.96 0h-5.93m-3.95 0h-5.93m-3.95 0h-5.93m-3.96 0h-5.93m-3.95 0h-5.93m-3.95 0h-5.93m-3.95 0h-5.94m-3.95 0H1256m-3.96 0h-5.93m-3.96 0h-5.93m-3.94 0h-5.93m-3.95 0h-5.93m-3.96 0h-5.94m-3.95 0h-5.92m-3.95 0h-5.93m-3.95 0h-5.93m-3.96 0h-5.92m-3.96 0h-5.93m-3.95 0h-5.93m-3.95 0h-5.93m-3.96 0h-5.93m-3.95 0h-5.93m-3.95 0h-5.93m-3.95 0h-5.94m-3.95 0H1088m-3.96 0h-5.93m-3.96 0h-5.93m-3.94 0h-5.93m-3.95 0h-5.93m-3.96 0h-5.94m-3.95 0h-5.92m-3.95 0h-5.93m-3.95 0h-5.93m-3.96 0H1002l-1.4-.6-.6-1.4v-3m0-3.97v-5.97m0-4v-5.96m0-3.98v-5.98m0-3.98v-5.97m0-4v-5.97m0-3.98v-5.98m0-3.98v-5.98m0-4v-5.96m0-3.98v-5.98m0-3.98v-5.97m0-3.98v-5.98m0-4v-5.97m0-3.98v-5.97m0-3.98v-5.98m0-3.98v-5.97m0-4v-5.96m0-3.97v-5.98m0-3.98v-5.97m0-4v-5.96m0-3.98v-5.98m0-3.98v-5.97m0-4v-5.96m0-3.98v-6m0-3.97v-5.97m0-4v-5.96m0-3.98v-5.98m0-3.98v-5.97m0-4v-5.97m0-3.98v-5.98m0-3.98v-5.98m0-4v-5.96m0-3.98v-5.98m0-3.98v-5.97m0-3.98v-5.98m0-4v-5.97m0-3.98v-5.97m0-3.98v-5.98m0-3.98v-5.97m0-4v-5.96m0-3.97v-5.98m0-3.98v-5.97m0-4v-5.96m0-3.98v-5.98m0-3.98v-5.97m0-4v-5.96m0-3.98v-6m0-3.97v-5.97m0-4v-5.96m0-3.98v-5.98m0-3.98v-5.97m0-4v-5.97m0-3.98v-5.98m0-3.98v-5.98m0-4v-5.96m0-3.98v-5.98m0-3.98v-5.97m0-3.98v-5.98m0-4v-5.97m0-3.98v-5.97m0-3.98v-5.98m0-3.98v-5.97m0-4v-5.96m0-3.97v-5.98m0-3.98v-5.97m0-4v-5.96m0-3.98v-5.98m0-3.98v-5.97m0-4v-5.96m0-3.98v-6m0-3.97v-5.97m0-4v-5.96m0-3.98v-5.98m0-3.98v-5.97m0-4v-5.97m0-3.98v-5.98m0-3.98v-5.98m0-4v-5.96m0-3.98v-5.98m0-3.98v-5.97m0-3.98v-5.98m0-4v-5.97m0-3.98v-5.97m0-3.98v-5.98m0-3.98v-5.97m0-4v-5.96m0-3.97v-5.98m0-3.98v-5.97m0-4v-5.96m0-3.98v-5.98m0-3.98v-5.97m0-4v-5.96m0-3.98v-3l.6-1.4 1.4-.6h2.96" stroke="#c92d39" stroke-width="2" fill="none"/><path d="M380 62c0-1.1.9-2 2-2h616c1.1 0 2 .9 2 2v916c0 1.1-.9 2-2 2H382c-1.1 0-2-.9-2-2z" fill="#fff" fill-opacity="0"/><path d="M388.95 60h5.97m3.97 0h5.95m3.98 0h5.96m3.96 0h5.96m3.98 0h5.96m3.97 0h5.96m3.97 0h5.96m3.97 0h5.96m3.98 0h5.96m3.97 0h5.97m3.97 0h5.97m3.98 0h5.96m3.98 0h5.96m3.98 0h5.96m3.97 0H534m4 0h5.95m3.97 0h5.96m3.98 0h5.96m3.97 0h5.95m3.98 0h5.96m3.96 0h5.97m3.97 0h5.96m3.98 0h5.96m3.97 0h5.96m3.98 0h5.97m3.97 0h5.96m3.98 0h5.96m3.97 0h5.97m3.98 0h5.96m3.98 0h5.97m3.97 0h5.96m3.97 0h5.97m3.97 0h5.95m3.98 0h5.96m3.96 0h5.96m3.98 0h5.96m3.97 0h5.96m3.97 0h5.96m3.97 0h5.96m3.98 0h5.96m3.97 0h5.97m3.97 0h5.97m3.98 0h5.96m3.98 0h5.96m3.98 0h5.96m3.97 0H842m4 0h5.95m3.97 0h5.96m3.98 0h5.96m3.97 0h5.95m3.98 0h5.96m3.96 0h5.97m3.97 0h5.96m3.98 0h5.96m3.97 0h5.96m3.98 0h5.97m3.97 0h5.96m3.98 0h5.96m3.97 0h5.97m3.98 0h5.96m3.98 0h5.97m3.97 0H998l1.4.6.6 1.4v3m0 3.97v5.97m0 4v5.96m0 3.98v5.98m0 3.98v5.97m0 4v5.97m0 3.98v5.98m0 3.98v5.98m0 4v5.96m0 3.98v5.98m0 3.98v5.97m0 3.98v5.98m0 4v5.97m0 3.98v5.97m0 3.98v5.98m0 3.98v5.97m0 4v5.96m0 3.97v5.98m0 3.98v5.97m0 4v5.96m0 3.98v5.98m0 3.98v5.97m0 4v5.96m0 3.98v6m0 3.97v5.97m0 4v5.96m0 3.98v5.98m0 3.98v5.97m0 4v5.97m0 3.98v5.98m0 3.98v5.98m0 4v5.96m0 3.98v5.98m0 3.98v5.97m0 3.98v5.98m0 4v5.97m0 3.98v5.97m0 3.98v5.98m0 3.98v5.97m0 4v5.96m0 3.97v5.98m0 3.98v5.97m0 4v5.96m0 3.98v5.98m0 3.98v5.97m0 4v5.96m0 3.98v6m0 3.97v5.97m0 4v5.96m0 3.98v5.98m0 3.98v5.97m0 4v5.97m0 3.98v5.98m0 3.98v5.98m0 4v5.96m0 3.98v5.98m0 3.98v5.97m0 3.98v5.98m0 4v5.97m0 3.98v5.97m0 3.98v5.98m0 3.98v5.97m0 4v5.96m0 3.97v5.98m0 3.98v5.97m0 4v5.96m0 3.98v5.98m0 3.98v5.97m0 4v5.96m0 3.98v6m0 3.97v5.97m0 4v5.96m0 3.98v5.98m0 3.98v5.97m0 4v5.97m0 3.98v5.98m0 3.98v5.98m0 4v5.96m0 3.98v5.98m0 3.98v5.97m0 3.98v5.98m0 4v5.97m0 3.98v5.97m0 3.98v5.98m0 3.98v5.97m0 4v5.96m0 3.97v5.98m0 3.98v5.97m0 4v5.96m0 3.98v5.98m0 3.98v5.97m0 4v5.96m0 3.98v3l-.6 1.4-1.4.6h-2.98m-3.97 0h-5.97m-3.97 0h-5.95m-3.98 0h-5.96m-3.96 0h-5.96m-3.98 0h-5.96m-3.97 0h-5.96m-3.97 0h-5.96m-3.97 0h-5.96m-3.98 0h-5.96m-3.97 0h-5.97m-3.97 0h-5.97m-3.98 0h-5.96m-3.98 0h-5.96m-3.98 0h-5.96m-3.97 0H846m-4 0h-5.95m-3.97 0h-5.96m-3.98 0h-5.96m-3.97 0h-5.95m-3.98 0h-5.96m-3.96 0h-5.97m-3.97 0h-5.96m-3.98 0h-5.96m-3.97 0h-5.96m-3.98 0h-5.97m-3.97 0h-5.96m-3.98 0h-5.96m-3.97 0h-5.97m-3.98 0h-5.96m-3.98 0h-5.97m-3.97 0h-5.96m-3.97 0h-5.97m-3.97 0h-5.95m-3.98 0h-5.96m-3.96 0h-5.96m-3.98 0h-5.96m-3.97 0h-5.96m-3.97 0h-5.96m-3.97 0h-5.96m-3.98 0h-5.96m-3.97 0h-5.97m-3.97 0h-5.97m-3.98 0h-5.96m-3.98 0h-5.96m-3.98 0h-5.96m-3.97 0H538m-4 0h-5.95m-3.97 0h-5.96m-3.98 0h-5.96m-3.97 0h-5.95m-3.98 0h-5.96m-3.96 0h-5.97m-3.97 0h-5.96m-3.98 0h-5.96m-3.97 0h-5.96m-3.98 0h-5.97m-3.97 0h-5.96m-3.98 0h-5.96m-3.97 0h-5.97m-3.98 0h-5.96m-3.98 0h-5.97m-3.97 0H382l-1.4-.6-.6-1.4v-3m0-3.97v-5.97m0-4v-5.96m0-3.98v-5.98m0-3.98v-5.97m0-4v-5.97m0-3.98v-5.98m0-3.98v-5.98m0-4v-5.96m0-3.98v-5.98m0-3.98v-5.97m0-3.98v-5.98m0-4v-5.97m0-3.98v-5.97m0-3.98v-5.98m0-3.98v-5.97m0-4v-5.96m0-3.97v-5.98m0-3.98v-5.97m0-4v-5.96m0-3.98v-5.98m0-3.98v-5.97m0-4v-5.96m0-3.98v-6m0-3.97v-5.97m0-4v-5.96m0-3.98v-5.98m0-3.98v-5.97m0-4v-5.97m0-3.98v-5.98m0-3.98v-5.98m0-4v-5.96m0-3.98v-5.98m0-3.98v-5.97m0-3.98v-5.98m0-4v-5.97m0-3.98v-5.97m0-3.98v-5.98m0-3.98v-5.97m0-4v-5.96m0-3.97v-5.98m0-3.98v-5.97m0-4v-5.96m0-3.98v-5.98m0-3.98v-5.97m0-4v-5.96m0-3.98v-6m0-3.97v-5.97m0-4v-5.96m0-3.98v-5.98m0-3.98v-5.97m0-4v-5.97m0-3.98v-5.98m0-3.98v-5.98m0-4v-5.96m0-3.98v-5.98m0-3.98v-5.97m0-3.98v-5.98m0-4v-5.97m0-3.98v-5.97m0-3.98v-5.98m0-3.98v-5.97m0-4v-5.96m0-3.97v-5.98m0-3.98v-5.97m0-4v-5.96m0-3.98v-5.98m0-3.98v-5.97m0-4v-5.96m0-3.98v-6m0-3.97v-5.97m0-4v-5.96m0-3.98v-5.98m0-3.98v-5.97m0-4v-5.97m0-3.98v-5.98m0-3.98v-5.98m0-4v-5.96m0-3.98v-5.98m0-3.98v-5.97m0-3.98v-5.98m0-4v-5.97m0-3.98v-5.97m0-3.98v-5.98m0-3.98v-5.97m0-4v-5.96m0-3.97v-5.98m0-3.98v-5.97m0-4v-5.96m0-3.98v-5.98m0-3.98v-5.97m0-4v-5.96m0-3.98v-3l.6-1.4 1.4-.6h2.98" stroke="#4284f3" stroke-width="2" fill="none"/><path d="M999.37 62.5l-.02 916.52" stroke="#000" stroke-width="3" fill="none"/><path d="M1000.87 62.54h-3V61h3zM1000.68 978.98l-.5 1.2-1.98.82h-.35v-2.02z"/><path d="M1015.2 388.24c0 81.86-66.08 148.23-147.6 148.23S720 470.1 720 388.24C720 306.37 786.08 240 867.6 240s147.6 66.37 147.6 148.24z" stroke="#0c7cba" stroke-width="3" fill="#0c7cba" fill-opacity=".4"/><path d="M755.2 408.24c0 81.86-66.08 148.23-147.6 148.23S460 490.1 460 408.24C460 326.37 526.08 260 607.6 260s147.6 66.37 147.6 148.24z" stroke="#fcc438" stroke-width="3" fill="#fcc438" fill-opacity=".4"/><path d="M1275.2 671.76c0 81.87-66.08 148.24-147.6 148.24S980 753.63 980 671.76c0-81.86 66.08-148.23 147.6-148.23s147.6 66.37 147.6 148.23z" stroke="#ef8d22" stroke-width="3" fill="#ef8d22" fill-opacity=".4"/><path d="M1015.2 684.7c0 81.87-66.08 148.24-147.6 148.24S720 766.57 720 684.7c0-81.86 66.08-148.23 147.6-148.23s147.6 66.37 147.6 148.24z" stroke="#834187" stroke-width="3" fill="#834187" fill-opacity=".4"/><path d="M755.2 671.76c0 81.87-66.08 148.24-147.6 148.24S460 753.63 460 671.76c0-81.86 66.08-148.23 147.6-148.23s147.6 66.37 147.6 148.23z" stroke="#19967d" stroke-width="3" fill="#19967d" fill-opacity=".4"/><path d="M507.4 300h200.4v140H507.4z" stroke="#000" stroke-opacity="0" stroke-width="2" fill="#fff" fill-opacity="0"/><use xlink:href="#a" transform="matrix(1,0,0,1,507.4000000000001,300) translate(12.148456790123447 65.12222222222222)"/><use xlink:href="#b" transform="matrix(1,0,0,1,507.4000000000001,300) translate(72.41080246913579 65.12222222222222)"/><use xlink:href="#c" transform="matrix(1,0,0,1,507.4000000000001,300) translate(104.75524691358024 65.12222222222222)"/><use xlink:href="#d" transform="matrix(1,0,0,1,507.4000000000001,300) translate(164.2287037037037 65.12222222222222)"/><use xlink:href="#e" transform="matrix(1,0,0,1,507.4000000000001,300) translate(13.375617283950618 84.05555555555556)"/><use xlink:href="#f" transform="matrix(1,0,0,1,507.4000000000001,300) translate(80.78179012345679 84.05555555555556)"/><path d="M507.4 700h200.4v80H507.4z" stroke="#000" stroke-opacity="0" stroke-width="2" fill="#fff" fill-opacity="0"/><use xlink:href="#g" transform="matrix(1,0,0,1,507.4000000000001,700) translate(16.903703703703712 34.58958222222222)"/><use xlink:href="#h" transform="matrix(1,0,0,1,507.4000000000001,700) translate(90.35802469135804 34.58958222222222)"/><use xlink:href="#i" transform="matrix(1,0,0,1,507.4000000000001,700) translate(103.50617283950619 34.58958222222222)"/><use xlink:href="#j" transform="matrix(1,0,0,1,507.4000000000001,700) translate(163.9 34.58958222222222)"/><use xlink:href="#k" transform="matrix(1,0,0,1,507.4000000000001,700) translate(6.40709876543211 53.52291555555556)"/><use xlink:href="#l" transform="matrix(1,0,0,1,507.4000000000001,700) translate(116.63240740740741 53.52291555555556)"/><use xlink:href="#m" transform="matrix(1,0,0,1,507.4000000000001,700) translate(166.4638888888889 53.52291555555556)"/><use xlink:href="#n" transform="matrix(1,0,0,1,507.4000000000001,700) translate(43.57253086419753 72.4562488888889)"/><use xlink:href="#o" transform="matrix(1,0,0,1,507.4000000000001,700) translate(89.06512345679012 72.4562488888889)"/><use xlink:href="#p" transform="matrix(1,0,0,1,507.4000000000001,700) translate(112.64413580246914 72.4562488888889)"/><path d="M768.65 700H967.8v80H768.65z" stroke="#000" stroke-opacity="0" stroke-width="2" fill="#fff" fill-opacity="0"/><use xlink:href="#q" transform="matrix(1,0,0,1,768.65,700) translate(20.326234567901224 34.58958222222222)"/><use xlink:href="#r" transform="matrix(1,0,0,1,768.65,700) translate(92.86018518518519 34.58958222222222)"/><use xlink:href="#s" transform="matrix(1,0,0,1,768.65,700) translate(106.00833333333334 34.58958222222222)"/><use xlink:href="#t" transform="matrix(1,0,0,1,768.65,700) translate(160.3101851851852 34.58958222222222)"/><use xlink:href="#u" transform="matrix(1,0,0,1,768.65,700) translate(3.6280864197530747 53.52291555555556)"/><use xlink:href="#v" transform="matrix(1,0,0,1,768.65,700) translate(63.18919753086418 53.52291555555556)"/><use xlink:href="#w" transform="matrix(1,0,0,1,768.65,700) translate(150.71203703703702 53.52291555555556)"/><use xlink:href="#x" transform="matrix(1,0,0,1,768.65,700) translate(173.45833333333331 53.52291555555556)"/><use xlink:href="#y" transform="matrix(1,0,0,1,768.65,700) translate(186.60648148148147 53.52291555555556)"/><use xlink:href="#z" transform="matrix(1,0,0,1,768.65,700) translate(95.11728395061728 72.4562488888889)"/><path d="M1027.4 308.24h200.4V440h-200.4z" stroke="#000" stroke-opacity="0" stroke-width="2" fill="#fff" fill-opacity="0"/><use xlink:href="#A" transform="matrix(1,0,0,1,1027.3999999999999,308.2352941176471) translate(34.85092592592592 49.74722222222222)"/><use xlink:href="#h" transform="matrix(1,0,0,1,1027.3999999999999,308.2352941176471) translate(96.07746913580246 49.74722222222222)"/><use xlink:href="#B" transform="matrix(1,0,0,1,1027.3999999999999,308.2352941176471) translate(109.22561728395061 49.74722222222222)"/><use xlink:href="#C" transform="matrix(1,0,0,1,1027.3999999999999,308.2352941176471) translate(1.5203703703703866 68.68055555555556)"/><use xlink:href="#D" transform="matrix(1,0,0,1,1027.3999999999999,308.2352941176471) translate(100.43827160493828 68.68055555555556)"/><use xlink:href="#E" transform="matrix(1,0,0,1,1027.3999999999999,308.2352941176471) translate(138.0858024691358 68.68055555555556)"/><use xlink:href="#F" transform="matrix(1,0,0,1,1027.3999999999999,308.2352941176471) translate(188.88148148148147 68.68055555555556)"/><use xlink:href="#G" transform="matrix(1,0,0,1,1027.3999999999999,308.2352941176471) translate(0.31512345679011844 87.6138888888889)"/><use xlink:href="#H" transform="matrix(1,0,0,1,1027.3999999999999,308.2352941176471) translate(117.4212962962963 87.6138888888889)"/><use xlink:href="#I" transform="matrix(1,0,0,1,1027.3999999999999,308.2352941176471) translate(141.00030864197532 87.6138888888889)"/><path d="M607.6 523.53v13.82" stroke="#fff" stroke-width="3" fill="none"/><path d="M609.1 522.06v1.5h-3v-1.5l1.5-.03z" fill="#fff"/><path d="M607.6 553.12l-4.64-14.27h9.28z" stroke="#fff" stroke-width="3" fill="#fff"/><path d="M1127.6 556.47v-13.82" stroke="#fff" stroke-width="3" fill="none"/><path d="M1129.1 557.95l-1.5.02-1.5-.03v-1.5h3z" fill="#fff"/><path d="M1127.6 526.88l4.64 14.27h-9.28z" stroke="#fff" stroke-width="3" fill="#fff"/><path d="M1015.2 388.23l-14.73-.02" stroke="#fff" stroke-width="3" fill="none"/><path d="M1016.68 386.74l.02 1.5-.03 1.5h-1.5v-3z" fill="#fff"/><path d="M984.7 388.18l14.27-4.6v9.26z" stroke="#fff" stroke-width="3" fill="#fff"/><path d="M736.08 671.74l-15.52-.02" stroke="#fff" stroke-width="3" fill="none"/><path d="M751.85 671.76l-14.28 4.62.02-9.27z" stroke="#fff" stroke-width="3" fill="#fff"/><path d="M720.6 670.22v3h-1.65l.08-1.27.18-1.73z" fill="#fff"/><path d="M755.2 408.24l-14.72.02" stroke="#fff" stroke-width="3" fill="none"/><path d="M756.7 408.24l-.03 1.5h-1.5v-3h1.5z" fill="#fff"/><path d="M724.7 408.3l14.27-4.67.02 9.27z" stroke="#fff" stroke-width="3" fill="#fff"/><path d="M718.87 408.45l-2.9.45m-3.85.6l-5.75 1.14m-3.8.88l-4.4 1.08-1.28.37m-3.75 1.1l-1.6.46-3.97 1.35m-3.67 1.32l-4.66 1.82-.77.35m-3.57 1.57l-1.35.6-3.93 1.95m-3.45 1.8l-3.1 1.72-1.98 1.2m-3.33 2.06L653.7 433l-.76.6m-3.14 2.3l-.36.26-4 3.25-.2.18m-2.93 2.6l-.64.56-3.53 3.42-.05.05m-2.7 2.84l-.57.6-3.08 3.58-.18.23m-2.43 3.06l-.27.36-2.7 3.72-.44.68m-2.16 3.26l-2.22 3.72-.72 1.34m-1.82 3.45l-1.55 3.2-.9 2.12m-1.5 3.6l-1 2.66-.94 2.88m-1.14 3.74l-.62 2.2-.82 3.47m-.77 3.82l-.38 2.02-.13.86" stroke="#000" stroke-width="2" fill="none"/><path d="M719.98 409.3l-1 .15-.3-1.98 1.05-.16z"/><path d="M607.85 518.8l-3.5-14.58 9.24.72z" stroke="#000" stroke-width="2"/><path d="M607.62 558.97l.06 2.57.23 3.54.34 2.95m1.64 8.93l.43 1.77m2.8 8.64l1.03 2.62 1.63 3.68 1.87 3.75 2.1 3.82 1.45 2.36m5.1 7.52l1.1 1.46m5.78 7l1.74 1.95 4.17 4.32 4.63 4.4 2.4 2.07m7.02 5.76l1.37 1.1.04.03m7.4 5.28l5.48 3.6 7.24 4.34 2.8 1.5m8.06 4.18l1.64.8m8.28 3.74l3.27 1.4 5.17 1.97" stroke="#000" stroke-width="2" fill="none"/><path d="M607.6 557.97h1l.02 1-2 .05-.02-1.07z"/><path d="M718.38 670.72h-15l2.87-8.8z" stroke="#000" stroke-width="2"/><path d="M1073.9 138.86h-10.3v-1.44c0-.68-.36-1.24-.9-1.24-.48 0-.83.56-.83 1.24v1.44h-10.3c-.55 0-.9.56-.9 1.24 0 .72.35 1.28.9 1.28h10.3v1.72c-1.08.52-1.9 1.96-1.9 3.72v1.4h-4.9c-.36-1.56-1.43-2.68-2.62-2.68h-14.9c-1.2 0-2.26 1.12-2.62 2.68h-4.9v-1.4c0-1.76-.82-3.2-1.9-3.72v-1.72h10.3c.55 0 .9-.56.9-1.28 0-.68-.35-1.24-.9-1.24h-10.3v-1.44c0-.68-.35-1.24-.83-1.24-.54 0-.9.56-.9 1.24v1.44h-10.3c-.48 0-.9.56-.9 1.24 0 .72.42 1.28.9 1.28h10.3v1.72c-1.07.52-1.84 1.96-1.84 3.72v5.36c0 2.16 1.2 3.92 2.74 3.92 1.5 0 2.74-1.76 2.74-3.92v-1.44h4.9c.35 1.56 1.42 2.68 2.6 2.68h.96v4.2c-1.55.16-2.92 1.76-3.27 3.96l-2.1 12.08h-1.18c-.48 0-.9.56-.9 1.28 0 .68.42 1.24.9 1.24H1035.64c.54 0 .9-.56.9-1.24 0-.72-.36-1.28-.9-1.28h-.7l1.95-11.44c.23-1.2.95-2.04 1.78-2.12.36 1.56 1.37 2.68 2.57 2.68h7.5c1.2 0 2.2-1.12 2.57-2.68.83.08 1.55.92 1.8 2.12l1.95 11.44h-.7c-.55 0-.9.56-.9 1.28 0 .68.35 1.24.9 1.24h3.68c.48 0 .9-.56.9-1.24 0-.72-.42-1.28-.9-1.28h-1.2l-2.08-12.08c-.35-2.2-1.72-3.8-3.27-3.96v-4.2h.95c1.2 0 2.26-1.12 2.62-2.68h4.9v1.44c0 2.16 1.24 3.92 2.73 3.92 1.55 0 2.74-1.76 2.74-3.92v-5.36c0-1.76-.77-3.2-1.84-3.72v-1.72h10.3c.48 0 .9-.56.9-1.28 0-.68-.42-1.24-.9-1.24zm-45.65 13.32c0 .76-.4 1.4-.95 1.4-.6 0-1-.64-1-1.4v-5.36c0-.8.4-1.44 1-1.44.54 0 .95.64.95 1.44v5.36zm24.2-1.28h-3.7c-.47 0-.9.56-.9 1.28 0 .68.43 1.24.9 1.24h.96v5.44c0 .8-.4 1.44-.95 1.44h-7.5c-.54 0-.96-.64-.96-1.44v-5.44h4.7c.48 0 .9-.56.9-1.24 0-.72-.42-1.28-.9-1.28H1037.55c-.54 0-1-.64-1-1.4 0-.8.46-1.44 1-1.44h14.9c.54 0 1 .64 1 1.44 0 .76-.46 1.4-1 1.4zm11.26 1.28c0 .76-.4 1.4-1 1.4-.54 0-.95-.64-.95-1.4v-5.36c0-.8.4-1.44.95-1.44.6 0 1 .64 1 1.44v5.36z" stroke="#000" stroke-opacity="0" stroke-width=".29"/><path d="M380 20h620v40H380z" fill="#0c7cba"/><path d="M387 20h6m4 0h6m4 0h6m4 0h6m4 0h6m4 0h6m4 0h6m4 0h6m4 0h6m4 0h6m4 0h6m4 0h6m4 0h6m4 0h6m4 0h6m4 0h6m4 0h6m4 0h6m4 0h6m4 0h6m4 0h6m4 0h6m4 0h6m4 0h6m4 0h6m4 0h6m4 0h6m4 0h6m4 0h6m4 0h6m4 0h6m4 0h6m4 0h6m4 0h6m4 0h6m4 0h6m4 0h6m4 0h6m4 0h6m4 0h6m4 0h6m4 0h6m4 0h6m4 0h6m4 0h6m4 0h6m4 0h6m4 0h6m4 0h6m4 0h6m4 0h6m4 0h6m4 0h6m4 0h6m4 0h6m4 0h6m4 0h6m4 0h6m4 0h6m4 0h6m4 0h6m4 0h3v3m0 4v6m0 4v6m0 4v6m0 4v3h-3m-4 0h-6m-4 0h-6m-4 0h-6m-4 0h-6m-4 0h-6m-4 0h-6m-4 0h-6m-4 0h-6m-4 0h-6m-4 0h-6m-4 0h-6m-4 0h-6m-4 0h-6m-4 0h-6m-4 0h-6m-4 0h-6m-4 0h-6m-4 0h-6m-4 0h-6m-4 0h-6m-4 0h-6m-4 0h-6m-4 0h-6m-4 0h-6m-4 0h-6m-4 0h-6m-4 0h-6m-4 0h-6m-4 0h-6m-4 0h-6m-4 0h-6m-4 0h-6m-4 0h-6m-4 0h-6m-4 0h-6m-4 0h-6m-4 0h-6m-4 0h-6m-4 0h-6m-4 0h-6m-4 0h-6m-4 0h-6m-4 0h-6m-4 0h-6m-4 0h-6m-4 0h-6m-4 0h-6m-4 0h-6m-4 0h-6m-4 0h-6m-4 0h-6m-4 0h-6m-4 0h-6m-4 0h-6m-4 0h-6m-4 0h-6m-4 0h-6m-4 0h-6m-4 0h-6m-4 0h-6m-4 0h-6m-4 0h-3v-3m0-4v-6m0-4v-6m0-4v-6m0-4v-3h3" stroke="#000" stroke-width="2" fill="none"/><use xlink:href="#J" transform="matrix(1,0,0,1,385,25) translate(189.71457248263889 21.798828125)"/><use xlink:href="#K" transform="matrix(1,0,0,1,385,25) translate(262.52642144097223 21.798828125)"/><path d="M1000 20h340v40h-340z" fill="#c92d39"/><path d="M1007 20h6m4 0h6m4 0h6m4 0h6m4 0h6m4 0h6m4 0h6m4 0h6m4 0h6m4 0h6m4 0h6m4 0h6m4 0h6m4 0h6m4 0h6m4 0h6m4 0h6m4 0h6m4 0h6m4 0h6m4 0h6m4 0h6m4 0h6m4 0h6m4 0h6m4 0h6m4 0h6m4 0h6m4 0h6m4 0h6m4 0h6m4 0h6m4 0h6m4 0h3v3m0 4v6m0 4v6m0 4v6m0 4v3h-3m-4 0h-6m-4 0h-6m-4 0h-6m-4 0h-6m-4 0h-6m-4 0h-6m-4 0h-6m-4 0h-6m-4 0h-6m-4 0h-6m-4 0h-6m-4 0h-6m-4 0h-6m-4 0h-6m-4 0h-6m-4 0h-6m-4 0h-6m-4 0h-6m-4 0h-6m-4 0h-6m-4 0h-6m-4 0h-6m-4 0h-6m-4 0h-6m-4 0h-6m-4 0h-6m-4 0h-6m-4 0h-6m-4 0h-6m-4 0h-6m-4 0h-6m-4 0h-6m-4 0h-6m-4 0h-3v-3m0-4v-6m0-4v-6m0-4v-6m0-4v-3h3" stroke="#000" stroke-width="2" fill="none"/><use xlink:href="#L" transform="matrix(1,0,0,1,1005,25) translate(116.45876736111111 21.798828125)"/><path d="M1017.1 671.62l3.72-.37 4.04-.58 1.75-.33m9.3-2.33l.67-.2 1.13-.42m8.6-4.2l.47-.28 1.22-.84 1.1-.84 1.05-.86.96-.86.9-.87.84-.88.78-.9.72-.9.68-.92.63-.95.6-.96.54-1 .5-1 .48-1.06.43-1.1.1-.26m1.85-9.37l.05-1.1v-.8m-.94-9.54l-.48-2.3-.7-2.84-.94-3.13-1.2-3.48-1.53-3.9-1.1-2.52m-4.24-8.6l-.9-1.68m-4.86-8.27l-.26-.44-4.9-7.44-5.7-7.9m-5.9-7.55l-1.2-1.5m-6.18-7.33l-4.48-5.23-8.38-9m-6.68-6.86l-1.36-1.35m-6.83-6.74l-2.3-2.28-11.8-10.7m-7.2-6.3l-1.48-1.24m-7.36-6.14l-6.03-5.02-9-6.88m-7.6-5.83l-1.54-1.16m-7.82-5.53l-12.23-8.58-3.55-2.28m-8.07-5.17l-1.62-1.04m-8.13-5.05l-15.46-9-1.13-.6m-8.46-4.5l-1.7-.88m-8.54-4.35l-12.06-5.74-5.35-2.27m-8.83-3.73l-1.8-.67m-8.97-3.38l-1.3-.5-11.22-3.7-5.73-1.62m-9.28-2.42l-1.86-.44m-9.38-1.93l-1.15-.22-7.47-1.14-.85-.1" stroke="#000" stroke-width="2" fill="none"/><path d="M1017.24 672.6l-1.04.12-.17-2 1-.1z"/><path d="M759.93 408.45l14.54-3.7-.6 9.26z" stroke="#000" stroke-width="2"/><path d="M757.7 671.76h9.63m9.64 0h1.92m9.63 0h19.26m9.63 0h1.92m9.64 0h19.25m9.64 0h1.9m9.65 0h19.26m9.65 0h1.92m9.64 0h19.27m9.63 0h1.93m9.63 0H960" stroke="#000" stroke-width="2" fill="none"/><path d="M757.73 672.76h-1.05l.02-1v-1h1.03z"/><path d="M975.26 671.76L961 676.4v-9.27z" stroke="#000" stroke-width="2"/><path d="M980 671.76h15.5" stroke="#fff" stroke-width="3" fill="none"/><path d="M980.04 673.26h-1.52l-.02-1.5.03-1.5h1.5z" fill="#fff"/><path d="M1011.26 671.73L997 676.38v-9.27z" stroke="#fff" stroke-width="3" fill="#fff"/><path d="M1002.56 326.16c0 1.38-1.12 2.5-2.5 2.5s-2.5-1.12-2.5-2.5 1.12-2.5 2.5-2.5 2.5 1.12 2.5 2.5zm-18.86-5.27c0 1.37-1.12 2.5-2.5 2.5-1.4 0-2.5-1.13-2.5-2.5 0-1.4 1.1-2.5 2.5-2.5 1.38 0 2.5 1.1 2.5 2.5zm-18.02-7.58c0 1.38-1.12 2.5-2.5 2.5s-2.5-1.12-2.5-2.5 1.12-2.5 2.5-2.5 2.5 1.12 2.5 2.5zm-14.43-12.75c0 1.38-1.12 2.5-2.5 2.5s-2.5-1.12-2.5-2.5c0-1.4 1.12-2.5 2.5-2.5s2.5 1.1 2.5 2.5zm8.65-14.6c0 1.38-1.1 2.5-2.5 2.5-1.38 0-2.5-1.12-2.5-2.5s1.12-2.5 2.5-2.5c1.4 0 2.5 1.12 2.5 2.5zm19.36-1.38c0 1.37-1.12 2.5-2.5 2.5s-2.5-1.13-2.5-2.5c0-1.4 1.12-2.5 2.5-2.5s2.5 1.1 2.5 2.5zm19.3 3.4c0 1.38-1.13 2.5-2.5 2.5-1.4 0-2.5-1.12-2.5-2.5 0-1.4 1.1-2.5 2.5-2.5 1.37 0 2.5 1.1 2.5 2.5zm19.38 2.67c0 1.4-1.12 2.5-2.5 2.5s-2.5-1.1-2.5-2.5c0-1.38 1.12-2.5 2.5-2.5s2.5 1.12 2.5 2.5zm19.56.73c0 1.38-1.12 2.5-2.5 2.5s-2.5-1.12-2.5-2.5 1.12-2.5 2.5-2.5 2.5 1.12 2.5 2.5zm19.4-2.33c0 1.38-1.12 2.5-2.5 2.5s-2.5-1.12-2.5-2.5 1.12-2.5 2.5-2.5 2.5 1.12 2.5 2.5zm16.26-9.94c0 1.38-1.12 2.5-2.5 2.5s-2.5-1.12-2.5-2.5 1.12-2.5 2.5-2.5 2.5 1.12 2.5 2.5zm-3.9-18.04c0 1.37-1.12 2.5-2.5 2.5s-2.5-1.13-2.5-2.5c0-1.4 1.12-2.5 2.5-2.5s2.5 1.1 2.5 2.5zm-17.88-6.42c0 1.38-1.1 2.5-2.5 2.5-1.38 0-2.5-1.12-2.5-2.5s1.12-2.5 2.5-2.5c1.4 0 2.5 1.12 2.5 2.5zm-19.5-1.65c0 1.38-1.13 2.5-2.5 2.5-1.4 0-2.5-1.12-2.5-2.5s1.1-2.5 2.5-2.5c1.37 0 2.5 1.12 2.5 2.5zm-19.54-1.4c0 1.4-1.12 2.5-2.5 2.5s-2.5-1.1-2.5-2.5c0-1.37 1.12-2.5 2.5-2.5s2.5 1.13 2.5 2.5zm-19.53-1.4c0 1.4-1.1 2.5-2.5 2.5-1.37 0-2.5-1.1-2.5-2.5 0-1.37 1.13-2.5 2.5-2.5 1.4 0 2.5 1.13 2.5 2.5zm-19.5-1.57c0 1.38-1.12 2.5-2.5 2.5-1.4 0-2.5-1.12-2.5-2.5 0-1.4 1.1-2.5 2.5-2.5 1.38 0 2.5 1.1 2.5 2.5zm-18.63-5.54c0 1.38-1.12 2.5-2.5 2.5s-2.5-1.12-2.5-2.5c0-1.4 1.12-2.5 2.5-2.5s2.5 1.1 2.5 2.5zm5.3-15.22c0 1.38-1.13 2.5-2.5 2.5-1.4 0-2.5-1.12-2.5-2.5s1.1-2.5 2.5-2.5c1.37 0 2.5 1.12 2.5 2.5zm18.94-4.62c0 1.38-1.1 2.5-2.5 2.5-1.37 0-2.5-1.12-2.5-2.5s1.13-2.5 2.5-2.5c1.4 0 2.5 1.12 2.5 2.5zm19.34-3.15c0 1.38-1.12 2.5-2.5 2.5s-2.5-1.12-2.5-2.5 1.12-2.5 2.5-2.5 2.5 1.12 2.5 2.5zm19-4.4c0 1.4-1.1 2.5-2.5 2.5-1.37 0-2.5-1.1-2.5-2.5 0-1.37 1.13-2.5 2.5-2.5 1.4 0 2.5 1.13 2.5 2.5zm15.4-11.74c0 1.38-1.1 2.5-2.5 2.5-1.38 0-2.5-1.12-2.5-2.5 0-1.4 1.12-2.5 2.5-2.5 1.4 0 2.5 1.1 2.5 2.5zm9.43-17.06c0 1.38-1.12 2.5-2.5 2.5s-2.5-1.12-2.5-2.5 1.12-2.5 2.5-2.5 2.5 1.12 2.5 2.5z"/><path d="M1003.9 324.64l-.4.6-2.43 3.8-1.75-.5 1.35-4.8z"/><path d="M1043.23 170.67l1.4 14.93-9.05-2.03z" stroke="#000" stroke-width="5"/><path d="M1003.64 280.04c-.3-.04-.62-.04-.95-.04-.33 0-.66 0-.96.04-8.58.52-13.83 8.28-10.6 15.08 5.8 12.16 9.53 20.72 10.93 24.48.2.52 1.05.52 1.25 0 1.4-3.76 5.13-12.32 10.93-24.48 3.23-6.8-2.03-14.56-10.6-15.08z" stroke="#000" stroke-opacity="0" stroke-width=".32" fill="#dc8744"/><path d="M1010.62 290.56c0 3.76-3.55 6.8-7.93 6.8-4.4 0-7.94-3.04-7.94-6.8s3.55-6.8 7.93-6.8c4.37 0 7.92 3.04 7.92 6.8z" stroke="#000" stroke-opacity="0" stroke-width=".32" fill="#e1e6e9"/><path d="M929 180c0 1.12-.9 2-2 2s-2-.88-2-2c0-1.1.9-2 2-2s2 .9 2 2zm7.86.66c0 1.1-.9 2-2 2s-2-.9-2-2 .9-2 2-2 2 .9 2 2zm7.8 1.3c0 1.1-.9 2-2 2-1.12 0-2-.9-2-2s.88-2 2-2c1.1 0 2 .9 2 2zm7.7 1.7c0 1.1-.9 2-2 2s-2-.9-2-2 .9-2 2-2 2 .9 2 2zm7.7 1.78c0 1.1-.9 2-2 2-1.12 0-2-.9-2-2s.88-2 2-2c1.1 0 2 .9 2 2zm7.68 1.78c0 1.1-.9 2-2 2s-2-.9-2-2 .9-2 2-2 2 .9 2 2zm7.7 1.77c0 1.1-.9 2-2 2-1.12 0-2-.9-2-2s.88-2 2-2c1.1 0 2 .9 2 2zm7.68 1.77c0 1.1-.9 2-2 2s-2-.9-2-2 .9-2 2-2 2 .9 2 2zm7.7 1.78c0 1.1-.9 2-2 2s-2-.9-2-2 .9-2 2-2 2 .9 2 2zm7.68 1.78c0 1.1-.9 2-2 2s-2-.9-2-2 .9-2 2-2 2 .9 2 2zm7.76 1.38c0 1.12-.9 2-2 2s-2-.88-2-2c0-1.1.9-2 2-2s2 .9 2 2zm7.87.58c0 1.1-.9 2-2 2s-2-.9-2-2 .9-2 2-2 2 .9 2 2zm7.9-.06c0 1.1-.9 2-2 2s-2-.9-2-2 .9-2 2-2 2 .9 2 2zm7.9-.1c0 1.1-.9 2-2 2-1.12 0-2-.9-2-2s.88-2 2-2c1.1 0 2 .9 2 2zm7.88-.08c0 1.1-.88 2-2 2-1.1 0-2-.9-2-2s.9-2 2-2c1.12 0 2 .9 2 2zm7.9-.1c0 1.1-.9 2-2 2s-2-.9-2-2 .9-2 2-2 2 .9 2 2zm7.9-.08c0 1.1-.9 2-2 2s-2-.9-2-2 .9-2 2-2 2 .9 2 2zm7.88.43c0 1.1-.9 2-2 2s-2-.9-2-2c0-1.12.9-2 2-2s2 .88 2 2zm7.88.43c0 1.1-.9 2-2 2s-2-.9-2-2 .9-2 2-2 2 .9 2 2zm7.87.55c0 1.1-.9 2-2 2s-2-.9-2-2 .9-2 2-2 2 .9 2 2zm7.84.96c0 1.1-.9 2-2 2s-2-.9-2-2 .9-2 2-2 2 .9 2 2zm7.83 1c0 1.1-.9 2-2 2s-2-.9-2-2 .9-2 2-2 2 .9 2 2zm7.76 1.45c0 1.1-.9 2-2 2s-2-.9-2-2 .9-2 2-2 2 .9 2 2zm7.75 1.5c0 1.1-.9 2-2 2s-2-.9-2-2 .9-2 2-2 2 .9 2 2zm7.76 1.5c0 1.1-.9 2-2 2s-2-.9-2-2 .9-2 2-2 2 .9 2 2zm7.75 1.5c0 1.1-.9 2-2 2s-2-.9-2-2 .9-2 2-2 2 .9 2 2zm7.76 1.5c0 1.1-.9 2-2 2s-2-.9-2-2 .9-2 2-2 2 .9 2 2zm7.75 1.5c0 1.1-.9 2-2 2s-2-.9-2-2 .9-2 2-2 2 .9 2 2zm7.76 1.5c0 1.1-.9 2-2 2s-2-.9-2-2 .9-2 2-2 2 .9 2 2zm7.8 1.2c0 1.1-.9 2-2 2s-2-.9-2-2 .9-2 2-2 2 .9 2 2zm7.87.38c0 1.1-.9 2-2 2s-2-.9-2-2 .9-2 2-2 2 .9 2 2zm7.86-.6c0 1.1-.9 2-2 2s-2-.9-2-2 .9-2 2-2 2 .9 2 2zm7.54-2.22c0 1.1-.9 2-2 2s-2-.9-2-2 .9-2 2-2 2 .9 2 2zm6.43-4.5c0 1.1-.9 2-2 2s-2-.9-2-2 .9-2 2-2 2 .9 2 2zm4.32-6.55c0 1.1-.9 2-2 2-1.12 0-2-.9-2-2s.88-2 2-2c1.1 0 2 .9 2 2zm2.2-7.55c0 1.1-.9 2-2 2s-2-.9-2-2 .9-2 2-2 2 .9 2 2zm.76-7.85c0 1.1-.9 2-2 2s-2-.9-2-2 .9-2 2-2 2 .9 2 2z" fill="#3aa6dd"/><path d="M927.05 180.02L925 180" stroke="#3aa6dd" stroke-width="4" fill="none"/><path d="M1191.95 182.1l-4-.1.05-2h4z" fill="#3aa6dd"/><path d="M1160 160h60v20h-60z" stroke="#000" stroke-opacity="0" stroke-width="2" fill="#fff" fill-opacity="0"/><use xlink:href="#M" transform="matrix(1,0,0,1,1165,165) translate(-4.949999999999999 14.4)"/><path d="M1028.65 680h199.15v80h-199.15z" stroke="#000" stroke-opacity="0" stroke-width="2" fill="#fff" fill-opacity="0"/><use xlink:href="#N" transform="matrix(1,0,0,1,1028.6499999999999,680) translate(10.421296296296305 53.78958222222222)"/><use xlink:href="#O" transform="matrix(1,0,0,1,1028.6499999999999,680) translate(49.82191358024692 53.78958222222222)"/><use xlink:href="#P" transform="matrix(1,0,0,1,1028.6499999999999,680) translate(63.802777777777784 53.78958222222222)"/><use xlink:href="#Q" transform="matrix(1,0,0,1,1028.6499999999999,680) translate(109.82129629629631 53.78958222222222)"/><use xlink:href="#R" transform="matrix(1,0,0,1,1028.6499999999999,680) translate(132.5675925925926 53.78958222222222)"/><use xlink:href="#S" transform="matrix(1,0,0,1,1028.6499999999999,680) translate(60.58148148148148 72.72291555555556)"/><path d="M720.1 139.04l14.52 10.48v2.84c0 7.4-6.5 13.43-14.53 13.43-8.04 0-14.55-6.03-14.55-13.44v-2.84zM728.37 169.52c9.2 0 16.63 5.15 16.63 13.53V200h-9.56v-11.9h-1.65V200h-27.1v-11.9h-1.64V200h-9.86v-16.95c0-8.38 7.42-13.53 16.63-13.53z" fill="#7d7c7c"/><path d="M720.07 136.18c7.97.05 14.37 6.07 14.3 13.43-.05 7.37-6.56 13.28-14.53 13.23-7.9-.05-14.28-5.97-14.3-13.3 0-7.38 6.5-13.35 14.5-13.35h.03zM728.37 166.68c9.2 0 16.63 5.15 16.63 13.54v16.94h-9.56v-11.92h-1.65v11.92h-27.1v-11.92h-1.64v11.92h-9.86v-16.94c0-8.4 7.42-13.54 16.63-13.54z" fill="#d2d3d3"/><path d="M700.3 132.06h39.6v40h-39.6z" stroke="#a3d977" stroke-width="4" fill-opacity="0"/><path d="M705.4 104.12h60v27.94h-60z" stroke="#000" stroke-opacity="0" stroke-width="2" fill="#fff" fill-opacity="0"/><g><use xlink:href="#T" transform="matrix(1,0,0,1,710.4000000000117,109.11764705880984) translate(1.2966049382716065 11.969444444444445)"/></g><path d="M732.2 324.9L721.7 216.3" stroke="#000" fill="none"/><path d="M731.84 326.27l-.13-1.34.8-.08z"/><path d="M720.26 201.6l6 13.76-9.24.9z" stroke="#000"/><path d="M415.7 291.1c-.9 1.6 0 3.62 1.93 4.35.5.24 1.05.32 1.6.32 1.46 0 2.83-.72 3.48-1.93l20.62-38 9.58 2.9 7.97-19.1 10.55 3.3c.32.08.64.16.88.16 1.05 0 1.94-.48 2.34-1.3l4.9-9.33c.57-1.05 0-2.4-1.28-2.9-1.3-.48-2.82 0-3.38 1.13l-3.95 7.4-36.55-12.15c-1.2-.48-2.66-.08-3.3.88l-5.56 8.54c-.72 1.05-.24 2.42.97 2.98.4.16.88.24 1.28.24.88 0 1.77-.4 2.25-1.14l4.35-6.68 9.74 3.8z" stroke="#000" stroke-opacity="0" stroke-width="1.98" fill="#f4efed"/><path d="M426.5 238.35c.4.16.88.24 1.28.24.56 0 1.04-.1 1.45-.4-1.05-.65-1.37-1.86-.73-2.83l5.56-8.54c.24-.24.48-.56.8-.72l-.48-.15c-1.2-.48-2.66-.08-3.3.88l-5.56 8.54c-.72 1.05-.24 2.42.97 2.98z" stroke="#000" stroke-opacity="0" stroke-width="1.98" fill="#fff"/><path d="M420.2 237.22h-15.7c-.4 0-.8-.32-.8-.64s.4-.65.8-.65h15.7c.4 0 .73.33.73.65s-.32.64-.72.64zM412.72 245.03h-12c-.4 0-.72-.24-.72-.64 0-.33.32-.65.72-.65h12c.48 0 .8.32.8.64 0 .4-.32.63-.8.63zM420.2 252.85h-15.7c-.4 0-.8-.25-.8-.65 0-.32.4-.64.8-.64h15.7c.4 0 .73.32.73.64 0 .4-.32.65-.72.65zM412.72 260.74h-12c-.4 0-.72-.32-.72-.65 0-.4.32-.65.72-.65h12c.48 0 .8.24.8.64 0 .32-.32.64-.8.64zM420.2 268.55h-15.7c-.4 0-.8-.32-.8-.64 0-.4.4-.64.8-.64h15.7c.4 0 .73.24.73.65 0 .33-.32.65-.72.65zM412.72 276.36h-12c-.4 0-.72-.32-.72-.64s.32-.65.72-.65h12c.48 0 .8.33.8.65s-.32.64-.8.64z" stroke="#000" stroke-opacity="0" stroke-width="1.98" fill="#690589"/><path d="M478.26 229.57c-.88-.32-1.85-.16-2.58.24.97.58 1.37 1.7.9 2.67l-4.92 9.34c-.16.42-.48.74-.9.9l.66.24c.32.08.64.16.88.16 1.05 0 1.94-.48 2.34-1.3l4.9-9.33c.57-1.05 0-2.4-1.28-2.9z" stroke="#000" stroke-opacity="0" stroke-width="1.98" fill="#d6d1cf"/><path d="M419.24 296.4c-.72 0-1.37-.15-1.93-.4-2.32-.87-3.3-3.2-2.24-5.14l28.02-55.97-8.38-3.3-4.02 6.2c-.57.87-1.7 1.44-2.9 1.44-.57 0-1.13-.08-1.6-.33-1.62-.8-2.2-2.48-1.3-3.85l5.56-8.46c.8-1.3 2.73-1.86 4.26-1.2l35.83 11.9 3.63-6.84c.8-1.45 2.73-2.1 4.42-1.45 1.6.65 2.42 2.34 1.6 3.8l-4.82 9.26c-.56 1.04-1.7 1.7-3.06 1.7-.32 0-.72-.1-1.12-.17l-9.9-3.16-7.66 18.53c-.16.32-.56.48-.96.32l-8.94-2.67-20.3 37.53c-.8 1.37-2.4 2.25-4.18 2.25zm15.14-66.26c.16 0 .24 0 .32.08l9.66 3.78c.4.16.57.5.4.8l-28.33 56.54c-.73 1.37-.1 2.9 1.53 3.54.4.17.8.25 1.28.25 1.2 0 2.26-.57 2.82-1.53l20.6-38.02v-.08c.17-.24.58-.4.9-.32l8.94 2.74 7.65-18.44c.08-.16.16-.32.4-.4.16-.1.4-.1.56 0l10.64 3.3c.16 0 .4.08.56.08.73 0 1.37-.4 1.7-.97l4.83-9.27c.48-.8 0-1.7-.9-2.1-.88-.32-2 0-2.4.8l-3.87 7.42c-.16.32-.56.48-.97.4l-36.56-12.24h-.08c-.8-.3-1.85 0-2.34.66l-5.55 8.53c-.5.72-.16 1.68.72 2.1.23.15.56.15.88.15.64 0 1.3-.24 1.6-.73l4.36-6.76c.16-.16.4-.32.64-.32zM415.7 291.1z" stroke="#000" stroke-opacity="0" stroke-width="1.98" fill="#690589"/><path d="M457 233.6l-4.83 4.2-.64-5.9 1.93-4.66 5.56 1.7z" stroke="#000" stroke-opacity="0" stroke-width="1.98" fill="#ff9f70"/><path d="M452.17 238.43h-.24c-.32-.08-.48-.32-.48-.56l-.72-5.88c0-.1 0-.17.08-.25l1.94-4.75c.16-.33.56-.5.96-.4l5.56 1.68c.4.17.56.5.48.8l-2 4.76c0 .08-.1.16-.17.24l-4.83 4.2c-.16.15-.4.15-.57.15zm.08-6.44l.5 4.42 3.6-3.14 1.7-4.03-4.1-1.2zm4.76 1.6z" stroke="#000" stroke-opacity="0" stroke-width="1.98" fill="#690589"/><path d="M455.96 230.06c-3.46 0-6.28-2.42-6.28-5.4v-2.74c0-2.98 2.82-5.4 6.28-5.4 3.46 0 6.28 2.42 6.28 5.4v2.74c0 2.98-2.82 5.4-6.28 5.4z" stroke="#000" stroke-opacity="0" stroke-width="1.98" fill="#ff9f70"/><path d="M455.96 230.7c-3.87 0-7-2.74-7-6.04v-2.74c0-3.3 3.13-6.04 7-6.04 3.86 0 7 2.74 7 6.04v2.74c0 3.3-3.14 6.04-7 6.04zm0-13.53c-3.06 0-5.56 2.1-5.56 4.75v2.74c0 2.66 2.5 4.75 5.56 4.75 3.06 0 5.55-2.08 5.55-4.74v-2.74c0-2.66-2.48-4.75-5.54-4.75z" stroke="#000" stroke-opacity="0" stroke-width="1.98" fill="#690589"/><path d="M454.35 284.25c-.57 0-1.05-.08-1.6-.24-1.94-.7-2.83-2.73-1.94-4.34l7-13.77-18.67-5.8c-2-.65-2.98-2.58-2.25-4.27.72-1.7 2.98-2.58 5-1.94l22.45 7.08c.97.32 1.77.97 2.18 1.77.4.9.4 1.77 0 2.66l-8.7 16.92c-.55 1.2-2 1.93-3.45 1.93z" stroke="#000" stroke-opacity="0" stroke-width="1.98" fill="#f4efed"/><path d="M454.35 284.9c-.65 0-1.3-.08-1.85-.32-2.34-.9-3.4-3.23-2.42-5.16l6.76-13.12-17.95-5.64c-2.43-.8-3.63-3.06-2.75-5.08.97-2 3.62-3.06 5.96-2.25l22.47 7c1.2.4 2.18 1.2 2.66 2.18.48 1.06.48 2.18-.08 3.15l-8.6 16.9c-.74 1.46-2.43 2.35-4.2 2.35zm-13.85-30.6c-1.3 0-2.42.64-2.9 1.77-.64 1.37.16 2.9 1.77 3.38l18.68 5.88c.24.08.4.16.5.32.07.16.07.32 0 .48l-7.1 13.78c-.64 1.37.08 2.9 1.6 3.47.4.16.82.24 1.3.24 1.2 0 2.33-.63 2.82-1.6l8.6-16.9c.4-.66.4-1.38.1-2.1-.33-.65-.97-1.13-1.78-1.46l-22.47-7.08c-.4-.08-.8-.16-1.13-.16zM443.16 244.47h-.25c-.4-.16-.55-.48-.47-.8l1.85-3.87c.16-.32.57-.48.97-.32.32.08.56.48.4.8l-1.77 3.8c-.16.3-.4.4-.72.4z" stroke="#000" stroke-opacity="0" stroke-width="1.98" fill="#690589"/><path d="M480.85 83.8h-8.24v-.96c0-1.56-1.35-2.84-3.08-2.84s-3.1 1.28-3.1 2.84v.96h-8.23c-.63 0-1.06.44-1.06.96s.43.96 1.05.96h8.22v4.08c-.8.32-1.42.84-1.8 1.64h-5c-5.08-3.88-12.26-3.88-17.34 0h-5c-.38-.8-1-1.32-1.8-1.64v-4.08h8.23c.63 0 1.06-.44 1.06-.96s-.43-.96-1.05-.96h-8.23v-.96c0-1.56-1.36-2.84-3.1-2.84-1.72 0-3.1 1.28-3.1 2.84v.96h-8.22c-.62 0-1.05.44-1.05.96s.43.96 1.05.96h8.23v4.08c-1.3.48-2.04 1.6-2.04 2.88v3.2c0 1.76 1.5 3.16 3.4 3.16h3.47c1.44 0 2.6-.72 3.17-1.88h3.28l1.18 3.16c.12.36.5.64 1 .64h5.12v5.72h-1.67c-1.23 0-2.22.8-2.4 1.88h-1.3c-1.62 0-2.86 1.2-2.86 2.68v4.2c0 1.48 1.24 2.64 2.85 2.64h1.3c.2 1.12 1.18 1.92 2.4 1.92h9.55c1.36 0 2.47-1 2.47-2.24v-8.84c0-1.24-1.12-2.24-2.48-2.24h-1.68v-5.72h5.14c.5 0 .87-.28 1-.64l1.17-3.16h3.28c.56 1.16 1.73 1.88 3.16 1.88h3.45c1.92 0 3.4-1.4 3.4-3.16v-3.2c0-1.28-.74-2.4-2.04-2.88v-4.08h8.25c.62 0 1.05-.44 1.05-.96s-.43-.96-1.05-.96zm-49.52-.96c0-.52.5-.92 1.05-.92.56 0 1.05.4 1.05.92v.96h-2.1zm0 2.88h2.1v3.8h-2.1zm4.14 10.16c0 .72-.6 1.28-1.36 1.28h-3.45c-.75 0-1.37-.56-1.37-1.28v-3.2c0-.68.62-1.24 1.37-1.24h3.46c.76 0 1.37.56 1.37 1.24zm8.24 20.32h-1.23c-.43 0-.8-.36-.8-.76v-4.2c0-.44.37-.76.8-.76h1.24zm12.02-7.64c.24 0 .37.16.37.36v8.84c0 .16-.14.32-.38.32h-9.54c-.24 0-.37-.16-.37-.32v-8.84c0-.2.14-.36.38-.36zm-7.68-9.52c.56-1.48 2.35-2.24 3.96-1.72.87.28 1.55.88 1.86 1.72zm3.96 1.92v5.72h-2.1v-5.72zm12.38-5.72h-3.77c-.5 0-.86.24-.98.64l-1.18 3.16h-2.4c-.45-1.92-2-3.32-4.04-3.72-2.78-.52-5.5 1.16-6.13 3.72h-2.4l-1.2-3.16c-.1-.4-.48-.64-.98-.64h-3.78v-1.92h5.14c.24 0 .43-.04.6-.2 4.53-3.52 10.85-3.52 15.37 0 .18.16.37.2.6.2h5.15zm4.1-12.4c0-.52.48-.92 1.04-.92s1.05.4 1.05.92v.96h-2.1zm0 2.88h2.1v3.8h-2.1zm4.13 10.16c0 .72-.6 1.28-1.35 1.28h-3.46c-.76 0-1.38-.56-1.38-1.28v-3.2c0-.68.62-1.24 1.37-1.24h3.45c.75 0 1.36.56 1.36 1.24z" stroke="#000" stroke-opacity="0"/><path d="M450.95 116.2c1.73 0 3.1-1.28 3.1-2.88 0-1.56-1.37-2.84-3.1-2.84s-3.1 1.28-3.1 2.84c0 1.6 1.37 2.88 3.1 2.88zm0-3.8c.56 0 1.05.4 1.05.92s-.5.96-1.05.96c-.56 0-1.05-.44-1.05-.96s.5-.92 1.05-.92z" stroke="#000" stroke-opacity="0"/><path d="M426.05 235.88h49.8L450.95 120z" fill="#636363" fill-opacity="0"/><path d="M429.54 235.88h2.98m2 0h2.98m2 0h2.98m2 0h2.98m2 0h2.98m2 0h2.98m2 0h2.98m2 0h2.98m2 0h2.98m2 0h1.5l-.32-1.45m-.42-1.93l-.62-2.9m-.4-1.93l-.64-2.9m-.4-1.92l-.63-2.9m-.42-1.93l-.6-2.9m-.43-1.93l-.62-2.9m-.4-1.94l-.64-2.9m-.4-1.93l-.62-2.9m-.42-1.93l-.62-2.9m-.42-1.92l-.62-2.9m-.4-1.93l-.64-2.9m-.4-1.93l-.63-2.9m-.42-1.93l-.6-2.9m-.43-1.94l-.62-2.9m-.4-1.93l-.64-2.9m-.4-1.93l-.62-2.9m-.42-1.92l-.62-2.9m-.42-1.93l-.62-2.9m-.4-1.93l-.64-2.9m-.4-1.93l-.63-2.9m-.42-1.94l-.6-2.9m-.43-1.93l-.62-2.9m-.4-1.92l-.64-2.9m-.4-1.92l-.62-2.9m-.42-1.93l-.3-1.45-.32 1.45m-.42 1.93l-.62 2.9m-.4 1.93l-.64 2.9m-.4 1.94l-.63 2.9m-.42 1.93l-.6 2.9m-.43 1.92l-.62 2.9m-.4 1.92l-.64 2.9m-.4 1.93l-.62 2.9m-.42 1.93l-.62 2.9m-.42 1.93l-.62 2.9m-.4 1.94l-.64 2.9m-.4 1.92l-.63 2.9m-.42 1.93l-.6 2.9m-.43 1.92l-.62 2.9m-.4 1.93l-.64 2.9m-.4 1.93l-.62 2.9m-.42 1.93l-.62 2.9m-.42 1.93l-.62 2.9m-.4 1.93l-.64 2.9m-.4 1.93l-.63 2.9m-.42 1.92l-.6 2.9m-.43 1.93l-.62 2.9m-.4 1.93l-.64 2.9m-.4 1.93l-.62 2.9m-.42 1.93l-.3 1.45h1.48M439.24 279.6l-5.32 95.63.2 17.3.68 13.04 1.02 10.6 1.24 9 1.42 7.83 1.57 6.96 1.7 6.27 1.58 5.1 2.64 7.25 3.08 7.2 3.53 7.16 3.97 7.06 4.4 6.9 4.83 6.74 5.2 6.46 5.5 6.13 5.73 5.73 5.87 5.24 5.87 4.7 5.77 4.14 5.6 3.54 5.3 2.98 4.96 2.44 4.6 1.96 4.2 1.53 3.86 1.15 3.5.85 2.6.5" stroke="#000" fill="none"/><path d="M440.06 264.84l3.84 14.5-9.26-.5z" stroke="#000"/><path d="M535.5 540.7l-1.27.7.17-.9zM1305.97 496.47c0 1.38-1.12 2.5-2.5 2.5s-2.5-1.12-2.5-2.5 1.12-2.5 2.5-2.5 2.5 1.12 2.5 2.5zm8.84 17.75c0 1.4-1.1 2.5-2.5 2.5-1.37 0-2.5-1.1-2.5-2.5 0-1.38 1.13-2.5 2.5-2.5 1.4 0 2.5 1.12 2.5 2.5zm8.13 18c0 1.4-1.12 2.5-2.5 2.5s-2.5-1.1-2.5-2.5c0-1.37 1.12-2.5 2.5-2.5s2.5 1.13 2.5 2.5zm-16.44 3.9c0 1.4-1.12 2.5-2.5 2.5-1.4 0-2.5-1.1-2.5-2.5 0-1.37 1.1-2.5 2.5-2.5 1.38 0 2.5 1.13 2.5 2.5zm-17.15-9.97c0 1.38-1.12 2.5-2.5 2.5s-2.5-1.12-2.5-2.5 1.12-2.5 2.5-2.5 2.5 1.12 2.5 2.5zm-15.18-12.93c0 1.38-1.12 2.5-2.5 2.5s-2.5-1.12-2.5-2.5 1.12-2.5 2.5-2.5 2.5 1.12 2.5 2.5zm-15.44-12.57c0 1.38-1.12 2.5-2.5 2.5s-2.5-1.12-2.5-2.5 1.12-2.5 2.5-2.5 2.5 1.12 2.5 2.5zm-18.44.3c0 1.4-1.13 2.5-2.5 2.5-1.4 0-2.5-1.1-2.5-2.5 0-1.37 1.1-2.5 2.5-2.5 1.37 0 2.5 1.13 2.5 2.5zm-9.74 17.04c0 1.37-1.12 2.5-2.5 2.5s-2.5-1.13-2.5-2.5c0-1.4 1.12-2.5 2.5-2.5s2.5 1.1 2.5 2.5zm7.07 17.8c0 1.37-1.12 2.5-2.5 2.5s-2.5-1.13-2.5-2.5c0-1.4 1.12-2.5 2.5-2.5s2.5 1.1 2.5 2.5zm16.13 11.62c0 1.38-1.12 2.5-2.5 2.5s-2.5-1.12-2.5-2.5c0-1.4 1.12-2.5 2.5-2.5s2.5 1.1 2.5 2.5zm17.45 9.64c0 1.38-1.1 2.5-2.5 2.5-1.37 0-2.5-1.12-2.5-2.5s1.13-2.5 2.5-2.5c1.4 0 2.5 1.12 2.5 2.5zm17.5 9.6c0 1.4-1.13 2.5-2.5 2.5-1.4 0-2.5-1.1-2.5-2.5 0-1.37 1.1-2.5 2.5-2.5 1.37 0 2.5 1.13 2.5 2.5zm16.15 11.57c0 1.38-1.12 2.5-2.5 2.5s-2.5-1.12-2.5-2.5 1.12-2.5 2.5-2.5 2.5 1.12 2.5 2.5zm9.73 16.98c0 1.4-1.12 2.5-2.5 2.5s-2.5-1.1-2.5-2.5c0-1.38 1.12-2.5 2.5-2.5s2.5 1.12 2.5 2.5zm-13.6 10.73c0 1.38-1.1 2.5-2.5 2.5-1.37 0-2.5-1.12-2.5-2.5s1.13-2.5 2.5-2.5c1.4 0 2.5 1.12 2.5 2.5zm-19.52-3.57c0 1.38-1.12 2.5-2.5 2.5s-2.5-1.12-2.5-2.5 1.12-2.5 2.5-2.5 2.5 1.12 2.5 2.5zm-18.36-7.73c0 1.38-1.12 2.5-2.5 2.5s-2.5-1.12-2.5-2.5 1.12-2.5 2.5-2.5 2.5 1.12 2.5 2.5zm-17.25-10c0 1.4-1.12 2.5-2.5 2.5s-2.5-1.1-2.5-2.5c0-1.37 1.12-2.5 2.5-2.5s2.5 1.13 2.5 2.5zm-16.1-11.74c0 1.37-1.12 2.5-2.5 2.5s-2.5-1.13-2.5-2.5c0-1.4 1.12-2.5 2.5-2.5s2.5 1.1 2.5 2.5z"/><path d="M1308.36 496.83l-5.5.88-.46-2.86h5.64z"/><path d="M1200.72 547.6l13.18 7.16-6.72 6.38z" stroke="#000" stroke-width="5"/><path d="M1333.9 470.92h-10.3v-1.44c0-.68-.36-1.24-.9-1.24-.48 0-.83.56-.83 1.24v1.44h-10.3c-.55 0-.9.56-.9 1.24 0 .72.35 1.28.9 1.28h10.3v1.72c-1.08.52-1.9 1.96-1.9 3.72v1.4h-4.9c-.36-1.56-1.43-2.68-2.62-2.68h-14.9c-1.2 0-2.26 1.12-2.62 2.68h-4.9v-1.4c0-1.76-.82-3.2-1.9-3.72v-1.72h10.3c.55 0 .9-.56.9-1.28 0-.68-.35-1.24-.9-1.24h-10.3v-1.44c0-.68-.35-1.24-.83-1.24-.54 0-.9.56-.9 1.24v1.44h-10.3c-.48 0-.9.56-.9 1.24 0 .72.42 1.28.9 1.28h10.3v1.72c-1.07.52-1.84 1.96-1.84 3.72v5.36c0 2.16 1.2 3.92 2.74 3.92 1.5 0 2.74-1.76 2.74-3.92v-1.44h4.9c.35 1.56 1.42 2.68 2.6 2.68h.96v4.2c-1.55.16-2.92 1.76-3.27 3.96l-2.1 12.08h-1.18c-.48 0-.9.56-.9 1.28 0 .68.42 1.24.9 1.24H1295.64c.54 0 .9-.56.9-1.24 0-.72-.36-1.28-.9-1.28h-.7l1.95-11.44c.23-1.2.95-2.04 1.78-2.12.36 1.56 1.37 2.68 2.57 2.68h7.5c1.2 0 2.2-1.12 2.57-2.68.83.08 1.55.92 1.8 2.12l1.95 11.44h-.7c-.55 0-.9.56-.9 1.28 0 .68.35 1.24.9 1.24h3.68c.48 0 .9-.56.9-1.24 0-.72-.42-1.28-.9-1.28h-1.2l-2.08-12.08c-.35-2.2-1.72-3.8-3.27-3.96v-4.2h.95c1.2 0 2.26-1.12 2.62-2.68h4.9v1.44c0 2.16 1.24 3.92 2.73 3.92 1.55 0 2.74-1.76 2.74-3.92v-5.36c0-1.76-.77-3.2-1.84-3.72v-1.72h10.3c.48 0 .9-.56.9-1.28 0-.68-.42-1.24-.9-1.24zm-45.65 13.32c0 .76-.4 1.4-.95 1.4-.6 0-1-.64-1-1.4v-5.36c0-.8.4-1.44 1-1.44.54 0 .95.64.95 1.44v5.36zm24.2-1.28h-3.7c-.47 0-.9.56-.9 1.28 0 .68.43 1.24.9 1.24h.96v5.44c0 .8-.4 1.44-.95 1.44h-7.5c-.54 0-.96-.64-.96-1.44v-5.44h4.7c.48 0 .9-.56.9-1.24 0-.72-.42-1.28-.9-1.28H1297.55c-.54 0-1-.64-1-1.4 0-.8.46-1.44 1-1.44h14.9c.54 0 1 .64 1 1.44 0 .76-.46 1.4-1 1.4zm11.26 1.28c0 .76-.4 1.4-1 1.4-.54 0-.95-.64-.95-1.4v-5.36c0-.8.4-1.44.95-1.44.6 0 1 .64 1 1.44v5.36z" stroke="#000" stroke-opacity="0" stroke-width=".29"/><path d="M767.4 280h200.4v200H767.4z" stroke="#000" stroke-opacity="0" stroke-width="2" fill="#fff" fill-opacity="0"/><g><use xlink:href="#U" transform="matrix(1,0,0,1,767.4,280) translate(60.687037037037044 93.87222222222222)"/><use xlink:href="#V" transform="matrix(1,0,0,1,767.4,280) translate(120.94938271604939 93.87222222222222)"/><use xlink:href="#W" transform="matrix(1,0,0,1,767.4,280) translate(16.881790123456796 112.80555555555556)"/><use xlink:href="#X" transform="matrix(1,0,0,1,767.4,280) translate(142.84104938271605 112.80555555555556)"/></g><defs><path d="M230 0l2-204L168 0h-37L68-204 70 0H24v-248h70l56 185 57-185h69V0h-46" id="Y"/><path d="M110-194c64 0 96 36 96 99 0 64-35 99-97 99-61 0-95-36-95-99 0-62 34-99 96-99zm-1 164c35 0 45-28 45-65 0-40-10-65-43-65-34 0-45 26-45 65 0 36 10 65 43 65" id="Z"/><path d="M88-194c31-1 46 15 58 34l-1-101h50l1 261h-48c-2-10 0-23-3-31C134-8 116 4 84 4 32 4 16-41 15-95c0-56 19-97 73-99zm17 164c33 0 40-30 41-66 1-37-9-64-41-64s-38 30-39 65c0 43 13 65 39 65" id="aa"/><path d="M85 4C-2 5 27-109 22-190h50c7 57-23 150 33 157 60-5 35-97 40-157h50l1 190h-47c-2-12 1-28-3-38-12 25-28 42-61 42" id="ab"/><path d="M25 0v-261h50V0H25" id="ac"/><g id="a"><use transform="matrix(0.043827160493827164,0,0,0.043827160493827164,0,0)" xlink:href="#Y"/><use transform="matrix(0.043827160493827164,0,0,0.043827160493827164,13.104320987654322,0)" xlink:href="#Z"/><use transform="matrix(0.043827160493827164,0,0,0.043827160493827164,22.70246913580247,0)" xlink:href="#aa"/><use transform="matrix(0.043827160493827164,0,0,0.043827160493827164,32.300617283950615,0)" xlink:href="#ab"/><use transform="matrix(0.043827160493827164,0,0,0.043827160493827164,41.89876543209876,0)" xlink:href="#ac"/><use transform="matrix(0.043827160493827164,0,0,0.043827160493827164,46.28148148148148,0)" xlink:href="#Z"/></g><path d="M84 4C32 4 15-41 15-95c0-55 18-99 73-99 29 0 47 12 58 34l2-30h48l-1 265h-49V-32C136-9 114 4 84 4zm21-34c32 0 41-29 41-66 0-36-9-64-40-64-33 0-39 30-40 65 0 43 13 65 39 65" id="ad"/><path d="M185-48c-13 30-37 53-82 52C43 2 14-33 14-96s30-98 90-98c62 0 83 45 84 108H66c0 31 8 55 39 56 18 0 30-7 34-22zm-45-69c5-46-57-63-70-21-2 6-4 13-4 21h74" id="ae"/><g id="b"><use transform="matrix(0.043827160493827164,0,0,0.043827160493827164,0,0)" xlink:href="#ad"/><use transform="matrix(0.043827160493827164,0,0,0.043827160493827164,9.598148148148148,0)" xlink:href="#ab"/><use transform="matrix(0.043827160493827164,0,0,0.043827160493827164,19.196296296296296,0)" xlink:href="#ae"/></g><path d="M115-3C79 11 28 4 28-45v-112H4v-33h27l15-45h31v45h36v33H77v99c-1 23 16 31 38 25v30" id="af"/><path d="M190-63c-7 42-38 67-86 67-59 0-84-38-90-98-12-110 154-137 174-36l-49 2c-2-19-15-32-35-32-30 0-35 28-38 64-6 74 65 87 74 30" id="ag"/><path d="M133-34C117-15 103 5 69 4 32 3 11-16 11-54c-1-60 55-63 116-61 1-26-3-47-28-47-18 1-26 9-28 27l-52-2c7-38 36-58 82-57s74 22 75 68l1 82c-1 14 12 18 25 15v27c-30 8-71 5-69-32zm-48 3c29 0 43-24 42-57-32 0-66-3-65 30 0 17 8 27 23 27" id="ah"/><g id="c"><use transform="matrix(0.043827160493827164,0,0,0.043827160493827164,0,0)" xlink:href="#aa"/><use transform="matrix(0.043827160493827164,0,0,0.043827160493827164,9.598148148148148,0)" xlink:href="#ae"/><use transform="matrix(0.043827160493827164,0,0,0.043827160493827164,18.36358024691358,0)" xlink:href="#af"/><use transform="matrix(0.043827160493827164,0,0,0.043827160493827164,23.579012345679008,0)" xlink:href="#ae"/><use transform="matrix(0.043827160493827164,0,0,0.043827160493827164,32.34444444444444,0)" xlink:href="#ag"/><use transform="matrix(0.043827160493827164,0,0,0.043827160493827164,41.10987654320987,0)" xlink:href="#af"/><use transform="matrix(0.043827160493827164,0,0,0.043827160493827164,46.325308641975305,0)" xlink:href="#ah"/></g><path d="M220-157c-53 9-28 100-34 157h-49v-107c1-27-5-49-29-50C55-147 81-57 75 0H25l-1-190h47c2 12-1 28 3 38 10-53 101-56 108 0 13-22 24-43 59-42 82 1 51 116 57 194h-49v-107c-1-25-5-48-29-50" id="ai"/><g id="d"><use transform="matrix(0.043827160493827164,0,0,0.043827160493827164,0,0)" xlink:href="#ab"/><use transform="matrix(0.043827160493827164,0,0,0.043827160493827164,9.598148148148148,0)" xlink:href="#ai"/></g><path d="M135-194c53 0 70 44 70 98 0 56-19 98-73 100-31 1-45-17-59-34 3 33 2 69 2 105H25l-1-265h48c2 10 0 23 3 31 11-24 29-35 60-35zM114-30c33 0 39-31 40-66 0-38-9-64-40-64-56 0-55 130 0 130" id="aj"/><path d="M137-138c1-29-70-34-71-4 15 46 118 7 119 86 1 83-164 76-172 9l43-7c4 19 20 25 44 25 33 8 57-30 24-41C81-84 22-81 20-136c-2-80 154-74 161-7" id="ak"/><path d="M25-224v-37h50v37H25zM25 0v-190h50V0H25" id="al"/><path d="M128 0H69L1-190h53L99-40l48-150h52" id="am"/><g id="e"><use transform="matrix(0.043827160493827164,0,0,0.043827160493827164,0,0)" xlink:href="#aj"/><use transform="matrix(0.043827160493827164,0,0,0.043827160493827164,9.598148148148148,0)" xlink:href="#Z"/><use transform="matrix(0.043827160493827164,0,0,0.043827160493827164,19.196296296296296,0)" xlink:href="#ak"/><use transform="matrix(0.043827160493827164,0,0,0.043827160493827164,27.961728395061726,0)" xlink:href="#ak"/><use transform="matrix(0.043827160493827164,0,0,0.043827160493827164,36.72716049382716,0)" xlink:href="#al"/><use transform="matrix(0.043827160493827164,0,0,0.043827160493827164,41.10987654320987,0)" xlink:href="#am"/><use transform="matrix(0.043827160493827164,0,0,0.043827160493827164,49.8753086419753,0)" xlink:href="#ae"/><use transform="matrix(0.043827160493827164,0,0,0.043827160493827164,58.64074074074073,0)" xlink:href="#ac"/></g><path d="M135-194c87-1 58 113 63 194h-50c-7-57 23-157-34-157-59 0-34 97-39 157H25l-1-190h47c2 12-1 28 3 38 12-26 28-41 61-42" id="an"/><g id="f"><use transform="matrix(0.043827160493827164,0,0,0.043827160493827164,0,0)" xlink:href="#aa"/><use transform="matrix(0.043827160493827164,0,0,0.043827160493827164,9.598148148148148,0)" xlink:href="#ae"/><use transform="matrix(0.043827160493827164,0,0,0.043827160493827164,18.36358024691358,0)" xlink:href="#ak"/><use transform="matrix(0.043827160493827164,0,0,0.043827160493827164,27.12901234567901,0)" xlink:href="#ac"/><use transform="matrix(0.043827160493827164,0,0,0.043827160493827164,31.511728395061727,0)" xlink:href="#Z"/><use transform="matrix(0.043827160493827164,0,0,0.043827160493827164,41.10987654320987,0)" xlink:href="#ag"/><use transform="matrix(0.043827160493827164,0,0,0.043827160493827164,49.8753086419753,0)" xlink:href="#ah"/><use transform="matrix(0.043827160493827164,0,0,0.043827160493827164,58.64074074074073,0)" xlink:href="#ai"/><use transform="matrix(0.043827160493827164,0,0,0.043827160493827164,72.66543209876542,0)" xlink:href="#ae"/><use transform="matrix(0.043827160493827164,0,0,0.043827160493827164,81.43086419753085,0)" xlink:href="#an"/><use transform="matrix(0.043827160493827164,0,0,0.043827160493827164,91.02901234567899,0)" xlink:href="#af"/><use transform="matrix(0.043827160493827164,0,0,0.043827160493827164,96.24444444444443,0)" xlink:href="#Z"/></g><path d="M24 0v-248h52V0H24" id="ao"/><path d="M121-226c-27-7-43 5-38 36h38v33H83V0H34v-157H6v-33h28c-9-59 32-81 87-68v32" id="ap"/><g id="g"><use transform="matrix(0.043827160493827164,0,0,0.043827160493827164,0,0)" xlink:href="#ao"/><use transform="matrix(0.043827160493827164,0,0,0.043827160493827164,4.382716049382716,0)" xlink:href="#aa"/><use transform="matrix(0.043827160493827164,0,0,0.043827160493827164,13.980864197530863,0)" xlink:href="#ae"/><use transform="matrix(0.043827160493827164,0,0,0.043827160493827164,22.746296296296293,0)" xlink:href="#an"/><use transform="matrix(0.043827160493827164,0,0,0.043827160493827164,32.34444444444444,0)" xlink:href="#af"/><use transform="matrix(0.043827160493827164,0,0,0.043827160493827164,37.559876543209874,0)" xlink:href="#al"/><use transform="matrix(0.043827160493827164,0,0,0.043827160493827164,41.94259259259259,0)" xlink:href="#ap"/><use transform="matrix(0.043827160493827164,0,0,0.043827160493827164,47.158024691358015,0)" xlink:href="#al"/><use transform="matrix(0.043827160493827164,0,0,0.043827160493827164,51.54074074074074,0)" xlink:href="#ag"/><use transform="matrix(0.043827160493827164,0,0,0.043827160493827164,60.30617283950617,0)" xlink:href="#ah"/></g><use transform="matrix(0.043827160493827164,0,0,0.043827160493827164,0,0)" xlink:href="#ah" id="h"/><path d="M135-150c-39-12-60 13-60 57V0H25l-1-190h47c2 13-1 29 3 40 6-28 27-53 61-41v41" id="aq"/><path d="M190-63c-7 42-38 67-86 67-59 0-84-38-90-98-12-110 154-137 174-36l-49 2c-2-19-15-32-35-32-30 0-35 28-38 64-6 74 65 87 74 30zm-84 77c20 1 33 9 33 27 0 32-36 36-71 33V53c15 1 39 4 39-11 0-13-16-12-31-12L87 0h25" id="ar"/><path d="M132-34C116-15 102 5 68 4 31 3 10-16 10-54c-1-60 55-63 116-61 1-26-3-47-28-47-18 1-26 9-28 27l-52-2c7-38 36-58 82-57s74 22 75 68l1 82c-1 14 12 18 25 15v27c-30 8-71 5-69-32zm-48 3c29 0 43-24 42-57-32 0-66-3-65 30 0 17 8 27 23 27zm82-228c-2 27-9 52-40 51-27-1-66-46-73 0H29c0-29 9-51 39-51 28 0 66 44 74 0h24" id="as"/><g id="i"><use transform="matrix(0.043827160493827164,0,0,0.043827160493827164,0,0)" xlink:href="#aa"/><use transform="matrix(0.043827160493827164,0,0,0.043827160493827164,9.598148148148148,0)" xlink:href="#al"/><use transform="matrix(0.043827160493827164,0,0,0.043827160493827164,13.980864197530863,0)" xlink:href="#aq"/><use transform="matrix(0.043827160493827164,0,0,0.043827160493827164,20.116666666666667,0)" xlink:href="#ae"/><use transform="matrix(0.043827160493827164,0,0,0.043827160493827164,28.882098765432097,0)" xlink:href="#ar"/><use transform="matrix(0.043827160493827164,0,0,0.043827160493827164,37.64753086419753,0)" xlink:href="#as"/><use transform="matrix(0.043827160493827164,0,0,0.043827160493827164,46.41296296296296,0)" xlink:href="#Z"/></g><g id="j"><use transform="matrix(0.043827160493827164,0,0,0.043827160493827164,0,0)" xlink:href="#aa"/><use transform="matrix(0.043827160493827164,0,0,0.043827160493827164,9.598148148148148,0)" xlink:href="#Z"/></g><g id="k"><use transform="matrix(0.043827160493827164,0,0,0.043827160493827164,0,0)" xlink:href="#aa"/><use transform="matrix(0.043827160493827164,0,0,0.043827160493827164,9.598148148148148,0)" xlink:href="#ae"/><use transform="matrix(0.043827160493827164,0,0,0.043827160493827164,18.36358024691358,0)" xlink:href="#ak"/><use transform="matrix(0.043827160493827164,0,0,0.043827160493827164,27.12901234567901,0)" xlink:href="#ac"/><use transform="matrix(0.043827160493827164,0,0,0.043827160493827164,31.511728395061727,0)" xlink:href="#Z"/><use transform="matrix(0.043827160493827164,0,0,0.043827160493827164,41.10987654320987,0)" xlink:href="#ag"/><use transform="matrix(0.043827160493827164,0,0,0.043827160493827164,49.8753086419753,0)" xlink:href="#ah"/><use transform="matrix(0.043827160493827164,0,0,0.043827160493827164,58.64074074074073,0)" xlink:href="#ai"/><use transform="matrix(0.043827160493827164,0,0,0.043827160493827164,72.66543209876542,0)" xlink:href="#ae"/><use transform="matrix(0.043827160493827164,0,0,0.043827160493827164,81.43086419753085,0)" xlink:href="#an"/><use transform="matrix(0.043827160493827164,0,0,0.043827160493827164,91.02901234567899,0)" xlink:href="#af"/><use transform="matrix(0.043827160493827164,0,0,0.043827160493827164,96.24444444444443,0)" xlink:href="#Z"/></g><path d="M175 0L67-191c6 58 2 128 3 191H24v-248h59L193-55c-6-58-2-129-3-193h46V0h-61" id="at"/><path d="M76-54c-1 42 2 86-19 110H24C36 42 46 24 48 0H25v-54h51" id="au"/><g id="l"><use transform="matrix(0.043827160493827164,0,0,0.043827160493827164,0,0)" xlink:href="#at"/><use transform="matrix(0.043827160493827164,0,0,0.043827160493827164,11.351234567901235,0)" xlink:href="#Z"/><use transform="matrix(0.043827160493827164,0,0,0.043827160493827164,20.949382716049385,0)" xlink:href="#aq"/><use transform="matrix(0.043827160493827164,0,0,0.043827160493827164,27.085185185185185,0)" xlink:href="#af"/><use transform="matrix(0.043827160493827164,0,0,0.043827160493827164,32.30061728395062,0)" xlink:href="#ae"/><use transform="matrix(0.043827160493827164,0,0,0.043827160493827164,41.06604938271605,0)" xlink:href="#au"/></g><g id="m"><use transform="matrix(0.043827160493827164,0,0,0.043827160493827164,0,0)" xlink:href="#ak"/><use transform="matrix(0.043827160493827164,0,0,0.043827160493827164,8.765432098765432,0)" xlink:href="#ab"/><use transform="matrix(0.043827160493827164,0,0,0.043827160493827164,18.36358024691358,0)" xlink:href="#ac"/><use transform="matrix(0.043827160493827164,0,0,0.043827160493827164,22.746296296296293,0)" xlink:href="#au"/></g><path d="M24 0v-248h52v208h133V0H24" id="av"/><g id="n"><use transform="matrix(0.043827160493827164,0,0,0.043827160493827164,0,0)" xlink:href="#av"/><use transform="matrix(0.043827160493827164,0,0,0.043827160493827164,9.598148148148148,0)" xlink:href="#ae"/><use transform="matrix(0.043827160493827164,0,0,0.043827160493827164,18.36358024691358,0)" xlink:href="#ak"/><use transform="matrix(0.043827160493827164,0,0,0.043827160493827164,27.12901234567901,0)" xlink:href="#af"/><use transform="matrix(0.043827160493827164,0,0,0.043827160493827164,32.34444444444444,0)" xlink:href="#ae"/></g><g id="o"><use transform="matrix(0.043827160493827164,0,0,0.043827160493827164,0,0)" xlink:href="#Z"/><use transform="matrix(0.043827160493827164,0,0,0.043827160493827164,9.598148148148148,0)" xlink:href="#ab"/></g><path d="M140-251c80 0 125 45 125 126S219 4 139 4C58 4 15-44 15-125s44-126 125-126zm-1 214c52 0 73-35 73-88 0-50-21-86-72-86-52 0-73 35-73 86s22 88 72 88" id="aw"/><g id="p"><use transform="matrix(0.043827160493827164,0,0,0.043827160493827164,0,0)" xlink:href="#aw"/><use transform="matrix(0.043827160493827164,0,0,0.043827160493827164,12.271604938271606,0)" xlink:href="#ae"/><use transform="matrix(0.043827160493827164,0,0,0.043827160493827164,21.037037037037038,0)" xlink:href="#ak"/><use transform="matrix(0.043827160493827164,0,0,0.043827160493827164,29.802469135802465,0)" xlink:href="#af"/><use transform="matrix(0.043827160493827164,0,0,0.043827160493827164,35.0179012345679,0)" xlink:href="#ae"/></g><path d="M67-125c0 53 21 87 73 88 37 1 54-22 65-47l45 17C233-25 199 4 140 4 58 4 20-42 15-125 8-235 124-281 211-232c18 10 29 29 36 50l-46 12c-8-25-30-41-62-41-52 0-71 34-72 86" id="ax"/><g id="q"><use transform="matrix(0.043827160493827164,0,0,0.043827160493827164,0,0)" xlink:href="#ax"/><use transform="matrix(0.043827160493827164,0,0,0.043827160493827164,11.351234567901235,0)" xlink:href="#Z"/><use transform="matrix(0.043827160493827164,0,0,0.043827160493827164,20.949382716049385,0)" xlink:href="#ai"/><use transform="matrix(0.043827160493827164,0,0,0.043827160493827164,34.97407407407408,0)" xlink:href="#aj"/><use transform="matrix(0.043827160493827164,0,0,0.043827160493827164,44.57222222222223,0)" xlink:href="#ab"/><use transform="matrix(0.043827160493827164,0,0,0.043827160493827164,54.17037037037037,0)" xlink:href="#af"/><use transform="matrix(0.043827160493827164,0,0,0.043827160493827164,59.385802469135804,0)" xlink:href="#ah"/></g><use transform="matrix(0.043827160493827164,0,0,0.043827160493827164,0,0)" xlink:href="#ae" id="r"/><g id="s"><use transform="matrix(0.043827160493827164,0,0,0.043827160493827164,0,0)" xlink:href="#ae"/><use transform="matrix(0.043827160493827164,0,0,0.043827160493827164,8.765432098765432,0)" xlink:href="#ak"/><use transform="matrix(0.043827160493827164,0,0,0.043827160493827164,17.530864197530864,0)" xlink:href="#af"/><use transform="matrix(0.043827160493827164,0,0,0.043827160493827164,22.746296296296297,0)" xlink:href="#al"/><use transform="matrix(0.043827160493827164,0,0,0.043827160493827164,27.129012345679016,0)" xlink:href="#ai"/><use transform="matrix(0.043827160493827164,0,0,0.043827160493827164,41.153703703703705,0)" xlink:href="#ah"/></g><g id="t"><use transform="matrix(0.043827160493827164,0,0,0.043827160493827164,0,0)" xlink:href="#Z"/><use transform="matrix(0.043827160493827164,0,0,0.043827160493827164,9.598148148148148,0)" xlink:href="#ak"/></g><g id="u"><use transform="matrix(0.043827160493827164,0,0,0.043827160493827164,0,0)" xlink:href="#am"/><use transform="matrix(0.043827160493827164,0,0,0.043827160493827164,8.765432098765432,0)" xlink:href="#ah"/><use transform="matrix(0.043827160493827164,0,0,0.043827160493827164,17.530864197530864,0)" xlink:href="#ac"/><use transform="matrix(0.043827160493827164,0,0,0.043827160493827164,21.91358024691358,0)" xlink:href="#Z"/><use transform="matrix(0.043827160493827164,0,0,0.043827160493827164,31.511728395061727,0)" xlink:href="#aq"/><use transform="matrix(0.043827160493827164,0,0,0.043827160493827164,37.64753086419753,0)" xlink:href="#ae"/><use transform="matrix(0.043827160493827164,0,0,0.043827160493827164,46.41296296296296,0)" xlink:href="#ak"/></g><g id="v"><use transform="matrix(0.043827160493827164,0,0,0.043827160493827164,0,0)" xlink:href="#aa"/><use transform="matrix(0.043827160493827164,0,0,0.043827160493827164,9.598148148148148,0)" xlink:href="#al"/><use transform="matrix(0.043827160493827164,0,0,0.043827160493827164,13.980864197530863,0)" xlink:href="#aq"/><use transform="matrix(0.043827160493827164,0,0,0.043827160493827164,20.116666666666667,0)" xlink:href="#ae"/><use transform="matrix(0.043827160493827164,0,0,0.043827160493827164,28.882098765432097,0)" xlink:href="#ag"/><use transform="matrix(0.043827160493827164,0,0,0.043827160493827164,37.64753086419753,0)" xlink:href="#al"/><use transform="matrix(0.043827160493827164,0,0,0.043827160493827164,42.03024691358024,0)" xlink:href="#Z"/><use transform="matrix(0.043827160493827164,0,0,0.043827160493827164,51.62839506172839,0)" xlink:href="#an"/><use transform="matrix(0.043827160493827164,0,0,0.043827160493827164,61.22654320987654,0)" xlink:href="#ah"/><use transform="matrix(0.043827160493827164,0,0,0.043827160493827164,69.99197530864197,0)" xlink:href="#al"/><use transform="matrix(0.043827160493827164,0,0,0.043827160493827164,74.37469135802469,0)" xlink:href="#ak"/></g><g id="w"><use transform="matrix(0.043827160493827164,0,0,0.043827160493827164,0,0)" xlink:href="#aa"/><use transform="matrix(0.043827160493827164,0,0,0.043827160493827164,9.598148148148148,0)" xlink:href="#ae"/></g><path d="M144 0l-44-69L55 0H2l70-98-66-92h53l41 62 40-62h54l-67 91 71 99h-54" id="ay"/><use transform="matrix(0.043827160493827164,0,0,0.043827160493827164,0,0)" xlink:href="#ay" id="x"/><use transform="matrix(0.043827160493827164,0,0,0.043827160493827164,0,0)" xlink:href="#ae" id="y"/><path d="M123 10C108 53 80 86 19 72V37c35 8 53-11 59-39L3-190h52l48 148c12-52 28-100 44-148h51" id="az"/><use transform="matrix(0.043827160493827164,0,0,0.043827160493827164,0,0)" xlink:href="#az" id="z"/><path d="M24-248c120-7 223 5 221 122C244-46 201 0 124 0H24v-248zM76-40c74 7 117-18 117-86 0-67-45-88-117-82v168" id="aA"/><g id="A"><use transform="matrix(0.043827160493827164,0,0,0.043827160493827164,0,0)" xlink:href="#aA"/><use transform="matrix(0.043827160493827164,0,0,0.043827160493827164,11.351234567901235,0)" xlink:href="#ae"/><use transform="matrix(0.043827160493827164,0,0,0.043827160493827164,20.116666666666667,0)" xlink:href="#af"/><use transform="matrix(0.043827160493827164,0,0,0.043827160493827164,25.3320987654321,0)" xlink:href="#ae"/><use transform="matrix(0.043827160493827164,0,0,0.043827160493827164,34.09753086419753,0)" xlink:href="#ag"/><use transform="matrix(0.043827160493827164,0,0,0.043827160493827164,42.86296296296296,0)" xlink:href="#af"/><use transform="matrix(0.043827160493827164,0,0,0.043827160493827164,48.0783950617284,0)" xlink:href="#ah"/></g><g id="B"><use transform="matrix(0.043827160493827164,0,0,0.043827160493827164,0,0)" xlink:href="#ah"/><use transform="matrix(0.043827160493827164,0,0,0.043827160493827164,8.765432098765432,0)" xlink:href="#ac"/><use transform="matrix(0.043827160493827164,0,0,0.043827160493827164,13.148148148148149,0)" xlink:href="#af"/><use transform="matrix(0.043827160493827164,0,0,0.043827160493827164,18.363580246913582,0)" xlink:href="#al"/><use transform="matrix(0.043827160493827164,0,0,0.043827160493827164,22.746296296296297,0)" xlink:href="#af"/><use transform="matrix(0.043827160493827164,0,0,0.043827160493827164,27.96172839506173,0)" xlink:href="#ab"/><use transform="matrix(0.043827160493827164,0,0,0.043827160493827164,37.55987654320988,0)" xlink:href="#aa"/><use transform="matrix(0.043827160493827164,0,0,0.043827160493827164,47.15802469135803,0)" xlink:href="#ae"/></g><g id="C"><use transform="matrix(0.043827160493827164,0,0,0.043827160493827164,0,0)" xlink:href="#ae"/><use transform="matrix(0.043827160493827164,0,0,0.043827160493827164,8.765432098765432,0)" xlink:href="#ak"/><use transform="matrix(0.043827160493827164,0,0,0.043827160493827164,17.530864197530864,0)" xlink:href="#aj"/><use transform="matrix(0.043827160493827164,0,0,0.043827160493827164,27.129012345679016,0)" xlink:href="#ae"/><use transform="matrix(0.043827160493827164,0,0,0.043827160493827164,35.894444444444446,0)" xlink:href="#ag"/><use transform="matrix(0.043827160493827164,0,0,0.043827160493827164,44.659876543209876,0)" xlink:href="#al"/><use transform="matrix(0.043827160493827164,0,0,0.043827160493827164,49.042592592592584,0)" xlink:href="#ap"/><use transform="matrix(0.043827160493827164,0,0,0.043827160493827164,54.25802469135803,0)" xlink:href="#al"/><use transform="matrix(0.043827160493827164,0,0,0.043827160493827164,58.64074074074073,0)" xlink:href="#ag"/><use transform="matrix(0.043827160493827164,0,0,0.043827160493827164,67.40617283950617,0)" xlink:href="#ah"/><use transform="matrix(0.043827160493827164,0,0,0.043827160493827164,76.1716049382716,0)" xlink:href="#aa"/><use transform="matrix(0.043827160493827164,0,0,0.043827160493827164,85.76975308641974,0)" xlink:href="#ah"/></g><g id="D"><use transform="matrix(0.043827160493827164,0,0,0.043827160493827164,0,0)" xlink:href="#aj"/><use transform="matrix(0.043827160493827164,0,0,0.043827160493827164,9.598148148148148,0)" xlink:href="#ah"/><use transform="matrix(0.043827160493827164,0,0,0.043827160493827164,18.36358024691358,0)" xlink:href="#aq"/><use transform="matrix(0.043827160493827164,0,0,0.043827160493827164,24.499382716049386,0)" xlink:href="#ah"/></g><g id="E"><use transform="matrix(0.043827160493827164,0,0,0.043827160493827164,0,0)" xlink:href="#al"/><use transform="matrix(0.043827160493827164,0,0,0.043827160493827164,4.382716049382716,0)" xlink:href="#an"/><use transform="matrix(0.043827160493827164,0,0,0.043827160493827164,13.980864197530863,0)" xlink:href="#al"/><use transform="matrix(0.043827160493827164,0,0,0.043827160493827164,18.36358024691358,0)" xlink:href="#ag"/><use transform="matrix(0.043827160493827164,0,0,0.043827160493827164,27.12901234567901,0)" xlink:href="#al"/><use transform="matrix(0.043827160493827164,0,0,0.043827160493827164,31.511728395061727,0)" xlink:href="#ah"/><use transform="matrix(0.043827160493827164,0,0,0.043827160493827164,40.277160493827154,0)" xlink:href="#aq"/></g><use transform="matrix(0.043827160493827164,0,0,0.043827160493827164,0,0)" xlink:href="#Z" id="F"/><g id="G"><use transform="matrix(0.043827160493827164,0,0,0.043827160493827164,0,0)" xlink:href="#ap"/><use transform="matrix(0.043827160493827164,0,0,0.043827160493827164,5.215432098765432,0)" xlink:href="#ab"/><use transform="matrix(0.043827160493827164,0,0,0.043827160493827164,14.813580246913581,0)" xlink:href="#an"/><use transform="matrix(0.043827160493827164,0,0,0.043827160493827164,24.41172839506173,0)" xlink:href="#ag"/><use transform="matrix(0.043827160493827164,0,0,0.043827160493827164,33.17716049382716,0)" xlink:href="#al"/><use transform="matrix(0.043827160493827164,0,0,0.043827160493827164,37.559876543209874,0)" xlink:href="#Z"/><use transform="matrix(0.043827160493827164,0,0,0.043827160493827164,47.158024691358015,0)" xlink:href="#an"/><use transform="matrix(0.043827160493827164,0,0,0.043827160493827164,56.75617283950616,0)" xlink:href="#ah"/><use transform="matrix(0.043827160493827164,0,0,0.043827160493827164,65.52160493827161,0)" xlink:href="#ai"/><use transform="matrix(0.043827160493827164,0,0,0.043827160493827164,79.5462962962963,0)" xlink:href="#ae"/><use transform="matrix(0.043827160493827164,0,0,0.043827160493827164,88.31172839506173,0)" xlink:href="#an"/><use transform="matrix(0.043827160493827164,0,0,0.043827160493827164,97.90987654320989,0)" xlink:href="#af"/><use transform="matrix(0.043827160493827164,0,0,0.043827160493827164,103.12530864197531,0)" xlink:href="#Z"/></g><g id="H"><use transform="matrix(0.043827160493827164,0,0,0.043827160493827164,0,0)" xlink:href="#aa"/><use transform="matrix(0.043827160493827164,0,0,0.043827160493827164,9.598148148148148,0)" xlink:href="#Z"/></g><g id="I"><use transform="matrix(0.043827160493827164,0,0,0.043827160493827164,0,0)" xlink:href="#ak"/><use transform="matrix(0.043827160493827164,0,0,0.043827160493827164,8.765432098765432,0)" xlink:href="#al"/><use transform="matrix(0.043827160493827164,0,0,0.043827160493827164,13.148148148148149,0)" xlink:href="#ak"/><use transform="matrix(0.043827160493827164,0,0,0.043827160493827164,21.913580246913583,0)" xlink:href="#af"/><use transform="matrix(0.043827160493827164,0,0,0.043827160493827164,27.129012345679016,0)" xlink:href="#ae"/><use transform="matrix(0.043827160493827164,0,0,0.043827160493827164,35.894444444444446,0)" xlink:href="#ai"/><use transform="matrix(0.043827160493827164,0,0,0.043827160493827164,49.91913580246914,0)" xlink:href="#ah"/></g><path fill="#fff" d="M766 0H467L3-1349h308c102 347 212 687 307 1041 91-356 204-694 304-1041h305" id="aB"/><path fill="#fff" d="M794-190h353V0H118v-190h395v-702H223v-190h571v892zM513-1277v-207h281v207H513" id="aC"/><path fill="#fff" d="M622-916c-112 2-200 14-200 111 0 90 89 101 168 121 234 58 514 77 514 368C1104-4 751 54 434 5 267-21 161-112 121-270l247-37c24 111 113 145 252 141 114-3 226-12 226-124 0-101-103-113-192-134-225-54-490-76-490-351 0-247 201-328 458-328 245 0 413 88 457 292l-249 26c-16-98-92-133-208-131" id="aD"/><path fill="#fff" d="M775-193C708-75 621 20 439 20 226 20 106-93 106-306c0-251 170-341 417-346l223-4c4-143-12-264-148-264-103 0-141 58-150 153l-293-14c37-219 194-321 455-321 263 0 418 130 417 390v392c1 84 5 161 89 160 21 0 42-2 62-6v152c-57 15-108 27-180 26-145 0-202-73-217-205h-6zm-256 17c168 0 234-139 227-325-166 4-347-25-347 173 0 94 33 152 120 152zm477-1290c-9 158-56 283-223 283-131 0-203-102-322-113-73-7-90 48-98 113H216c10-157 57-283 225-283 104 0 179 63 255 96 25 11 47 17 66 17 73 1 89-50 99-113h135" id="aE"/><path fill="#fff" d="M616-1102c361 0 521 202 521 560 0 354-171 562-527 562C259 20 92-192 92-542c0-351 169-560 524-560zm-9 930c200-2 236-165 236-370 0-199-27-367-223-367-195 0-233 146-233 367 0 129 18 223 55 282s92 88 165 88" id="aF"/><g id="J"><use transform="matrix(0.009874131944444444,0,0,0.009874131944444444,0,0)" xlink:href="#aB"/><use transform="matrix(0.009874131944444444,0,0,0.009874131944444444,12.135308159722221,0)" xlink:href="#aC"/><use transform="matrix(0.009874131944444444,0,0,0.009874131944444444,24.270616319444443,0)" xlink:href="#aD"/><use transform="matrix(0.009874131944444444,0,0,0.009874131944444444,36.405924479166664,0)" xlink:href="#aE"/><use transform="matrix(0.009874131944444444,0,0,0.009874131944444444,48.541232638888886,0)" xlink:href="#aF"/></g><path fill="#fff" d="M872-915c-35-112-84-223-220-223-91 0-156 41-204 116-89 137-87 550 2 688 51 79 116 122 209 122 150 0 197-126 240-244l273 52C1094-168 961 20 656 20 239 20 80-262 80-681c0-418 154-689 568-689 289 0 425 167 496 389" id="aG"/><path fill="#fff" d="M934-1102c199 0 220 177 220 381V0H926c-2-260 10-533-4-785-4-72-14-138-83-138-34 0-61 27-81 81s-29 134-29 241V0H501c-2-260 9-533-5-785-4-72-13-138-82-138-46 0-65 47-80 93-21 67-30 155-30 248V0H75c-3-360 6-732-6-1082h209c6 50 3 123 8 175 36-100 83-195 216-195 135 0 166 79 196 196 42-105 93-196 236-196" id="aH"/><path fill="#fff" d="M427-171c3 195 2 397 2 596H148V-846c1-83-4-168-8-236h272c10 49 14 118 15 176h4c59-114 151-197 316-197 291 0 385 259 385 560 0 243-65 433-220 521-50 28-109 42-176 42-162-2-253-78-309-191zm69-661c-91 113-92 463-1 586 46 62 145 101 225 54 96-57 118-191 119-351 0-123-18-215-53-276-46-82-128-115-220-74-25 12-48 33-70 61" id="aI"/><path fill="#fff" d="M471 20c-247 0-336-169-336-415v-687h281v607c4 148 31 285 172 285 152 0 207-150 207-312v-580h281c4 359-9 736 8 1082H816c-7-63-11-146-12-215h-5C736-76 644 20 471 20" id="aJ"/><path fill="#fff" d="M711 13c-250 0-386-99-385-349l2-556H161v-190h181l88-282h176v282h385v190H606v530c-10 130 45 186 174 184 91-2 176-11 255-27v186C933-1 833 13 711 13" id="aK"/><path fill="#fff" d="M775-193C708-75 621 20 439 20 226 20 106-93 106-306c0-251 170-341 417-346l223-4c4-143-12-264-148-264-103 0-141 58-150 153l-293-14c37-219 194-321 455-321 263 0 418 130 417 390v392c1 84 5 161 89 160 21 0 42-2 62-6v152c-57 15-108 27-180 26-145 0-202-73-217-205h-6zm-256 17c168 0 234-139 227-325-166 4-347-25-347 173 0 94 33 152 120 152" id="aL"/><path fill="#fff" d="M1109-360C1066-122 902 20 624 20c-347 0-514-209-514-555 0-353 168-567 518-567 270 0 425 136 473 361l-283 14c-16-106-75-183-196-182-75 0-130 31-165 93s-52 152-52 270c0 249 74 374 221 374 120 0 188-82 201-201" id="aM"/><path fill="#fff" d="M768-1103c247 0 336 167 336 416V0H824v-619c-3-164-24-273-171-273-164 0-229 142-229 312V0H143c-4-359 9-736-8-1082h268c7 63 12 146 13 215h4c67-145 160-236 348-236" id="aN"/><path fill="#fff" d="M794-190h353V0H118v-190h395v-1104H223v-190h571v1294" id="aO"/><g id="K"><use transform="matrix(0.009874131944444444,0,0,0.009874131944444444,0,0)" xlink:href="#aG"/><use transform="matrix(0.009874131944444444,0,0,0.009874131944444444,12.135308159722221,0)" xlink:href="#aF"/><use transform="matrix(0.009874131944444444,0,0,0.009874131944444444,24.270616319444443,0)" xlink:href="#aH"/><use transform="matrix(0.009874131944444444,0,0,0.009874131944444444,36.405924479166664,0)" xlink:href="#aI"/><use transform="matrix(0.009874131944444444,0,0,0.009874131944444444,48.541232638888886,0)" xlink:href="#aJ"/><use transform="matrix(0.009874131944444444,0,0,0.009874131944444444,60.67654079861111,0)" xlink:href="#aK"/><use transform="matrix(0.009874131944444444,0,0,0.009874131944444444,72.81184895833333,0)" xlink:href="#aL"/><use transform="matrix(0.009874131944444444,0,0,0.009874131944444444,84.94715711805553,0)" xlink:href="#aM"/><use transform="matrix(0.009874131944444444,0,0,0.009874131944444444,97.08246527777777,0)" xlink:href="#aC"/><use transform="matrix(0.009874131944444444,0,0,0.009874131944444444,109.2177734375,0)" xlink:href="#aF"/><use transform="matrix(0.009874131944444444,0,0,0.009874131944444444,121.35308159722223,0)" xlink:href="#aN"/><use transform="matrix(0.009874131944444444,0,0,0.009874131944444444,133.48838975694446,0)" xlink:href="#aL"/><use transform="matrix(0.009874131944444444,0,0,0.009874131944444444,145.62369791666669,0)" xlink:href="#aO"/></g><path fill="#fff" d="M875-1102c70 0 148 7 206 17v237c-110-17-267-37-359 15-123 69-192 207-192 395V0H250c-10-367 32-789-52-1082h271c19 69 36 149 46 228h4c52-151 151-250 356-248" id="aP"/><path fill="#fff" d="M1113-274C1038-96 884 20 626 20c-352 0-526-209-526-566 0-358 185-556 530-556 358 0 496 251 499 615H395c5 180 68 319 245 319 102 0 186-45 208-129zM857-663c-6-177-128-307-315-247-94 30-141 121-145 247h460" id="aQ"/><g id="L"><use transform="matrix(0.009874131944444444,0,0,0.009874131944444444,0,0)" xlink:href="#aG"/><use transform="matrix(0.009874131944444444,0,0,0.009874131944444444,12.135308159722221,0)" xlink:href="#aF"/><use transform="matrix(0.009874131944444444,0,0,0.009874131944444444,24.270616319444443,0)" xlink:href="#aN"/><use transform="matrix(0.009874131944444444,0,0,0.009874131944444444,36.405924479166664,0)" xlink:href="#aK"/><use transform="matrix(0.009874131944444444,0,0,0.009874131944444444,48.541232638888886,0)" xlink:href="#aP"/><use transform="matrix(0.009874131944444444,0,0,0.009874131944444444,60.67654079861111,0)" xlink:href="#aF"/><use transform="matrix(0.009874131944444444,0,0,0.009874131944444444,72.81184895833333,0)" xlink:href="#aO"/><use transform="matrix(0.009874131944444444,0,0,0.009874131944444444,84.94715711805553,0)" xlink:href="#aQ"/></g><path d="M205 0l-28-72H64L36 0H1l101-248h38L239 0h-34zm-38-99l-47-123c-12 45-31 82-46 123h93" id="aR"/><path d="M24 0v-261h32V0H24" id="aS"/><path d="M59-47c-2 24 18 29 38 22v24C64 9 27 4 27-40v-127H5v-23h24l9-43h21v43h35v23H59v120" id="aT"/><path d="M24-231v-30h32v30H24zM24 0v-190h32V0H24" id="aU"/><path d="M84 4C-5 8 30-112 23-190h32v120c0 31 7 50 39 49 72-2 45-101 50-169h31l1 190h-30c-1-10 1-25-2-33-11 22-28 36-60 37" id="aV"/><path d="M85-194c31 0 48 13 60 33l-1-100h32l1 261h-30c-2-10 0-23-3-31C134-8 116 4 85 4 32 4 16-35 15-94c0-66 23-100 70-100zm9 24c-40 0-46 34-46 75 0 40 6 74 45 74 42 0 51-32 51-76 0-42-9-74-50-73" id="aW"/><path d="M100-194c63 0 86 42 84 106H49c0 40 14 67 53 68 26 1 43-12 49-29l28 8c-11 28-37 45-77 45C44 4 14-33 15-96c1-61 26-98 85-98zm52 81c6-60-76-77-97-28-3 7-6 17-6 28h103" id="aX"/><g id="M"><use transform="matrix(0.05,0,0,0.05,0,0)" xlink:href="#aR"/><use transform="matrix(0.05,0,0,0.05,12,0)" xlink:href="#aS"/><use transform="matrix(0.05,0,0,0.05,15.949999999999998,0)" xlink:href="#aT"/><use transform="matrix(0.05,0,0,0.05,20.95,0)" xlink:href="#aU"/><use transform="matrix(0.05,0,0,0.05,24.9,0)" xlink:href="#aT"/><use transform="matrix(0.05,0,0,0.05,29.899999999999995,0)" xlink:href="#aV"/><use transform="matrix(0.05,0,0,0.05,39.9,0)" xlink:href="#aW"/><use transform="matrix(0.05,0,0,0.05,49.9,0)" xlink:href="#aX"/></g><path d="M67-125c0 54 23 88 75 88 28 0 53-7 68-21v-34h-60v-39h108v91C232-14 192 4 140 4 58 4 20-42 15-125 8-236 126-280 215-234c19 10 29 26 37 47l-47 15c-11-23-29-39-63-39-53 1-75 33-75 86" id="aY"/><g id="N"><use transform="matrix(0.043827160493827164,0,0,0.043827160493827164,0,0)" xlink:href="#aY"/><use transform="matrix(0.043827160493827164,0,0,0.043827160493827164,12.271604938271606,0)" xlink:href="#ab"/><use transform="matrix(0.043827160493827164,0,0,0.043827160493827164,21.869753086419756,0)" xlink:href="#al"/><use transform="matrix(0.043827160493827164,0,0,0.043827160493827164,26.25246913580247,0)" xlink:href="#ah"/></g><use transform="matrix(0.043827160493827164,0,0,0.043827160493827164,0,0)" xlink:href="#Z" id="O"/><path d="M147 0H94L2-248h55l64 206c17-72 42-137 63-206h54" id="aZ"/><path d="M199 0l-22-63H83L61 0H9l90-248h61L250 0h-51zm-33-102l-36-108c-10 38-24 72-36 108h72" id="ba"/><path d="M136-208V0H84v-208H4v-40h212v40h-80" id="bb"/><g id="P"><use transform="matrix(0.043827160493827164,0,0,0.043827160493827164,0,0)" xlink:href="#aZ"/><use transform="matrix(0.043827160493827164,0,0,0.043827160493827164,9.335185185185185,0)" xlink:href="#ba"/><use transform="matrix(0.043827160493827164,0,0,0.043827160493827164,20.68641975308642,0)" xlink:href="#at"/><use transform="matrix(0.043827160493827164,0,0,0.043827160493827164,32.037654320987656,0)" xlink:href="#bb"/></g><g id="Q"><use transform="matrix(0.043827160493827164,0,0,0.043827160493827164,0,0)" xlink:href="#an"/><use transform="matrix(0.043827160493827164,0,0,0.043827160493827164,9.598148148148148,0)" xlink:href="#ah"/></g><g id="R"><use transform="matrix(0.043827160493827164,0,0,0.043827160493827164,0,0)" xlink:href="#aa"/><use transform="matrix(0.043827160493827164,0,0,0.043827160493827164,9.598148148148148,0)" xlink:href="#al"/><use transform="matrix(0.043827160493827164,0,0,0.043827160493827164,13.980864197530863,0)" xlink:href="#aq"/><use transform="matrix(0.043827160493827164,0,0,0.043827160493827164,20.116666666666667,0)" xlink:href="#ae"/><use transform="matrix(0.043827160493827164,0,0,0.043827160493827164,28.882098765432097,0)" xlink:href="#ar"/><use transform="matrix(0.043827160493827164,0,0,0.043827160493827164,37.64753086419753,0)" xlink:href="#as"/><use transform="matrix(0.043827160493827164,0,0,0.043827160493827164,46.41296296296296,0)" xlink:href="#Z"/></g><g id="S"><use transform="matrix(0.043827160493827164,0,0,0.043827160493827164,0,0)" xlink:href="#ae"/><use transform="matrix(0.043827160493827164,0,0,0.043827160493827164,8.765432098765432,0)" xlink:href="#ak"/><use transform="matrix(0.043827160493827164,0,0,0.043827160493827164,17.530864197530864,0)" xlink:href="#af"/><use transform="matrix(0.043827160493827164,0,0,0.043827160493827164,22.746296296296297,0)" xlink:href="#al"/><use transform="matrix(0.043827160493827164,0,0,0.043827160493827164,27.129012345679016,0)" xlink:href="#aj"/><use transform="matrix(0.043827160493827164,0,0,0.043827160493827164,36.72716049382716,0)" xlink:href="#ab"/><use transform="matrix(0.043827160493827164,0,0,0.043827160493827164,46.325308641975305,0)" xlink:href="#ac"/><use transform="matrix(0.043827160493827164,0,0,0.043827160493827164,50.70802469135802,0)" xlink:href="#ah"/><use transform="matrix(0.043827160493827164,0,0,0.043827160493827164,59.47345679012345,0)" xlink:href="#aa"/><use transform="matrix(0.043827160493827164,0,0,0.043827160493827164,69.0716049382716,0)" xlink:href="#ah"/></g><path fill="#a3d977" d="M24-248c93 1 206-16 204 79-1 75-69 88-152 82V0H24v-248zm52 121c47 0 100 7 100-41 0-47-54-39-100-39v80" id="bc"/><path fill="#a3d977" d="M185-48c-13 30-37 53-82 52C43 2 14-33 14-96s30-98 90-98c62 0 83 45 84 108H66c0 31 8 55 39 56 18 0 30-7 34-22zm-45-69c5-46-57-63-70-21-2 6-4 13-4 21h74" id="bd"/><path fill="#a3d977" d="M137-138c1-29-70-34-71-4 15 46 118 7 119 86 1 83-164 76-172 9l43-7c4 19 20 25 44 25 33 8 57-30 24-41C81-84 22-81 20-136c-2-80 154-74 161-7" id="be"/><path fill="#a3d977" d="M110-194c64 0 96 36 96 99 0 64-35 99-97 99-61 0-95-36-95-99 0-62 34-99 96-99zm-1 164c35 0 45-28 45-65 0-40-10-65-43-65-34 0-45 26-45 65 0 36 10 65 43 65" id="bf"/><path fill="#a3d977" d="M133-34C117-15 103 5 69 4 32 3 11-16 11-54c-1-60 55-63 116-61 1-26-3-47-28-47-18 1-26 9-28 27l-52-2c7-38 36-58 82-57s74 22 75 68l1 82c-1 14 12 18 25 15v27c-30 8-71 5-69-32zm-48 3c29 0 43-24 42-57-32 0-66-3-65 30 0 17 8 27 23 27" id="bg"/><g id="T"><use transform="matrix(0.03765432098765432,0,0,0.03765432098765432,0,0)" xlink:href="#bc"/><use transform="matrix(0.03765432098765432,0,0,0.03765432098765432,9.037037037037036,0)" xlink:href="#bd"/><use transform="matrix(0.03765432098765432,0,0,0.03765432098765432,16.5679012345679,0)" xlink:href="#be"/><use transform="matrix(0.03765432098765432,0,0,0.03765432098765432,24.098765432098762,0)" xlink:href="#be"/><use transform="matrix(0.03765432098765432,0,0,0.03765432098765432,31.629629629629626,0)" xlink:href="#bf"/><use transform="matrix(0.03765432098765432,0,0,0.03765432098765432,39.87592592592592,0)" xlink:href="#bg"/></g><g id="U"><use transform="matrix(0.043827160493827164,0,0,0.043827160493827164,0,0)" xlink:href="#Y"/><use transform="matrix(0.043827160493827164,0,0,0.043827160493827164,13.104320987654322,0)" xlink:href="#Z"/><use transform="matrix(0.043827160493827164,0,0,0.043827160493827164,22.70246913580247,0)" xlink:href="#aa"/><use transform="matrix(0.043827160493827164,0,0,0.043827160493827164,32.300617283950615,0)" xlink:href="#ab"/><use transform="matrix(0.043827160493827164,0,0,0.043827160493827164,41.89876543209876,0)" xlink:href="#ac"/><use transform="matrix(0.043827160493827164,0,0,0.043827160493827164,46.28148148148148,0)" xlink:href="#Z"/></g><g id="V"><use transform="matrix(0.043827160493827164,0,0,0.043827160493827164,0,0)" xlink:href="#aa"/><use transform="matrix(0.043827160493827164,0,0,0.043827160493827164,9.598148148148148,0)" xlink:href="#ae"/></g><path d="M114-157C55-157 80-60 75 0H25v-261h50l-1 109c12-26 28-41 61-42 86-1 58 113 63 194h-50c-7-57 23-157-34-157" id="bh"/><g id="W"><use transform="matrix(0.043827160493827164,0,0,0.043827160493827164,0,0)" xlink:href="#aq"/><use transform="matrix(0.043827160493827164,0,0,0.043827160493827164,6.135802469135803,0)" xlink:href="#ae"/><use transform="matrix(0.043827160493827164,0,0,0.043827160493827164,14.901234567901232,0)" xlink:href="#ag"/><use transform="matrix(0.043827160493827164,0,0,0.043827160493827164,23.666666666666664,0)" xlink:href="#Z"/><use transform="matrix(0.043827160493827164,0,0,0.043827160493827164,33.26481481481481,0)" xlink:href="#an"/><use transform="matrix(0.043827160493827164,0,0,0.043827160493827164,42.86296296296296,0)" xlink:href="#bh"/><use transform="matrix(0.043827160493827164,0,0,0.043827160493827164,52.4611111111111,0)" xlink:href="#ae"/><use transform="matrix(0.043827160493827164,0,0,0.043827160493827164,61.22654320987654,0)" xlink:href="#ag"/><use transform="matrix(0.043827160493827164,0,0,0.043827160493827164,69.99197530864197,0)" xlink:href="#al"/><use transform="matrix(0.043827160493827164,0,0,0.043827160493827164,74.37469135802469,0)" xlink:href="#ai"/><use transform="matrix(0.043827160493827164,0,0,0.043827160493827164,88.39938271604939,0)" xlink:href="#ae"/><use transform="matrix(0.043827160493827164,0,0,0.043827160493827164,97.16481481481482,0)" xlink:href="#an"/><use transform="matrix(0.043827160493827164,0,0,0.043827160493827164,106.76296296296297,0)" xlink:href="#af"/><use transform="matrix(0.043827160493827164,0,0,0.043827160493827164,111.9783950617284,0)" xlink:href="#Z"/></g><g id="X"><use transform="matrix(0.043827160493827164,0,0,0.043827160493827164,0,0)" xlink:href="#ap"/><use transform="matrix(0.043827160493827164,0,0,0.043827160493827164,5.215432098765432,0)" xlink:href="#ah"/><use transform="matrix(0.043827160493827164,0,0,0.043827160493827164,13.980864197530863,0)" xlink:href="#ag"/><use transform="matrix(0.043827160493827164,0,0,0.043827160493827164,22.746296296296293,0)" xlink:href="#al"/><use transform="matrix(0.043827160493827164,0,0,0.043827160493827164,27.12901234567901,0)" xlink:href="#ah"/><use transform="matrix(0.043827160493827164,0,0,0.043827160493827164,35.89444444444444,0)" xlink:href="#ac"/></g></defs></g></svg>