<svg xmlns="http://www.w3.org/2000/svg" xmlns:xlink="http://www.w3.org/1999/xlink" xmlns:lucid="lucid" width="882.68" height="777.71"><g transform="translate(-120 -441.5999999999999)" lucid:page-tab-id="0_0"><path d="M140 463.6c0-1.1.9-2 2-2h356c1.1 0 2 .9 2 2v396c0 1.1-.9 2-2 2H142c-1.1 0-2-.9-2-2z" fill="#ede7f6"/><use xlink:href="#a" transform="matrix(1,0,0,1,156,477.5999999999999) translate(117.45079210069446 20.822482638888886)"/><path d="M214.17 771.75H384.7v42.1H214.17z" stroke="#000" stroke-width="2" fill="#fff"/><use xlink:href="#b" transform="matrix(1,0,0,1,219.17322834645668,776.7530045586407) translate(7.056790123456807 20.018055555555552)"/><path d="M140 523.16h180v56.37H140z" stroke="#000" stroke-opacity="0" stroke-width="2" fill="#fff" fill-opacity="0"/><use xlink:href="#c" transform="matrix(1,0,0,1,145,528.1578947368421) translate(12.575 14.4)"/><use xlink:href="#d" transform="matrix(1,0,0,1,145,528.1578947368421) translate(36 14.4)"/><use xlink:href="#c" transform="matrix(1,0,0,1,145,528.1578947368421) translate(12.575 36)"/><use xlink:href="#e" transform="matrix(1,0,0,1,145,528.1578947368421) translate(36 36)"/><path d="M680 658.4c0-1.1.9-2 2-2h98.1c1.1 0 2 .9 2 2v60.75c0 1.1-.9 2-2 2H682c-1.1 0-2-.9-2-2z" fill="#ffc374"/><use xlink:href="#f" transform="matrix(1,0,0,1,696,672.3902196435972) translate(-2.5119900173611 20.822482638888886)"/><path d="M484 960c19.88 0 36 26.86 36 60s-16.12 60-36 60H376c-19.88 0-36-26.86-36-60s16.12-60 36-60z" stroke="#000" stroke-width="2" fill="#fff"/><use xlink:href="#g" transform="matrix(1,0,0,1,345,965) translate(43.224999999999994 59.0875)"/><path d="M431 940.5h-2v-14.37h2zm0-35.97h-2V880.1h2zM430 955.76l-4.64-14.26h9.28z"/><path d="M430 959l-6-18.5h12zm-3.26-16.5l3.26 10.03 3.26-10.03zM434.64 879.1h-9.28l4.64-14.26z"/><path d="M436 880.1h-12l6-18.5zm-9.26-2h6.52L430 868.07z"/><use xlink:href="#h" transform="matrix(1,0,0,1,389.725,904.5333333333334) translate(0 14.4)"/><use xlink:href="#i" transform="matrix(1,0,0,1,389.725,904.5333333333334) translate(40.55 14.4)"/><path d="M576 970.08h104v37.43H576z" stroke="#000" stroke-opacity="0" stroke-width="10" fill="#fff" fill-opacity="0"/><use xlink:href="#j" transform="matrix(1,0,0,1,580.9897604666456,975.0787401574802) translate(-2.6259259259257135 18.48888888888887)"/><path d="M214.17 667.72h191.1v42.1h-191.1z" stroke="#000" stroke-width="2" fill="#fff"/><use xlink:href="#k" transform="matrix(1,0,0,1,219.17322834645668,672.7165354330708) translate(5.056481481481484 20.018055555555552)"/><path d="M452.46 689.77h-27.7v-2h27.7zm209.04 0h-27.7v-2h27.7zM423.77 693.4l-14.27-4.63 14.27-4.64z"/><path d="M424.77 694.78l-18.5-6 18.5-6.02zm-12.03-6l10.03 3.25v-6.52zM676.76 688.77l-14.26 4.63v-9.27z"/><path d="M680 688.77l-18.5 6v-12zm-16.5 3.26l10.03-3.26-10.03-3.26z"/><use xlink:href="#l" transform="matrix(1,0,0,1,452.45657917322836,677.9691669756105) translate(0 14.4)"/><use xlink:href="#m" transform="matrix(1,0,0,1,452.45657917322836,677.9691669756105) translate(47.95 14.4)"/><use xlink:href="#n" transform="matrix(1,0,0,1,452.45657917322836,677.9691669756105) translate(90.5 14.4)"/><path d="M736 842.7c0-1.12.9-2 2-2h242.68c1.1 0 2 .88 2 2v354.6c0 1.12-.9 2-2 2h-242.7c-1.1 0-2-.88-2-2z" fill="#fce4ec"/><use xlink:href="#o" transform="matrix(1,0,0,1,751.9897604666456,856.6861642294717) translate(64.85226779513889 20.822482638888886)"/><path d="M736 906.2h183.7v57.3H736z" stroke="#000" stroke-opacity="0" stroke-width="2" fill="#fff" fill-opacity="0"/><use xlink:href="#c" transform="matrix(1,0,0,1,740.9897604666457,911.1979752530939) translate(12.575 14.4)"/><use xlink:href="#p" transform="matrix(1,0,0,1,740.9897604666457,911.1979752530939) translate(36 14.4)"/><use xlink:href="#q" transform="matrix(1,0,0,1,740.9897604666457,911.1979752530939) translate(97.9 14.4)"/><use xlink:href="#r" transform="matrix(1,0,0,1,740.9897604666457,911.1979752530939) translate(142.9 14.4)"/><use xlink:href="#s" transform="matrix(1,0,0,1,740.9897604666457,911.1979752530939) translate(36 36)"/><path d="M751.88 991.87h214.9v42.1H751.9z" stroke="#000" stroke-width="2" fill="#fff"/><g><use xlink:href="#t" transform="matrix(1,0,0,1,756.880426441986,996.8672665916763) translate(-1.424999999999983 20.099999999999998)"/></g><path d="M751.88 1092.65h214.9v42.1H751.9z" stroke="#000" stroke-width="2" fill="#fff"/><g><use xlink:href="#u" transform="matrix(1,0,0,1,756.880426441986,1097.6546681664797) translate(1.15000000000002 20.587499999999995)"/></g><path d="M583.22 1021H539.5v-2h43.72zm134.27 0h-43.73v-2h43.72zM538.5 1024.64l-14.26-4.64 14.26-4.64z"/><path d="M539.5 1026l-18.5-6 18.5-6zm-12.03-6l10.03 3.26v-6.52zM732.75 1020l-14.26 4.64v-9.28z"/><path d="M736 1020l-18.5 6v-12zm-16.5 3.26l10.02-3.26-10.03-3.26z"/><g><use xlink:href="#h" transform="matrix(1,0,0,1,583.2201899543602,1009.2) translate(0 14.4)"/><use xlink:href="#v" transform="matrix(1,0,0,1,583.2201899543602,1009.2) translate(40.55 14.4)"/></g><defs><path d="M952-300H426L326 0H7l542-1456h278L1372 0h-319zM507-543h364l-183-545" id="w"/><path d="M719-811c-143-24-279 1-319 103V0H111v-1082h273l8 129c74-124 180-175 331-136" id="x"/><path d="M488 20C204 20 66-234 66-549c0-305 140-551 424-553 105 0 192 39 261 118v-552h290V0H780l-14-115C694-25 601 20 488 20zM355-528c0 176 51 314 207 314 89 0 152-38 189-113v-427c-36-75-98-113-187-113-139 0-209 113-209 339" id="y"/><path d="M463 20c-241-1-359-147-359-393v-709h289v699c0 113 51 169 154 169 98 0 165-34 202-102v-766h290V0H767l-8-110C688-23 589 20 463 20" id="z"/><path d="M663-1102c295 0 422 250 422 571 0 300-141 549-420 551-109 0-198-38-265-114v510H111v-1498h268l10 106c70-84 161-126 274-126zm133 550c0-175-53-315-209-315-91 0-153 35-187 104v443c35 71 98 107 189 107 138 0 207-113 207-339" id="A"/><path d="M416 0H126v-1082h290V0zM271-1212c-92 0-162-61-162-150s68-149 162-149c93 0 162 60 162 149s-70 150-162 150" id="B"/><path d="M416 0H126v-1536h290V0" id="C"/><path d="M579 20C257 20 58-214 66-551c8-331 182-551 511-551 324 0 514 231 514 572 0 319-198 550-512 550zm-2-888c-169 0-222 141-222 338 0 181 61 317 224 317 170 0 223-137 223-338 0-178-64-317-225-317" id="D"/><path d="M457-330c2 83 25 111 111 112 32 0 60-2 85-7V-6c-57 17-115 26-175 26-203 0-310-102-310-307v-583H10v-212h158v-266h289v266h185v212H457v540" id="E"/><g id="a"><use transform="matrix(0.010959201388888886,0,0,0.010959201388888886,0,0)" xlink:href="#w"/><use transform="matrix(0.010959201388888886,0,0,0.010959201388888886,15.101779513888886,0)" xlink:href="#x"/><use transform="matrix(0.010959201388888886,0,0,0.010959201388888886,23.080078124999996,0)" xlink:href="#y"/><use transform="matrix(0.010959201388888886,0,0,0.010959201388888886,35.72699652777777,0)" xlink:href="#z"/><use transform="matrix(0.010959201388888886,0,0,0.010959201388888886,48.286241319444436,0)" xlink:href="#A"/><use transform="matrix(0.010959201388888886,0,0,0.010959201388888886,60.92220052083332,0)" xlink:href="#B"/><use transform="matrix(0.010959201388888886,0,0,0.010959201388888886,66.87304687499999,0)" xlink:href="#C"/><use transform="matrix(0.010959201388888886,0,0,0.010959201388888886,72.82389322916666,0)" xlink:href="#D"/><use transform="matrix(0.010959201388888886,0,0,0.010959201388888886,85.51464843749999,0)" xlink:href="#E"/></g><path d="M135-143c-3-34-86-38-87 0 15 53 115 12 119 90S17 21 10-45l28-5c4 36 97 45 98 0-10-56-113-15-118-90-4-57 82-63 122-42 12 7 21 19 24 35" id="F"/><path d="M24-231v-30h32v30H24zM24 0v-190h32V0H24" id="G"/><path d="M210-169c-67 3-38 105-44 169h-31v-121c0-29-5-50-35-48C34-165 62-65 56 0H25l-1-190h30c1 10-1 24 2 32 10-44 99-50 107 0 11-21 27-35 58-36 85-2 47 119 55 194h-31v-121c0-29-5-49-35-48" id="H"/><path d="M-5 72V49h209v23H-5" id="I"/><path d="M108 0H70L1-190h34L89-25l56-165h34" id="J"/><path d="M100-194c63 0 86 42 84 106H49c0 40 14 67 53 68 26 1 43-12 49-29l28 8c-11 28-37 45-77 45C44 4 14-33 15-96c1-61 26-98 85-98zm52 81c6-60-76-77-97-28-3 7-6 17-6 28h103" id="K"/><path d="M106-169C34-169 62-67 57 0H25v-261h32l-1 103c12-21 28-36 61-36 89 0 53 116 60 194h-32v-121c2-32-8-49-39-48" id="L"/><path d="M96-169c-40 0-48 33-48 73s9 75 48 75c24 0 41-14 43-38l32 2c-6 37-31 61-74 61-59 0-76-41-82-99-10-93 101-131 147-64 4 7 5 14 7 22l-32 3c-4-21-16-35-41-35" id="M"/><path d="M24 0v-261h32V0H24" id="N"/><path d="M33 0v-38h34V0H33" id="O"/><path d="M115-194c55 1 70 41 70 98S169 2 115 4C84 4 66-9 55-30l1 105H24l-1-265h31l2 30c10-21 28-34 59-34zm-8 174c40 0 45-34 45-75s-6-73-45-74c-42 0-51 32-51 76 0 43 10 73 51 73" id="P"/><path d="M179-190L93 31C79 59 56 82 12 73V49c39 6 53-20 64-50L1-190h34L92-34l54-156h33" id="Q"/><g id="b"><use transform="matrix(0.06234567901234567,0,0,0.06234567901234567,0,0)" xlink:href="#F"/><use transform="matrix(0.06234567901234567,0,0,0.06234567901234567,11.22222222222222,0)" xlink:href="#G"/><use transform="matrix(0.06234567901234567,0,0,0.06234567901234567,16.147530864197527,0)" xlink:href="#H"/><use transform="matrix(0.06234567901234567,0,0,0.06234567901234567,34.78888888888888,0)" xlink:href="#I"/><use transform="matrix(0.06234567901234567,0,0,0.06234567901234567,47.25802469135801,0)" xlink:href="#J"/><use transform="matrix(0.06234567901234567,0,0,0.06234567901234567,58.48024691358023,0)" xlink:href="#K"/><use transform="matrix(0.06234567901234567,0,0,0.06234567901234567,70.94938271604937,0)" xlink:href="#L"/><use transform="matrix(0.06234567901234567,0,0,0.06234567901234567,83.41851851851851,0)" xlink:href="#G"/><use transform="matrix(0.06234567901234567,0,0,0.06234567901234567,88.34382716049382,0)" xlink:href="#M"/><use transform="matrix(0.06234567901234567,0,0,0.06234567901234567,99.56604938271603,0)" xlink:href="#N"/><use transform="matrix(0.06234567901234567,0,0,0.06234567901234567,104.49135802469134,0)" xlink:href="#K"/><use transform="matrix(0.06234567901234567,0,0,0.06234567901234567,116.96049382716046,0)" xlink:href="#O"/><use transform="matrix(0.06234567901234567,0,0,0.06234567901234567,123.19506172839503,0)" xlink:href="#P"/><use transform="matrix(0.06234567901234567,0,0,0.06234567901234567,135.66419753086416,0)" xlink:href="#Q"/></g><path d="M22-195h174v174H22v-174" id="R"/><use transform="matrix(0.05,0,0,0.05,0,0)" xlink:href="#R" id="c"/><path d="M185-189c-5-48-123-54-124 2 14 75 158 14 163 119 3 78-121 87-175 55-17-10-28-26-33-46l33-7c5 56 141 63 141-1 0-78-155-14-162-118-5-82 145-84 179-34 5 7 8 16 11 25" id="S"/><path d="M33 0v-248h34V0H33" id="T"/><path d="M127-220V0H93v-220H8v-28h204v28h-85" id="U"/><path d="M30 0v-248h33v221h125V0H30" id="V"/><g id="d"><use transform="matrix(0.05,0,0,0.05,0,0)" xlink:href="#S"/><use transform="matrix(0.05,0,0,0.05,12,0)" xlink:href="#T"/><use transform="matrix(0.05,0,0,0.05,17,0)" xlink:href="#U"/><use transform="matrix(0.05,0,0,0.05,27.950000000000003,0)" xlink:href="#V"/></g><path d="M0 4l72-265h28L28 4H0" id="W"/><path d="M205 0l-28-72H64L36 0H1l101-248h38L239 0h-34zm-38-99l-47-123c-12 45-31 82-46 123h93" id="X"/><path d="M114-163C36-179 61-72 57 0H25l-1-190h30c1 12-1 29 2 39 6-27 23-49 58-41v29" id="Y"/><path d="M85-194c31 0 48 13 60 33l-1-100h32l1 261h-30c-2-10 0-23-3-31C134-8 116 4 85 4 32 4 16-35 15-94c0-66 23-100 70-100zm9 24c-40 0-46 34-46 75 0 40 6 74 45 74 42 0 51-32 51-76 0-42-9-74-50-73" id="Z"/><path d="M84 4C-5 8 30-112 23-190h32v120c0 31 7 50 39 49 72-2 45-101 50-169h31l1 190h-30c-1-10 1-25-2-33-11 22-28 36-60 37" id="aa"/><path d="M212-179c-10-28-35-45-73-45-59 0-87 40-87 99 0 60 29 101 89 101 43 0 62-24 78-52l27 14C228-24 195 4 139 4 59 4 22-46 18-125c-6-104 99-153 187-111 19 9 31 26 39 46" id="ab"/><path d="M100-194c62-1 85 37 85 99 1 63-27 99-86 99S16-35 15-95c0-66 28-99 85-99zM99-20c44 1 53-31 53-75 0-43-8-75-51-75s-53 32-53 75 10 74 51 75" id="ac"/><path d="M59-47c-2 24 18 29 38 22v24C64 9 27 4 27-40v-127H5v-23h24l9-43h21v43h35v23H59v120" id="ad"/><g id="e"><use transform="matrix(0.05,0,0,0.05,0,0)" xlink:href="#W"/><use transform="matrix(0.05,0,0,0.05,5,0)" xlink:href="#X"/><use transform="matrix(0.05,0,0,0.05,17,0)" xlink:href="#Y"/><use transform="matrix(0.05,0,0,0.05,22.95,0)" xlink:href="#Z"/><use transform="matrix(0.05,0,0,0.05,32.95,0)" xlink:href="#aa"/><use transform="matrix(0.05,0,0,0.05,42.95,0)" xlink:href="#ab"/><use transform="matrix(0.05,0,0,0.05,55.900000000000006,0)" xlink:href="#ac"/><use transform="matrix(0.05,0,0,0.05,65.9,0)" xlink:href="#P"/><use transform="matrix(0.05,0,0,0.05,75.9,0)" xlink:href="#ad"/><use transform="matrix(0.05,0,0,0.05,80.9,0)" xlink:href="#K"/><use transform="matrix(0.05,0,0,0.05,90.9,0)" xlink:href="#Y"/></g><path d="M399-777c-11 316 60 556 342 556 113 0 193-24 241-72v-251H709v-221h573v581C1177-55 960 24 725 20 280 12 81-292 94-770c11-421 200-700 610-706 347-5 543 171 578 483H990c-25-157-105-241-277-241-102 0-180 38-233 115s-76 191-81 342" id="ae"/><path d="M552-1102c254-4 435 134 435 383v469c1 103 15 180 43 233V0H738c-13-26-23-58-29-97C639-19 548 20 436 20 238 20 64-113 68-304c5-258 212-357 496-357h133c11-137-29-227-160-227-90 0-156 45-156 131H92c15-231 213-342 460-345zM357-325c0 76 61 124 142 124 88 0 168-45 198-105v-186H589c-152 2-232 51-232 167" id="af"/><path d="M443-233h529V0H74v-176l509-672H89v-234h867v171" id="ag"/><path d="M1031-175C952-60 797 20 609 20 287 20 60-206 72-543c12-330 180-559 505-559 309 0 482 214 477 537v118H365c15 134 115 234 263 234 111 0 198-40 261-121zM770-644c5-139-62-226-194-224-130 1-191 97-208 224h402" id="ah"/><path d="M663-1102c295 0 423 246 423 571 0 313-131 551-421 551-117 0-211-45-281-135L371 0H111v-1536h289v551c67-78 154-117 263-117zm-71 889c164 0 209-139 205-339-3-189-44-315-207-315-92 0-155 38-190 113v427c35 76 99 114 192 114" id="ai"/><g id="f"><use transform="matrix(0.010959201388888886,0,0,0.010959201388888886,0,0)" xlink:href="#ae"/><use transform="matrix(0.010959201388888886,0,0,0.010959201388888886,15.288085937499996,0)" xlink:href="#af"/><use transform="matrix(0.010959201388888886,0,0,0.010959201388888886,27.321289062499993,0)" xlink:href="#ag"/><use transform="matrix(0.010959201388888886,0,0,0.010959201388888886,38.56542968749999,0)" xlink:href="#ah"/><use transform="matrix(0.010959201388888886,0,0,0.010959201388888886,50.697265624999986,0)" xlink:href="#ai"/><use transform="matrix(0.010959201388888886,0,0,0.010959201388888886,63.33322482638887,0)" xlink:href="#D"/></g><path d="M240 0l2-218c-23 76-54 145-80 218h-23L58-218 59 0H30v-248h44l77 211c21-75 51-140 76-211h43V0h-30" id="aj"/><path d="M137 0h-34L2-248h35l83 218 83-218h36" id="ak"/><path d="M30-248c87 1 191-15 191 75 0 78-77 80-158 76V0H30v-248zm33 125c57 0 124 11 124-50 0-59-68-47-124-48v98" id="al"/><path d="M141 0L90-78 38 0H4l68-98-65-92h35l48 74 47-74h35l-64 92 68 98h-35" id="am"/><g id="g"><use transform="matrix(0.05,0,0,0.05,0,0)" xlink:href="#aj"/><use transform="matrix(0.05,0,0,0.05,14.950000000000001,0)" xlink:href="#X"/><use transform="matrix(0.05,0,0,0.05,25.6,0)" xlink:href="#ak"/><use transform="matrix(0.05,0,0,0.05,37.6,0)" xlink:href="#al"/><use transform="matrix(0.05,0,0,0.05,49.6,0)" xlink:href="#Y"/><use transform="matrix(0.05,0,0,0.05,55.550000000000004,0)" xlink:href="#ac"/><use transform="matrix(0.05,0,0,0.05,65.55000000000001,0)" xlink:href="#am"/><use transform="matrix(0.05,0,0,0.05,74.55000000000001,0)" xlink:href="#Q"/></g><g id="h"><use transform="matrix(0.05,0,0,0.05,0,0)" xlink:href="#U"/><use transform="matrix(0.05,0,0,0.05,10.950000000000001,0)" xlink:href="#ab"/><use transform="matrix(0.05,0,0,0.05,23.900000000000002,0)" xlink:href="#al"/></g><path d="M54-142c48-35 137-8 131 61C196 18 31 33 14-55l32-4c7 23 22 37 52 37 35-1 51-22 54-58 4-55-73-65-99-34H22l8-134h141v27H59" id="an"/><path d="M64 0c3-98 48-159 88-221H18v-27h164v26C143-157 98-101 97 0H64" id="ao"/><path d="M110-160c48 1 74 30 74 79 0 53-28 85-80 85-65 0-83-55-86-122-5-90 50-162 133-122 14 7 22 21 27 39l-31 6c-5-40-67-38-82-6-9 19-15 44-15 74 11-20 30-34 60-33zm-7 138c34 0 49-23 49-58s-16-56-50-56c-29 0-50 16-49 49 1 36 15 65 50 65" id="ap"/><path d="M126-127c33 6 58 20 58 59 0 88-139 92-164 29-3-8-5-16-6-25l32-3c6 27 21 44 54 44 32 0 52-15 52-46 0-38-36-46-79-43v-28c39 1 72-4 72-42 0-27-17-43-46-43-28 0-47 15-49 41l-32-3c6-42 35-63 81-64 48-1 79 21 79 65 0 36-21 52-52 59" id="aq"/><g id="i"><use transform="matrix(0.05,0,0,0.05,0,0)" xlink:href="#an"/><use transform="matrix(0.05,0,0,0.05,10,0)" xlink:href="#ao"/><use transform="matrix(0.05,0,0,0.05,20,0)" xlink:href="#ap"/><use transform="matrix(0.05,0,0,0.05,30,0)" xlink:href="#aq"/></g><path fill="#ef8d22" d="M212 0l43-212L151 0h-37L90-212C82-137 65-70 52 0H6l48-248h70l20 187 93-187h69L258 0h-46" id="ar"/><path fill="#ef8d22" d="M183 0l-10-63H79L44 0H-7l138-248h61L234 0h-51zm-14-102l-15-108c-16 38-36 73-55 108h70" id="as"/><path fill="#ef8d22" d="M130 0H70L30-248h54l24 206c31-72 69-137 103-206h54" id="at"/><path d="M6 0l48-248h52L66-40h133l-8 40H6" id="au"/><path d="M6 0l48-248h52L58 0H6" id="av"/><path d="M155 0L90-199 52 0H6l48-248h62l66 201 38-201h46L218 0h-63" id="aw"/><path d="M175 0l-63-112-37 21L58 0H6l48-248h52L83-135l134-113h65L150-139 232 0h-57" id="ax"/><g id="j"><use transform="matrix(0.06234567901234541,0,0,0.06234567901234541,0,0)" xlink:href="#ar"/><use transform="matrix(0.06234567901234541,0,0,0.06234567901234541,18.64135802469128,0)" xlink:href="#as"/><use transform="matrix(0.06234567901234541,0,0,0.06234567901234541,33.10555555555541,0)" xlink:href="#at"/><use transform="matrix(0.06234567901234541,0,0,0.06234567901234541,48.06851851851831,0)" xlink:href="#au"/><use transform="matrix(0.06234567901234541,0,0,0.06234567901234541,61.72222222222196,0)" xlink:href="#av"/><use transform="matrix(0.06234567901234541,0,0,0.06234567901234541,67.9567901234565,0)" xlink:href="#aw"/><use transform="matrix(0.06234567901234541,0,0,0.06234567901234541,84.10432098765396,0)" xlink:href="#ax"/></g><path d="M141-36C126-15 110 5 73 4 37 3 15-17 15-53c-1-64 63-63 125-63 3-35-9-54-41-54-24 1-41 7-42 31l-33-3c5-37 33-52 76-52 45 0 72 20 72 64v82c-1 20 7 32 28 27v20c-31 9-61-2-59-35zM48-53c0 20 12 33 32 33 41-3 63-29 60-74-43 2-92-5-92 41" id="ay"/><path d="M177-190C167-65 218 103 67 71c-23-6-38-20-44-43l32-5c15 47 100 32 89-28v-30C133-14 115 1 83 1 29 1 15-40 15-95c0-56 16-97 71-98 29-1 48 16 59 35 1-10 0-23 2-32h30zM94-22c36 0 50-32 50-73 0-42-14-75-50-75-39 0-46 34-46 75s6 73 46 73" id="az"/><path d="M9 0v-24l116-142H16v-24h144v24L44-24h123V0H9" id="aA"/><path d="M115-194c53 0 69 39 70 98 0 66-23 100-70 100C84 3 66-7 56-30L54 0H23l1-261h32v101c10-23 28-34 59-34zm-8 174c40 0 45-34 45-75 0-40-5-75-45-74-42 0-51 32-51 76 0 43 10 73 51 73" id="aB"/><g id="k"><use transform="matrix(0.06234567901234567,0,0,0.06234567901234567,0,0)" xlink:href="#ay"/><use transform="matrix(0.06234567901234567,0,0,0.06234567901234567,12.469135802469133,0)" xlink:href="#Y"/><use transform="matrix(0.06234567901234567,0,0,0.06234567901234567,19.888271604938268,0)" xlink:href="#Z"/><use transform="matrix(0.06234567901234567,0,0,0.06234567901234567,32.3574074074074,0)" xlink:href="#aa"/><use transform="matrix(0.06234567901234567,0,0,0.06234567901234567,44.82654320987653,0)" xlink:href="#P"/><use transform="matrix(0.06234567901234567,0,0,0.06234567901234567,57.295679012345666,0)" xlink:href="#G"/><use transform="matrix(0.06234567901234567,0,0,0.06234567901234567,62.22098765432097,0)" xlink:href="#N"/><use transform="matrix(0.06234567901234567,0,0,0.06234567901234567,67.14629629629628,0)" xlink:href="#ac"/><use transform="matrix(0.06234567901234567,0,0,0.06234567901234567,79.61543209876541,0)" xlink:href="#ad"/><use transform="matrix(0.06234567901234567,0,0,0.06234567901234567,85.84999999999998,0)" xlink:href="#I"/><use transform="matrix(0.06234567901234567,0,0,0.06234567901234567,98.3191358024691,0)" xlink:href="#az"/><use transform="matrix(0.06234567901234567,0,0,0.06234567901234567,110.78827160493825,0)" xlink:href="#ay"/><use transform="matrix(0.06234567901234567,0,0,0.06234567901234567,123.25740740740738,0)" xlink:href="#aA"/><use transform="matrix(0.06234567901234567,0,0,0.06234567901234567,134.4796296296296,0)" xlink:href="#K"/><use transform="matrix(0.06234567901234567,0,0,0.06234567901234567,146.94876543209875,0)" xlink:href="#aB"/><use transform="matrix(0.06234567901234567,0,0,0.06234567901234567,159.4179012345679,0)" xlink:href="#ac"/></g><g id="l"><use transform="matrix(0.05,0,0,0.05,0,0)" xlink:href="#al"/><use transform="matrix(0.05,0,0,0.05,12,0)" xlink:href="#ac"/><use transform="matrix(0.05,0,0,0.05,22,0)" xlink:href="#Y"/><use transform="matrix(0.05,0,0,0.05,27.950000000000003,0)" xlink:href="#ad"/><use transform="matrix(0.05,0,0,0.05,32.95,0)" xlink:href="#ay"/></g><path d="M232-93c-1 65-40 97-104 97C67 4 28-28 28-90v-158h33c8 89-33 224 67 224 102 0 64-133 71-224h33v155" id="aC"/><path d="M30-248c118-7 216 8 213 122C240-48 200 0 122 0H30v-248zM63-27c89 8 146-16 146-99s-60-101-146-95v194" id="aD"/><g id="m"><use transform="matrix(0.05,0,0,0.05,0,0)" xlink:href="#aC"/><use transform="matrix(0.05,0,0,0.05,12.950000000000001,0)" xlink:href="#aD"/><use transform="matrix(0.05,0,0,0.05,25.900000000000002,0)" xlink:href="#al"/></g><path d="M233-177c-1 41-23 64-60 70L243 0h-38l-65-103H63V0H30v-248c88 3 205-21 203 71zM63-129c60-2 137 13 137-47 0-61-80-42-137-45v92" id="aE"/><path d="M117-194c89-4 53 116 60 194h-32v-121c0-31-8-49-39-48C34-167 62-67 57 0H25l-1-190h30c1 10-1 24 2 32 11-22 29-35 61-36" id="aF"/><path d="M100-194c62-1 85 37 85 99 1 63-27 99-86 99S16-35 15-95c0-66 28-99 85-99zM99-20c44 1 53-31 53-75 0-43-8-75-51-75s-53 32-53 75 10 74 51 75zm20-242c12 18 30 30 39 51-31 2-38-20-57-30-20 10-27 32-59 30 9-22 29-33 41-51h36" id="aG"/><g id="n"><use transform="matrix(0.05,0,0,0.05,0,0)" xlink:href="#aE"/><use transform="matrix(0.05,0,0,0.05,12.950000000000001,0)" xlink:href="#ay"/><use transform="matrix(0.05,0,0,0.05,22.950000000000003,0)" xlink:href="#aF"/><use transform="matrix(0.05,0,0,0.05,32.95,0)" xlink:href="#Z"/><use transform="matrix(0.05,0,0,0.05,42.95,0)" xlink:href="#aG"/><use transform="matrix(0.05,0,0,0.05,52.95,0)" xlink:href="#H"/><use transform="matrix(0.05,0,0,0.05,67.9,0)" xlink:href="#G"/><use transform="matrix(0.05,0,0,0.05,71.85000000000001,0)" xlink:href="#M"/><use transform="matrix(0.05,0,0,0.05,80.85000000000001,0)" xlink:href="#ay"/></g><path d="M130 0v-1456h448c435 14 673 299 665 762-5 285-130 500-319 606C822-31 708 0 581 0H130zm809-685c9-311-79-526-361-528H430v972h145c252-2 356-181 364-444" id="aH"/><path d="M750-692c-1-124-48-174-173-175-81 0-142 35-183 104V0H105v-1082h272l9 125c77-97 181-145 311-145 244 0 342 151 342 403V0H750v-692" id="aI"/><path d="M504-434L400-330V0H111v-1536h289v851c106-137 222-264 333-397h347L689-631 1114 0H782" id="aJ"/><g id="o"><use transform="matrix(0.010959201388888886,0,0,0.010959201388888886,0,0)" xlink:href="#aH"/><use transform="matrix(0.010959201388888886,0,0,0.010959201388888886,14.586697048611107,0)" xlink:href="#x"/><use transform="matrix(0.010959201388888886,0,0,0.010959201388888886,22.378689236111107,0)" xlink:href="#D"/><use transform="matrix(0.010959201388888886,0,0,0.010959201388888886,35.069444444444436,0)" xlink:href="#aI"/><use transform="matrix(0.010959201388888886,0,0,0.010959201388888886,47.639648437499986,0)" xlink:href="#ah"/><use transform="matrix(0.010959201388888886,0,0,0.010959201388888886,59.771484374999986,0)" xlink:href="#aJ"/><use transform="matrix(0.010959201388888886,0,0,0.010959201388888886,71.76085069444443,0)" xlink:href="#B"/><use transform="matrix(0.010959201388888886,0,0,0.010959201388888886,77.7116970486111,0)" xlink:href="#E"/></g><path d="M100-194c62-1 85 37 85 99 1 63-27 99-86 99S16-35 15-95c0-66 28-99 85-99zM99-20c44 1 53-31 53-75 0-43-8-75-51-75s-53 32-53 75 10 74 51 75zM76-211c8-23 27-35 38-54h36v5l-58 49H76" id="aK"/><g id="p"><use transform="matrix(0.05,0,0,0.05,0,0)" xlink:href="#ab"/><use transform="matrix(0.05,0,0,0.05,12.950000000000001,0)" xlink:href="#aK"/><use transform="matrix(0.05,0,0,0.05,22.950000000000003,0)" xlink:href="#Z"/><use transform="matrix(0.05,0,0,0.05,32.95,0)" xlink:href="#G"/><use transform="matrix(0.05,0,0,0.05,36.900000000000006,0)" xlink:href="#az"/><use transform="matrix(0.05,0,0,0.05,46.900000000000006,0)" xlink:href="#ac"/></g><path d="M101-234c-31-9-42 10-38 44h38v23H63V0H32v-167H5v-23h27c-7-52 17-82 69-68v24" id="aL"/><g id="q"><use transform="matrix(0.05,0,0,0.05,0,0)" xlink:href="#aL"/><use transform="matrix(0.05,0,0,0.05,5,0)" xlink:href="#ac"/><use transform="matrix(0.05,0,0,0.05,15,0)" xlink:href="#aF"/><use transform="matrix(0.05,0,0,0.05,25,0)" xlink:href="#ad"/><use transform="matrix(0.05,0,0,0.05,30,0)" xlink:href="#K"/></g><g id="r"><use transform="matrix(0.05,0,0,0.05,0,0)" xlink:href="#Z"/><use transform="matrix(0.05,0,0,0.05,10,0)" xlink:href="#ac"/></g><g id="s"><use transform="matrix(0.05,0,0,0.05,0,0)" xlink:href="#P"/><use transform="matrix(0.05,0,0,0.05,10,0)" xlink:href="#Y"/><use transform="matrix(0.05,0,0,0.05,15.949999999999998,0)" xlink:href="#ac"/><use transform="matrix(0.05,0,0,0.05,25.950000000000003,0)" xlink:href="#ad"/><use transform="matrix(0.05,0,0,0.05,30.950000000000003,0)" xlink:href="#aK"/><use transform="matrix(0.05,0,0,0.05,40.95,0)" xlink:href="#ad"/><use transform="matrix(0.05,0,0,0.05,45.95,0)" xlink:href="#G"/><use transform="matrix(0.05,0,0,0.05,49.900000000000006,0)" xlink:href="#P"/><use transform="matrix(0.05,0,0,0.05,59.900000000000006,0)" xlink:href="#ac"/></g><g id="t"><use transform="matrix(0.04999999999999998,0,0,0.04999999999999998,0,0)" xlink:href="#Y"/><use transform="matrix(0.04999999999999998,0,0,0.04999999999999998,5.9499999999999975,0)" xlink:href="#K"/><use transform="matrix(0.04999999999999998,0,0,0.04999999999999998,15.949999999999994,0)" xlink:href="#M"/><use transform="matrix(0.04999999999999998,0,0,0.04999999999999998,24.94999999999999,0)" xlink:href="#ac"/><use transform="matrix(0.04999999999999998,0,0,0.04999999999999998,34.94999999999999,0)" xlink:href="#az"/><use transform="matrix(0.04999999999999998,0,0,0.04999999999999998,44.94999999999999,0)" xlink:href="#aF"/><use transform="matrix(0.04999999999999998,0,0,0.04999999999999998,54.94999999999999,0)" xlink:href="#G"/><use transform="matrix(0.04999999999999998,0,0,0.04999999999999998,58.89999999999998,0)" xlink:href="#aA"/><use transform="matrix(0.04999999999999998,0,0,0.04999999999999998,67.89999999999998,0)" xlink:href="#K"/><use transform="matrix(0.04999999999999998,0,0,0.04999999999999998,77.89999999999998,0)" xlink:href="#I"/><use transform="matrix(0.04999999999999998,0,0,0.04999999999999998,87.89999999999998,0)" xlink:href="#aL"/><use transform="matrix(0.04999999999999998,0,0,0.04999999999999998,92.89999999999998,0)" xlink:href="#ay"/><use transform="matrix(0.04999999999999998,0,0,0.04999999999999998,102.89999999999999,0)" xlink:href="#M"/><use transform="matrix(0.04999999999999998,0,0,0.04999999999999998,111.89999999999998,0)" xlink:href="#K"/><use transform="matrix(0.04999999999999998,0,0,0.04999999999999998,121.89999999999998,0)" xlink:href="#F"/><use transform="matrix(0.04999999999999998,0,0,0.04999999999999998,130.89999999999998,0)" xlink:href="#I"/><use transform="matrix(0.04999999999999998,0,0,0.04999999999999998,140.89999999999998,0)" xlink:href="#J"/><use transform="matrix(0.04999999999999998,0,0,0.04999999999999998,149.89999999999998,0)" xlink:href="#G"/><use transform="matrix(0.04999999999999998,0,0,0.04999999999999998,153.84999999999997,0)" xlink:href="#Z"/><use transform="matrix(0.04999999999999998,0,0,0.04999999999999998,163.84999999999997,0)" xlink:href="#K"/><use transform="matrix(0.04999999999999998,0,0,0.04999999999999998,173.84999999999997,0)" xlink:href="#ac"/><use transform="matrix(0.04999999999999998,0,0,0.04999999999999998,183.84999999999997,0)" xlink:href="#O"/><use transform="matrix(0.04999999999999998,0,0,0.04999999999999998,188.84999999999997,0)" xlink:href="#P"/><use transform="matrix(0.04999999999999998,0,0,0.04999999999999998,198.84999999999997,0)" xlink:href="#Q"/></g><g id="u"><use transform="matrix(0.04999999999999998,0,0,0.04999999999999998,0,0)" xlink:href="#aL"/><use transform="matrix(0.04999999999999998,0,0,0.04999999999999998,4.999999999999998,0)" xlink:href="#aa"/><use transform="matrix(0.04999999999999998,0,0,0.04999999999999998,14.999999999999995,0)" xlink:href="#aF"/><use transform="matrix(0.04999999999999998,0,0,0.04999999999999998,24.999999999999993,0)" xlink:href="#M"/><use transform="matrix(0.04999999999999998,0,0,0.04999999999999998,33.999999999999986,0)" xlink:href="#ad"/><use transform="matrix(0.04999999999999998,0,0,0.04999999999999998,38.999999999999986,0)" xlink:href="#G"/><use transform="matrix(0.04999999999999998,0,0,0.04999999999999998,42.94999999999998,0)" xlink:href="#ac"/><use transform="matrix(0.04999999999999998,0,0,0.04999999999999998,52.94999999999997,0)" xlink:href="#aF"/><use transform="matrix(0.04999999999999998,0,0,0.04999999999999998,62.949999999999974,0)" xlink:href="#F"/><use transform="matrix(0.04999999999999998,0,0,0.04999999999999998,71.94999999999997,0)" xlink:href="#ab"/><use transform="matrix(0.04999999999999998,0,0,0.04999999999999998,84.89999999999998,0)" xlink:href="#ac"/><use transform="matrix(0.04999999999999998,0,0,0.04999999999999998,94.89999999999998,0)" xlink:href="#aF"/><use transform="matrix(0.04999999999999998,0,0,0.04999999999999998,104.89999999999999,0)" xlink:href="#ad"/><use transform="matrix(0.04999999999999998,0,0,0.04999999999999998,109.89999999999998,0)" xlink:href="#Y"/><use transform="matrix(0.04999999999999998,0,0,0.04999999999999998,115.84999999999998,0)" xlink:href="#ac"/><use transform="matrix(0.04999999999999998,0,0,0.04999999999999998,125.84999999999998,0)" xlink:href="#N"/><use transform="matrix(0.04999999999999998,0,0,0.04999999999999998,129.79999999999998,0)" xlink:href="#aD"/><use transform="matrix(0.04999999999999998,0,0,0.04999999999999998,142.74999999999997,0)" xlink:href="#Y"/><use transform="matrix(0.04999999999999998,0,0,0.04999999999999998,148.69999999999996,0)" xlink:href="#ac"/><use transform="matrix(0.04999999999999998,0,0,0.04999999999999998,158.69999999999996,0)" xlink:href="#aF"/><use transform="matrix(0.04999999999999998,0,0,0.04999999999999998,168.69999999999996,0)" xlink:href="#K"/><use transform="matrix(0.04999999999999998,0,0,0.04999999999999998,178.69999999999996,0)" xlink:href="#O"/><use transform="matrix(0.04999999999999998,0,0,0.04999999999999998,183.69999999999996,0)" xlink:href="#P"/><use transform="matrix(0.04999999999999998,0,0,0.04999999999999998,193.69999999999996,0)" xlink:href="#Q"/></g><path d="M27 0v-27h64v-190l-56 39v-29l58-41h29v221h61V0H27" id="aM"/><path d="M155-56V0h-30v-56H8v-25l114-167h33v167h35v25h-35zm-30-156c-27 46-58 90-88 131h88v-131" id="aN"/><path d="M101-251c68 0 85 55 85 127S166 4 100 4C33 4 14-52 14-124c0-73 17-127 87-127zm-1 229c47 0 54-49 54-102s-4-102-53-102c-51 0-55 48-55 102 0 53 5 102 54 102" id="aO"/><g id="v"><use transform="matrix(0.05,0,0,0.05,0,0)" xlink:href="#aM"/><use transform="matrix(0.05,0,0,0.05,10,0)" xlink:href="#aN"/><use transform="matrix(0.05,0,0,0.05,20,0)" xlink:href="#an"/><use transform="matrix(0.05,0,0,0.05,30,0)" xlink:href="#an"/><use transform="matrix(0.05,0,0,0.05,40,0)" xlink:href="#aO"/></g></defs></g></svg>