<?xml version="1.0" encoding="iso-8859-1"?>
<!-- Generator: Adobe Illustrator 19.0.0, SVG Export Plug-In . SVG Version: 6.00 Build 0)  -->
<svg version="1.1" id="Capa_1" xmlns="http://www.w3.org/2000/svg" xmlns:xlink="http://www.w3.org/1999/xlink" x="0px" y="0px"
	 viewBox="0 0 469.333 469.333" style="enable-background:new 0 0 469.333 469.333;" xml:space="preserve">
<g>
	<path style="fill:#303C42;" d="M384,170.667c-47.052,0-85.333-38.281-85.333-85.333S336.948,0,384,0s85.333,38.281,85.333,85.333
		S431.052,170.667,384,170.667z M384,21.333c-35.292,0-64,28.708-64,64s28.708,64,64,64s64-28.708,64-64S419.292,21.333,384,21.333z
		"/>
	<path style="fill:#303C42;" d="M85.333,170.667C38.281,170.667,0,132.385,0,85.333S38.281,0,85.333,0s85.333,38.281,85.333,85.333
		S132.385,170.667,85.333,170.667z M85.333,21.333c-35.292,0-64,28.708-64,64s28.708,64,64,64s64-28.708,64-64
		S120.625,21.333,85.333,21.333z"/>
	<path style="fill:#303C42;" d="M384,469.333c-47.052,0-85.333-38.281-85.333-85.333s38.281-85.333,85.333-85.333
		s85.333,38.281,85.333,85.333S431.052,469.333,384,469.333z M384,320c-35.292,0-64,28.708-64,64s28.708,64,64,64s64-28.708,64-64
		S419.292,320,384,320z"/>
	<path style="fill:#303C42;" d="M85.333,469.333C38.281,469.333,0,431.052,0,384s38.281-85.333,85.333-85.333
		s85.333,38.281,85.333,85.333S132.385,469.333,85.333,469.333z M85.333,320c-35.292,0-64,28.708-64,64s28.708,64,64,64
		s64-28.708,64-64S120.625,320,85.333,320z"/>
	<path style="fill:#303C42;" d="M365.146,401.51c1.927,2.292,4.729,3.677,7.719,3.802c0.156,0.01,0.313,0.01,0.469,0.01
		c2.823,0,5.542-1.115,7.542-3.115l21.333-21.333c2.115-2.115,3.24-5.021,3.104-8.01c-0.125-2.99-1.51-5.792-3.802-7.719
		c-0.604-0.5-60.177-51.406-60.177-130.479s59.573-129.979,60.177-130.479c2.292-1.927,3.677-4.729,3.802-7.719
		c0.135-2.99-0.99-5.896-3.104-8.01l-21.333-21.333c-2.115-2.115-4.917-3.302-8.01-3.104c-2.99,0.125-5.792,1.51-7.719,3.802
		C364.646,68.427,313.74,128,234.667,128S104.688,68.427,104.188,67.823c-1.927-2.292-4.729-3.677-7.719-3.802
		c-2.938-0.198-5.896,0.99-8.01,3.104L67.125,88.458c-2.115,2.115-3.24,5.021-3.104,8.01c0.125,2.99,1.51,5.792,3.802,7.719
		c0.604,0.5,60.177,51.406,60.177,130.479S68.427,364.646,67.823,365.146c-2.292,1.927-3.677,4.729-3.802,7.719
		c-0.135,2.99,0.99,5.896,3.104,8.01l21.333,21.333c2.115,2.104,5.073,3.219,8.01,3.104c2.99-0.125,5.792-1.51,7.719-3.802
		c0.5-0.604,51.406-60.177,130.479-60.177S364.646,400.906,365.146,401.51z"/>
</g>
<path style="fill:#F2F2F2;" d="M95.771,379.344l-5.781-5.781c18.26-18.479,59.344-67.938,59.344-138.896S108.25,114.25,89.99,95.771
	l5.781-5.781c18.479,18.26,67.938,59.344,138.896,59.344S355.083,108.25,373.563,89.99l5.781,5.781
	C361.083,114.25,320,163.708,320,234.667s41.083,120.417,59.344,138.896l-5.781,5.781C355.083,361.083,305.625,320,234.667,320
	S114.25,361.083,95.771,379.344z"/>
<circle style="fill:#303C42;" cx="234.667" cy="234.667" r="64"/>
<circle style="fill:#E6E6E6;" cx="234.667" cy="234.667" r="42.667"/>
<path style="opacity:0.5;fill:#FFFFFF;enable-background:new    ;" d="M198.375,241.042c0-23.531,19.135-42.667,42.667-42.667
	c10.15,0,19.355,3.708,26.688,9.646c-7.828-9.665-19.639-15.979-33.021-15.979c-23.531,0-42.667,19.135-42.667,42.667
	c0,13.382,6.314,25.193,15.979,33.021C202.083,260.397,198.375,251.191,198.375,241.042z"/>
<linearGradient id="SVGID_1_" gradientUnits="userSpaceOnUse" x1="-56.0141" y1="613.1258" x2="-49.3876" y2="606.5073" gradientTransform="matrix(21.3333 0 0 -21.3333 1430.1112 13315.2227)">
	<stop  offset="0" style="stop-color:#000000;stop-opacity:0.1"/>
	<stop  offset="1" style="stop-color:#000000;stop-opacity:0"/>
</linearGradient>
<path style="fill:url(#SVGID_1_);" d="M379.344,373.563C361.083,355.083,320,305.625,320,234.667c0-1.634,0.289-3.103,0.332-4.715
	l-38.469-38.469l-0.146,0.141c10.451,11.395,16.991,26.44,16.991,43.085c0,35.292-28.708,64-64,64
	c-17.393,0-33.146-7.021-44.693-18.319l-0.04,0.039l39.909,39.909c1.634-0.044,3.124-0.337,4.783-0.337
	c70.958,0,120.417,41.083,138.896,59.344L379.344,373.563z"/>
<linearGradient id="SVGID_2_" gradientUnits="userSpaceOnUse" x1="-68.0925" y1="618.7722" x2="-43.9804" y2="607.53" gradientTransform="matrix(21.3333 0 0 -21.3333 1430.1112 13315.2227)">
	<stop  offset="0" style="stop-color:#FFFFFF;stop-opacity:0.2"/>
	<stop  offset="1" style="stop-color:#FFFFFF;stop-opacity:0"/>
</linearGradient>
<path style="fill:url(#SVGID_2_);" d="M384,298.667c-9.535,0-18.551,1.931-27.12,4.829c-8.862-19.288-15.547-42.443-15.547-68.829
	s6.685-49.542,15.547-68.829c8.569,2.898,17.585,4.829,27.12,4.829c47.052,0,85.333-38.281,85.333-85.333S431.052,0,384,0
	s-85.333,38.281-85.333,85.333c0,9.535,1.931,18.551,4.829,27.12C284.208,121.315,261.053,128,234.667,128
	s-49.542-6.685-68.829-15.547c2.898-8.569,4.829-17.585,4.829-27.12C170.667,38.281,132.385,0,85.333,0S0,38.281,0,85.333
	s38.281,85.333,85.333,85.333c9.535,0,18.551-1.931,27.12-4.829C121.315,185.125,128,208.28,128,234.667
	s-6.685,49.542-15.547,68.829c-8.569-2.898-17.585-4.829-27.12-4.829C38.281,298.667,0,336.948,0,384s38.281,85.333,85.333,85.333
	s85.333-38.281,85.333-85.333c0-9.535-1.931-18.551-4.829-27.12c19.288-8.862,42.443-15.547,68.829-15.547
	s49.542,6.685,68.829,15.547c-2.898,8.569-4.829,17.585-4.829,27.12c0,47.052,38.281,85.333,85.333,85.333
	s85.333-38.281,85.333-85.333S431.052,298.667,384,298.667z M85.333,149.333c-35.292,0-64-28.708-64-64s28.708-64,64-64
	s64,28.708,64,64c0,5.935-1.073,11.572-2.591,17.029c-26.826-16.224-42.281-34.208-42.555-34.539
	c-1.927-2.292-4.729-3.677-7.719-3.802c-2.938-0.198-5.896,0.99-8.01,3.104L67.125,88.458c-2.115,2.115-3.24,5.021-3.104,8.01
	c0.125,2.99,1.51,5.792,3.802,7.719c0.331,0.273,18.315,15.728,34.539,42.553C96.905,148.259,91.268,149.333,85.333,149.333z
	 M149.333,384c0,35.292-28.708,64-64,64s-64-28.708-64-64s28.708-64,64-64c5.935,0,11.572,1.073,17.029,2.591
	c-16.225,26.826-34.208,42.281-34.539,42.555c-2.292,1.927-3.677,4.729-3.802,7.719c-0.135,2.99,0.99,5.896,3.104,8.01
	l21.333,21.333c2.115,2.104,5.073,3.219,8.01,3.104c2.99-0.125,5.792-1.51,7.719-3.802c0.273-0.331,15.729-18.314,42.555-34.539
	C148.26,372.428,149.333,378.065,149.333,384z M320,85.333c0-35.292,28.708-64,64-64s64,28.708,64,64s-28.708,64-64,64
	c-5.935,0-11.572-1.074-17.029-2.592c16.224-26.826,34.208-42.28,34.539-42.553c2.292-1.927,3.677-4.729,3.802-7.719
	c0.135-2.99-0.99-5.896-3.104-8.01l-21.333-21.333c-2.115-2.115-4.917-3.302-8.01-3.104c-2.99,0.125-5.792,1.51-7.719,3.802
	c-0.273,0.331-15.728,18.315-42.553,34.539C321.074,96.905,320,91.268,320,85.333z M384,448c-35.292,0-64-28.708-64-64
	c0-5.935,1.074-11.572,2.592-17.029c26.826,16.224,42.28,34.208,42.553,34.539c1.927,2.292,4.729,3.677,7.719,3.802
	c0.156,0.01,0.313,0.01,0.469,0.01c2.823,0,5.542-1.115,7.542-3.115l21.333-21.333c2.115-2.115,3.24-5.021,3.104-8.01
	c-0.125-2.99-1.51-5.792-3.802-7.719c-0.331-0.273-18.315-15.729-34.539-42.555C372.428,321.073,378.065,320,384,320
	c35.292,0,64,28.708,64,64S419.292,448,384,448z"/>
<g>
</g>
<g>
</g>
<g>
</g>
<g>
</g>
<g>
</g>
<g>
</g>
<g>
</g>
<g>
</g>
<g>
</g>
<g>
</g>
<g>
</g>
<g>
</g>
<g>
</g>
<g>
</g>
<g>
</g>
</svg>
