<?xml version="1.0" encoding="UTF-8"?>
<!DOCTYPE svg PUBLIC "-//W3C//DTD SVG 1.1//EN" "http://www.w3.org/Graphics/SVG/1.1/DTD/svg11.dtd">
<svg width="325mm" height="183mm" viewBox="0 0 32500 18300" version="1.1" xmlns="http://www.w3.org/2000/svg" stroke-width="28.222" stroke-linejoin="round" xml:space="preserve">
 <path fill="rgb(255,255,255)" stroke="none" d="M 16249,18279 L 0,18279 0,0 32497,0 32497,18279 16249,18279 Z"/>
 <path fill="none" stroke="rgb(179,179,179)" stroke-linejoin="round" d="M 18906,17267 L 7594,17267 7594,365 30218,365 30218,17267 18906,17267 Z"/>
 <path fill="none" stroke="rgb(179,179,179)" stroke-linejoin="round" d="M 7594,364 L 7594,17266"/>
 <path fill="none" stroke="rgb(179,179,179)" stroke-linejoin="round" d="M 10107,364 L 10107,17266"/>
 <path fill="none" stroke="rgb(179,179,179)" stroke-linejoin="round" d="M 12621,364 L 12621,17266"/>
 <path fill="none" stroke="rgb(179,179,179)" stroke-linejoin="round" d="M 15135,364 L 15135,17266"/>
 <path fill="none" stroke="rgb(179,179,179)" stroke-linejoin="round" d="M 17648,364 L 17648,17266"/>
 <path fill="none" stroke="rgb(179,179,179)" stroke-linejoin="round" d="M 20162,364 L 20162,17266"/>
 <path fill="none" stroke="rgb(179,179,179)" stroke-linejoin="round" d="M 22676,364 L 22676,17266"/>
 <path fill="none" stroke="rgb(179,179,179)" stroke-linejoin="round" d="M 25190,364 L 25190,17266"/>
 <path fill="none" stroke="rgb(179,179,179)" stroke-linejoin="round" d="M 27704,364 L 27704,17266"/>
 <path fill="none" stroke="rgb(179,179,179)" stroke-linejoin="round" d="M 30218,364 L 30218,17266"/>
 <path fill="none" stroke="rgb(179,179,179)" stroke-linejoin="round" d="M 7444,17266 L 7594,17266"/>
 <path fill="none" stroke="rgb(179,179,179)" stroke-linejoin="round" d="M 7444,17266 L 7594,17266"/>
 <path fill="none" stroke="rgb(179,179,179)" stroke-linejoin="round" d="M 7444,11631 L 7594,11631"/>
 <path fill="none" stroke="rgb(179,179,179)" stroke-linejoin="round" d="M 7444,11631 L 7594,11631"/>
 <path fill="none" stroke="rgb(179,179,179)" stroke-linejoin="round" d="M 7444,5998 L 7594,5998"/>
 <path fill="none" stroke="rgb(179,179,179)" stroke-linejoin="round" d="M 7444,5998 L 7594,5998"/>
 <path fill="none" stroke="rgb(179,179,179)" stroke-linejoin="round" d="M 7444,364 L 7594,364"/>
 <path fill="none" stroke="rgb(179,179,179)" stroke-linejoin="round" d="M 7444,364 L 7594,364"/>
 <path fill="none" stroke="rgb(179,179,179)" stroke-linejoin="round" d="M 7594,17266 L 7594,364"/>
 <path fill="none" stroke="rgb(179,179,179)" stroke-linejoin="round" d="M 7594,17416 L 7594,17266"/>
 <path fill="none" stroke="rgb(179,179,179)" stroke-linejoin="round" d="M 7594,17416 L 7594,17266"/>
 <path fill="none" stroke="rgb(179,179,179)" stroke-linejoin="round" d="M 10107,17416 L 10107,17266"/>
 <path fill="none" stroke="rgb(179,179,179)" stroke-linejoin="round" d="M 10107,17416 L 10107,17266"/>
 <path fill="none" stroke="rgb(179,179,179)" stroke-linejoin="round" d="M 12621,17416 L 12621,17266"/>
 <path fill="none" stroke="rgb(179,179,179)" stroke-linejoin="round" d="M 12621,17416 L 12621,17266"/>
 <path fill="none" stroke="rgb(179,179,179)" stroke-linejoin="round" d="M 15135,17416 L 15135,17266"/>
 <path fill="none" stroke="rgb(179,179,179)" stroke-linejoin="round" d="M 15135,17416 L 15135,17266"/>
 <path fill="none" stroke="rgb(179,179,179)" stroke-linejoin="round" d="M 17648,17416 L 17648,17266"/>
 <path fill="none" stroke="rgb(179,179,179)" stroke-linejoin="round" d="M 17648,17416 L 17648,17266"/>
 <path fill="none" stroke="rgb(179,179,179)" stroke-linejoin="round" d="M 20162,17416 L 20162,17266"/>
 <path fill="none" stroke="rgb(179,179,179)" stroke-linejoin="round" d="M 20162,17416 L 20162,17266"/>
 <path fill="none" stroke="rgb(179,179,179)" stroke-linejoin="round" d="M 22676,17416 L 22676,17266"/>
 <path fill="none" stroke="rgb(179,179,179)" stroke-linejoin="round" d="M 22676,17416 L 22676,17266"/>
 <path fill="none" stroke="rgb(179,179,179)" stroke-linejoin="round" d="M 25190,17416 L 25190,17266"/>
 <path fill="none" stroke="rgb(179,179,179)" stroke-linejoin="round" d="M 25190,17416 L 25190,17266"/>
 <path fill="none" stroke="rgb(179,179,179)" stroke-linejoin="round" d="M 27704,17416 L 27704,17266"/>
 <path fill="none" stroke="rgb(179,179,179)" stroke-linejoin="round" d="M 27704,17416 L 27704,17266"/>
 <path fill="none" stroke="rgb(179,179,179)" stroke-linejoin="round" d="M 30218,17416 L 30218,17266"/>
 <path fill="none" stroke="rgb(179,179,179)" stroke-linejoin="round" d="M 30218,17416 L 30218,17266"/>
 <path fill="none" stroke="rgb(179,179,179)" stroke-linejoin="round" d="M 7594,17266 L 30218,17266"/>
 <path fill="rgb(0,166,93)" stroke="none" d="M 7594,4589 L 7594,1772 7950,1772 7950,4589 7594,4589 Z"/>
 <path fill="rgb(0,166,93)" stroke="none" d="M 7594,10223 L 7594,7406 28377,7406 28377,10223 7594,10223 Z"/>
 <path fill="rgb(0,166,93)" stroke="none" d="M 7594,15857 L 7594,13040 28287,13040 28287,15857 7594,15857 Z"/>
 <text class="TextShape"><tspan class="TextParagraph" font-family="Liberation Sans, sans-serif" font-size="353px" font-weight="400"><tspan class="TextPosition" x="703" y="14569"><tspan fill="rgb(0,0,0)" stroke="none">Computador das simulações (Método CNN)</tspan></tspan></tspan></text>
 <text class="TextShape"><tspan class="TextParagraph" font-family="Liberation Sans, sans-serif" font-size="353px" font-weight="400"><tspan class="TextPosition" x="650" y="8935"><tspan fill="rgb(0,0,0)" stroke="none">Computador das simulações (Método HOG)</tspan></tspan></tspan></text>
 <text class="TextShape"><tspan class="TextParagraph" font-family="Liberation Sans, sans-serif" font-size="353px" font-weight="400"><tspan class="TextPosition" x="3031" y="3301"><tspan fill="rgb(0,0,0)" stroke="none">Raspberry Pi (Método HOG)</tspan></tspan></tspan></text>
 <text class="TextShape"><tspan class="TextParagraph" font-family="Liberation Sans, sans-serif" font-size="353px" font-weight="400"><tspan class="TextPosition" x="7501" y="17834"><tspan fill="rgb(0,0,0)" stroke="none">0</tspan></tspan></tspan></text>
 <text class="TextShape"><tspan class="TextParagraph" font-family="Liberation Sans, sans-serif" font-size="353px" font-weight="400"><tspan class="TextPosition" x="10014" y="17834"><tspan fill="rgb(0,0,0)" stroke="none">5</tspan></tspan></tspan></text>
 <text class="TextShape"><tspan class="TextParagraph" font-family="Liberation Sans, sans-serif" font-size="353px" font-weight="400"><tspan class="TextPosition" x="12436" y="17834"><tspan fill="rgb(0,0,0)" stroke="none">10</tspan></tspan></tspan></text>
 <text class="TextShape"><tspan class="TextParagraph" font-family="Liberation Sans, sans-serif" font-size="353px" font-weight="400"><tspan class="TextPosition" x="14950" y="17834"><tspan fill="rgb(0,0,0)" stroke="none">15</tspan></tspan></tspan></text>
 <text class="TextShape"><tspan class="TextParagraph" font-family="Liberation Sans, sans-serif" font-size="353px" font-weight="400"><tspan class="TextPosition" x="17464" y="17834"><tspan fill="rgb(0,0,0)" stroke="none">20</tspan></tspan></tspan></text>
 <text class="TextShape"><tspan class="TextParagraph" font-family="Liberation Sans, sans-serif" font-size="353px" font-weight="400"><tspan class="TextPosition" x="19978" y="17834"><tspan fill="rgb(0,0,0)" stroke="none">25</tspan></tspan></tspan></text>
 <text class="TextShape"><tspan class="TextParagraph" font-family="Liberation Sans, sans-serif" font-size="353px" font-weight="400"><tspan class="TextPosition" x="22492" y="17834"><tspan fill="rgb(0,0,0)" stroke="none">30</tspan></tspan></tspan></text>
 <text class="TextShape"><tspan class="TextParagraph" font-family="Liberation Sans, sans-serif" font-size="353px" font-weight="400"><tspan class="TextPosition" x="25006" y="17834"><tspan fill="rgb(0,0,0)" stroke="none">35</tspan></tspan></tspan></text>
 <text class="TextShape"><tspan class="TextParagraph" font-family="Liberation Sans, sans-serif" font-size="353px" font-weight="400"><tspan class="TextPosition" x="27520" y="17834"><tspan fill="rgb(0,0,0)" stroke="none">40</tspan></tspan></tspan></text>
 <text class="TextShape"><tspan class="TextParagraph" font-family="Liberation Sans, sans-serif" font-size="353px" font-weight="400"><tspan class="TextPosition" x="30034" y="17834"><tspan fill="rgb(0,0,0)" stroke="none">45</tspan></tspan></tspan></text>
 <path fill="rgb(0,166,93)" stroke="none" d="M 31276,9244 L 31170,9244 31170,9034 31381,9034 31381,9244 31276,9244 Z"/>
 <text class="TextShape"><tspan class="TextParagraph" font-family="Liberation Sans, sans-serif" font-size="353px" font-weight="400"><tspan class="TextPosition" x="31481" y="9258"><tspan fill="rgb(0,0,0)" stroke="none">FPS</tspan></tspan></tspan></text>
</svg>