<?xml version="1.0" encoding="UTF-8" standalone="no"?>
<svg
   xmlns:lucid="lucid"
   xmlns:dc="http://purl.org/dc/elements/1.1/"
   xmlns:cc="http://creativecommons.org/ns#"
   xmlns:rdf="http://www.w3.org/1999/02/22-rdf-syntax-ns#"
   xmlns:svg="http://www.w3.org/2000/svg"
   xmlns="http://www.w3.org/2000/svg"
   xmlns:xlink="http://www.w3.org/1999/xlink"
   xmlns:sodipodi="http://sodipodi.sourceforge.net/DTD/sodipodi-0.dtd"
   xmlns:inkscape="http://www.inkscape.org/namespaces/inkscape"
   inkscape:version="1.0 (6e3e5246a0, 2020-05-07)"
   sodipodi:docname="ia-ma-dl.svg"
   id="svg730"
   version="1.1"
   height="960"
   width="1280">
  <metadata
     id="metadata736">
    <rdf:RDF>
      <cc:Work
         rdf:about="">
        <dc:format>image/svg+xml</dc:format>
        <dc:type
           rdf:resource="http://purl.org/dc/dcmitype/StillImage" />
      </cc:Work>
    </rdf:RDF>
  </metadata>
  <defs
     id="defs734">
    <linearGradient
       id="linearGradient1567"
       inkscape:collect="always">
      <stop
         id="stop1563"
         offset="0"
         style="stop-color:#000000;stop-opacity:1;" />
      <stop
         id="stop1565"
         offset="1"
         style="stop-color:#000000;stop-opacity:0;" />
    </linearGradient>
    <radialGradient
       gradientUnits="userSpaceOnUse"
       gradientTransform="matrix(1,0,0,1.2468068,0,-141.3787)"
       r="162.48226"
       fy="607.45471"
       fx="962.17499"
       cy="607.45471"
       cx="962.17499"
       id="radialGradient1569"
       xlink:href="#linearGradient1567"
       inkscape:collect="always" />
  </defs>
  <sodipodi:namedview
     inkscape:current-layer="g728"
     inkscape:window-maximized="1"
     inkscape:window-y="0"
     inkscape:window-x="0"
     inkscape:cy="480"
     inkscape:cx="640"
     inkscape:zoom="0.909375"
     showgrid="false"
     id="namedview732"
     inkscape:window-height="1028"
     inkscape:window-width="1920"
     inkscape:pageshadow="2"
     inkscape:pageopacity="0"
     guidetolerance="10"
     gridtolerance="10"
     objecttolerance="10"
     borderopacity="1"
     bordercolor="#666666"
     pagecolor="#ffffff" />
  <g
     id="g728"
     lucid:page-tab-id="0_0"
     transform="translate(-540 120)">
    <g
       id="g6"
       filter="url(#a)"
       opacity=".16">
      <path
         id="path2"
         fill="#1c7b68"
         stroke-opacity="0"
         stroke="#fff"
         d="M1373.7 267.2c0-6.4-3.2-12-8.8-15.2l-87.2-48.8V90.4c-.8-5.6-3.2-11.2-8.8-14.4L1082.5-36.8c-5.6-3.2-12-3.2-17.6 0l-91.2 53.6-90.4-54.4c-4.8-3.2-11.2-3.2-16.8 0L678.5 76c-5.6 3.2-8.8 8.8-8.8 14.4v112.8L583.3 252c-5.6 3.2-8.8 8.8-8.8 15.2v185.6c0 6.4 3.2 12 8.8 15.2l86.4 48.8v112c0 6.4 3.2 12 8.8 15.2l187.2 113.6c2.4 1.6 5.6 2.4 8.8 2.4 3.2 0 6.4-.8 8.8-2.4l90.4-54.4 90.4 54.4c3.2 1.6 6.4 2.4 9.6 2.4 3.2 0 6.4-.8 8.8-2.4L1269.7 644c5.6-3.2 8.8-8 8.8-14.4v-112l87.2-48.8c5.6-3.2 8.8-8.8 8.8-15.2V267.2zM956.9 673.6l-82.4 48-169.6-102.4V506.4c0-6.4-3.2-12-8.8-15.2l-31.2-16.8h89.6v130.4c0 9.6 7.2 17.6 16.8 17.6h57.6c4.8 12 13.6 20.8 26.4 25.6 24 9.6 52-1.6 61.6-25.6 9.6-24-2.4-51.2-26.4-60.8-24.8-9.6-52 1.6-61.6 25.6h-40V456.8c0-9.6-7.2-17.6-17.6-17.6H609.7V276.8l87.2-48.8c5.6-3.2 8.8-8 8.8-14.4V172h26.4v89.6c-12.8 5.6-21.6 13.6-26.4 26.4-9.6 24 2.4 51.2 26.4 60.8 24 9.6 52-2.4 61.6-26.4 9.6-24-2.4-51.2-26.4-60.8V172h45.6c4.8 12 14.4 20.8 26.4 25.6 24 9.6 52-1.6 61.6-25.6 9.6-24-2.4-51.2-26.4-60.8-24-9.6-52 2.4-61.6 26.4h-108v-36.8L874.5-1.6l82.4 48v207.2h-98.4c-9.6 0-17.6 8-17.6 17.6v122.4c-12.8 4.8-21.6 13.6-26.4 25.6-9.6 24 2.4 51.2 26.4 60.8 24 9.6 52-2.4 61.6-26.4 9.6-24-2.4-51.2-26.4-60V288h80.8v72.8zm-96-69.6c-.8-6.4 4-12.8 10.4-13.6 6.4-.8 12.8 4 13.6 11.2v2.4c.8 6.4-4 12.8-10.4 13.6-7.2.8-12.8-4-13.6-10.4V604zm-100-299.2c0 7.2-4.8 12.8-12 12.8-6.4 0-12-5.6-12-12 0-7.2 4.8-12 12-12.8 6.4 0 12 5.6 12 12zm83.2-150.4c-.8-6.4 4-12.8 10.4-13.6 7.2-.8 12.8 4 13.6 11.2v2.4c.8 7.2-4 12.8-10.4 13.6-6.4.8-12.8-4-13.6-10.4v-3.2zm26.4 282.4c0 6.4-5.6 12-12 12-7.2 0-12-5.6-12-12 0-7.2 4.8-12.8 12-12.8 6.4 0 12 5.6 12 12.8zm381.6 54.4c-5.6 3.2-8.8 8.8-8.8 15.2v112.8l-149.6 90.4v-124h33.6c4.8 12.8 13.6 21.6 26.4 26.4 24 9.6 51.2-2.4 60.8-26.4 9.6-23.2-1.6-50.4-26.4-60-24-9.6-51.2 1.6-60.8 25.6h-51.2c-9.6 0-17.6 8-17.6 17.6v144l-67.2-39.2V212.8h53.6v40c-12 4.8-20.8 13.6-26.4 26.4-9.6 24 2.4 51.2 26.4 60.8 24.8 8.8 52-2.4 61.6-26.4 9.6-24-2.4-51.2-26.4-60.8v-40h55.2c9.6 0 17.6-7.2 17.6-16.8v-34.4c12.8-5.6 21.6-13.6 26.4-26.4 9.6-24-2.4-51.2-26.4-60.8-24-9.6-52 2.4-61.6 26.4-9.6 24 2.4 51.2 26.4 60.8v16.8H991.3v-132l82.4-48 169.6 102.4v112.8c0 6.4 3.2 12 8.8 15.2l87.2 48v58.4h-168c-9.6 0-17.6 8-17.6 17.6v86.4h-42.4c-7.2-18.4-24-29.6-44-29.6s-36.8 11.2-44 29.6c-9.6 24 2.4 51.2 26.4 60.8 24 9.6 52-2.4 61.6-26.4h59.2c10.4 0 17.6-8 17.6-17.6v-86.4h150.4v73.6zm-93.6 77.6c0-7.2 5.6-12 12-12 7.2 0 12.8 4.8 12.8 12 0 6.4-5.6 12-12.8 12-6.4 0-12-5.6-12-12zM1075.3 296c0 7.2-5.6 12-12.8 12-6.4 0-12-4.8-12-12 0-6.4 5.6-12 12-12 7.2 0 12.8 5.6 12.8 12zm48-178.4c0-6.4 5.6-12 12-12 7.2 0 12 5.6 12 12 0 7.2-4.8 12.8-12 12.8-6.4 0-12-5.6-12-12.8zm-44 339.2c0 6.4-5.6 12-12.8 12-6.4 0-12-5.6-12-12s5.6-12 12-12c7.2 0 12.8 5.6 12.8 12z" />
      <use
         id="use4"
         transform="matrix(1,0,0,1,544.5,769) translate(405.55 14.4)"
         xlink:href="#b" />
    </g>
    <path
       id="path8"
       fill="#b2d6ef"
       stroke-width="8"
       stroke="#000"
       d="M1380 360c0 254.05-183.56 460-410 460S560 614.05 560 360s183.56-460 410-460 410 205.95 410 460z" />
    <path
       id="path10"
       fill="#83bbe5"
       stroke-width="4"
       stroke="#000"
       d="M1230 490c0 171.2-116.4 310-260 310S710 661.2 710 490s116.4-310 260-310 260 138.8 260 310z" />
    <ellipse
       ry="201.53743"
       rx="161.4357"
       cy="572.83142"
       cx="966.35754"
       id="path1561"
       style="fill:url(#radialGradient1569);fill-opacity:1;stroke:#000000;stroke-width:2.09313" />
    <g
       id="g20"
       filter="url(#d)">
      <path
         id="path14"
         fill="#1c7b68"
         stroke-opacity="0"
         stroke="#fff"
         d="M925 0h90v90h-90V0z" />
      <path
         id="path16"
         fill="#fff"
         stroke-opacity="0"
         stroke="#fff"
         d="M977.5 75.3c-.24 0-.42-.05-.6-.17L970 71l-6.9 4.13c-.36.24-.78.24-1.2 0l-14.1-8.6c-.37-.25-.55-.6-.55-1.04v-8.62l-6.66-3.76c-.37-.18-.6-.6-.6-1.03V37.9c0-.42.23-.84.6-1.02l6.6-3.76v-8.6c0-.43.17-.86.6-1.04l14.1-8.6c.36-.25.78-.25 1.2 0l6.84 4.1 6.9-4.1c.36-.25.78-.25 1.2 0l14.17 8.6c.37.24.55.6.55 1.03v8.62l6.66 3.76c.37.18.6.6.6 1.03v14.2c0 .42-.23.84-.6 1.02l-6.6 3.76v8.6c0 .44-.23.86-.6 1.04l-14.1 8.6c-.18.13-.36.2-.6.2zm-6.3-6.35l6.3 3.76 12.9-7.88v-8.66c0-.43.25-.8.6-1.04l5.35-3.03-4.5-2.43c-1.44 1.2-3.6 1.03-4.86-.36-1.2-1.45-1.1-3.63.35-4.9 1.5-1.22 3.66-1.04 4.86.36.6.67.85 1.4.85 2.3v.5l4.62 2.53V38.57l-6.66-3.7c-.4-.25-.6-.6-.6-1.03v-3.28h-3.35c-.66 1.82-2.64 2.73-4.44 2.06-1.74-.66-2.7-2.66-2.04-4.42.72-1.8 2.7-2.72 4.45-2.05 1.03.36 1.7 1.1 2.05 2.06h3.36V25.2l-12.9-7.88-6.3 3.76v13.2l6.66 3.83c1.5-1.1 3.66-.8 4.8.72 1.15 1.5.85 3.64-.66 4.8-1.5 1.14-3.66.84-4.8-.68-.48-.67-.72-1.33-.72-2.06 0-.3.06-.5.12-.73l-7.2-4.12c-.36-.24-.6-.6-.6-1.1V21.07l-6.3-3.76-5.7 3.45v8.5h-2.4V22.2l-4.8 2.98v8l6 3.4 6-3.4V27h2.4v6.85c0 .42-.24.78-.6 1.03l-6.6 3.7v5.75l6.6 4.3c.36.25.54.6.54 1.04v4l4.8-2.85v-5.1l-6.3-3.75 1.2-2.06 6.96 4.13c.36.24.6.6.6 1.03v15.58h5.46c.66-1.76 2.64-2.67 4.44-2 1.38.5 2.23 1.76 2.23 3.2-.12 1.95-1.8 3.4-3.67 3.3-1.38-.13-2.46-.86-3-2.07h-5.52zm-13.68.66l4.98 3.04 6.3-3.75V53.6l-13.4 7.95-1.2-2.12 7.4-4.37v-4.78l-6-3.95-6.73 3.82-1.2-2.12 6.78-3.76v-5.7l-6-3.4-6 3.4V43l5.1-3.03 1.2 2.06-6.36 3.7v5.64l6 3.4 6.05-3.6 1.2 2.08-6.06 3.57v8l5.4 3.34 6.24-3.7.12.12.24-.18 1.2 2.06zm22.38-8.9c-.54 0-1.02.5-1.02 1.03 0 .6.48 1.1 1.02 1.1.6 0 1.08-.5 1.08-1.1-.06-.54-.48-.97-1.08-.97zm9.73-14.73c-.6 0-1.08.43-1.08 1.03 0 .55.48 1.03 1.08 1.03.54 0 1.02-.48 1.02-1.03 0-.54-.48-1.03-1.02-1.03zm-9.73-6.18c-.54 0-1.02.4-1.02 1.02 0 .54.48 1.03 1.02 1.03.6 0 1.08-.5 1.08-1.03-.06-.55-.48-1.03-1.08-1.03zm3.9-11.47c-.6 0-1 .5-1 1.1 0 .54.4 1.02 1 1.02s1.03-.48 1.03-1.03v-.06c0-.54-.48-1.03-1.02-1.03z" />
      <use
         id="use18"
         transform="matrix(1,0,0,1,895,99) translate(66.5 14.4)"
         xlink:href="#e" />
    </g>
    <g
       transform="translate(3.9876638,-82.708198)"
       id="g30"
       filter="url(#f)">
      <path
         id="path22"
         fill="#1c7b68"
         stroke-opacity="0"
         stroke="#ffffff"
         d="m 925,515 h 90 v 90 h -90 z" />
      <path
         id="path24"
         fill="#ffffff"
         stroke-opacity="0"
         stroke="#ffffff"
         d="m 990.4,590 c -2.88,0 -5.28,-1.97 -5.88,-4.8 h -19.44 c -0.66,3.25 -3.84,5.35 -7.08,4.7 -2.82,-0.6 -4.8,-3 -4.8,-5.9 0,-1.67 0.6,-3.05 1.8,-4.2 l -7.32,-14.04 c -0.6,0.18 -1.08,0.24 -1.68,0.24 -3.3,0 -6,-2.7 -6,-6 0,-3.3 2.7,-6 6,-6 0.6,0 1.08,0.06 1.68,0.24 L 955,540.26 c -2.34,-2.34 -2.34,-6.13 -0.06,-8.47 1.2,-1.2 2.58,-1.8 4.26,-1.8 2.88,0 5.28,1.97 5.88,4.8 h 19.44 c 0.66,-3.25 3.84,-5.35 7.08,-4.7 3.24,0.67 5.34,3.85 4.68,7.1 -0.66,3.24 -3.84,5.34 -7.08,4.68 -1.38,-0.3 -2.46,-0.96 -3.42,-2.04 l -12.78,6.97 1.08,1.02 -1.74,1.74 -1.56,-1.56 -10.38,5.58 v 2.82 H 958 v -1.5 l -6.24,3.36 c 0,0.18 0.06,0.36 0.12,0.54 h 16.92 v 2.4 h -16.92 c 0,0.18 -0.06,0.36 -0.12,0.54 l 6.24,3.36 v -1.5 h 2.4 v 2.82 l 10.32,5.58 1.56,-1.56 1.68,1.68 -1.02,1.08 12.84,6.96 c 2.16,-2.58 5.94,-2.88 8.46,-0.78 2.58,2.17 2.88,5.95 0.78,8.47 -1.2,1.44 -2.76,2.16 -4.62,2.16 z m 0,-9.6 c -1.98,0 -3.6,1.63 -3.6,3.6 0,2 1.62,3.6 3.6,3.6 1.98,0 3.6,-1.6 3.6,-3.6 0,-1.97 -1.62,-3.6 -3.6,-3.6 z m -31.2,0 c -1.98,0 -3.6,1.63 -3.6,3.6 0,2 1.62,3.6 3.6,3.6 1.98,0 3.6,-1.6 3.6,-3.6 0,-1.97 -1.62,-3.6 -3.6,-3.6 z m 5.88,2.4 h 19.44 c 0,-0.17 0.06,-0.35 0.12,-0.53 l -13.5,-7.27 -6.54,6.5 c 0.24,0.4 0.36,0.83 0.48,1.3 z m -4.68,-4.68 c 1.08,0.24 1.98,0.66 2.76,1.38 l 5.76,-5.7 -8.52,-4.68 z m -10.62,-13.5 7.2,13.8 c 0.36,-0.12 0.66,-0.24 1.02,-0.3 V 567.8 l -7.44,-4.02 c -0.24,0.36 -0.48,0.6 -0.78,0.84 z M 946,556.4 c -1.98,0 -3.6,1.62 -3.6,3.6 0,1.98 1.62,3.6 3.6,3.6 1.98,0 3.6,-1.62 3.6,-3.6 0,-1.98 -1.62,-3.6 -3.6,-3.6 z m 3.78,-1.02 c 0.3,0.24 0.54,0.48 0.84,0.78 L 958,552.2 v -10.32 c -0.36,-0.06 -0.66,-0.18 -1.02,-0.3 z m 10.62,-13.5 v 9 l 8.58,-4.68 -5.76,-5.76 c -0.84,0.78 -1.74,1.2 -2.82,1.44 z m 4.2,-3.36 c 1.86,1.86 4.14,4.14 6.54,6.48 l 13.5,-7.2 c 0,-0.18 -0.06,-0.36 -0.12,-0.54 h -19.44 c -0.12,0.48 -0.24,0.84 -0.48,1.26 z m 25.8,-6.13 c -1.98,0 -3.6,1.6 -3.6,3.6 0,1.98 1.62,3.6 3.6,3.6 1.98,0 3.6,-1.62 3.6,-3.6 0,-2 -1.62,-3.6 -3.6,-3.6 z m -31.2,0 c -1.98,0 -3.6,1.6 -3.6,3.6 0,1.98 1.62,3.6 3.6,3.6 1.98,0 3.6,-1.62 3.6,-3.6 0,-2 -1.62,-3.6 -3.6,-3.6 z m 29.16,42 h -5.52 c -0.66,0 -1.2,-0.54 -1.2,-1.2 v -2.22 c -0.36,-0.12 -0.66,-0.3 -1.02,-0.42 l -1.56,1.56 c -0.48,0.48 -1.2,0.48 -1.68,0 l -3.9,-3.9 c -0.48,-0.42 -0.48,-1.2 0,-1.68 l 1.56,-1.56 c -0.18,-0.36 -0.3,-0.66 -0.42,-1.02 h -2.22 c -0.66,0 -1.2,-0.54 -1.2,-1.2 v -5.52 c 0,-0.66 0.54,-1.2 1.2,-1.2 h 2.22 c 0.12,-0.36 0.24,-0.66 0.42,-1.02 l -1.56,-1.56 c -0.48,-0.48 -0.48,-1.2 0,-1.68 l 3.9,-3.9 c 0.42,-0.48 1.2,-0.48 1.68,0 l 1.56,1.56 c 0.36,-0.12 0.66,-0.3 1.02,-0.42 v -2.22 c 0,-0.66 0.54,-1.2 1.2,-1.2 h 5.52 c 0.66,0 1.2,0.54 1.2,1.2 v 2.22 c 0.36,0.12 0.66,0.3 1.02,0.42 l 1.62,-1.56 c 0.48,-0.48 1.2,-0.48 1.68,0 l 3.9,3.9 c 0.48,0.42 0.48,1.2 0,1.68 l -1.56,1.56 c 0.18,0.36 0.3,0.66 0.42,1.02 h 2.16 c 0.66,0 1.2,0.54 1.2,1.2 v 5.52 c 0,0.66 -0.54,1.2 -1.2,1.2 h -2.22 c -0.12,0.36 -0.24,0.66 -0.42,1.02 l 1.56,1.62 c 0.48,0.48 0.48,1.2 0,1.68 l -3.9,3.9 c -0.42,0.48 -1.2,0.48 -1.68,0 l -1.56,-1.56 c -0.36,0.12 -0.66,0.3 -1.02,0.42 v 2.16 c 0,0.66 -0.54,1.2 -1.2,1.2 z m -4.32,-2.4 h 3.12 v -1.92 c -0.06,-0.54 0.3,-1.08 0.9,-1.2 0.78,-0.24 1.44,-0.48 2.1,-0.9 0.48,-0.3 1.08,-0.18 1.44,0.18 l 1.38,1.38 2.22,-2.22 -1.38,-1.32 c -0.36,-0.42 -0.48,-0.96 -0.18,-1.44 0.42,-0.72 0.66,-1.38 0.9,-2.16 0.12,-0.54 0.6,-0.9 1.2,-0.9 h 1.92 v -3.06 h -1.98 c -0.54,0.06 -1.08,-0.3 -1.2,-0.9 -0.24,-0.78 -0.48,-1.44 -0.9,-2.1 -0.3,-0.48 -0.18,-1.08 0.18,-1.44 l 1.38,-1.38 -2.22,-2.22 -1.32,1.38 c -0.42,0.36 -0.96,0.48 -1.44,0.18 -0.72,-0.42 -1.38,-0.66 -2.16,-0.9 -0.54,-0.12 -0.9,-0.6 -0.9,-1.2 V 548 h -3.06 v 1.92 c 0.06,0.54 -0.3,1.08 -0.9,1.2 -0.78,0.24 -1.44,0.48 -2.1,0.9 -0.48,0.3 -1.08,0.18 -1.44,-0.18 l -1.38,-1.38 -2.22,2.22 1.38,1.32 c 0.36,0.42 0.48,0.96 0.18,1.44 -0.42,0.72 -0.66,1.38 -0.9,2.16 -0.12,0.54 -0.6,0.9 -1.2,0.9 h -1.86 v 3.12 h 1.92 c 0.54,-0.06 1.08,0.3 1.2,0.84 0.24,0.84 0.48,1.44 0.9,2.16 0.3,0.48 0.18,1.08 -0.18,1.44 l -1.38,1.38 2.22,2.22 1.32,-1.38 c 0.42,-0.42 0.96,-0.48 1.44,-0.18 0.72,0.36 1.38,0.66 2.16,0.9 0.54,0.12 0.9,0.6 0.9,1.2 z m 1.56,-5.88 c -3.42,0 -6.12,-2.7 -6.12,-6.12 0,-3.42 2.7,-6.12 6.12,-6.12 3.42,0 6.12,2.7 6.12,6.12 0,3.42 -2.7,6.12 -6.12,6.12 z m 0,-9.84 c -2.04,0 -3.72,1.68 -3.72,3.72 0,2.04 1.68,3.72 3.72,3.72 2.04,0 3.72,-1.68 3.72,-3.72 0,-2.04 -1.68,-3.72 -3.72,-3.72 z" />
      <use
         height="100%"
         width="100%"
         y="0"
         x="0"
         id="use26"
         transform="translate(911.075,628.4)"
         xlink:href="#g" />
      <use
         height="100%"
         width="100%"
         y="0"
         x="0"
         id="use28"
         transform="translate(959.025,628.4)"
         xlink:href="#h" />
    </g>
    <g
       id="g44"
       filter="url(#i)">
      <path
         id="path32"
         fill="#1c7b68"
         stroke-opacity="0"
         stroke="#fff"
         d="M926.6 241.6h86.8v86.8h-86.8z" />
      <path
         id="path34"
         fill-opacity="0"
         stroke-opacity="0"
         stroke="#fff"
         d="M1011.85 243.15v83.7h-83.7v-83.7h83.7M1015 240h-90v90h90v-90z" />
      <path
         id="path36"
         fill="#fff"
         stroke-opacity="0"
         stroke="#fff"
         d="M997 289.9c-.12-.2-.27-.3-.5-.36l-3.16-1c.22-2.03.17-3.8-.15-5.84l3.1-1.2c.3-.1.48-.27.6-.58.12-.26.12-.52 0-.84l-4.14-9.14c-.22-.53-.83-.8-1.37-.58h-.1l-2.94 1.52c-1.3-1.57-2.58-2.77-4.24-3.98l1.37-3.03c.23-.52 0-1.15-.55-1.4l-9-3.35h-1.52c-.17.1-.3.26-.36.47l-1.05 3.18h-.42v2.14c.37-.05.7 0 1.05.1.54.06 1.03-.26 1.2-.73l.93-3 7.3 2.83-1.28 2.83c-.2.42-.05.94.37 1.25 2.05 1.37 3.56 2.78 5.05 4.7.3.5.85.6 1.34.33l2.78-1.4 3.17 7.1-2.87 1.04c-.48.2-.75.68-.66 1.2.5 2.4.54 4.5.2 6.9-.1.52.22 1.05.73 1.2l2.93.9-2.78 7.26-2.83-1.2c-.5-.22-1.03-.06-1.32.36-1.37 2.03-2.8 3.54-4.76 5-.44.32-.56.9-.3 1.37l1.45 2.7-7.13 3.2-1.05-2.82c-.22-.52-.76-.78-1.27-.63-.78.16-1.42.2-2.2.26v2.15c.6 0 1.1-.1 1.7-.2l1.18 3.07c.1.26.3.47.6.58.26.15.55.15.84 0l9.17-4.08c.03 0 .05-.05.1-.05.5-.26.68-.94.42-1.47l-1.54-2.87c1.6-1.3 2.83-2.6 4.05-4.28l3.02 1.36s.02.05.04.05c.54.2 1.15-.05 1.4-.57l3.36-8.88z" />
      <path
         id="path38"
         fill="#fff"
         stroke-opacity="0"
         stroke="#fff"
         d="M982.18 286.04c-.04-5.6-4-10.26-9.54-11.16V277c5 .9 8.28 5.7 7.36 10.73-.72 3.8-3.54 6.6-7.36 7.35v2.12c5.53-.9 9.54-5.56 9.54-11.16zm-11.1-22.42l-6.33-3.9c-.34-.22-.72-.22-1.07 0l-12.7 7.5c-.37.15-.56.52-.56.9v7.5l-5.76 3.02c-.38.2-.6.58-.6.95v12.73c0 .37.14.7.45.9l5.92 3.8v6.93c0 .37.15.7.5.9l12.7 7.35c.18.12.33.22.56.22.2 0 .38-.05.53-.16l6.38-3.7c.3-.2.53-.53.53-.95v-43.08c0-.37-.18-.74-.52-.9zm-1.6 43.4l-5.3 3.08-4.77-2.75 5.96-3.55-1.03-1.8-6.98 4.18-4.84-2.8v-6.3l5.73-3.27-1.07-1.8-5.68 3.24-5.3-3.54v-5.03l5.57-3.17-1.07-1.85-4.5 2.6v-4.03l5.3-2.75 5.3 2.96v4.97l-5.98 3.4 1.06 1.8 5.95-3.45 5.3 2.6v6.07l-6.74 3.86 1.03 1.85 12.08-7.14zm-4.23-12.47v-5.87c0-.37-.23-.74-.57-.95l-5.8-2.9V280l5.83-3.2c.36-.23.55-.54.55-.97v-8.3h-2.14v7.67l-5.3 2.9-5.3-2.95v-6.88l4.28-2.54v6.03h2.1v-7.3l5.3-3.06 5.3 3.22v18.46l-3.7-2.12-1.03 1.85 4.73 2.7v6.67z" />
      <use
         id="use40"
         transform="matrix(1,0,0,1,895,339) translate(3.5999999999999943 14.4)"
         xlink:href="#j" />
      <use
         id="use42"
         transform="matrix(1,0,0,1,895,339) translate(76.5 14.4)"
         xlink:href="#h" />
    </g>
    <path
       id="path46"
       fill="#fff"
       stroke-width="10"
       stroke="#5abaa7"
       d="M1360 15h440v60h-440z" />
    <use
       id="use48"
       transform="matrix(1,0,0,1,1365,20) translate(0 17.06666666666667)"
       xlink:href="#k" />
    <use
       id="use50"
       transform="matrix(1,0,0,1,1365,20) translate(80.47407407407408 17.06666666666667)"
       xlink:href="#l" />
    <use
       id="use52"
       transform="matrix(1,0,0,1,1365,20) translate(121.95555555555556 17.06666666666667)"
       xlink:href="#m" />
    <use
       id="use54"
       transform="matrix(1,0,0,1,1365,20) translate(198.81481481481484 17.06666666666667)"
       xlink:href="#n" />
    <use
       id="use56"
       transform="matrix(1,0,0,1,1365,20) translate(216.5925925925926 17.06666666666667)"
       xlink:href="#o" />
    <use
       id="use58"
       transform="matrix(1,0,0,1,1365,20) translate(252.0888888888889 17.06666666666667)"
       xlink:href="#p" />
    <use
       id="use60"
       transform="matrix(1,0,0,1,1365,20) translate(370.4888888888889 17.06666666666667)"
       xlink:href="#q" />
    <use
       id="use62"
       transform="matrix(1,0,0,1,1365,20) translate(0 40.106666666666676)"
       xlink:href="#r" />
    <use
       id="use64"
       transform="matrix(1,0,0,1,1365,20) translate(17.77777777777778 40.106666666666676)"
       xlink:href="#s" />
    <use
       id="use66"
       transform="matrix(1,0,0,1,1365,20) translate(171.67407407407407 40.106666666666676)"
       xlink:href="#t" />
    <use
       id="use68"
       transform="matrix(1,0,0,1,1365,20) translate(260.5037037037037 40.106666666666676)"
       xlink:href="#u" />
    <use
       id="use70"
       transform="matrix(1,0,0,1,1365,20) translate(313.837037037037 40.106666666666676)"
       xlink:href="#n" />
    <use
       id="use72"
       transform="matrix(1,0,0,1,1365,20) translate(331.6148148148148 40.106666666666676)"
       xlink:href="#v" />
    <path
       id="path74"
       fill="none"
       stroke-width="10"
       stroke="#5abaa7"
       d="M1350 45h-299.55" />
    <path
       id="path76"
       fill="#5abaa7"
       d="M1355 50h-5.13V40h5.13z" />
    <path
       id="path78"
       fill="#5abaa7"
       stroke-width="10"
       stroke="#5abaa7"
       d="M1031.18 45l14.27-4.64v9.28z" />
    <path
       id="path80"
       fill="#fff"
       stroke-width="10"
       stroke="#5abaa7"
       d="M1400 245h400v80h-400z" />
    <g
       id="g108">
      <use
         id="use82"
         transform="matrix(1,0,0,1,1405,250) translate(0 17.06666666666667)"
         xlink:href="#w" />
      <use
         id="use84"
         transform="matrix(1,0,0,1,1405,250) translate(86.45925925925926 17.06666666666667)"
         xlink:href="#x" />
      <use
         id="use86"
         transform="matrix(1,0,0,1,1405,250) translate(116.08888888888889 17.06666666666667)"
         xlink:href="#y" />
      <use
         id="use88"
         transform="matrix(1,0,0,1,1405,250) translate(140.9777777777778 17.06666666666667)"
         xlink:href="#l" />
      <use
         id="use90"
         transform="matrix(1,0,0,1,1405,250) translate(182.45925925925928 17.06666666666667)"
         xlink:href="#z" />
      <use
         id="use92"
         transform="matrix(1,0,0,1,1405,250) translate(222.7555555555556 17.06666666666667)"
         xlink:href="#A" />
      <use
         id="use94"
         transform="matrix(1,0,0,1,1405,250) translate(0 40.106666666666676)"
         xlink:href="#B" />
      <use
         id="use96"
         transform="matrix(1,0,0,1,1405,250) translate(90.01481481481481 40.106666666666676)"
         xlink:href="#C" />
      <use
         id="use98"
         transform="matrix(1,0,0,1,1405,250) translate(138.54814814814816 40.106666666666676)"
         xlink:href="#D" />
      <use
         id="use100"
         transform="matrix(1,0,0,1,1405,250) translate(220.14814814814815 40.106666666666676)"
         xlink:href="#E" />
      <use
         id="use102"
         transform="matrix(1,0,0,1,1405,250) translate(0 63.14666666666668)"
         xlink:href="#F" />
      <use
         id="use104"
         transform="matrix(1,0,0,1,1405,250) translate(53.333333333333336 63.14666666666668)"
         xlink:href="#n" />
      <use
         id="use106"
         transform="matrix(1,0,0,1,1405,250) translate(71.11111111111111 63.14666666666668)"
         xlink:href="#G" />
    </g>
    <path
       id="path110"
       fill="#ffffff"
       stroke-width="10"
       stroke="#5abaa7"
       d="m 1385.2819,440.89146 h 420 v 80 h -420 z" />
    <g
       transform="translate(5.2818944,-79.108544)"
       id="g144">
      <use
         height="100%"
         width="100%"
         y="0"
         x="0"
         id="use112"
         transform="translate(1385,542.06667)"
         xlink:href="#w" />
      <use
         height="100%"
         width="100%"
         y="0"
         x="0"
         id="use114"
         transform="translate(1471.4593,542.06667)"
         xlink:href="#H" />
      <use
         height="100%"
         width="100%"
         y="0"
         x="0"
         id="use116"
         transform="translate(1501.0889,542.06667)"
         xlink:href="#I" />
      <use
         height="100%"
         width="100%"
         y="0"
         x="0"
         id="use118"
         transform="translate(1587.4889,542.06667)"
         xlink:href="#J" />
      <use
         height="100%"
         width="100%"
         y="0"
         x="0"
         id="use120"
         transform="translate(1664.4074,542.06667)"
         xlink:href="#K" />
      <use
         height="100%"
         width="100%"
         y="0"
         x="0"
         id="use122"
         transform="translate(1727.2222,542.06667)"
         xlink:href="#L" />
      <use
         height="100%"
         width="100%"
         y="0"
         x="0"
         id="use124"
         transform="translate(1385,565.10667)"
         xlink:href="#M" />
      <use
         height="100%"
         width="100%"
         y="0"
         x="0"
         id="use126"
         transform="translate(1476.1407,565.10667)"
         xlink:href="#N" />
      <use
         height="100%"
         width="100%"
         y="0"
         x="0"
         id="use128"
         transform="translate(1522.3037,565.10667)"
         xlink:href="#O" />
      <use
         height="100%"
         width="100%"
         y="0"
         x="0"
         id="use130"
         transform="translate(1562.6,565.10667)"
         xlink:href="#P" />
      <use
         height="100%"
         width="100%"
         y="0"
         x="0"
         id="use132"
         transform="translate(1592.2296,565.10667)"
         xlink:href="#Q" />
      <use
         height="100%"
         width="100%"
         y="0"
         x="0"
         id="use134"
         transform="translate(1651.4296,565.10667)"
         xlink:href="#R" />
      <use
         height="100%"
         width="100%"
         y="0"
         x="0"
         id="use136"
         transform="translate(1733.0889,565.10667)"
         xlink:href="#S" />
      <use
         height="100%"
         width="100%"
         y="0"
         x="0"
         id="use138"
         transform="translate(1385,588.14667)"
         xlink:href="#T" />
      <use
         height="100%"
         width="100%"
         y="0"
         x="0"
         id="use140"
         transform="translate(1443.0148,588.14667)"
         xlink:href="#U" />
      <use
         height="100%"
         width="100%"
         y="0"
         x="0"
         id="use142"
         transform="translate(1478.5111,588.14667)"
         xlink:href="#V" />
    </g>
    <path
       id="path146"
       fill="none"
       stroke-width="10"
       stroke="#5abaa7"
       d="m 1375.2819,480.89146 h -319.55" />
    <path
       id="path148"
       fill="#5abaa7"
       d="m 1380.2819,485.89146 h -5.13 v -10 h 5.13 z" />
    <path
       id="path150"
       fill="#5abaa7"
       stroke-width="10"
       stroke="#5abaa7"
       d="m 1036.4619,480.89146 14.27,-4.64 v 9.28 z" />
    <path
       id="path152"
       fill="none"
       stroke-width="10"
       stroke="#5abaa7"
       d="M1390 285h-339.55" />
    <path
       id="path154"
       fill="#5abaa7"
       d="M1395 290h-5.13v-10h5.13z" />
    <path
       id="path156"
       fill="#5abaa7"
       stroke-width="10"
       stroke="#5abaa7"
       d="M1031.18 285l14.27-4.64v9.28z" />
    <defs
       id="defs726">
      <path
         id="W"
         d="M240 0l2-218c-23 76-54 145-80 218h-23L58-218 59 0H30v-248h44l77 211c21-75 51-140 76-211h43V0h-30" />
      <path
         id="X"
         d="M100-194c62-1 85 37 85 99 1 63-27 99-86 99S16-35 15-95c0-66 28-99 85-99zM99-20c44 1 53-31 53-75 0-43-8-75-51-75s-53 32-53 75 10 74 51 75" />
      <path
         id="Y"
         d="M85-194c31 0 48 13 60 33l-1-100h32l1 261h-30c-2-10 0-23-3-31C134-8 116 4 85 4 32 4 16-35 15-94c0-66 23-100 70-100zm9 24c-40 0-46 34-46 75 0 40 6 74 45 74 42 0 51-32 51-76 0-42-9-74-50-73" />
      <path
         id="Z"
         d="M100-194c63 0 86 42 84 106H49c0 40 14 67 53 68 26 1 43-12 49-29l28 8c-11 28-37 45-77 45C44 4 14-33 15-96c1-61 26-98 85-98zm52 81c6-60-76-77-97-28-3 7-6 17-6 28h103" />
      <path
         id="aa"
         d="M24 0v-261h32V0H24" />
      <g
         id="b">
        <use
           id="use163"
           xlink:href="#W"
           transform="matrix(0.05,0,0,0.05,0,0)" />
        <use
           id="use165"
           xlink:href="#X"
           transform="matrix(0.05,0,0,0.05,14.950000000000001,0)" />
        <use
           id="use167"
           xlink:href="#Y"
           transform="matrix(0.05,0,0,0.05,24.950000000000003,0)" />
        <use
           id="use169"
           xlink:href="#Z"
           transform="matrix(0.05,0,0,0.05,34.95,0)" />
        <use
           id="use171"
           xlink:href="#aa"
           transform="matrix(0.05,0,0,0.05,44.95,0)" />
      </g>
      <filter
         height="1.02"
         width="1.03"
         y="-.01"
         x="-.01"
         filterUnits="objectBoundingBox"
         id="a">
        <feOffset
           id="feOffset174"
           dy="4.7"
           dx="3.72"
           in="SourceAlpha"
           result="offOut" />
        <feGaussianBlur
           id="feGaussianBlur176"
           stdDeviation="5"
           in="offOut"
           result="blurOut" />
        <feColorMatrix
           id="feColorMatrix178"
           values="0 0 0 0 0.3917262591311034 0 0 0 0 0.45668589004229143 0 0 0 0 0.3385774702037678 0 0 0 0.5019607843137255 0"
           in="blurOut"
           result="colorOut" />
        <feBlend
           id="feBlend180"
           in2="colorOut"
           in="SourceGraphic" />
      </filter>
      <radialGradient
         gradientTransform="translate(649.02222,3.5066667)"
         r="156.6"
         cy="560"
         cx="970"
         fy="560"
         fx="970"
         id="c"
         gradientUnits="userSpaceOnUse">
        <stop
           id="stop183"
           stop-color="#0c7cba"
           offset="100%" />
        <stop
           id="stop185"
           stop-color="#085077"
           offset="27.17%" />
      </radialGradient>
      <path
         id="ab"
         d="M33 0v-248h34V0H33" />
      <path
         id="ac"
         d="M205 0l-28-72H64L36 0H1l101-248h38L239 0h-34zm-38-99l-47-123c-12 45-31 82-46 123h93" />
      <g
         id="e">
        <use
           id="use190"
           xlink:href="#ab"
           transform="matrix(0.05,0,0,0.05,0,0)" />
        <use
           id="use192"
           xlink:href="#ac"
           transform="matrix(0.05,0,0,0.05,5,0)" />
      </g>
      <filter
         height="1.38"
         width="1.38"
         y="-.07"
         x="-.05"
         filterUnits="objectBoundingBox"
         id="d">
        <feOffset
           id="feOffset195"
           dy="10.34"
           dx="12.21"
           in="SourceAlpha"
           result="offOut" />
        <feGaussianBlur
           id="feGaussianBlur197"
           stdDeviation="8.5"
           in="offOut"
           result="blurOut" />
        <feColorMatrix
           id="feColorMatrix199"
           values="0 0 0 0 0.17716262975778546 0 0 0 0 0.36613610149942327 0 0 0 0 0.3287351018838908 0 0 0 0.5019607843137255 0"
           in="blurOut"
           result="colorOut" />
        <feBlend
           id="feBlend201"
           in2="colorOut"
           in="SourceGraphic" />
      </filter>
      <path
         id="ad"
         d="M30-248c118-7 216 8 213 122C240-48 200 0 122 0H30v-248zM63-27c89 8 146-16 146-99s-60-101-146-95v194" />
      <path
         id="ae"
         d="M115-194c55 1 70 41 70 98S169 2 115 4C84 4 66-9 55-30l1 105H24l-1-265h31l2 30c10-21 28-34 59-34zm-8 174c40 0 45-34 45-75s-6-73-45-74c-42 0-51 32-51 76 0 43 10 73 51 73" />
      <g
         id="g">
        <use
           id="use206"
           xlink:href="#ad"
           transform="matrix(0.05,0,0,0.05,0,0)" />
        <use
           id="use208"
           xlink:href="#Z"
           transform="matrix(0.05,0,0,0.05,12.950000000000001,0)" />
        <use
           id="use210"
           xlink:href="#Z"
           transform="matrix(0.05,0,0,0.05,22.950000000000003,0)" />
        <use
           id="use212"
           xlink:href="#ae"
           transform="matrix(0.05,0,0,0.05,32.95,0)" />
      </g>
      <path
         id="af"
         d="M30 0v-248h33v221h125V0H30" />
      <path
         id="ag"
         d="M141-36C126-15 110 5 73 4 37 3 15-17 15-53c-1-64 63-63 125-63 3-35-9-54-41-54-24 1-41 7-42 31l-33-3c5-37 33-52 76-52 45 0 72 20 72 64v82c-1 20 7 32 28 27v20c-31 9-61-2-59-35zM48-53c0 20 12 33 32 33 41-3 63-29 60-74-43 2-92-5-92 41" />
      <path
         id="ah"
         d="M114-163C36-179 61-72 57 0H25l-1-190h30c1 12-1 29 2 39 6-27 23-49 58-41v29" />
      <path
         id="ai"
         d="M117-194c89-4 53 116 60 194h-32v-121c0-31-8-49-39-48C34-167 62-67 57 0H25l-1-190h30c1 10-1 24 2 32 11-22 29-35 61-36" />
      <path
         id="aj"
         d="M24-231v-30h32v30H24zM24 0v-190h32V0H24" />
      <path
         id="ak"
         d="M177-190C167-65 218 103 67 71c-23-6-38-20-44-43l32-5c15 47 100 32 89-28v-30C133-14 115 1 83 1 29 1 15-40 15-95c0-56 16-97 71-98 29-1 48 16 59 35 1-10 0-23 2-32h30zM94-22c36 0 50-32 50-73 0-42-14-75-50-75-39 0-46 34-46 75s6 73 46 73" />
      <g
         id="h">
        <use
           id="use221"
           xlink:href="#af"
           transform="matrix(0.05,0,0,0.05,0,0)" />
        <use
           id="use223"
           xlink:href="#Z"
           transform="matrix(0.05,0,0,0.05,10,0)" />
        <use
           id="use225"
           xlink:href="#ag"
           transform="matrix(0.05,0,0,0.05,20,0)" />
        <use
           id="use227"
           xlink:href="#ah"
           transform="matrix(0.05,0,0,0.05,30,0)" />
        <use
           id="use229"
           xlink:href="#ai"
           transform="matrix(0.05,0,0,0.05,35.95,0)" />
        <use
           id="use231"
           xlink:href="#aj"
           transform="matrix(0.05,0,0,0.05,45.95,0)" />
        <use
           id="use233"
           xlink:href="#ai"
           transform="matrix(0.05,0,0,0.05,49.900000000000006,0)" />
        <use
           id="use235"
           xlink:href="#ak"
           transform="matrix(0.05,0,0,0.05,59.900000000000006,0)" />
      </g>
      <filter
         height="1.38"
         width="1.38"
         y="-.07"
         x="-.06"
         filterUnits="objectBoundingBox"
         id="f">
        <feOffset
           id="feOffset238"
           dy="10.97"
           dx="11.65"
           in="SourceAlpha"
           result="offOut" />
        <feGaussianBlur
           id="feGaussianBlur240"
           stdDeviation="8.5"
           in="offOut"
           result="blurOut" />
        <feColorMatrix
           id="feColorMatrix242"
           values="0 0 0 0 0.17716262975778546 0 0 0 0 0.36613610149942327 0 0 0 0 0.3287351018838908 0 0 0 0.5019607843137255 0"
           in="blurOut"
           result="colorOut" />
        <feBlend
           id="feBlend244"
           in2="colorOut"
           in="SourceGraphic" />
      </filter>
      <path
         id="al"
         d="M96-169c-40 0-48 33-48 73s9 75 48 75c24 0 41-14 43-38l32 2c-6 37-31 61-74 61-59 0-76-41-82-99-10-93 101-131 147-64 4 7 5 14 7 22l-32 3c-4-21-16-35-41-35" />
      <path
         id="am"
         d="M106-169C34-169 62-67 57 0H25v-261h32l-1 103c12-21 28-36 61-36 89 0 53 116 60 194h-32v-121c2-32-8-49-39-48" />
      <g
         id="j">
        <use
           id="use249"
           xlink:href="#W"
           transform="matrix(0.05,0,0,0.05,0,0)" />
        <use
           id="use251"
           xlink:href="#ag"
           transform="matrix(0.05,0,0,0.05,14.950000000000001,0)" />
        <use
           id="use253"
           xlink:href="#al"
           transform="matrix(0.05,0,0,0.05,24.950000000000003,0)" />
        <use
           id="use255"
           xlink:href="#am"
           transform="matrix(0.05,0,0,0.05,33.95,0)" />
        <use
           id="use257"
           xlink:href="#aj"
           transform="matrix(0.05,0,0,0.05,43.95,0)" />
        <use
           id="use259"
           xlink:href="#ai"
           transform="matrix(0.05,0,0,0.05,47.900000000000006,0)" />
        <use
           id="use261"
           xlink:href="#Z"
           transform="matrix(0.05,0,0,0.05,57.900000000000006,0)" />
      </g>
      <filter
         height="1.38"
         width="1.38"
         y="-.08"
         x="-.05"
         filterUnits="objectBoundingBox"
         id="i">
        <feOffset
           id="feOffset264"
           dy="10"
           dx="12.49"
           in="SourceAlpha"
           result="offOut" />
        <feGaussianBlur
           id="feGaussianBlur266"
           stdDeviation="8.5"
           in="offOut"
           result="blurOut" />
        <feColorMatrix
           id="feColorMatrix268"
           values="0 0 0 0 0.17716262975778546 0 0 0 0 0.36613610149942327 0 0 0 0 0.3287351018838908 0 0 0 0.5019607843137255 0"
           in="blurOut"
           result="colorOut" />
        <feBlend
           id="feBlend270"
           in2="colorOut"
           in="SourceGraphic" />
      </filter>
      <path
         id="an"
         d="M127-220V0H93v-220H8v-28h204v28h-85" />
      <path
         id="ao"
         d="M100-194c63 0 86 42 84 106H49c0 40 14 67 53 68 26 1 43-12 49-29l28 8c-11 28-37 45-77 45C44 4 14-33 15-96c1-61 26-98 85-98zm52 81c6-60-76-77-97-28-3 7-6 17-6 28h103zm-74-98c8-23 27-35 38-54h36v5l-58 49H78" />
      <g
         id="k">
        <use
           id="use275"
           xlink:href="#an"
           transform="matrix(0.05925925925925927,0,0,0.05925925925925927,0,0)" />
        <use
           id="use277"
           xlink:href="#ao"
           transform="matrix(0.05925925925925927,0,0,0.05925925925925927,12.97777777777778,0)" />
        <use
           id="use279"
           xlink:href="#al"
           transform="matrix(0.05925925925925927,0,0,0.05925925925925927,24.829629629629633,0)" />
        <use
           id="use281"
           xlink:href="#ai"
           transform="matrix(0.05925925925925927,0,0,0.05925925925925927,35.4962962962963,0)" />
        <use
           id="use283"
           xlink:href="#aj"
           transform="matrix(0.05925925925925927,0,0,0.05925925925925927,47.348148148148155,0)" />
        <use
           id="use285"
           xlink:href="#al"
           transform="matrix(0.05925925925925927,0,0,0.05925925925925927,52.02962962962964,0)" />
        <use
           id="use287"
           xlink:href="#ag"
           transform="matrix(0.05925925925925927,0,0,0.05925925925925927,62.6962962962963,0)" />
      </g>
      <path
         id="ap"
         d="M145-31C134-9 116 4 85 4 32 4 16-35 15-94c0-59 17-99 70-100 32-1 48 14 60 33 0-11-1-24 2-32h30l-1 268h-32zM93-21c41 0 51-33 51-76s-8-73-50-73c-40 0-46 35-46 75s5 74 45 74" />
      <path
         id="aq"
         d="M84 4C-5 8 30-112 23-190h32v120c0 31 7 50 39 49 72-2 45-101 50-169h31l1 190h-30c-1-10 1-25-2-33-11 22-28 36-60 37" />
      <g
         id="l">
        <use
           id="use292"
           xlink:href="#ap"
           transform="matrix(0.05925925925925927,0,0,0.05925925925925927,0,0)" />
        <use
           id="use294"
           xlink:href="#aq"
           transform="matrix(0.05925925925925927,0,0,0.05925925925925927,11.851851851851853,0)" />
        <use
           id="use296"
           xlink:href="#Z"
           transform="matrix(0.05925925925925927,0,0,0.05925925925925927,23.703703703703706,0)" />
      </g>
      <path
         id="ar"
         d="M210-169c-67 3-38 105-44 169h-31v-121c0-29-5-50-35-48C34-165 62-65 56 0H25l-1-190h30c1 10-1 24 2 32 10-44 99-50 107 0 11-21 27-35 58-36 85-2 47 119 55 194h-31v-121c0-29-5-49-35-48" />
      <path
         id="as"
         d="M59-47c-2 24 18 29 38 22v24C64 9 27 4 27-40v-127H5v-23h24l9-43h21v43h35v23H59v120" />
      <g
         id="m">
        <use
           id="use301"
           xlink:href="#ae"
           transform="matrix(0.05925925925925927,0,0,0.05925925925925927,0,0)" />
        <use
           id="use303"
           xlink:href="#Z"
           transform="matrix(0.05925925925925927,0,0,0.05925925925925927,11.851851851851853,0)" />
        <use
           id="use305"
           xlink:href="#ah"
           transform="matrix(0.05925925925925927,0,0,0.05925925925925927,23.703703703703706,0)" />
        <use
           id="use307"
           xlink:href="#ar"
           transform="matrix(0.05925925925925927,0,0,0.05925925925925927,30.75555555555556,0)" />
        <use
           id="use309"
           xlink:href="#aj"
           transform="matrix(0.05925925925925927,0,0,0.05925925925925927,48.47407407407408,0)" />
        <use
           id="use311"
           xlink:href="#as"
           transform="matrix(0.05925925925925927,0,0,0.05925925925925927,53.155555555555566,0)" />
        <use
           id="use313"
           xlink:href="#ag"
           transform="matrix(0.05925925925925927,0,0,0.05925925925925927,59.08148148148149,0)" />
      </g>
      <use
         id="n"
         xlink:href="#ag"
         transform="matrix(0.05925925925925927,0,0,0.05925925925925927,0,0)" />
      <g
         id="o">
        <use
           id="use317"
           xlink:href="#aq"
           transform="matrix(0.05925925925925927,0,0,0.05925925925925927,0,0)" />
        <use
           id="use319"
           xlink:href="#ar"
           transform="matrix(0.05925925925925927,0,0,0.05925925925925927,11.851851851851853,0)" />
      </g>
      <g
         id="p">
        <use
           id="use322"
           xlink:href="#al"
           transform="matrix(0.05925925925925927,0,0,0.05925925925925927,0,0)" />
        <use
           id="use324"
           xlink:href="#X"
           transform="matrix(0.05925925925925927,0,0,0.05925925925925927,10.666666666666668,0)" />
        <use
           id="use326"
           xlink:href="#ar"
           transform="matrix(0.05925925925925927,0,0,0.05925925925925927,22.51851851851852,0)" />
        <use
           id="use328"
           xlink:href="#ae"
           transform="matrix(0.05925925925925927,0,0,0.05925925925925927,40.23703703703704,0)" />
        <use
           id="use330"
           xlink:href="#aq"
           transform="matrix(0.05925925925925927,0,0,0.05925925925925927,52.088888888888896,0)" />
        <use
           id="use332"
           xlink:href="#as"
           transform="matrix(0.05925925925925927,0,0,0.05925925925925927,63.94074074074075,0)" />
        <use
           id="use334"
           xlink:href="#ag"
           transform="matrix(0.05925925925925927,0,0,0.05925925925925927,69.86666666666667,0)" />
        <use
           id="use336"
           xlink:href="#Y"
           transform="matrix(0.05925925925925927,0,0,0.05925925925925927,81.71851851851852,0)" />
        <use
           id="use338"
           xlink:href="#X"
           transform="matrix(0.05925925925925927,0,0,0.05925925925925927,93.57037037037037,0)" />
        <use
           id="use340"
           xlink:href="#ah"
           transform="matrix(0.05925925925925927,0,0,0.05925925925925927,105.42222222222222,0)" />
      </g>
      <g
         id="q">
        <use
           id="use343"
           xlink:href="#aj"
           transform="matrix(0.05925925925925927,0,0,0.05925925925925927,0,0)" />
        <use
           id="use345"
           xlink:href="#ar"
           transform="matrix(0.05925925925925927,0,0,0.05925925925925927,4.681481481481482,0)" />
        <use
           id="use347"
           xlink:href="#aj"
           transform="matrix(0.05925925925925927,0,0,0.05925925925925927,22.400000000000006,0)" />
        <use
           id="use349"
           xlink:href="#as"
           transform="matrix(0.05925925925925927,0,0,0.05925925925925927,27.08148148148149,0)" />
        <use
           id="use351"
           xlink:href="#ag"
           transform="matrix(0.05925925925925927,0,0,0.05925925925925927,33.00740740740741,0)" />
        <use
           id="use353"
           xlink:href="#ah"
           transform="matrix(0.05925925925925927,0,0,0.05925925925925927,44.85925925925927,0)" />
      </g>
      <use
         id="r"
         xlink:href="#X"
         transform="matrix(0.05925925925925927,0,0,0.05925925925925927,0,0)" />
      <g
         id="s">
        <use
           id="use357"
           xlink:href="#al"
           transform="matrix(0.05925925925925927,0,0,0.05925925925925927,0,0)" />
        <use
           id="use359"
           xlink:href="#X"
           transform="matrix(0.05925925925925927,0,0,0.05925925925925927,10.666666666666668,0)" />
        <use
           id="use361"
           xlink:href="#ar"
           transform="matrix(0.05925925925925927,0,0,0.05925925925925927,22.51851851851852,0)" />
        <use
           id="use363"
           xlink:href="#ae"
           transform="matrix(0.05925925925925927,0,0,0.05925925925925927,40.23703703703704,0)" />
        <use
           id="use365"
           xlink:href="#X"
           transform="matrix(0.05925925925925927,0,0,0.05925925925925927,52.088888888888896,0)" />
        <use
           id="use367"
           xlink:href="#ah"
           transform="matrix(0.05925925925925927,0,0,0.05925925925925927,63.94074074074075,0)" />
        <use
           id="use369"
           xlink:href="#as"
           transform="matrix(0.05925925925925927,0,0,0.05925925925925927,70.9925925925926,0)" />
        <use
           id="use371"
           xlink:href="#ag"
           transform="matrix(0.05925925925925927,0,0,0.05925925925925927,76.91851851851852,0)" />
        <use
           id="use373"
           xlink:href="#ar"
           transform="matrix(0.05925925925925927,0,0,0.05925925925925927,88.77037037037037,0)" />
        <use
           id="use375"
           xlink:href="#Z"
           transform="matrix(0.05925925925925927,0,0,0.05925925925925927,106.4888888888889,0)" />
        <use
           id="use377"
           xlink:href="#ai"
           transform="matrix(0.05925925925925927,0,0,0.05925925925925927,118.34074074074074,0)" />
        <use
           id="use379"
           xlink:href="#as"
           transform="matrix(0.05925925925925927,0,0,0.05925925925925927,130.1925925925926,0)" />
        <use
           id="use381"
           xlink:href="#X"
           transform="matrix(0.05925925925925927,0,0,0.05925925925925927,136.11851851851853,0)" />
      </g>
      <path
         id="at"
         d="M68-38c1 34 0 65-14 84H32c9-13 17-26 17-46H33v-38h35" />
      <g
         id="t">
        <use
           id="use385"
           xlink:href="#am"
           transform="matrix(0.05925925925925927,0,0,0.05925925925925927,0,0)" />
        <use
           id="use387"
           xlink:href="#aq"
           transform="matrix(0.05925925925925927,0,0,0.05925925925925927,11.851851851851853,0)" />
        <use
           id="use389"
           xlink:href="#ar"
           transform="matrix(0.05925925925925927,0,0,0.05925925925925927,23.703703703703706,0)" />
        <use
           id="use391"
           xlink:href="#ag"
           transform="matrix(0.05925925925925927,0,0,0.05925925925925927,41.42222222222223,0)" />
        <use
           id="use393"
           xlink:href="#ai"
           transform="matrix(0.05925925925925927,0,0,0.05925925925925927,53.274074074074086,0)" />
        <use
           id="use395"
           xlink:href="#X"
           transform="matrix(0.05925925925925927,0,0,0.05925925925925927,65.12592592592594,0)" />
        <use
           id="use397"
           xlink:href="#at"
           transform="matrix(0.05925925925925927,0,0,0.05925925925925927,76.97777777777779,0)" />
      </g>
      <path
         id="au"
         d="M27 0v-27h64v-190l-56 39v-29l58-41h29v221h61V0H27" />
      <path
         id="av"
         d="M99-251c64 0 84 50 84 122C183-37 130 33 47-8c-14-7-20-23-25-40l30-5c6 39 69 39 84 7 9-19 16-44 16-74-10 22-31 35-62 35-49 0-73-33-73-83 0-54 28-83 82-83zm-1 141c31-1 51-18 51-49 0-36-14-67-51-67-34 0-49 23-49 58 0 34 15 58 49 58" />
      <path
         id="aw"
         d="M54-142c48-35 137-8 131 61C196 18 31 33 14-55l32-4c7 23 22 37 52 37 35-1 51-22 54-58 4-55-73-65-99-34H22l8-134h141v27H59" />
      <path
         id="ax"
         d="M101-251c68 0 85 55 85 127S166 4 100 4C33 4 14-52 14-124c0-73 17-127 87-127zm-1 229c47 0 54-49 54-102s-4-102-53-102c-51 0-55 48-55 102 0 53 5 102 54 102" />
      <g
         id="u">
        <use
           id="use404"
           xlink:href="#au"
           transform="matrix(0.05925925925925927,0,0,0.05925925925925927,0,0)" />
        <use
           id="use406"
           xlink:href="#av"
           transform="matrix(0.05925925925925927,0,0,0.05925925925925927,11.851851851851853,0)" />
        <use
           id="use408"
           xlink:href="#aw"
           transform="matrix(0.05925925925925927,0,0,0.05925925925925927,23.703703703703706,0)" />
        <use
           id="use410"
           xlink:href="#ax"
           transform="matrix(0.05925925925925927,0,0,0.05925925925925927,35.55555555555556,0)" />
      </g>
      <path
         id="ay"
         d="M64 0c3-98 48-159 88-221H18v-27h164v26C143-157 98-101 97 0H64" />
      <path
         id="az"
         d="M33 0v-38h34V0H33" />
      <g
         id="v">
        <use
           id="use415"
           xlink:href="#au"
           transform="matrix(0.05925925925925927,0,0,0.05925925925925927,0,0)" />
        <use
           id="use417"
           xlink:href="#av"
           transform="matrix(0.05925925925925927,0,0,0.05925925925925927,11.851851851851853,0)" />
        <use
           id="use419"
           xlink:href="#ay"
           transform="matrix(0.05925925925925927,0,0,0.05925925925925927,23.703703703703706,0)" />
        <use
           id="use421"
           xlink:href="#ax"
           transform="matrix(0.05925925925925927,0,0,0.05925925925925927,35.55555555555556,0)" />
        <use
           id="use423"
           xlink:href="#az"
           transform="matrix(0.05925925925925927,0,0,0.05925925925925927,47.40740740740741,0)" />
      </g>
      <path
         id="aA"
         d="M185-189c-5-48-123-54-124 2 14 75 158 14 163 119 3 78-121 87-175 55-17-10-28-26-33-46l33-7c5 56 141 63 141-1 0-78-155-14-162-118-5-82 145-84 179-34 5 7 8 16 11 25" />
      <path
         id="aB"
         d="M115-194c53 0 69 39 70 98 0 66-23 100-70 100C84 3 66-7 56-30L54 0H23l1-261h32v101c10-23 28-34 59-34zm-8 174c40 0 45-34 45-75 0-40-5-75-45-74-42 0-51 32-51 76 0 43 10 73 51 73" />
      <path
         id="aC"
         d="M141-36C126-15 110 5 73 4 37 3 15-17 15-53c-1-64 63-63 125-63 3-35-9-54-41-54-24 1-41 7-42 31l-33-3c5-37 33-52 76-52 45 0 72 20 72 64v82c-1 20 7 32 28 27v20c-31 9-61-2-59-35zM48-53c0 20 12 33 32 33 41-3 63-29 60-74-43 2-92-5-92 41zm25-158c8-23 27-35 38-54h36v5l-58 49H73" />
      <g
         id="w">
        <use
           id="use429"
           xlink:href="#aA"
           transform="matrix(0.05925925925925927,0,0,0.05925925925925927,0,0)" />
        <use
           id="use431"
           xlink:href="#aq"
           transform="matrix(0.05925925925925927,0,0,0.05925925925925927,14.222222222222225,0)" />
        <use
           id="use433"
           xlink:href="#aB"
           transform="matrix(0.05925925925925927,0,0,0.05925925925925927,26.074074074074076,0)" />
        <use
           id="use435"
           xlink:href="#aC"
           transform="matrix(0.05925925925925927,0,0,0.05925925925925927,37.92592592592593,0)" />
        <use
           id="use437"
           xlink:href="#ah"
           transform="matrix(0.05925925925925927,0,0,0.05925925925925927,49.777777777777786,0)" />
        <use
           id="use439"
           xlink:href="#Z"
           transform="matrix(0.05925925925925927,0,0,0.05925925925925927,56.829629629629636,0)" />
        <use
           id="use441"
           xlink:href="#ag"
           transform="matrix(0.05925925925925927,0,0,0.05925925925925927,68.68148148148148,0)" />
      </g>
      <g
         id="x">
        <use
           id="use444"
           xlink:href="#Y"
           transform="matrix(0.05925925925925927,0,0,0.05925925925925927,0,0)" />
        <use
           id="use446"
           xlink:href="#ag"
           transform="matrix(0.05925925925925927,0,0,0.05925925925925927,11.851851851851853,0)" />
      </g>
      <g
         id="y">
        <use
           id="use449"
           xlink:href="#ab"
           transform="matrix(0.05925925925925927,0,0,0.05925925925925927,0,0)" />
        <use
           id="use451"
           xlink:href="#ac"
           transform="matrix(0.05925925925925927,0,0,0.05925925925925927,5.9259259259259265,0)" />
      </g>
      <path
         id="aD"
         d="M135-143c-3-34-86-38-87 0 15 53 115 12 119 90S17 21 10-45l28-5c4 36 97 45 98 0-10-56-113-15-118-90-4-57 82-63 122-42 12 7 21 19 24 35" />
      <g
         id="z">
        <use
           id="use455"
           xlink:href="#aq"
           transform="matrix(0.05925925925925927,0,0,0.05925925925925927,0,0)" />
        <use
           id="use457"
           xlink:href="#aD"
           transform="matrix(0.05925925925925927,0,0,0.05925925925925927,11.851851851851853,0)" />
        <use
           id="use459"
           xlink:href="#ag"
           transform="matrix(0.05925925925925927,0,0,0.05925925925925927,22.51851851851852,0)" />
      </g>
      <g
         id="A">
        <use
           id="use462"
           xlink:href="#ar"
           transform="matrix(0.05925925925925927,0,0,0.05925925925925927,0,0)" />
        <use
           id="use464"
           xlink:href="#ao"
           transform="matrix(0.05925925925925927,0,0,0.05925925925925927,17.718518518518522,0)" />
        <use
           id="use466"
           xlink:href="#as"
           transform="matrix(0.05925925925925927,0,0,0.05925925925925927,29.570370370370377,0)" />
        <use
           id="use468"
           xlink:href="#X"
           transform="matrix(0.05925925925925927,0,0,0.05925925925925927,35.4962962962963,0)" />
        <use
           id="use470"
           xlink:href="#Y"
           transform="matrix(0.05925925925925927,0,0,0.05925925925925927,47.348148148148155,0)" />
        <use
           id="use472"
           xlink:href="#X"
           transform="matrix(0.05925925925925927,0,0,0.05925925925925927,59.20000000000001,0)" />
        <use
           id="use474"
           xlink:href="#aD"
           transform="matrix(0.05925925925925927,0,0,0.05925925925925927,71.05185185185186,0)" />
      </g>
      <g
         id="B">
        <use
           id="use477"
           xlink:href="#Z"
           transform="matrix(0.05925925925925927,0,0,0.05925925925925927,0,0)" />
        <use
           id="use479"
           xlink:href="#aD"
           transform="matrix(0.05925925925925927,0,0,0.05925925925925927,11.851851851851853,0)" />
        <use
           id="use481"
           xlink:href="#as"
           transform="matrix(0.05925925925925927,0,0,0.05925925925925927,22.51851851851852,0)" />
        <use
           id="use483"
           xlink:href="#aC"
           transform="matrix(0.05925925925925927,0,0,0.05925925925925927,28.444444444444446,0)" />
        <use
           id="use485"
           xlink:href="#as"
           transform="matrix(0.05925925925925927,0,0,0.05925925925925927,40.2962962962963,0)" />
        <use
           id="use487"
           xlink:href="#aj"
           transform="matrix(0.05925925925925927,0,0,0.05925925925925927,46.22222222222222,0)" />
        <use
           id="use489"
           xlink:href="#al"
           transform="matrix(0.05925925925925927,0,0,0.05925925925925927,50.903703703703705,0)" />
        <use
           id="use491"
           xlink:href="#X"
           transform="matrix(0.05925925925925927,0,0,0.05925925925925927,61.57037037037037,0)" />
        <use
           id="use493"
           xlink:href="#aD"
           transform="matrix(0.05925925925925927,0,0,0.05925925925925927,73.42222222222222,0)" />
      </g>
      <g
         id="C">
        <use
           id="use496"
           xlink:href="#ae"
           transform="matrix(0.05925925925925927,0,0,0.05925925925925927,0,0)" />
        <use
           id="use498"
           xlink:href="#ag"
           transform="matrix(0.05925925925925927,0,0,0.05925925925925927,11.851851851851853,0)" />
        <use
           id="use500"
           xlink:href="#ah"
           transform="matrix(0.05925925925925927,0,0,0.05925925925925927,23.703703703703706,0)" />
        <use
           id="use502"
           xlink:href="#ag"
           transform="matrix(0.05925925925925927,0,0,0.05925925925925927,30.75555555555556,0)" />
      </g>
      <path
         id="aE"
         d="M108 0H70L1-190h34L89-25l56-165h34" />
      <g
         id="D">
        <use
           id="use506"
           xlink:href="#ah"
           transform="matrix(0.05925925925925927,0,0,0.05925925925925927,0,0)" />
        <use
           id="use508"
           xlink:href="#Z"
           transform="matrix(0.05925925925925927,0,0,0.05925925925925927,7.051851851851853,0)" />
        <use
           id="use510"
           xlink:href="#aD"
           transform="matrix(0.05925925925925927,0,0,0.05925925925925927,18.903703703703705,0)" />
        <use
           id="use512"
           xlink:href="#X"
           transform="matrix(0.05925925925925927,0,0,0.05925925925925927,29.570370370370373,0)" />
        <use
           id="use514"
           xlink:href="#aa"
           transform="matrix(0.05925925925925927,0,0,0.05925925925925927,41.422222222222224,0)" />
        <use
           id="use516"
           xlink:href="#aE"
           transform="matrix(0.05925925925925927,0,0,0.05925925925925927,46.10370370370371,0)" />
        <use
           id="use518"
           xlink:href="#Z"
           transform="matrix(0.05925925925925927,0,0,0.05925925925925927,56.77037037037037,0)" />
        <use
           id="use520"
           xlink:href="#ah"
           transform="matrix(0.05925925925925927,0,0,0.05925925925925927,68.62222222222222,0)" />
      </g>
      <g
         id="E">
        <use
           id="use523"
           xlink:href="#ae"
           transform="matrix(0.05925925925925927,0,0,0.05925925925925927,0,0)" />
        <use
           id="use525"
           xlink:href="#ah"
           transform="matrix(0.05925925925925927,0,0,0.05925925925925927,11.851851851851853,0)" />
        <use
           id="use527"
           xlink:href="#X"
           transform="matrix(0.05925925925925927,0,0,0.05925925925925927,18.903703703703705,0)" />
        <use
           id="use529"
           xlink:href="#aB"
           transform="matrix(0.05925925925925927,0,0,0.05925925925925927,30.75555555555556,0)" />
        <use
           id="use531"
           xlink:href="#aa"
           transform="matrix(0.05925925925925927,0,0,0.05925925925925927,42.607407407407415,0)" />
        <use
           id="use533"
           xlink:href="#Z"
           transform="matrix(0.05925925925925927,0,0,0.05925925925925927,47.2888888888889,0)" />
        <use
           id="use535"
           xlink:href="#ar"
           transform="matrix(0.05925925925925927,0,0,0.05925925925925927,59.14074074074075,0)" />
        <use
           id="use537"
           xlink:href="#ag"
           transform="matrix(0.05925925925925927,0,0,0.05925925925925927,76.85925925925928,0)" />
        <use
           id="use539"
           xlink:href="#at"
           transform="matrix(0.05925925925925927,0,0,0.05925925925925927,88.71111111111112,0)" />
      </g>
      <path
         id="aF"
         d="M134-131c28 9 52 24 51 62-1 50-34 73-85 73S17-19 16-69c0-36 21-54 49-61-75-25-45-126 34-121 46 3 78 18 79 63 0 33-17 51-44 57zm-34-11c31 1 46-15 46-44 0-28-17-43-47-42-29 0-46 13-45 42 1 28 16 44 46 44zm1 122c35 0 51-18 51-52 0-30-18-46-53-46-33 0-51 17-51 47 0 34 19 51 53 51" />
      <g
         id="F">
        <use
           id="use543"
           xlink:href="#au"
           transform="matrix(0.05925925925925927,0,0,0.05925925925925927,0,0)" />
        <use
           id="use545"
           xlink:href="#av"
           transform="matrix(0.05925925925925927,0,0,0.05925925925925927,11.851851851851853,0)" />
        <use
           id="use547"
           xlink:href="#aF"
           transform="matrix(0.05925925925925927,0,0,0.05925925925925927,23.703703703703706,0)" />
        <use
           id="use549"
           xlink:href="#ax"
           transform="matrix(0.05925925925925927,0,0,0.05925925925925927,35.55555555555556,0)" />
      </g>
      <path
         id="aG"
         d="M101-251c82-7 93 87 43 132L82-64C71-53 59-42 53-27h129V0H18c2-99 128-94 128-182 0-28-16-43-45-43s-46 15-49 41l-32-3c6-41 34-60 81-64" />
      <g
         id="G">
        <use
           id="use553"
           xlink:href="#aG"
           transform="matrix(0.05925925925925927,0,0,0.05925925925925927,0,0)" />
        <use
           id="use555"
           xlink:href="#ax"
           transform="matrix(0.05925925925925927,0,0,0.05925925925925927,11.851851851851853,0)" />
        <use
           id="use557"
           xlink:href="#ax"
           transform="matrix(0.05925925925925927,0,0,0.05925925925925927,23.703703703703706,0)" />
        <use
           id="use559"
           xlink:href="#ax"
           transform="matrix(0.05925925925925927,0,0,0.05925925925925927,35.55555555555556,0)" />
        <use
           id="use561"
           xlink:href="#az"
           transform="matrix(0.05925925925925927,0,0,0.05925925925925927,47.40740740740741,0)" />
      </g>
      <g
         id="H">
        <use
           id="use564"
           xlink:href="#Y"
           transform="matrix(0.05925925925925927,0,0,0.05925925925925927,0,0)" />
        <use
           id="use566"
           xlink:href="#X"
           transform="matrix(0.05925925925925927,0,0,0.05925925925925927,11.851851851851853,0)" />
      </g>
      <g
         id="I">
        <use
           id="use569"
           xlink:href="#W"
           transform="matrix(0.05925925925925927,0,0,0.05925925925925927,0,0)" />
        <use
           id="use571"
           xlink:href="#ag"
           transform="matrix(0.05925925925925927,0,0,0.05925925925925927,17.718518518518522,0)" />
        <use
           id="use573"
           xlink:href="#al"
           transform="matrix(0.05925925925925927,0,0,0.05925925925925927,29.570370370370377,0)" />
        <use
           id="use575"
           xlink:href="#am"
           transform="matrix(0.05925925925925927,0,0,0.05925925925925927,40.23703703703704,0)" />
        <use
           id="use577"
           xlink:href="#aj"
           transform="matrix(0.05925925925925927,0,0,0.05925925925925927,52.088888888888896,0)" />
        <use
           id="use579"
           xlink:href="#ai"
           transform="matrix(0.05925925925925927,0,0,0.05925925925925927,56.77037037037038,0)" />
        <use
           id="use581"
           xlink:href="#Z"
           transform="matrix(0.05925925925925927,0,0,0.05925925925925927,68.62222222222223,0)" />
      </g>
      <g
         id="J">
        <use
           id="use584"
           xlink:href="#af"
           transform="matrix(0.05925925925925927,0,0,0.05925925925925927,0,0)" />
        <use
           id="use586"
           xlink:href="#Z"
           transform="matrix(0.05925925925925927,0,0,0.05925925925925927,11.851851851851853,0)" />
        <use
           id="use588"
           xlink:href="#ag"
           transform="matrix(0.05925925925925927,0,0,0.05925925925925927,23.703703703703706,0)" />
        <use
           id="use590"
           xlink:href="#ah"
           transform="matrix(0.05925925925925927,0,0,0.05925925925925927,35.55555555555556,0)" />
        <use
           id="use592"
           xlink:href="#ai"
           transform="matrix(0.05925925925925927,0,0,0.05925925925925927,42.60740740740741,0)" />
        <use
           id="use594"
           xlink:href="#aj"
           transform="matrix(0.05925925925925927,0,0,0.05925925925925927,54.45925925925926,0)" />
        <use
           id="use596"
           xlink:href="#ak"
           transform="matrix(0.05925925925925927,0,0,0.05925925925925927,59.140740740740746,0)" />
      </g>
      <path
         id="aH"
         d="M9 0v-24l116-142H16v-24h144v24L44-24h123V0H9" />
      <g
         id="K">
        <use
           id="use600"
           xlink:href="#al"
           transform="matrix(0.05925925925925927,0,0,0.05925925925925927,0,0)" />
        <use
           id="use602"
           xlink:href="#ag"
           transform="matrix(0.05925925925925927,0,0,0.05925925925925927,10.666666666666668,0)" />
        <use
           id="use604"
           xlink:href="#ae"
           transform="matrix(0.05925925925925927,0,0,0.05925925925925927,22.51851851851852,0)" />
        <use
           id="use606"
           xlink:href="#ag"
           transform="matrix(0.05925925925925927,0,0,0.05925925925925927,34.370370370370374,0)" />
        <use
           id="use608"
           xlink:href="#aH"
           transform="matrix(0.05925925925925927,0,0,0.05925925925925927,46.22222222222223,0)" />
      </g>
      <g
         id="L">
        <use
           id="use611"
           xlink:href="#Y"
           transform="matrix(0.05925925925925927,0,0,0.05925925925925927,0,0)" />
        <use
           id="use613"
           xlink:href="#Z"
           transform="matrix(0.05925925925925927,0,0,0.05925925925925927,11.851851851851853,0)" />
      </g>
      <g
         id="M">
        <use
           id="use616"
           xlink:href="#ag"
           transform="matrix(0.05925925925925927,0,0,0.05925925925925927,0,0)" />
        <use
           id="use618"
           xlink:href="#ae"
           transform="matrix(0.05925925925925927,0,0,0.05925925925925927,11.851851851851853,0)" />
        <use
           id="use620"
           xlink:href="#ah"
           transform="matrix(0.05925925925925927,0,0,0.05925925925925927,23.703703703703706,0)" />
        <use
           id="use622"
           xlink:href="#Z"
           transform="matrix(0.05925925925925927,0,0,0.05925925925925927,30.75555555555556,0)" />
        <use
           id="use624"
           xlink:href="#ai"
           transform="matrix(0.05925925925925927,0,0,0.05925925925925927,42.607407407407415,0)" />
        <use
           id="use626"
           xlink:href="#Y"
           transform="matrix(0.05925925925925927,0,0,0.05925925925925927,54.45925925925927,0)" />
        <use
           id="use628"
           xlink:href="#Z"
           transform="matrix(0.05925925925925927,0,0,0.05925925925925927,66.31111111111112,0)" />
        <use
           id="use630"
           xlink:href="#ah"
           transform="matrix(0.05925925925925927,0,0,0.05925925925925927,78.16296296296296,0)" />
      </g>
      <g
         id="N">
        <use
           id="use633"
           xlink:href="#al"
           transform="matrix(0.05925925925925927,0,0,0.05925925925925927,0,0)" />
        <use
           id="use635"
           xlink:href="#X"
           transform="matrix(0.05925925925925927,0,0,0.05925925925925927,10.666666666666668,0)" />
        <use
           id="use637"
           xlink:href="#ar"
           transform="matrix(0.05925925925925927,0,0,0.05925925925925927,22.51851851851852,0)" />
      </g>
      <g
         id="O">
        <use
           id="use640"
           xlink:href="#aq"
           transform="matrix(0.05925925925925927,0,0,0.05925925925925927,0,0)" />
        <use
           id="use642"
           xlink:href="#aD"
           transform="matrix(0.05925925925925927,0,0,0.05925925925925927,11.851851851851853,0)" />
        <use
           id="use644"
           xlink:href="#X"
           transform="matrix(0.05925925925925927,0,0,0.05925925925925927,22.51851851851852,0)" />
      </g>
      <g
         id="P">
        <use
           id="use647"
           xlink:href="#Y"
           transform="matrix(0.05925925925925927,0,0,0.05925925925925927,0,0)" />
        <use
           id="use649"
           xlink:href="#Z"
           transform="matrix(0.05925925925925927,0,0,0.05925925925925927,11.851851851851853,0)" />
      </g>
      <g
         id="Q">
        <use
           id="use652"
           xlink:href="#ah"
           transform="matrix(0.05925925925925927,0,0,0.05925925925925927,0,0)" />
        <use
           id="use654"
           xlink:href="#Z"
           transform="matrix(0.05925925925925927,0,0,0.05925925925925927,7.051851851851853,0)" />
        <use
           id="use656"
           xlink:href="#Y"
           transform="matrix(0.05925925925925927,0,0,0.05925925925925927,18.903703703703705,0)" />
        <use
           id="use658"
           xlink:href="#Z"
           transform="matrix(0.05925925925925927,0,0,0.05925925925925927,30.75555555555556,0)" />
        <use
           id="use660"
           xlink:href="#aD"
           transform="matrix(0.05925925925925927,0,0,0.05925925925925927,42.607407407407415,0)" />
      </g>
      <g
         id="R">
        <use
           id="use663"
           xlink:href="#ai"
           transform="matrix(0.05925925925925927,0,0,0.05925925925925927,0,0)" />
        <use
           id="use665"
           xlink:href="#Z"
           transform="matrix(0.05925925925925927,0,0,0.05925925925925927,11.851851851851853,0)" />
        <use
           id="use667"
           xlink:href="#aq"
           transform="matrix(0.05925925925925927,0,0,0.05925925925925927,23.703703703703706,0)" />
        <use
           id="use669"
           xlink:href="#ah"
           transform="matrix(0.05925925925925927,0,0,0.05925925925925927,35.55555555555556,0)" />
        <use
           id="use671"
           xlink:href="#ag"
           transform="matrix(0.05925925925925927,0,0,0.05925925925925927,42.60740740740741,0)" />
        <use
           id="use673"
           xlink:href="#aj"
           transform="matrix(0.05925925925925927,0,0,0.05925925925925927,54.45925925925926,0)" />
        <use
           id="use675"
           xlink:href="#aD"
           transform="matrix(0.05925925925925927,0,0,0.05925925925925927,59.140740740740746,0)" />
        <use
           id="use677"
           xlink:href="#at"
           transform="matrix(0.05925925925925927,0,0,0.05925925925925927,69.80740740740741,0)" />
      </g>
      <g
         id="S">
        <use
           id="use680"
           xlink:href="#aG"
           transform="matrix(0.05925925925925927,0,0,0.05925925925925927,0,0)" />
        <use
           id="use682"
           xlink:href="#ax"
           transform="matrix(0.05925925925925927,0,0,0.05925925925925927,11.851851851851853,0)" />
        <use
           id="use684"
           xlink:href="#au"
           transform="matrix(0.05925925925925927,0,0,0.05925925925925927,23.703703703703706,0)" />
        <use
           id="use686"
           xlink:href="#ax"
           transform="matrix(0.05925925925925927,0,0,0.05925925925925927,35.55555555555556,0)" />
      </g>
      <g
         id="T">
        <use
           id="use689"
           xlink:href="#ag"
           transform="matrix(0.05925925925925927,0,0,0.05925925925925927,0,0)" />
        <use
           id="use691"
           xlink:href="#aj"
           transform="matrix(0.05925925925925927,0,0,0.05925925925925927,11.851851851851853,0)" />
        <use
           id="use693"
           xlink:href="#ai"
           transform="matrix(0.05925925925925927,0,0,0.05925925925925927,16.533333333333335,0)" />
        <use
           id="use695"
           xlink:href="#Y"
           transform="matrix(0.05925925925925927,0,0,0.05925925925925927,28.385185185185186,0)" />
        <use
           id="use697"
           xlink:href="#ag"
           transform="matrix(0.05925925925925927,0,0,0.05925925925925927,40.23703703703704,0)" />
      </g>
      <g
         id="U">
        <use
           id="use700"
           xlink:href="#Z"
           transform="matrix(0.05925925925925927,0,0,0.05925925925925927,0,0)" />
        <use
           id="use702"
           xlink:href="#ar"
           transform="matrix(0.05925925925925927,0,0,0.05925925925925927,11.851851851851853,0)" />
      </g>
      <path
         id="aI"
         d="M96-169c-40 0-48 33-48 73s9 75 48 75c24 0 41-14 43-38l32 2c-6 37-31 61-74 61-59 0-76-41-82-99-10-93 101-131 147-64 4 7 5 14 7 22l-32 3c-4-21-16-35-41-35zm3 187c19-1 33 8 33 26 0 31-30 33-64 32V58c18 2 39 4 41-13 1-15-18-13-34-13L87 0h19" />
      <path
         id="aJ"
         d="M141-36C126-15 110 5 73 4 37 3 15-17 15-53c-1-64 63-63 125-63 3-35-9-54-41-54-24 1-41 7-42 31l-33-3c5-37 33-52 76-52 45 0 72 20 72 64v82c-1 20 7 32 28 27v20c-31 9-61-2-59-35zM48-53c0 20 12 33 32 33 41-3 63-29 60-74-43 2-92-5-92 41zm117-205c-3 23-9 48-36 47-26-1-65-44-74 0H39c4-23 8-48 36-47s64 44 74 0h16" />
      <g
         id="V">
        <use
           id="use707"
           xlink:href="#Z"
           transform="matrix(0.05925925925925927,0,0,0.05925925925925927,0,0)" />
        <use
           id="use709"
           xlink:href="#aE"
           transform="matrix(0.05925925925925927,0,0,0.05925925925925927,11.851851851851853,0)" />
        <use
           id="use711"
           xlink:href="#X"
           transform="matrix(0.05925925925925927,0,0,0.05925925925925927,22.51851851851852,0)" />
        <use
           id="use713"
           xlink:href="#aa"
           transform="matrix(0.05925925925925927,0,0,0.05925925925925927,34.370370370370374,0)" />
        <use
           id="use715"
           xlink:href="#aq"
           transform="matrix(0.05925925925925927,0,0,0.05925925925925927,39.05185185185186,0)" />
        <use
           id="use717"
           xlink:href="#aI"
           transform="matrix(0.05925925925925927,0,0,0.05925925925925927,50.90370370370371,0)" />
        <use
           id="use719"
           xlink:href="#aJ"
           transform="matrix(0.05925925925925927,0,0,0.05925925925925927,61.57037037037038,0)" />
        <use
           id="use721"
           xlink:href="#X"
           transform="matrix(0.05925925925925927,0,0,0.05925925925925927,73.42222222222223,0)" />
        <use
           id="use723"
           xlink:href="#az"
           transform="matrix(0.05925925925925927,0,0,0.05925925925925927,85.27407407407408,0)" />
      </g>
    </defs>
  </g>
</svg>
