<svg xmlns="http://www.w3.org/2000/svg" xmlns:xlink="http://www.w3.org/1999/xlink" xmlns:lucid="lucid" width="584" height="579"><g transform="translate(-100 -252)" lucid:page-tab-id="0_0"><path d="M140 300h80v76.67h-80zM220 300h80v76.67h-80zM300 300h80v76.67h-80zM380 300h80v76.67h-80zM140 376.67h80v76.66h-80zM220 376.67h80v76.66h-80zM300 376.67h80v76.66h-80zM380 376.67h80v76.66h-80z" fill="#0c7cba"/><path d="M140 453.33h80V530h-80zM220 453.33h80V530h-80zM300 453.33h80V530h-80zM380 453.33h80V530h-80zM140 530h80v76.67h-80zM220 530h80v76.67h-80zM300 530h80v76.67h-80zM380 530h80v76.67h-80z" fill="#0c7cba"/><path d="M140 300v76.67M220 300v76.67M300 300v76.67M380 300v76.67M460 300v76.67M140 376.67v76.66M220 376.67v76.66M300 376.67v76.66M380 376.67v76.66M460 376.67v76.66M140 453.33V530M220 453.33V530M300 453.33V530M380 453.33V530M460 453.33V530M140 530v76.67M220 530v76.67M300 530v76.67M380 530v76.67M460 530v76.67M140 300h80M220 300h80M300 300h80M380 300h80M140 376.67h80M220 376.67h80M300 376.67h80M380 376.67h80M140 453.33h80M220 453.33h80M300 453.33h80M380 453.33h80M140 530h80M140 606.67h80M220 530h80M220 606.67h80M300 530h80M300 606.67h80M380 530h80M380 606.67h80" stroke="#000" stroke-width="2" fill="none"/><use xlink:href="#a" transform="matrix(1,0,0,1,145,305) translate(29.382716049382715 37.544444444444444)"/><use xlink:href="#b" transform="matrix(1,0,0,1,225,305) translate(29.382716049382715 37.544444444444444)"/><use xlink:href="#c" transform="matrix(1,0,0,1,305,305) translate(29.382716049382715 37.544444444444444)"/><use xlink:href="#d" transform="matrix(1,0,0,1,385,305) translate(29.382716049382715 37.544444444444444)"/><use xlink:href="#e" transform="matrix(1,0,0,1,145,381.6666666666667) translate(29.382716049382715 37.544444444444444)"/><use xlink:href="#f" transform="matrix(1,0,0,1,145,458.3333333333333) translate(29.382716049382715 37.544444444444444)"/><use xlink:href="#c" transform="matrix(1,0,0,1,145,535) translate(29.382716049382715 37.544444444444444)"/><path d="M200 360h80v76.67h-80zM280 360h80v76.67h-80zM360 360h80v76.67h-80zM440 360h80v76.67h-80zM200 436.67h80v76.66h-80zM280 436.67h80v76.66h-80zM360 436.67h80v76.66h-80zM440 436.67h80v76.66h-80zM200 513.33h80V590h-80zM280 513.33h80V590h-80zM360 513.33h80V590h-80zM440 513.33h80V590h-80zM200 590h80v76.67h-80zM280 590h80v76.67h-80zM360 590h80v76.67h-80zM440 590h80v76.67h-80z" fill="#19967d"/><path d="M200 360v76.67M280 360v76.67M360 360v76.67M440 360v76.67M520 360v76.67M200 436.67v76.66M280 436.67v76.66M360 436.67v76.66M440 436.67v76.66M520 436.67v76.66M200 513.33V590M280 513.33V590M360 513.33V590M440 513.33V590M520 513.33V590M200 590v76.67M280 590v76.67M360 590v76.67M440 590v76.67M520 590v76.67M200 360h80M280 360h80M360 360h80M440 360h80M200 436.67h80M280 436.67h80M360 436.67h80M440 436.67h80M200 513.33h80M280 513.33h80M360 513.33h80M440 513.33h80M200 590h80M200 666.67h80M280 590h80M280 666.67h80M360 590h80M360 666.67h80M440 590h80M440 666.67h80" stroke="#000" stroke-width="2" fill="none"/><use xlink:href="#g" transform="matrix(1,0,0,1,205,364.99999999999994) translate(29.38271604938272 37.544444444444444)"/><use xlink:href="#h" transform="matrix(1,0,0,1,285,364.99999999999994) translate(29.38271604938272 37.544444444444444)"/><use xlink:href="#i" transform="matrix(1,0,0,1,365,364.99999999999994) translate(29.38271604938272 37.544444444444444)"/><use xlink:href="#j" transform="matrix(1,0,0,1,445,364.99999999999994) translate(29.38271604938272 37.544444444444444)"/><use xlink:href="#k" transform="matrix(1,0,0,1,205,441.66666666666663) translate(23.765432098765437 37.544444444444444)"/><use xlink:href="#l" transform="matrix(1,0,0,1,205,518.3333333333333) translate(23.765432098765437 37.544444444444444)"/><use xlink:href="#m" transform="matrix(1,0,0,1,205,594.9999999999999) translate(29.38271604938272 37.544444444444444)"/><path d="M260 420h80v76.67h-80zM340 420h80v76.67h-80zM420 420h80v76.67h-80zM500 420h80v76.67h-80zM260 496.67h80v76.66h-80zM340 496.67h80v76.66h-80zM420 496.67h80v76.66h-80zM500 496.67h80v76.66h-80zM260 573.33h80V650h-80zM340 573.33h80V650h-80zM420 573.33h80V650h-80zM500 573.33h80V650h-80zM260 650h80v76.67h-80zM340 650h80v76.67h-80zM420 650h80v76.67h-80zM500 650h80v76.67h-80z" fill="#c92d39"/><path d="M260 420v76.67M340 420v76.67M420 420v76.67M500 420v76.67M580 420v76.67M260 496.67v76.66M340 496.67v76.66M420 496.67v76.66M500 496.67v76.66M580 496.67v76.66M260 573.33V650M340 573.33V650M420 573.33V650M500 573.33V650M580 573.33V650M260 650v76.67M340 650v76.67M420 650v76.67M500 650v76.67M580 650v76.67M260 420h80M340 420h80M420 420h80M500 420h80M260 496.67h80M340 496.67h80M420 496.67h80M500 496.67h80M260 573.33h80M340 573.33h80M420 573.33h80M500 573.33h80M260 650h80M260 726.67h80M340 650h80M340 726.67h80M420 650h80M420 726.67h80M500 650h80M500 726.67h80" stroke="#000" stroke-width="2" fill="none"/><use xlink:href="#n" transform="matrix(1,0,0,1,265,425) translate(21.296296296296298 38.43333333333334)"/><use xlink:href="#o" transform="matrix(1,0,0,1,345,425) translate(21.296296296296298 38.43333333333334)"/><use xlink:href="#p" transform="matrix(1,0,0,1,425,425) translate(21.296296296296298 38.43333333333334)"/><use xlink:href="#q" transform="matrix(1,0,0,1,505,425) translate(28.14814814814815 38.43333333333334)"/><use xlink:href="#r" transform="matrix(1,0,0,1,265,501.6666666666667) translate(28.14814814814815 38.43333333333334)"/><use xlink:href="#s" transform="matrix(1,0,0,1,345,501.6666666666667) translate(21.296296296296298 38.43333333333334)"/><use xlink:href="#t" transform="matrix(1,0,0,1,425,501.6666666666667) translate(21.296296296296298 38.43333333333334)"/><use xlink:href="#u" transform="matrix(1,0,0,1,505,501.6666666666667) translate(21.296296296296298 38.43333333333334)"/><use xlink:href="#v" transform="matrix(1,0,0,1,265,578.3333333333333) translate(28.14814814814815 38.43333333333334)"/><use xlink:href="#w" transform="matrix(1,0,0,1,345,578.3333333333333) translate(28.14814814814815 38.43333333333334)"/><use xlink:href="#x" transform="matrix(1,0,0,1,425,578.3333333333333) translate(28.14814814814815 38.43333333333334)"/><use xlink:href="#y" transform="matrix(1,0,0,1,505,578.3333333333333) translate(21.296296296296298 38.43333333333334)"/><use xlink:href="#v" transform="matrix(1,0,0,1,265,655) translate(28.14814814814815 38.43333333333334)"/><use xlink:href="#z" transform="matrix(1,0,0,1,345,655) translate(28.14814814814815 38.43333333333334)"/><use xlink:href="#A" transform="matrix(1,0,0,1,425,655) translate(28.14814814814815 38.43333333333334)"/><use xlink:href="#w" transform="matrix(1,0,0,1,505,655) translate(28.14814814814815 38.43333333333334)"/><path d="M620 420l40 40h-20v230h20l-40 40-40-40h20V460h-20z" stroke="#666" stroke-width="2" fill="#666"/><use xlink:href="#B" transform="matrix(6.123233995736765e-17,-1,1,6.123233995736765e-17,584.9999999999998,724.9999999999998) translate(124.08 38.4625)"/><path d="M260 770l40-40v20h240v-20l40 40-40 40v-20H300v20z" stroke="#666" stroke-width="2" fill="#666"/><use xlink:href="#C" transform="matrix(1,0,0,1,265,735) translate(121.58 38.4625)"/><path d="M488.28 278.58h56.57l-14.14 14.14 56.58 56.57 14.14-14.15v56.57h-56.57L559 377.57 502.42 321l-14.15 14.15z" stroke="#666" stroke-width="2" fill="#666"/><use xlink:href="#D" transform="matrix(0.7071067811865476,0.7071067811865475,-0.7071067811865475,0.7071067811865476,516.5685424949238,257.36544032709406) translate(7.604999999999999 38.4625)"/><use xlink:href="#E" transform="matrix(0.7071067811865476,0.7071067811865475,-0.7071067811865475,0.7071067811865476,516.5685424949238,257.36544032709406) translate(61.505 38.4625)"/><use xlink:href="#F" transform="matrix(0.7071067811865476,0.7071067811865475,-0.7071067811865475,0.7071067811865476,516.5685424949238,257.36544032709406) translate(87.45500000000001 38.4625)"/><defs><path fill="#fff" d="M155-56V0h-30v-56H8v-25l114-167h33v167h35v25h-35zm-30-156c-27 46-58 90-88 131h88v-131" id="G"/><use transform="matrix(0.056172839506172835,0,0,0.056172839506172835,0,0)" xlink:href="#G" id="a"/><path fill="#fff" d="M110-160c48 1 74 30 74 79 0 53-28 85-80 85-65 0-83-55-86-122-5-90 50-162 133-122 14 7 22 21 27 39l-31 6c-5-40-67-38-82-6-9 19-15 44-15 74 11-20 30-34 60-33zm-7 138c34 0 49-23 49-58s-16-56-50-56c-29 0-50 16-49 49 1 36 15 65 50 65" id="H"/><use transform="matrix(0.056172839506172835,0,0,0.056172839506172835,0,0)" xlink:href="#H" id="b"/><path fill="#fff" d="M27 0v-27h64v-190l-56 39v-29l58-41h29v221h61V0H27" id="I"/><use transform="matrix(0.056172839506172835,0,0,0.056172839506172835,0,0)" xlink:href="#I" id="c"/><path fill="#fff" d="M126-127c33 6 58 20 58 59 0 88-139 92-164 29-3-8-5-16-6-25l32-3c6 27 21 44 54 44 32 0 52-15 52-46 0-38-36-46-79-43v-28c39 1 72-4 72-42 0-27-17-43-46-43-28 0-47 15-49 41l-32-3c6-42 35-63 81-64 48-1 79 21 79 65 0 36-21 52-52 59" id="J"/><use transform="matrix(0.056172839506172835,0,0,0.056172839506172835,0,0)" xlink:href="#J" id="d"/><path fill="#fff" d="M101-251c68 0 85 55 85 127S166 4 100 4C33 4 14-52 14-124c0-73 17-127 87-127zm-1 229c47 0 54-49 54-102s-4-102-53-102c-51 0-55 48-55 102 0 53 5 102 54 102" id="K"/><use transform="matrix(0.056172839506172835,0,0,0.056172839506172835,0,0)" xlink:href="#K" id="e"/><path fill="#fff" d="M101-251c82-7 93 87 43 132L82-64C71-53 59-42 53-27h129V0H18c2-99 128-94 128-182 0-28-16-43-45-43s-46 15-49 41l-32-3c6-41 34-60 81-64" id="L"/><use transform="matrix(0.056172839506172835,0,0,0.056172839506172835,0,0)" xlink:href="#L" id="f"/><path fill="#fff" d="M99-251c69 0 84 53 88 123 5 99-61 162-144 118-15-8-21-25-26-45l46-6c4 31 50 33 63 7 7-15 12-36 12-60-9 18-29 28-54 28-48 0-72-32-72-82 0-55 31-83 87-83zm-1 128c24 0 37-16 37-39 0-27-10-51-37-51-25 0-35 19-35 45 0 25 10 45 35 45" id="M"/><use transform="matrix(0.056172839506172814,0,0,0.056172839506172814,0,0)" xlink:href="#M" id="g"/><path fill="#fff" d="M52 0c1-96 47-148 87-207H15v-41h169v40c-36 62-79 113-81 208H52" id="N"/><use transform="matrix(0.056172839506172814,0,0,0.056172839506172814,0,0)" xlink:href="#N" id="h"/><path fill="#fff" d="M128-127c34 4 56 21 59 58 7 91-148 94-172 28-4-9-6-17-7-26l51-5c1 24 16 35 40 36 23 0 39-12 38-36-1-31-31-36-65-34v-40c32 2 59-3 59-33 0-20-13-33-34-33s-33 13-35 32l-50-3c6-44 37-68 86-68 50 0 83 20 83 66 0 35-22 52-53 58" id="O"/><use transform="matrix(0.056172839506172814,0,0,0.056172839506172814,0,0)" xlink:href="#O" id="i"/><path fill="#fff" d="M182-182c0 78-84 86-111 141h115V0H12c-6-101 99-100 120-180 1-22-12-31-33-32-23 0-32 14-35 34l-49-3c5-45 32-70 84-70 51 0 83 22 83 69" id="P"/><use transform="matrix(0.056172839506172814,0,0,0.056172839506172814,0,0)" xlink:href="#P" id="j"/><path fill="#fff" d="M115-159c48 0 72 30 72 78 0 54-30 85-83 85-64 0-91-50-91-122 0-98 58-163 141-120 15 8 21 24 27 44l-47 6c-5-31-48-31-61-4-7 14-11 33-11 60 9-17 28-27 53-27zM102-35c24 0 36-20 36-45s-11-43-37-43c-23 0-36 14-36 38 0 27 11 50 37 50" id="Q"/><g id="k"><use transform="matrix(0.056172839506172814,0,0,0.056172839506172814,0,0)" xlink:href="#P"/><use transform="matrix(0.056172839506172814,0,0,0.056172839506172814,11.234567901234563,0)" xlink:href="#Q"/></g><path fill="#fff" d="M23 0v-37h61v-169l-59 37v-38l62-41h46v211h57V0H23" id="R"/><path fill="#fff" d="M139-81c0-46-55-55-73-27H18l9-140h149v37H72l-4 63c44-38 133-4 122 66C201 21 21 35 11-62l49-4c5 18 15 30 39 30 26 0 40-18 40-45" id="S"/><g id="l"><use transform="matrix(0.056172839506172814,0,0,0.056172839506172814,0,0)" xlink:href="#R"/><use transform="matrix(0.056172839506172814,0,0,0.056172839506172814,11.234567901234563,0)" xlink:href="#S"/></g><path fill="#fff" d="M138-131c27 9 52 24 51 61 0 53-36 74-89 74S11-19 11-69c0-35 22-54 51-61-78-25-46-121 38-121 51 0 83 19 83 66 0 30-18 49-45 54zm-38-16c24 0 32-13 32-36 1-23-11-34-32-34-22 0-33 12-32 34 0 22 9 36 32 36zm1 116c27 0 37-17 37-43 0-25-13-39-39-39-24 0-37 15-37 40 0 27 11 42 39 42" id="T"/><use transform="matrix(0.056172839506172814,0,0,0.056172839506172814,0,0)" xlink:href="#T" id="m"/><g id="n"><use transform="matrix(0.0685185185185185,0,0,0.0685185185185185,0,0)" xlink:href="#I"/><use transform="matrix(0.0685185185185185,0,0,0.0685185185185185,13.7037037037037,0)" xlink:href="#J"/></g><path fill="#fff" d="M99-251c64 0 84 50 84 122C183-37 130 33 47-8c-14-7-20-23-25-40l30-5c6 39 69 39 84 7 9-19 16-44 16-74-10 22-31 35-62 35-49 0-73-33-73-83 0-54 28-83 82-83zm-1 141c31-1 51-18 51-49 0-36-14-67-51-67-34 0-49 23-49 58 0 34 15 58 49 58" id="U"/><g id="o"><use transform="matrix(0.0685185185185185,0,0,0.0685185185185185,0,0)" xlink:href="#I"/><use transform="matrix(0.0685185185185185,0,0,0.0685185185185185,13.7037037037037,0)" xlink:href="#U"/></g><path fill="#fff" d="M54-142c48-35 137-8 131 61C196 18 31 33 14-55l32-4c7 23 22 37 52 37 35-1 51-22 54-58 4-55-73-65-99-34H22l8-134h141v27H59" id="V"/><g id="p"><use transform="matrix(0.0685185185185185,0,0,0.0685185185185185,0,0)" xlink:href="#L"/><use transform="matrix(0.0685185185185185,0,0,0.0685185185185185,13.7037037037037,0)" xlink:href="#V"/></g><use transform="matrix(0.0685185185185185,0,0,0.0685185185185185,0,0)" xlink:href="#H" id="q"/><use transform="matrix(0.0685185185185185,0,0,0.0685185185185185,0,0)" xlink:href="#G" id="r"/><g id="s"><use transform="matrix(0.0685185185185185,0,0,0.0685185185185185,0,0)" xlink:href="#L"/><use transform="matrix(0.0685185185185185,0,0,0.0685185185185185,13.7037037037037,0)" xlink:href="#L"/></g><g id="t"><use transform="matrix(0.0685185185185185,0,0,0.0685185185185185,0,0)" xlink:href="#I"/><use transform="matrix(0.0685185185185185,0,0,0.0685185185185185,13.7037037037037,0)" xlink:href="#H"/></g><g id="u"><use transform="matrix(0.0685185185185185,0,0,0.0685185185185185,0,0)" xlink:href="#V"/><use transform="matrix(0.0685185185185185,0,0,0.0685185185185185,13.7037037037037,0)" xlink:href="#J"/></g><use transform="matrix(0.0685185185185185,0,0,0.0685185185185185,0,0)" xlink:href="#K" id="v"/><use transform="matrix(0.0685185185185185,0,0,0.0685185185185185,0,0)" xlink:href="#J" id="w"/><path fill="#fff" d="M64 0c3-98 48-159 88-221H18v-27h164v26C143-157 98-101 97 0H64" id="W"/><use transform="matrix(0.0685185185185185,0,0,0.0685185185185185,0,0)" xlink:href="#W" id="x"/><g id="y"><use transform="matrix(0.0685185185185185,0,0,0.0685185185185185,0,0)" xlink:href="#I"/><use transform="matrix(0.0685185185185185,0,0,0.0685185185185185,13.7037037037037,0)" xlink:href="#K"/></g><path fill="#fff" d="M134-131c28 9 52 24 51 62-1 50-34 73-85 73S17-19 16-69c0-36 21-54 49-61-75-25-45-126 34-121 46 3 78 18 79 63 0 33-17 51-44 57zm-34-11c31 1 46-15 46-44 0-28-17-43-47-42-29 0-46 13-45 42 1 28 16 44 46 44zm1 122c35 0 51-18 51-52 0-30-18-46-53-46-33 0-51 17-51 47 0 34 19 51 53 51" id="X"/><use transform="matrix(0.0685185185185185,0,0,0.0685185185185185,0,0)" xlink:href="#X" id="z"/><use transform="matrix(0.0685185185185185,0,0,0.0685185185185185,0,0)" xlink:href="#I" id="A"/><path fill="#fff" d="M199 0l-22-63H83L61 0H9l90-248h61L250 0h-51zm-33-102l-36-108c-10 38-24 72-36 108h72" id="Y"/><path fill="#fff" d="M25 0v-261h50V0H25" id="Z"/><path fill="#fff" d="M115-3C79 11 28 4 28-45v-112H4v-33h27l15-45h31v45h36v33H77v99c-1 23 16 31 38 25v30" id="aa"/><path fill="#fff" d="M85 4C-2 5 27-109 22-190h50c7 57-23 150 33 157 60-5 35-97 40-157h50l1 190h-47c-2-12 1-28-3-38-12 25-28 42-61 42" id="ab"/><path fill="#fff" d="M135-150c-39-12-60 13-60 57V0H25l-1-190h47c2 13-1 29 3 40 6-28 27-53 61-41v41" id="ac"/><path fill="#fff" d="M133-34C117-15 103 5 69 4 32 3 11-16 11-54c-1-60 55-63 116-61 1-26-3-47-28-47-18 1-26 9-28 27l-52-2c7-38 36-58 82-57s74 22 75 68l1 82c-1 14 12 18 25 15v27c-30 8-71 5-69-32zm-48 3c29 0 43-24 42-57-32 0-66-3-65 30 0 17 8 27 23 27" id="ad"/><g id="B"><use transform="matrix(0.05,0,0,0.05,0,0)" xlink:href="#Y"/><use transform="matrix(0.05,0,0,0.05,12.950000000000001,0)" xlink:href="#Z"/><use transform="matrix(0.05,0,0,0.05,17.950000000000003,0)" xlink:href="#aa"/><use transform="matrix(0.05,0,0,0.05,23.900000000000002,0)" xlink:href="#ab"/><use transform="matrix(0.05,0,0,0.05,34.85,0)" xlink:href="#ac"/><use transform="matrix(0.05,0,0,0.05,41.85,0)" xlink:href="#ad"/></g><path fill="#fff" d="M24 0v-248h52v208h133V0H24" id="ae"/><path fill="#fff" d="M195-6C206 82 75 100 31 46c-4-6-6-13-8-21l49-6c3 16 16 24 34 25 40 0 42-37 40-79-11 22-30 35-61 35-53 0-70-43-70-97 0-56 18-96 73-97 30 0 46 14 59 34l2-30h47zm-90-29c32 0 41-27 41-63 0-35-9-62-40-62-32 0-39 29-40 63 0 36 9 62 39 62" id="af"/><g id="C"><use transform="matrix(0.05,0,0,0.05,0,0)" xlink:href="#ae"/><use transform="matrix(0.05,0,0,0.05,10.950000000000001,0)" xlink:href="#ad"/><use transform="matrix(0.05,0,0,0.05,20.950000000000003,0)" xlink:href="#ac"/><use transform="matrix(0.05,0,0,0.05,27.950000000000003,0)" xlink:href="#af"/><use transform="matrix(0.05,0,0,0.05,38.900000000000006,0)" xlink:href="#ab"/><use transform="matrix(0.05,0,0,0.05,49.85000000000001,0)" xlink:href="#ac"/><use transform="matrix(0.05,0,0,0.05,56.85,0)" xlink:href="#ad"/></g><path fill="#fff" d="M67-125c0 53 21 87 73 88 37 1 54-22 65-47l45 17C233-25 199 4 140 4 58 4 20-42 15-125 8-235 124-281 211-232c18 10 29 29 36 50l-46 12c-8-25-30-41-62-41-52 0-71 34-72 86" id="ag"/><path fill="#fff" d="M135-194c87-1 58 113 63 194h-50c-7-57 23-157-34-157-59 0-34 97-39 157H25l-1-190h47c2 12-1 28 3 38 12-26 28-41 61-42" id="ah"/><g id="D"><use transform="matrix(0.05,0,0,0.05,0,0)" xlink:href="#ag"/><use transform="matrix(0.05,0,0,0.05,12.950000000000001,0)" xlink:href="#ad"/><use transform="matrix(0.05,0,0,0.05,22.950000000000003,0)" xlink:href="#ah"/><use transform="matrix(0.05,0,0,0.05,33.900000000000006,0)" xlink:href="#ad"/><use transform="matrix(0.05,0,0,0.05,43.900000000000006,0)" xlink:href="#Z"/></g><path fill="#fff" d="M88-194c31-1 46 15 58 34l-1-101h50l1 261h-48c-2-10 0-23-3-31C134-8 116 4 84 4 32 4 16-41 15-95c0-56 19-97 73-99zm17 164c33 0 40-30 41-66 1-37-9-64-41-64s-38 30-39 65c0 43 13 65 39 65" id="ai"/><path fill="#fff" d="M185-48c-13 30-37 53-82 52C43 2 14-33 14-96s30-98 90-98c62 0 83 45 84 108H66c0 31 8 55 39 56 18 0 30-7 34-22zm-45-69c5-46-57-63-70-21-2 6-4 13-4 21h74" id="aj"/><g id="E"><use transform="matrix(0.05,0,0,0.05,0,0)" xlink:href="#ai"/><use transform="matrix(0.05,0,0,0.05,10.950000000000001,0)" xlink:href="#aj"/></g><path fill="#fff" d="M190-63c-7 42-38 67-86 67-59 0-84-38-90-98-12-110 154-137 174-36l-49 2c-2-19-15-32-35-32-30 0-35 28-38 64-6 74 65 87 74 30" id="ak"/><path fill="#fff" d="M110-194c64 0 96 36 96 99 0 64-35 99-97 99-61 0-95-36-95-99 0-62 34-99 96-99zm-1 164c35 0 45-28 45-65 0-40-10-65-43-65-34 0-45 26-45 65 0 36 10 65 43 65" id="al"/><path fill="#fff" d="M137-138c1-29-70-34-71-4 15 46 118 7 119 86 1 83-164 76-172 9l43-7c4 19 20 25 44 25 33 8 57-30 24-41C81-84 22-81 20-136c-2-80 154-74 161-7" id="am"/><g id="F"><use transform="matrix(0.05,0,0,0.05,0,0)" xlink:href="#ak"/><use transform="matrix(0.05,0,0,0.05,10,0)" xlink:href="#al"/><use transform="matrix(0.05,0,0,0.05,20.950000000000003,0)" xlink:href="#ac"/><use transform="matrix(0.05,0,0,0.05,27.950000000000003,0)" xlink:href="#ac"/><use transform="matrix(0.05,0,0,0.05,34.95,0)" xlink:href="#aj"/><use transform="matrix(0.05,0,0,0.05,44.95,0)" xlink:href="#am"/></g></defs></g></svg>