<svg xmlns="http://www.w3.org/2000/svg" xmlns:xlink="http://www.w3.org/1999/xlink" xmlns:lucid="lucid" width="1320" height="640"><g transform="translate(-20 -300)" lucid:page-tab-id="0_0"><path d="M240 440c0 22.1-17.9 40-40 40s-40-17.9-40-40 17.9-40 40-40 40 17.9 40 40z" stroke="#834187" stroke-width="2" fill="#fff"/><use xlink:href="#a" transform="matrix(1,0,0,1,165,405) translate(29 38.4625)"/><path d="M480 500c0 22.1-17.9 40-40 40s-40-17.9-40-40 17.9-40 40-40 40 17.9 40 40z" stroke="#c92d39" stroke-width="2" fill="#c92d39"/><path d="M240 560c0 22.1-17.9 40-40 40s-40-17.9-40-40 17.9-40 40-40 40 17.9 40 40z" stroke="#834187" stroke-width="2" fill="#fff"/><use xlink:href="#b" transform="matrix(1,0,0,1,165,525) translate(28.525 38.4625)"/><path d="M240 680c0 22.1-17.9 40-40 40s-40-17.9-40-40 17.9-40 40-40 40 17.9 40 40z" stroke="#834187" stroke-width="2" fill="#fff"/><use xlink:href="#c" transform="matrix(1,0,0,1,165,645) translate(28.525 38.4625)"/><path d="M240 800c0 22.1-17.9 40-40 40s-40-17.9-40-40 17.9-40 40-40 40 17.9 40 40z" stroke="#834187" stroke-width="2" fill="#fff"/><use xlink:href="#d" transform="matrix(1,0,0,1,165,765) translate(28.525 38.4625)"/><path d="M480 620c0 22.1-17.9 40-40 40s-40-17.9-40-40 17.9-40 40-40 40 17.9 40 40zM480 740c0 22.1-17.9 40-40 40s-40-17.9-40-40 17.9-40 40-40 40 17.9 40 40zM480 880c0 22.1-17.9 40-40 40s-40-17.9-40-40 17.9-40 40-40 40 17.9 40 40zM480 360c0 22.1-17.9 40-40 40s-40-17.9-40-40 17.9-40 40-40 40 17.9 40 40z" stroke="#c92d39" stroke-width="2" fill="#c92d39"/><path d="M720 420c0 22.1-17.9 40-40 40s-40-17.9-40-40 17.9-40 40-40 40 17.9 40 40zM720 540c0 22.1-17.9 40-40 40s-40-17.9-40-40 17.9-40 40-40 40 17.9 40 40zM720 660c0 22.1-17.9 40-40 40s-40-17.9-40-40 17.9-40 40-40 40 17.9 40 40zM720 780c0 22.1-17.9 40-40 40s-40-17.9-40-40 17.9-40 40-40 40 17.9 40 40z" stroke="#19967d" stroke-width="2" fill="#19967d"/><path d="M960 480c0 22.1-17.9 40-40 40s-40-17.9-40-40 17.9-40 40-40 40 17.9 40 40zM960 600c0 22.1-17.9 40-40 40s-40-17.9-40-40 17.9-40 40-40 40 17.9 40 40zM960 720c0 22.1-17.9 40-40 40s-40-17.9-40-40 17.9-40 40-40 40 17.9 40 40z" stroke="#3aa6dd" stroke-width="2" fill="#3aa6dd"/><path d="M1200 600c0 22.1-17.9 40-40 40s-40-17.9-40-40 17.9-40 40-40 40 17.9 40 40z" stroke="#fcc438" stroke-width="2" fill="#fff"/><path d="M40 410h60v60H40z" stroke="#000" stroke-opacity="0" stroke-width="2" fill="#fff" fill-opacity="0"/><use xlink:href="#e" transform="matrix(1,0,0,1,45,415) translate(9 29.56666666666667)"/><use xlink:href="#f" transform="matrix(1,0,0,1,45,415) translate(29 29.56666666666667)"/><path d="M40 530h60v60H40z" stroke="#000" stroke-opacity="0" stroke-width="2" fill="#fff" fill-opacity="0"/><use xlink:href="#e" transform="matrix(1,0,0,1,45,535) translate(9 30.025)"/><use xlink:href="#g" transform="matrix(1,0,0,1,45,535) translate(29 30.025)"/><path d="M40 650h60v60H40z" stroke="#000" stroke-opacity="0" stroke-width="2" fill="#fff" fill-opacity="0"/><use xlink:href="#e" transform="matrix(1,0,0,1,45,655) translate(8.524999999999999 30.025)"/><use xlink:href="#h" transform="matrix(1,0,0,1,45,655) translate(28.525 30.025)"/><path d="M40 770h60v60H40z" stroke="#000" stroke-opacity="0" stroke-width="2" fill="#fff" fill-opacity="0"/><use xlink:href="#e" transform="matrix(1,0,0,1,45,775) translate(8.524999999999999 29.56666666666667)"/><use xlink:href="#i" transform="matrix(1,0,0,1,45,775) translate(28.525 29.56666666666667)"/><path d="M101 440h39.5" stroke="#834187" stroke-width="2" fill="none"/><path d="M101.03 441H100v-2h1.03z" fill="#834187"/><path d="M155.76 440l-14.26 4.64v-9.28z" stroke="#834187" stroke-width="2" fill="#834187"/><path d="M101 560h39.5" stroke="#834187" stroke-width="2" fill="none"/><path d="M101.03 561H100v-2h1.03z" fill="#834187"/><path d="M155.76 560l-14.26 4.64v-9.28z" stroke="#834187" stroke-width="2" fill="#834187"/><path d="M101 680h39.5" stroke="#834187" stroke-width="2" fill="none"/><path d="M101.03 681H100v-2h1.03z" fill="#834187"/><path d="M155.76 680l-14.26 4.64v-9.28z" stroke="#834187" stroke-width="2" fill="#834187"/><path d="M101 800h39.5" stroke="#834187" stroke-width="2" fill="none"/><path d="M101.03 801H100v-2h1.03z" fill="#834187"/><path d="M155.76 800l-14.26 4.64v-9.28z" stroke="#834187" stroke-width="2" fill="#834187"/><path d="M1240 570h80v60h-80z" stroke="#000" stroke-opacity="0" stroke-width="2" fill="#fff" fill-opacity="0"/><use xlink:href="#j" transform="matrix(1,0,0,1,1245,575) translate(20.5 30.025)"/><path d="M1202 600h19.5" stroke="#ffc374" stroke-width="2" fill="none"/><path d="M1202.03 601h-1.1l.07-1-.03-1h1.06z" fill="#ffc374"/><path d="M1236.76 600l-14.26 4.64v-9.28z" stroke="#ffc374" stroke-width="2" fill="#ffc374"/><path d="M241.22 439.9l144.1-72.98" stroke="#0c7cba" stroke-width=".5" fill="none"/><path d="M241.34 440.1l-.36.2.02-.3v-.28l.12-.06z" fill="#0c7cba"/><path d="M398.28 360.37l-10.64 10.58-4.18-8.28z" stroke="#0c7cba" stroke-width=".5" fill="#0c7cba"/><path d="M241.23 440.1l143.44 54.46" stroke="#0c7cba" stroke-width=".5" fill="none"/><path d="M241.33 439.86l-.18.46-.16-.06v-.52z" fill="#0c7cba"/><path d="M398.24 499.7l-14.98-.72 3.3-8.67z" stroke="#0c7cba" stroke-width=".5" fill="#0c7cba"/><path d="M241.17 440.2L388.9 608.47" stroke="#0c7cba" stroke-width=".5" fill="none"/><path d="M241.36 440.03l-.38.33.02-.35v-.4z" fill="#0c7cba"/><path d="M398.47 619.4l-12.9-7.67 6.97-6.12z" stroke="#0c7cba" stroke-width=".5" fill="#0c7cba"/><path d="M241.12 440.22l150.74 286.22" stroke="#0c7cba" stroke-width=".5" fill="none"/><path d="M241.34 440.1l-.36.2.02-.3-.02-.58z" fill="#0c7cba"/><path d="M398.62 739.28l-10.75-10.46 8.2-4.32z" stroke="#0c7cba" stroke-width=".5" fill="#0c7cba"/><path d="M241.1 440.24L393.8 865.58" stroke="#0c7cba" stroke-width=".5" fill="none"/><path d="M241.32 440.16l-.34.12.02-.27-.03-.82z" fill="#0c7cba"/><path d="M398.73 879.24l-9.2-11.86 8.74-3.13z" stroke="#0c7cba" stroke-width=".5" fill="#0c7cba"/><path d="M241.16 559.8L389.5 372.03" stroke="#ef8d22" stroke-width=".5" fill="none"/><path d="M241.36 559.95l-.4.5.04-.44v-.34z" fill="#ef8d22"/><path d="M398.5 360.63l-5.2 14.07-7.28-5.74z" stroke="#ef8d22" stroke-width=".5" fill="#ef8d22"/><path d="M241.23 559.9l143.44-54.46" stroke="#ef8d22" stroke-width=".5" fill="none"/><path d="M241.33 560.14l-.35.13.02-.26v-.26l.15-.06z" fill="#ef8d22"/><path d="M398.24 500.3l-11.7 9.4-3.28-8.68z" stroke="#ef8d22" stroke-width=".5" fill="#ef8d22"/><path d="M241.23 560.1l143.44 54.46" stroke="#ef8d22" stroke-width=".5" fill="none"/><path d="M241.33 559.86l-.18.46-.16-.06v-.52z" fill="#ef8d22"/><path d="M398.24 619.7l-14.98-.72 3.3-8.67z" stroke="#ef8d22" stroke-width=".5" fill="#ef8d22"/><path d="M241.17 560.2L388.9 728.47" stroke="#ef8d22" stroke-width=".5" fill="none"/><path d="M241.36 560.03l-.38.33.02-.35v-.4z" fill="#ef8d22"/><path d="M398.47 739.4l-12.9-7.67 6.97-6.12z" stroke="#ef8d22" stroke-width=".5" fill="#ef8d22"/><path d="M241.1 560.22l151.1 306.04" stroke="#ef8d22" stroke-width=".5" fill="none"/><path d="M241.34 560.12l-.36.17.02-.3-.02-.6z" fill="#ef8d22"/><path d="M398.64 879.27l-10.47-10.73 8.3-4.1z" stroke="#ef8d22" stroke-width=".5" fill="#ef8d22"/><path d="M241.1 679.78l151.1-306.04" stroke="#19967d" stroke-width=".5" fill="none"/><path d="M241.34 679.88l-.38.76.04-.63v-.3z" fill="#19967d"/><path d="M398.64 360.73l-2.16 14.84-8.3-4.1z" stroke="#19967d" stroke-width=".5" fill="#19967d"/><path d="M241.17 679.8L388.9 511.53" stroke="#19967d" stroke-width=".5" fill="none"/><path d="M241.36 679.97l-.38.44.02-.4v-.35z" fill="#19967d"/><path d="M398.47 500.6l-5.93 13.8-6.97-6.13z" stroke="#19967d" stroke-width=".5" fill="#19967d"/><path d="M241.23 679.9l143.44-54.46" stroke="#19967d" stroke-width=".5" fill="none"/><path d="M241.33 680.14l-.35.13.02-.26v-.26l.15-.06z" fill="#19967d"/><path d="M398.24 620.3l-11.7 9.4-3.28-8.68z" stroke="#19967d" stroke-width=".5" fill="#19967d"/><path d="M241.23 680.1l143.44 54.46" stroke="#19967d" stroke-width=".5" fill="none"/><path d="M241.33 679.86l-.18.46-.16-.06v-.52z" fill="#19967d"/><path d="M398.24 739.7l-14.98-.72 3.3-8.67z" stroke="#19967d" stroke-width=".5" fill="#19967d"/><path d="M241.16 680.2L389.5 867.97" stroke="#19967d" stroke-width=".5" fill="none"/><path d="M241.36 680.05l-.38.3.02-.34v-.42z" fill="#19967d"/><path d="M398.5 879.37l-12.48-8.33 7.27-5.74z" stroke="#19967d" stroke-width=".5" fill="#19967d"/><path d="M241.1 799.76L393.8 374.42" stroke="#834187" stroke-width=".5" fill="none"/><path d="M241.32 799.84l-.37 1.05.05-.9v-.28z" fill="#834187"/><path d="M398.73 360.76l-.46 15-8.73-3.14z" stroke="#834187" stroke-width=".5" fill="#834187"/><path d="M241.12 799.78l150.74-286.22" stroke="#834187" stroke-width=".5" fill="none"/><path d="M241.34 799.9l-.38.7.04-.6v-.3z" fill="#834187"/><path d="M398.62 500.72l-2.54 14.78-8.2-4.32z" stroke="#834187" stroke-width=".5" fill="#834187"/><path d="M241.17 799.8L388.9 631.53" stroke="#834187" stroke-width=".5" fill="none"/><path d="M241.36 799.97l-.38.44.02-.4v-.35z" fill="#834187"/><path d="M398.47 620.6l-5.93 13.8-6.97-6.13z" stroke="#834187" stroke-width=".5" fill="#834187"/><path d="M241.23 799.9l143.44-54.46" stroke="#834187" stroke-width=".5" fill="none"/><path d="M241.33 800.14l-.35.13.02-.26v-.26l.15-.06z" fill="#834187"/><path d="M398.24 740.3l-11.7 9.4-3.28-8.68z" stroke="#834187" stroke-width=".5" fill="#834187"/><path d="M241.22 800.1l144.1 72.98" stroke="#834187" stroke-width=".5" fill="none"/><path d="M241.34 799.9l-.22.44-.14-.07.02-.26v-.3z" fill="#834187"/><path d="M398.28 879.63l-14.82-2.3 4.18-8.28z" stroke="#834187" stroke-width=".5" fill="#834187"/><path d="M481.23 360.1l143.44 54.46" stroke="#0c7cba" stroke-width=".5" fill="none"/><path d="M481.33 359.86l-.18.46-.16-.06v-.52z" fill="#0c7cba"/><path d="M638.24 419.7l-14.98-.72 3.3-8.67z" stroke="#0c7cba" stroke-width=".5" fill="#0c7cba"/><path d="M481.17 360.2L628.9 528.47" stroke="#0c7cba" stroke-width=".5" fill="none"/><path d="M481.36 360.03l-.38.33.02-.35v-.4z" fill="#0c7cba"/><path d="M638.47 539.4l-12.9-7.67 6.97-6.12z" stroke="#0c7cba" stroke-width=".5" fill="#0c7cba"/><path d="M481.12 360.22l150.74 286.22" stroke="#0c7cba" stroke-width=".5" fill="none"/><path d="M481.34 360.1l-.36.2.02-.3-.02-.58z" fill="#0c7cba"/><path d="M638.62 659.28l-10.75-10.46 8.2-4.32z" stroke="#0c7cba" stroke-width=".5" fill="#0c7cba"/><path d="M481.1 360.23L636.86 781.3" stroke="#0c7cba" stroke-width=".5" fill="none"/><path d="M481.32 360.15l-.34.13.02-.27-.03-.8z" fill="#0c7cba"/><path d="M641.9 794.9l-9.3-11.76 8.7-3.22z" stroke="#0c7cba" stroke-width=".5" fill="#0c7cba"/><path d="M481.22 499.9l144.1-72.98" stroke="#ffc374" stroke-width=".5" fill="none"/><path d="M481.34 500.1l-.36.2.02-.3v-.28l.12-.06z" fill="#ffc374"/><path d="M638.28 420.37l-10.64 10.58-4.18-8.28z" stroke="#ffc374" stroke-width=".5" fill="#ffc374"/><path d="M481.24 500.06l142.9 36.18" stroke="#ffc374" stroke-width=".5" fill="none"/><path d="M481.3 499.82l-.1.5-.2-.07v-.5z" fill="#ffc374"/><path d="M638.22 539.8l-14.97 1 2.27-9z" stroke="#ffc374" stroke-width=".5" fill="#ffc374"/><path d="M481.18 500.18l147.1 147.1" stroke="#ffc374" stroke-width=".5" fill="none"/><path d="M481.36 500l-.35.36-.02-.03.02-.32v-.37z" fill="#ffc374"/><path d="M638.54 657.54l-13.36-6.8 6.55-6.56z" stroke="#ffc374" stroke-width=".5" fill="#ffc374"/><path d="M481.12 500.22l150.35 266.43" stroke="#ffc374" stroke-width=".5" fill="none"/><path d="M481.34 500.1l-.36.2.02-.3-.02-.54z" fill="#ffc374"/><path d="M638.6 779.3l-11.05-10.15 8.08-4.56z" stroke="#ffc374" stroke-width=".5" fill="#ffc374"/><path d="M481.16 619.8L629.5 432.03" stroke="#5abaa7" stroke-width=".5" fill="none"/><path d="M481.36 619.95l-.4.5.04-.44v-.34z" fill="#5abaa7"/><path d="M638.5 420.63l-5.2 14.07-7.28-5.74z" stroke="#5abaa7" stroke-width=".5" fill="#5abaa7"/><path d="M481.22 619.9l144.1-72.98" stroke="#5abaa7" stroke-width=".5" fill="none"/><path d="M481.34 620.1l-.36.2.02-.3v-.28l.12-.06z" fill="#5abaa7"/><path d="M638.28 540.37l-10.64 10.58-4.18-8.28z" stroke="#5abaa7" stroke-width=".5" fill="#5abaa7"/><path d="M481.24 620.06l142.9 36.18" stroke="#5abaa7" stroke-width=".5" fill="none"/><path d="M481.3 619.82l-.1.5-.2-.07v-.5z" fill="#5abaa7"/><path d="M638.22 659.8l-14.97 1 2.27-9z" stroke="#5abaa7" stroke-width=".5" fill="#5abaa7"/><path d="M481.18 620.18L628.23 769.1" stroke="#5abaa7" stroke-width=".5" fill="none"/><path d="M481.36 620l-.36.36-.02-.02.02-.33v-.37z" fill="#5abaa7"/><path d="M638.43 779.42l-13.32-6.9 6.6-6.5z" stroke="#5abaa7" stroke-width=".5" fill="#5abaa7"/><path d="M481.1 739.78l151.1-306.04" stroke="#834187" stroke-width=".5" fill="none"/><path d="M481.34 739.88l-.38.76.04-.63v-.3z" fill="#834187"/><path d="M638.64 420.73l-2.16 14.84-8.3-4.1z" stroke="#834187" stroke-width=".5" fill="#834187"/><path d="M481.16 739.8L629.5 552.03" stroke="#834187" stroke-width=".5" fill="none"/><path d="M481.36 739.95l-.4.5.04-.44v-.34z" fill="#834187"/><path d="M638.5 540.63l-5.2 14.07-7.28-5.74z" stroke="#834187" stroke-width=".5" fill="#834187"/><path d="M481.22 739.9l144.1-72.98" stroke="#834187" stroke-width=".5" fill="none"/><path d="M481.34 740.1l-.36.2.02-.3v-.28l.12-.06z" fill="#834187"/><path d="M638.28 660.37l-10.64 10.58-4.18-8.28z" stroke="#834187" stroke-width=".5" fill="#834187"/><path d="M481.24 740.06l142.9 36.18" stroke="#834187" stroke-width=".5" fill="none"/><path d="M481.3 739.82l-.1.5-.2-.07v-.5z" fill="#834187"/><path d="M638.22 779.8l-14.97 1 2.27-9z" stroke="#834187" stroke-width=".5" fill="#834187"/><path d="M481.08 879.76L634.02 434.5" stroke="#ffc374" stroke-width=".5" fill="none"/><path d="M481.32 879.84l-.38 1.1.06-.93v-.27z" fill="#ffc374"/><path d="M638.74 420.77l-.25 15-8.78-3.02z" stroke="#ffc374" stroke-width=".5" fill="#ffc374"/><path d="M481.1 879.77L632.55 553.9" stroke="#ffc374" stroke-width=".5" fill="none"/><path d="M481.34 879.87l-.38.8.04-.66v-.3z" fill="#ffc374"/><path d="M638.66 540.73l-1.8 14.9-8.42-3.9z" stroke="#ffc374" stroke-width=".5" fill="#ffc374"/><path d="M481.15 879.8l148.9-207.35" stroke="#ffc374" stroke-width=".5" fill="none"/><path d="M481.35 879.94l-.38.53.03-.46v-.32z" fill="#ffc374"/><path d="M638.53 660.66l-4.56 14.3-7.53-5.42z" stroke="#ffc374" stroke-width=".5" fill="#ffc374"/><path d="M481.2 879.87l144.85-91.67" stroke="#ffc374" stroke-width=".5" fill="none"/><path d="M481.35 880.07l-.37.24.02-.3v-.3l.08-.05z" fill="#ffc374"/><path d="M638.32 780.43l-9.58 11.55-4.96-7.83z" stroke="#ffc374" stroke-width=".5" fill="#ffc374"/><path d="M721.23 420.1l143.44 54.46" stroke="#0c7cba" stroke-width=".5" fill="none"/><path d="M721.33 419.86l-.18.46-.16-.06v-.52z" fill="#0c7cba"/><path d="M878.24 479.7l-14.98-.72 3.3-8.67z" stroke="#0c7cba" stroke-width=".5" fill="#0c7cba"/><path d="M721.17 420.2L868.9 588.47" stroke="#0c7cba" stroke-width=".5" fill="none"/><path d="M721.36 420.03l-.38.33.02-.35v-.4z" fill="#0c7cba"/><path d="M878.47 599.4l-12.9-7.67 6.97-6.12z" stroke="#0c7cba" stroke-width=".5" fill="#0c7cba"/><path d="M721.12 420.22l150.74 286.22" stroke="#0c7cba" stroke-width=".5" fill="none"/><path d="M721.34 420.1l-.36.2.02-.3-.02-.58z" fill="#0c7cba"/><path d="M878.62 719.28l-10.75-10.46 8.2-4.32z" stroke="#0c7cba" stroke-width=".5" fill="#0c7cba"/><path d="M721.23 539.9l143.44-54.46" stroke="#ffc374" stroke-width=".5" fill="none"/><path d="M721.33 540.14l-.35.13.02-.26v-.26l.15-.06z" fill="#ffc374"/><path d="M878.24 480.3l-11.7 9.4-3.28-8.68z" stroke="#ffc374" stroke-width=".5" fill="#ffc374"/><path d="M721.23 540.1l143.44 54.46" stroke="#ffc374" stroke-width=".5" fill="none"/><path d="M721.33 539.86l-.18.46-.16-.06v-.52z" fill="#ffc374"/><path d="M878.24 599.7l-14.98-.72 3.3-8.67z" stroke="#ffc374" stroke-width=".5" fill="#ffc374"/><path d="M721.17 540.2L868.9 708.47" stroke="#ffc374" stroke-width=".5" fill="none"/><path d="M721.36 540.03l-.38.33.02-.35v-.4z" fill="#ffc374"/><path d="M878.47 719.4l-12.9-7.67 6.97-6.12z" stroke="#ffc374" stroke-width=".5" fill="#ffc374"/><path d="M721.17 659.8L868.9 491.53" stroke="#834187" stroke-width=".5" fill="none"/><path d="M721.36 659.97l-.38.44.02-.4v-.35z" fill="#834187"/><path d="M878.47 480.6l-5.93 13.8-6.97-6.13z" stroke="#834187" stroke-width=".5" fill="#834187"/><path d="M721.23 659.9l143.44-54.46" stroke="#834187" stroke-width=".5" fill="none"/><path d="M721.33 660.14l-.35.13.02-.26v-.26l.15-.06z" fill="#834187"/><path d="M878.24 600.3l-11.7 9.4-3.28-8.68z" stroke="#834187" stroke-width=".5" fill="#834187"/><path d="M721.23 660.1l143.44 54.46" stroke="#834187" stroke-width=".5" fill="none"/><path d="M721.33 659.86l-.18.46-.16-.06v-.52z" fill="#834187"/><path d="M878.24 719.7l-14.98-.72 3.3-8.67z" stroke="#834187" stroke-width=".5" fill="#834187"/><path d="M721.12 779.78l150.74-286.22" stroke="#5abaa7" stroke-width=".5" fill="none"/><path d="M721.34 779.9l-.38.7.04-.6v-.3z" fill="#5abaa7"/><path d="M878.62 480.72l-2.54 14.78-8.2-4.32z" stroke="#5abaa7" stroke-width=".5" fill="#5abaa7"/><path d="M721.17 779.8L868.9 611.53" stroke="#5abaa7" stroke-width=".5" fill="none"/><path d="M721.36 779.97l-.38.44.02-.4v-.35z" fill="#5abaa7"/><path d="M878.47 600.6l-5.93 13.8-6.97-6.13z" stroke="#5abaa7" stroke-width=".5" fill="#5abaa7"/><path d="M721.23 779.9l143.44-54.46" stroke="#5abaa7" stroke-width=".5" fill="none"/><path d="M721.33 780.14l-.35.13.02-.26v-.26l.15-.06z" fill="#5abaa7"/><path d="M878.24 720.3l-11.7 9.4-3.28-8.68z" stroke="#5abaa7" stroke-width=".5" fill="#5abaa7"/><path d="M961.2 480.15l145.6 110.58" stroke="#666" stroke-width=".5" fill="none"/><path d="M961.36 479.96l-.3.4-.08-.06.02-.3v-.32z" fill="#666"/><path d="M1118.36 599.5l-14.17-4.93 5.6-7.38z" stroke="#666" stroke-width=".5" fill="#666"/><path d="M961.25 600h142.42" stroke="#666" stroke-width=".5" fill="none"/><path d="M961.26 600.25H961v-.49h.26z" fill="#666"/><path d="M1118.2 600l-14.28 4.64v-9.28z" stroke="#666" stroke-width=".5" fill="#666"/><path d="M961.2 719.85l145.6-110.58" stroke="#666" stroke-width=".5" fill="none"/><path d="M961.36 720.04l-.38.3.02-.33v-.3l.05-.05z" fill="#666"/><path d="M1118.36 600.5l-8.56 12.3-5.6-7.37z" stroke="#666" stroke-width=".5" fill="#666"/><defs><path d="M205 0l-28-72H64L36 0H1l101-248h38L239 0h-34zm-38-99l-47-123c-12 45-31 82-46 123h93" id="k"/><use transform="matrix(0.05,0,0,0.05,0,0)" xlink:href="#k" id="a"/><path d="M182-130c37 4 62 22 62 59C244 23 116-4 24 0v-248c84 5 203-23 205 63 0 31-19 50-47 55zM76-148c40-3 101 13 101-30 0-44-60-28-101-31v61zm0 110c48-3 116 14 116-37 0-48-69-32-116-35v72" id="l"/><use transform="matrix(0.05,0,0,0.05,0,0)" xlink:href="#l" id="b"/><path d="M212-179c-10-28-35-45-73-45-59 0-87 40-87 99 0 60 29 101 89 101 43 0 62-24 78-52l27 14C228-24 195 4 139 4 59 4 22-46 18-125c-6-104 99-153 187-111 19 9 31 26 39 46" id="m"/><use transform="matrix(0.05,0,0,0.05,0,0)" xlink:href="#m" id="c"/><path d="M30-248c118-7 216 8 213 122C240-48 200 0 122 0H30v-248zM63-27c89 8 146-16 146-99s-60-101-146-95v194" id="n"/><use transform="matrix(0.05,0,0,0.05,0,0)" xlink:href="#n" id="d"/><path fill="#834187" d="M33 0v-248h34V0H33" id="o"/><path fill="#834187" d="M117-194c89-4 53 116 60 194h-32v-121c0-31-8-49-39-48C34-167 62-67 57 0H25l-1-190h30c1 10-1 24 2 32 11-22 29-35 61-36" id="p"/><g id="e"><use transform="matrix(0.05,0,0,0.05,0,0)" xlink:href="#o"/><use transform="matrix(0.05,0,0,0.05,5,0)" xlink:href="#p"/></g><path fill="#834187" d="M205 0l-28-72H64L36 0H1l101-248h38L239 0h-34zm-38-99l-47-123c-12 45-31 82-46 123h93" id="q"/><use transform="matrix(0.05,0,0,0.05,0,0)" xlink:href="#q" id="f"/><path fill="#834187" d="M160-131c35 5 61 23 61 61C221 17 115-2 30 0v-248c76 3 177-17 177 60 0 33-19 50-47 57zm-97-11c50-1 110 9 110-42 0-47-63-36-110-37v79zm0 115c55-2 124 14 124-45 0-56-70-42-124-44v89" id="r"/><use transform="matrix(0.05,0,0,0.05,0,0)" xlink:href="#r" id="g"/><path fill="#834187" d="M212-179c-10-28-35-45-73-45-59 0-87 40-87 99 0 60 29 101 89 101 43 0 62-24 78-52l27 14C228-24 195 4 139 4 59 4 22-46 18-125c-6-104 99-153 187-111 19 9 31 26 39 46" id="s"/><use transform="matrix(0.05,0,0,0.05,0,0)" xlink:href="#s" id="h"/><path fill="#834187" d="M30-248c118-7 216 8 213 122C240-48 200 0 122 0H30v-248zM63-27c89 8 146-16 146-99s-60-101-146-95v194" id="t"/><use transform="matrix(0.05,0,0,0.05,0,0)" xlink:href="#t" id="i"/><path fill="#ffc374" d="M140-251c81 0 123 46 123 126C263-46 219 4 140 4 59 4 17-45 17-125s42-126 123-126zm0 227c63 0 89-41 89-101s-29-99-89-99c-61 0-89 39-89 99S79-25 140-24" id="u"/><path fill="#ffc374" d="M84 4C-5 8 30-112 23-190h32v120c0 31 7 50 39 49 72-2 45-101 50-169h31l1 190h-30c-1-10 1-25-2-33-11 22-28 36-60 37" id="v"/><path fill="#ffc374" d="M59-47c-2 24 18 29 38 22v24C64 9 27 4 27-40v-127H5v-23h24l9-43h21v43h35v23H59v120" id="w"/><g id="j"><use transform="matrix(0.05,0,0,0.05,0,0)" xlink:href="#u"/><use transform="matrix(0.05,0,0,0.05,14,0)" xlink:href="#v"/><use transform="matrix(0.05,0,0,0.05,24,0)" xlink:href="#w"/></g></defs></g></svg>