<?xml version="1.0" encoding="UTF-8" standalone="no"?>
<svg
   xmlns:osb="http://www.openswatchbook.org/uri/2009/osb"
   xmlns:dc="http://purl.org/dc/elements/1.1/"
   xmlns:cc="http://creativecommons.org/ns#"
   xmlns:rdf="http://www.w3.org/1999/02/22-rdf-syntax-ns#"
   xmlns:svg="http://www.w3.org/2000/svg"
   xmlns="http://www.w3.org/2000/svg"
   xmlns:sodipodi="http://sodipodi.sourceforge.net/DTD/sodipodi-0.dtd"
   xmlns:inkscape="http://www.inkscape.org/namespaces/inkscape"
   width="210mm"
   height="297mm"
   viewBox="0 0 210 297"
   version="1.1"
   id="svg8"
   inkscape:version="1.0 (1.0+r73+1)"
   sodipodi:docname="ardupilotsitl.svg">
  <defs
     id="defs2">
    <rect
       x="85.416281"
       y="52.157956"
       width="25.369569"
       height="10.963652"
       id="rect946" />
    <linearGradient
       id="linearGradient4554"
       osb:paint="solid">
      <stop
         style="stop-color:#f5c20e;stop-opacity:1;"
         offset="0"
         id="stop4552" />
    </linearGradient>
    <linearGradient
       id="linearGradient4548"
       osb:paint="solid">
      <stop
         style="stop-color:#fbc80c;stop-opacity:1;"
         offset="0"
         id="stop4546" />
    </linearGradient>
    <linearGradient
       id="linearGradient4540"
       osb:paint="gradient">
      <stop
         style="stop-color:#fbc80c;stop-opacity:1;"
         offset="0"
         id="stop4536" />
      <stop
         style="stop-color:#fbc80c;stop-opacity:0;"
         offset="1"
         id="stop4538" />
    </linearGradient>
    <linearGradient
       id="linearGradient3024"
       osb:paint="solid">
      <stop
         style="stop-color:#c8822a;stop-opacity:0.65882355;"
         offset="0"
         id="stop3022" />
    </linearGradient>
  </defs>
  <sodipodi:namedview
     id="base"
     pagecolor="#ffffff"
     bordercolor="#666666"
     borderopacity="1.0"
     inkscape:pageopacity="0.0"
     inkscape:pageshadow="2"
     inkscape:zoom="0.93"
     inkscape:cx="303.58423"
     inkscape:cy="468.8172"
     inkscape:document-units="mm"
     inkscape:current-layer="layer1"
     inkscape:document-rotation="0"
     showgrid="false"
     inkscape:snap-bbox="true"
     inkscape:snap-global="true"
     inkscape:bbox-paths="false"
     inkscape:bbox-nodes="false"
     inkscape:snap-object-midpoints="false"
     inkscape:snap-bbox-edge-midpoints="false"
     inkscape:snap-to-guides="true"
     inkscape:snap-page="false"
     inkscape:snap-nodes="false"
     inkscape:window-width="1920"
     inkscape:window-height="1028"
     inkscape:window-x="0"
     inkscape:window-y="-1"
     inkscape:window-maximized="0" />
  <metadata
     id="metadata5">
    <rdf:RDF>
      <cc:Work
         rdf:about="">
        <dc:format>image/svg+xml</dc:format>
        <dc:type
           rdf:resource="http://purl.org/dc/dcmitype/StillImage" />
        <dc:title />
      </cc:Work>
    </rdf:RDF>
  </metadata>
  <g
     inkscape:label="Layer 1"
     inkscape:groupmode="layer"
     id="layer1">
    <path
       sodipodi:nodetypes="cccccccc"
       id="path4767-6"
       d="m 115.335,187.24592 c 3.29745,0.30814 2.79107,-2.18162 2.79107,-2.18162 l -0.15535,-60.91475 2.65205,2.05069 -2.96198,-13.3011 -4.35464,13.20428 2.57652,-1.36555 z"
       style="fill:#008080;fill-opacity:1;stroke:#000000;stroke-width:0.336;stroke-linecap:butt;stroke-linejoin:miter;stroke-opacity:1;stroke-miterlimit:4;stroke-dasharray:none" />
    <path
       sodipodi:nodetypes="cccccccc"
       id="path4767-7"
       d="m 190.73362,105.37545 c -3.47521,-0.14488 -2.92934,0.63639 -2.92934,0.63639 l -0.0209,14.18467 -3.13346,-0.88738 4.00517,9.13583 3.84044,-9.12792 -2.51973,0.28383 z"
       style="fill:#008080;fill-opacity:1;stroke:#000000;stroke-width:0.336;stroke-linecap:butt;stroke-linejoin:miter;stroke-opacity:1;stroke-miterlimit:4;stroke-dasharray:none" />
    <path
       sodipodi:nodetypes="cccccccc"
       id="path4767-5"
       d="m 115.71477,81.346506 c -0.10629,3.47111 0.93147,2.89974 0.93147,2.89974 l 19.09517,-0.46797 -1.11453,3.15584 12.19588,-4.30955 -12.38557,-3.51579 0.44642,2.50335 z"
       style="fill:#008080;fill-opacity:1;stroke:#000000;stroke-width:0.336;stroke-linecap:butt;stroke-linejoin:miter;stroke-opacity:1;stroke-miterlimit:4;stroke-dasharray:none" />
    <path
       sodipodi:nodetypes="cccccccc"
       id="path4767-54"
       d="m 160.24224,104.59962 c 0.11616,-3.47079 -0.92322,-2.90237 -0.92322,-2.90237 l -19.09643,0.41367 1.1235,-3.152662 -12.20808,4.274852 12.37552,3.55099 -0.4393,-2.5046 z"
       style="fill:#008080;fill-opacity:1;stroke:#000000;stroke-width:0.336;stroke-linecap:butt;stroke-linejoin:miter;stroke-opacity:1;stroke-miterlimit:4;stroke-dasharray:none" />
    <path
       style="fill:#008080;fill-opacity:1;stroke:#000000;stroke-width:0.336;stroke-linecap:butt;stroke-linejoin:miter;stroke-opacity:1;stroke-miterlimit:4;stroke-dasharray:none"
       d="m 120.709,207.34713 c -0.10629,3.47111 0.93147,2.89974 0.93147,2.89974 l 19.09517,-0.46797 -1.11453,3.15584 12.19588,-4.30955 -12.38557,-3.51579 0.44642,2.50335 z"
       id="path4767"
       sodipodi:nodetypes="cccccccc" />
    <rect
       style="fill:#0000ff;fill-rule:evenodd;stroke-width:0.336259"
       id="rect10"
       width="97.665359"
       height="52.3848"
       x="16.054415"
       y="69.556419"
       transform="matrix(1,-2.8765526e-5,5.6481609e-5,1,0,0)"
       ry="7.99259" />
    <rect
       style="opacity:1;mix-blend-mode:normal;fill:#0000ff;fill-rule:evenodd;stroke:#f5c20e;stroke-width:1.00000003;stroke-miterlimit:4;stroke-dasharray:none;stroke-opacity:0.65882355"
       id="rect12"
       width="47.426842"
       height="45.789772"
       x="161.0267"
       y="69.857109"
       ry="7.4745021" />
    <rect
       ry="5.7483869"
       y="136.27303"
       x="160.12711"
       height="35.215366"
       width="47.426842"
       id="rect12-3"
       style="fill:#0000ff;fill-rule:evenodd;stroke-width:1;stroke:#f5c20e;stroke-opacity:0.65882355;stroke-miterlimit:4;stroke-dasharray:none" />
    <rect
       ry="5.7483869"
       y="189.19406"
       x="159.46216"
       height="35.215366"
       width="47.426842"
       id="rect12-6"
       style="fill:#008000;fill-rule:evenodd;stroke-width:1;stroke-miterlimit:4;stroke-dasharray:none;stroke:#f5c20e;stroke-opacity:0.65882355" />
    <rect
       ry="5.7483869"
       y="190.43863"
       x="70.414116"
       height="35.215366"
       width="47.426842"
       id="rect12-7"
       style="fill:#008000;fill-rule:evenodd;stroke-width:1;stroke:#f5c20e;stroke-opacity:0.65882355;stroke-miterlimit:4;stroke-dasharray:none" />
    <rect
       ry="5.7483869"
       y="189.29788"
       x="15.76784"
       height="35.215366"
       width="47.426842"
       id="rect12-5"
       style="fill:#008000;fill-rule:evenodd;stroke-width:1;stroke:#f5c20e;stroke-opacity:0.65882355;stroke-miterlimit:4;stroke-dasharray:none" />
    <path
       style="fill:#a0a0a0;stroke:none;stroke-width:1.31579"
       d="m 82.683879,458.78053 c -7.851749,-2.47089 -13.071227,-6.6145 -17.218277,-13.66915 l -3.623497,-6.16401 V 361.8705 284.79363 l 3.982152,-6.44098 c 2.468016,-3.99192 6.431055,-7.95511 10.422726,-10.42313 l 6.440575,-3.98215 159.754782,-0.34958 c 104.81598,-0.22936 161.45659,0.10867 164.70344,0.98295 7.63522,2.05595 15.16515,8.25483 18.66644,15.36681 l 3.13515,6.36824 v 75.65789 c 0,71.08171 -0.14783,75.95527 -2.44411,80.57429 -3.03519,6.10541 -8.954,11.98946 -15.1775,15.0884 -4.48012,2.23083 -13.69208,2.37776 -163.95734,2.61521 -128.09447,0.20242 -160.280365,-0.0851 -164.684541,-1.47105 z"
       id="path51"
       transform="scale(0.26458333)" />
    <path
       style="fill:#a0a0a0;stroke:none;stroke-width:1.31579"
       d="M 84.210526,458.13445 C 76.703361,456.26368 71.729255,452.68716 67.123984,445.84872 L 62.5,438.9825 v -76.96408 -76.96408 l 4.147171,-6.07736 c 2.280943,-3.34256 6.881987,-7.9436 10.224541,-10.22455 l 6.07737,-4.14717 161.814928,0.0124 161.81494,0.0123 6.89096,3.95196 c 5.05102,2.89677 7.95505,5.79188 10.87629,10.84292 l 3.98534,6.89095 -0.34999,76.31579 c -0.38739,84.47656 0.10895,79.66876 -9.11929,88.32896 -8.82055,8.27758 3.51933,7.70401 -170.83594,7.94062 -87.92764,0.11934 -161.644741,-0.2257 -163.815794,-0.76671 z"
       id="path53"
       transform="scale(0.26458333)" />
    <path
       style="fill:#a0a0a0;stroke:none;stroke-width:1.31579"
       d="m 84.00032,458.10479 c -6.973398,-1.69963 -12.475836,-5.68863 -17.095178,-12.3932 L 62.5,439.31792 v -77.13179 -77.13179 l 4.147171,-6.07736 c 2.280943,-3.34256 6.881987,-7.9436 10.224541,-10.22455 l 6.07737,-4.14717 161.814928,0.0124 161.81494,0.0123 6.89096,3.95196 c 5.05102,2.89677 7.95505,5.79188 10.87629,10.84292 l 3.98534,6.89095 -0.34999,76.31579 c -0.38739,84.47656 0.10895,79.66876 -9.11929,88.32896 -8.82055,8.27758 3.51933,7.70401 -170.83594,7.94062 -87.92764,0.11934 -161.739334,-0.23904 -164.026,-0.79637 z"
       id="path55"
       transform="scale(0.26458333)" />
    <path
       style="fill:#a0a0a0;stroke:none;stroke-width:1.31579"
       d="m 84.00032,458.10479 c -7.080966,-1.72584 -12.769858,-5.83771 -17.224004,-12.4493 L 62.5,439.30786 62.5049,362.15393 c 0.0046,-72.78171 0.142945,-77.37762 2.440593,-81.1013 3.129027,-5.07105 8.637179,-10.50023 14.041726,-13.84043 4.21864,-2.60726 6.135696,-2.63355 167.245421,-2.29327 l 162.97787,0.34423 5.97069,4.14736 c 3.6424,2.53008 7.38571,6.7472 9.59936,10.81439 l 3.62864,6.66703 -0.38881,76.02771 c -0.43034,84.14452 0.0646,79.3858 -9.15815,88.04089 -8.82055,8.27758 3.51933,7.70401 -170.83594,7.94062 -87.92764,0.11934 -161.739333,-0.23904 -164.025999,-0.79637 z"
       id="path57"
       transform="scale(0.26458333)" />
    <path
       style="fill:#a0a0a0;stroke:none;stroke-width:1.31579"
       d="m 84.00032,458.10479 c -7.080966,-1.72584 -12.769858,-5.83771 -17.224004,-12.4493 L 62.5,439.30786 62.5049,362.15393 c 0.0055,-85.9151 -0.639537,-79.60636 9.138808,-89.3847 8.836024,-8.83603 -4.674259,-8.22933 174.814742,-7.85027 l 162.97757,0.3442 5.43913,3.7695 c 2.99151,2.07322 7.26037,6.60765 9.48633,10.07652 l 4.04721,6.30702 -0.38857,76.76558 c -0.43006,84.96547 0.0699,80.11905 -9.15788,88.77876 -8.82055,8.27758 3.51933,7.70401 -170.83594,7.94062 -87.92764,0.11934 -161.739333,-0.23904 -164.025999,-0.79637 z"
       id="path59"
       transform="scale(0.26458333)" />
    <path
       style="fill:#a0a0a0;stroke:none;stroke-width:1.31579"
       d="M 83.086788,457.90896 C 76.345205,456.29479 71.245815,452.50062 66.45044,445.53078 L 62.5,439.78901 v -77.49787 -77.49786 l 4.021958,-6.07205 c 2.212076,-3.33963 6.754379,-7.88193 10.094005,-10.09401 l 6.072049,-4.02196 H 245.36271 408.03742 l 5.91601,3.75183 c 3.31054,2.09948 7.79641,6.68216 10.18565,10.40547 l 4.26963,6.65364 -0.38857,76.76558 c -0.43006,84.96547 0.0699,80.11905 -9.15788,88.77876 -8.82046,8.27749 3.51838,7.70379 -170.83594,7.94314 -93.96314,0.12895 -161.958974,-0.28106 -164.939532,-0.99472 z"
       id="path61"
       transform="scale(0.26458333)" />
    <path
       style="fill:#a0a0a0;stroke:none;stroke-width:1.31579"
       d="M 83.086788,457.90896 C 76.345205,456.29479 71.245815,452.50062 66.45044,445.53078 L 62.5,439.78901 v -77.46585 -77.46584 l 3.929635,-6.19639 c 2.198121,-3.46608 6.659951,-7.92791 10.126028,-10.12603 l 6.196391,-3.92964 H 245.39474 408.03742 l 6.14487,3.89696 c 3.46241,2.1958 7.88662,6.64732 10.1348,10.19737 L 428.30703,285 427.9693,361.97368 c -0.37387,85.21212 0.12658,80.32158 -9.10704,88.98686 -8.82046,8.27749 3.51838,7.70379 -170.83594,7.94314 -93.96314,0.12895 -161.958974,-0.28106 -164.939532,-0.99472 z"
       id="path63"
       transform="scale(0.26458333)" />
    <path
       style="fill:#a0a0a0;stroke:none;stroke-width:1.31579"
       d="M 82.284914,457.82012 C 75.872149,455.94801 71.034461,452.19342 66.45044,445.53078 L 62.5,439.78901 v -77.81533 -77.81532 l 3.984816,-5.79173 c 2.191648,-3.18546 6.591095,-7.5849 9.776546,-9.77655 l 5.791731,-3.98482 H 245.04525 408.03742 l 6.1964,3.92964 c 3.46607,2.19812 7.9279,6.65995 10.12602,10.12603 l 3.92963,6.19639 v 72.58912 c 0,43.68932 -0.53264,75.39777 -1.33788,79.64374 -1.00967,5.32399 -2.54293,8.29978 -6.25,12.13016 -9.99613,10.32863 5.94825,9.43663 -173.33317,9.69702 -105.00658,0.15251 -162.102467,-0.22698 -165.083506,-1.09724 z"
       id="path65"
       transform="scale(0.26458333)" />
    <path
       style="fill:#a0a0a0;stroke:none;stroke-width:1.31579"
       d="M 82.284914,457.82012 C 75.872149,455.94801 71.034461,452.19342 66.45044,445.53078 L 62.5,439.78901 v -77.81533 -77.81532 l 3.984816,-5.79173 c 2.191648,-3.18546 6.591095,-7.5849 9.776546,-9.77655 l 5.791731,-3.98482 H 245.39474 408.73638 l 5.95171,4.09489 c 3.27344,2.25218 7.67288,6.80889 9.77654,10.12602 l 3.82484,6.03115 v 72.58912 c 0,43.68932 -0.53264,75.39777 -1.33788,79.64374 -1.00967,5.32399 -2.54293,8.29978 -6.25,12.13016 -9.99613,10.32863 5.94825,9.43663 -173.33317,9.69702 -105.00658,0.15251 -162.102467,-0.22698 -165.083506,-1.09724 z"
       id="path67"
       transform="scale(0.26458333)" />
    <path
       style="fill:#a0a0a0;stroke:none;stroke-width:1.31579"
       d="m 82.716686,458.11128 c -5.872187,-1.4329 -11.694867,-5.93623 -16.266246,-12.5805 L 62.5,439.78901 v -77.81533 -77.81532 l 3.984816,-5.79173 c 2.191648,-3.18546 6.591095,-7.5849 9.776546,-9.77655 l 5.791731,-3.98482 H 245.39474 408.73638 l 5.95171,4.09489 c 3.27344,2.25218 7.67288,6.80889 9.77654,10.12602 l 3.82484,6.03115 v 72.58912 c 0,43.68932 -0.53264,75.39777 -1.33788,79.64374 -1.00967,5.32399 -2.54293,8.29978 -6.25,12.13016 -9.9968,10.32932 5.95282,9.43853 -173.33317,9.68074 -88.28947,0.11934 -162.382754,-0.23613 -164.651734,-0.7898 z"
       id="path69"
       transform="scale(0.26458333)" />
    <path
       style="fill:#a0a0a0;stroke:none;stroke-width:1.31579"
       d="M 82.583729,458.08409 C 76.848004,456.69155 69.68336,451.03674 65.739782,444.78971 L 62.5,439.65755 v -77.74959 -77.7496 l 3.984816,-5.79173 c 2.191648,-3.18546 6.591095,-7.5849 9.776546,-9.77655 l 5.791731,-3.98482 H 245.39474 408.73638 l 5.95171,4.09489 c 3.27344,2.25218 7.67288,6.80889 9.77654,10.12602 l 3.82484,6.03115 v 72.58912 c 0,43.68932 -0.53264,75.39777 -1.33788,79.64374 -1.00967,5.32399 -2.54293,8.29978 -6.25,12.13016 -9.9968,10.32932 5.95282,9.43853 -173.33317,9.68074 -88.28947,0.11934 -162.442584,-0.24837 -164.784691,-0.81699 z"
       id="path71"
       transform="scale(0.26458333)" />
    <path
       style="fill:#a0a0a0;stroke:none;stroke-width:1.31579"
       d="m 82.716686,458.11128 c -5.671654,-1.38396 -11.826864,-6.00325 -16.386321,-12.2974 L 62.5,440.52621 v -78.18392 -78.18393 l 3.984816,-5.79173 c 2.191648,-3.18546 6.591095,-7.5849 9.776546,-9.77655 l 5.791731,-3.98482 H 245.39474 408.73638 l 5.79173,3.98482 c 3.18546,2.19165 7.5849,6.59109 9.77655,9.77655 l 3.98481,5.79173 v 72.9386 c 0,42.84192 -0.53981,75.78501 -1.30822,79.83683 -1.5035,7.92793 -6.0312,14.033 -13.82336,18.6392 l -5.26315,3.11122 -160.52632,0.21687 c -88.28947,0.11934 -162.382754,-0.23613 -164.651734,-0.7898 z"
       id="path73"
       transform="scale(0.26458333)" />
    <path
       style="fill:#a0a0a0;stroke:none;stroke-width:1.31579"
       d="M 82.398425,458.04618 C 76.668014,456.66409 72.101063,453.22689 66.776316,446.28862 L 62.5,440.71647 v -78.27905 -78.27906 l 3.984816,-5.79173 c 2.191648,-3.18546 6.591095,-7.5849 9.776546,-9.77655 l 5.791731,-3.98482 H 245.70154 409.34999 l 5.55296,4.08369 c 3.05412,2.24602 7.3155,6.64547 9.46973,9.77654 l 3.91679,5.69287 v 72.9386 c 0,42.09715 -0.54486,75.8117 -1.2886,79.73336 -1.51849,8.00698 -6.27083,14.49629 -13.76012,18.78938 l -5.34601,3.06451 -160.52632,0.21687 c -88.28947,0.11928 -162.525971,-0.26542 -164.969995,-0.8549 z"
       id="path75"
       transform="scale(0.26458333)" />
    <path
       style="fill:#a0a0a0;stroke:none;stroke-width:1.31579"
       d="M 82.398425,458.0438 C 76.669407,456.66512 72.102292,453.2285 66.776316,446.28862 L 62.5,440.71647 v -78.58586 -78.58587 l 4.083684,-5.55294 c 2.246026,-3.05413 6.645471,-7.31551 9.776546,-9.46974 l 5.692863,-3.9168 H 245.76334 409.47358 l 5.34588,3.87254 c 2.94024,2.12989 7.17382,6.52934 9.40795,9.77654 l 4.06206,5.90402 v 72.9386 c 0,41.90255 -0.54617,75.81854 -1.28356,79.70683 -1.5922,8.39562 -5.51733,13.8683 -13.19012,18.39059 l -5.92105,3.48983 -160.52632,0.21447 C 159.07895,459.01671 84.842449,458.63196 82.398425,458.0438 Z"
       id="path77"
       transform="scale(0.26458333)" />
    <g
       id="g95"
       style="stroke-width:1;stroke-miterlimit:4;stroke-dasharray:none;stroke:#f5c20e;stroke-opacity:0.65882355;stroke-linejoin:miter;stroke-linecap:butt;paint-order:normal">
      <g
         id="g90"
         style="stroke-width:1;stroke-miterlimit:4;stroke-dasharray:none;stroke:#f5c20e;stroke-opacity:0.65882355;stroke-linejoin:miter;stroke-linecap:butt;paint-order:normal">
        <g
           id="g86"
           style="stroke-width:1;stroke-miterlimit:4;stroke-dasharray:none;stroke:#f5c20e;stroke-opacity:0.65882355;stroke-linejoin:miter;stroke-linecap:butt;paint-order:normal">
          <path
             transform="scale(0.26458333)"
             id="path79"
             d="m 82.398425,458.04138 c -5.727611,-1.37522 -10.29489,-4.81126 -15.622109,-11.75276 L 62.5,440.71647 v -78.65586 -78.65587 l 4.443079,-5.81892 c 2.443693,-3.20041 6.768282,-7.43029 9.610197,-9.39974 l 5.16712,-3.58082 H 245.59699 409.47358 l 5.34588,3.87254 c 2.94024,2.12989 7.17382,6.52934 9.40795,9.77654 l 4.06206,5.90402 -0.0322,74.10503 c -0.0197,45.3706 -0.55046,76.35348 -1.36883,79.9037 -1.67062,7.24744 -7.57994,14.84455 -14.04642,18.05834 -4.74273,2.3571 -11.58578,2.46754 -165.47363,2.67085 -88.28948,0.11658 -162.525977,-0.26807 -164.970001,-0.8549 z"
             style="mix-blend-mode:normal;fill:#aa0000;stroke:#f5c20e;stroke-width:3.77952761;stroke-linecap:butt;stroke-linejoin:miter;stroke-miterlimit:4;stroke-dasharray:none;stroke-opacity:0.65882355;stroke-dashoffset:0;paint-order:normal" />
        </g>
      </g>
    </g>
    <path
       id="rect133"
       style="fill:#008080;stroke-width:0.336;stroke-miterlimit:4;stroke-dasharray:none;stroke:#000000;stroke-opacity:1"
       d="m 185.95663,101.24691 h 17.51529 l -8.20878,14.0611 h -17.51529 z"
       sodipodi:nodetypes="ccccc" />
    <path
       sodipodi:nodetypes="ccccc"
       d="m 179.50184,129.4522 h 17.51529 l -8.20878,14.0611 h -17.51529 z"
       style="fill:#008080;stroke-width:0.336;stroke:#000000;stroke-opacity:1;stroke-miterlimit:4;stroke-dasharray:none"
       id="rect133-3" />
    <path
       sodipodi:nodetypes="ccccc"
       d="m 152.49109,76.271625 h 17.51529 l -8.20878,14.0611 h -17.51529 z"
       style="fill:#008080;stroke-width:0.336;stroke-miterlimit:4;stroke-dasharray:none;stroke:#000000;stroke-opacity:1"
       id="rect133-5" />
    <path
       sodipodi:nodetypes="ccccc"
       d="m 113.63544,96.439336 h 17.51529 l -8.20878,14.061104 h -17.51529 z"
       style="fill:#008080;stroke-width:0.336;stroke:#000000;stroke-opacity:1;stroke-miterlimit:4;stroke-dasharray:none"
       id="rect133-6" />
    <path
       id="rect133-5-2"
       style="fill:#008080;stroke-width:0.336;stroke:#000000;stroke-opacity:1;stroke-miterlimit:4;stroke-dasharray:none"
       d="m 113.34993,75.906825 h 17.51529 l -8.20878,14.0611 h -17.51529 z"
       sodipodi:nodetypes="ccccc" />
    <path
       id="rect133-5-9"
       style="fill:#008080;stroke-width:0.336;stroke:#000000;stroke-opacity:1;stroke-miterlimit:4;stroke-dasharray:none"
       d="m 152.44013,96.528204 h 17.51529 l -8.20878,14.061096 h -17.51529 z"
       sodipodi:nodetypes="ccccc" />
    <path
       id="rect133-5-1"
       style="fill:#008080;stroke-width:0.336;stroke-miterlimit:4;stroke-dasharray:none;stroke:#000000;stroke-opacity:1"
       d="m 110.10917,184.96248 h 17.51529 l -8.20878,14.0611 h -17.5153 z"
       sodipodi:nodetypes="ccccc" />
    <path
       id="rect133-5-27"
       style="fill:#008080;stroke-width:0.336;stroke-miterlimit:4;stroke-dasharray:none;stroke:#000000;stroke-opacity:1"
       d="m 159.82004,200.7575 h 17.51529 l -8.20878,14.0611 h -17.51529 z"
       sodipodi:nodetypes="ccccc" />
    <path
       id="rect133-5-0"
       style="fill:#008080;stroke-width:0.336;stroke:#000000;stroke-opacity:1;stroke-miterlimit:4;stroke-dasharray:none"
       d="m 108.7994,202.18816 h 17.51529 l -8.20878,14.0611 h -17.51529 z"
       sodipodi:nodetypes="ccccc" />
    <path
       style="fill:#008080;stroke:#000000;stroke-width:0.391567px;stroke-linecap:butt;stroke-linejoin:miter;stroke-opacity:1"
       d="m 38.160865,181.78456 c -3.72317,-14.61243 -3.628952,-15.18627 -3.628952,-15.18627 l 2.511087,4.27109 0.227386,-26.43521 -2.74487,3.78693 4.577544,-13.03908 3.429292,14.63788 -2.804345,-4.49468 -0.140801,25.82452 2.841495,-1.68713 z"
       id="path4802" />
    <rect
       style="fill:#008080;stroke:#000000;stroke-width:0.336064;stroke-miterlimit:4;stroke-dasharray:none;stroke-opacity:1"
       id="rect202"
       width="21"
       height="21"
       x="104.6072"
       y="47.550232"
       ry="0"
       rx="0"
       transform="matrix(0.70387695,0.71032193,-0.7294884,0.68399319,0,0)" />
    <path
       id="path4802-5"
       d="m 89.176727,182.43691 c -3.719054,-14.96866 -3.624941,-15.55649 -3.624941,-15.55649 l 2.508311,4.37523 0.227136,-27.07972 -2.741837,3.87925 4.572485,-13.35697 3.425502,14.99476 -2.801246,-4.60427 -0.140645,26.45413 2.838354,-1.72826 z"
       style="fill:#008080;stroke:#000000;stroke-width:0.396137;stroke-linecap:butt;stroke-linejoin:miter;stroke-miterlimit:4;stroke-dasharray:none;stroke-opacity:1" />
    <rect
       transform="matrix(0.70387695,0.71032193,-0.7294884,0.68399319,0,0)"
       rx="0"
       ry="0"
       y="11.003679"
       x="139.87148"
       height="21"
       width="21"
       id="rect202-3"
       style="fill:#008080;stroke-width:0.33606409;stroke-miterlimit:4;stroke-dasharray:none;stroke:#000000;stroke-opacity:1" />
    <rect
       transform="matrix(0.70387695,0.71032193,-0.7294884,0.68399319,0,0)"
       rx="0"
       ry="0"
       y="99.24688"
       x="156.53198"
       height="15"
       width="15"
       id="rect202-6"
       style="fill:#008080;stroke:#000000;stroke-width:0.336064;stroke-miterlimit:4;stroke-dasharray:none;stroke-opacity:1" />
    <rect
       transform="matrix(0.70387695,0.71032193,-0.7294884,0.68399319,0,0)"
       rx="0"
       ry="0"
       y="63.025742"
       x="193.17944"
       height="15"
       width="15"
       id="rect202-0"
       style="fill:#008080;stroke:#000000;stroke-width:0.336064;stroke-miterlimit:4;stroke-dasharray:none;stroke-opacity:1" />
    <text
       xml:space="preserve"
       style="font-style:normal;font-weight:normal;font-size:5.64444px;line-height:1.25;font-family:sans-serif;fill:#000000;fill-opacity:1;stroke:none;stroke-width:0.264583"
       x="31.978655"
       y="191.34723"
       id="text4560"><tspan
         sodipodi:role="line"
         id="tspan4558"
         x="31.978655"
         y="191.34723"
         style="font-style:normal;font-variant:normal;font-weight:bold;font-stretch:normal;font-size:5.64444px;font-family:sans-serif;-inkscape-font-specification:'sans-serif Bold';stroke-width:0.264583">TCP</tspan></text>
    <text
       id="text4560-6"
       y="192.11092"
       x="83.847008"
       style="font-style:normal;font-weight:normal;font-size:5.64444px;line-height:1.25;font-family:sans-serif;fill:#000000;fill-opacity:1;stroke:none;stroke-width:0.264583"
       xml:space="preserve"><tspan
         style="font-style:normal;font-variant:normal;font-weight:bold;font-stretch:normal;font-size:5.64444px;font-family:sans-serif;-inkscape-font-specification:'sans-serif Bold';stroke-width:0.264583"
         y="192.11092"
         x="83.847008"
         id="tspan4558-2"
         sodipodi:role="line">TCP</tspan></text>
    <text
       xml:space="preserve"
       style="font-style:normal;font-weight:normal;font-size:4.93889px;line-height:1.25;font-family:sans-serif;text-align:center;text-anchor:middle;fill:#000000;fill-opacity:1;stroke:none;stroke-width:0.264583"
       x="38.887959"
       y="116.55602"
       id="text4582"><tspan
         sodipodi:role="line"
         id="tspan4580"
         x="38.887959"
         y="116.55602"
         style="font-style:normal;font-variant:normal;font-weight:bold;font-stretch:normal;font-size:3.88056px;font-family:sans-serif;-inkscape-font-specification:'sans-serif Bold';text-align:center;text-anchor:middle;stroke-width:0.264583">serial1</tspan><tspan
         sodipodi:role="line"
         x="38.887959"
         y="122.72963"
         style="font-style:normal;font-variant:normal;font-weight:bold;font-stretch:normal;font-size:3.88056px;font-family:sans-serif;-inkscape-font-specification:'sans-serif Bold';text-align:center;text-anchor:middle;stroke-width:0.264583"
         id="tspan4584">TCP</tspan><tspan
         sodipodi:role="line"
         x="38.887959"
         y="128.90324"
         style="font-style:normal;font-variant:normal;font-weight:bold;font-stretch:normal;font-size:3.88056px;font-family:sans-serif;-inkscape-font-specification:'sans-serif Bold';text-align:center;text-anchor:middle;stroke-width:0.264583"
         id="tspan4586">5760</tspan></text>
    <text
       id="text4582-6"
       y="116.78694"
       x="90.405334"
       style="font-style:normal;font-weight:normal;font-size:4.9389px;line-height:1.25;font-family:sans-serif;text-align:center;text-anchor:middle;fill:#000000;fill-opacity:1;stroke:none;stroke-width:0.264583"
       xml:space="preserve"><tspan
         style="font-style:normal;font-variant:normal;font-weight:bold;font-stretch:normal;font-size:3.88056px;font-family:sans-serif;-inkscape-font-specification:'sans-serif Bold';text-align:center;text-anchor:middle;stroke-width:0.264583"
         y="116.78694"
         x="90.405334"
         id="tspan4580-1"
         sodipodi:role="line">serial3</tspan><tspan
         id="tspan4584-8"
         style="font-style:normal;font-variant:normal;font-weight:bold;font-stretch:normal;font-size:3.88056px;font-family:sans-serif;-inkscape-font-specification:'sans-serif Bold';text-align:center;text-anchor:middle;stroke-width:0.264583"
         y="122.96056"
         x="90.405334"
         sodipodi:role="line">TCP</tspan><tspan
         id="tspan4586-7"
         style="font-style:normal;font-variant:normal;font-weight:bold;font-stretch:normal;font-size:3.88056px;font-family:sans-serif;-inkscape-font-specification:'sans-serif Bold';text-align:center;text-anchor:middle;stroke-width:0.264583"
         y="129.13419"
         x="90.405334"
         sodipodi:role="line">5763</tspan></text>
    <text
       xml:space="preserve"
       style="font-style:normal;font-weight:normal;font-size:4.9389px;line-height:1.25;font-family:sans-serif;text-align:center;text-anchor:middle;fill:#000000;fill-opacity:1;stroke:none;stroke-width:0.264583"
       x="117.15273"
       y="81.463341"
       id="text4582-6-9"><tspan
         sodipodi:role="line"
         x="117.15273"
         y="81.463341"
         style="font-style:normal;font-variant:normal;font-weight:bold;font-stretch:normal;font-size:3.88056px;font-family:sans-serif;-inkscape-font-specification:'sans-serif Bold';text-align:center;text-anchor:middle;stroke-width:0.264583"
         id="tspan4584-8-0">UDP</tspan><tspan
         sodipodi:role="line"
         x="117.15273"
         y="87.636963"
         style="font-style:normal;font-variant:normal;font-weight:bold;font-stretch:normal;font-size:3.88056px;font-family:sans-serif;-inkscape-font-specification:'sans-serif Bold';text-align:center;text-anchor:middle;stroke-width:0.264583"
         id="tspan4586-7-2">5502</tspan></text>
    <text
       id="text4582-6-9-2"
       y="101.13354"
       x="118.42974"
       style="font-style:normal;font-weight:normal;font-size:4.9389px;line-height:1.25;font-family:sans-serif;text-align:center;text-anchor:middle;fill:#000000;fill-opacity:1;stroke:none;stroke-width:0.264583"
       xml:space="preserve"><tspan
         id="tspan4584-8-0-2"
         style="font-style:normal;font-variant:normal;font-weight:bold;font-stretch:normal;font-size:3.88056px;font-family:sans-serif;-inkscape-font-specification:'sans-serif Bold';text-align:center;text-anchor:middle;stroke-width:0.264583"
         y="101.13354"
         x="118.42974"
         sodipodi:role="line">UDP</tspan><tspan
         id="tspan4586-7-2-8"
         style="font-style:normal;font-variant:normal;font-weight:bold;font-stretch:normal;font-size:3.88056px;font-family:sans-serif;-inkscape-font-specification:'sans-serif Bold';text-align:center;text-anchor:middle;stroke-width:0.264583"
         y="107.30716"
         x="118.42974"
         sodipodi:role="line">5501</tspan></text>
    <text
       id="text4582-6-9-9"
       y="81.355339"
       x="157.23663"
       style="font-style:normal;font-weight:normal;font-size:4.9389px;line-height:1.25;font-family:sans-serif;text-align:center;text-anchor:middle;fill:#000000;fill-opacity:1;stroke:none;stroke-width:0.264583"
       xml:space="preserve"><tspan
         id="tspan4584-8-0-7"
         style="font-style:normal;font-variant:normal;font-weight:bold;font-stretch:normal;font-size:3.88056px;font-family:sans-serif;-inkscape-font-specification:'sans-serif Bold';text-align:center;text-anchor:middle;stroke-width:0.264583"
         y="81.355339"
         x="157.23663"
         sodipodi:role="line">UDP</tspan><tspan
         id="tspan4586-7-2-3"
         style="font-style:normal;font-variant:normal;font-weight:bold;font-stretch:normal;font-size:3.88056px;font-family:sans-serif;-inkscape-font-specification:'sans-serif Bold';text-align:center;text-anchor:middle;stroke-width:0.264583"
         y="87.528961"
         x="157.23663"
         sodipodi:role="line">5502</tspan></text>
    <text
       id="text4582-6-9-6"
       y="102.26429"
       x="157.7618"
       style="font-style:normal;font-weight:normal;font-size:4.9389px;line-height:1.25;font-family:sans-serif;text-align:center;text-anchor:middle;fill:#000000;fill-opacity:1;stroke:none;stroke-width:0.264583"
       xml:space="preserve"><tspan
         id="tspan4584-8-0-1"
         style="font-style:normal;font-variant:normal;font-weight:bold;font-stretch:normal;font-size:3.88056px;font-family:sans-serif;-inkscape-font-specification:'sans-serif Bold';text-align:center;text-anchor:middle;stroke-width:0.264583"
         y="102.26429"
         x="157.7618"
         sodipodi:role="line">UDP</tspan><tspan
         id="tspan4586-7-2-2"
         style="font-style:normal;font-variant:normal;font-weight:bold;font-stretch:normal;font-size:3.88056px;font-family:sans-serif;-inkscape-font-specification:'sans-serif Bold';text-align:center;text-anchor:middle;stroke-width:0.264583"
         y="108.43791"
         x="157.7618"
         sodipodi:role="line">5501</tspan></text>
    <text
       id="text4582-6-9-93"
       y="107.35045"
       x="190.18948"
       style="font-style:normal;font-weight:normal;font-size:4.9389px;line-height:1.25;font-family:sans-serif;text-align:center;text-anchor:middle;fill:#000000;fill-opacity:1;stroke:none;stroke-width:0.264583"
       xml:space="preserve"><tspan
         id="tspan4584-8-0-19"
         style="font-style:normal;font-variant:normal;font-weight:bold;font-stretch:normal;font-size:3.88056px;font-family:sans-serif;-inkscape-font-specification:'sans-serif Bold';text-align:center;text-anchor:middle;stroke-width:0.264583"
         y="107.35045"
         x="190.18948"
         sodipodi:role="line">UDP</tspan><tspan
         id="tspan4586-7-2-4"
         style="font-style:normal;font-variant:normal;font-weight:bold;font-stretch:normal;font-size:3.88056px;font-family:sans-serif;-inkscape-font-specification:'sans-serif Bold';text-align:center;text-anchor:middle;stroke-width:0.264583"
         y="113.52407"
         x="190.18948"
         sodipodi:role="line">5503</tspan></text>
    <text
       id="text4582-6-9-7"
       y="134.95758"
       x="184.30444"
       style="font-style:normal;font-weight:normal;font-size:4.9389px;line-height:1.25;font-family:sans-serif;text-align:center;text-anchor:middle;fill:#000000;fill-opacity:1;stroke:none;stroke-width:0.264583"
       xml:space="preserve"><tspan
         id="tspan4584-8-0-8"
         style="font-style:normal;font-variant:normal;font-weight:bold;font-stretch:normal;font-size:3.88056px;font-family:sans-serif;-inkscape-font-specification:'sans-serif Bold';text-align:center;text-anchor:middle;stroke-width:0.264583"
         y="134.95758"
         x="184.30444"
         sodipodi:role="line">UDP</tspan><tspan
         id="tspan4586-7-2-45"
         style="font-style:normal;font-variant:normal;font-weight:bold;font-stretch:normal;font-size:3.88056px;font-family:sans-serif;-inkscape-font-specification:'sans-serif Bold';text-align:center;text-anchor:middle;stroke-width:0.264583"
         y="141.13121"
         x="184.30444"
         sodipodi:role="line">5503</tspan></text>
    <text
       id="text4582-6-9-0"
       y="190.5713"
       x="115.27852"
       style="font-style:normal;font-weight:normal;font-size:4.9389px;line-height:1.25;font-family:sans-serif;text-align:center;text-anchor:middle;fill:#000000;fill-opacity:1;stroke:none;stroke-width:0.264583"
       xml:space="preserve"><tspan
         id="tspan4584-8-0-3"
         style="font-style:normal;font-variant:normal;font-weight:bold;font-stretch:normal;font-size:3.88056px;font-family:sans-serif;-inkscape-font-specification:'sans-serif Bold';text-align:center;text-anchor:middle;stroke-width:0.264583"
         y="190.5713"
         x="115.27852"
         sodipodi:role="line">UDP</tspan><tspan
         id="tspan4586-7-2-6"
         style="font-style:normal;font-variant:normal;font-weight:bold;font-stretch:normal;font-size:3.88056px;font-family:sans-serif;-inkscape-font-specification:'sans-serif Bold';text-align:center;text-anchor:middle;stroke-width:0.264583"
         y="196.74493"
         x="115.27852"
         sodipodi:role="line">5763</tspan></text>
    <text
       id="text4582-6-9-1"
       y="207.35484"
       x="113.66257"
       style="font-style:normal;font-weight:normal;font-size:4.9389px;line-height:1.25;font-family:sans-serif;text-align:center;text-anchor:middle;fill:#000000;fill-opacity:1;stroke:none;stroke-width:0.264583"
       xml:space="preserve"><tspan
         id="tspan4584-8-0-0"
         style="font-style:normal;font-variant:normal;font-weight:bold;font-stretch:normal;font-size:3.88056px;font-family:sans-serif;-inkscape-font-specification:'sans-serif Bold';text-align:center;text-anchor:middle;stroke-width:0.264583"
         y="207.35484"
         x="113.66257"
         sodipodi:role="line">UDP</tspan><tspan
         id="tspan4586-7-2-63"
         style="font-style:normal;font-variant:normal;font-weight:bold;font-stretch:normal;font-size:3.88056px;font-family:sans-serif;-inkscape-font-specification:'sans-serif Bold';text-align:center;text-anchor:middle;stroke-width:0.264583"
         y="213.52847"
         x="113.66257"
         sodipodi:role="line">14550</tspan></text>
    <text
       id="text4582-6-9-20"
       y="206.30597"
       x="164.19861"
       style="font-style:normal;font-weight:normal;font-size:4.9389px;line-height:1.25;font-family:sans-serif;text-align:center;text-anchor:middle;fill:#000000;fill-opacity:1;stroke:none;stroke-width:0.264583"
       xml:space="preserve"><tspan
         id="tspan4584-8-0-6"
         style="font-style:normal;font-variant:normal;font-weight:bold;font-stretch:normal;font-size:3.88056px;font-family:sans-serif;-inkscape-font-specification:'sans-serif Bold';text-align:center;text-anchor:middle;stroke-width:0.264583"
         y="206.30597"
         x="164.19861"
         sodipodi:role="line">UDP</tspan><tspan
         id="tspan4586-7-2-1"
         style="font-style:normal;font-variant:normal;font-weight:bold;font-stretch:normal;font-size:3.88056px;font-family:sans-serif;-inkscape-font-specification:'sans-serif Bold';text-align:center;text-anchor:middle;stroke-width:0.264583"
         y="212.4796"
         x="164.19861"
         sodipodi:role="line">14550</tspan></text>
    <text
       id="text940"
       y="85.701874"
       x="29.44869"
       style="font-style:normal;font-weight:normal;font-size:10.5833px;line-height:1.25;font-family:sans-serif;fill:#000000;fill-opacity:1;stroke:none;stroke-width:0.264583"
       xml:space="preserve"><tspan
         style="stroke-width:0.264583"
         y="85.701874"
         x="29.44869"
         id="tspan938"
         sodipodi:role="line" /></text>
    <text
       id="text978"
       y="156.61223"
       x="172.41669"
       style="font-size:4.23333px;line-height:1.25;font-family:sans-serif;letter-spacing:0px;stroke-width:0.264583"
       xml:space="preserve"><tspan
         id="tspan980"
         style="font-style:normal;font-variant:normal;font-weight:bold;font-stretch:normal;font-size:4.23333px;font-family:sans-serif;-inkscape-font-specification:'sans-serif Bold';fill:#ffffff;stroke-width:0.264583"
         y="156.61223"
         x="172.41669"
         sodipodi:role="line">Vant físico</tspan></text>
    <text
       xml:space="preserve"
       style="font-size:4.23333px;line-height:1.25;font-family:sans-serif;letter-spacing:0px;stroke-width:0.264583"
       x="169.29988"
       y="77.484413"
       id="text978-3"><tspan
         sodipodi:role="line"
         id="tspan976-6"
         x="169.29988"
         y="77.484413"
         style="font-style:normal;font-variant:normal;font-weight:bold;font-stretch:normal;font-size:4.23333px;font-family:sans-serif;-inkscape-font-specification:'sans-serif Bold';fill:#ffffff;stroke-width:0.264583">S<tspan
   id="tspan2209"
   style="font-size:3.52778px">imulação física </tspan></tspan><tspan
         id="tspan2207"
         sodipodi:role="line"
         x="169.29988"
         y="82.776077"
         style="font-style:normal;font-variant:normal;font-weight:bold;font-stretch:normal;font-size:3.52778px;font-family:sans-serif;-inkscape-font-specification:'sans-serif Bold';fill:#ffffff;stroke-width:0.264583">de um vant</tspan><tspan
         sodipodi:role="line"
         x="169.29988"
         y="88.067734"
         style="font-style:normal;font-variant:normal;font-weight:bold;font-stretch:normal;font-size:3.52778px;font-family:sans-serif;-inkscape-font-specification:'sans-serif Bold';fill:#ffffff;stroke-width:0.264583"
         id="tspan980-7">Gazebo, JSBSim,</tspan><tspan
         id="tspan2211"
         sodipodi:role="line"
         x="169.29988"
         y="93.359398"
         style="font-style:normal;font-variant:normal;font-weight:bold;font-stretch:normal;font-size:3.52778px;font-family:sans-serif;-inkscape-font-specification:'sans-serif Bold';fill:#ffffff;stroke-width:0.264583">SITL</tspan></text>
    <text
       transform="rotate(0.23472768)"
       xml:space="preserve"
       style="font-size:3.52778px;line-height:1.25;font-family:sans-serif;letter-spacing:0px;stroke-width:0.264583"
       x="182.74936"
       y="205.0994"
       id="text978-36"><tspan
         sodipodi:role="line"
         x="182.74936"
         y="205.0994"
         style="font-style:normal;font-variant:normal;font-weight:bold;font-stretch:normal;font-size:3.52778px;font-family:sans-serif;-inkscape-font-specification:'sans-serif Bold';fill:#ffffff;stroke-width:0.264583"
         id="tspan980-5">Dronekit, </tspan><tspan
         id="tspan2217"
         sodipodi:role="line"
         x="182.74936"
         y="209.50912"
         style="font-style:normal;font-variant:normal;font-weight:bold;font-stretch:normal;font-size:3.52778px;font-family:sans-serif;-inkscape-font-specification:'sans-serif Bold';fill:#ffffff;stroke-width:0.264583">MAVsdk</tspan></text>
    <text
       xml:space="preserve"
       style="font-size:4.23333px;line-height:1.25;font-family:sans-serif;letter-spacing:0px;stroke-width:0.264583"
       x="77.750923"
       y="204.56415"
       id="text978-35"><tspan
         sodipodi:role="line"
         x="77.750923"
         y="204.56415"
         style="font-style:normal;font-variant:normal;font-weight:bold;font-stretch:normal;font-size:3.52778px;font-family:sans-serif;-inkscape-font-specification:'sans-serif Bold';fill:#ffffff;stroke-width:0.264583"
         id="tspan980-9">MAVProxy na </tspan><tspan
         id="tspan2221"
         sodipodi:role="line"
         x="77.750923"
         y="209.8558"
         style="font-style:normal;font-variant:normal;font-weight:bold;font-stretch:normal;font-size:3.52778px;font-family:sans-serif;-inkscape-font-specification:'sans-serif Bold';fill:#ffffff;stroke-width:0.264583">porta de </tspan><tspan
         id="tspan2227"
         sodipodi:role="line"
         x="77.750923"
         y="215.14748"
         style="font-style:normal;font-variant:normal;font-weight:bold;font-stretch:normal;font-size:3.52778px;font-family:sans-serif;-inkscape-font-specification:'sans-serif Bold';fill:#ffffff;stroke-width:0.264583">telemetria</tspan></text>
    <text
       xml:space="preserve"
       style="font-size:4.23333px;line-height:1.25;font-family:sans-serif;letter-spacing:0px;stroke-width:0.264583"
       x="23.425379"
       y="202.40094"
       id="text978-1"><tspan
         sodipodi:role="line"
         x="23.425379"
         y="202.40094"
         style="font-style:normal;font-variant:normal;font-weight:bold;font-stretch:normal;font-size:3.52778px;font-family:sans-serif;-inkscape-font-specification:'sans-serif Bold';fill:#ffffff;stroke-width:0.264583"
         id="tspan980-70">Software </tspan><tspan
         id="tspan2203"
         sodipodi:role="line"
         x="23.425379"
         y="207.6926"
         style="font-style:normal;font-variant:normal;font-weight:bold;font-stretch:normal;font-size:3.52778px;font-family:sans-serif;-inkscape-font-specification:'sans-serif Bold';fill:#ffffff;stroke-width:0.264583">Mission Planner</tspan><tspan
         id="tspan2205"
         sodipodi:role="line"
         x="23.425379"
         y="212.98427"
         style="font-style:normal;font-variant:normal;font-weight:bold;font-stretch:normal;font-size:3.52778px;font-family:sans-serif;-inkscape-font-specification:'sans-serif Bold';fill:#ffffff;stroke-width:0.264583">QGroundControl </tspan><tspan
         sodipodi:role="line"
         x="23.425379"
         y="218.27592"
         style="font-style:normal;font-variant:normal;font-weight:bold;font-stretch:normal;font-size:4.23333px;font-family:sans-serif;-inkscape-font-specification:'sans-serif Bold';fill:#ffffff;stroke-width:0.264583"
         id="tspan161" /></text>
    <text
       id="text978-3-3"
       y="85.258369"
       x="27.967159"
       style="font-size:4.23333px;line-height:1.25;font-family:sans-serif;letter-spacing:0px;stroke-width:0.264583"
       xml:space="preserve"><tspan
         style="font-style:normal;font-variant:normal;font-weight:bold;font-stretch:normal;font-size:3.52777px;font-family:sans-serif;-inkscape-font-specification:'sans-serif Bold';fill:#ffffff;stroke-width:0.264583"
         y="85.258369"
         x="27.967159"
         sodipodi:role="line"
         id="tspan2211-3">Firmware da controladora do vant, </tspan><tspan
         id="tspan982"
         style="font-style:normal;font-variant:normal;font-weight:bold;font-stretch:normal;font-size:3.52777px;font-family:sans-serif;-inkscape-font-specification:'sans-serif Bold';fill:#ffffff;stroke-width:0.264583"
         y="90.550034"
         x="27.967159"
         sodipodi:role="line">executando no desktop </tspan></text>
  </g>
</svg>
