<svg xmlns="http://www.w3.org/2000/svg" xmlns:xlink="http://www.w3.org/1999/xlink" xmlns:lucid="lucid" width="1234.9" height="640"><g transform="translate(-460 -460)" lucid:page-tab-id="0_0"><path d="M1532.24 801.65h-13.6V781" stroke="#000" stroke-width="2" fill="none"/><path d="M1536.24 802.12l-2.53-1.35-.93 1.76.22.12h-.8v-2h4.04zM1519.65 781.03h-2V780h2z"/><path d="M1506.07 801.65h26.17" stroke="#000" stroke-width="2" fill="none"/><path d="M1506.1 802.65h-.76l.23-.14-1-1.72-2.5 1.46v-1.6h4.02zM1536.24 802.12l-2.53-1.35-.93 1.76.22.12h-.8v-2h4.04z"/><g fill="none"><path d="M1360 830.96l120.8-70.73 40.44 69.03L1400.42 900z"/><path d="M1384.25 872.4l12.08-7.1c-7.6-12.97-6.7-23.87-.04-27.77 6.66-3.9 16.6.65 22.18 10.18-5.58-9.52-4.7-20.4 1.97-24.32 6.67-3.9 16.6.65 22.2 10.18-5.6-9.53-4.7-20.42 1.97-24.33 6.67-3.9 16.6.66 22.18 10.2-5.58-9.54-4.7-20.44 1.98-24.35 6.67-3.9 16.6.66 22.2 10.2.7 1.2 1.22 2.27 1.75 3.56l12.34-7.2" stroke="#000" stroke-width="2"/></g><use xlink:href="#a" transform="matrix(0.5052672232637272,0.8629629384251463,-0.8629629384251463,0.5052672232637272,1501.0704325304473,822.5290649119406) translate(9 52.6)"/><g fill="none"><path d="M1470.65 780V640h80v140z"/><path d="M1518.65 780v-14c-15.05 0-24-6.27-24-14s8.95-14 20-14c-11.05 0-20-6.27-20-14s8.95-14 20-14c-11.05 0-20-6.27-20-14s8.95-14 20-14c-11.05 0-20-6.27-20-14s8.95-14 20-14c1.4 0 2.6.08 3.97.28l.03-14.28" stroke="#000" stroke-width="2"/></g><use xlink:href="#b" transform="matrix(1,0,0,1,1534.6478604819176,654) translate(9 52.6)"/><g fill="none"><path d="M1634.17 909.9L1510.65 844l37.65-70.6 123.52 65.9z"/><path d="M1656.76 867.54l-12.35-6.6c-7.07 13.28-16.8 18.23-23.64 14.6-6.82-3.65-8.13-14.5-2.94-24.24-5.2 9.74-14.94 14.7-21.76 11.06-6.82-3.64-8.14-14.5-2.94-24.24-5.2 9.75-14.94 14.7-21.77 11.06-6.82-3.64-8.14-14.5-2.94-24.24-5.2 9.75-14.93 14.7-21.75 11.06-6.82-3.64-8.14-14.5-2.94-24.23.67-1.24 1.3-2.25 2.12-3.38l-12.58-6.75" stroke="#000" stroke-width="2"/></g><use xlink:href="#c" transform="matrix(0.47062330801570956,-0.8823342348296084,0.8823342348296084,0.47062330801570956,1553.1204314825368,794.1192953263925) translate(8.524999999999999 52.6)"/><path d="M1120 540v140h-60V540z" fill="none"/><path d="M1078 540v42c-4.87 0-8 3.13-8 7s3.13 7 7 7 7-3.13 7-7-3.13-7-7-7m1 14l24 37.8m-24 4.2c-4.87 0-8 3.13-8 7s3.13 7 7 7 7-3.13 7-7-3.13-7-7-7m1 14v28" stroke="#000" stroke-width="2" fill="#fff"/><path d="M1220 540v140h-60V540z" fill="none"/><path d="M1178 540v42c-4.87 0-8 3.13-8 7s3.13 7 7 7 7-3.13 7-7-3.13-7-7-7m1 14l24 37.8m-24 4.2c-4.87 0-8 3.13-8 7s3.13 7 7 7 7-3.13 7-7-3.13-7-7-7m1 14v28" stroke="#000" stroke-width="2" fill="#fff"/><path d="M1300 540v140h-60V540z" fill="none"/><path d="M1258 540v42c-4.87 0-8 3.13-8 7s3.13 7 7 7 7-3.13 7-7-3.13-7-7-7m1 14l24 37.8m-24 4.2c-4.87 0-8 3.13-8 7s3.13 7 7 7 7-3.13 7-7-3.13-7-7-7m1 14v28" stroke="#000" stroke-width="2" fill="#fff"/><path d="M1120 900v140h-60V900z" fill="none"/><path d="M1078 900v42c-4.87 0-8 3.13-8 7s3.13 7 7 7 7-3.13 7-7-3.13-7-7-7m1 14l24 37.8m-24 4.2c-4.87 0-8 3.13-8 7s3.13 7 7 7 7-3.13 7-7-3.13-7-7-7m1 14v28" stroke="#000" stroke-width="2" fill="#fff"/><path d="M1220 900v140h-60V900z" fill="none"/><path d="M1178 900v42c-4.87 0-8 3.13-8 7s3.13 7 7 7 7-3.13 7-7-3.13-7-7-7m1 14l24 37.8m-24 4.2c-4.87 0-8 3.13-8 7s3.13 7 7 7 7-3.13 7-7-3.13-7-7-7m1 14v28" stroke="#000" stroke-width="2" fill="#fff"/><path d="M1300 900v140h-60V900z" fill="none"/><path d="M1258 900v42c-4.87 0-8 3.13-8 7s3.13 7 7 7 7-3.13 7-7-3.13-7-7-7m1 14l24 37.8m-24 4.2c-4.87 0-8 3.13-8 7s3.13 7 7 7 7-3.13 7-7-3.13-7-7-7m1 14v28" stroke="#000" stroke-width="2" fill="#fff"/><path d="M760 580h160v100H760z" stroke="#000" stroke-width="2" fill="#ef8d22"/><use xlink:href="#d" transform="matrix(1,0,0,1,765,585) translate(28.27499999999999 36.9)"/><use xlink:href="#e" transform="matrix(1,0,0,1,765,585) translate(66.82499999999999 36.9)"/><use xlink:href="#f" transform="matrix(1,0,0,1,765,585) translate(26.32499999999999 58.5)"/><path d="M600 760h320v100H600z" stroke="#000" stroke-width="2" fill="#834187"/><use xlink:href="#g" transform="matrix(1,0,0,1,605,765) translate(26.125 48.15)"/><use xlink:href="#h" transform="matrix(1,0,0,1,605,765) translate(95.625 48.15)"/><use xlink:href="#f" transform="matrix(1,0,0,1,605,765) translate(186.525 48.15)"/><path d="M700 910h160v50H700z" stroke="#000" stroke-width="2" fill="#19967d"/><use xlink:href="#i" transform="matrix(1,0,0,1,705,915) translate(56.525 24.4)"/><path d="M600 980h80v20h-80z" stroke="#000" stroke-width="2"/><path d="M480 580h80v380h-80z" stroke="#000" stroke-width="2" fill="#0c7cba"/><use xlink:href="#j" transform="matrix(-1.8369701987210297e-16,-1,1,-1.8369701987210297e-16,485,955.0000000000001) translate(93.69999999999999 38.4625)"/><path d="M1400 580h240v60h-240z" stroke="#000" stroke-opacity="0" stroke-width="2" fill="#fff" fill-opacity="0"/><use xlink:href="#k" transform="matrix(1,0,0,1,1405,585) translate(30.82499999999999 30.025)"/><use xlink:href="#l" transform="matrix(1,0,0,1,1405,585) translate(132.675 30.025)"/><path d="M1010 600h60v50h-60z" stroke="#000" stroke-opacity="0" stroke-width="2" fill="#fff" fill-opacity="0"/><use xlink:href="#m" transform="matrix(1,0,0,1,1015,605) translate(13 24.4)"/><path d="M1200 945h60v50h-60z" stroke="#000" stroke-opacity="0" stroke-width="2" fill="#fff" fill-opacity="0"/><use xlink:href="#n" transform="matrix(1,0,0,1,1205,950) translate(13 24.4)"/><path d="M1110 600h60v50h-60z" stroke="#000" stroke-opacity="0" stroke-width="2" fill="#fff" fill-opacity="0"/><use xlink:href="#o" transform="matrix(1,0,0,1,1115,605) translate(13 24.4)"/><path d="M1110 945h60v50h-60z" stroke="#000" stroke-opacity="0" stroke-width="2" fill="#fff" fill-opacity="0"/><use xlink:href="#p" transform="matrix(1,0,0,1,1115,950) translate(13 24.4)"/><path d="M1000 945h60v50h-60z" stroke="#000" stroke-opacity="0" stroke-width="2" fill="#fff" fill-opacity="0"/><use xlink:href="#q" transform="matrix(1,0,0,1,1005,950) translate(13 24.4)"/><path d="M1200 600h60v50h-60z" stroke="#000" stroke-opacity="0" stroke-width="2" fill="#fff" fill-opacity="0"/><use xlink:href="#r" transform="matrix(1,0,0,1,1205,605) translate(13 24.4)"/><path d="M1258 1041v19H956.2" stroke="#000" stroke-width="2" fill="none"/><path d="M1259 1041.03h-2V1040h2zM956.23 1061h-1.03v-2h1.03z"/><path d="M1178 1041v9h-1.5v9" stroke="#000" stroke-width="2" fill="none"/><path d="M1179 1041.03h-2V1040h2z"/><path d="M1176.5 1058.97v1.03M1078 1041v9h-3.02v9" stroke="#000" stroke-width="2" fill="none"/><path d="M1079 1041.03h-2V1040h2z"/><path d="M1074.98 1058.97v1.03" stroke="#000" stroke-width="2" fill="none"/><path d="M955.2 1040v40h-40v-40z" fill="none"/><path d="M947.2 1040v40m-8-6v-28m-8 6v16m-8-12v8m-8-2v-4m40 2h-8z" stroke="#000" stroke-width="2" fill="#fff"/><path d="M1258 539v-39h-257" stroke="#000" stroke-width="2" fill="none"/><path d="M1257 540v-1.03h2V540z"/><path d="M1001.03 500H1000M1178 539v-38" stroke="#000" stroke-width="2" fill="none"/><path d="M1177 540v-1.03h2V540z"/><path d="M1178 501.03V500M1078 539v-38" stroke="#000" stroke-width="2" fill="none"/><path d="M1077 540v-1.03h2V540z"/><path d="M1078 501.03V500" stroke="#000" stroke-width="2" fill="none"/><path d="M970 480h40v40h-40z" fill="none"/><path d="M1002.5 500c0 6.9-5.6 12.5-12.5 12.5s-12.5-5.6-12.5-12.5 5.6-12.5 12.5-12.5 12.5 5.6 12.5 12.5" stroke="#000" stroke-width="2" fill="#fff"/><path d="M922 630h39v-70h79v21.5" stroke="#000" stroke-width="2" fill="none"/><path d="M922.03 631H921v-2h1.03z"/><path d="M1040 596.76l-4.64-14.26h9.28z" stroke="#000" stroke-width="2"/><path d="M922 630h39v-70h179v21.5" stroke="#000" stroke-width="2" fill="none"/><path d="M922.03 631H921v-2h1.03z"/><path d="M1140 596.76l-4.64-14.26h9.28z" stroke="#000" stroke-width="2"/><path d="M922 630h39v-70h269v21.5" stroke="#000" stroke-width="2" fill="none"/><path d="M922.03 631H921v-2h1.03z"/><path d="M1230 596.76l-4.64-14.26h9.28z" stroke="#000" stroke-width="2"/><path d="M922 630h38v60h70v236.5" stroke="#000" stroke-width="2" fill="none"/><path d="M922.03 631H921v-2h1.03z"/><path d="M1030 941.76l-4.64-14.26h9.28z" stroke="#000" stroke-width="2"/><path d="M922 630h38v60h180v236.5" stroke="#000" stroke-width="2" fill="none"/><path d="M922.03 631H921v-2h1.03z"/><path d="M1140 941.76l-4.64-14.26h9.28z" stroke="#000" stroke-width="2"/><path d="M922 630h38v60h276v236.5" stroke="#000" stroke-width="2" fill="none"/><path d="M922.03 631H921v-2h1.03z"/><path d="M1236 941.76l-4.64-14.26h9.28z" stroke="#000" stroke-width="2"/><path d="M1518.65 639v-9H1330v171.33h-299" stroke="#000" stroke-width="2" fill="none"/><path d="M1519.65 643v-3h-2v-1.03h2z"/><path d="M1031.03 801.33H1030M1657.76 867.54H1670V910h-340v-74h-189" stroke="#000" stroke-width="2" fill="none"/><path d="M1657.8 868.54h-4.04v-1.47l2.53 1.35.94-1.77-.23-.1h.8z"/><path d="M1141.03 836H1140M1383.25 872.4h-17.98V820H1237" stroke="#000" stroke-width="2" fill="none"/><path d="M1383.75 871.52l1 1.73 2.5-1.46v1.6h-4.02v-2h.75z"/><path d="M1237.03 820H1236" stroke="#000" stroke-width="2" fill="none"/><path d="M595.5 810H580v-38h-15.5" stroke="#000" stroke-width="7" fill="none"/><path d="M599 813.5h-3.6v-7h3.6zM564.6 775.5H561v-7h3.6z"/><path d="M755 630H580v140h-15" stroke="#000" stroke-width="8" fill="none"/><path d="M759 634h-4.1v-8h4.1zM565.1 774H561v-8h4.1z"/><path d="M695 935H580V770h-15" stroke="#000" stroke-width="8" fill="none"/><path d="M699 939h-4.1v-8h4.1zM565.1 774H561v-8h4.1z"/><path d="M780 964v26h-96" stroke="#000" stroke-width="6" fill="none"/><path d="M783 964.08h-6V961h6zM684.08 993H681v-6h3.08z"/><path d="M680 995h120v40H680z" stroke="#000" stroke-opacity="0" stroke-width="2" fill="#fff" fill-opacity="0"/><g><use xlink:href="#s" transform="matrix(1,0,0,1,685,1000) translate(8.099999999999994 18.15)"/></g><path d="M922 810h53.5v-76.67h53.5" stroke="#000" stroke-width="2" fill="none"/><path d="M922.03 811H921v-2h1.03z"/><path d="M1028.97 733.33h1.03M922 810h68v-54h149" stroke="#000" stroke-width="2" fill="none"/><path d="M922.03 811H921v-2h1.03z"/><path d="M1138.97 756h1.03M922 810h77.75v-34H1235" stroke="#000" stroke-width="2" fill="none"/><path d="M922.03 811H921v-2h1.03z"/><path d="M1234.97 776h1.03" stroke="#000" stroke-width="2" fill="none"/><defs><path d="M160-131c35 5 61 23 61 61C221 17 115-2 30 0v-248c76 3 177-17 177 60 0 33-19 50-47 57zm-97-11c50-1 110 9 110-42 0-47-63-36-110-37v79zm0 115c55-2 124 14 124-45 0-56-70-42-124-44v89" id="t"/><use transform="matrix(0.05,0,0,0.05,0,0)" xlink:href="#t" id="a"/><path d="M205 0l-28-72H64L36 0H1l101-248h38L239 0h-34zm-38-99l-47-123c-12 45-31 82-46 123h93" id="u"/><use transform="matrix(0.05,0,0,0.05,0,0)" xlink:href="#u" id="b"/><path d="M212-179c-10-28-35-45-73-45-59 0-87 40-87 99 0 60 29 101 89 101 43 0 62-24 78-52l27 14C228-24 195 4 139 4 59 4 22-46 18-125c-6-104 99-153 187-111 19 9 31 26 39 46" id="v"/><use transform="matrix(0.05,0,0,0.05,0,0)" xlink:href="#v" id="c"/><path d="M63-220v92h138v28H63V0H30v-248h175v28H63" id="w"/><path d="M30 0v-248h187v28H63v79h144v27H63v87h162V0H30" id="x"/><path d="M127-220V0H93v-220H8v-28h204v28h-85" id="y"/><g id="d"><use transform="matrix(0.05,0,0,0.05,0,0)" xlink:href="#w"/><use transform="matrix(0.05,0,0,0.05,10.950000000000001,0)" xlink:href="#x"/><use transform="matrix(0.05,0,0,0.05,22.950000000000003,0)" xlink:href="#y"/></g><path d="M30-248c118-7 216 8 213 122C240-48 200 0 122 0H30v-248zM63-27c89 8 146-16 146-99s-60-101-146-95v194" id="z"/><path d="M233-177c-1 41-23 64-60 70L243 0h-38l-65-103H63V0H30v-248c88 3 205-21 203 71zM63-129c60-2 137 13 137-47 0-61-80-42-137-45v92" id="A"/><path d="M33 0v-248h34V0H33" id="B"/><path d="M137 0h-34L2-248h35l83 218 83-218h36" id="C"/><g id="e"><use transform="matrix(0.05,0,0,0.05,0,0)" xlink:href="#z"/><use transform="matrix(0.05,0,0,0.05,12.950000000000001,0)" xlink:href="#A"/><use transform="matrix(0.05,0,0,0.05,25.900000000000002,0)" xlink:href="#B"/><use transform="matrix(0.05,0,0,0.05,30.900000000000002,0)" xlink:href="#C"/><use transform="matrix(0.05,0,0,0.05,42.900000000000006,0)" xlink:href="#x"/></g><path d="M232-93c-1 65-40 97-104 97C67 4 28-28 28-90v-158h33c8 89-33 224 67 224 102 0 64-133 71-224h33v155" id="D"/><path d="M137-103V0h-34v-103L8-248h37l75 118 75-118h37" id="E"/><g id="f"><use transform="matrix(0.05,0,0,0.05,0,0)" xlink:href="#v"/><use transform="matrix(0.05,0,0,0.05,12.950000000000001,0)" xlink:href="#B"/><use transform="matrix(0.05,0,0,0.05,17.950000000000003,0)" xlink:href="#A"/><use transform="matrix(0.05,0,0,0.05,30.900000000000006,0)" xlink:href="#v"/><use transform="matrix(0.05,0,0,0.05,43.85000000000001,0)" xlink:href="#D"/><use transform="matrix(0.05,0,0,0.05,56.80000000000001,0)" xlink:href="#B"/><use transform="matrix(0.05,0,0,0.05,61.80000000000001,0)" xlink:href="#y"/><use transform="matrix(0.05,0,0,0.05,72.75000000000001,0)" xlink:href="#A"/><use transform="matrix(0.05,0,0,0.05,85.35000000000002,0)" xlink:href="#E"/></g><path d="M140-251c81 0 123 46 123 126C263-46 219 4 140 4 59 4 17-45 17-125s42-126 123-126zm0 227c63 0 89-41 89-101s-29-99-89-99c-61 0-89 39-89 99S79-25 140-24" id="F"/><g id="g"><use transform="matrix(0.05,0,0,0.05,0,0)" xlink:href="#A"/><use transform="matrix(0.05,0,0,0.05,12.950000000000001,0)" xlink:href="#F"/><use transform="matrix(0.05,0,0,0.05,26.950000000000003,0)" xlink:href="#y"/><use transform="matrix(0.05,0,0,0.05,37.550000000000004,0)" xlink:href="#F"/><use transform="matrix(0.05,0,0,0.05,51.550000000000004,0)" xlink:href="#A"/></g><path d="M30-248c87 1 191-15 191 75 0 78-77 80-158 76V0H30v-248zm33 125c57 0 124 11 124-50 0-59-68-47-124-48v98" id="G"/><path d="M185-189c-5-48-123-54-124 2 14 75 158 14 163 119 3 78-121 87-175 55-17-10-28-26-33-46l33-7c5 56 141 63 141-1 0-78-155-14-162-118-5-82 145-84 179-34 5 7 8 16 11 25" id="H"/><path d="M190 0L58-211 59 0H30v-248h39L202-35l-2-213h31V0h-41" id="I"/><g id="h"><use transform="matrix(0.05,0,0,0.05,0,0)" xlink:href="#G"/><use transform="matrix(0.05,0,0,0.05,12,0)" xlink:href="#F"/><use transform="matrix(0.05,0,0,0.05,26,0)" xlink:href="#H"/><use transform="matrix(0.05,0,0,0.05,38,0)" xlink:href="#B"/><use transform="matrix(0.05,0,0,0.05,43,0)" xlink:href="#y"/><use transform="matrix(0.05,0,0,0.05,53.95,0)" xlink:href="#B"/><use transform="matrix(0.05,0,0,0.05,58.95,0)" xlink:href="#F"/><use transform="matrix(0.05,0,0,0.05,72.95,0)" xlink:href="#I"/></g><g id="i"><use transform="matrix(0.05,0,0,0.05,0,0)" xlink:href="#t"/><use transform="matrix(0.05,0,0,0.05,12,0)" xlink:href="#x"/><use transform="matrix(0.05,0,0,0.05,24,0)" xlink:href="#v"/></g><path d="M240 0l2-218c-23 76-54 145-80 218h-23L58-218 59 0H30v-248h44l77 211c21-75 51-140 76-211h43V0h-30" id="J"/><path d="M30 0v-248h33v221h125V0H30" id="K"/><g id="j"><use transform="matrix(0.05,0,0,0.05,0,0)" xlink:href="#J"/><use transform="matrix(0.05,0,0,0.05,14.950000000000001,0)" xlink:href="#B"/><use transform="matrix(0.05,0,0,0.05,19.950000000000003,0)" xlink:href="#v"/><use transform="matrix(0.05,0,0,0.05,32.900000000000006,0)" xlink:href="#A"/><use transform="matrix(0.05,0,0,0.05,45.85000000000001,0)" xlink:href="#F"/><use transform="matrix(0.05,0,0,0.05,59.85,0)" xlink:href="#v"/><use transform="matrix(0.05,0,0,0.05,72.80000000000001,0)" xlink:href="#F"/><use transform="matrix(0.05,0,0,0.05,86.80000000000001,0)" xlink:href="#I"/><use transform="matrix(0.05,0,0,0.05,99.75000000000001,0)" xlink:href="#y"/><use transform="matrix(0.05,0,0,0.05,110.7,0)" xlink:href="#A"/><use transform="matrix(0.05,0,0,0.05,123.65000000000003,0)" xlink:href="#F"/><use transform="matrix(0.05,0,0,0.05,137.65000000000003,0)" xlink:href="#K"/><use transform="matrix(0.05,0,0,0.05,147.65000000000003,0)" xlink:href="#K"/><use transform="matrix(0.05,0,0,0.05,157.65000000000003,0)" xlink:href="#x"/><use transform="matrix(0.05,0,0,0.05,169.65000000000003,0)" xlink:href="#A"/></g><path d="M197 0v-115H63V0H30v-248h33v105h134v-105h34V0h-34" id="L"/><g id="k"><use transform="matrix(0.05,0,0,0.05,0,0)" xlink:href="#t"/><use transform="matrix(0.05,0,0,0.05,12,0)" xlink:href="#A"/><use transform="matrix(0.05,0,0,0.05,24.950000000000003,0)" xlink:href="#D"/><use transform="matrix(0.05,0,0,0.05,37.900000000000006,0)" xlink:href="#H"/><use transform="matrix(0.05,0,0,0.05,49.900000000000006,0)" xlink:href="#L"/><use transform="matrix(0.05,0,0,0.05,62.85,0)" xlink:href="#K"/><use transform="matrix(0.05,0,0,0.05,72.85000000000001,0)" xlink:href="#x"/><use transform="matrix(0.05,0,0,0.05,84.85000000000001,0)" xlink:href="#H"/></g><g id="l"><use transform="matrix(0.05,0,0,0.05,0,0)" xlink:href="#J"/><use transform="matrix(0.05,0,0,0.05,14.950000000000001,0)" xlink:href="#F"/><use transform="matrix(0.05,0,0,0.05,28.950000000000003,0)" xlink:href="#y"/><use transform="matrix(0.05,0,0,0.05,39.550000000000004,0)" xlink:href="#F"/><use transform="matrix(0.05,0,0,0.05,53.550000000000004,0)" xlink:href="#A"/></g><path d="M140-251c81 0 123 46 123 126C263-53 228-8 163 1c7 30 30 48 69 40v23c-55 16-95-15-103-61C56-3 17-48 17-125c0-80 42-126 123-126zm0 227c63 0 89-41 89-101s-29-99-89-99c-61 0-89 39-89 99S79-25 140-24" id="M"/><path d="M27 0v-27h64v-190l-56 39v-29l58-41h29v221h61V0H27" id="N"/><g id="m"><use transform="matrix(0.05,0,0,0.05,0,0)" xlink:href="#M"/><use transform="matrix(0.05,0,0,0.05,14,0)" xlink:href="#N"/></g><path d="M110-160c48 1 74 30 74 79 0 53-28 85-80 85-65 0-83-55-86-122-5-90 50-162 133-122 14 7 22 21 27 39l-31 6c-5-40-67-38-82-6-9 19-15 44-15 74 11-20 30-34 60-33zm-7 138c34 0 49-23 49-58s-16-56-50-56c-29 0-50 16-49 49 1 36 15 65 50 65" id="O"/><g id="n"><use transform="matrix(0.05,0,0,0.05,0,0)" xlink:href="#M"/><use transform="matrix(0.05,0,0,0.05,14,0)" xlink:href="#O"/></g><path d="M101-251c82-7 93 87 43 132L82-64C71-53 59-42 53-27h129V0H18c2-99 128-94 128-182 0-28-16-43-45-43s-46 15-49 41l-32-3c6-41 34-60 81-64" id="P"/><g id="o"><use transform="matrix(0.05,0,0,0.05,0,0)" xlink:href="#M"/><use transform="matrix(0.05,0,0,0.05,14,0)" xlink:href="#P"/></g><path d="M54-142c48-35 137-8 131 61C196 18 31 33 14-55l32-4c7 23 22 37 52 37 35-1 51-22 54-58 4-55-73-65-99-34H22l8-134h141v27H59" id="Q"/><g id="p"><use transform="matrix(0.05,0,0,0.05,0,0)" xlink:href="#M"/><use transform="matrix(0.05,0,0,0.05,14,0)" xlink:href="#Q"/></g><path d="M155-56V0h-30v-56H8v-25l114-167h33v167h35v25h-35zm-30-156c-27 46-58 90-88 131h88v-131" id="R"/><g id="q"><use transform="matrix(0.05,0,0,0.05,0,0)" xlink:href="#M"/><use transform="matrix(0.05,0,0,0.05,14,0)" xlink:href="#R"/></g><path d="M126-127c33 6 58 20 58 59 0 88-139 92-164 29-3-8-5-16-6-25l32-3c6 27 21 44 54 44 32 0 52-15 52-46 0-38-36-46-79-43v-28c39 1 72-4 72-42 0-27-17-43-46-43-28 0-47 15-49 41l-32-3c6-42 35-63 81-64 48-1 79 21 79 65 0 36-21 52-52 59" id="S"/><g id="r"><use transform="matrix(0.05,0,0,0.05,0,0)" xlink:href="#M"/><use transform="matrix(0.05,0,0,0.05,14,0)" xlink:href="#S"/></g><g id="s"><use transform="matrix(0.05,0,0,0.05,0,0)" xlink:href="#y"/><use transform="matrix(0.05,0,0,0.05,10.950000000000001,0)" xlink:href="#L"/><use transform="matrix(0.05,0,0,0.05,23.900000000000002,0)" xlink:href="#A"/><use transform="matrix(0.05,0,0,0.05,36.85,0)" xlink:href="#F"/><use transform="matrix(0.05,0,0,0.05,50.85,0)" xlink:href="#y"/><use transform="matrix(0.05,0,0,0.05,61.800000000000004,0)" xlink:href="#K"/><use transform="matrix(0.05,0,0,0.05,71.80000000000001,0)" xlink:href="#K"/><use transform="matrix(0.05,0,0,0.05,81.80000000000001,0)" xlink:href="#x"/></g></defs></g></svg>