<svg xmlns="http://www.w3.org/2000/svg" xmlns:xlink="http://www.w3.org/1999/xlink" x="0" y="0" width="662" height="749" style="
        width:662px;
        height:749px;
        background: transparent;
        fill: none;
">
        
        
        <svg xmlns="http://www.w3.org/2000/svg" class="role-diagram-draw-area"><g class="shapes-region" style="stroke: black; fill: none;"><g class="composite-shape"><path class="real" d=" M241,388.86 C241.08,339.15 281.44,298.92 331.14,299 C380.85,299.08 421.08,339.44 421,389.14 C420.92,438.85 380.56,479.08 330.86,479 C281.15,478.92 240.92,438.56 241,388.86 Z" style="stroke-width: 1; stroke: rgb(155, 155, 155); fill: none; fill-opacity: 1; stroke-dasharray: 1.125, 3.35; stroke-opacity: 1;"/></g><g class="composite-shape"><path class="real" d=" M287,388.92 C287.04,364.06 307.23,343.94 332.08,343.99 C356.93,344.03 377.04,364.22 377,389.08 C376.96,413.94 356.77,434.06 331.92,434.01 C307.07,433.97 286.96,413.78 287,388.92 Z" style="stroke-width: 1; stroke: rgb(155, 155, 155); stroke-opacity: 1; fill: none; fill-opacity: 1; stroke-dasharray: 1.125, 3.35;"/></g><g class="composite-shape"><path class="real" d=" M196,388.79 C196.12,314.23 256.65,253.88 331.21,254 C405.77,254.12 466.12,314.65 466,389.21 C465.88,463.77 405.35,524.12 330.79,524 C256.23,523.88 195.88,463.35 196,388.79 Z" style="stroke-width: 1; stroke: rgb(155, 155, 155); stroke-opacity: 1; fill: none; fill-opacity: 1; stroke-dasharray: 1.125, 3.35;"/></g><g class="composite-shape"><path class="real" d=" M152,388.72 C152.16,289.31 232.87,208.84 332.28,209 C431.69,209.16 512.16,289.87 512,389.28 C511.84,488.69 431.13,569.16 331.72,569 C232.31,568.84 151.84,488.13 152,388.72 Z" style="stroke-width: 1; stroke: rgb(155, 155, 155); stroke-opacity: 1; fill: none; fill-opacity: 1; stroke-dasharray: 1.125, 3.35;"/></g><g class="composite-shape"><path class="real" d=" M106,388.65 C106.2,261.62 207.1,158.81 331.36,159 C455.63,159.2 556.2,262.33 556,389.35 C555.8,516.38 454.9,619.19 330.64,619 C206.37,618.8 105.8,515.67 106,388.65 Z" style="stroke-width: 1; stroke: rgb(155, 155, 155); stroke-opacity: 1; fill: none; fill-opacity: 1; stroke-dasharray: 1.125, 3.35;"/></g><g class="composite-shape"><path class="real" d=" M61,388.58 C61.23,239.46 182.31,118.77 331.42,119 C480.54,119.23 601.23,240.31 601,389.42 C600.77,538.54 479.69,659.23 330.58,659 C181.46,658.77 60.77,537.69 61,388.58 Z" style="stroke-width: 1; stroke: rgb(155, 155, 155); stroke-opacity: 1; fill: none; fill-opacity: 1; stroke-dasharray: 1.125, 3.35;"/></g><g class="composite-shape"><defs><!-- react-text: 94037 --> <!-- /react-text --><radialGradient id="_pgfttitgioss" gradientTransform="matrix(1, 0, 0, 1, 0, 0)" cx="0.5" cy="0.5" fx="0.5" fy="0.5"><!-- react-text: 94039 --> <!-- /react-text --><stop offset="0.08" style="stop-color: rgb(248, 231, 28); stop-opacity: 0.01;"/><stop offset="1" style="stop-color: rgb(248, 231, 28); stop-opacity: 0.2;"/></radialGradient></defs><path class="real" d=" M16,388.51 C16.27,214.54 157.53,73.73 331.49,74 C505.46,74.27 646.27,215.53 646,389.49 C645.73,563.46 504.47,704.27 330.51,704 C156.54,703.73 15.73,562.47 16,388.51 Z" style="stroke-width: 1; stroke: rgb(155, 155, 155); stroke-opacity: 1; fill: url(&quot;#_pgfttitgioss&quot;); fill-opacity: 1; stroke-dasharray: 1.125, 3.35;"/></g><g class="arrow-line"><path class="connection real" stroke-dasharray="1.125 3.35" d="  M37.67,388.83 L38.33,519.5" style="stroke: rgb(144, 19, 254); stroke-width: 1; fill: none; fill-opacity: 1; stroke-opacity: 1;"/></g><g class="arrow-line"><path class="connection real" stroke-dasharray="1.125 3.35" d="  M38.33,519.5 L332.33,518.17" style="stroke: rgb(144, 19, 254); stroke-width: 1; fill: rgb(255, 255, 255); fill-opacity: 1; stroke-opacity: 1;"/></g><g class="arrow-line"><path class="connection real" stroke-dasharray="1.125 3.35" d="  M293,303.5 L293,388.17" style="stroke: rgb(144, 19, 254); stroke-opacity: 1; stroke-width: 1; fill: none; fill-opacity: 1;"/></g><g class="arrow-line"><path class="connection real" stroke-dasharray="1.125 3.35" d="  M293,303.5 L332.33,303.5" style="stroke: rgb(144, 19, 254); stroke-opacity: 1; stroke-width: 1; fill: none; fill-opacity: 1;"/></g><g class="arrow-line"><path class="connection real" stroke-dasharray="1.125 3.35" d="  M502.33,321.5 L502.33,388.17" style="stroke: rgb(144, 19, 254); stroke-opacity: 1; stroke-width: 1; fill: none; fill-opacity: 1;"/></g><g class="arrow-line"><path class="connection real" stroke-dasharray="1.125 3.35" d="  M502,322.83 L332.33,322.83" style="stroke: rgb(144, 19, 254); stroke-opacity: 1; stroke-width: 1; fill: none; fill-opacity: 1;"/></g><g class="arrow-line"><path class="connection real" stroke-dasharray="1.125 3.35" d="  M497,388.83 L497,552.83" style="stroke: rgb(144, 19, 254); stroke-opacity: 1; stroke-width: 1; fill: none; fill-opacity: 1;"/></g><g class="arrow-line"><path class="connection real" stroke-dasharray="1.125 3.35" d="  M497,552.83 L332.33,552.83" style="stroke: rgb(144, 19, 254); stroke-opacity: 1; stroke-width: 1; fill: none; fill-opacity: 1;"/></g><g class="arrow-line"><path class="connection real" stroke-dasharray="1.125 3.35" d="  M173.33,33.33 L252,34" style="stroke: rgb(0, 0, 0); stroke-width: 1; fill: none; fill-opacity: 1;"/></g><g class="composite-shape"><defs><!-- react-text: 97346 --> <!-- /react-text --><linearGradient id="_pgf5j4sposrx" gradientTransform=" translate(0,0) rotate(0 0.5 0.5)" x1="0" y1="0.5" x2="1" y2="0.5"><!-- react-text: 97348 --> <!-- /react-text --><stop offset="0" style="stop-color: rgb(248, 231, 28); stop-opacity: 0.01;"/><stop offset="1" style="stop-color: rgb(248, 231, 28); stop-opacity: 0.3;"/></linearGradient></defs><path class="real" d=" M171,41.5 L253,41.5 L253,56 L171,56 Z" style="stroke-width: 1; stroke: rgb(0, 0, 0); fill: url(&quot;#_pgf5j4sposrx&quot;); fill-opacity: 1;"/></g><g class="composite-shape axis2d" style="stroke-width: 1; stroke: rgb(139, 87, 42); stroke-opacity: 1;"><path class="real" d=" M12,389 L652,389 M332,70.24 L332,708.63"/><path d=" M645,384 L652,389 L645,394"/><path d=" M327,77.24 L332,70.24 L337,77.24"/><path d=" M377,384 L377,394 M422,384 L422,394 M467,384 L467,394 M512,384 L512,394 M557,384 L557,394 M602,384 L602,394 M287,384 L287,394 M242,384 L242,394 M197,384 L197,394 M152,384 L152,394 M107,384 L107,394 M62,384 L62,394 M327,344 L337,344 M327,299 L337,299 M327,254 L337,254 M327,209 L337,209 M327,164 L337,164 M327,119 L337,119 M327,434 L337,434 M327,479 L337,479 M327,524 L337,524 M327,569 L337,569 M327,614 L337,614 M327,659 L337,659"/><g style="fill: rgb(139, 87, 42); fill-opacity: 1; font-size: 11px; font-weight: normal; text-anchor: end; stroke: none; font-family: Times;"><text x="380" y="404">1</text><text x="425" y="404">2</text><text x="470" y="404">3</text><text x="515" y="404">4</text><text x="560" y="404">5</text><text x="605" y="404">6</text><text x="290" y="404">-1</text><text x="245" y="404">-2</text><text x="200" y="404">-3</text><text x="155" y="404">-4</text><text x="110" y="404">-5</text><text x="65" y="404">-6</text><text x="325" y="347">1</text><text x="325" y="302">2</text><text x="325" y="257">3</text><text x="325" y="212">4</text><text x="325" y="167">5</text><text x="325" y="122">6</text><text x="325" y="437">-1</text><text x="325" y="482">-2</text><text x="325" y="527">-3</text><text x="325" y="572">-4</text><text x="325" y="617">-5</text><text x="325" y="662">-6</text></g></g><g class="composite-shape"><path class="real" d=" M17.5,393.67 L10.83,388.83 L17.5,384" style="stroke-width: 1; stroke: rgb(0, 0, 0); fill: none; fill-opacity: 1;"/></g><g class="composite-shape"><path class="real" d=" M337,703.5 L332.17,710.17 L327.33,703.5" style="stroke-width: 1; stroke: rgb(0, 0, 0); fill: none; fill-opacity: 1;"/></g><g class="arrow-line"><path class="connection real" stroke-dasharray="6 6" d="  M331,389 L112.4,166.43" style="stroke: rgb(74, 144, 226); stroke-width: 1; fill: none; fill-opacity: 1; stroke-opacity: 1;"/><g stroke="rgb(74,144,226)" transform="matrix(0.7006602502284923,0.7134950691839058,-0.7134950691839058,0.7006602502284923,110.99999999999999,165)" style="stroke: rgb(74, 144, 226); stroke-width: 1;" stroke-opacity="1"><path d=" M10.93,-3.29 Q4.96,-0.45 0,0 Q4.96,0.45 10.93,3.29"/></g></g><g/></g><g/><g/><g/></svg>
        <svg xmlns="http://www.w3.org/2000/svg" xmlns:xlink="http://www.w3.org/1999/xlink" width="660" height="747" style="width:660px;height:747px;font-family:Asana-Math, Asana;background:transparent;"><g><g><g><text x="11" y="373.328125" style="white-space:pre;stroke:none;fill:rgb(0,0,0);fill-opacity:1;font-size:15px;font-family:Arial, Helvetica, sans-serif;font-weight:400;font-style:normal;dominant-baseline:text-before-edge;text-decoration:none solid rgb(0, 0, 0);">-x</text></g></g></g><g><g><g><text x="630.9921875" y="373" style="white-space:pre;stroke:none;fill:rgb(0,0,0);fill-opacity:1;font-size:15px;font-family:Arial, Helvetica, sans-serif;font-weight:400;font-style:normal;dominant-baseline:text-before-edge;text-decoration:none solid rgb(0, 0, 0);">+x</text></g></g></g><g><g><g><text x="340" y="707.65625" style="white-space:pre;stroke:none;fill:rgb(0,0,0);fill-opacity:1;font-size:15px;font-family:Arial, Helvetica, sans-serif;font-weight:400;font-style:normal;dominant-baseline:text-before-edge;text-decoration:none solid rgb(0, 0, 0);">-y</text></g></g></g><g><g><g><text x="339.9921875" y="80" style="white-space:pre;stroke:none;fill:rgb(0,0,0);fill-opacity:1;font-size:15px;font-family:Arial, Helvetica, sans-serif;font-weight:400;font-style:normal;dominant-baseline:text-before-edge;text-decoration:none solid rgb(0, 0, 0);">+y</text></g></g></g><g transform="matrix(0.7071067811865474,-0.7071067811865477,0.7071067811865477,0.7071067811865474,-100.95992096483911,106.97993955056968)"><g><g><text x="34.15625" y="173.859375" style="white-space:pre;stroke:none;fill:rgb(74,144,226);fill-opacity:1;font-size:7.5px;font-family:Arial, Helvetica, sans-serif;font-weight:400;font-style:normal;dominant-baseline:text-before-edge;text-decoration:none solid rgb(74, 144, 226);">velocidade máxima = 7m/s</text></g></g></g><g><g><g><g transform="matrix(1,0,0,1,5.6640625,35)"><path transform="matrix(0.012,0,0,-0.012,0,0)" d="M202 727C202 718 208 686 234 686C240 686 250 690 386 736C402 741 418 750 418 772C418 793 401 807 384 807C374 807 375 806 234 758C222 754 202 749 202 727ZM27 30C27 0 53 0 70 0L172 0C190 0 214 0 214 30C214 61 194 61 158 61L181 165L343 165L366 61C330 61 310 61 310 30C310 0 334 0 352 0L454 0C471 0 497 0 497 30C497 43 492 53 480 58C474 61 452 61 437 61L316 584C307 622 293 623 262 623C233 623 217 623 208 585L87 61C73 61 50 61 44 59C33 53 27 43 27 30ZM196 226L262 540L328 226ZM557 31C557 0 581 0 597 0L858 0C873 0 899 0 899 30C899 61 873 61 858 61L747 61L747 186C747 280 806 376 927 376C928 352 945 332 970 332C992 332 1012 348 1012 375C1012 395 1000 437 917 437C866 437 802 419 747 356L747 390C747 421 741 431 707 431L597 431C582 431 557 431 557 401C557 370 581 370 597 370L678 370L678 61L597 61C582 61 557 61 557 31ZM1105 217C1105 95 1206 -6 1335 -6C1467 -6 1514 84 1514 109C1514 137 1485 137 1479 137C1461 137 1453 134 1446 115C1424 64 1370 55 1342 55C1267 55 1192 105 1176 191L1474 191C1495 191 1514 191 1514 228C1514 342 1450 440 1320 440C1201 440 1105 340 1105 217ZM1177 251C1191 324 1250 379 1320 379C1372 379 1434 354 1443 251ZM1630 128C1630 59 1693 -6 1795 -6C1832 -6 1894 1 1941 32C1963 1 2011 0 2049 0C2077 0 2099 0 2099 31C2099 61 2074 61 2059 61C2017 61 2007 66 1999 69L1999 285C1999 356 1945 440 1801 440C1758 440 1656 440 1656 367C1656 337 1677 321 1701 321C1716 321 1744 330 1745 367C1745 375 1746 376 1766 378C1780 379 1793 379 1802 379C1878 379 1930 348 1930 277C1753 274 1630 224 1630 128ZM1699 128C1699 177 1785 214 1930 218L1930 134C1930 111 1930 90 1891 72C1855 55 1810 55 1802 55C1740 55 1699 89 1699 128ZM2172 35C2172 19 2172 -6 2202 -6C2211 -6 2227 -5 2239 32C2288 -4 2341 -6 2369 -6C2527 -6 2559 77 2559 125C2559 229 2430 250 2398 255C2375 259 2355 262 2330 267C2301 271 2233 283 2233 322C2233 348 2265 379 2360 379C2443 379 2457 349 2460 323C2461 306 2463 289 2494 289C2529 289 2529 310 2529 330L2529 399C2529 415 2529 440 2499 440C2475 440 2471 426 2469 419C2425 440 2381 440 2362 440C2195 440 2172 358 2172 322C2172 230 2277 213 2369 199C2418 191 2498 178 2498 125C2498 88 2461 55 2370 55C2323 55 2267 66 2242 144C2237 162 2233 173 2207 173C2172 173 2172 152 2172 132ZM3186 215C3186 91 3276 -6 3382 -6C3438 -6 3480 21 3508 50C3508 14 3508 0 3548 0L3621 0C3637 0 3662 0 3662 31C3662 61 3636 61 3622 61L3577 61L3577 570C3577 601 3571 611 3537 611L3464 611C3448 611 3423 611 3423 580C3423 550 3449 550 3463 550L3508 550L3508 392C3475 421 3434 437 3391 437C3282 437 3186 342 3186 215ZM3255 215C3255 311 3325 376 3395 376C3459 376 3508 320 3508 265L3508 194C3508 138 3463 55 3386 55C3315 55 3255 126 3255 215ZM3730 217C3730 95 3831 -6 3960 -6C4092 -6 4139 84 4139 109C4139 137 4110 137 4104 137C4086 137 4078 134 4071 115C4049 64 3995 55 3967 55C3892 55 3817 105 3801 191L4099 191C4120 191 4139 191 4139 228C4139 342 4075 440 3945 440C3826 440 3730 340 3730 217ZM3802 251C3816 324 3875 379 3945 379C3997 379 4059 354 4068 251ZM4749 400C4749 370 4774 370 4789 370L4819 370L4934 30C4946 -4 4966 -4 4987 -4C5006 -4 5029 -4 5040 29L5155 370L5185 370C5200 370 5225 370 5225 400C5225 431 5201 431 5185 431L5068 431C5053 431 5028 431 5028 401C5028 370 5052 370 5068 370L5096 370L4987 48L4878 370L4906 370C4921 370 4946 370 4946 400C4946 431 4922 431 4906 431L4789 431C4773 431 4749 431 4749 400ZM5305 217C5305 95 5406 -6 5535 -6C5667 -6 5714 84 5714 109C5714 137 5685 137 5679 137C5661 137 5653 134 5646 115C5624 64 5570 55 5542 55C5467 55 5392 105 5376 191L5674 191C5695 191 5714 191 5714 228C5714 342 5650 440 5520 440C5401 440 5305 340 5305 217ZM5377 251C5391 324 5450 379 5520 379C5572 379 5634 354 5643 251ZM5833 30C5833 0 5859 0 5873 0L6202 0C6217 0 6242 0 6242 30C6242 61 6218 61 6202 61L6072 61L6072 570C6072 601 6066 611 6032 611L5874 611C5858 611 5833 611 5833 580C5833 550 5859 550 5873 550L6003 550L6003 61L5874 61C5858 61 5833 61 5833 30ZM6357 216C6357 89 6452 -6 6562 -6C6672 -6 6767 90 6767 216C6767 341 6674 440 6562 440C6450 440 6357 341 6357 216ZM6426 223C6426 314 6491 379 6562 379C6634 379 6698 314 6698 223C6698 130 6636 55 6562 55C6488 55 6426 130 6426 223ZM6898 216C6898 96 6992 -6 7118 -6C7257 -6 7291 92 7291 109C7291 137 7262 137 7256 137C7240 137 7230 135 7223 115C7217 102 7198 55 7124 55C7039 55 6967 125 6967 216C6967 264 6995 379 7130 379C7151 379 7190 379 7190 370C7191 335 7210 321 7234 321C7258 321 7279 338 7279 367C7279 440 7175 440 7130 440C6958 440 6898 304 6898 216ZM7559 562C7559 534 7581 512 7609 512C7637 512 7659 534 7659 562C7659 590 7637 612 7609 612C7581 612 7559 590 7559 562ZM7428 30C7428 0 7454 0 7469 0L7764 0C7779 0 7805 0 7805 30C7805 61 7779 61 7764 61L7659 61L7659 390C7659 421 7653 431 7619 431L7477 431C7462 431 7436 431 7436 401C7436 370 7462 370 7477 370L7590 370L7590 61L7469 61C7453 61 7428 61 7428 30ZM7911 215C7911 91 8001 -6 8107 -6C8163 -6 8205 21 8233 50C8233 14 8233 0 8273 0L8346 0C8362 0 8387 0 8387 31C8387 61 8361 61 8347 61L8302 61L8302 570C8302 601 8296 611 8262 611L8189 611C8173 611 8148 611 8148 580C8148 550 8174 550 8188 550L8233 550L8233 392C8200 421 8159 437 8116 437C8007 437 7911 342 7911 215ZM7980 215C7980 311 8050 376 8120 376C8184 376 8233 320 8233 265L8233 194C8233 138 8188 55 8111 55C8040 55 7980 126 7980 215ZM8455 128C8455 59 8518 -6 8620 -6C8657 -6 8719 1 8766 32C8788 1 8836 0 8874 0C8902 0 8924 0 8924 31C8924 61 8899 61 8884 61C8842 61 8832 66 8824 69L8824 285C8824 356 8770 440 8626 440C8583 440 8481 440 8481 367C8481 337 8502 321 8526 321C8541 321 8569 330 8570 367C8570 375 8571 376 8591 378C8605 379 8618 379 8627 379C8703 379 8755 348 8755 277C8578 274 8455 224 8455 128ZM8524 128C8524 177 8610 214 8755 218L8755 134C8755 111 8755 90 8716 72C8680 55 8635 55 8627 55C8565 55 8524 89 8524 128ZM8961 215C8961 91 9051 -6 9157 -6C9213 -6 9255 21 9283 50C9283 14 9283 0 9323 0L9396 0C9412 0 9437 0 9437 31C9437 61 9411 61 9397 61L9352 61L9352 570C9352 601 9346 611 9312 611L9239 611C9223 611 9198 611 9198 580C9198 550 9224 550 9238 550L9283 550L9283 392C9250 421 9209 437 9166 437C9057 437 8961 342 8961 215ZM9030 215C9030 311 9100 376 9170 376C9234 376 9283 320 9283 265L9283 194C9283 138 9238 55 9161 55C9090 55 9030 126 9030 215ZM9505 217C9505 95 9606 -6 9735 -6C9867 -6 9914 84 9914 109C9914 137 9885 137 9879 137C9861 137 9853 134 9846 115C9824 64 9770 55 9742 55C9667 55 9592 105 9576 191L9874 191C9895 191 9914 191 9914 228C9914 342 9850 440 9720 440C9601 440 9505 340 9505 217ZM9577 251C9591 324 9650 379 9720 379C9772 379 9834 354 9843 251ZM10587 216C10587 204 10592 186 10620 185L10901 185C10930 185 10936 202 10936 216C10936 228 10930 246 10903 246L10622 246C10592 246 10587 228 10587 216Z" stroke="rgb(0,0,0)" stroke-opacity="1" stroke-width="0" fill="rgb(0,0,0)" fill-opacity="1"></path></g></g></g><g><g><g transform="matrix(1,0,0,1,5.6640625,56)"><path transform="matrix(0.012,0,0,-0.012,0,0)" d="M38 306C38 122 142 -11 261 -11C318 -11 360 19 380 42C380 20 380 0 415 0C449 0 449 22 449 41L449 209C473 209 496 209 496 240C496 270 470 270 455 270L336 270C321 270 296 270 296 240C296 209 320 209 336 209L378 209C366 97 317 50 264 50C183 50 107 158 107 305C107 458 187 561 265 561C300 561 363 538 380 430C382 413 388 401 414 401C449 401 449 422 449 442L449 581C449 597 449 622 419 622C398 622 393 611 378 577C343 607 303 622 261 622C141 622 38 487 38 306ZM557 31C557 0 581 0 597 0L858 0C873 0 899 0 899 30C899 61 873 61 858 61L747 61L747 186C747 280 806 376 927 376C928 352 945 332 970 332C992 332 1012 348 1012 375C1012 395 1000 437 917 437C866 437 802 419 747 356L747 390C747 421 741 431 707 431L597 431C582 431 557 431 557 401C557 370 581 370 597 370L678 370L678 61L597 61C582 61 557 61 557 31ZM1105 128C1105 59 1168 -6 1270 -6C1307 -6 1369 1 1416 32C1438 1 1486 0 1524 0C1552 0 1574 0 1574 31C1574 61 1549 61 1534 61C1492 61 1482 66 1474 69L1474 285C1474 356 1420 440 1276 440C1233 440 1131 440 1131 367C1131 337 1152 321 1176 321C1191 321 1219 330 1220 367C1220 375 1221 376 1241 378C1255 379 1268 379 1277 379C1353 379 1405 348 1405 277C1228 274 1105 224 1105 128ZM1174 128C1174 177 1260 214 1405 218L1405 134C1405 111 1405 90 1366 72C1330 55 1285 55 1277 55C1215 55 1174 89 1174 128ZM1611 215C1611 91 1701 -6 1807 -6C1863 -6 1905 21 1933 50C1933 14 1933 0 1973 0L2046 0C2062 0 2087 0 2087 31C2087 61 2061 61 2047 61L2002 61L2002 570C2002 601 1996 611 1962 611L1889 611C1873 611 1848 611 1848 580C1848 550 1874 550 1888 550L1933 550L1933 392C1900 421 1859 437 1816 437C1707 437 1611 342 1611 215ZM1680 215C1680 311 1750 376 1820 376C1884 376 1933 320 1933 265L1933 194C1933 138 1888 55 1811 55C1740 55 1680 126 1680 215ZM2309 562C2309 534 2331 512 2359 512C2387 512 2409 534 2409 562C2409 590 2387 612 2359 612C2331 612 2309 590 2309 562ZM2178 30C2178 0 2204 0 2219 0L2514 0C2529 0 2555 0 2555 30C2555 61 2529 61 2514 61L2409 61L2409 390C2409 421 2403 431 2369 431L2227 431C2212 431 2186 431 2186 401C2186 370 2212 370 2227 370L2340 370L2340 61L2219 61C2203 61 2178 61 2178 30ZM2680 217C2680 95 2781 -6 2910 -6C3042 -6 3089 84 3089 109C3089 137 3060 137 3054 137C3036 137 3028 134 3021 115C2999 64 2945 55 2917 55C2842 55 2767 105 2751 191L3049 191C3070 191 3089 191 3089 228C3089 342 3025 440 2895 440C2776 440 2680 340 2680 217ZM2752 251C2766 324 2825 379 2895 379C2947 379 3009 354 3018 251ZM3162 30C3162 0 3188 0 3202 0L3361 0C3375 0 3401 0 3401 30C3401 61 3376 61 3360 61L3316 61L3316 238C3316 338 3390 376 3441 376C3494 376 3508 348 3508 288L3508 61L3469 61C3453 61 3428 61 3428 30C3428 0 3455 0 3469 0L3622 0C3636 0 3662 0 3662 30C3662 61 3637 61 3621 61L3577 61L3577 293C3577 394 3526 437 3447 437C3380 437 3335 403 3316 384C3316 416 3316 431 3276 431L3203 431C3187 431 3162 431 3162 400C3162 370 3188 370 3202 370L3247 370L3247 61L3203 61C3187 61 3162 61 3162 30ZM3700 400C3700 370 3725 370 3740 370L3828 370L3828 126C3828 30 3896 -6 3969 -6C4043 -6 4124 37 4124 126C4124 144 4124 165 4089 165C4056 165 4055 144 4055 127C4054 65 3997 55 3974 55C3897 55 3897 107 3897 132L3897 370L4061 370C4076 370 4101 370 4101 400C4101 431 4077 431 4061 431L3897 431L3897 513C3897 532 3897 554 3863 554C3828 554 3828 533 3828 513L3828 431L3741 431C3725 431 3700 431 3700 400ZM4255 217C4255 95 4356 -6 4485 -6C4617 -6 4664 84 4664 109C4664 137 4635 137 4629 137C4611 137 4603 134 4596 115C4574 64 4520 55 4492 55C4417 55 4342 105 4326 191L4624 191C4645 191 4664 191 4664 228C4664 342 4600 440 4470 440C4351 440 4255 340 4255 217ZM4327 251C4341 324 4400 379 4470 379C4522 379 4584 354 4593 251ZM5286 215C5286 91 5376 -6 5482 -6C5538 -6 5580 21 5608 50C5608 14 5608 0 5648 0L5721 0C5737 0 5762 0 5762 31C5762 61 5736 61 5722 61L5677 61L5677 570C5677 601 5671 611 5637 611L5564 611C5548 611 5523 611 5523 580C5523 550 5549 550 5563 550L5608 550L5608 392C5575 421 5534 437 5491 437C5382 437 5286 342 5286 215ZM5355 215C5355 311 5425 376 5495 376C5559 376 5608 320 5608 265L5608 194C5608 138 5563 55 5486 55C5415 55 5355 126 5355 215ZM5830 217C5830 95 5931 -6 6060 -6C6192 -6 6239 84 6239 109C6239 137 6210 137 6204 137C6186 137 6178 134 6171 115C6149 64 6095 55 6067 55C5992 55 5917 105 5901 191L6199 191C6220 191 6239 191 6239 228C6239 342 6175 440 6045 440C5926 440 5830 340 5830 217ZM5902 251C5916 324 5975 379 6045 379C6097 379 6159 354 6168 251ZM6849 400C6849 370 6874 370 6889 370L6919 370L7034 30C7046 -4 7066 -4 7087 -4C7106 -4 7129 -4 7140 29L7255 370L7285 370C7300 370 7325 370 7325 400C7325 431 7301 431 7285 431L7168 431C7153 431 7128 431 7128 401C7128 370 7152 370 7168 370L7196 370L7087 48L6978 370L7006 370C7021 370 7046 370 7046 400C7046 431 7022 431 7006 431L6889 431C6873 431 6849 431 6849 400ZM7405 217C7405 95 7506 -6 7635 -6C7767 -6 7814 84 7814 109C7814 137 7785 137 7779 137C7761 137 7753 134 7746 115C7724 64 7670 55 7642 55C7567 55 7492 105 7476 191L7774 191C7795 191 7814 191 7814 228C7814 342 7750 440 7620 440C7501 440 7405 340 7405 217ZM7477 251C7491 324 7550 379 7620 379C7672 379 7734 354 7743 251ZM7933 30C7933 0 7959 0 7973 0L8302 0C8317 0 8342 0 8342 30C8342 61 8318 61 8302 61L8172 61L8172 570C8172 601 8166 611 8132 611L7974 611C7958 611 7933 611 7933 580C7933 550 7959 550 7973 550L8103 550L8103 61L7974 61C7958 61 7933 61 7933 30ZM8457 216C8457 89 8552 -6 8662 -6C8772 -6 8867 90 8867 216C8867 341 8774 440 8662 440C8550 440 8457 341 8457 216ZM8526 223C8526 314 8591 379 8662 379C8734 379 8798 314 8798 223C8798 130 8736 55 8662 55C8588 55 8526 130 8526 223ZM8998 216C8998 96 9092 -6 9218 -6C9357 -6 9391 92 9391 109C9391 137 9362 137 9356 137C9340 137 9330 135 9323 115C9317 102 9298 55 9224 55C9139 55 9067 125 9067 216C9067 264 9095 379 9230 379C9251 379 9290 379 9290 370C9291 335 9310 321 9334 321C9358 321 9379 338 9379 367C9379 440 9275 440 9230 440C9058 440 8998 304 8998 216ZM9659 562C9659 534 9681 512 9709 512C9737 512 9759 534 9759 562C9759 590 9737 612 9709 612C9681 612 9659 590 9659 562ZM9528 30C9528 0 9554 0 9569 0L9864 0C9879 0 9905 0 9905 30C9905 61 9879 61 9864 61L9759 61L9759 390C9759 421 9753 431 9719 431L9577 431C9562 431 9536 431 9536 401C9536 370 9562 370 9577 370L9690 370L9690 61L9569 61C9553 61 9528 61 9528 30ZM10011 215C10011 91 10101 -6 10207 -6C10263 -6 10305 21 10333 50C10333 14 10333 0 10373 0L10446 0C10462 0 10487 0 10487 31C10487 61 10461 61 10447 61L10402 61L10402 570C10402 601 10396 611 10362 611L10289 611C10273 611 10248 611 10248 580C10248 550 10274 550 10288 550L10333 550L10333 392C10300 421 10259 437 10216 437C10107 437 10011 342 10011 215ZM10080 215C10080 311 10150 376 10220 376C10284 376 10333 320 10333 265L10333 194C10333 138 10288 55 10211 55C10140 55 10080 126 10080 215ZM10555 128C10555 59 10618 -6 10720 -6C10757 -6 10819 1 10866 32C10888 1 10936 0 10974 0C11002 0 11024 0 11024 31C11024 61 10999 61 10984 61C10942 61 10932 66 10924 69L10924 285C10924 356 10870 440 10726 440C10683 440 10581 440 10581 367C10581 337 10602 321 10626 321C10641 321 10669 330 10670 367C10670 375 10671 376 10691 378C10705 379 10718 379 10727 379C10803 379 10855 348 10855 277C10678 274 10555 224 10555 128ZM10624 128C10624 177 10710 214 10855 218L10855 134C10855 111 10855 90 10816 72C10780 55 10735 55 10727 55C10665 55 10624 89 10624 128ZM11061 215C11061 91 11151 -6 11257 -6C11313 -6 11355 21 11383 50C11383 14 11383 0 11423 0L11496 0C11512 0 11537 0 11537 31C11537 61 11511 61 11497 61L11452 61L11452 570C11452 601 11446 611 11412 611L11339 611C11323 611 11298 611 11298 580C11298 550 11324 550 11338 550L11383 550L11383 392C11350 421 11309 437 11266 437C11157 437 11061 342 11061 215ZM11130 215C11130 311 11200 376 11270 376C11334 376 11383 320 11383 265L11383 194C11383 138 11338 55 11261 55C11190 55 11130 126 11130 215ZM11605 217C11605 95 11706 -6 11835 -6C11967 -6 12014 84 12014 109C12014 137 11985 137 11979 137C11961 137 11953 134 11946 115C11924 64 11870 55 11842 55C11767 55 11692 105 11676 191L11974 191C11995 191 12014 191 12014 228C12014 342 11950 440 11820 440C11701 440 11605 340 11605 217ZM11677 251C11691 324 11750 379 11820 379C11872 379 11934 354 11943 251ZM12687 216C12687 204 12692 186 12720 185L13001 185C13030 185 13036 202 13036 216C13036 228 13030 246 13003 246L12722 246C12692 246 12687 228 12687 216Z" stroke="rgb(0,0,0)" stroke-opacity="1" stroke-width="0" fill="rgb(0,0,0)" fill-opacity="1"></path></g></g></g><g></g></g><g><g><g><g transform="matrix(1,0,0,1,191.5,273.5)"><path transform="matrix(0.0075,0,0,-0.0075,0,0)" d="M47 138C47 71 104 -4 203 -4C285 -4 333 30 352 43C368 7 408 0 465 0L488 0C498 0 524 3 524 37C524 93 475 67 431 81L431 277C431 416 327 450 234 450C155 450 83 442 83 380C83 356 102 338 125 338C138 338 151 344 159 355C169 369 159 375 231 375C350 375 347 305 347 275C215 275 47 247 47 138ZM131 138C131 182 217 209 347 211L347 157C347 84 259 71 225 71C174 71 131 100 131 138ZM529 -187C529 -220 553 -222 569 -222L744 -222C768 -222 783 -214 783 -184C783 -148 757 -147 744 -147L698 -147L698 48C728 18 764 -4 817 -4C910 -4 1018 60 1018 223C1018 364 936 448 829 448C772 448 731 425 698 397L698 405C698 424 695 444 657 444L571 444C555 444 529 443 529 409C529 383 536 369 568 369L614 369L614 -147L568 -147C551 -147 529 -148 529 -187ZM698 187L698 278C698 317 748 373 814 373C868 373 934 337 934 222C934 129 882 71 804 71C731 71 698 154 698 187ZM1074 40C1074 24 1074 0 1112 0L1391 0C1405 0 1431 1 1431 36C1431 75 1405 75 1392 75L1279 75L1279 173C1279 307 1362 373 1445 373C1448 373 1452 372 1455 372C1463 348 1482 342 1496 342C1519 342 1537 360 1537 384C1537 410 1518 448 1443 448C1370 448 1312 409 1279 365L1279 402C1279 412 1281 444 1243 444L1113 444C1094 444 1074 439 1074 410C1074 393 1074 369 1112 369L1195 369L1195 75L1112 75C1082 75 1074 57 1074 40ZM1627 222C1627 84 1712 -4 1836 -4C1961 -4 2047 82 2047 222C2047 363 1960 450 1837 450C1714 450 1627 366 1627 222ZM1711 231C1711 336 1778 375 1837 375C1911 375 1963 320 1963 230C1963 128 1908 71 1837 71C1785 71 1711 108 1711 231ZM2127 39C2127 19 2132 0 2165 0L2301 0C2336 0 2338 22 2338 37C2338 67 2323 75 2299 75L2291 75L2359 181L2430 75L2425 75C2406 75 2384 74 2384 37C2384 25 2386 0 2420 0L2557 0C2574 0 2595 4 2595 37C2595 44 2598 76 2557 76C2553 76 2551 75 2550 75L2520 75C2515 75 2510 76 2506 79C2500 84 2398 221 2392 230L2481 351C2490 363 2491 369 2506 369L2543 369C2554 369 2583 370 2582 406C2582 440 2561 444 2543 444L2408 444C2372 444 2371 421 2371 407C2371 388 2373 369 2414 369L2360 289L2302 369L2306 369C2321 369 2344 371 2344 407C2344 437 2327 444 2307 444L2171 444C2133 444 2133 419 2133 404C2133 371 2158 369 2173 369L2222 369L2326 230L2326 229C2316 216 2307 202 2229 95C2217 80 2218 75 2202 75L2166 75C2154 75 2127 75 2127 39ZM2822 565C2822 547 2835 520 2881 520C2929 520 2941 547 2941 565C2941 592 2917 611 2882 611C2834 611 2822 583 2822 565ZM2696 38C2696 2 2722 0 2733 0L3049 0C3082 0 3087 19 3087 38C3088 58 3079 75 3048 75L2941 75L2941 405C2941 422 2939 444 2905 444L2744 444C2704 444 2704 419 2704 404C2704 369 2730 369 2745 369L2858 369L2858 75L2735 75C2710 75 2696 68 2696 38ZM3139 38C3139 19 3144 0 3177 0L3283 0C3317 0 3320 22 3320 38C3320 75 3295 75 3282 75L3264 75L3264 232C3264 315 3295 373 3342 373C3377 373 3379 329 3379 291L3379 75C3355 75 3337 67 3338 39C3338 29 3336 0 3376 0L3464 0C3496 0 3504 19 3504 38C3504 74 3476 75 3465 75L3447 75L3447 232C3447 318 3480 373 3525 373C3560 373 3562 329 3562 291L3562 75C3538 75 3520 67 3521 39C3521 29 3519 0 3559 0L3649 0C3660 0 3686 2 3686 37C3686 49 3687 75 3646 75L3629 75L3629 297C3629 329 3628 361 3617 391C3599 437 3563 448 3537 448C3522 448 3470 445 3433 394C3426 408 3407 448 3354 448C3314 448 3286 431 3264 410C3262 441 3239 445 3226 445C3222 445 3218 444 3217 444L3176 444C3146 444 3139 426 3139 410C3139 396 3138 369 3178 369L3196 369L3196 75L3176 75C3141 75 3139 52 3139 38ZM3722 138C3722 71 3779 -4 3878 -4C3960 -4 4008 30 4027 43C4043 7 4083 0 4140 0L4163 0C4173 0 4199 3 4199 37C4199 93 4150 67 4106 81L4106 277C4106 416 4002 450 3909 450C3830 450 3758 442 3758 380C3758 356 3777 338 3800 338C3813 338 3826 344 3834 355C3844 369 3834 375 3906 375C4025 375 4022 305 4022 275C3890 275 3722 247 3722 138ZM3806 138C3806 182 3892 209 4022 211L4022 157C4022 84 3934 71 3900 71C3849 71 3806 100 3806 138ZM4231 220C4231 86 4311 -4 4422 -4C4480 -4 4521 23 4551 54L4551 37C4551 7 4569 0 4585 0L4683 0C4713 0 4721 20 4720 37C4720 51 4718 75 4680 75L4635 75L4635 566C4635 585 4636 611 4597 611L4501 611C4472 610 4465 590 4466 574C4466 538 4488 535 4504 535L4551 535L4551 401C4523 426 4483 448 4430 448C4346 448 4231 393 4231 220ZM4315 222C4315 315 4367 373 4445 373C4508 373 4551 318 4551 279L4551 191C4552 160 4515 71 4435 71C4381 71 4315 107 4315 222ZM4772 138C4772 71 4829 -4 4928 -4C5010 -4 5058 30 5077 43C5093 7 5133 0 5190 0L5213 0C5223 0 5249 3 5249 37C5249 93 5200 67 5156 81L5156 277C5156 416 5052 450 4959 450C4880 450 4808 442 4808 380C4808 356 4827 338 4850 338C4863 338 4876 344 4884 355C4894 369 4884 375 4956 375C5075 375 5072 305 5072 275C4940 275 4772 247 4772 138ZM4856 138C4856 182 4942 209 5072 211L5072 157C5072 84 4984 71 4950 71C4899 71 4856 100 4856 138ZM5239 38C5239 19 5244 0 5277 0L5383 0C5417 0 5420 22 5420 38C5420 75 5395 75 5382 75L5364 75L5364 232C5364 315 5395 373 5442 373C5477 373 5479 329 5479 291L5479 75C5455 75 5437 67 5438 39C5438 29 5436 0 5476 0L5564 0C5596 0 5604 19 5604 38C5604 74 5576 75 5565 75L5547 75L5547 232C5547 318 5580 373 5625 373C5660 373 5662 329 5662 291L5662 75C5638 75 5620 67 5621 39C5621 29 5619 0 5659 0L5749 0C5760 0 5786 2 5786 37C5786 49 5787 75 5746 75L5729 75L5729 297C5729 329 5728 361 5717 391C5699 437 5663 448 5637 448C5622 448 5570 445 5533 394C5526 408 5507 448 5454 448C5414 448 5386 431 5364 410C5362 441 5339 445 5326 445C5322 445 5318 444 5317 444L5276 444C5246 444 5239 426 5239 410C5239 396 5238 369 5278 369L5296 369L5296 75L5276 75C5241 75 5239 52 5239 38ZM5822 224C5822 87 5917 -4 6058 -4C6183 -4 6238 82 6238 116C6238 146 6211 147 6200 147L6197 147C6159 147 6164 135 6149 111C6127 74 6093 71 6077 71C6015 71 5936 94 5910 183L6200 183C6213 183 6239 185 6239 218C6238 424 6112 450 6044 450C5914 450 5822 361 5822 224ZM5908 252C5917 326 5967 375 6044 375C6104 375 6147 339 6153 252ZM6304 37C6304 17 6310 0 6342 0L6519 0C6543 0 6558 8 6558 38C6558 74 6532 75 6519 75L6473 75L6473 231C6473 342 6546 373 6589 373C6647 373 6652 337 6652 287L6652 75L6624 75C6583 75 6584 50 6584 35C6584 1 6612 0 6623 0L6783 0C6795 0 6820 1 6820 38C6820 73 6795 75 6782 75L6735 75L6735 288C6735 352 6728 448 6605 448C6552 448 6509 427 6473 392L6473 408C6473 441 6449 444 6435 444L6340 444C6311 444 6304 425 6304 409C6304 371 6326 369 6344 369L6389 369L6389 75L6343 75C6328 75 6304 73 6304 37ZM6850 404C6850 387 6858 369 6888 369L6970 369L6970 165C6970 148 6971 132 6973 115C6987 7 7070 -4 7107 -4C7208 -4 7275 75 7275 147C7275 179 7249 182 7231 182C7212 182 7198 178 7192 159C7186 140 7197 129 7167 90C7152 78 7140 71 7121 71C7055 71 7054 122 7054 162L7054 369L7218 369C7244 369 7253 388 7253 406C7253 423 7245 444 7216 444L7054 444L7054 534C7054 570 7030 571 7017 571L7012 571C6995 571 6970 571 6970 534L6970 444L6888 444C6850 444 6850 416 6850 404ZM7397 224C7397 87 7492 -4 7633 -4C7758 -4 7813 82 7813 116C7813 146 7786 147 7775 147L7772 147C7734 147 7739 135 7724 111C7702 74 7668 71 7652 71C7590 71 7511 94 7485 183L7775 183C7788 183 7814 185 7814 218C7813 424 7687 450 7619 450C7489 450 7397 361 7397 224ZM7483 252C7492 326 7542 375 7619 375C7679 375 7722 339 7728 252Z" stroke="rgb(0,0,0)" stroke-opacity="1" stroke-width="0" fill="rgb(0,0,0)" fill-opacity="1"></path></g></g></g><g><g><g transform="matrix(1,0,0,1,191.5,285.5)"><path transform="matrix(0.0075,0,0,-0.0075,0,0)" d="M27 39C27 19 32 0 65 0L201 0C236 0 238 22 238 37C238 67 223 75 199 75L191 75L259 181L330 75L325 75C306 75 284 74 284 37C284 25 286 0 320 0L457 0C474 0 495 4 495 37C495 44 498 76 457 76C453 76 451 75 450 75L420 75C415 75 410 76 406 79C400 84 298 221 292 230L381 351C390 363 391 369 406 369L443 369C454 369 483 370 482 406C482 440 461 444 443 444L308 444C272 444 271 421 271 407C271 388 273 369 314 369L260 289L202 369L206 369C221 369 244 371 244 407C244 437 227 444 207 444L71 444C33 444 33 419 33 404C33 371 58 369 73 369L122 369L226 230L226 229C216 216 207 202 129 95C117 80 118 75 102 75L66 75C54 75 27 75 27 39ZM712 75C712 32 748 0 787 0C831 0 861 37 861 75C861 118 826 149 787 149C743 149 712 113 712 75ZM712 370C712 327 748 295 787 295C831 295 861 332 861 370C861 413 826 444 787 444C743 444 712 408 712 370ZM1137 219C1137 204 1143 186 1172 185L1451 185C1488 186 1487 213 1487 223C1487 243 1479 260 1449 260L1176 260C1136 260 1137 232 1137 219ZM1617 306C1617 59 1749 -8 1837 -8C1925 -8 2057 60 2057 306C2057 547 1929 619 1837 619C1746 619 1617 548 1617 306ZM1701 315C1701 496 1782 544 1836 544C1888 544 1973 500 1973 315C1973 121 1891 67 1837 67C1782 67 1701 120 1701 315ZM2287 75C2287 32 2323 0 2362 0C2406 0 2436 37 2436 75C2436 118 2401 149 2362 149C2318 149 2287 113 2287 75ZM2670 416C2670 381 2671 301 2753 243C2766 234 2796 212 2862 212C2930 212 2981 237 3019 271C3004 107 2910 67 2841 67C2790 67 2782 81 2780 89C2780 90 2778 136 2736 136C2723 136 2695 127 2695 92C2695 52 2720 -8 2840 -8C2951 -8 3104 62 3104 310C3104 577 2976 619 2890 619C2810 619 2773 595 2757 584C2694 541 2670 488 2670 416ZM2754 414L2754 422C2754 481 2792 544 2889 544C2987 544 3012 441 3012 391C3012 340 2961 288 2878 288C2843 288 2816 295 2790 320C2764 345 2754 372 2754 414ZM3139 38C3139 19 3144 0 3177 0L3283 0C3317 0 3320 22 3320 38C3320 75 3295 75 3282 75L3264 75L3264 232C3264 315 3295 373 3342 373C3377 373 3379 329 3379 291L3379 75C3355 75 3337 67 3338 39C3338 29 3336 0 3376 0L3464 0C3496 0 3504 19 3504 38C3504 74 3476 75 3465 75L3447 75L3447 232C3447 318 3480 373 3525 373C3560 373 3562 329 3562 291L3562 75C3538 75 3520 67 3521 39C3521 29 3519 0 3559 0L3649 0C3660 0 3686 2 3686 37C3686 49 3687 75 3646 75L3629 75L3629 297C3629 329 3628 361 3617 391C3599 437 3563 448 3537 448C3522 448 3470 445 3433 394C3426 408 3407 448 3354 448C3314 448 3286 431 3264 410C3262 441 3239 445 3226 445C3222 445 3218 444 3217 444L3176 444C3146 444 3139 426 3139 410C3139 396 3138 369 3178 369L3196 369L3196 75L3176 75C3141 75 3139 52 3139 38ZM3733 -46C3733 -67 3752 -83 3771 -83C3793 -83 3803 -66 3808 -55L4134 632C4138 639 4141 648 4141 657C4141 675 4125 694 4103 694C4076 694 4066 666 4061 656L3741 -20C3737 -28 3733 -36 3733 -46ZM4272 32C4272 3 4289 -4 4304 -4C4325 -4 4331 5 4344 28C4360 19 4394 -4 4469 -4C4628 -4 4659 79 4659 134C4659 164 4648 189 4631 209C4565 285 4445 269 4383 296C4368 302 4352 314 4352 329C4352 348 4367 375 4461 375C4596 375 4508 305 4583 305L4591 305C4614 305 4630 306 4630 346L4630 415C4630 444 4611 450 4597 450C4581 450 4574 445 4565 433C4538 444 4510 450 4464 450C4302 450 4272 375 4272 324C4272 292 4286 267 4304 250C4376 180 4508 206 4563 160C4569 154 4579 145 4579 130C4579 79 4515 71 4469 71C4368 71 4364 130 4352 151C4344 165 4331 167 4319 167C4287 167 4272 163 4272 129ZM5425 -97C5425 -116 5449 -138 5465 -138C5500 -138 5607 -77 5607 39C5607 108 5560 149 5512 149C5466 149 5437 116 5437 75C5437 38 5461 0 5515 0C5518 0 5522 1 5525 1C5491 -83 5425 -54 5425 -97ZM5801 406C5801 369 5826 369 5841 369L5876 369C5880 357 5886 345 5890 333L6009 15C6012 7 6013 3 6013 -1C6013 -6 6012 -10 6009 -18C5993 -68 5979 -148 5899 -151C5900 -148 5900 -144 5900 -141C5900 -120 5879 -105 5859 -105C5844 -105 5817 -114 5817 -148C5817 -179 5843 -226 5901 -226C6003 -226 6048 -118 6068 -55L6186 318C6191 335 6197 352 6202 369L6239 369C6249 369 6276 372 6276 406C6276 442 6253 444 6238 444L6106 444C6086 444 6066 441 6066 407C6066 371 6089 369 6106 369L6132 369C6111 299 6051 117 6048 70L6044 91L6031 136L6013 192L5949 369L5971 369C5987 369 6011 370 6011 406C6011 444 5985 444 5971 444L5839 444C5820 444 5801 439 5801 406ZM6487 75C6487 32 6523 0 6562 0C6606 0 6636 37 6636 75C6636 118 6601 149 6562 149C6518 149 6487 113 6487 75ZM6487 370C6487 327 6523 295 6562 295C6606 295 6636 332 6636 370C6636 413 6601 444 6562 444C6518 444 6487 408 6487 370ZM6922 460C6922 439 6929 422 6959 422C6982 422 7020 431 7059 460L7059 75L6966 75C6934 75 6927 54 6927 37C6927 19 6937 1 6961 0L7237 0C7270 0 7274 21 7274 38C7275 57 7266 75 7236 75L7143 75L7143 580C7143 598 7138 619 7109 619C7088 619 7080 606 7074 592C7055 552 7022 511 6976 500C6953 495 6922 502 6922 460ZM7537 75C7537 32 7573 0 7612 0C7656 0 7686 37 7686 75C7686 118 7651 149 7612 149C7568 149 7537 113 7537 75ZM7920 416C7920 381 7921 301 8003 243C8016 234 8046 212 8112 212C8180 212 8231 237 8269 271C8254 107 8160 67 8091 67C8040 67 8032 81 8030 89C8030 90 8028 136 7986 136C7973 136 7945 127 7945 92C7945 52 7970 -8 8090 -8C8201 -8 8354 62 8354 310C8354 577 8226 619 8140 619C8060 619 8023 595 8007 584C7944 541 7920 488 7920 416ZM8004 414L8004 422C8004 481 8042 544 8139 544C8237 544 8262 441 8262 391C8262 340 8211 288 8128 288C8093 288 8066 295 8040 320C8014 345 8004 372 8004 414ZM8389 38C8389 19 8394 0 8427 0L8533 0C8567 0 8570 22 8570 38C8570 75 8545 75 8532 75L8514 75L8514 232C8514 315 8545 373 8592 373C8627 373 8629 329 8629 291L8629 75C8605 75 8587 67 8588 39C8588 29 8586 0 8626 0L8714 0C8746 0 8754 19 8754 38C8754 74 8726 75 8715 75L8697 75L8697 232C8697 318 8730 373 8775 373C8810 373 8812 329 8812 291L8812 75C8788 75 8770 67 8771 39C8771 29 8769 0 8809 0L8899 0C8910 0 8936 2 8936 37C8936 49 8937 75 8896 75L8879 75L8879 297C8879 329 8878 361 8867 391C8849 437 8813 448 8787 448C8772 448 8720 445 8683 394C8676 408 8657 448 8604 448C8564 448 8536 431 8514 410C8512 441 8489 445 8476 445C8472 445 8468 444 8467 444L8426 444C8396 444 8389 426 8389 410C8389 396 8388 369 8428 369L8446 369L8446 75L8426 75C8391 75 8389 52 8389 38ZM8983 -46C8983 -67 9002 -83 9021 -83C9043 -83 9053 -66 9058 -55L9384 632C9388 639 9391 648 9391 657C9391 675 9375 694 9353 694C9326 694 9316 666 9311 656L8991 -20C8987 -28 8983 -36 8983 -46ZM9522 32C9522 3 9539 -4 9554 -4C9575 -4 9581 5 9594 28C9610 19 9644 -4 9719 -4C9878 -4 9909 79 9909 134C9909 164 9898 189 9881 209C9815 285 9695 269 9633 296C9618 302 9602 314 9602 329C9602 348 9617 375 9711 375C9846 375 9758 305 9833 305L9841 305C9864 305 9880 306 9880 346L9880 415C9880 444 9861 450 9847 450C9831 450 9824 445 9815 433C9788 444 9760 450 9714 450C9552 450 9522 375 9522 324C9522 292 9536 267 9554 250C9626 180 9758 206 9813 160C9819 154 9829 145 9829 130C9829 79 9765 71 9719 71C9618 71 9614 130 9602 151C9594 165 9581 167 9569 167C9537 167 9522 163 9522 129Z" stroke="rgb(0,0,0)" stroke-opacity="1" stroke-width="0" fill="rgb(0,0,0)" fill-opacity="1"></path></g></g><g><text x="266.3125" y="272" style="white-space:pre;stroke:none;fill:rgb(0,0,0);fill-opacity:1;font-size:15px;font-family:Arial, Helvetica, sans-serif;font-weight:700;font-style:normal;dominant-baseline:text-before-edge;text-decoration:none solid rgb(0, 0, 0);">  </text></g></g></g><g><g><g><g transform="matrix(1,0,0,1,463.390625,287.65625)"><path transform="matrix(0.0075,0,0,-0.0075,0,0)" d="M47 138C47 71 104 -4 203 -4C285 -4 333 30 352 43C368 7 408 0 465 0L488 0C498 0 524 3 524 37C524 93 475 67 431 81L431 277C431 416 327 450 234 450C155 450 83 442 83 380C83 356 102 338 125 338C138 338 151 344 159 355C169 369 159 375 231 375C350 375 347 305 347 275C215 275 47 247 47 138ZM131 138C131 182 217 209 347 211L347 157C347 84 259 71 225 71C174 71 131 100 131 138ZM529 -187C529 -220 553 -222 569 -222L744 -222C768 -222 783 -214 783 -184C783 -148 757 -147 744 -147L698 -147L698 48C728 18 764 -4 817 -4C910 -4 1018 60 1018 223C1018 364 936 448 829 448C772 448 731 425 698 397L698 405C698 424 695 444 657 444L571 444C555 444 529 443 529 409C529 383 536 369 568 369L614 369L614 -147L568 -147C551 -147 529 -148 529 -187ZM698 187L698 278C698 317 748 373 814 373C868 373 934 337 934 222C934 129 882 71 804 71C731 71 698 154 698 187ZM1074 40C1074 24 1074 0 1112 0L1391 0C1405 0 1431 1 1431 36C1431 75 1405 75 1392 75L1279 75L1279 173C1279 307 1362 373 1445 373C1448 373 1452 372 1455 372C1463 348 1482 342 1496 342C1519 342 1537 360 1537 384C1537 410 1518 448 1443 448C1370 448 1312 409 1279 365L1279 402C1279 412 1281 444 1243 444L1113 444C1094 444 1074 439 1074 410C1074 393 1074 369 1112 369L1195 369L1195 75L1112 75C1082 75 1074 57 1074 40ZM1627 222C1627 84 1712 -4 1836 -4C1961 -4 2047 82 2047 222C2047 363 1960 450 1837 450C1714 450 1627 366 1627 222ZM1711 231C1711 336 1778 375 1837 375C1911 375 1963 320 1963 230C1963 128 1908 71 1837 71C1785 71 1711 108 1711 231ZM2127 39C2127 19 2132 0 2165 0L2301 0C2336 0 2338 22 2338 37C2338 67 2323 75 2299 75L2291 75L2359 181L2430 75L2425 75C2406 75 2384 74 2384 37C2384 25 2386 0 2420 0L2557 0C2574 0 2595 4 2595 37C2595 44 2598 76 2557 76C2553 76 2551 75 2550 75L2520 75C2515 75 2510 76 2506 79C2500 84 2398 221 2392 230L2481 351C2490 363 2491 369 2506 369L2543 369C2554 369 2583 370 2582 406C2582 440 2561 444 2543 444L2408 444C2372 444 2371 421 2371 407C2371 388 2373 369 2414 369L2360 289L2302 369L2306 369C2321 369 2344 371 2344 407C2344 437 2327 444 2307 444L2171 444C2133 444 2133 419 2133 404C2133 371 2158 369 2173 369L2222 369L2326 230L2326 229C2316 216 2307 202 2229 95C2217 80 2218 75 2202 75L2166 75C2154 75 2127 75 2127 39ZM2822 565C2822 547 2835 520 2881 520C2929 520 2941 547 2941 565C2941 592 2917 611 2882 611C2834 611 2822 583 2822 565ZM2696 38C2696 2 2722 0 2733 0L3049 0C3082 0 3087 19 3087 38C3088 58 3079 75 3048 75L2941 75L2941 405C2941 422 2939 444 2905 444L2744 444C2704 444 2704 419 2704 404C2704 369 2730 369 2745 369L2858 369L2858 75L2735 75C2710 75 2696 68 2696 38ZM3139 38C3139 19 3144 0 3177 0L3283 0C3317 0 3320 22 3320 38C3320 75 3295 75 3282 75L3264 75L3264 232C3264 315 3295 373 3342 373C3377 373 3379 329 3379 291L3379 75C3355 75 3337 67 3338 39C3338 29 3336 0 3376 0L3464 0C3496 0 3504 19 3504 38C3504 74 3476 75 3465 75L3447 75L3447 232C3447 318 3480 373 3525 373C3560 373 3562 329 3562 291L3562 75C3538 75 3520 67 3521 39C3521 29 3519 0 3559 0L3649 0C3660 0 3686 2 3686 37C3686 49 3687 75 3646 75L3629 75L3629 297C3629 329 3628 361 3617 391C3599 437 3563 448 3537 448C3522 448 3470 445 3433 394C3426 408 3407 448 3354 448C3314 448 3286 431 3264 410C3262 441 3239 445 3226 445C3222 445 3218 444 3217 444L3176 444C3146 444 3139 426 3139 410C3139 396 3138 369 3178 369L3196 369L3196 75L3176 75C3141 75 3139 52 3139 38ZM3722 138C3722 71 3779 -4 3878 -4C3960 -4 4008 30 4027 43C4043 7 4083 0 4140 0L4163 0C4173 0 4199 3 4199 37C4199 93 4150 67 4106 81L4106 277C4106 416 4002 450 3909 450C3830 450 3758 442 3758 380C3758 356 3777 338 3800 338C3813 338 3826 344 3834 355C3844 369 3834 375 3906 375C4025 375 4022 305 4022 275C3890 275 3722 247 3722 138ZM3806 138C3806 182 3892 209 4022 211L4022 157C4022 84 3934 71 3900 71C3849 71 3806 100 3806 138ZM4231 220C4231 86 4311 -4 4422 -4C4480 -4 4521 23 4551 54L4551 37C4551 7 4569 0 4585 0L4683 0C4713 0 4721 20 4720 37C4720 51 4718 75 4680 75L4635 75L4635 566C4635 585 4636 611 4597 611L4501 611C4472 610 4465 590 4466 574C4466 538 4488 535 4504 535L4551 535L4551 401C4523 426 4483 448 4430 448C4346 448 4231 393 4231 220ZM4315 222C4315 315 4367 373 4445 373C4508 373 4551 318 4551 279L4551 191C4552 160 4515 71 4435 71C4381 71 4315 107 4315 222ZM4772 138C4772 71 4829 -4 4928 -4C5010 -4 5058 30 5077 43C5093 7 5133 0 5190 0L5213 0C5223 0 5249 3 5249 37C5249 93 5200 67 5156 81L5156 277C5156 416 5052 450 4959 450C4880 450 4808 442 4808 380C4808 356 4827 338 4850 338C4863 338 4876 344 4884 355C4894 369 4884 375 4956 375C5075 375 5072 305 5072 275C4940 275 4772 247 4772 138ZM4856 138C4856 182 4942 209 5072 211L5072 157C5072 84 4984 71 4950 71C4899 71 4856 100 4856 138ZM5239 38C5239 19 5244 0 5277 0L5383 0C5417 0 5420 22 5420 38C5420 75 5395 75 5382 75L5364 75L5364 232C5364 315 5395 373 5442 373C5477 373 5479 329 5479 291L5479 75C5455 75 5437 67 5438 39C5438 29 5436 0 5476 0L5564 0C5596 0 5604 19 5604 38C5604 74 5576 75 5565 75L5547 75L5547 232C5547 318 5580 373 5625 373C5660 373 5662 329 5662 291L5662 75C5638 75 5620 67 5621 39C5621 29 5619 0 5659 0L5749 0C5760 0 5786 2 5786 37C5786 49 5787 75 5746 75L5729 75L5729 297C5729 329 5728 361 5717 391C5699 437 5663 448 5637 448C5622 448 5570 445 5533 394C5526 408 5507 448 5454 448C5414 448 5386 431 5364 410C5362 441 5339 445 5326 445C5322 445 5318 444 5317 444L5276 444C5246 444 5239 426 5239 410C5239 396 5238 369 5278 369L5296 369L5296 75L5276 75C5241 75 5239 52 5239 38ZM5822 224C5822 87 5917 -4 6058 -4C6183 -4 6238 82 6238 116C6238 146 6211 147 6200 147L6197 147C6159 147 6164 135 6149 111C6127 74 6093 71 6077 71C6015 71 5936 94 5910 183L6200 183C6213 183 6239 185 6239 218C6238 424 6112 450 6044 450C5914 450 5822 361 5822 224ZM5908 252C5917 326 5967 375 6044 375C6104 375 6147 339 6153 252ZM6304 37C6304 17 6310 0 6342 0L6519 0C6543 0 6558 8 6558 38C6558 74 6532 75 6519 75L6473 75L6473 231C6473 342 6546 373 6589 373C6647 373 6652 337 6652 287L6652 75L6624 75C6583 75 6584 50 6584 35C6584 1 6612 0 6623 0L6783 0C6795 0 6820 1 6820 38C6820 73 6795 75 6782 75L6735 75L6735 288C6735 352 6728 448 6605 448C6552 448 6509 427 6473 392L6473 408C6473 441 6449 444 6435 444L6340 444C6311 444 6304 425 6304 409C6304 371 6326 369 6344 369L6389 369L6389 75L6343 75C6328 75 6304 73 6304 37ZM6850 404C6850 387 6858 369 6888 369L6970 369L6970 165C6970 148 6971 132 6973 115C6987 7 7070 -4 7107 -4C7208 -4 7275 75 7275 147C7275 179 7249 182 7231 182C7212 182 7198 178 7192 159C7186 140 7197 129 7167 90C7152 78 7140 71 7121 71C7055 71 7054 122 7054 162L7054 369L7218 369C7244 369 7253 388 7253 406C7253 423 7245 444 7216 444L7054 444L7054 534C7054 570 7030 571 7017 571L7012 571C6995 571 6970 571 6970 534L6970 444L6888 444C6850 444 6850 416 6850 404ZM7397 224C7397 87 7492 -4 7633 -4C7758 -4 7813 82 7813 116C7813 146 7786 147 7775 147L7772 147C7734 147 7739 135 7724 111C7702 74 7668 71 7652 71C7590 71 7511 94 7485 183L7775 183C7788 183 7814 185 7814 218C7813 424 7687 450 7619 450C7489 450 7397 361 7397 224ZM7483 252C7492 326 7542 375 7619 375C7679 375 7722 339 7728 252Z" stroke="rgb(0,0,0)" stroke-opacity="1" stroke-width="0" fill="rgb(0,0,0)" fill-opacity="1"></path></g></g></g><g><g><g transform="matrix(1,0,0,1,463.390625,299.65625)"><path transform="matrix(0.0075,0,0,-0.0075,0,0)" d="M27 39C27 19 32 0 65 0L201 0C236 0 238 22 238 37C238 67 223 75 199 75L191 75L259 181L330 75L325 75C306 75 284 74 284 37C284 25 286 0 320 0L457 0C474 0 495 4 495 37C495 44 498 76 457 76C453 76 451 75 450 75L420 75C415 75 410 76 406 79C400 84 298 221 292 230L381 351C390 363 391 369 406 369L443 369C454 369 483 370 482 406C482 440 461 444 443 444L308 444C272 444 271 421 271 407C271 388 273 369 314 369L260 289L202 369L206 369C221 369 244 371 244 407C244 437 227 444 207 444L71 444C33 444 33 419 33 404C33 371 58 369 73 369L122 369L226 230L226 229C216 216 207 202 129 95C117 80 118 75 102 75L66 75C54 75 27 75 27 39ZM712 75C712 32 748 0 787 0C831 0 861 37 861 75C861 118 826 149 787 149C743 149 712 113 712 75ZM712 370C712 327 748 295 787 295C831 295 861 332 861 370C861 413 826 444 787 444C743 444 712 408 712 370ZM1093 138C1093 50 1187 -8 1312 -8C1455 -8 1530 79 1530 179C1530 225 1510 296 1422 331C1494 381 1501 449 1501 474C1501 553 1437 619 1313 619C1164 619 1123 551 1123 505C1123 479 1136 458 1164 458C1206 458 1206 503 1208 508C1219 541 1289 544 1313 544C1398 544 1417 502 1417 474C1417 420 1370 376 1317 372C1259 367 1224 374 1224 330C1224 301 1240 292 1257 292L1301 292C1425 292 1446 223 1446 180C1446 133 1417 67 1312 67C1265 67 1235 78 1218 86C1174 107 1178 136 1176 147C1173 166 1158 183 1135 183C1115 183 1093 169 1093 138ZM1762 75C1762 32 1798 0 1837 0C1881 0 1911 37 1911 75C1911 118 1876 149 1837 149C1793 149 1762 113 1762 75ZM2143 179C2143 78 2217 -8 2362 -8C2503 -8 2580 75 2580 179C2580 239 2546 303 2457 330C2535 356 2565 406 2565 457C2565 523 2520 619 2361 619C2225 619 2158 543 2158 457C2158 406 2190 352 2266 330C2173 297 2143 240 2143 179ZM2227 180C2227 245 2277 292 2362 292C2444 292 2496 247 2496 179C2496 109 2440 67 2362 67C2295 67 2227 102 2227 180ZM2242 456C2242 515 2298 544 2362 544C2421 544 2482 517 2482 456C2482 397 2426 367 2362 367C2303 367 2242 395 2242 456ZM2614 38C2614 19 2619 0 2652 0L2758 0C2792 0 2795 22 2795 38C2795 75 2770 75 2757 75L2739 75L2739 232C2739 315 2770 373 2817 373C2852 373 2854 329 2854 291L2854 75C2830 75 2812 67 2813 39C2813 29 2811 0 2851 0L2939 0C2971 0 2979 19 2979 38C2979 74 2951 75 2940 75L2922 75L2922 232C2922 318 2955 373 3000 373C3035 373 3037 329 3037 291L3037 75C3013 75 2995 67 2996 39C2996 29 2994 0 3034 0L3124 0C3135 0 3161 2 3161 37C3161 49 3162 75 3121 75L3104 75L3104 297C3104 329 3103 361 3092 391C3074 437 3038 448 3012 448C2997 448 2945 445 2908 394C2901 408 2882 448 2829 448C2789 448 2761 431 2739 410C2737 441 2714 445 2701 445C2697 445 2693 444 2692 444L2651 444C2621 444 2614 426 2614 410C2614 396 2613 369 2653 369L2671 369L2671 75L2651 75C2616 75 2614 52 2614 38ZM3208 -46C3208 -67 3227 -83 3246 -83C3268 -83 3278 -66 3283 -55L3609 632C3613 639 3616 648 3616 657C3616 675 3600 694 3578 694C3551 694 3541 666 3536 656L3216 -20C3212 -28 3208 -36 3208 -46ZM3747 32C3747 3 3764 -4 3779 -4C3800 -4 3806 5 3819 28C3835 19 3869 -4 3944 -4C4103 -4 4134 79 4134 134C4134 164 4123 189 4106 209C4040 285 3920 269 3858 296C3843 302 3827 314 3827 329C3827 348 3842 375 3936 375C4071 375 3983 305 4058 305L4066 305C4089 305 4105 306 4105 346L4105 415C4105 444 4086 450 4072 450C4056 450 4049 445 4040 433C4013 444 3985 450 3939 450C3777 450 3747 375 3747 324C3747 292 3761 267 3779 250C3851 180 3983 206 4038 160C4044 154 4054 145 4054 130C4054 79 3990 71 3944 71C3843 71 3839 130 3827 151C3819 165 3806 167 3794 167C3762 167 3747 163 3747 129ZM4900 -97C4900 -116 4924 -138 4940 -138C4975 -138 5082 -77 5082 39C5082 108 5035 149 4987 149C4941 149 4912 116 4912 75C4912 38 4936 0 4990 0C4993 0 4997 1 5000 1C4966 -83 4900 -54 4900 -97ZM5276 406C5276 369 5301 369 5316 369L5351 369C5355 357 5361 345 5365 333L5484 15C5487 7 5488 3 5488 -1C5488 -6 5487 -10 5484 -18C5468 -68 5454 -148 5374 -151C5375 -148 5375 -144 5375 -141C5375 -120 5354 -105 5334 -105C5319 -105 5292 -114 5292 -148C5292 -179 5318 -226 5376 -226C5478 -226 5523 -118 5543 -55L5661 318C5666 335 5672 352 5677 369L5714 369C5724 369 5751 372 5751 406C5751 442 5728 444 5713 444L5581 444C5561 444 5541 441 5541 407C5541 371 5564 369 5581 369L5607 369C5586 299 5526 117 5523 70L5519 91L5506 136L5488 192L5424 369L5446 369C5462 369 5486 370 5486 406C5486 444 5460 444 5446 444L5314 444C5295 444 5276 439 5276 406ZM5962 75C5962 32 5998 0 6037 0C6081 0 6111 37 6111 75C6111 118 6076 149 6037 149C5993 149 5962 113 5962 75ZM5962 370C5962 327 5998 295 6037 295C6081 295 6111 332 6111 370C6111 413 6076 444 6037 444C5993 444 5962 408 5962 370ZM6397 460C6397 439 6404 422 6434 422C6457 422 6495 431 6534 460L6534 75L6441 75C6409 75 6402 54 6402 37C6402 19 6412 1 6436 0L6712 0C6745 0 6749 21 6749 38C6750 57 6741 75 6711 75L6618 75L6618 580C6618 598 6613 619 6584 619C6563 619 6555 606 6549 592C6530 552 6497 511 6451 500C6428 495 6397 502 6397 460ZM7012 75C7012 32 7048 0 7087 0C7131 0 7161 37 7161 75C7161 118 7126 149 7087 149C7043 149 7012 113 7012 75ZM7402 137C7402 55 7485 -8 7595 -8C7729 -8 7822 71 7822 189C7822 300 7749 386 7624 386C7596 386 7553 381 7514 360L7514 535L7750 535C7785 535 7787 561 7787 574C7787 608 7766 611 7747 611L7469 611C7456 611 7429 610 7430 572L7430 294C7430 274 7429 248 7469 248C7489 248 7493 248 7509 267C7523 283 7555 310 7623 310C7714 310 7738 239 7738 190C7738 108 7674 67 7595 67C7539 67 7497 92 7488 125C7486 134 7488 181 7444 181C7421 181 7402 163 7402 137ZM7864 38C7864 19 7869 0 7902 0L8008 0C8042 0 8045 22 8045 38C8045 75 8020 75 8007 75L7989 75L7989 232C7989 315 8020 373 8067 373C8102 373 8104 329 8104 291L8104 75C8080 75 8062 67 8063 39C8063 29 8061 0 8101 0L8189 0C8221 0 8229 19 8229 38C8229 74 8201 75 8190 75L8172 75L8172 232C8172 318 8205 373 8250 373C8285 373 8287 329 8287 291L8287 75C8263 75 8245 67 8246 39C8246 29 8244 0 8284 0L8374 0C8385 0 8411 2 8411 37C8411 49 8412 75 8371 75L8354 75L8354 297C8354 329 8353 361 8342 391C8324 437 8288 448 8262 448C8247 448 8195 445 8158 394C8151 408 8132 448 8079 448C8039 448 8011 431 7989 410C7987 441 7964 445 7951 445C7947 445 7943 444 7942 444L7901 444C7871 444 7864 426 7864 410C7864 396 7863 369 7903 369L7921 369L7921 75L7901 75C7866 75 7864 52 7864 38ZM8458 -46C8458 -67 8477 -83 8496 -83C8518 -83 8528 -66 8533 -55L8859 632C8863 639 8866 648 8866 657C8866 675 8850 694 8828 694C8801 694 8791 666 8786 656L8466 -20C8462 -28 8458 -36 8458 -46ZM8997 32C8997 3 9014 -4 9029 -4C9050 -4 9056 5 9069 28C9085 19 9119 -4 9194 -4C9353 -4 9384 79 9384 134C9384 164 9373 189 9356 209C9290 285 9170 269 9108 296C9093 302 9077 314 9077 329C9077 348 9092 375 9186 375C9321 375 9233 305 9308 305L9316 305C9339 305 9355 306 9355 346L9355 415C9355 444 9336 450 9322 450C9306 450 9299 445 9290 433C9263 444 9235 450 9189 450C9027 450 8997 375 8997 324C8997 292 9011 267 9029 250C9101 180 9233 206 9288 160C9294 154 9304 145 9304 130C9304 79 9240 71 9194 71C9093 71 9089 130 9077 151C9069 165 9056 167 9044 167C9012 167 8997 163 8997 129Z" stroke="rgb(0,0,0)" stroke-opacity="1" stroke-width="0" fill="rgb(0,0,0)" fill-opacity="1"></path></g></g><g><text x="534.265625" y="286.15625" style="white-space:pre;stroke:none;fill:rgb(0,0,0);fill-opacity:1;font-size:15px;font-family:Arial, Helvetica, sans-serif;font-weight:700;font-style:normal;dominant-baseline:text-before-edge;text-decoration:none solid rgb(0, 0, 0);">  </text></g></g></g><g><g><g><g transform="matrix(1,0,0,1,454.78125,519)"><path transform="matrix(0.0075,0,0,-0.0075,0,0)" d="M47 138C47 71 104 -4 203 -4C285 -4 333 30 352 43C368 7 408 0 465 0L488 0C498 0 524 3 524 37C524 93 475 67 431 81L431 277C431 416 327 450 234 450C155 450 83 442 83 380C83 356 102 338 125 338C138 338 151 344 159 355C169 369 159 375 231 375C350 375 347 305 347 275C215 275 47 247 47 138ZM131 138C131 182 217 209 347 211L347 157C347 84 259 71 225 71C174 71 131 100 131 138ZM529 -187C529 -220 553 -222 569 -222L744 -222C768 -222 783 -214 783 -184C783 -148 757 -147 744 -147L698 -147L698 48C728 18 764 -4 817 -4C910 -4 1018 60 1018 223C1018 364 936 448 829 448C772 448 731 425 698 397L698 405C698 424 695 444 657 444L571 444C555 444 529 443 529 409C529 383 536 369 568 369L614 369L614 -147L568 -147C551 -147 529 -148 529 -187ZM698 187L698 278C698 317 748 373 814 373C868 373 934 337 934 222C934 129 882 71 804 71C731 71 698 154 698 187ZM1074 40C1074 24 1074 0 1112 0L1391 0C1405 0 1431 1 1431 36C1431 75 1405 75 1392 75L1279 75L1279 173C1279 307 1362 373 1445 373C1448 373 1452 372 1455 372C1463 348 1482 342 1496 342C1519 342 1537 360 1537 384C1537 410 1518 448 1443 448C1370 448 1312 409 1279 365L1279 402C1279 412 1281 444 1243 444L1113 444C1094 444 1074 439 1074 410C1074 393 1074 369 1112 369L1195 369L1195 75L1112 75C1082 75 1074 57 1074 40ZM1627 222C1627 84 1712 -4 1836 -4C1961 -4 2047 82 2047 222C2047 363 1960 450 1837 450C1714 450 1627 366 1627 222ZM1711 231C1711 336 1778 375 1837 375C1911 375 1963 320 1963 230C1963 128 1908 71 1837 71C1785 71 1711 108 1711 231ZM2127 39C2127 19 2132 0 2165 0L2301 0C2336 0 2338 22 2338 37C2338 67 2323 75 2299 75L2291 75L2359 181L2430 75L2425 75C2406 75 2384 74 2384 37C2384 25 2386 0 2420 0L2557 0C2574 0 2595 4 2595 37C2595 44 2598 76 2557 76C2553 76 2551 75 2550 75L2520 75C2515 75 2510 76 2506 79C2500 84 2398 221 2392 230L2481 351C2490 363 2491 369 2506 369L2543 369C2554 369 2583 370 2582 406C2582 440 2561 444 2543 444L2408 444C2372 444 2371 421 2371 407C2371 388 2373 369 2414 369L2360 289L2302 369L2306 369C2321 369 2344 371 2344 407C2344 437 2327 444 2307 444L2171 444C2133 444 2133 419 2133 404C2133 371 2158 369 2173 369L2222 369L2326 230L2326 229C2316 216 2307 202 2229 95C2217 80 2218 75 2202 75L2166 75C2154 75 2127 75 2127 39ZM2822 565C2822 547 2835 520 2881 520C2929 520 2941 547 2941 565C2941 592 2917 611 2882 611C2834 611 2822 583 2822 565ZM2696 38C2696 2 2722 0 2733 0L3049 0C3082 0 3087 19 3087 38C3088 58 3079 75 3048 75L2941 75L2941 405C2941 422 2939 444 2905 444L2744 444C2704 444 2704 419 2704 404C2704 369 2730 369 2745 369L2858 369L2858 75L2735 75C2710 75 2696 68 2696 38ZM3139 38C3139 19 3144 0 3177 0L3283 0C3317 0 3320 22 3320 38C3320 75 3295 75 3282 75L3264 75L3264 232C3264 315 3295 373 3342 373C3377 373 3379 329 3379 291L3379 75C3355 75 3337 67 3338 39C3338 29 3336 0 3376 0L3464 0C3496 0 3504 19 3504 38C3504 74 3476 75 3465 75L3447 75L3447 232C3447 318 3480 373 3525 373C3560 373 3562 329 3562 291L3562 75C3538 75 3520 67 3521 39C3521 29 3519 0 3559 0L3649 0C3660 0 3686 2 3686 37C3686 49 3687 75 3646 75L3629 75L3629 297C3629 329 3628 361 3617 391C3599 437 3563 448 3537 448C3522 448 3470 445 3433 394C3426 408 3407 448 3354 448C3314 448 3286 431 3264 410C3262 441 3239 445 3226 445C3222 445 3218 444 3217 444L3176 444C3146 444 3139 426 3139 410C3139 396 3138 369 3178 369L3196 369L3196 75L3176 75C3141 75 3139 52 3139 38ZM3722 138C3722 71 3779 -4 3878 -4C3960 -4 4008 30 4027 43C4043 7 4083 0 4140 0L4163 0C4173 0 4199 3 4199 37C4199 93 4150 67 4106 81L4106 277C4106 416 4002 450 3909 450C3830 450 3758 442 3758 380C3758 356 3777 338 3800 338C3813 338 3826 344 3834 355C3844 369 3834 375 3906 375C4025 375 4022 305 4022 275C3890 275 3722 247 3722 138ZM3806 138C3806 182 3892 209 4022 211L4022 157C4022 84 3934 71 3900 71C3849 71 3806 100 3806 138ZM4231 220C4231 86 4311 -4 4422 -4C4480 -4 4521 23 4551 54L4551 37C4551 7 4569 0 4585 0L4683 0C4713 0 4721 20 4720 37C4720 51 4718 75 4680 75L4635 75L4635 566C4635 585 4636 611 4597 611L4501 611C4472 610 4465 590 4466 574C4466 538 4488 535 4504 535L4551 535L4551 401C4523 426 4483 448 4430 448C4346 448 4231 393 4231 220ZM4315 222C4315 315 4367 373 4445 373C4508 373 4551 318 4551 279L4551 191C4552 160 4515 71 4435 71C4381 71 4315 107 4315 222ZM4772 138C4772 71 4829 -4 4928 -4C5010 -4 5058 30 5077 43C5093 7 5133 0 5190 0L5213 0C5223 0 5249 3 5249 37C5249 93 5200 67 5156 81L5156 277C5156 416 5052 450 4959 450C4880 450 4808 442 4808 380C4808 356 4827 338 4850 338C4863 338 4876 344 4884 355C4894 369 4884 375 4956 375C5075 375 5072 305 5072 275C4940 275 4772 247 4772 138ZM4856 138C4856 182 4942 209 5072 211L5072 157C5072 84 4984 71 4950 71C4899 71 4856 100 4856 138ZM5239 38C5239 19 5244 0 5277 0L5383 0C5417 0 5420 22 5420 38C5420 75 5395 75 5382 75L5364 75L5364 232C5364 315 5395 373 5442 373C5477 373 5479 329 5479 291L5479 75C5455 75 5437 67 5438 39C5438 29 5436 0 5476 0L5564 0C5596 0 5604 19 5604 38C5604 74 5576 75 5565 75L5547 75L5547 232C5547 318 5580 373 5625 373C5660 373 5662 329 5662 291L5662 75C5638 75 5620 67 5621 39C5621 29 5619 0 5659 0L5749 0C5760 0 5786 2 5786 37C5786 49 5787 75 5746 75L5729 75L5729 297C5729 329 5728 361 5717 391C5699 437 5663 448 5637 448C5622 448 5570 445 5533 394C5526 408 5507 448 5454 448C5414 448 5386 431 5364 410C5362 441 5339 445 5326 445C5322 445 5318 444 5317 444L5276 444C5246 444 5239 426 5239 410C5239 396 5238 369 5278 369L5296 369L5296 75L5276 75C5241 75 5239 52 5239 38ZM5822 224C5822 87 5917 -4 6058 -4C6183 -4 6238 82 6238 116C6238 146 6211 147 6200 147L6197 147C6159 147 6164 135 6149 111C6127 74 6093 71 6077 71C6015 71 5936 94 5910 183L6200 183C6213 183 6239 185 6239 218C6238 424 6112 450 6044 450C5914 450 5822 361 5822 224ZM5908 252C5917 326 5967 375 6044 375C6104 375 6147 339 6153 252ZM6304 37C6304 17 6310 0 6342 0L6519 0C6543 0 6558 8 6558 38C6558 74 6532 75 6519 75L6473 75L6473 231C6473 342 6546 373 6589 373C6647 373 6652 337 6652 287L6652 75L6624 75C6583 75 6584 50 6584 35C6584 1 6612 0 6623 0L6783 0C6795 0 6820 1 6820 38C6820 73 6795 75 6782 75L6735 75L6735 288C6735 352 6728 448 6605 448C6552 448 6509 427 6473 392L6473 408C6473 441 6449 444 6435 444L6340 444C6311 444 6304 425 6304 409C6304 371 6326 369 6344 369L6389 369L6389 75L6343 75C6328 75 6304 73 6304 37ZM6850 404C6850 387 6858 369 6888 369L6970 369L6970 165C6970 148 6971 132 6973 115C6987 7 7070 -4 7107 -4C7208 -4 7275 75 7275 147C7275 179 7249 182 7231 182C7212 182 7198 178 7192 159C7186 140 7197 129 7167 90C7152 78 7140 71 7121 71C7055 71 7054 122 7054 162L7054 369L7218 369C7244 369 7253 388 7253 406C7253 423 7245 444 7216 444L7054 444L7054 534C7054 570 7030 571 7017 571L7012 571C6995 571 6970 571 6970 534L6970 444L6888 444C6850 444 6850 416 6850 404ZM7397 224C7397 87 7492 -4 7633 -4C7758 -4 7813 82 7813 116C7813 146 7786 147 7775 147L7772 147C7734 147 7739 135 7724 111C7702 74 7668 71 7652 71C7590 71 7511 94 7485 183L7775 183C7788 183 7814 185 7814 218C7813 424 7687 450 7619 450C7489 450 7397 361 7397 224ZM7483 252C7492 326 7542 375 7619 375C7679 375 7722 339 7728 252Z" stroke="rgb(0,0,0)" stroke-opacity="1" stroke-width="0" fill="rgb(0,0,0)" fill-opacity="1"></path></g></g></g><g><g><g transform="matrix(1,0,0,1,454.78125,531)"><path transform="matrix(0.0075,0,0,-0.0075,0,0)" d="M27 39C27 19 32 0 65 0L201 0C236 0 238 22 238 37C238 67 223 75 199 75L191 75L259 181L330 75L325 75C306 75 284 74 284 37C284 25 286 0 320 0L457 0C474 0 495 4 495 37C495 44 498 76 457 76C453 76 451 75 450 75L420 75C415 75 410 76 406 79C400 84 298 221 292 230L381 351C390 363 391 369 406 369L443 369C454 369 483 370 482 406C482 440 461 444 443 444L308 444C272 444 271 421 271 407C271 388 273 369 314 369L260 289L202 369L206 369C221 369 244 371 244 407C244 437 227 444 207 444L71 444C33 444 33 419 33 404C33 371 58 369 73 369L122 369L226 230L226 229C216 216 207 202 129 95C117 80 118 75 102 75L66 75C54 75 27 75 27 39ZM712 75C712 32 748 0 787 0C831 0 861 37 861 75C861 118 826 149 787 149C743 149 712 113 712 75ZM712 370C712 327 748 295 787 295C831 295 861 332 861 370C861 413 826 444 787 444C743 444 712 408 712 370ZM1093 138C1093 50 1187 -8 1312 -8C1455 -8 1530 79 1530 179C1530 225 1510 296 1422 331C1494 381 1501 449 1501 474C1501 553 1437 619 1313 619C1164 619 1123 551 1123 505C1123 479 1136 458 1164 458C1206 458 1206 503 1208 508C1219 541 1289 544 1313 544C1398 544 1417 502 1417 474C1417 420 1370 376 1317 372C1259 367 1224 374 1224 330C1224 301 1240 292 1257 292L1301 292C1425 292 1446 223 1446 180C1446 133 1417 67 1312 67C1265 67 1235 78 1218 86C1174 107 1178 136 1176 147C1173 166 1158 183 1135 183C1115 183 1093 169 1093 138ZM1762 75C1762 32 1798 0 1837 0C1881 0 1911 37 1911 75C1911 118 1876 149 1837 149C1793 149 1762 113 1762 75ZM2143 532C2143 515 2142 488 2183 488L2187 488C2205 488 2227 490 2227 527L2227 535L2464 535C2327 392 2263 213 2261 42C2261 -3 2292 -8 2303 -8C2323 -8 2338 6 2343 21C2350 42 2330 257 2498 466C2564 548 2580 537 2580 574C2580 608 2556 611 2540 611L2234 611C2210 612 2227 627 2182 627C2144 627 2143 604 2143 587ZM2677 137C2677 55 2760 -8 2870 -8C3004 -8 3097 71 3097 189C3097 300 3024 386 2899 386C2871 386 2828 381 2789 360L2789 535L3025 535C3060 535 3062 561 3062 574C3062 608 3041 611 3022 611L2744 611C2731 611 2704 610 2705 572L2705 294C2705 274 2704 248 2744 248C2764 248 2768 248 2784 267C2798 283 2830 310 2898 310C2989 310 3013 239 3013 190C3013 108 2949 67 2870 67C2814 67 2772 92 2763 125C2761 134 2763 181 2719 181C2696 181 2677 163 2677 137ZM3139 38C3139 19 3144 0 3177 0L3283 0C3317 0 3320 22 3320 38C3320 75 3295 75 3282 75L3264 75L3264 232C3264 315 3295 373 3342 373C3377 373 3379 329 3379 291L3379 75C3355 75 3337 67 3338 39C3338 29 3336 0 3376 0L3464 0C3496 0 3504 19 3504 38C3504 74 3476 75 3465 75L3447 75L3447 232C3447 318 3480 373 3525 373C3560 373 3562 329 3562 291L3562 75C3538 75 3520 67 3521 39C3521 29 3519 0 3559 0L3649 0C3660 0 3686 2 3686 37C3686 49 3687 75 3646 75L3629 75L3629 297C3629 329 3628 361 3617 391C3599 437 3563 448 3537 448C3522 448 3470 445 3433 394C3426 408 3407 448 3354 448C3314 448 3286 431 3264 410C3262 441 3239 445 3226 445C3222 445 3218 444 3217 444L3176 444C3146 444 3139 426 3139 410C3139 396 3138 369 3178 369L3196 369L3196 75L3176 75C3141 75 3139 52 3139 38ZM3733 -46C3733 -67 3752 -83 3771 -83C3793 -83 3803 -66 3808 -55L4134 632C4138 639 4141 648 4141 657C4141 675 4125 694 4103 694C4076 694 4066 666 4061 656L3741 -20C3737 -28 3733 -36 3733 -46ZM4272 32C4272 3 4289 -4 4304 -4C4325 -4 4331 5 4344 28C4360 19 4394 -4 4469 -4C4628 -4 4659 79 4659 134C4659 164 4648 189 4631 209C4565 285 4445 269 4383 296C4368 302 4352 314 4352 329C4352 348 4367 375 4461 375C4596 375 4508 305 4583 305L4591 305C4614 305 4630 306 4630 346L4630 415C4630 444 4611 450 4597 450C4581 450 4574 445 4565 433C4538 444 4510 450 4464 450C4302 450 4272 375 4272 324C4272 292 4286 267 4304 250C4376 180 4508 206 4563 160C4569 154 4579 145 4579 130C4579 79 4515 71 4469 71C4368 71 4364 130 4352 151C4344 165 4331 167 4319 167C4287 167 4272 163 4272 129ZM5425 -97C5425 -116 5449 -138 5465 -138C5500 -138 5607 -77 5607 39C5607 108 5560 149 5512 149C5466 149 5437 116 5437 75C5437 38 5461 0 5515 0C5518 0 5522 1 5525 1C5491 -83 5425 -54 5425 -97ZM5801 406C5801 369 5826 369 5841 369L5876 369C5880 357 5886 345 5890 333L6009 15C6012 7 6013 3 6013 -1C6013 -6 6012 -10 6009 -18C5993 -68 5979 -148 5899 -151C5900 -148 5900 -144 5900 -141C5900 -120 5879 -105 5859 -105C5844 -105 5817 -114 5817 -148C5817 -179 5843 -226 5901 -226C6003 -226 6048 -118 6068 -55L6186 318C6191 335 6197 352 6202 369L6239 369C6249 369 6276 372 6276 406C6276 442 6253 444 6238 444L6106 444C6086 444 6066 441 6066 407C6066 371 6089 369 6106 369L6132 369C6111 299 6051 117 6048 70L6044 91L6031 136L6013 192L5949 369L5971 369C5987 369 6011 370 6011 406C6011 444 5985 444 5971 444L5839 444C5820 444 5801 439 5801 406ZM6487 75C6487 32 6523 0 6562 0C6606 0 6636 37 6636 75C6636 118 6601 149 6562 149C6518 149 6487 113 6487 75ZM6487 370C6487 327 6523 295 6562 295C6606 295 6636 332 6636 370C6636 413 6601 444 6562 444C6518 444 6487 408 6487 370ZM6912 219C6912 204 6918 186 6947 185L7226 185C7263 186 7262 213 7262 223C7262 243 7254 260 7224 260L6951 260C6911 260 6912 232 6912 219ZM7393 138C7393 50 7487 -8 7612 -8C7755 -8 7830 79 7830 179C7830 225 7810 296 7722 331C7794 381 7801 449 7801 474C7801 553 7737 619 7613 619C7464 619 7423 551 7423 505C7423 479 7436 458 7464 458C7506 458 7506 503 7508 508C7519 541 7589 544 7613 544C7698 544 7717 502 7717 474C7717 420 7670 376 7617 372C7559 367 7524 374 7524 330C7524 301 7540 292 7557 292L7601 292C7725 292 7746 223 7746 180C7746 133 7717 67 7612 67C7565 67 7535 78 7518 86C7474 107 7478 136 7476 147C7473 166 7458 183 7435 183C7415 183 7393 169 7393 138ZM8062 75C8062 32 8098 0 8137 0C8181 0 8211 37 8211 75C8211 118 8176 149 8137 149C8093 149 8062 113 8062 75ZM8445 301C8445 35 8577 -8 8665 -8C8701 -8 8748 -4 8791 25C8854 68 8879 121 8879 195C8879 258 8864 303 8824 344C8789 381 8747 398 8686 398C8619 398 8568 374 8530 340C8542 502 8653 544 8719 544C8742 544 8764 540 8769 522C8769 521 8770 475 8812 475C8825 475 8854 484 8854 519C8854 559 8827 619 8721 619C8605 619 8445 546 8445 301ZM8537 220C8537 273 8592 323 8668 323C8713 323 8731 312 8743 304C8794 267 8795 224 8795 197C8795 153 8786 128 8760 103C8733 77 8707 67 8664 67C8561 67 8537 171 8537 220ZM8914 38C8914 19 8919 0 8952 0L9058 0C9092 0 9095 22 9095 38C9095 75 9070 75 9057 75L9039 75L9039 232C9039 315 9070 373 9117 373C9152 373 9154 329 9154 291L9154 75C9130 75 9112 67 9113 39C9113 29 9111 0 9151 0L9239 0C9271 0 9279 19 9279 38C9279 74 9251 75 9240 75L9222 75L9222 232C9222 318 9255 373 9300 373C9335 373 9337 329 9337 291L9337 75C9313 75 9295 67 9296 39C9296 29 9294 0 9334 0L9424 0C9435 0 9461 2 9461 37C9461 49 9462 75 9421 75L9404 75L9404 297C9404 329 9403 361 9392 391C9374 437 9338 448 9312 448C9297 448 9245 445 9208 394C9201 408 9182 448 9129 448C9089 448 9061 431 9039 410C9037 441 9014 445 9001 445C8997 445 8993 444 8992 444L8951 444C8921 444 8914 426 8914 410C8914 396 8913 369 8953 369L8971 369L8971 75L8951 75C8916 75 8914 52 8914 38ZM9508 -46C9508 -67 9527 -83 9546 -83C9568 -83 9578 -66 9583 -55L9909 632C9913 639 9916 648 9916 657C9916 675 9900 694 9878 694C9851 694 9841 666 9836 656L9516 -20C9512 -28 9508 -36 9508 -46ZM10047 32C10047 3 10064 -4 10079 -4C10100 -4 10106 5 10119 28C10135 19 10169 -4 10244 -4C10403 -4 10434 79 10434 134C10434 164 10423 189 10406 209C10340 285 10220 269 10158 296C10143 302 10127 314 10127 329C10127 348 10142 375 10236 375C10371 375 10283 305 10358 305L10366 305C10389 305 10405 306 10405 346L10405 415C10405 444 10386 450 10372 450C10356 450 10349 445 10340 433C10313 444 10285 450 10239 450C10077 450 10047 375 10047 324C10047 292 10061 267 10079 250C10151 180 10283 206 10338 160C10344 154 10354 145 10354 130C10354 79 10290 71 10244 71C10143 71 10139 130 10127 151C10119 165 10106 167 10094 167C10062 167 10047 163 10047 129Z" stroke="rgb(0,0,0)" stroke-opacity="1" stroke-width="0" fill="rgb(0,0,0)" fill-opacity="1"></path></g></g><g><text x="533.53125" y="517.5" style="white-space:pre;stroke:none;fill:rgb(0,0,0);fill-opacity:1;font-size:15px;font-family:Arial, Helvetica, sans-serif;font-weight:700;font-style:normal;dominant-baseline:text-before-edge;text-decoration:none solid rgb(0, 0, 0);">  </text></g></g></g><g><g><g><g transform="matrix(1,0,0,1,56,489.5)"><path transform="matrix(0.0075,0,0,-0.0075,0,0)" d="M47 138C47 71 104 -4 203 -4C285 -4 333 30 352 43C368 7 408 0 465 0L488 0C498 0 524 3 524 37C524 93 475 67 431 81L431 277C431 416 327 450 234 450C155 450 83 442 83 380C83 356 102 338 125 338C138 338 151 344 159 355C169 369 159 375 231 375C350 375 347 305 347 275C215 275 47 247 47 138ZM131 138C131 182 217 209 347 211L347 157C347 84 259 71 225 71C174 71 131 100 131 138ZM529 -187C529 -220 553 -222 569 -222L744 -222C768 -222 783 -214 783 -184C783 -148 757 -147 744 -147L698 -147L698 48C728 18 764 -4 817 -4C910 -4 1018 60 1018 223C1018 364 936 448 829 448C772 448 731 425 698 397L698 405C698 424 695 444 657 444L571 444C555 444 529 443 529 409C529 383 536 369 568 369L614 369L614 -147L568 -147C551 -147 529 -148 529 -187ZM698 187L698 278C698 317 748 373 814 373C868 373 934 337 934 222C934 129 882 71 804 71C731 71 698 154 698 187ZM1074 40C1074 24 1074 0 1112 0L1391 0C1405 0 1431 1 1431 36C1431 75 1405 75 1392 75L1279 75L1279 173C1279 307 1362 373 1445 373C1448 373 1452 372 1455 372C1463 348 1482 342 1496 342C1519 342 1537 360 1537 384C1537 410 1518 448 1443 448C1370 448 1312 409 1279 365L1279 402C1279 412 1281 444 1243 444L1113 444C1094 444 1074 439 1074 410C1074 393 1074 369 1112 369L1195 369L1195 75L1112 75C1082 75 1074 57 1074 40ZM1627 222C1627 84 1712 -4 1836 -4C1961 -4 2047 82 2047 222C2047 363 1960 450 1837 450C1714 450 1627 366 1627 222ZM1711 231C1711 336 1778 375 1837 375C1911 375 1963 320 1963 230C1963 128 1908 71 1837 71C1785 71 1711 108 1711 231ZM2127 39C2127 19 2132 0 2165 0L2301 0C2336 0 2338 22 2338 37C2338 67 2323 75 2299 75L2291 75L2359 181L2430 75L2425 75C2406 75 2384 74 2384 37C2384 25 2386 0 2420 0L2557 0C2574 0 2595 4 2595 37C2595 44 2598 76 2557 76C2553 76 2551 75 2550 75L2520 75C2515 75 2510 76 2506 79C2500 84 2398 221 2392 230L2481 351C2490 363 2491 369 2506 369L2543 369C2554 369 2583 370 2582 406C2582 440 2561 444 2543 444L2408 444C2372 444 2371 421 2371 407C2371 388 2373 369 2414 369L2360 289L2302 369L2306 369C2321 369 2344 371 2344 407C2344 437 2327 444 2307 444L2171 444C2133 444 2133 419 2133 404C2133 371 2158 369 2173 369L2222 369L2326 230L2326 229C2316 216 2307 202 2229 95C2217 80 2218 75 2202 75L2166 75C2154 75 2127 75 2127 39ZM2822 565C2822 547 2835 520 2881 520C2929 520 2941 547 2941 565C2941 592 2917 611 2882 611C2834 611 2822 583 2822 565ZM2696 38C2696 2 2722 0 2733 0L3049 0C3082 0 3087 19 3087 38C3088 58 3079 75 3048 75L2941 75L2941 405C2941 422 2939 444 2905 444L2744 444C2704 444 2704 419 2704 404C2704 369 2730 369 2745 369L2858 369L2858 75L2735 75C2710 75 2696 68 2696 38ZM3139 38C3139 19 3144 0 3177 0L3283 0C3317 0 3320 22 3320 38C3320 75 3295 75 3282 75L3264 75L3264 232C3264 315 3295 373 3342 373C3377 373 3379 329 3379 291L3379 75C3355 75 3337 67 3338 39C3338 29 3336 0 3376 0L3464 0C3496 0 3504 19 3504 38C3504 74 3476 75 3465 75L3447 75L3447 232C3447 318 3480 373 3525 373C3560 373 3562 329 3562 291L3562 75C3538 75 3520 67 3521 39C3521 29 3519 0 3559 0L3649 0C3660 0 3686 2 3686 37C3686 49 3687 75 3646 75L3629 75L3629 297C3629 329 3628 361 3617 391C3599 437 3563 448 3537 448C3522 448 3470 445 3433 394C3426 408 3407 448 3354 448C3314 448 3286 431 3264 410C3262 441 3239 445 3226 445C3222 445 3218 444 3217 444L3176 444C3146 444 3139 426 3139 410C3139 396 3138 369 3178 369L3196 369L3196 75L3176 75C3141 75 3139 52 3139 38ZM3722 138C3722 71 3779 -4 3878 -4C3960 -4 4008 30 4027 43C4043 7 4083 0 4140 0L4163 0C4173 0 4199 3 4199 37C4199 93 4150 67 4106 81L4106 277C4106 416 4002 450 3909 450C3830 450 3758 442 3758 380C3758 356 3777 338 3800 338C3813 338 3826 344 3834 355C3844 369 3834 375 3906 375C4025 375 4022 305 4022 275C3890 275 3722 247 3722 138ZM3806 138C3806 182 3892 209 4022 211L4022 157C4022 84 3934 71 3900 71C3849 71 3806 100 3806 138ZM4231 220C4231 86 4311 -4 4422 -4C4480 -4 4521 23 4551 54L4551 37C4551 7 4569 0 4585 0L4683 0C4713 0 4721 20 4720 37C4720 51 4718 75 4680 75L4635 75L4635 566C4635 585 4636 611 4597 611L4501 611C4472 610 4465 590 4466 574C4466 538 4488 535 4504 535L4551 535L4551 401C4523 426 4483 448 4430 448C4346 448 4231 393 4231 220ZM4315 222C4315 315 4367 373 4445 373C4508 373 4551 318 4551 279L4551 191C4552 160 4515 71 4435 71C4381 71 4315 107 4315 222ZM4772 138C4772 71 4829 -4 4928 -4C5010 -4 5058 30 5077 43C5093 7 5133 0 5190 0L5213 0C5223 0 5249 3 5249 37C5249 93 5200 67 5156 81L5156 277C5156 416 5052 450 4959 450C4880 450 4808 442 4808 380C4808 356 4827 338 4850 338C4863 338 4876 344 4884 355C4894 369 4884 375 4956 375C5075 375 5072 305 5072 275C4940 275 4772 247 4772 138ZM4856 138C4856 182 4942 209 5072 211L5072 157C5072 84 4984 71 4950 71C4899 71 4856 100 4856 138ZM5239 38C5239 19 5244 0 5277 0L5383 0C5417 0 5420 22 5420 38C5420 75 5395 75 5382 75L5364 75L5364 232C5364 315 5395 373 5442 373C5477 373 5479 329 5479 291L5479 75C5455 75 5437 67 5438 39C5438 29 5436 0 5476 0L5564 0C5596 0 5604 19 5604 38C5604 74 5576 75 5565 75L5547 75L5547 232C5547 318 5580 373 5625 373C5660 373 5662 329 5662 291L5662 75C5638 75 5620 67 5621 39C5621 29 5619 0 5659 0L5749 0C5760 0 5786 2 5786 37C5786 49 5787 75 5746 75L5729 75L5729 297C5729 329 5728 361 5717 391C5699 437 5663 448 5637 448C5622 448 5570 445 5533 394C5526 408 5507 448 5454 448C5414 448 5386 431 5364 410C5362 441 5339 445 5326 445C5322 445 5318 444 5317 444L5276 444C5246 444 5239 426 5239 410C5239 396 5238 369 5278 369L5296 369L5296 75L5276 75C5241 75 5239 52 5239 38ZM5822 224C5822 87 5917 -4 6058 -4C6183 -4 6238 82 6238 116C6238 146 6211 147 6200 147L6197 147C6159 147 6164 135 6149 111C6127 74 6093 71 6077 71C6015 71 5936 94 5910 183L6200 183C6213 183 6239 185 6239 218C6238 424 6112 450 6044 450C5914 450 5822 361 5822 224ZM5908 252C5917 326 5967 375 6044 375C6104 375 6147 339 6153 252ZM6304 37C6304 17 6310 0 6342 0L6519 0C6543 0 6558 8 6558 38C6558 74 6532 75 6519 75L6473 75L6473 231C6473 342 6546 373 6589 373C6647 373 6652 337 6652 287L6652 75L6624 75C6583 75 6584 50 6584 35C6584 1 6612 0 6623 0L6783 0C6795 0 6820 1 6820 38C6820 73 6795 75 6782 75L6735 75L6735 288C6735 352 6728 448 6605 448C6552 448 6509 427 6473 392L6473 408C6473 441 6449 444 6435 444L6340 444C6311 444 6304 425 6304 409C6304 371 6326 369 6344 369L6389 369L6389 75L6343 75C6328 75 6304 73 6304 37ZM6850 404C6850 387 6858 369 6888 369L6970 369L6970 165C6970 148 6971 132 6973 115C6987 7 7070 -4 7107 -4C7208 -4 7275 75 7275 147C7275 179 7249 182 7231 182C7212 182 7198 178 7192 159C7186 140 7197 129 7167 90C7152 78 7140 71 7121 71C7055 71 7054 122 7054 162L7054 369L7218 369C7244 369 7253 388 7253 406C7253 423 7245 444 7216 444L7054 444L7054 534C7054 570 7030 571 7017 571L7012 571C6995 571 6970 571 6970 534L6970 444L6888 444C6850 444 6850 416 6850 404ZM7397 224C7397 87 7492 -4 7633 -4C7758 -4 7813 82 7813 116C7813 146 7786 147 7775 147L7772 147C7734 147 7739 135 7724 111C7702 74 7668 71 7652 71C7590 71 7511 94 7485 183L7775 183C7788 183 7814 185 7814 218C7813 424 7687 450 7619 450C7489 450 7397 361 7397 224ZM7483 252C7492 326 7542 375 7619 375C7679 375 7722 339 7728 252Z" stroke="rgb(0,0,0)" stroke-opacity="1" stroke-width="0" fill="rgb(0,0,0)" fill-opacity="1"></path></g></g></g><g><g><g transform="matrix(1,0,0,1,56,501.5)"><path transform="matrix(0.0075,0,0,-0.0075,0,0)" d="M27 39C27 19 32 0 65 0L201 0C236 0 238 22 238 37C238 67 223 75 199 75L191 75L259 181L330 75L325 75C306 75 284 74 284 37C284 25 286 0 320 0L457 0C474 0 495 4 495 37C495 44 498 76 457 76C453 76 451 75 450 75L420 75C415 75 410 76 406 79C400 84 298 221 292 230L381 351C390 363 391 369 406 369L443 369C454 369 483 370 482 406C482 440 461 444 443 444L308 444C272 444 271 421 271 407C271 388 273 369 314 369L260 289L202 369L206 369C221 369 244 371 244 407C244 437 227 444 207 444L71 444C33 444 33 419 33 404C33 371 58 369 73 369L122 369L226 230L226 229C216 216 207 202 129 95C117 80 118 75 102 75L66 75C54 75 27 75 27 39ZM712 75C712 32 748 0 787 0C831 0 861 37 861 75C861 118 826 149 787 149C743 149 712 113 712 75ZM712 370C712 327 748 295 787 295C831 295 861 332 861 370C861 413 826 444 787 444C743 444 712 408 712 370ZM1137 219C1137 204 1143 186 1172 185L1451 185C1488 186 1487 213 1487 223C1487 243 1479 260 1449 260L1176 260C1136 260 1137 232 1137 219ZM1620 301C1620 35 1752 -8 1840 -8C1876 -8 1923 -4 1966 25C2029 68 2054 121 2054 195C2054 258 2039 303 1999 344C1964 381 1922 398 1861 398C1794 398 1743 374 1705 340C1717 502 1828 544 1894 544C1917 544 1939 540 1944 522C1944 521 1945 475 1987 475C2000 475 2029 484 2029 519C2029 559 2002 619 1896 619C1780 619 1620 546 1620 301ZM1712 220C1712 273 1767 323 1843 323C1888 323 1906 312 1918 304C1969 267 1970 224 1970 197C1970 153 1961 128 1935 103C1908 77 1882 67 1839 67C1736 67 1712 171 1712 220ZM2287 75C2287 32 2323 0 2362 0C2406 0 2436 37 2436 75C2436 118 2401 149 2362 149C2318 149 2287 113 2287 75ZM2677 137C2677 55 2760 -8 2870 -8C3004 -8 3097 71 3097 189C3097 300 3024 386 2899 386C2871 386 2828 381 2789 360L2789 535L3025 535C3060 535 3062 561 3062 574C3062 608 3041 611 3022 611L2744 611C2731 611 2704 610 2705 572L2705 294C2705 274 2704 248 2744 248C2764 248 2768 248 2784 267C2798 283 2830 310 2898 310C2989 310 3013 239 3013 190C3013 108 2949 67 2870 67C2814 67 2772 92 2763 125C2761 134 2763 181 2719 181C2696 181 2677 163 2677 137ZM3139 38C3139 19 3144 0 3177 0L3283 0C3317 0 3320 22 3320 38C3320 75 3295 75 3282 75L3264 75L3264 232C3264 315 3295 373 3342 373C3377 373 3379 329 3379 291L3379 75C3355 75 3337 67 3338 39C3338 29 3336 0 3376 0L3464 0C3496 0 3504 19 3504 38C3504 74 3476 75 3465 75L3447 75L3447 232C3447 318 3480 373 3525 373C3560 373 3562 329 3562 291L3562 75C3538 75 3520 67 3521 39C3521 29 3519 0 3559 0L3649 0C3660 0 3686 2 3686 37C3686 49 3687 75 3646 75L3629 75L3629 297C3629 329 3628 361 3617 391C3599 437 3563 448 3537 448C3522 448 3470 445 3433 394C3426 408 3407 448 3354 448C3314 448 3286 431 3264 410C3262 441 3239 445 3226 445C3222 445 3218 444 3217 444L3176 444C3146 444 3139 426 3139 410C3139 396 3138 369 3178 369L3196 369L3196 75L3176 75C3141 75 3139 52 3139 38ZM3733 -46C3733 -67 3752 -83 3771 -83C3793 -83 3803 -66 3808 -55L4134 632C4138 639 4141 648 4141 657C4141 675 4125 694 4103 694C4076 694 4066 666 4061 656L3741 -20C3737 -28 3733 -36 3733 -46ZM4272 32C4272 3 4289 -4 4304 -4C4325 -4 4331 5 4344 28C4360 19 4394 -4 4469 -4C4628 -4 4659 79 4659 134C4659 164 4648 189 4631 209C4565 285 4445 269 4383 296C4368 302 4352 314 4352 329C4352 348 4367 375 4461 375C4596 375 4508 305 4583 305L4591 305C4614 305 4630 306 4630 346L4630 415C4630 444 4611 450 4597 450C4581 450 4574 445 4565 433C4538 444 4510 450 4464 450C4302 450 4272 375 4272 324C4272 292 4286 267 4304 250C4376 180 4508 206 4563 160C4569 154 4579 145 4579 130C4579 79 4515 71 4469 71C4368 71 4364 130 4352 151C4344 165 4331 167 4319 167C4287 167 4272 163 4272 129ZM5425 -97C5425 -116 5449 -138 5465 -138C5500 -138 5607 -77 5607 39C5607 108 5560 149 5512 149C5466 149 5437 116 5437 75C5437 38 5461 0 5515 0C5518 0 5522 1 5525 1C5491 -83 5425 -54 5425 -97ZM5801 406C5801 369 5826 369 5841 369L5876 369C5880 357 5886 345 5890 333L6009 15C6012 7 6013 3 6013 -1C6013 -6 6012 -10 6009 -18C5993 -68 5979 -148 5899 -151C5900 -148 5900 -144 5900 -141C5900 -120 5879 -105 5859 -105C5844 -105 5817 -114 5817 -148C5817 -179 5843 -226 5901 -226C6003 -226 6048 -118 6068 -55L6186 318C6191 335 6197 352 6202 369L6239 369C6249 369 6276 372 6276 406C6276 442 6253 444 6238 444L6106 444C6086 444 6066 441 6066 407C6066 371 6089 369 6106 369L6132 369C6111 299 6051 117 6048 70L6044 91L6031 136L6013 192L5949 369L5971 369C5987 369 6011 370 6011 406C6011 444 5985 444 5971 444L5839 444C5820 444 5801 439 5801 406ZM6487 75C6487 32 6523 0 6562 0C6606 0 6636 37 6636 75C6636 118 6601 149 6562 149C6518 149 6487 113 6487 75ZM6487 370C6487 327 6523 295 6562 295C6606 295 6636 332 6636 370C6636 413 6601 444 6562 444C6518 444 6487 408 6487 370ZM6912 219C6912 204 6918 186 6947 185L7226 185C7263 186 7262 213 7262 223C7262 243 7254 260 7224 260L6951 260C6911 260 6912 232 6912 219ZM7393 138C7393 50 7487 -8 7612 -8C7755 -8 7830 79 7830 179C7830 225 7810 296 7722 331C7794 381 7801 449 7801 474C7801 553 7737 619 7613 619C7464 619 7423 551 7423 505C7423 479 7436 458 7464 458C7506 458 7506 503 7508 508C7519 541 7589 544 7613 544C7698 544 7717 502 7717 474C7717 420 7670 376 7617 372C7559 367 7524 374 7524 330C7524 301 7540 292 7557 292L7601 292C7725 292 7746 223 7746 180C7746 133 7717 67 7612 67C7565 67 7535 78 7518 86C7474 107 7478 136 7476 147C7473 166 7458 183 7435 183C7415 183 7393 169 7393 138ZM8062 75C8062 32 8098 0 8137 0C8181 0 8211 37 8211 75C8211 118 8176 149 8137 149C8093 149 8062 113 8062 75ZM8445 416C8445 381 8446 301 8528 243C8541 234 8571 212 8637 212C8705 212 8756 237 8794 271C8779 107 8685 67 8616 67C8565 67 8557 81 8555 89C8555 90 8553 136 8511 136C8498 136 8470 127 8470 92C8470 52 8495 -8 8615 -8C8726 -8 8879 62 8879 310C8879 577 8751 619 8665 619C8585 619 8548 595 8532 584C8469 541 8445 488 8445 416ZM8529 414L8529 422C8529 481 8567 544 8664 544C8762 544 8787 441 8787 391C8787 340 8736 288 8653 288C8618 288 8591 295 8565 320C8539 345 8529 372 8529 414ZM8977 137C8977 55 9060 -8 9170 -8C9304 -8 9397 71 9397 189C9397 300 9324 386 9199 386C9171 386 9128 381 9089 360L9089 535L9325 535C9360 535 9362 561 9362 574C9362 608 9341 611 9322 611L9044 611C9031 611 9004 610 9005 572L9005 294C9005 274 9004 248 9044 248C9064 248 9068 248 9084 267C9098 283 9130 310 9198 310C9289 310 9313 239 9313 190C9313 108 9249 67 9170 67C9114 67 9072 92 9063 125C9061 134 9063 181 9019 181C8996 181 8977 163 8977 137ZM9439 38C9439 19 9444 0 9477 0L9583 0C9617 0 9620 22 9620 38C9620 75 9595 75 9582 75L9564 75L9564 232C9564 315 9595 373 9642 373C9677 373 9679 329 9679 291L9679 75C9655 75 9637 67 9638 39C9638 29 9636 0 9676 0L9764 0C9796 0 9804 19 9804 38C9804 74 9776 75 9765 75L9747 75L9747 232C9747 318 9780 373 9825 373C9860 373 9862 329 9862 291L9862 75C9838 75 9820 67 9821 39C9821 29 9819 0 9859 0L9949 0C9960 0 9986 2 9986 37C9986 49 9987 75 9946 75L9929 75L9929 297C9929 329 9928 361 9917 391C9899 437 9863 448 9837 448C9822 448 9770 445 9733 394C9726 408 9707 448 9654 448C9614 448 9586 431 9564 410C9562 441 9539 445 9526 445C9522 445 9518 444 9517 444L9476 444C9446 444 9439 426 9439 410C9439 396 9438 369 9478 369L9496 369L9496 75L9476 75C9441 75 9439 52 9439 38ZM10033 -46C10033 -67 10052 -83 10071 -83C10093 -83 10103 -66 10108 -55L10434 632C10438 639 10441 648 10441 657C10441 675 10425 694 10403 694C10376 694 10366 666 10361 656L10041 -20C10037 -28 10033 -36 10033 -46ZM10572 32C10572 3 10589 -4 10604 -4C10625 -4 10631 5 10644 28C10660 19 10694 -4 10769 -4C10928 -4 10959 79 10959 134C10959 164 10948 189 10931 209C10865 285 10745 269 10683 296C10668 302 10652 314 10652 329C10652 348 10667 375 10761 375C10896 375 10808 305 10883 305L10891 305C10914 305 10930 306 10930 346L10930 415C10930 444 10911 450 10897 450C10881 450 10874 445 10865 433C10838 444 10810 450 10764 450C10602 450 10572 375 10572 324C10572 292 10586 267 10604 250C10676 180 10808 206 10863 160C10869 154 10879 145 10879 130C10879 79 10815 71 10769 71C10668 71 10664 130 10652 151C10644 165 10631 167 10619 167C10587 167 10572 163 10572 129Z" stroke="rgb(0,0,0)" stroke-opacity="1" stroke-width="0" fill="rgb(0,0,0)" fill-opacity="1"></path></g></g><g><text x="138.6875" y="488" style="white-space:pre;stroke:none;fill:rgb(0,0,0);fill-opacity:1;font-size:15px;font-family:Arial, Helvetica, sans-serif;font-weight:700;font-style:normal;dominant-baseline:text-before-edge;text-decoration:none solid rgb(0, 0, 0);">  </text></g></g></g><g><g><g><g transform="matrix(1,0,0,1,353.953125,153)"><path transform="matrix(0.0075,0,0,-0.0075,0,0)" d="M47 138C47 71 104 -4 203 -4C285 -4 333 30 352 43C368 7 408 0 465 0L488 0C498 0 524 3 524 37C524 93 475 67 431 81L431 277C431 416 327 450 234 450C155 450 83 442 83 380C83 356 102 338 125 338C138 338 151 344 159 355C169 369 159 375 231 375C350 375 347 305 347 275C215 275 47 247 47 138ZM131 138C131 182 217 209 347 211L347 157C347 84 259 71 225 71C174 71 131 100 131 138ZM529 -187C529 -220 553 -222 569 -222L744 -222C768 -222 783 -214 783 -184C783 -148 757 -147 744 -147L698 -147L698 48C728 18 764 -4 817 -4C910 -4 1018 60 1018 223C1018 364 936 448 829 448C772 448 731 425 698 397L698 405C698 424 695 444 657 444L571 444C555 444 529 443 529 409C529 383 536 369 568 369L614 369L614 -147L568 -147C551 -147 529 -148 529 -187ZM698 187L698 278C698 317 748 373 814 373C868 373 934 337 934 222C934 129 882 71 804 71C731 71 698 154 698 187ZM1074 40C1074 24 1074 0 1112 0L1391 0C1405 0 1431 1 1431 36C1431 75 1405 75 1392 75L1279 75L1279 173C1279 307 1362 373 1445 373C1448 373 1452 372 1455 372C1463 348 1482 342 1496 342C1519 342 1537 360 1537 384C1537 410 1518 448 1443 448C1370 448 1312 409 1279 365L1279 402C1279 412 1281 444 1243 444L1113 444C1094 444 1074 439 1074 410C1074 393 1074 369 1112 369L1195 369L1195 75L1112 75C1082 75 1074 57 1074 40ZM1627 222C1627 84 1712 -4 1836 -4C1961 -4 2047 82 2047 222C2047 363 1960 450 1837 450C1714 450 1627 366 1627 222ZM1711 231C1711 336 1778 375 1837 375C1911 375 1963 320 1963 230C1963 128 1908 71 1837 71C1785 71 1711 108 1711 231ZM2127 39C2127 19 2132 0 2165 0L2301 0C2336 0 2338 22 2338 37C2338 67 2323 75 2299 75L2291 75L2359 181L2430 75L2425 75C2406 75 2384 74 2384 37C2384 25 2386 0 2420 0L2557 0C2574 0 2595 4 2595 37C2595 44 2598 76 2557 76C2553 76 2551 75 2550 75L2520 75C2515 75 2510 76 2506 79C2500 84 2398 221 2392 230L2481 351C2490 363 2491 369 2506 369L2543 369C2554 369 2583 370 2582 406C2582 440 2561 444 2543 444L2408 444C2372 444 2371 421 2371 407C2371 388 2373 369 2414 369L2360 289L2302 369L2306 369C2321 369 2344 371 2344 407C2344 437 2327 444 2307 444L2171 444C2133 444 2133 419 2133 404C2133 371 2158 369 2173 369L2222 369L2326 230L2326 229C2316 216 2307 202 2229 95C2217 80 2218 75 2202 75L2166 75C2154 75 2127 75 2127 39ZM2822 565C2822 547 2835 520 2881 520C2929 520 2941 547 2941 565C2941 592 2917 611 2882 611C2834 611 2822 583 2822 565ZM2696 38C2696 2 2722 0 2733 0L3049 0C3082 0 3087 19 3087 38C3088 58 3079 75 3048 75L2941 75L2941 405C2941 422 2939 444 2905 444L2744 444C2704 444 2704 419 2704 404C2704 369 2730 369 2745 369L2858 369L2858 75L2735 75C2710 75 2696 68 2696 38ZM3139 38C3139 19 3144 0 3177 0L3283 0C3317 0 3320 22 3320 38C3320 75 3295 75 3282 75L3264 75L3264 232C3264 315 3295 373 3342 373C3377 373 3379 329 3379 291L3379 75C3355 75 3337 67 3338 39C3338 29 3336 0 3376 0L3464 0C3496 0 3504 19 3504 38C3504 74 3476 75 3465 75L3447 75L3447 232C3447 318 3480 373 3525 373C3560 373 3562 329 3562 291L3562 75C3538 75 3520 67 3521 39C3521 29 3519 0 3559 0L3649 0C3660 0 3686 2 3686 37C3686 49 3687 75 3646 75L3629 75L3629 297C3629 329 3628 361 3617 391C3599 437 3563 448 3537 448C3522 448 3470 445 3433 394C3426 408 3407 448 3354 448C3314 448 3286 431 3264 410C3262 441 3239 445 3226 445C3222 445 3218 444 3217 444L3176 444C3146 444 3139 426 3139 410C3139 396 3138 369 3178 369L3196 369L3196 75L3176 75C3141 75 3139 52 3139 38ZM3722 138C3722 71 3779 -4 3878 -4C3960 -4 4008 30 4027 43C4043 7 4083 0 4140 0L4163 0C4173 0 4199 3 4199 37C4199 93 4150 67 4106 81L4106 277C4106 416 4002 450 3909 450C3830 450 3758 442 3758 380C3758 356 3777 338 3800 338C3813 338 3826 344 3834 355C3844 369 3834 375 3906 375C4025 375 4022 305 4022 275C3890 275 3722 247 3722 138ZM3806 138C3806 182 3892 209 4022 211L4022 157C4022 84 3934 71 3900 71C3849 71 3806 100 3806 138ZM4231 220C4231 86 4311 -4 4422 -4C4480 -4 4521 23 4551 54L4551 37C4551 7 4569 0 4585 0L4683 0C4713 0 4721 20 4720 37C4720 51 4718 75 4680 75L4635 75L4635 566C4635 585 4636 611 4597 611L4501 611C4472 610 4465 590 4466 574C4466 538 4488 535 4504 535L4551 535L4551 401C4523 426 4483 448 4430 448C4346 448 4231 393 4231 220ZM4315 222C4315 315 4367 373 4445 373C4508 373 4551 318 4551 279L4551 191C4552 160 4515 71 4435 71C4381 71 4315 107 4315 222ZM4772 138C4772 71 4829 -4 4928 -4C5010 -4 5058 30 5077 43C5093 7 5133 0 5190 0L5213 0C5223 0 5249 3 5249 37C5249 93 5200 67 5156 81L5156 277C5156 416 5052 450 4959 450C4880 450 4808 442 4808 380C4808 356 4827 338 4850 338C4863 338 4876 344 4884 355C4894 369 4884 375 4956 375C5075 375 5072 305 5072 275C4940 275 4772 247 4772 138ZM4856 138C4856 182 4942 209 5072 211L5072 157C5072 84 4984 71 4950 71C4899 71 4856 100 4856 138ZM5239 38C5239 19 5244 0 5277 0L5383 0C5417 0 5420 22 5420 38C5420 75 5395 75 5382 75L5364 75L5364 232C5364 315 5395 373 5442 373C5477 373 5479 329 5479 291L5479 75C5455 75 5437 67 5438 39C5438 29 5436 0 5476 0L5564 0C5596 0 5604 19 5604 38C5604 74 5576 75 5565 75L5547 75L5547 232C5547 318 5580 373 5625 373C5660 373 5662 329 5662 291L5662 75C5638 75 5620 67 5621 39C5621 29 5619 0 5659 0L5749 0C5760 0 5786 2 5786 37C5786 49 5787 75 5746 75L5729 75L5729 297C5729 329 5728 361 5717 391C5699 437 5663 448 5637 448C5622 448 5570 445 5533 394C5526 408 5507 448 5454 448C5414 448 5386 431 5364 410C5362 441 5339 445 5326 445C5322 445 5318 444 5317 444L5276 444C5246 444 5239 426 5239 410C5239 396 5238 369 5278 369L5296 369L5296 75L5276 75C5241 75 5239 52 5239 38ZM5822 224C5822 87 5917 -4 6058 -4C6183 -4 6238 82 6238 116C6238 146 6211 147 6200 147L6197 147C6159 147 6164 135 6149 111C6127 74 6093 71 6077 71C6015 71 5936 94 5910 183L6200 183C6213 183 6239 185 6239 218C6238 424 6112 450 6044 450C5914 450 5822 361 5822 224ZM5908 252C5917 326 5967 375 6044 375C6104 375 6147 339 6153 252ZM6304 37C6304 17 6310 0 6342 0L6519 0C6543 0 6558 8 6558 38C6558 74 6532 75 6519 75L6473 75L6473 231C6473 342 6546 373 6589 373C6647 373 6652 337 6652 287L6652 75L6624 75C6583 75 6584 50 6584 35C6584 1 6612 0 6623 0L6783 0C6795 0 6820 1 6820 38C6820 73 6795 75 6782 75L6735 75L6735 288C6735 352 6728 448 6605 448C6552 448 6509 427 6473 392L6473 408C6473 441 6449 444 6435 444L6340 444C6311 444 6304 425 6304 409C6304 371 6326 369 6344 369L6389 369L6389 75L6343 75C6328 75 6304 73 6304 37ZM6850 404C6850 387 6858 369 6888 369L6970 369L6970 165C6970 148 6971 132 6973 115C6987 7 7070 -4 7107 -4C7208 -4 7275 75 7275 147C7275 179 7249 182 7231 182C7212 182 7198 178 7192 159C7186 140 7197 129 7167 90C7152 78 7140 71 7121 71C7055 71 7054 122 7054 162L7054 369L7218 369C7244 369 7253 388 7253 406C7253 423 7245 444 7216 444L7054 444L7054 534C7054 570 7030 571 7017 571L7012 571C6995 571 6970 571 6970 534L6970 444L6888 444C6850 444 6850 416 6850 404ZM7397 224C7397 87 7492 -4 7633 -4C7758 -4 7813 82 7813 116C7813 146 7786 147 7775 147L7772 147C7734 147 7739 135 7724 111C7702 74 7668 71 7652 71C7590 71 7511 94 7485 183L7775 183C7788 183 7814 185 7814 218C7813 424 7687 450 7619 450C7489 450 7397 361 7397 224ZM7483 252C7492 326 7542 375 7619 375C7679 375 7722 339 7728 252Z" stroke="rgb(0,0,0)" stroke-opacity="1" stroke-width="0" fill="rgb(0,0,0)" fill-opacity="1"></path></g></g></g><g><g><g transform="matrix(1,0,0,1,353.953125,165)"><path transform="matrix(0.0075,0,0,-0.0075,0,0)" d="M27 39C27 19 32 0 65 0L201 0C236 0 238 22 238 37C238 67 223 75 199 75L191 75L259 181L330 75L325 75C306 75 284 74 284 37C284 25 286 0 320 0L457 0C474 0 495 4 495 37C495 44 498 76 457 76C453 76 451 75 450 75L420 75C415 75 410 76 406 79C400 84 298 221 292 230L381 351C390 363 391 369 406 369L443 369C454 369 483 370 482 406C482 440 461 444 443 444L308 444C272 444 271 421 271 407C271 388 273 369 314 369L260 289L202 369L206 369C221 369 244 371 244 407C244 437 227 444 207 444L71 444C33 444 33 419 33 404C33 371 58 369 73 369L122 369L226 230L226 229C216 216 207 202 129 95C117 80 118 75 102 75L66 75C54 75 27 75 27 39ZM712 75C712 32 748 0 787 0C831 0 861 37 861 75C861 118 826 149 787 149C743 149 712 113 712 75ZM712 370C712 327 748 295 787 295C831 295 861 332 861 370C861 413 826 444 787 444C743 444 712 408 712 370ZM1092 306C1092 59 1224 -8 1312 -8C1400 -8 1532 60 1532 306C1532 547 1404 619 1312 619C1221 619 1092 548 1092 306ZM1176 315C1176 496 1257 544 1311 544C1363 544 1448 500 1448 315C1448 121 1366 67 1312 67C1257 67 1176 120 1176 315ZM1564 38C1564 19 1569 0 1602 0L1708 0C1742 0 1745 22 1745 38C1745 75 1720 75 1707 75L1689 75L1689 232C1689 315 1720 373 1767 373C1802 373 1804 329 1804 291L1804 75C1780 75 1762 67 1763 39C1763 29 1761 0 1801 0L1889 0C1921 0 1929 19 1929 38C1929 74 1901 75 1890 75L1872 75L1872 232C1872 318 1905 373 1950 373C1985 373 1987 329 1987 291L1987 75C1963 75 1945 67 1946 39C1946 29 1944 0 1984 0L2074 0C2085 0 2111 2 2111 37C2111 49 2112 75 2071 75L2054 75L2054 297C2054 329 2053 361 2042 391C2024 437 1988 448 1962 448C1947 448 1895 445 1858 394C1851 408 1832 448 1779 448C1739 448 1711 431 1689 410C1687 441 1664 445 1651 445C1647 445 1643 444 1642 444L1601 444C1571 444 1564 426 1564 410C1564 396 1563 369 1603 369L1621 369L1621 75L1601 75C1566 75 1564 52 1564 38ZM2158 -46C2158 -67 2177 -83 2196 -83C2218 -83 2228 -66 2233 -55L2559 632C2563 639 2566 648 2566 657C2566 675 2550 694 2528 694C2501 694 2491 666 2486 656L2166 -20C2162 -28 2158 -36 2158 -46ZM2697 32C2697 3 2714 -4 2729 -4C2750 -4 2756 5 2769 28C2785 19 2819 -4 2894 -4C3053 -4 3084 79 3084 134C3084 164 3073 189 3056 209C2990 285 2870 269 2808 296C2793 302 2777 314 2777 329C2777 348 2792 375 2886 375C3021 375 2933 305 3008 305L3016 305C3039 305 3055 306 3055 346L3055 415C3055 444 3036 450 3022 450C3006 450 2999 445 2990 433C2963 444 2935 450 2889 450C2727 450 2697 375 2697 324C2697 292 2711 267 2729 250C2801 180 2933 206 2988 160C2994 154 3004 145 3004 130C3004 79 2940 71 2894 71C2793 71 2789 130 2777 151C2769 165 2756 167 2744 167C2712 167 2697 163 2697 129ZM3850 -97C3850 -116 3874 -138 3890 -138C3925 -138 4032 -77 4032 39C4032 108 3985 149 3937 149C3891 149 3862 116 3862 75C3862 38 3886 0 3940 0C3943 0 3947 1 3950 1C3916 -83 3850 -54 3850 -97ZM4751 406C4751 369 4776 369 4791 369L4826 369C4830 357 4836 345 4840 333L4959 15C4962 7 4963 3 4963 -1C4963 -6 4962 -10 4959 -18C4943 -68 4929 -148 4849 -151C4850 -148 4850 -144 4850 -141C4850 -120 4829 -105 4809 -105C4794 -105 4767 -114 4767 -148C4767 -179 4793 -226 4851 -226C4953 -226 4998 -118 5018 -55L5136 318C5141 335 5147 352 5152 369L5189 369C5199 369 5226 372 5226 406C5226 442 5203 444 5188 444L5056 444C5036 444 5016 441 5016 407C5016 371 5039 369 5056 369L5082 369C5061 299 5001 117 4998 70L4994 91L4981 136L4963 192L4899 369L4921 369C4937 369 4961 370 4961 406C4961 444 4935 444 4921 444L4789 444C4770 444 4751 439 4751 406ZM5437 75C5437 32 5473 0 5512 0C5556 0 5586 37 5586 75C5586 118 5551 149 5512 149C5468 149 5437 113 5437 75ZM5437 370C5437 327 5473 295 5512 295C5556 295 5586 332 5586 370C5586 413 5551 444 5512 444C5468 444 5437 408 5437 370ZM5827 137C5827 55 5910 -8 6020 -8C6154 -8 6247 71 6247 189C6247 300 6174 386 6049 386C6021 386 5978 381 5939 360L5939 535L6175 535C6210 535 6212 561 6212 574C6212 608 6191 611 6172 611L5894 611C5881 611 5854 610 5855 572L5855 294C5855 274 5854 248 5894 248C5914 248 5918 248 5934 267C5948 283 5980 310 6048 310C6139 310 6163 239 6163 190C6163 108 6099 67 6020 67C5964 67 5922 92 5913 125C5911 134 5913 181 5869 181C5846 181 5827 163 5827 137ZM6289 38C6289 19 6294 0 6327 0L6433 0C6467 0 6470 22 6470 38C6470 75 6445 75 6432 75L6414 75L6414 232C6414 315 6445 373 6492 373C6527 373 6529 329 6529 291L6529 75C6505 75 6487 67 6488 39C6488 29 6486 0 6526 0L6614 0C6646 0 6654 19 6654 38C6654 74 6626 75 6615 75L6597 75L6597 232C6597 318 6630 373 6675 373C6710 373 6712 329 6712 291L6712 75C6688 75 6670 67 6671 39C6671 29 6669 0 6709 0L6799 0C6810 0 6836 2 6836 37C6836 49 6837 75 6796 75L6779 75L6779 297C6779 329 6778 361 6767 391C6749 437 6713 448 6687 448C6672 448 6620 445 6583 394C6576 408 6557 448 6504 448C6464 448 6436 431 6414 410C6412 441 6389 445 6376 445C6372 445 6368 444 6367 444L6326 444C6296 444 6289 426 6289 410C6289 396 6288 369 6328 369L6346 369L6346 75L6326 75C6291 75 6289 52 6289 38ZM6883 -46C6883 -67 6902 -83 6921 -83C6943 -83 6953 -66 6958 -55L7284 632C7288 639 7291 648 7291 657C7291 675 7275 694 7253 694C7226 694 7216 666 7211 656L6891 -20C6887 -28 6883 -36 6883 -46ZM7422 32C7422 3 7439 -4 7454 -4C7475 -4 7481 5 7494 28C7510 19 7544 -4 7619 -4C7778 -4 7809 79 7809 134C7809 164 7798 189 7781 209C7715 285 7595 269 7533 296C7518 302 7502 314 7502 329C7502 348 7517 375 7611 375C7746 375 7658 305 7733 305L7741 305C7764 305 7780 306 7780 346L7780 415C7780 444 7761 450 7747 450C7731 450 7724 445 7715 433C7688 444 7660 450 7614 450C7452 450 7422 375 7422 324C7422 292 7436 267 7454 250C7526 180 7658 206 7713 160C7719 154 7729 145 7729 130C7729 79 7665 71 7619 71C7518 71 7514 130 7502 151C7494 165 7481 167 7469 167C7437 167 7422 163 7422 129Z" stroke="rgb(0,0,0)" stroke-opacity="1" stroke-width="0" fill="rgb(0,0,0)" fill-opacity="1"></path></g></g><g><text x="413.015625" y="151.5" style="white-space:pre;stroke:none;fill:rgb(0,0,0);fill-opacity:1;font-size:15px;font-family:Arial, Helvetica, sans-serif;font-weight:700;font-style:normal;dominant-baseline:text-before-edge;text-decoration:none solid rgb(0, 0, 0);"> </text></g><g><text x="417.1875" y="151.5" style="white-space:pre;stroke:none;fill:rgb(0,0,0);fill-opacity:1;font-size:15px;font-family:Arial, Helvetica, sans-serif;font-weight:400;font-style:normal;dominant-baseline:text-before-edge;text-decoration:none solid rgb(0, 0, 0);"> </text></g></g></g></svg>
</svg>
