<svg xmlns="http://www.w3.org/2000/svg" xmlns:xlink="http://www.w3.org/1999/xlink" xmlns:lucid="lucid" width="627.48" height="1137.57"><g transform="translate(7.475000000000001 7.105427357601002e-15)" lucid:page-tab-id="0_0"><path d="M180 40c0 11.05-8.95 20-20 20s-20-8.95-20-20 8.95-20 20-20 20 8.95 20 20z" stroke="#000" stroke-width="2"/><path d="M180 60h160v53.2H180z" stroke="#000" stroke-opacity="0" stroke-width="2" fill="#fff" fill-opacity="0"/><use xlink:href="#a" transform="matrix(1,0,0,1,185,65) translate(17.859567901234584 16.344444444444445)"/><use xlink:href="#b" transform="matrix(1,0,0,1,185,65) translate(73.43734567901235 16.344444444444445)"/><use xlink:href="#c" transform="matrix(1,0,0,1,185,65) translate(84.73364197530864 16.344444444444445)"/><use xlink:href="#d" transform="matrix(1,0,0,1,185,65) translate(117.0787037037037 16.344444444444445)"/><use xlink:href="#e" transform="matrix(1,0,0,1,185,65) translate(58.827469135802474 32.611111111111114)"/><path d="M115.67 220H215l-10.67 40H105z" stroke="#000" stroke-width="2" fill="#fff"/><use xlink:href="#f" transform="matrix(1,0,0,1,110.00000000000003,225) translate(19.178765432098764 10.844444444444445)"/><use xlink:href="#d" transform="matrix(1,0,0,1,110.00000000000003,225) translate(68.7695061728395 10.844444444444445)"/><use xlink:href="#e" transform="matrix(1,0,0,1,110.00000000000003,225) translate(31.32746913580247 27.11111111111111)"/><g filter="url(#g)"><path d="M125.35 102c0-1.1.9-2 2-2h65.3c1.1 0 2 .9 2 2v84.05c0 1.1-.9 2-2 2h-65.3c-1.1 0-2-.9-2-2z" fill="#fff"/><path d="M171.82 121.57v-5.74c0-.45-.24-.83-.7-1.15-.46-.33-1.02-.48-1.67-.48H141.1c-.65 0-1.2.15-1.67.48-.46.32-.7.7-.7 1.15v16.38c0 .47.24.85.7 1.17.46.32 1.02.48 1.67.48h28.35c.65 0 1.2-.16 1.67-.48.46-.32.7-.7.7-1.16v-5.72l9.45 6.55v-18z" fill="#757575"/><use xlink:href="#h" transform="matrix(1,0,0,1,125.34513274336285,141.04665969829063) translate(14.11679443359375 28.05751953125)"/></g><path d="M88 291.95h144l48 48.2-48 48.2H88l-48-48.2z" stroke="#000" stroke-width="2" fill="#fff"/><use xlink:href="#i" transform="matrix(1,0,0,1,45.00000000000003,296.9533403017094) translate(32.22197530864197 29.875694444444445)"/><use xlink:href="#j" transform="matrix(1,0,0,1,45.00000000000003,296.9533403017094) translate(90.8874074074074 29.875694444444445)"/><use xlink:href="#k" transform="matrix(1,0,0,1,45.00000000000003,296.9533403017094) translate(108.96148148148147 29.875694444444445)"/><use xlink:href="#l" transform="matrix(1,0,0,1,45.00000000000003,296.9533403017094) translate(149.62814814814814 29.875694444444445)"/><use xlink:href="#m" transform="matrix(1,0,0,1,45.00000000000003,296.9533403017094) translate(168.4553086419753 29.875694444444445)"/><use xlink:href="#n" transform="matrix(1,0,0,1,45.00000000000003,296.9533403017094) translate(8.989259259259265 46.142361111111114)"/><use xlink:href="#o" transform="matrix(1,0,0,1,45.00000000000003,296.9533403017094) translate(39.82814814814815 46.142361111111114)"/><use xlink:href="#p" transform="matrix(1,0,0,1,45.00000000000003,296.9533403017094) translate(72.9262962962963 46.142361111111114)"/><use xlink:href="#q" transform="matrix(1,0,0,1,45.00000000000003,296.9533403017094) translate(84.22259259259259 46.142361111111114)"/><use xlink:href="#r" transform="matrix(1,0,0,1,45.00000000000003,296.9533403017094) translate(161.63987654320988 46.142361111111114)"/><use xlink:href="#s" transform="matrix(1,0,0,1,45.00000000000003,296.9533403017094) translate(172.93617283950618 46.142361111111114)"/><use xlink:href="#n" transform="matrix(1,0,0,1,45.00000000000003,296.9533403017094) translate(48.8087037037037 62.40902777777778)"/><use xlink:href="#t" transform="matrix(1,0,0,1,45.00000000000003,296.9533403017094) translate(79.64759259259259 62.40902777777778)"/><use xlink:href="#l" transform="matrix(1,0,0,1,45.00000000000003,296.9533403017094) translate(120.31425925925925 62.40902777777778)"/><use xlink:href="#u" transform="matrix(1,0,0,1,45.00000000000003,296.9533403017094) translate(139.1414197530864 62.40902777777778)"/><path d="M90 416.3h140v96.4H90z" stroke="#000" stroke-width="2" fill="#fff"/><use xlink:href="#v" transform="matrix(1,0,0,1,95.00000000000003,421.2883350754274) translate(11.587345679012351 29.875694444444445)"/><use xlink:href="#w" transform="matrix(1,0,0,1,95.00000000000003,421.2883350754274) translate(62.72191358024691 29.875694444444445)"/><use xlink:href="#x" transform="matrix(1,0,0,1,95.00000000000003,421.2883350754274) translate(92.80771604938272 29.875694444444445)"/><use xlink:href="#y" transform="matrix(1,0,0,1,95.00000000000003,421.2883350754274) translate(2.5503086419753203 46.142361111111114)"/><use xlink:href="#z" transform="matrix(1,0,0,1,95.00000000000003,421.2883350754274) translate(55.2287037037037 46.142361111111114)"/><use xlink:href="#A" transform="matrix(1,0,0,1,95.00000000000003,421.2883350754274) translate(74.05586419753085 46.142361111111114)"/><use xlink:href="#d" transform="matrix(1,0,0,1,95.00000000000003,421.2883350754274) translate(112.38796296296294 46.142361111111114)"/><use xlink:href="#B" transform="matrix(1,0,0,1,95.00000000000003,421.2883350754274) translate(40.95771604938272 62.40902777777778)"/><path d="M157.5 540.62l67.5 50-67.5 50-67.5-50z" stroke="#000" stroke-width="2" fill="#fff"/><use xlink:href="#C" transform="matrix(1,0,0,1,95,545.6233298491454) translate(28.258395061728397 38.96944444444445)"/><use xlink:href="#D" transform="matrix(1,0,0,1,95,545.6233298491454) translate(70.43123456790124 38.96944444444445)"/><use xlink:href="#E" transform="matrix(1,0,0,1,95,545.6233298491454) translate(45.9370987654321 55.236111111111114)"/><path d="M520 691.2c0 6.63-31.34 12-70 12s-70-5.37-70-12v-96c0-6.63 31.34-12 70-12s70 5.37 70 12z" stroke="#000" stroke-width="2" fill="#fff"/><path d="M520 595.2c0 6.63-31.34 12-70 12s-70-5.37-70-12" stroke="#000" stroke-width="2" fill="none"/><use xlink:href="#F" transform="matrix(1,0,0,1,385,612.1999999999999) translate(8.17962962962963 13.531944444444445)"/><use xlink:href="#l" transform="matrix(1,0,0,1,385,612.1999999999999) translate(66.09197530864196 13.531944444444445)"/><use xlink:href="#G" transform="matrix(1,0,0,1,385,612.1999999999999) translate(84.91913580246913 13.531944444444445)"/><use xlink:href="#H" transform="matrix(1,0,0,1,385,612.1999999999999) translate(18.327469135802474 29.79861111111111)"/><use xlink:href="#l" transform="matrix(1,0,0,1,385,612.1999999999999) translate(56.69722222222222 29.79861111111111)"/><use xlink:href="#I" transform="matrix(1,0,0,1,385,612.1999999999999) translate(75.52438271604939 29.79861111111111)"/><use xlink:href="#J" transform="matrix(1,0,0,1,385,612.1999999999999) translate(30.019135802469137 46.06527777777778)"/><use xlink:href="#K" transform="matrix(1,0,0,1,385,612.1999999999999) translate(70.6104938271605 46.06527777777778)"/><use xlink:href="#L" transform="matrix(1,0,0,1,385,612.1999999999999) translate(4.451851851851856 62.331944444444446)"/><use xlink:href="#M" transform="matrix(1,0,0,1,385,612.1999999999999) translate(79.64753086419752 62.331944444444446)"/><use xlink:href="#N" transform="matrix(1,0,0,1,385,612.1999999999999) translate(98.47469135802469 62.331944444444446)"/><use xlink:href="#O" transform="matrix(1,0,0,1,385,612.1999999999999) translate(46.21549382716049 78.59861111111111)"/><path d="M72.5 694.8h170v56.8h-170z" stroke="#000" stroke-width="2" fill="#fff"/><use xlink:href="#P" transform="matrix(1,0,0,1,77.5,699.7898396669761) translate(8.174382716049394 10.844444444444445)"/><use xlink:href="#Q" transform="matrix(1,0,0,1,77.5,699.7898396669761) translate(72.03611111111111 10.844444444444445)"/><use xlink:href="#R" transform="matrix(1,0,0,1,77.5,699.7898396669761) translate(101.36882716049382 10.844444444444445)"/><use xlink:href="#S" transform="matrix(1,0,0,1,77.5,699.7898396669761) translate(119.4429012345679 10.844444444444445)"/><use xlink:href="#T" transform="matrix(1,0,0,1,77.5,699.7898396669761) translate(2.112037037037055 27.11111111111111)"/><use xlink:href="#z" transform="matrix(1,0,0,1,77.5,699.7898396669761) translate(87.88858024691358 27.11111111111111)"/><use xlink:href="#U" transform="matrix(1,0,0,1,77.5,699.7898396669761) translate(106.71574074074073 27.11111111111111)"/><use xlink:href="#l" transform="matrix(1,0,0,1,77.5,699.7898396669761) translate(32.95092592592593 43.37777777777778)"/><use xlink:href="#k" transform="matrix(1,0,0,1,77.5,699.7898396669761) translate(51.77808641975309 43.37777777777778)"/><use xlink:href="#V" transform="matrix(1,0,0,1,77.5,699.7898396669761) translate(92.44475308641975 43.37777777777778)"/><path d="M160 783.2l92.5 51.2-92.5 51.23-92.5-51.22z" stroke="#000" stroke-width="2" fill="#fff"/><use xlink:href="#W" transform="matrix(1,0,0,1,72.5,788.1999999999999) translate(45.36981481481482 34.09444444444445)"/><use xlink:href="#D" transform="matrix(1,0,0,1,72.5,788.1999999999999) translate(103.3198148148148 34.09444444444445)"/><use xlink:href="#X" transform="matrix(1,0,0,1,72.5,788.1999999999999) translate(14.116728395061736 50.361111111111114)"/><use xlink:href="#Y" transform="matrix(1,0,0,1,72.5,788.1999999999999) translate(43.4870987654321 50.361111111111114)"/><use xlink:href="#z" transform="matrix(1,0,0,1,72.5,788.1999999999999) translate(90.89388888888888 50.361111111111114)"/><use xlink:href="#U" transform="matrix(1,0,0,1,72.5,788.1999999999999) translate(109.72104938271605 50.361111111111114)"/><use xlink:href="#l" transform="matrix(1,0,0,1,72.5,788.1999999999999) translate(55.87537037037037 66.62777777777778)"/><use xlink:href="#Z" transform="matrix(1,0,0,1,72.5,788.1999999999999) translate(74.70253086419753 66.62777777777778)"/><path d="M340 643.2h-11M295 643.2h-5" stroke="#000" stroke-width="2" fill="none"/><path d="M315 657.2c-7.73 0-14-6.27-14-14s6.27-14 14-14 14 6.27 14 14-6.27 14-14 14z" stroke="#000" stroke-width="2" fill="#fff"/><path d="M315 623.2c-11.05 0-20 8.95-20 20s8.95 20 20 20" stroke="#000" stroke-width="2" fill="none"/><path d="M340 644h-11v-1.6h11z" fill="none"/><path d="M378 643.2h-19.5" stroke="#000" stroke-width="2" fill="none"/><path d="M379 644.2h-1.03v-2H379z"/><path d="M343.24 643.2l14.26-4.64v9.28z" stroke="#000" stroke-width="2"/><path d="M262 723.2h18v-80h9" stroke="#000" stroke-width="2" fill="none"/><path d="M246.74 723.2l14.26-4.64v9.28z" stroke="#000" stroke-width="2"/><path d="M290 644.2h-1.03v-2H290z"/><path d="M160 189.05v11.45" stroke="#000" stroke-width="2" fill="none"/><path d="M161 189.07h-2v-1.02h2z"/><path d="M160 215.76l-4.64-14.26h9.28z" stroke="#000" stroke-width="2"/><path d="M160 262v10.45" stroke="#000" stroke-width="2" fill="none"/><path d="M161 262.03h-2V261h2z"/><path d="M160 287.72l-4.64-14.27h9.28z" stroke="#000" stroke-width="2"/><path d="M160 390.35v6.44" stroke="#000" stroke-width="2" fill="none"/><path d="M161 390.38h-2v-1.03h2z"/><path d="M160 412.05l-4.64-14.26h9.28z" stroke="#000" stroke-width="2"/><path d="M160 514.7v8.03" stroke="#000" stroke-width="2" fill="none"/><path d="M161 514.7h-2v-1h2z"/><path d="M160 538l-4.64-14.27h9.28z" stroke="#000" stroke-width="2"/><path d="M158.5 657.03h-2v-14.16h2z"/><path d="M158.5 642.9h-2v-1.77l1 .74 1-.74zM155 690.55l-3.87-11.92h7.74z"/><path d="M155 693.8l-4.93-15.17h2.1l2.83 8.7 2.82-8.7h2.1z"/><g><use xlink:href="#aa" transform="matrix(1,0,0,1,140.8,657.0288180031131) translate(0 14.4)"/></g><path d="M21 589.62h66.32v2H19v-176h2zM90.8 241H21v153.02h-2V239h71.8z"/><path d="M88.32 590.62l1.35 1H87.3v-2h2.37zM106.06 240l-14.26 4.64v-9.28z"/><path d="M109.3 240l-18.5 6v-12zm-16.5 3.26l10.03-3.26-10.03-3.26z"/><g><use xlink:href="#ab" transform="matrix(1,0,0,1,3.5249999999999986,394.02245578470104) translate(0 14.4)"/></g><path d="M157.5 753.6v11.34" stroke="#000" stroke-width="2" fill="none"/><path d="M158.5 753.64h-2v-1.03h2z"/><path d="M157.5 780.2l-4.64-14.26h9.28z" stroke="#000" stroke-width="2"/><path d="M320 721.6h280v82.6H320z" stroke="#000" stroke-width="2" fill="#fff"/><g><use xlink:href="#ac" transform="matrix(1,0,0,1,325,726.6) translate(15.824074074074105 22.250694444444445)"/><use xlink:href="#ad" transform="matrix(1,0,0,1,325,726.6) translate(44.32839506172842 22.250694444444445)"/><use xlink:href="#ae" transform="matrix(1,0,0,1,325,726.6) translate(66.88333333333335 22.250694444444445)"/><use xlink:href="#Q" transform="matrix(1,0,0,1,325,726.6) translate(128.48580246913582 22.250694444444445)"/><use xlink:href="#r" transform="matrix(1,0,0,1,325,726.6) translate(157.81851851851852 22.250694444444445)"/><use xlink:href="#af" transform="matrix(1,0,0,1,325,726.6) translate(169.11481481481482 22.250694444444445)"/><use xlink:href="#ag" transform="matrix(1,0,0,1,325,726.6) translate(232.3364197530864 22.250694444444445)"/><use xlink:href="#ah" transform="matrix(1,0,0,1,325,726.6) translate(19.25709876543212 39.050694444444446)"/><use xlink:href="#ai" transform="matrix(1,0,0,1,325,726.6) translate(55.405246913580264 39.050694444444446)"/><use xlink:href="#p" transform="matrix(1,0,0,1,325,726.6) translate(133.68858024691357 39.050694444444446)"/><use xlink:href="#aj" transform="matrix(1,0,0,1,325,726.6) translate(144.98487654320985 39.050694444444446)"/><use xlink:href="#ak" transform="matrix(1,0,0,1,325,726.6) translate(212.02685185185183 39.050694444444446)"/><use xlink:href="#al" transform="matrix(1,0,0,1,325,726.6) translate(223.87870370370368 39.050694444444446)"/><use xlink:href="#am" transform="matrix(1,0,0,1,325,726.6) translate(0.4419753086420144 56.11736111111111)"/><use xlink:href="#an" transform="matrix(1,0,0,1,325,726.6) translate(81.74567901234569 56.11736111111111)"/><use xlink:href="#ao" transform="matrix(1,0,0,1,325,726.6) translate(112.52098765432099 56.11736111111111)"/><use xlink:href="#ap" transform="matrix(1,0,0,1,325,726.6) translate(124.37283950617284 56.11736111111111)"/><use xlink:href="#aq" transform="matrix(1,0,0,1,325,726.6) translate(163.76049382716047 56.11736111111111)"/><use xlink:href="#ar" transform="matrix(1,0,0,1,325,726.6) translate(215.82962962962958 56.11736111111111)"/><use xlink:href="#as" transform="matrix(1,0,0,1,325,726.6) translate(235.58271604938267 56.11736111111111)"/></g><path d="M300.5 762.9h-3.9m-7.83 0h-7.82m-.95-6.87v-7.82m0-7.8v-7.83m0-7.82v-1.55h-6.27m-7.82 0H262" stroke="#000" stroke-width="2" fill="none"/><path d="M315.76 762.9l-14.26 4.63v-9.27zM246.74 723.2l14.26-4.64v9.28z" stroke="#000" stroke-width="2"/><path d="M99.75 940h115.5l38.5 37.4-38.5 37.4H99.75l-38.5-37.4z" stroke="#000" stroke-width="2" fill="#fff"/><g><use xlink:href="#at" transform="matrix(1,0,0,1,66.25,945) translate(28.178765432098782 18.969444444444445)"/><use xlink:href="#b" transform="matrix(1,0,0,1,66.25,945) translate(86.12876543209877 18.969444444444445)"/><use xlink:href="#au" transform="matrix(1,0,0,1,66.25,945) translate(97.42506172839506 18.969444444444445)"/><use xlink:href="#av" transform="matrix(1,0,0,1,66.25,945) translate(10.604691358024704 35.236111111111114)"/><use xlink:href="#aw" transform="matrix(1,0,0,1,66.25,945) translate(33.15962962962964 35.236111111111114)"/><use xlink:href="#M" transform="matrix(1,0,0,1,66.25,945) translate(67.76395061728397 35.236111111111114)"/><use xlink:href="#X" transform="matrix(1,0,0,1,66.25,945) translate(86.59111111111112 35.236111111111114)"/><use xlink:href="#p" transform="matrix(1,0,0,1,66.25,945) translate(115.96148148148148 35.236111111111114)"/><use xlink:href="#b" transform="matrix(1,0,0,1,66.25,945) translate(127.25777777777778 35.236111111111114)"/><use xlink:href="#ax" transform="matrix(1,0,0,1,66.25,945) translate(138.55407407407407 35.236111111111114)"/><use xlink:href="#M" transform="matrix(1,0,0,1,66.25,945) translate(59.75191358024692 51.50277777777778)"/><use xlink:href="#ay" transform="matrix(1,0,0,1,66.25,945) translate(78.57907407407407 51.50277777777778)"/></g><path d="M161 902.1h-2v-14.33h2z"/><path d="M161 887.8h-2v-1.58l1 .55 1-.55zM157.5 935.76l-3.92-12.07h7.84z"/><path d="M157.5 939l-4.98-15.3h2.1l2.88 8.83 2.87-8.84h2.1z"/><g><use xlink:href="#aa" transform="matrix(1,0,0,1,143.3,902.0850667633694) translate(0 14.4)"/></g><path d="M26.44 833.4h38v2h-40v-48.83h2zM53 724.2H26.44v40.77h-2V722.2H53z"/><path d="M65.44 834.4l1.8 1H64.4v-2h2.84zM68.26 723.2L54 727.84v-9.28z"/><path d="M71.5 723.2l-18.5 6v-12zM55 726.46l10.03-3.26L55 719.94z"/><g><use xlink:href="#ab" transform="matrix(1,0,0,1,8.960484717709967,764.9745158901064) translate(0 14.4)"/></g><path d="M120.75 1057.57h85.75c6.77 0 12.25 13.43 12.25 30s-5.48 30-12.25 30h-85.75l-24.5-30z" stroke="#000" stroke-width="2" fill="#fff"/><g><use xlink:href="#az" transform="matrix(1,0,0,1,101.25,1062.5729057785793) translate(15.135555555555564 26.469444444444445)"/><use xlink:href="#aA" transform="matrix(1,0,0,1,101.25,1062.5729057785793) translate(60.24543209876543 26.469444444444445)"/><use xlink:href="#aB" transform="matrix(1,0,0,1,101.25,1062.5729057785793) translate(79.07259259259258 26.469444444444445)"/></g><path d="M157.5 1016.8v21.27" stroke="#000" stroke-width="2" fill="none"/><path d="M158.5 1016.83h-2v-1.03h2z"/><path d="M157.5 1053.34l-4.64-14.27h9.28z" stroke="#000" stroke-width="2"/><path d="M160 81.5V62" stroke="#000" stroke-width="2" fill="none"/><path d="M160 96.76l-4.64-14.26h9.28z" stroke="#000" stroke-width="2"/><path d="M159.96 61l1.04-.03v1.06h-2v-1.15z"/><defs><path d="M33 0v-248h34V0H33" id="aC"/><path d="M117-194c89-4 53 116 60 194h-32v-121c0-31-8-49-39-48C34-167 62-67 57 0H25l-1-190h30c1 10-1 24 2 32 11-22 29-35 61-36" id="aD"/><path d="M24-231v-30h32v30H24zM24 0v-190h32V0H24" id="aE"/><path d="M96-169c-40 0-48 33-48 73s9 75 48 75c24 0 41-14 43-38l32 2c-6 37-31 61-74 61-59 0-76-41-82-99-10-93 101-131 147-64 4 7 5 14 7 22l-32 3c-4-21-16-35-41-35" id="aF"/><path d="M141-36C126-15 110 5 73 4 37 3 15-17 15-53c-1-64 63-63 125-63 3-35-9-54-41-54-24 1-41 7-42 31l-33-3c5-37 33-52 76-52 45 0 72 20 72 64v82c-1 20 7 32 28 27v20c-31 9-61-2-59-35zM48-53c0 20 12 33 32 33 41-3 63-29 60-74-43 2-92-5-92 41" id="aG"/><path d="M24 0v-261h32V0H24" id="aH"/><path d="M9 0v-24l116-142H16v-24h144v24L44-24h123V0H9" id="aI"/><g id="a"><use transform="matrix(0.03765432098765432,0,0,0.03765432098765432,0,0)" xlink:href="#aC"/><use transform="matrix(0.03765432098765432,0,0,0.03765432098765432,3.765432098765432,0)" xlink:href="#aD"/><use transform="matrix(0.03765432098765432,0,0,0.03765432098765432,11.296296296296296,0)" xlink:href="#aE"/><use transform="matrix(0.03765432098765432,0,0,0.03765432098765432,14.270987654320987,0)" xlink:href="#aF"/><use transform="matrix(0.03765432098765432,0,0,0.03765432098765432,21.048765432098765,0)" xlink:href="#aE"/><use transform="matrix(0.03765432098765432,0,0,0.03765432098765432,24.023456790123454,0)" xlink:href="#aG"/><use transform="matrix(0.03765432098765432,0,0,0.03765432098765432,31.554320987654318,0)" xlink:href="#aH"/><use transform="matrix(0.03765432098765432,0,0,0.03765432098765432,34.52901234567901,0)" xlink:href="#aE"/><use transform="matrix(0.03765432098765432,0,0,0.03765432098765432,37.5037037037037,0)" xlink:href="#aI"/><use transform="matrix(0.03765432098765432,0,0,0.03765432098765432,44.28148148148148,0)" xlink:href="#aG"/></g><path d="M100-194c62-1 85 37 85 99 1 63-27 99-86 99S16-35 15-95c0-66 28-99 85-99zM99-20c44 1 53-31 53-75 0-43-8-75-51-75s-53 32-53 75 10 74 51 75" id="aJ"/><use transform="matrix(0.03765432098765432,0,0,0.03765432098765432,0,0)" xlink:href="#aJ" id="b"/><path d="M101-234c-31-9-42 10-38 44h38v23H63V0H32v-167H5v-23h27c-7-52 17-82 69-68v24" id="aK"/><path d="M84 4C-5 8 30-112 23-190h32v120c0 31 7 50 39 49 72-2 45-101 50-169h31l1 190h-30c-1-10 1-25-2-33-11 22-28 36-60 37" id="aL"/><path d="M141 0L90-78 38 0H4l68-98-65-92h35l48 74 47-74h35l-64 92 68 98h-35" id="aM"/><g id="c"><use transform="matrix(0.03765432098765432,0,0,0.03765432098765432,0,0)" xlink:href="#aK"/><use transform="matrix(0.03765432098765432,0,0,0.03765432098765432,3.765432098765432,0)" xlink:href="#aH"/><use transform="matrix(0.03765432098765432,0,0,0.03765432098765432,6.740123456790123,0)" xlink:href="#aL"/><use transform="matrix(0.03765432098765432,0,0,0.03765432098765432,14.270987654320987,0)" xlink:href="#aM"/><use transform="matrix(0.03765432098765432,0,0,0.03765432098765432,21.048765432098765,0)" xlink:href="#aJ"/></g><path d="M85-194c31 0 48 13 60 33l-1-100h32l1 261h-30c-2-10 0-23-3-31C134-8 116 4 85 4 32 4 16-35 15-94c0-66 23-100 70-100zm9 24c-40 0-46 34-46 75 0 40 6 74 45 74 42 0 51-32 51-76 0-42-9-74-50-73" id="aN"/><path d="M100-194c63 0 86 42 84 106H49c0 40 14 67 53 68 26 1 43-12 49-29l28 8c-11 28-37 45-77 45C44 4 14-33 15-96c1-61 26-98 85-98zm52 81c6-60-76-77-97-28-3 7-6 17-6 28h103" id="aO"/><g id="d"><use transform="matrix(0.03765432098765432,0,0,0.03765432098765432,0,0)" xlink:href="#aN"/><use transform="matrix(0.03765432098765432,0,0,0.03765432098765432,7.530864197530864,0)" xlink:href="#aO"/></g><path d="M108 0H70L1-190h34L89-25l56-165h34" id="aP"/><g id="e"><use transform="matrix(0.03765432098765432,0,0,0.03765432098765432,0,0)" xlink:href="#aP"/><use transform="matrix(0.03765432098765432,0,0,0.03765432098765432,6.777777777777777,0)" xlink:href="#aE"/><use transform="matrix(0.03765432098765432,0,0,0.03765432098765432,9.752469135802468,0)" xlink:href="#aN"/><use transform="matrix(0.03765432098765432,0,0,0.03765432098765432,17.28333333333333,0)" xlink:href="#aO"/><use transform="matrix(0.03765432098765432,0,0,0.03765432098765432,24.814197530864195,0)" xlink:href="#aJ"/></g><path d="M63-220v92h138v28H63V0H30v-248h175v28H63" id="aQ"/><path d="M114-163C36-179 61-72 57 0H25l-1-190h30c1 12-1 29 2 39 6-27 23-49 58-41v29" id="aR"/><path d="M210-169c-67 3-38 105-44 169h-31v-121c0-29-5-50-35-48C34-165 62-65 56 0H25l-1-190h30c1 10-1 24 2 32 10-44 99-50 107 0 11-21 27-35 58-36 85-2 47 119 55 194h-31v-121c0-29-5-49-35-48" id="aS"/><path d="M135-143c-3-34-86-38-87 0 15 53 115 12 119 90S17 21 10-45l28-5c4 36 97 45 98 0-10-56-113-15-118-90-4-57 82-63 122-42 12 7 21 19 24 35" id="aT"/><g id="f"><use transform="matrix(0.03765432098765432,0,0,0.03765432098765432,0,0)" xlink:href="#aQ"/><use transform="matrix(0.03765432098765432,0,0,0.03765432098765432,8.246296296296295,0)" xlink:href="#aR"/><use transform="matrix(0.03765432098765432,0,0,0.03765432098765432,12.72716049382716,0)" xlink:href="#aG"/><use transform="matrix(0.03765432098765432,0,0,0.03765432098765432,20.258024691358024,0)" xlink:href="#aS"/><use transform="matrix(0.03765432098765432,0,0,0.03765432098765432,31.516666666666662,0)" xlink:href="#aO"/><use transform="matrix(0.03765432098765432,0,0,0.03765432098765432,39.047530864197526,0)" xlink:href="#aT"/></g><path d="M1161-1018c0 201-122 330-278 388l342 618V0h-206L703-589H361V0H168v-1456h482c310-2 511 139 511 438zm-193 0c0-187-120-280-313-280H361v552h295c179 3 313-101 312-272" id="aU"/><path d="M599-131c141 0 220-65 285-146l113 88C906-50 770 20 589 20 281 21 93-214 93-545c0-223 93-397 233-485 74-48 154-72 240-72 300 2 449 218 445 537v77H278c0 197 129 357 321 357zm227-509c-3-180-88-310-260-310-170 0-264 140-282 310h542" id="aV"/><path d="M277-555c0 244 77 420 297 424 127 2 249-93 255-210h175C980-127 805 20 574 20 258 20 81-222 92-562c11-319 164-533 481-540 237-5 426 165 431 392H829c-7-133-115-242-256-240-209 4-296 166-296 395" id="aW"/><path d="M584 20C278 26 81-227 91-551c10-320 175-545 491-551 308-5 503 247 494 573-9 322-175 543-492 549zm-2-970c-208 0-305 185-305 421 0 216 106 398 307 398 211 0 307-186 307-420 0-214-109-399-309-399" id="aX"/><path d="M663-916c-163-27-288 18-338 148V0H140v-1082h180l3 125c61-97 147-145 258-145 36 0 63 5 82 14v172" id="aY"/><path d="M520 20C244 20 95-247 95-550c0-298 151-550 427-552 127 0 227 43 301 130v-564h185V0H838l-9-116C755-25 652 20 520 20zm48-965c-210 0-288 177-288 416 0 218 87 392 286 392 117 0 203-53 257-158v-497c-55-102-140-153-255-153" id="aZ"/><g id="h"><use transform="matrix(0.0065107421875,0,0,0.0065107421875,0,0)" xlink:href="#aU"/><use transform="matrix(0.0065107421875,0,0,0.0065107421875,8.2100458984375,0)" xlink:href="#aV"/><use transform="matrix(0.0065107421875,0,0,0.0065107421875,15.274201171875,0)" xlink:href="#aW"/><use transform="matrix(0.0065107421875,0,0,0.0065107421875,22.253716796874997,0)" xlink:href="#aX"/><use transform="matrix(0.0065107421875,0,0,0.0065107421875,29.858263671874997,0)" xlink:href="#aY"/><use transform="matrix(0.0065107421875,0,0,0.0065107421875,34.24650390625,0)" xlink:href="#aZ"/></g><filter id="g" filterUnits="objectBoundingBox" x="-.02" y="-.01" width="1.04" height="1.03"><feOffset result="offOut" in="SourceAlpha" dy="1"/><feGaussianBlur result="blurOut" in="offOut" stdDeviation=".75"/><feColorMatrix result="colorOut" in="blurOut" values="0 0 0 0 0 0 0 0 0 0 0 0 0 0 0 0 0 0 0.4 0"/><feBlend in="SourceGraphic" in2="colorOut"/></filter><path d="M212-179c-10-28-35-45-73-45-59 0-87 40-87 99 0 60 29 101 89 101 43 0 62-24 78-52l27 14C228-24 195 4 139 4 59 4 22-46 18-125c-6-104 99-153 187-111 19 9 31 26 39 46" id="ba"/><path d="M59-47c-2 24 18 29 38 22v24C64 9 27 4 27-40v-127H5v-23h24l9-43h21v43h35v23H59v120" id="bb"/><g id="i"><use transform="matrix(0.03765432098765432,0,0,0.03765432098765432,0,0)" xlink:href="#ba"/><use transform="matrix(0.03765432098765432,0,0,0.03765432098765432,9.752469135802468,0)" xlink:href="#aJ"/><use transform="matrix(0.03765432098765432,0,0,0.03765432098765432,17.28333333333333,0)" xlink:href="#aD"/><use transform="matrix(0.03765432098765432,0,0,0.03765432098765432,24.814197530864195,0)" xlink:href="#aP"/><use transform="matrix(0.03765432098765432,0,0,0.03765432098765432,31.591975308641974,0)" xlink:href="#aO"/><use transform="matrix(0.03765432098765432,0,0,0.03765432098765432,39.12283950617284,0)" xlink:href="#aR"/><use transform="matrix(0.03765432098765432,0,0,0.03765432098765432,43.6037037037037,0)" xlink:href="#bb"/><use transform="matrix(0.03765432098765432,0,0,0.03765432098765432,47.36913580246913,0)" xlink:href="#aO"/></g><g id="j"><use transform="matrix(0.03765432098765432,0,0,0.03765432098765432,0,0)" xlink:href="#aJ"/><use transform="matrix(0.03765432098765432,0,0,0.03765432098765432,7.530864197530864,0)" xlink:href="#aT"/></g><g id="k"><use transform="matrix(0.03765432098765432,0,0,0.03765432098765432,0,0)" xlink:href="#aN"/><use transform="matrix(0.03765432098765432,0,0,0.03765432098765432,7.530864197530864,0)" xlink:href="#aG"/><use transform="matrix(0.03765432098765432,0,0,0.03765432098765432,15.061728395061728,0)" xlink:href="#aN"/><use transform="matrix(0.03765432098765432,0,0,0.03765432098765432,22.59259259259259,0)" xlink:href="#aJ"/><use transform="matrix(0.03765432098765432,0,0,0.03765432098765432,30.123456790123456,0)" xlink:href="#aT"/></g><g id="l"><use transform="matrix(0.03765432098765432,0,0,0.03765432098765432,0,0)" xlink:href="#aN"/><use transform="matrix(0.03765432098765432,0,0,0.03765432098765432,7.530864197530864,0)" xlink:href="#aO"/></g><path d="M160-131c35 5 61 23 61 61C221 17 115-2 30 0v-248c76 3 177-17 177 60 0 33-19 50-47 57zm-97-11c50-1 110 9 110-42 0-47-63-36-110-37v79zm0 115c55-2 124 14 124-45 0-56-70-42-124-44v89" id="bc"/><path d="M143 4C61 4 22-44 18-125c-5-107 100-154 193-111 17 8 29 25 37 43l-32 9c-13-25-37-40-76-40-61 0-88 39-88 99 0 61 29 100 91 101 35 0 62-11 79-27v-45h-74v-28h105v86C228-13 192 4 143 4" id="bd"/><path d="M233-177c-1 41-23 64-60 70L243 0h-38l-65-103H63V0H30v-248c88 3 205-21 203 71zM63-129c60-2 137 13 137-47 0-61-80-42-137-45v92" id="be"/><g id="m"><use transform="matrix(0.03765432098765432,0,0,0.03765432098765432,0,0)" xlink:href="#bc"/><use transform="matrix(0.03765432098765432,0,0,0.03765432098765432,9.037037037037036,0)" xlink:href="#bd"/><use transform="matrix(0.03765432098765432,0,0,0.03765432098765432,19.580246913580247,0)" xlink:href="#be"/></g><path d="M115-194c55 1 70 41 70 98S169 2 115 4C84 4 66-9 55-30l1 105H24l-1-265h31l2 30c10-21 28-34 59-34zm-8 174c40 0 45-34 45-75s-6-73-45-74c-42 0-51 32-51 76 0 43 10 73 51 73" id="bf"/><g id="n"><use transform="matrix(0.03765432098765432,0,0,0.03765432098765432,0,0)" xlink:href="#bf"/><use transform="matrix(0.03765432098765432,0,0,0.03765432098765432,7.530864197530864,0)" xlink:href="#aG"/><use transform="matrix(0.03765432098765432,0,0,0.03765432098765432,15.061728395061728,0)" xlink:href="#aR"/><use transform="matrix(0.03765432098765432,0,0,0.03765432098765432,19.54259259259259,0)" xlink:href="#aG"/></g><g id="o"><use transform="matrix(0.03765432098765432,0,0,0.03765432098765432,0,0)" xlink:href="#be"/><use transform="matrix(0.03765432098765432,0,0,0.03765432098765432,9.752469135802468,0)" xlink:href="#bd"/><use transform="matrix(0.03765432098765432,0,0,0.03765432098765432,20.295679012345676,0)" xlink:href="#bc"/></g><use transform="matrix(0.03765432098765432,0,0,0.03765432098765432,0,0)" xlink:href="#aO" id="p"/><g id="q"><use transform="matrix(0.03765432098765432,0,0,0.03765432098765432,0,0)" xlink:href="#aR"/><use transform="matrix(0.03765432098765432,0,0,0.03765432098765432,4.480864197530864,0)" xlink:href="#aO"/><use transform="matrix(0.03765432098765432,0,0,0.03765432098765432,12.011728395061727,0)" xlink:href="#aN"/><use transform="matrix(0.03765432098765432,0,0,0.03765432098765432,19.54259259259259,0)" xlink:href="#aE"/><use transform="matrix(0.03765432098765432,0,0,0.03765432098765432,22.517283950617283,0)" xlink:href="#aS"/><use transform="matrix(0.03765432098765432,0,0,0.03765432098765432,33.775925925925925,0)" xlink:href="#aO"/><use transform="matrix(0.03765432098765432,0,0,0.03765432098765432,41.30679012345679,0)" xlink:href="#aD"/><use transform="matrix(0.03765432098765432,0,0,0.03765432098765432,48.83765432098765,0)" xlink:href="#aT"/><use transform="matrix(0.03765432098765432,0,0,0.03765432098765432,55.61543209876544,0)" xlink:href="#aE"/><use transform="matrix(0.03765432098765432,0,0,0.03765432098765432,58.590123456790124,0)" xlink:href="#aD"/><use transform="matrix(0.03765432098765432,0,0,0.03765432098765432,66.12098765432098,0)" xlink:href="#aG"/></g><use transform="matrix(0.03765432098765432,0,0,0.03765432098765432,0,0)" xlink:href="#aG" id="r"/><path d="M177-190C167-65 218 103 67 71c-23-6-38-20-44-43l32-5c15 47 100 32 89-28v-30C133-14 115 1 83 1 29 1 15-40 15-95c0-56 16-97 71-98 29-1 48 16 59 35 1-10 0-23 2-32h30zM94-22c36 0 50-32 50-73 0-42-14-75-50-75-39 0-46 34-46 75s6 73 46 73" id="bg"/><g id="s"><use transform="matrix(0.03765432098765432,0,0,0.03765432098765432,0,0)" xlink:href="#aE"/><use transform="matrix(0.03765432098765432,0,0,0.03765432098765432,2.974691358024691,0)" xlink:href="#aS"/><use transform="matrix(0.03765432098765432,0,0,0.03765432098765432,14.233333333333333,0)" xlink:href="#aG"/><use transform="matrix(0.03765432098765432,0,0,0.03765432098765432,21.764197530864195,0)" xlink:href="#bg"/><use transform="matrix(0.03765432098765432,0,0,0.03765432098765432,29.29506172839506,0)" xlink:href="#aO"/><use transform="matrix(0.03765432098765432,0,0,0.03765432098765432,36.82592592592592,0)" xlink:href="#aS"/></g><path d="M64 0c3-98 48-159 88-221H18v-27h164v26C143-157 98-101 97 0H64" id="bh"/><path d="M54-142c48-35 137-8 131 61C196 18 31 33 14-55l32-4c7 23 22 37 52 37 35-1 51-22 54-58 4-55-73-65-99-34H22l8-134h141v27H59" id="bi"/><path d="M101-251c68 0 85 55 85 127S166 4 100 4C33 4 14-52 14-124c0-73 17-127 87-127zm-1 229c47 0 54-49 54-102s-4-102-53-102c-51 0-55 48-55 102 0 53 5 102 54 102" id="bj"/><g id="t"><use transform="matrix(0.03765432098765432,0,0,0.03765432098765432,0,0)" xlink:href="#bh"/><use transform="matrix(0.03765432098765432,0,0,0.03765432098765432,7.530864197530864,0)" xlink:href="#bi"/><use transform="matrix(0.03765432098765432,0,0,0.03765432098765432,15.061728395061728,0)" xlink:href="#bj"/><use transform="matrix(0.03765432098765432,0,0,0.03765432098765432,22.59259259259259,0)" xlink:href="#bf"/><use transform="matrix(0.03765432098765432,0,0,0.03765432098765432,30.123456790123456,0)" xlink:href="#aM"/></g><g id="u"><use transform="matrix(0.03765432098765432,0,0,0.03765432098765432,0,0)" xlink:href="#aH"/><use transform="matrix(0.03765432098765432,0,0,0.03765432098765432,2.974691358024691,0)" xlink:href="#aG"/><use transform="matrix(0.03765432098765432,0,0,0.03765432098765432,10.505555555555555,0)" xlink:href="#aR"/><use transform="matrix(0.03765432098765432,0,0,0.03765432098765432,14.986419753086421,0)" xlink:href="#bg"/><use transform="matrix(0.03765432098765432,0,0,0.03765432098765432,22.517283950617283,0)" xlink:href="#aL"/><use transform="matrix(0.03765432098765432,0,0,0.03765432098765432,30.048148148148144,0)" xlink:href="#aR"/><use transform="matrix(0.03765432098765432,0,0,0.03765432098765432,34.529012345679014,0)" xlink:href="#aG"/></g><path d="M30-248c87 1 191-15 191 75 0 78-77 80-158 76V0H30v-248zm33 125c57 0 124 11 124-50 0-59-68-47-124-48v98" id="bk"/><g id="v"><use transform="matrix(0.03765432098765432,0,0,0.03765432098765432,0,0)" xlink:href="#bk"/><use transform="matrix(0.03765432098765432,0,0,0.03765432098765432,9.037037037037036,0)" xlink:href="#aR"/><use transform="matrix(0.03765432098765432,0,0,0.03765432098765432,13.517901234567901,0)" xlink:href="#aJ"/><use transform="matrix(0.03765432098765432,0,0,0.03765432098765432,21.048765432098765,0)" xlink:href="#aF"/><use transform="matrix(0.03765432098765432,0,0,0.03765432098765432,27.82654320987654,0)" xlink:href="#aL"/><use transform="matrix(0.03765432098765432,0,0,0.03765432098765432,35.35740740740741,0)" xlink:href="#aR"/><use transform="matrix(0.03765432098765432,0,0,0.03765432098765432,39.83827160493827,0)" xlink:href="#aG"/></g><g id="w"><use transform="matrix(0.03765432098765432,0,0,0.03765432098765432,0,0)" xlink:href="#aL"/><use transform="matrix(0.03765432098765432,0,0,0.03765432098765432,7.530864197530864,0)" xlink:href="#aS"/><use transform="matrix(0.03765432098765432,0,0,0.03765432098765432,18.789506172839506,0)" xlink:href="#aG"/></g><g id="x"><use transform="matrix(0.03765432098765432,0,0,0.03765432098765432,0,0)" xlink:href="#aK"/><use transform="matrix(0.03765432098765432,0,0,0.03765432098765432,3.765432098765432,0)" xlink:href="#aG"/><use transform="matrix(0.03765432098765432,0,0,0.03765432098765432,11.296296296296296,0)" xlink:href="#aF"/><use transform="matrix(0.03765432098765432,0,0,0.03765432098765432,18.074074074074073,0)" xlink:href="#aO"/></g><path d="M106-169C34-169 62-67 57 0H25v-261h32l-1 103c12-21 28-36 61-36 89 0 53 116 60 194h-32v-121c2-32-8-49-39-48" id="bl"/><g id="y"><use transform="matrix(0.03765432098765432,0,0,0.03765432098765432,0,0)" xlink:href="#bl"/><use transform="matrix(0.03765432098765432,0,0,0.03765432098765432,7.530864197530864,0)" xlink:href="#aL"/><use transform="matrix(0.03765432098765432,0,0,0.03765432098765432,15.061728395061728,0)" xlink:href="#aS"/><use transform="matrix(0.03765432098765432,0,0,0.03765432098765432,26.32037037037037,0)" xlink:href="#aG"/><use transform="matrix(0.03765432098765432,0,0,0.03765432098765432,33.85123456790123,0)" xlink:href="#aD"/><use transform="matrix(0.03765432098765432,0,0,0.03765432098765432,41.38209876543208,0)" xlink:href="#aG"/></g><g id="z"><use transform="matrix(0.03765432098765432,0,0,0.03765432098765432,0,0)" xlink:href="#aD"/><use transform="matrix(0.03765432098765432,0,0,0.03765432098765432,7.530864197530864,0)" xlink:href="#aJ"/></g><g id="A"><use transform="matrix(0.03765432098765432,0,0,0.03765432098765432,0,0)" xlink:href="#aK"/><use transform="matrix(0.03765432098765432,0,0,0.03765432098765432,3.765432098765432,0)" xlink:href="#aR"/><use transform="matrix(0.03765432098765432,0,0,0.03765432098765432,8.246296296296297,0)" xlink:href="#aG"/><use transform="matrix(0.03765432098765432,0,0,0.03765432098765432,15.77716049382716,0)" xlink:href="#aS"/><use transform="matrix(0.03765432098765432,0,0,0.03765432098765432,27.035802469135803,0)" xlink:href="#aO"/></g><g id="B"><use transform="matrix(0.03765432098765432,0,0,0.03765432098765432,0,0)" xlink:href="#aE"/><use transform="matrix(0.03765432098765432,0,0,0.03765432098765432,2.974691358024691,0)" xlink:href="#aS"/><use transform="matrix(0.03765432098765432,0,0,0.03765432098765432,14.233333333333333,0)" xlink:href="#aG"/><use transform="matrix(0.03765432098765432,0,0,0.03765432098765432,21.764197530864195,0)" xlink:href="#bg"/><use transform="matrix(0.03765432098765432,0,0,0.03765432098765432,29.29506172839506,0)" xlink:href="#aO"/><use transform="matrix(0.03765432098765432,0,0,0.03765432098765432,36.82592592592592,0)" xlink:href="#aS"/></g><path d="M205 0l-28-72H64L36 0H1l101-248h38L239 0h-34zm-38-99l-47-123c-12 45-31 82-46 123h93" id="bm"/><g id="C"><use transform="matrix(0.03765432098765432,0,0,0.03765432098765432,0,0)" xlink:href="#bm"/><use transform="matrix(0.03765432098765432,0,0,0.03765432098765432,9.037037037037036,0)" xlink:href="#aF"/><use transform="matrix(0.03765432098765432,0,0,0.03765432098765432,15.814814814814813,0)" xlink:href="#bl"/><use transform="matrix(0.03765432098765432,0,0,0.03765432098765432,23.345679012345677,0)" xlink:href="#aJ"/><use transform="matrix(0.03765432098765432,0,0,0.03765432098765432,30.87654320987654,0)" xlink:href="#aL"/></g><g id="D"><use transform="matrix(0.03765432098765432,0,0,0.03765432098765432,0,0)" xlink:href="#aL"/><use transform="matrix(0.03765432098765432,0,0,0.03765432098765432,7.530864197530864,0)" xlink:href="#aS"/><use transform="matrix(0.03765432098765432,0,0,0.03765432098765432,18.789506172839506,0)" xlink:href="#aG"/></g><path d="M103-251c84 0 111 97 45 133-19 10-37 24-39 52H78c0-63 77-55 77-114 0-30-21-42-52-43-32 0-53 17-56 46l-32-2c7-45 34-72 88-72zM77 0v-35h34V0H77" id="bn"/><g id="E"><use transform="matrix(0.03765432098765432,0,0,0.03765432098765432,0,0)" xlink:href="#aK"/><use transform="matrix(0.03765432098765432,0,0,0.03765432098765432,3.765432098765432,0)" xlink:href="#aG"/><use transform="matrix(0.03765432098765432,0,0,0.03765432098765432,11.296296296296296,0)" xlink:href="#aF"/><use transform="matrix(0.03765432098765432,0,0,0.03765432098765432,18.074074074074073,0)" xlink:href="#aO"/><use transform="matrix(0.03765432098765432,0,0,0.03765432098765432,25.604938271604937,0)" xlink:href="#bn"/></g><path d="M24-231v-30h32v30H24zM-9 49c24 4 33-6 33-30v-209h32V24c2 40-23 58-65 49V49" id="bo"/><g id="F"><use transform="matrix(0.03765432098765432,0,0,0.03765432098765432,0,0)" xlink:href="#ba"/><use transform="matrix(0.03765432098765432,0,0,0.03765432098765432,9.752469135802468,0)" xlink:href="#aJ"/><use transform="matrix(0.03765432098765432,0,0,0.03765432098765432,17.28333333333333,0)" xlink:href="#aD"/><use transform="matrix(0.03765432098765432,0,0,0.03765432098765432,24.814197530864195,0)" xlink:href="#bo"/><use transform="matrix(0.03765432098765432,0,0,0.03765432098765432,27.788888888888888,0)" xlink:href="#aL"/><use transform="matrix(0.03765432098765432,0,0,0.03765432098765432,35.31975308641975,0)" xlink:href="#aD"/><use transform="matrix(0.03765432098765432,0,0,0.03765432098765432,42.85061728395061,0)" xlink:href="#bb"/><use transform="matrix(0.03765432098765432,0,0,0.03765432098765432,46.61604938271604,0)" xlink:href="#aJ"/></g><g id="G"><use transform="matrix(0.03765432098765432,0,0,0.03765432098765432,0,0)" xlink:href="#aN"/><use transform="matrix(0.03765432098765432,0,0,0.03765432098765432,7.530864197530864,0)" xlink:href="#aG"/><use transform="matrix(0.03765432098765432,0,0,0.03765432098765432,15.061728395061728,0)" xlink:href="#aN"/><use transform="matrix(0.03765432098765432,0,0,0.03765432098765432,22.59259259259259,0)" xlink:href="#aJ"/><use transform="matrix(0.03765432098765432,0,0,0.03765432098765432,30.123456790123456,0)" xlink:href="#aT"/></g><path d="M27 0v-27h64v-190l-56 39v-29l58-41h29v221h61V0H27" id="bp"/><path d="M101-251c82-7 93 87 43 132L82-64C71-53 59-42 53-27h129V0H18c2-99 128-94 128-182 0-28-16-43-45-43s-46 15-49 41l-32-3c6-41 34-60 81-64" id="bq"/><path d="M134-131c28 9 52 24 51 62-1 50-34 73-85 73S17-19 16-69c0-36 21-54 49-61-75-25-45-126 34-121 46 3 78 18 79 63 0 33-17 51-44 57zm-34-11c31 1 46-15 46-44 0-28-17-43-47-42-29 0-46 13-45 42 1 28 16 44 46 44zm1 122c35 0 51-18 51-52 0-30-18-46-53-46-33 0-51 17-51 47 0 34 19 51 53 51" id="br"/><path d="M16-82v-28h88v28H16" id="bs"/><g id="H"><use transform="matrix(0.03765432098765432,0,0,0.03765432098765432,0,0)" xlink:href="#bp"/><use transform="matrix(0.03765432098765432,0,0,0.03765432098765432,7.530864197530864,0)" xlink:href="#bq"/><use transform="matrix(0.03765432098765432,0,0,0.03765432098765432,15.061728395061728,0)" xlink:href="#br"/><use transform="matrix(0.03765432098765432,0,0,0.03765432098765432,22.59259259259259,0)" xlink:href="#bs"/><use transform="matrix(0.03765432098765432,0,0,0.03765432098765432,27.073456790123455,0)" xlink:href="#aN"/></g><path d="M68-38c1 34 0 65-14 84H32c9-13 17-26 17-46H33v-38h35" id="bt"/><g id="I"><use transform="matrix(0.03765432098765432,0,0,0.03765432098765432,0,0)" xlink:href="#aK"/><use transform="matrix(0.03765432098765432,0,0,0.03765432098765432,3.765432098765432,0)" xlink:href="#aG"/><use transform="matrix(0.03765432098765432,0,0,0.03765432098765432,11.296296296296296,0)" xlink:href="#aF"/><use transform="matrix(0.03765432098765432,0,0,0.03765432098765432,18.074074074074073,0)" xlink:href="#aO"/><use transform="matrix(0.03765432098765432,0,0,0.03765432098765432,25.604938271604937,0)" xlink:href="#aT"/><use transform="matrix(0.03765432098765432,0,0,0.03765432098765432,32.382716049382715,0)" xlink:href="#bt"/></g><g id="J"><use transform="matrix(0.03765432098765432,0,0,0.03765432098765432,0,0)" xlink:href="#aF"/><use transform="matrix(0.03765432098765432,0,0,0.03765432098765432,6.777777777777777,0)" xlink:href="#aR"/><use transform="matrix(0.03765432098765432,0,0,0.03765432098765432,11.258641975308642,0)" xlink:href="#aE"/><use transform="matrix(0.03765432098765432,0,0,0.03765432098765432,14.233333333333333,0)" xlink:href="#aG"/><use transform="matrix(0.03765432098765432,0,0,0.03765432098765432,21.764197530864195,0)" xlink:href="#aN"/><use transform="matrix(0.03765432098765432,0,0,0.03765432098765432,29.29506172839506,0)" xlink:href="#aG"/></g><g id="K"><use transform="matrix(0.03765432098765432,0,0,0.03765432098765432,0,0)" xlink:href="#aG"/><use transform="matrix(0.03765432098765432,0,0,0.03765432098765432,7.530864197530864,0)" xlink:href="#bf"/><use transform="matrix(0.03765432098765432,0,0,0.03765432098765432,15.061728395061728,0)" xlink:href="#aJ"/><use transform="matrix(0.03765432098765432,0,0,0.03765432098765432,22.59259259259259,0)" xlink:href="#aT"/></g><g id="L"><use transform="matrix(0.03765432098765432,0,0,0.03765432098765432,0,0)" xlink:href="#bb"/><use transform="matrix(0.03765432098765432,0,0,0.03765432098765432,3.765432098765432,0)" xlink:href="#aR"/><use transform="matrix(0.03765432098765432,0,0,0.03765432098765432,8.246296296296297,0)" xlink:href="#aO"/><use transform="matrix(0.03765432098765432,0,0,0.03765432098765432,15.77716049382716,0)" xlink:href="#aE"/><use transform="matrix(0.03765432098765432,0,0,0.03765432098765432,18.751851851851853,0)" xlink:href="#aD"/><use transform="matrix(0.03765432098765432,0,0,0.03765432098765432,26.282716049382717,0)" xlink:href="#aG"/><use transform="matrix(0.03765432098765432,0,0,0.03765432098765432,33.81358024691358,0)" xlink:href="#aS"/><use transform="matrix(0.03765432098765432,0,0,0.03765432098765432,45.07222222222223,0)" xlink:href="#aO"/><use transform="matrix(0.03765432098765432,0,0,0.03765432098765432,52.60308641975308,0)" xlink:href="#aD"/><use transform="matrix(0.03765432098765432,0,0,0.03765432098765432,60.13395061728394,0)" xlink:href="#bb"/><use transform="matrix(0.03765432098765432,0,0,0.03765432098765432,63.899382716049374,0)" xlink:href="#aJ"/></g><g id="M"><use transform="matrix(0.03765432098765432,0,0,0.03765432098765432,0,0)" xlink:href="#aN"/><use transform="matrix(0.03765432098765432,0,0,0.03765432098765432,7.530864197530864,0)" xlink:href="#aG"/></g><g id="N"><use transform="matrix(0.03765432098765432,0,0,0.03765432098765432,0,0)" xlink:href="#aR"/><use transform="matrix(0.03765432098765432,0,0,0.03765432098765432,4.480864197530864,0)" xlink:href="#aO"/><use transform="matrix(0.03765432098765432,0,0,0.03765432098765432,12.011728395061727,0)" xlink:href="#aN"/><use transform="matrix(0.03765432098765432,0,0,0.03765432098765432,19.54259259259259,0)" xlink:href="#aO"/></g><g id="O"><use transform="matrix(0.03765432098765432,0,0,0.03765432098765432,0,0)" xlink:href="#aD"/><use transform="matrix(0.03765432098765432,0,0,0.03765432098765432,7.530864197530864,0)" xlink:href="#aO"/><use transform="matrix(0.03765432098765432,0,0,0.03765432098765432,15.061728395061728,0)" xlink:href="#aL"/><use transform="matrix(0.03765432098765432,0,0,0.03765432098765432,22.59259259259259,0)" xlink:href="#aR"/><use transform="matrix(0.03765432098765432,0,0,0.03765432098765432,27.073456790123455,0)" xlink:href="#aG"/><use transform="matrix(0.03765432098765432,0,0,0.03765432098765432,34.60432098765432,0)" xlink:href="#aH"/></g><g id="P"><use transform="matrix(0.03765432098765432,0,0,0.03765432098765432,0,0)" xlink:href="#ba"/><use transform="matrix(0.03765432098765432,0,0,0.03765432098765432,9.752469135802468,0)" xlink:href="#aJ"/><use transform="matrix(0.03765432098765432,0,0,0.03765432098765432,17.28333333333333,0)" xlink:href="#aS"/><use transform="matrix(0.03765432098765432,0,0,0.03765432098765432,28.541975308641973,0)" xlink:href="#bf"/><use transform="matrix(0.03765432098765432,0,0,0.03765432098765432,36.07283950617284,0)" xlink:href="#aR"/><use transform="matrix(0.03765432098765432,0,0,0.03765432098765432,40.5537037037037,0)" xlink:href="#aG"/><use transform="matrix(0.03765432098765432,0,0,0.03765432098765432,48.084567901234564,0)" xlink:href="#aR"/><use transform="matrix(0.03765432098765432,0,0,0.03765432098765432,52.56543209876543,0)" xlink:href="#aG"/></g><g id="Q"><use transform="matrix(0.03765432098765432,0,0,0.03765432098765432,0,0)" xlink:href="#aF"/><use transform="matrix(0.03765432098765432,0,0,0.03765432098765432,6.777777777777777,0)" xlink:href="#aJ"/><use transform="matrix(0.03765432098765432,0,0,0.03765432098765432,14.30864197530864,0)" xlink:href="#aS"/></g><g id="R"><use transform="matrix(0.03765432098765432,0,0,0.03765432098765432,0,0)" xlink:href="#aG"/><use transform="matrix(0.03765432098765432,0,0,0.03765432098765432,7.530864197530864,0)" xlink:href="#aT"/></g><g id="S"><use transform="matrix(0.03765432098765432,0,0,0.03765432098765432,0,0)" xlink:href="#aK"/><use transform="matrix(0.03765432098765432,0,0,0.03765432098765432,3.765432098765432,0)" xlink:href="#aG"/><use transform="matrix(0.03765432098765432,0,0,0.03765432098765432,11.296296296296296,0)" xlink:href="#aF"/><use transform="matrix(0.03765432098765432,0,0,0.03765432098765432,18.074074074074073,0)" xlink:href="#aO"/><use transform="matrix(0.03765432098765432,0,0,0.03765432098765432,25.604938271604937,0)" xlink:href="#aT"/></g><g id="T"><use transform="matrix(0.03765432098765432,0,0,0.03765432098765432,0,0)" xlink:href="#aG"/><use transform="matrix(0.03765432098765432,0,0,0.03765432098765432,7.530864197530864,0)" xlink:href="#aR"/><use transform="matrix(0.03765432098765432,0,0,0.03765432098765432,12.011728395061727,0)" xlink:href="#aS"/><use transform="matrix(0.03765432098765432,0,0,0.03765432098765432,23.27037037037037,0)" xlink:href="#aG"/><use transform="matrix(0.03765432098765432,0,0,0.03765432098765432,30.801234567901233,0)" xlink:href="#aI"/><use transform="matrix(0.03765432098765432,0,0,0.03765432098765432,37.57901234567901,0)" xlink:href="#aO"/><use transform="matrix(0.03765432098765432,0,0,0.03765432098765432,45.10987654320988,0)" xlink:href="#aD"/><use transform="matrix(0.03765432098765432,0,0,0.03765432098765432,52.64074074074074,0)" xlink:href="#aG"/><use transform="matrix(0.03765432098765432,0,0,0.03765432098765432,60.1716049382716,0)" xlink:href="#aN"/><use transform="matrix(0.03765432098765432,0,0,0.03765432098765432,67.70246913580246,0)" xlink:href="#aG"/><use transform="matrix(0.03765432098765432,0,0,0.03765432098765432,75.23333333333332,0)" xlink:href="#aT"/></g><g id="U"><use transform="matrix(0.03765432098765432,0,0,0.03765432098765432,0,0)" xlink:href="#aF"/><use transform="matrix(0.03765432098765432,0,0,0.03765432098765432,6.777777777777777,0)" xlink:href="#aJ"/><use transform="matrix(0.03765432098765432,0,0,0.03765432098765432,14.30864197530864,0)" xlink:href="#aD"/><use transform="matrix(0.03765432098765432,0,0,0.03765432098765432,21.83950617283951,0)" xlink:href="#bo"/><use transform="matrix(0.03765432098765432,0,0,0.03765432098765432,24.8141975308642,0)" xlink:href="#aL"/><use transform="matrix(0.03765432098765432,0,0,0.03765432098765432,32.345061728395066,0)" xlink:href="#aD"/><use transform="matrix(0.03765432098765432,0,0,0.03765432098765432,39.875925925925934,0)" xlink:href="#bb"/><use transform="matrix(0.03765432098765432,0,0,0.03765432098765432,43.64135802469136,0)" xlink:href="#aJ"/></g><g id="V"><use transform="matrix(0.03765432098765432,0,0,0.03765432098765432,0,0)" xlink:href="#bp"/><use transform="matrix(0.03765432098765432,0,0,0.03765432098765432,7.530864197530864,0)" xlink:href="#bq"/><use transform="matrix(0.03765432098765432,0,0,0.03765432098765432,15.061728395061728,0)" xlink:href="#br"/><use transform="matrix(0.03765432098765432,0,0,0.03765432098765432,22.59259259259259,0)" xlink:href="#bs"/><use transform="matrix(0.03765432098765432,0,0,0.03765432098765432,27.073456790123455,0)" xlink:href="#aN"/></g><path d="M30-248c118-7 216 8 213 122C240-48 200 0 122 0H30v-248zM63-27c89 8 146-16 146-99s-60-101-146-95v194" id="bu"/><g id="W"><use transform="matrix(0.03765432098765432,0,0,0.03765432098765432,0,0)" xlink:href="#bu"/><use transform="matrix(0.03765432098765432,0,0,0.03765432098765432,9.752469135802468,0)" xlink:href="#aO"/><use transform="matrix(0.03765432098765432,0,0,0.03765432098765432,17.28333333333333,0)" xlink:href="#bb"/><use transform="matrix(0.03765432098765432,0,0,0.03765432098765432,21.048765432098765,0)" xlink:href="#aO"/><use transform="matrix(0.03765432098765432,0,0,0.03765432098765432,28.579629629629625,0)" xlink:href="#aF"/><use transform="matrix(0.03765432098765432,0,0,0.03765432098765432,35.3574074074074,0)" xlink:href="#bb"/><use transform="matrix(0.03765432098765432,0,0,0.03765432098765432,39.12283950617283,0)" xlink:href="#aJ"/><use transform="matrix(0.03765432098765432,0,0,0.03765432098765432,46.6537037037037,0)" xlink:href="#aL"/></g><g id="X"><use transform="matrix(0.03765432098765432,0,0,0.03765432098765432,0,0)" xlink:href="#aK"/><use transform="matrix(0.03765432098765432,0,0,0.03765432098765432,3.765432098765432,0)" xlink:href="#aG"/><use transform="matrix(0.03765432098765432,0,0,0.03765432098765432,11.296296296296296,0)" xlink:href="#aF"/><use transform="matrix(0.03765432098765432,0,0,0.03765432098765432,18.074074074074073,0)" xlink:href="#aO"/></g><g id="Y"><use transform="matrix(0.03765432098765432,0,0,0.03765432098765432,0,0)" xlink:href="#aF"/><use transform="matrix(0.03765432098765432,0,0,0.03765432098765432,6.777777777777777,0)" xlink:href="#aJ"/><use transform="matrix(0.03765432098765432,0,0,0.03765432098765432,14.30864197530864,0)" xlink:href="#aD"/><use transform="matrix(0.03765432098765432,0,0,0.03765432098765432,21.83950617283951,0)" xlink:href="#bb"/><use transform="matrix(0.03765432098765432,0,0,0.03765432098765432,25.604938271604937,0)" xlink:href="#aE"/><use transform="matrix(0.03765432098765432,0,0,0.03765432098765432,28.579629629629625,0)" xlink:href="#aN"/><use transform="matrix(0.03765432098765432,0,0,0.03765432098765432,36.1104938271605,0)" xlink:href="#aG"/></g><g id="Z"><use transform="matrix(0.03765432098765432,0,0,0.03765432098765432,0,0)" xlink:href="#aN"/><use transform="matrix(0.03765432098765432,0,0,0.03765432098765432,7.530864197530864,0)" xlink:href="#aG"/><use transform="matrix(0.03765432098765432,0,0,0.03765432098765432,15.061728395061728,0)" xlink:href="#aN"/><use transform="matrix(0.03765432098765432,0,0,0.03765432098765432,22.59259259259259,0)" xlink:href="#aJ"/><use transform="matrix(0.03765432098765432,0,0,0.03765432098765432,30.123456790123456,0)" xlink:href="#aT"/><use transform="matrix(0.03765432098765432,0,0,0.03765432098765432,36.901234567901234,0)" xlink:href="#bn"/></g><path d="M185-189c-5-48-123-54-124 2 14 75 158 14 163 119 3 78-121 87-175 55-17-10-28-26-33-46l33-7c5 56 141 63 141-1 0-78-155-14-162-118-5-82 145-84 179-34 5 7 8 16 11 25" id="bv"/><g id="aa"><use transform="matrix(0.05,0,0,0.05,0,0)" xlink:href="#bv"/><use transform="matrix(0.05,0,0,0.05,12,0)" xlink:href="#aE"/><use transform="matrix(0.05,0,0,0.05,15.949999999999998,0)" xlink:href="#aS"/></g><path d="M190 0L58-211 59 0H30v-248h39L202-35l-2-213h31V0h-41" id="bw"/><path d="M141-36C126-15 110 5 73 4 37 3 15-17 15-53c-1-64 63-63 125-63 3-35-9-54-41-54-24 1-41 7-42 31l-33-3c5-37 33-52 76-52 45 0 72 20 72 64v82c-1 20 7 32 28 27v20c-31 9-61-2-59-35zM48-53c0 20 12 33 32 33 41-3 63-29 60-74-43 2-92-5-92 41zm117-205c-3 23-9 48-36 47-26-1-65-44-74 0H39c4-23 8-48 36-47s64 44 74 0h16" id="bx"/><g id="ab"><use transform="matrix(0.05,0,0,0.05,0,0)" xlink:href="#bw"/><use transform="matrix(0.05,0,0,0.05,12.950000000000001,0)" xlink:href="#bx"/><use transform="matrix(0.05,0,0,0.05,22.950000000000003,0)" xlink:href="#aJ"/></g><g id="ac"><use transform="matrix(0.03765432098765432,0,0,0.03765432098765432,0,0)" xlink:href="#ba"/><use transform="matrix(0.03765432098765432,0,0,0.03765432098765432,9.752469135802468,0)" xlink:href="#aR"/><use transform="matrix(0.03765432098765432,0,0,0.03765432098765432,14.23333333333333,0)" xlink:href="#aE"/><use transform="matrix(0.03765432098765432,0,0,0.03765432098765432,17.208024691358023,0)" xlink:href="#aG"/></g><g id="ad"><use transform="matrix(0.03765432098765432,0,0,0.03765432098765432,0,0)" xlink:href="#aL"/><use transform="matrix(0.03765432098765432,0,0,0.03765432098765432,7.530864197530864,0)" xlink:href="#aS"/></g><path d="M141-36C126-15 110 5 73 4 37 3 15-17 15-53c-1-64 63-63 125-63 3-35-9-54-41-54-24 1-41 7-42 31l-33-3c5-37 33-52 76-52 45 0 72 20 72 64v82c-1 20 7 32 28 27v20c-31 9-61-2-59-35zM48-53c0 20 12 33 32 33 41-3 63-29 60-74-43 2-92-5-92 41zm25-158c8-23 27-35 38-54h36v5l-58 49H73" id="by"/><g id="ae"><use transform="matrix(0.03765432098765432,0,0,0.03765432098765432,0,0)" xlink:href="#aN"/><use transform="matrix(0.03765432098765432,0,0,0.03765432098765432,7.530864197530864,0)" xlink:href="#aE"/><use transform="matrix(0.03765432098765432,0,0,0.03765432098765432,10.505555555555555,0)" xlink:href="#aF"/><use transform="matrix(0.03765432098765432,0,0,0.03765432098765432,17.28333333333333,0)" xlink:href="#aE"/><use transform="matrix(0.03765432098765432,0,0,0.03765432098765432,20.258024691358024,0)" xlink:href="#aJ"/><use transform="matrix(0.03765432098765432,0,0,0.03765432098765432,27.788888888888888,0)" xlink:href="#aD"/><use transform="matrix(0.03765432098765432,0,0,0.03765432098765432,35.31975308641975,0)" xlink:href="#by"/><use transform="matrix(0.03765432098765432,0,0,0.03765432098765432,42.85061728395061,0)" xlink:href="#aR"/><use transform="matrix(0.03765432098765432,0,0,0.03765432098765432,47.331481481481475,0)" xlink:href="#aE"/><use transform="matrix(0.03765432098765432,0,0,0.03765432098765432,50.30617283950617,0)" xlink:href="#aJ"/></g><g id="af"><use transform="matrix(0.03765432098765432,0,0,0.03765432098765432,0,0)" xlink:href="#aF"/><use transform="matrix(0.03765432098765432,0,0,0.03765432098765432,6.777777777777777,0)" xlink:href="#aJ"/><use transform="matrix(0.03765432098765432,0,0,0.03765432098765432,14.30864197530864,0)" xlink:href="#aD"/><use transform="matrix(0.03765432098765432,0,0,0.03765432098765432,21.83950617283951,0)" xlink:href="#bb"/><use transform="matrix(0.03765432098765432,0,0,0.03765432098765432,25.604938271604937,0)" xlink:href="#aG"/><use transform="matrix(0.03765432098765432,0,0,0.03765432098765432,33.1358024691358,0)" xlink:href="#bg"/><use transform="matrix(0.03765432098765432,0,0,0.03765432098765432,40.66666666666666,0)" xlink:href="#aO"/><use transform="matrix(0.03765432098765432,0,0,0.03765432098765432,48.19753086419752,0)" xlink:href="#aS"/></g><g id="ag"><use transform="matrix(0.03765432098765432,0,0,0.03765432098765432,0,0)" xlink:href="#aN"/><use transform="matrix(0.03765432098765432,0,0,0.03765432098765432,7.530864197530864,0)" xlink:href="#aG"/><use transform="matrix(0.03765432098765432,0,0,0.03765432098765432,15.061728395061728,0)" xlink:href="#aT"/></g><g id="ah"><use transform="matrix(0.03765432098765432,0,0,0.03765432098765432,0,0)" xlink:href="#aK"/><use transform="matrix(0.03765432098765432,0,0,0.03765432098765432,3.765432098765432,0)" xlink:href="#aG"/><use transform="matrix(0.03765432098765432,0,0,0.03765432098765432,11.296296296296296,0)" xlink:href="#aF"/><use transform="matrix(0.03765432098765432,0,0,0.03765432098765432,18.074074074074073,0)" xlink:href="#aO"/><use transform="matrix(0.03765432098765432,0,0,0.03765432098765432,25.604938271604937,0)" xlink:href="#aT"/></g><g id="ai"><use transform="matrix(0.03765432098765432,0,0,0.03765432098765432,0,0)" xlink:href="#aO"/><use transform="matrix(0.03765432098765432,0,0,0.03765432098765432,7.530864197530864,0)" xlink:href="#aD"/><use transform="matrix(0.03765432098765432,0,0,0.03765432098765432,15.061728395061728,0)" xlink:href="#aF"/><use transform="matrix(0.03765432098765432,0,0,0.03765432098765432,21.83950617283951,0)" xlink:href="#aJ"/><use transform="matrix(0.03765432098765432,0,0,0.03765432098765432,29.37037037037037,0)" xlink:href="#aD"/><use transform="matrix(0.03765432098765432,0,0,0.03765432098765432,36.901234567901234,0)" xlink:href="#bb"/><use transform="matrix(0.03765432098765432,0,0,0.03765432098765432,40.666666666666664,0)" xlink:href="#aR"/><use transform="matrix(0.03765432098765432,0,0,0.03765432098765432,45.14753086419753,0)" xlink:href="#aG"/><use transform="matrix(0.03765432098765432,0,0,0.03765432098765432,52.6783950617284,0)" xlink:href="#aN"/><use transform="matrix(0.03765432098765432,0,0,0.03765432098765432,60.209259259259255,0)" xlink:href="#aG"/><use transform="matrix(0.03765432098765432,0,0,0.03765432098765432,67.74012345679012,0)" xlink:href="#aT"/></g><g id="aj"><use transform="matrix(0.039506172839506165,0,0,0.039506172839506165,0,0)" xlink:href="#aN"/><use transform="matrix(0.039506172839506165,0,0,0.039506172839506165,7.901234567901233,0)" xlink:href="#aO"/><use transform="matrix(0.039506172839506165,0,0,0.039506172839506165,15.802469135802466,0)" xlink:href="#bb"/><use transform="matrix(0.039506172839506165,0,0,0.039506172839506165,19.75308641975308,0)" xlink:href="#aO"/><use transform="matrix(0.039506172839506165,0,0,0.039506172839506165,27.654320987654316,0)" xlink:href="#aR"/><use transform="matrix(0.039506172839506165,0,0,0.039506172839506165,32.35555555555555,0)" xlink:href="#aS"/><use transform="matrix(0.039506172839506165,0,0,0.039506172839506165,44.16790123456789,0)" xlink:href="#aE"/><use transform="matrix(0.039506172839506165,0,0,0.039506172839506165,47.28888888888888,0)" xlink:href="#aD"/><use transform="matrix(0.039506172839506165,0,0,0.039506172839506165,55.19012345679011,0)" xlink:href="#aG"/></g><use transform="matrix(0.039506172839506165,0,0,0.039506172839506165,0,0)" xlink:href="#aG" id="ak"/><g id="al"><use transform="matrix(0.039506172839506165,0,0,0.039506172839506165,0,0)" xlink:href="#aK"/><use transform="matrix(0.039506172839506165,0,0,0.039506172839506165,3.9506172839506166,0)" xlink:href="#aG"/><use transform="matrix(0.039506172839506165,0,0,0.039506172839506165,11.85185185185185,0)" xlink:href="#aF"/><use transform="matrix(0.039506172839506165,0,0,0.039506172839506165,18.96296296296296,0)" xlink:href="#aO"/></g><g id="am"><use transform="matrix(0.039506172839506165,0,0,0.039506172839506165,0,0)" xlink:href="#aR"/><use transform="matrix(0.039506172839506165,0,0,0.039506172839506165,4.701234567901234,0)" xlink:href="#aO"/><use transform="matrix(0.039506172839506165,0,0,0.039506172839506165,12.602469135802467,0)" xlink:href="#aF"/><use transform="matrix(0.039506172839506165,0,0,0.039506172839506165,19.713580246913576,0)" xlink:href="#aJ"/><use transform="matrix(0.039506172839506165,0,0,0.039506172839506165,27.61481481481481,0)" xlink:href="#aD"/><use transform="matrix(0.039506172839506165,0,0,0.039506172839506165,35.51604938271604,0)" xlink:href="#bl"/><use transform="matrix(0.039506172839506165,0,0,0.039506172839506165,43.417283950617275,0)" xlink:href="#aO"/><use transform="matrix(0.039506172839506165,0,0,0.039506172839506165,51.31851851851851,0)" xlink:href="#aF"/><use transform="matrix(0.039506172839506165,0,0,0.039506172839506165,58.429629629629616,0)" xlink:href="#aE"/><use transform="matrix(0.039506172839506165,0,0,0.039506172839506165,61.550617283950594,0)" xlink:href="#aN"/><use transform="matrix(0.039506172839506165,0,0,0.039506172839506165,69.45185185185183,0)" xlink:href="#aG"/></g><g id="an"><use transform="matrix(0.039506172839506165,0,0,0.039506172839506165,0,0)" xlink:href="#aF"/><use transform="matrix(0.039506172839506165,0,0,0.039506172839506165,7.11111111111111,0)" xlink:href="#aJ"/><use transform="matrix(0.039506172839506165,0,0,0.039506172839506165,15.012345679012343,0)" xlink:href="#aS"/></g><use transform="matrix(0.039506172839506165,0,0,0.039506172839506165,0,0)" xlink:href="#aJ" id="ao"/><g id="ap"><use transform="matrix(0.039506172839506165,0,0,0.039506172839506165,0,0)" xlink:href="#aS"/><use transform="matrix(0.039506172839506165,0,0,0.039506172839506165,11.812345679012344,0)" xlink:href="#aG"/><use transform="matrix(0.039506172839506165,0,0,0.039506172839506165,19.713580246913576,0)" xlink:href="#aE"/><use transform="matrix(0.039506172839506165,0,0,0.039506172839506165,22.834567901234564,0)" xlink:href="#aJ"/><use transform="matrix(0.039506172839506165,0,0,0.039506172839506165,30.735802469135795,0)" xlink:href="#aR"/></g><path d="M85 4C-4 8 31-112 24-190h32v120c0 31 7 50 39 49 72-2 45-101 50-169h31l1 190h-30c-1-10 1-25-2-33-11 22-28 36-60 37zM73-211c8-23 27-35 38-54h36v5l-58 49H73" id="bz"/><g id="aq"><use transform="matrix(0.039506172839506165,0,0,0.039506172839506165,0,0)" xlink:href="#aD"/><use transform="matrix(0.039506172839506165,0,0,0.039506172839506165,7.901234567901233,0)" xlink:href="#bz"/><use transform="matrix(0.039506172839506165,0,0,0.039506172839506165,15.802469135802466,0)" xlink:href="#aS"/><use transform="matrix(0.039506172839506165,0,0,0.039506172839506165,27.61481481481481,0)" xlink:href="#aO"/><use transform="matrix(0.039506172839506165,0,0,0.039506172839506165,35.51604938271604,0)" xlink:href="#aR"/><use transform="matrix(0.039506172839506165,0,0,0.039506172839506165,40.21728395061727,0)" xlink:href="#aJ"/></g><g id="ar"><use transform="matrix(0.039506172839506165,0,0,0.039506172839506165,0,0)" xlink:href="#aN"/><use transform="matrix(0.039506172839506165,0,0,0.039506172839506165,7.901234567901233,0)" xlink:href="#aO"/></g><g id="as"><use transform="matrix(0.039506172839506165,0,0,0.039506172839506165,0,0)" xlink:href="#aP"/><use transform="matrix(0.039506172839506165,0,0,0.039506172839506165,7.11111111111111,0)" xlink:href="#aJ"/><use transform="matrix(0.039506172839506165,0,0,0.039506172839506165,15.012345679012343,0)" xlink:href="#bb"/><use transform="matrix(0.039506172839506165,0,0,0.039506172839506165,18.96296296296296,0)" xlink:href="#aJ"/><use transform="matrix(0.039506172839506165,0,0,0.039506172839506165,26.864197530864192,0)" xlink:href="#aT"/></g><g id="at"><use transform="matrix(0.03765432098765432,0,0,0.03765432098765432,0,0)" xlink:href="#bu"/><use transform="matrix(0.03765432098765432,0,0,0.03765432098765432,9.752469135802468,0)" xlink:href="#aO"/><use transform="matrix(0.03765432098765432,0,0,0.03765432098765432,17.28333333333333,0)" xlink:href="#aT"/><use transform="matrix(0.03765432098765432,0,0,0.03765432098765432,24.06111111111111,0)" xlink:href="#aO"/><use transform="matrix(0.03765432098765432,0,0,0.03765432098765432,31.591975308641974,0)" xlink:href="#aD"/><use transform="matrix(0.03765432098765432,0,0,0.03765432098765432,39.12283950617284,0)" xlink:href="#bl"/><use transform="matrix(0.03765432098765432,0,0,0.03765432098765432,46.6537037037037,0)" xlink:href="#aG"/></g><path d="M141-36C126-15 110 5 73 4 37 3 15-17 15-53c-1-64 63-63 125-63 3-35-9-54-41-54-24 1-41 7-42 31l-33-3c5-37 33-52 76-52 45 0 72 20 72 64v82c-1 20 7 32 28 27v20c-31 9-61-2-59-35zM48-53c0 20 12 33 32 33 41-3 63-29 60-74-43 2-92-5-92 41zm67-209c12 18 30 30 39 51-31 2-38-20-57-30-20 10-27 32-59 30 9-22 29-33 41-51h36" id="bA"/><g id="au"><use transform="matrix(0.03765432098765432,0,0,0.03765432098765432,0,0)" xlink:href="#aR"/><use transform="matrix(0.03765432098765432,0,0,0.03765432098765432,4.480864197530864,0)" xlink:href="#aO"/><use transform="matrix(0.03765432098765432,0,0,0.03765432098765432,12.011728395061727,0)" xlink:href="#bb"/><use transform="matrix(0.03765432098765432,0,0,0.03765432098765432,15.777160493827159,0)" xlink:href="#bA"/><use transform="matrix(0.03765432098765432,0,0,0.03765432098765432,23.30802469135802,0)" xlink:href="#aD"/><use transform="matrix(0.03765432098765432,0,0,0.03765432098765432,30.838888888888885,0)" xlink:href="#bg"/><use transform="matrix(0.03765432098765432,0,0,0.03765432098765432,38.36975308641975,0)" xlink:href="#aL"/><use transform="matrix(0.03765432098765432,0,0,0.03765432098765432,45.900617283950616,0)" xlink:href="#aH"/><use transform="matrix(0.03765432098765432,0,0,0.03765432098765432,48.8753086419753,0)" xlink:href="#aJ"/></g><g id="av"><use transform="matrix(0.03765432098765432,0,0,0.03765432098765432,0,0)" xlink:href="#aO"/><use transform="matrix(0.03765432098765432,0,0,0.03765432098765432,7.530864197530864,0)" xlink:href="#aS"/></g><g id="aw"><use transform="matrix(0.03765432098765432,0,0,0.03765432098765432,0,0)" xlink:href="#bb"/><use transform="matrix(0.03765432098765432,0,0,0.03765432098765432,3.765432098765432,0)" xlink:href="#aJ"/><use transform="matrix(0.03765432098765432,0,0,0.03765432098765432,11.296296296296296,0)" xlink:href="#aR"/><use transform="matrix(0.03765432098765432,0,0,0.03765432098765432,15.77716049382716,0)" xlink:href="#aD"/><use transform="matrix(0.03765432098765432,0,0,0.03765432098765432,23.30802469135803,0)" xlink:href="#aJ"/></g><g id="ax"><use transform="matrix(0.03765432098765432,0,0,0.03765432098765432,0,0)" xlink:href="#aD"/><use transform="matrix(0.03765432098765432,0,0,0.03765432098765432,7.530864197530864,0)" xlink:href="#aJ"/><use transform="matrix(0.03765432098765432,0,0,0.03765432098765432,15.061728395061728,0)" xlink:href="#aS"/><use transform="matrix(0.03765432098765432,0,0,0.03765432098765432,26.32037037037037,0)" xlink:href="#aO"/></g><g id="ay"><use transform="matrix(0.03765432098765432,0,0,0.03765432098765432,0,0)" xlink:href="#bf"/><use transform="matrix(0.03765432098765432,0,0,0.03765432098765432,7.530864197530864,0)" xlink:href="#aO"/><use transform="matrix(0.03765432098765432,0,0,0.03765432098765432,15.061728395061728,0)" xlink:href="#aT"/><use transform="matrix(0.03765432098765432,0,0,0.03765432098765432,21.83950617283951,0)" xlink:href="#aT"/><use transform="matrix(0.03765432098765432,0,0,0.03765432098765432,28.617283950617285,0)" xlink:href="#aJ"/><use transform="matrix(0.03765432098765432,0,0,0.03765432098765432,36.14814814814815,0)" xlink:href="#aG"/></g><path d="M240 0l2-218c-23 76-54 145-80 218h-23L58-218 59 0H30v-248h44l77 211c21-75 51-140 76-211h43V0h-30" id="bB"/><g id="az"><use transform="matrix(0.03765432098765432,0,0,0.03765432098765432,0,0)" xlink:href="#bB"/><use transform="matrix(0.03765432098765432,0,0,0.03765432098765432,11.258641975308642,0)" xlink:href="#aJ"/><use transform="matrix(0.03765432098765432,0,0,0.03765432098765432,18.789506172839506,0)" xlink:href="#aT"/><use transform="matrix(0.03765432098765432,0,0,0.03765432098765432,25.56728395061728,0)" xlink:href="#bb"/><use transform="matrix(0.03765432098765432,0,0,0.03765432098765432,29.33271604938271,0)" xlink:href="#aR"/><use transform="matrix(0.03765432098765432,0,0,0.03765432098765432,33.813580246913574,0)" xlink:href="#aG"/></g><g id="aA"><use transform="matrix(0.03765432098765432,0,0,0.03765432098765432,0,0)" xlink:href="#aD"/><use transform="matrix(0.03765432098765432,0,0,0.03765432098765432,7.530864197530864,0)" xlink:href="#aG"/></g><g id="aB"><use transform="matrix(0.03765432098765432,0,0,0.03765432098765432,0,0)" xlink:href="#bb"/><use transform="matrix(0.03765432098765432,0,0,0.03765432098765432,3.765432098765432,0)" xlink:href="#aO"/><use transform="matrix(0.03765432098765432,0,0,0.03765432098765432,11.296296296296296,0)" xlink:href="#aH"/><use transform="matrix(0.03765432098765432,0,0,0.03765432098765432,14.270987654320987,0)" xlink:href="#aG"/></g></defs></g></svg>