<svg xmlns="http://www.w3.org/2000/svg" xmlns:xlink="http://www.w3.org/1999/xlink" xmlns:lucid="lucid" width="966.2" height="1137.75"><g transform="translate(-714.6999999999996 1.3333333333333712)" lucid:page-tab-id="0_0"><path d="M1476.22 366.37c0 81.87-66.08 148.24-147.6 148.24-81.5 0-147.6-66.36-147.6-148.23 0-81.87 66.1-148.24 147.6-148.24 81.52 0 147.6 66.37 147.6 148.24z" stroke="#ef8d22" stroke-width="3" fill="#ef8d22" fill-opacity=".4"/><path d="M1240 238.13h199.15v80H1240z" stroke="#000" stroke-opacity="0" stroke-width="2" fill="#fff" fill-opacity="0"/><use xlink:href="#a" transform="matrix(1,0,0,1,1240,238.1349206349206) translate(10.421296296296305 53.78958222222222)"/><use xlink:href="#b" transform="matrix(1,0,0,1,1240,238.1349206349206) translate(49.82191358024692 53.78958222222222)"/><use xlink:href="#c" transform="matrix(1,0,0,1,1240,238.1349206349206) translate(63.802777777777784 53.78958222222222)"/><use xlink:href="#d" transform="matrix(1,0,0,1,1240,238.1349206349206) translate(109.82129629629631 53.78958222222222)"/><use xlink:href="#e" transform="matrix(1,0,0,1,1240,238.1349206349206) translate(132.5675925925926 53.78958222222222)"/><use xlink:href="#f" transform="matrix(1,0,0,1,1240,238.1349206349206) translate(60.58148148148148 72.72291555555556)"/><path d="M1640 548.24c0 81.86-66.08 148.23-147.6 148.23s-147.6-66.37-147.6-148.23c0-81.87 66.08-148.24 147.6-148.24S1640 466.37 1640 548.24z" stroke="#834187" stroke-width="3" fill="#834187" fill-opacity=".4"/><path d="M1439.15 508.24h199.15v80h-199.15z" stroke="#000" stroke-opacity="0" stroke-width="2" fill="#fff" fill-opacity="0"/><use xlink:href="#g" transform="matrix(1,0,0,1,1439.15,508.2352941176471) translate(20.742592592592587 34.58958222222222)"/><use xlink:href="#h" transform="matrix(1,0,0,1,1439.15,508.2352941176471) translate(93.27654320987655 34.58958222222222)"/><use xlink:href="#i" transform="matrix(1,0,0,1,1439.15,508.2352941176471) translate(106.4246913580247 34.58958222222222)"/><use xlink:href="#j" transform="matrix(1,0,0,1,1439.15,508.2352941176471) translate(160.72654320987655 34.58958222222222)"/><use xlink:href="#k" transform="matrix(1,0,0,1,1439.15,508.2352941176471) translate(4.592283950617286 53.52291555555556)"/><use xlink:href="#l" transform="matrix(1,0,0,1,1439.15,508.2352941176471) translate(111.2675925925926 53.52291555555556)"/><use xlink:href="#m" transform="matrix(1,0,0,1,1439.15,508.2352941176471) translate(63.14537037037037 72.4562488888889)"/><use xlink:href="#n" transform="matrix(1,0,0,1,1439.15,508.2352941176471) translate(100.79290123456789 72.4562488888889)"/><use xlink:href="#o" transform="matrix(1,0,0,1,1439.15,508.2352941176471) translate(113.94104938271605 72.4562488888889)"/><use xlink:href="#p" transform="matrix(1,0,0,1,1439.15,508.2352941176471) translate(127.0891975308642 72.4562488888889)"/><path d="M1476.22 728.24c0 81.86-66.08 148.23-147.6 148.23-81.5 0-147.6-66.37-147.6-148.23 0-81.87 66.1-148.24 147.6-148.24 81.52 0 147.6 66.37 147.6 148.24z" stroke="#19967d" stroke-width="3" fill="#19967d" fill-opacity=".4"/><path d="M1228.42 771.35h200.4v80h-200.4z" stroke="#000" stroke-opacity="0" stroke-width="2" fill="#fff" fill-opacity="0"/><use xlink:href="#q" transform="matrix(1,0,0,1,1228.425,771.3529411764705) translate(16.903703703703712 34.58958222222222)"/><use xlink:href="#r" transform="matrix(1,0,0,1,1228.425,771.3529411764705) translate(90.35802469135804 34.58958222222222)"/><use xlink:href="#s" transform="matrix(1,0,0,1,1228.425,771.3529411764705) translate(103.50617283950619 34.58958222222222)"/><use xlink:href="#t" transform="matrix(1,0,0,1,1228.425,771.3529411764705) translate(163.9 34.58958222222222)"/><use xlink:href="#u" transform="matrix(1,0,0,1,1228.425,771.3529411764705) translate(6.40709876543211 53.52291555555556)"/><use xlink:href="#v" transform="matrix(1,0,0,1,1228.425,771.3529411764705) translate(116.63240740740741 53.52291555555556)"/><use xlink:href="#w" transform="matrix(1,0,0,1,1228.425,771.3529411764705) translate(166.4638888888889 53.52291555555556)"/><use xlink:href="#x" transform="matrix(1,0,0,1,1228.425,771.3529411764705) translate(43.57253086419753 72.4562488888889)"/><use xlink:href="#y" transform="matrix(1,0,0,1,1228.425,771.3529411764705) translate(89.06512345679012 72.4562488888889)"/><use xlink:href="#z" transform="matrix(1,0,0,1,1228.425,771.3529411764705) translate(112.64413580246914 72.4562488888889)"/><path d="M1230.3 728.24c0 81.86-66.08 148.23-147.6 148.23S935.1 810.1 935.1 728.24c0-81.87 66.08-148.24 147.6-148.24s147.6 66.37 147.6 148.24z" stroke="#de5f85" stroke-width="3" fill="#de5f85" fill-opacity=".4"/><path d="M1055.2 551.76c0 81.87-66.08 148.24-147.6 148.24S760 633.63 760 551.76c0-81.86 66.08-148.23 147.6-148.23s147.6 66.37 147.6 148.23z" stroke="#0c7cba" stroke-width="3" fill="#0c7cba" fill-opacity=".4"/><path d="M734.7 60.67c0-1.1.9-2 2-2H978c1.1 0 2 .9 2 2V1114.4c0 1.12-.9 2-2 2H736.7c-1.1 0-2-.88-2-2z" fill="#fff" fill-opacity="0"/><path d="M743.74 58.67h6.03m4.02 0h6.02m4.03 0h6.03m4.02 0h6.03m4.02 0H790m4 0h6.04m4.02 0h6.04m4.02 0h6.03m4.02 0h6.03m4.03 0h6.03m4.02 0h6.03m4.03 0h6.04m4.02 0h6.02m4.02 0h6.03m4.03 0h6.03m4.02 0h6.03m4.02 0h6.04m4.02 0h6.03m4 0h6.05m4.02 0h6.03m4.02 0h6.03m4.03 0h6.03m4.03 0h6.03m4.02 0H978l1.4.58.6 1.42v3m0 4.02v6m0 4.03v6.02m0 4v6.03m0 4.02v6.02m0 4v6.04m0 4v6.03m0 4v6.03m0 4v6.03m0 4.02V154m0 4v6.03m0 4.02v6.02m0 4v6.04m0 4.02v6.02m0 4.02v6.02m0 4v6.03m0 4.03v6.02m0 4v6.03m0 4.02v6.02m0 4v6.04m0 4v6.03m0 4v6.03m0 4v6.03m0 4.02v6.02m0 4v6.03m0 4.02v6.02m0 4v6.04m0 4.02v6.02m0 4.02v6.02m0 4v6.03m0 4.03v6.02m0 4v6.03m0 4.02v6.02m0 4v6.04m0 4v6.03m0 4v6.03m0 4v6.03m0 4.02V435m0 4v6.03m0 4.02v6.02m0 4v6.03m0 4.02v6.02m0 4v6.04m0 4v6.03m0 4.03v6.02m0 4v6.03m0 4.02v6.02m0 4v6.03m0 4.02v6.02m0 4v6.03m0 4v6.03m0 4.02v6.02m0 4v6.03m0 4.02v6.02m0 4v6.03m0 4.02v6.02m0 4v6.04m0 4v6.03m0 4.03v6.02m0 4v6.03m0 4.02v6.02m0 4v6.03m0 4.02v6.02m0 4v6.03m0 4v6.03m0 4.02V716m0 4v6.03m0 4.02v6.02m0 4v6.03m0 4.02v6.02m0 4v6.04m0 4v6.03m0 4.03v6.02m0 4v6.03m0 4.02v6.02m0 4v6.03m0 4.02v6.02m0 4v6.03m0 4v6.03m0 4.02v6.02m0 4v6.03m0 4.02v6.02m0 4v6.03m0 4.02v6.02m0 4v6.04m0 4v6.03m0 4.03v6.02m0 4v6.03m0 4.02v6.02m0 4v6.03m0 4.02v6.02m0 4v6.03m0 4v6.03m0 4.02V997m0 4v6.03m0 4.02v6.02m0 4v6.03m0 4.02v6.02m0 4v6.03m0 4.02v6m0 4.02v6.03m0 4v6.03m0 4.02v6.02m0 4v6.03m0 4.02v6.02m0 4v3l-.6 1.43-1.4.58h-3.02m-4.02 0h-6.03m-4.02 0h-6.02m-4.03 0h-6.03m-4.02 0h-6.03m-4.02 0h-6.04m-4 0h-6.04m-4.02 0h-6.04m-4.02 0h-6.03m-4.02 0h-6.03m-4.03 0h-6.03m-4.02 0h-6.03m-4.03 0h-6.04m-4.02 0h-6.02m-4.02 0h-6.03m-4.03 0h-6.03m-4.02 0h-6.03m-4.02 0h-6.04m-4.02 0H794m-4 0h-6.05m-4.02 0h-6.03m-4.02 0h-6.03m-4.03 0h-6.03m-4.03 0h-6.03m-4.02 0h-3.02l-1.4-.57-.6-1.42v-3m0-4v-6.03m0-4.02v-6.02m0-4v-6.03m0-4.02v-6.02m0-4v-6.04m0-4v-6.03m0-4.03v-6.02m0-4v-6.03m0-4.02v-6.02m0-4v-6.03m0-4.02V1001m0-4v-6.02m0-4.02v-6.02m0-4v-6.04m0-4v-6.03m0-4.02v-6.02m0-4v-6.03m0-4.02v-6.02m0-4v-6.03m0-4.02v-6m0-4.02v-6.03m0-4v-6.03m0-4.02v-6.02m0-4v-6.03m0-4.02v-6.02m0-4v-6.02m0-4.02v-6.02m0-4v-6.04m0-4v-6.03m0-4.02v-6.02m0-4v-6.03m0-4.02v-6.02m0-4v-6.03m0-4.02v-6m0-4.02v-6.03m0-4v-6.03m0-4.02v-6.02m0-4v-6.03m0-4.02V720m0-4v-6.02m0-4.02v-6.02m0-4v-6.04m0-4v-6.03m0-4.02v-6.02m0-4v-6.03m0-4.02v-6.02m0-4v-6.03m0-4.02v-6m0-4.02v-6.03m0-4v-6.03m0-4.02v-6.02m0-4v-6.03m0-4.02v-6.02m0-4v-6.02m0-4.02v-6.02m0-4v-6.04m0-4v-6.03m0-4.02v-6.02m0-4v-6.03m0-4.02v-6.02m0-4v-6.03m0-4.02v-6m0-4.02v-6.03m0-4v-6.03m0-4.02v-6.02m0-4v-6.03m0-4.02V439m0-4v-6.02m0-4.02v-6.02m0-4v-6.03m0-4v-6.03m0-4v-6.04m0-4v-6.03m0-4.02v-6.02m0-4v-6.03m0-4.02v-6m0-4.02v-6.02m0-4.02v-6.02m0-4v-6.04m0-4v-6.03m0-4.02v-6.02m0-4v-6.02m0-4.02v-6.02m0-4v-6.03m0-4v-6.03m0-4v-6.04m0-4v-6.03m0-4.02v-6.02m0-4v-6.03m0-4.02v-6m0-4.02v-6.02m0-4.02v-6.02m0-4v-6.04m0-4v-6.03m0-4.02V158m0-4v-6.02m0-4.02v-6.02m0-4v-6.03m0-4v-6.03m0-4v-6.04m0-4V97.8m0-4.02v-6.02m0-4v-6.03m0-4.02v-6m0-4.02v-3l.6-1.43 1.4-.58h3.02" stroke="#c92d39" stroke-width="2" fill="none"/><path d="M980 60.67c0-1.1.9-2 2-2h676c1.1 0 2 .9 2 2V1114.4c0 1.12-.9 2-2 2H982c-1.1 0-2-.88-2-2z" fill="#fff" fill-opacity="0"/><path d="M988.96 58.67h5.96m3.98 0h5.96m3.98 0h5.97m3.98 0h5.97m3.97 0h5.97m3.96 0h5.97m3.98 0h5.97m3.98 0h5.96m4 0h5.95m3.98 0h5.96m3.97 0h5.97m3.97 0h5.98m3.97 0h5.97m3.97 0h5.96m3.98 0h5.96m3.98 0h5.96m3.98 0h5.96m3.98 0h5.96m3.98 0h5.96m3.98 0h5.97m3.98 0h5.97m3.97 0h5.97m3.96 0h5.97m3.98 0h5.97m3.98 0h5.96m4 0h5.95m3.98 0h5.96m3.97 0h5.97m3.97 0h5.98m3.97 0h5.97m3.97 0h5.96m3.98 0h5.96m3.98 0h5.96m3.98 0h5.96m3.98 0h5.96m3.98 0h5.96m3.98 0h5.97m3.98 0h5.97m3.97 0h5.97m3.96 0h5.97m3.98 0h5.97m3.98 0h5.96m4 0h5.95m3.98 0h5.96m3.97 0h5.97m3.97 0h5.98m3.97 0h5.97m3.97 0h5.96m3.98 0h5.96m3.98 0h5.96m3.98 0h5.96m3.98 0h5.96m3.98 0h5.96m3.98 0h5.97m3.98 0h5.97m3.97 0h5.97m3.96 0h5.97m3.98 0h5.97m3.98 0h5.96m4 0h5.95m3.98 0h5.96m3.97 0h5.97m3.97 0h5.98m3.97 0h5.97m3.97 0h5.96m3.98 0h5.96m3.98 0h5.96m3.98 0h2.98l1.4.58.6 1.42v3m0 4.02v6m0 4.03v6.02m0 4v6.03m0 4.02v6.02m0 4v6.04m0 4v6.03m0 4v6.03m0 4v6.03m0 4.02V154m0 4v6.03m0 4.02v6.02m0 4v6.04m0 4.02v6.02m0 4.02v6.02m0 4v6.03m0 4.03v6.02m0 4v6.03m0 4.02v6.02m0 4v6.04m0 4v6.03m0 4v6.03m0 4v6.03m0 4.02v6.02m0 4v6.03m0 4.02v6.02m0 4v6.04m0 4.02v6.02m0 4.02v6.02m0 4v6.03m0 4.03v6.02m0 4v6.03m0 4.02v6.02m0 4v6.04m0 4v6.03m0 4v6.03m0 4v6.03m0 4.02V435m0 4v6.03m0 4.02v6.02m0 4v6.03m0 4.02v6.02m0 4v6.04m0 4v6.03m0 4.03v6.02m0 4v6.03m0 4.02v6.02m0 4v6.03m0 4.02v6.02m0 4v6.03m0 4v6.03m0 4.02v6.02m0 4v6.03m0 4.02v6.02m0 4v6.03m0 4.02v6.02m0 4v6.04m0 4v6.03m0 4.03v6.02m0 4v6.03m0 4.02v6.02m0 4v6.03m0 4.02v6.02m0 4v6.03m0 4v6.03m0 4.02V716m0 4v6.03m0 4.02v6.02m0 4v6.03m0 4.02v6.02m0 4v6.04m0 4v6.03m0 4.03v6.02m0 4v6.03m0 4.02v6.02m0 4v6.03m0 4.02v6.02m0 4v6.03m0 4v6.03m0 4.02v6.02m0 4v6.03m0 4.02v6.02m0 4v6.03m0 4.02v6.02m0 4v6.04m0 4v6.03m0 4.03v6.02m0 4v6.03m0 4.02v6.02m0 4v6.03m0 4.02v6.02m0 4v6.03m0 4v6.03m0 4.02V997m0 4v6.03m0 4.02v6.02m0 4v6.03m0 4.02v6.02m0 4v6.03m0 4.02v6m0 4.02v6.03m0 4v6.03m0 4.02v6.02m0 4v6.03m0 4.02v6.02m0 4v3l-.6 1.43-1.4.58h-2.98m-3.98 0h-5.96m-3.98 0h-5.96m-3.98 0h-5.97m-3.98 0h-5.97m-3.97 0h-5.97m-3.96 0h-5.97m-3.98 0h-5.97m-3.98 0h-5.96m-4 0h-5.95m-3.98 0h-5.96m-3.97 0h-5.97m-3.97 0h-5.98m-3.97 0h-5.97m-3.97 0h-5.96m-3.98 0h-5.96m-3.98 0h-5.96m-3.98 0h-5.96m-3.98 0h-5.96m-3.98 0h-5.96m-3.98 0h-5.97m-3.98 0h-5.97m-3.97 0h-5.97m-3.96 0h-5.97m-3.98 0h-5.97m-3.98 0h-5.96m-4 0h-5.95m-3.98 0h-5.96m-3.97 0h-5.97m-3.97 0h-5.98m-3.97 0h-5.97m-3.97 0h-5.96m-3.98 0h-5.96m-3.98 0h-5.96m-3.98 0h-5.96m-3.98 0h-5.96m-3.98 0h-5.96m-3.98 0h-5.97m-3.98 0h-5.97m-3.97 0h-5.97m-3.96 0h-5.97m-3.98 0h-5.97m-3.98 0h-5.96m-4 0h-5.95m-3.98 0h-5.96m-3.97 0h-5.97m-3.97 0h-5.98m-3.97 0h-5.97m-3.97 0h-5.96m-3.98 0h-5.96m-3.98 0h-5.96m-3.98 0h-5.96m-3.98 0h-5.96m-3.98 0h-5.96m-3.98 0h-5.97m-3.98 0h-5.97m-3.97 0h-5.97m-3.96 0h-5.97m-3.98 0h-5.97m-3.98 0h-5.96m-4 0h-5.95m-3.98 0h-5.96m-3.97 0h-5.97m-3.97 0h-5.98m-3.97 0h-5.97m-3.97 0h-5.96m-3.98 0h-5.96m-3.98 0h-5.96m-3.98 0H982l-1.4-.57-.6-1.42v-3m0-4v-6.03m0-4.02v-6.02m0-4v-6.03m0-4.02v-6.02m0-4v-6.04m0-4v-6.03m0-4.03v-6.02m0-4v-6.03m0-4.02v-6.02m0-4v-6.03m0-4.02V1001m0-4v-6.02m0-4.02v-6.02m0-4v-6.04m0-4v-6.03m0-4.02v-6.02m0-4v-6.03m0-4.02v-6.02m0-4v-6.03m0-4.02v-6m0-4.02v-6.03m0-4v-6.03m0-4.02v-6.02m0-4v-6.03m0-4.02v-6.02m0-4v-6.02m0-4.02v-6.02m0-4v-6.04m0-4v-6.03m0-4.02v-6.02m0-4v-6.03m0-4.02v-6.02m0-4v-6.03m0-4.02v-6m0-4.02v-6.03m0-4v-6.03m0-4.02v-6.02m0-4v-6.03m0-4.02V720m0-4v-6.02m0-4.02v-6.02m0-4v-6.04m0-4v-6.03m0-4.02v-6.02m0-4v-6.03m0-4.02v-6.02m0-4v-6.03m0-4.02v-6m0-4.02v-6.03m0-4v-6.03m0-4.02v-6.02m0-4v-6.03m0-4.02v-6.02m0-4v-6.02m0-4.02v-6.02m0-4v-6.04m0-4v-6.03m0-4.02v-6.02m0-4v-6.03m0-4.02v-6.02m0-4v-6.03m0-4.02v-6m0-4.02v-6.03m0-4v-6.03m0-4.02v-6.02m0-4v-6.03m0-4.02V439m0-4v-6.02m0-4.02v-6.02m0-4v-6.03m0-4v-6.03m0-4v-6.04m0-4v-6.03m0-4.02v-6.02m0-4v-6.03m0-4.02v-6m0-4.02v-6.02m0-4.02v-6.02m0-4v-6.04m0-4v-6.03m0-4.02v-6.02m0-4v-6.02m0-4.02v-6.02m0-4v-6.03m0-4v-6.03m0-4v-6.04m0-4v-6.03m0-4.02v-6.02m0-4v-6.03m0-4.02v-6m0-4.02v-6.02m0-4.02v-6.02m0-4v-6.04m0-4v-6.03m0-4.02V158m0-4v-6.02m0-4.02v-6.02m0-4v-6.03m0-4v-6.03m0-4v-6.04m0-4V97.8m0-4.02v-6.02m0-4v-6.03m0-4.02v-6m0-4.02v-3l.6-1.43 1.4-.58h2.98" stroke="#4284f3" stroke-width="2" fill="none"/><path d="M1055.7 1100.83c-.9 1.6 0 3.63 1.93 4.35.5.24 1.05.32 1.6.32 1.46 0 2.83-.72 3.48-1.93l20.62-38 9.58 2.9 7.97-19.1 10.55 3.3c.32.1.64.17.88.17 1.05 0 1.94-.5 2.34-1.3l4.9-9.33c.57-1.04 0-2.4-1.28-2.9-1.3-.48-2.82 0-3.38 1.13l-3.95 7.4-36.55-12.15c-1.2-.48-2.66-.08-3.3.9l-5.56 8.53c-.72 1.05-.24 2.42.97 2.98.4.17.88.25 1.28.25.88 0 1.77-.4 2.25-1.13l4.35-6.7 9.74 3.8z" stroke="#000" stroke-opacity="0" stroke-width="1.98" fill="#f4efed"/><path d="M1066.5 1048.08c.4.17.88.25 1.28.25.56 0 1.04-.08 1.45-.4-1.05-.65-1.37-1.86-.73-2.82l5.56-8.53c.24-.24.48-.56.8-.73l-.48-.16c-1.2-.48-2.66-.08-3.3.9l-5.56 8.53c-.72 1.05-.24 2.42.97 2.98z" stroke="#000" stroke-opacity="0" stroke-width="1.98" fill="#fff"/><path d="M1060.2 1046.96h-15.7c-.4 0-.8-.32-.8-.65 0-.3.4-.63.8-.63h15.7c.4 0 .73.32.73.64 0 .34-.32.66-.72.66zM1052.72 1054.77h-12c-.4 0-.72-.24-.72-.65 0-.32.32-.64.72-.64h12c.48 0 .8.32.8.64 0 .4-.32.65-.8.65zM1060.2 1062.58h-15.7c-.4 0-.8-.24-.8-.64 0-.33.4-.65.8-.65h15.7c.4 0 .73.3.73.64 0 .4-.32.64-.72.64zM1052.72 1070.47h-12c-.4 0-.72-.32-.72-.64 0-.4.32-.65.72-.65h12c.48 0 .8.25.8.65 0 .32-.32.64-.8.64zM1060.2 1078.28h-15.7c-.4 0-.8-.32-.8-.64 0-.4.4-.64.8-.64h15.7c.4 0 .73.24.73.64 0 .32-.32.64-.72.64zM1052.72 1086.1h-12c-.4 0-.72-.33-.72-.65s.32-.64.72-.64h12c.48 0 .8.33.8.65s-.32.65-.8.65z" stroke="#000" stroke-opacity="0" stroke-width="1.98" fill="#690589"/><path d="M1118.26 1039.3c-.88-.32-1.85-.15-2.58.25.97.56 1.37 1.7.9 2.66l-4.92 9.35c-.16.4-.48.72-.9.88l.66.25c.32.08.64.16.88.16 1.05 0 1.94-.5 2.34-1.3l4.9-9.33c.57-1.04 0-2.4-1.28-2.9z" stroke="#000" stroke-opacity="0" stroke-width="1.98" fill="#d6d1cf"/><path d="M1059.24 1106.15c-.72 0-1.37-.16-1.93-.4-2.32-.9-3.3-3.23-2.24-5.16l28.02-55.98-8.38-3.3-4.02 6.2c-.57.9-1.7 1.45-2.9 1.45-.57 0-1.13-.08-1.6-.32-1.62-.8-2.2-2.5-1.3-3.87l5.55-8.45c.8-1.3 2.74-1.86 4.27-1.2l35.83 11.9 3.63-6.84c.8-1.46 2.73-2.1 4.42-1.46 1.6.65 2.42 2.34 1.6 3.8l-4.82 9.25c-.56 1.04-1.7 1.68-3.06 1.68-.32 0-.72-.08-1.12-.16l-9.9-3.14-7.66 18.52c-.16.32-.56.48-.96.32l-8.94-2.65-20.3 37.52c-.8 1.36-2.4 2.25-4.18 2.25zm15.14-66.28c.16 0 .24 0 .32.08l9.66 3.8c.4.15.57.47.4.8l-28.33 56.52c-.73 1.37-.1 2.9 1.53 3.55.4.16.8.24 1.28.24 1.2 0 2.26-.56 2.82-1.53l20.6-38v-.1c.17-.23.58-.4.9-.3l8.94 2.72 7.65-18.44c.08-.15.16-.3.4-.4.16-.07.4-.07.56 0l10.64 3.3c.16 0 .4.1.56.1.73 0 1.37-.4 1.7-.97l4.83-9.27c.48-.8 0-1.7-.9-2.1-.88-.3-2 0-2.4.82l-3.87 7.4c-.16.33-.56.5-.97.4l-36.56-12.23h-.08c-.8-.33-1.85 0-2.34.64l-5.55 8.53c-.5.72-.16 1.7.72 2.1.23.15.56.15.88.15.64 0 1.3-.24 1.6-.72l4.36-6.77c.16-.17.4-.33.64-.33zm-18.68 60.96z" stroke="#000" stroke-opacity="0" stroke-width="1.98" fill="#690589"/><path d="M1097 1043.33l-4.83 4.2-.64-5.9 1.93-4.66 5.56 1.7z" stroke="#000" stroke-opacity="0" stroke-width="1.98" fill="#ff9f70"/><path d="M1092.17 1048.17h-.24c-.32-.1-.48-.33-.48-.57l-.72-5.88c0-.08 0-.16.08-.24l1.94-4.75c.16-.32.56-.48.96-.4l5.56 1.7c.4.15.56.47.48.8l-2 4.75c0 .08-.1.16-.17.24l-4.83 4.18c-.16.17-.4.17-.57.17zm.08-6.45l.5 4.43 3.6-3.14 1.7-4.02-4.1-1.2zm4.76 1.6z" stroke="#000" stroke-opacity="0" stroke-width="1.98" fill="#690589"/><path d="M1095.96 1039.8c-3.46 0-6.28-2.43-6.28-5.4v-2.74c0-2.98 2.82-5.4 6.28-5.4 3.46 0 6.28 2.42 6.28 5.4v2.73c0 2.97-2.82 5.4-6.28 5.4z" stroke="#000" stroke-opacity="0" stroke-width="1.98" fill="#ff9f70"/><path d="M1095.96 1040.43c-3.87 0-7-2.73-7-6.04v-2.74c0-3.3 3.13-6.04 7-6.04 3.86 0 7 2.73 7 6.04v2.73c0 3.3-3.14 6.03-7 6.03zm0-13.53c-3.06 0-5.56 2.1-5.56 4.76v2.73c0 2.65 2.5 4.75 5.56 4.75 3.06 0 5.55-2.1 5.55-4.76v-2.74c0-2.66-2.48-4.76-5.54-4.76z" stroke="#000" stroke-opacity="0" stroke-width="1.98" fill="#690589"/><path d="M1094.35 1094c-.57 0-1.05-.1-1.6-.25-1.94-.73-2.83-2.74-1.94-4.35l7-13.77-18.67-5.8c-2-.65-2.98-2.58-2.25-4.27.72-1.7 2.98-2.58 5-1.93l22.45 7.08c.97.34 1.77.98 2.18 1.8.4.87.4 1.76 0 2.64l-8.7 16.92c-.55 1.2-2 1.93-3.45 1.93z" stroke="#000" stroke-opacity="0" stroke-width="1.98" fill="#f4efed"/><path d="M1094.35 1094.63c-.65 0-1.3-.08-1.85-.32-2.34-.88-3.4-3.2-2.42-5.14l6.76-13.13-17.95-5.64c-2.43-.8-3.63-3.07-2.75-5.08.97-2 3.62-3.06 5.96-2.26l22.47 7c1.2.4 2.18 1.22 2.66 2.18.48 1.05.48 2.18-.08 3.15l-8.6 16.9c-.74 1.45-2.43 2.33-4.2 2.33zm-13.85-30.6c-1.3 0-2.42.64-2.9 1.77-.64 1.37.16 2.9 1.77 3.38l18.68 5.88c.24.08.4.16.5.33.07.15.07.3 0 .47l-7.1 13.77c-.64 1.37.08 2.9 1.6 3.46.4.16.82.24 1.3.24 1.2 0 2.33-.64 2.82-1.6l8.6-16.92c.4-.64.4-1.37.1-2.1-.33-.64-.97-1.12-1.78-1.44l-22.47-7.1c-.4-.07-.8-.15-1.13-.15zM1083.16 1054.2h-.25c-.4-.16-.55-.48-.47-.8l1.85-3.87c.16-.32.57-.48.97-.32.32.1.56.5.4.82l-1.77 3.78c-.16.32-.4.4-.72.4z" stroke="#000" stroke-opacity="0" stroke-width="1.98" fill="#690589"/><path d="M1120.85 893.53h-8.24v-.96c0-1.56-1.35-2.84-3.08-2.84s-3.1 1.28-3.1 2.84v.96h-8.23c-.63 0-1.06.44-1.06.96 0 .5.43.95 1.05.95h8.22v4.08c-.8.32-1.42.84-1.8 1.64h-5c-5.08-3.88-12.26-3.88-17.34 0h-5c-.38-.8-1-1.32-1.8-1.64v-4.08h8.23c.63 0 1.06-.44 1.06-.96 0-.53-.43-.97-1.05-.97h-8.23v-.96c0-1.56-1.36-2.84-3.1-2.84-1.72 0-3.08 1.28-3.08 2.84v.96h-8.25c-.62 0-1.05.44-1.05.96 0 .5.43.95 1.05.95h8.24v4.08c-1.3.48-2.06 1.6-2.06 2.88v3.2c0 1.77 1.5 3.17 3.4 3.17h3.47c1.44 0 2.6-.72 3.17-1.88h3.28l1.18 3.15c.12.36.5.64 1 .64h5.13v5.7h-1.68c-1.23 0-2.22.8-2.4 1.9h-1.3c-1.62 0-2.86 1.2-2.86 2.67v4.2c0 1.48 1.24 2.64 2.85 2.64h1.3c.2 1.13 1.18 1.93 2.4 1.93h9.55c1.36 0 2.47-1 2.47-2.24v-8.85c0-1.24-1.12-2.24-2.48-2.24h-1.68v-5.7h5.14c.5 0 .87-.3 1-.65l1.17-3.16h3.28c.56 1.15 1.73 1.87 3.16 1.87h3.45c1.92 0 3.4-1.4 3.4-3.16v-3.2c0-1.27-.74-2.4-2.04-2.87v-4.08h8.25c.62 0 1.05-.44 1.05-.96 0-.53-.43-.97-1.05-.97zm-49.52-.96c0-.52.5-.92 1.05-.92.56 0 1.05.4 1.05.92v.96h-2.1zm0 2.88h2.1v3.8h-2.1zm4.14 10.16c0 .73-.6 1.3-1.36 1.3h-3.45c-.75 0-1.37-.57-1.37-1.3v-3.2c0-.67.62-1.23 1.37-1.23h3.46c.76 0 1.38.56 1.38 1.24zm8.24 20.33h-1.23c-.43 0-.8-.36-.8-.76v-4.2c0-.44.37-.76.8-.76h1.24zm12.02-7.64c.24 0 .37.15.37.35v8.84c0 .15-.14.3-.38.3h-9.54c-.24 0-.37-.15-.37-.3v-8.85c0-.2.14-.36.38-.36zm-7.68-9.53c.56-1.48 2.35-2.24 3.96-1.72.87.28 1.55.88 1.86 1.72zm3.96 1.92v5.7h-2.1v-5.7zm12.38-5.73h-3.77c-.5 0-.86.24-.98.64l-1.18 3.17h-2.4c-.45-1.92-2-3.32-4.04-3.72-2.78-.52-5.5 1.16-6.13 3.72h-2.4l-1.2-3.16c-.1-.4-.48-.63-.98-.63h-3.78v-1.92h5.14c.24 0 .43-.04.6-.2 4.53-3.52 10.85-3.52 15.37 0 .18.16.37.2.6.2h5.15zm4.1-12.4c0-.52.48-.92 1.04-.92s1.05.4 1.05.92v.96h-2.1zm0 2.88h2.1v3.8h-2.1zm4.13 10.16c0 .73-.6 1.3-1.35 1.3h-3.46c-.76 0-1.38-.57-1.38-1.3v-3.2c0-.67.62-1.23 1.37-1.23h3.45c.75 0 1.36.56 1.36 1.24z" stroke="#000" stroke-opacity="0"/><path d="M1090.95 925.93c1.73 0 3.1-1.28 3.1-2.88 0-1.56-1.37-2.84-3.1-2.84s-3.1 1.3-3.1 2.85c0 1.6 1.37 2.88 3.1 2.88zm0-3.8c.56 0 1.05.4 1.05.92s-.5.96-1.05.96c-.56 0-1.05-.43-1.05-.95s.5-.92 1.05-.92z" stroke="#000" stroke-opacity="0"/><path d="M1066.05 1045.62h49.8l-24.9-115.9z" fill="#636363" fill-opacity="0"/><path d="M1069.54 1045.62h2.98m2 0h2.98m2 0h2.98m2 0h2.98m2 0h2.98m2 0h2.98m2 0h2.98m2 0h2.98m2 0h2.98m2 0h1.5l-.32-1.45m-.42-1.93l-.62-2.9m-.4-1.93l-.64-2.9m-.4-1.92l-.63-2.9m-.42-1.93l-.6-2.9m-.43-1.93l-.62-2.9m-.4-1.93l-.64-2.9m-.4-1.93l-.62-2.9m-.42-1.93l-.62-2.9m-.42-1.93l-.62-2.9m-.4-1.92l-.64-2.9m-.4-1.93l-.63-2.9m-.42-1.93l-.6-2.9m-.43-1.92l-.62-2.9m-.4-1.93l-.64-2.9m-.4-1.93l-.62-2.9m-.42-1.93l-.62-2.9m-.42-1.92l-.62-2.9m-.4-1.93l-.64-2.9m-.4-1.93l-.63-2.9m-.42-1.92l-.6-2.9m-.43-1.93l-.62-2.9m-.4-1.93l-.64-2.9m-.4-1.93l-.62-2.9m-.42-1.92l-.3-1.45-.32 1.45m-.42 1.93l-.62 2.9m-.4 1.94l-.64 2.9m-.4 1.93l-.63 2.9m-.42 1.93l-.6 2.9m-.43 1.93l-.62 2.9m-.4 1.93l-.64 2.9m-.4 1.92l-.62 2.9m-.42 1.93l-.62 2.9m-.42 1.94l-.62 2.9m-.4 1.93l-.64 2.9m-.4 1.93l-.63 2.9m-.42 1.93l-.6 2.9m-.43 1.93l-.62 2.9m-.4 1.92l-.64 2.9m-.4 1.93l-.62 2.9m-.42 1.94l-.62 2.9m-.42 1.93l-.62 2.9m-.4 1.93l-.64 2.9m-.4 1.93l-.63 2.9m-.42 1.92l-.6 2.9m-.43 1.93l-.62 2.9m-.4 1.93l-.64 2.9m-.4 1.94l-.62 2.9m-.42 1.93l-.3 1.45h1.48" stroke="#000" fill="none"/><path d="M838.74 790.4l14.53 10.48v2.83c0 7.42-6.5 13.44-14.53 13.44s-14.54-6.02-14.54-13.43v-2.82zM847.02 820.87c9.2 0 16.63 5.15 16.63 13.53v16.95h-9.56v-11.9h-1.66v11.9h-27.1v-11.9h-1.63v11.9h-9.85V834.4c0-8.38 7.42-13.53 16.63-13.53z" fill="#7d7c7c"/><path d="M838.72 787.53c7.97.05 14.37 6.08 14.3 13.43-.05 7.36-6.56 13.28-14.53 13.22-7.9-.05-14.3-5.97-14.32-13.3 0-7.38 6.52-13.35 14.5-13.35h.04zM847.02 818.04c9.2 0 16.63 5.15 16.63 13.53v16.94h-9.56v-11.9h-1.66v11.9h-27.1v-11.9h-1.63v11.9h-9.85v-16.93c0-8.38 7.42-13.53 16.63-13.53z" fill="#d2d3d3"/><path d="M818.95 783.4h39.6v40h-39.6z" stroke="#a3d977" stroke-width="4" fill-opacity="0"/><path d="M824.05 755.47h60v27.94h-60z" stroke="#000" stroke-opacity="0" stroke-width="2" fill="#fff" fill-opacity="0"/><use xlink:href="#A" transform="matrix(1,0,0,1,829.0500000000061,760.4705882352803) translate(1.2966049382716065 11.969444444444445)"/><path d="M1232.58 114.63c0 1.38-1.12 2.5-2.5 2.5s-2.5-1.12-2.5-2.5 1.12-2.5 2.5-2.5 2.5 1.12 2.5 2.5zm10.9 16.9c0 1.4-1.12 2.5-2.5 2.5s-2.5-1.1-2.5-2.5c0-1.37 1.12-2.5 2.5-2.5s2.5 1.13 2.5 2.5zm10.75 17.07c0 1.38-1.12 2.5-2.5 2.5s-2.5-1.12-2.5-2.5 1.12-2.5 2.5-2.5 2.5 1.12 2.5 2.5zm-2.78 18.6c0 1.37-1.12 2.5-2.5 2.5s-2.5-1.13-2.5-2.5c0-1.4 1.12-2.5 2.5-2.5s2.5 1.1 2.5 2.5zm-19.42.5c0 1.37-1.12 2.5-2.5 2.5s-2.5-1.13-2.5-2.5c0-1.4 1.12-2.5 2.5-2.5s2.5 1.1 2.5 2.5zm-18.52-8.13c0 1.38-1.1 2.5-2.5 2.5-1.37 0-2.5-1.12-2.5-2.5s1.13-2.5 2.5-2.5c1.4 0 2.5 1.12 2.5 2.5zm-18.08-9.07c0 1.38-1.12 2.5-2.5 2.5s-2.5-1.12-2.5-2.5 1.12-2.5 2.5-2.5 2.5 1.12 2.5 2.5zm-18.35-8.52c0 1.38-1.12 2.5-2.5 2.5s-2.5-1.12-2.5-2.5 1.12-2.5 2.5-2.5 2.5 1.12 2.5 2.5zm-19.7-3.67c0 1.4-1.13 2.5-2.5 2.5-1.4 0-2.5-1.1-2.5-2.5 0-1.37 1.1-2.5 2.5-2.5 1.37 0 2.5 1.13 2.5 2.5zm-13.56 13.06c0 1.38-1.1 2.5-2.5 2.5-1.37 0-2.5-1.12-2.5-2.5s1.13-2.5 2.5-2.5c1.4 0 2.5 1.12 2.5 2.5zm11.6 15.43c0 1.38-1.13 2.5-2.5 2.5-1.4 0-2.5-1.12-2.5-2.5 0-1.4 1.1-2.5 2.5-2.5 1.37 0 2.5 1.1 2.5 2.5zm17.95 9.3c0 1.37-1.12 2.5-2.5 2.5s-2.5-1.13-2.5-2.5c0-1.4 1.12-2.5 2.5-2.5s2.5 1.1 2.5 2.5zm18.35 8.54c0 1.38-1.12 2.5-2.5 2.5s-2.5-1.12-2.5-2.5 1.12-2.5 2.5-2.5 2.5 1.12 2.5 2.5zm18.34 8.55c0 1.37-1.12 2.5-2.5 2.5s-2.5-1.13-2.5-2.5c0-1.4 1.12-2.5 2.5-2.5s2.5 1.1 2.5 2.5zm16.6 11.34c0 1.38-1.1 2.5-2.5 2.5-1.37 0-2.5-1.12-2.5-2.5s1.13-2.5 2.5-2.5c1.4 0 2.5 1.12 2.5 2.5zm3 18.42c0 1.38-1.12 2.5-2.5 2.5s-2.5-1.12-2.5-2.5 1.12-2.5 2.5-2.5 2.5 1.12 2.5 2.5zm-19.2 1.54c0 1.38-1.1 2.5-2.5 2.5-1.38 0-2.5-1.12-2.5-2.5s1.12-2.5 2.5-2.5c1.4 0 2.5 1.12 2.5 2.5zm-18.9-7.17c0 1.4-1.1 2.5-2.5 2.5-1.37 0-2.5-1.1-2.5-2.5 0-1.38 1.13-2.5 2.5-2.5 1.4 0 2.5 1.12 2.5 2.5zm-17.86-9.47c0 1.38-1.12 2.5-2.5 2.5s-2.5-1.12-2.5-2.5 1.12-2.5 2.5-2.5 2.5 1.12 2.5 2.5zm-17-10.96c0 1.38-1.12 2.5-2.5 2.5s-2.5-1.12-2.5-2.5 1.12-2.5 2.5-2.5 2.5 1.12 2.5 2.5zm-16.8-11.28c0 1.38-1.13 2.5-2.5 2.5-1.4 0-2.5-1.12-2.5-2.5s1.1-2.5 2.5-2.5c1.37 0 2.5 1.12 2.5 2.5zm-18.56-1.32c0 1.38-1.12 2.5-2.5 2.5s-2.5-1.12-2.5-2.5 1.12-2.5 2.5-2.5 2.5 1.12 2.5 2.5zm-8.28 17.6c0 1.4-1.12 2.5-2.5 2.5s-2.5-1.1-2.5-2.5c0-1.38 1.12-2.5 2.5-2.5s2.5 1.12 2.5 2.5zm13.08 14.8c0 1.37-1.12 2.5-2.5 2.5s-2.5-1.13-2.5-2.5c0-1.4 1.12-2.5 2.5-2.5s2.5 1.1 2.5 2.5zm17.1 10.8c0 1.4-1.1 2.5-2.5 2.5-1.37 0-2.5-1.1-2.5-2.5 0-1.37 1.13-2.5 2.5-2.5 1.4 0 2.5 1.13 2.5 2.5zm17.1 10.83c0 1.38-1.1 2.5-2.5 2.5-1.37 0-2.5-1.12-2.5-2.5s1.13-2.5 2.5-2.5c1.4 0 2.5 1.12 2.5 2.5zm16.4 11.83c0 1.38-1.12 2.5-2.5 2.5s-2.5-1.12-2.5-2.5 1.12-2.5 2.5-2.5 2.5 1.12 2.5 2.5zm14.97 13.58c0 1.38-1.13 2.5-2.5 2.5-1.4 0-2.5-1.12-2.5-2.5s1.1-2.5 2.5-2.5c1.37 0 2.5 1.12 2.5 2.5zm13.52 15.02c0 1.38-1.12 2.5-2.5 2.5s-2.5-1.12-2.5-2.5 1.12-2.5 2.5-2.5 2.5 1.12 2.5 2.5z"/><path d="M1235.1 115.18l-5.5.83-.44-2.84h5.63z"/><path d="M1202.83 282.07l-5.1-14.1 9.26-.3z" stroke="#000" stroke-width="5"/><path d="M1260.66 89.24h-10.3V87.8c0-.68-.37-1.24-.9-1.24-.48 0-.84.56-.84 1.24v1.44h-10.3c-.55 0-.9.56-.9 1.24 0 .72.35 1.28.9 1.28h10.3v1.72c-1.07.52-1.9 1.96-1.9 3.72v1.4h-4.9c-.35-1.56-1.42-2.68-2.62-2.68h-14.9c-1.2 0-2.26 1.12-2.62 2.68h-4.9v-1.4c0-1.76-.82-3.2-1.9-3.72v-1.72h10.32c.53 0 .9-.56.9-1.28 0-.68-.37-1.24-.9-1.24h-10.3V87.8c0-.68-.37-1.24-.85-1.24-.53 0-.9.56-.9 1.24v1.44h-10.3c-.48 0-.9.56-.9 1.24 0 .72.42 1.28.9 1.28h10.3v1.72c-1.06.52-1.84 1.96-1.84 3.72v5.36c0 2.16 1.2 3.92 2.75 3.92 1.5 0 2.74-1.76 2.74-3.92v-1.44h4.88c.36 1.56 1.43 2.68 2.62 2.68h.96v4.2c-1.55.16-2.92 1.76-3.28 3.96l-2.1 12.08h-1.18c-.48 0-.9.56-.9 1.28 0 .68.42 1.24.9 1.24h3.7c.53 0 .9-.56.9-1.24 0-.72-.37-1.28-.9-1.28h-.72l1.97-11.44c.24-1.2.95-2.04 1.8-2.12.34 1.56 1.36 2.68 2.55 2.68h7.5c1.2 0 2.2-1.12 2.57-2.68.84.08 1.55.92 1.8 2.12l1.96 11.44h-.72c-.53 0-.88.56-.88 1.28 0 .68.35 1.24.9 1.24H1244.8c.48 0 .9-.56.9-1.24 0-.72-.42-1.28-.9-1.28h-1.2l-2.07-12.08c-.36-2.2-1.73-3.8-3.28-3.96v-4.2h.95c1.2 0 2.27-1.12 2.63-2.68h4.88v1.44c0 2.16 1.27 3.92 2.76 3.92 1.54 0 2.74-1.76 2.74-3.92V97.2c0-1.76-.78-3.2-1.85-3.72v-1.72h10.3c.5 0 .9-.56.9-1.28 0-.68-.4-1.24-.9-1.24zM1215 102.56c0 .76-.4 1.4-.95 1.4-.6 0-1-.64-1-1.4V97.2c0-.8.4-1.44 1-1.44.54 0 .96.64.96 1.44v5.36zm24.2-1.28H1235.5c-.47 0-.9.56-.9 1.28 0 .68.43 1.24.9 1.24h.96v5.44c0 .8-.4 1.44-.95 1.44h-7.5c-.54 0-.95-.64-.95-1.44v-5.44h4.7c.48 0 .9-.56.9-1.24 0-.72-.42-1.28-.9-1.28H1224.3c-.53 0-1-.64-1-1.4 0-.8.47-1.44 1-1.44h14.9c.54 0 1.02.64 1.02 1.44 0 .76-.48 1.4-1.02 1.4zm11.27 1.28c0 .76-.42 1.4-1 1.4-.55 0-.97-.64-.97-1.4V97.2c0-.8.42-1.44.96-1.44.6 0 1 .64 1 1.44v5.36z" stroke="#000" stroke-opacity="0" stroke-width=".29"/><path d="M980 18.67h680v40H980z" fill="#0c7cba"/><path d="M987 18.67h6m4 0h6m4 0h6m4 0h6m4 0h6m4 0h6m4 0h6m4 0h6m4 0h6m4 0h6m4 0h6m4 0h6m4 0h6m4 0h6m4 0h6m4 0h6m4 0h6m4 0h6m4 0h6m4 0h6m4 0h6m4 0h6m4 0h6m4 0h6m4 0h6m4 0h6m4 0h6m4 0h6m4 0h6m4 0h6m4 0h6m4 0h6m4 0h6m4 0h6m4 0h6m4 0h6m4 0h6m4 0h6m4 0h6m4 0h6m4 0h6m4 0h6m4 0h6m4 0h6m4 0h6m4 0h6m4 0h6m4 0h6m4 0h6m4 0h6m4 0h6m4 0h6m4 0h6m4 0h6m4 0h6m4 0h6m4 0h6m4 0h6m4 0h6m4 0h6m4 0h6m4 0h6m4 0h6m4 0h6m4 0h6m4 0h6m4 0h6m4 0h3v3m0 4v6m0 4v6m0 4v6m0 4v3h-3m-4 0h-6m-4 0h-6m-4 0h-6m-4 0h-6m-4 0h-6m-4 0h-6m-4 0h-6m-4 0h-6m-4 0h-6m-4 0h-6m-4 0h-6m-4 0h-6m-4 0h-6m-4 0h-6m-4 0h-6m-4 0h-6m-4 0h-6m-4 0h-6m-4 0h-6m-4 0h-6m-4 0h-6m-4 0h-6m-4 0h-6m-4 0h-6m-4 0h-6m-4 0h-6m-4 0h-6m-4 0h-6m-4 0h-6m-4 0h-6m-4 0h-6m-4 0h-6m-4 0h-6m-4 0h-6m-4 0h-6m-4 0h-6m-4 0h-6m-4 0h-6m-4 0h-6m-4 0h-6m-4 0h-6m-4 0h-6m-4 0h-6m-4 0h-6m-4 0h-6m-4 0h-6m-4 0h-6m-4 0h-6m-4 0h-6m-4 0h-6m-4 0h-6m-4 0h-6m-4 0h-6m-4 0h-6m-4 0h-6m-4 0h-6m-4 0h-6m-4 0h-6m-4 0h-6m-4 0h-6m-4 0h-6m-4 0h-6m-4 0h-6m-4 0h-6m-4 0h-6m-4 0h-6m-4 0h-6m-4 0h-3v-3m0-4v-6m0-4v-6m0-4v-6m0-4v-3h3" stroke="#000" stroke-width="2" fill="none"/><use xlink:href="#B" transform="matrix(1,0,0,1,985,23.66666666666663) translate(146.90272352430557 21.986328125)"/><use xlink:href="#C" transform="matrix(1,0,0,1,985,23.66666666666663) translate(243.98518880208334 21.986328125)"/><use xlink:href="#D" transform="matrix(1,0,0,1,985,23.66666666666663) translate(280.39111328125 21.986328125)"/><use xlink:href="#E" transform="matrix(1,0,0,1,985,23.66666666666663) translate(389.60888671875 21.986328125)"/><use xlink:href="#F" transform="matrix(1,0,0,1,985,23.66666666666663) translate(413.87950303819446 21.986328125)"/><path d="M760 523.53h177.9v60H760z" stroke="#000" stroke-opacity="0" stroke-width="2" fill="#fff" fill-opacity="0"/><use xlink:href="#G" transform="matrix(1,0,0,1,760,523.5294117647059) translate(49.687037037037044 23.872222222222224)"/><use xlink:href="#H" transform="matrix(1,0,0,1,760,523.5294117647059) translate(109.94938271604939 23.872222222222224)"/><use xlink:href="#I" transform="matrix(1,0,0,1,760,523.5294117647059) translate(5.8817901234567955 42.80555555555556)"/><use xlink:href="#J" transform="matrix(1,0,0,1,760,523.5294117647059) translate(131.84104938271605 42.80555555555556)"/><path d="M734.7 18.67H980v40H734.7z" fill="#c92d39"/><path d="M741.57 18.67h5.9m3.9 0h5.9m3.92 0h5.88m3.92 0h5.9m3.92 0h5.88m3.93 0h5.9m3.9 0h5.9m3.92 0h5.9m3.9 0h5.9m3.93 0h5.88m3.93 0h5.88m3.92 0h5.9m3.9 0h5.9m3.92 0h5.9m3.92 0h5.88m3.93 0h5.9m3.9 0h5.9m3.92 0h5.9m3.9 0h5.9m3.93 0h5.88m3.93 0h5.9m3.92 0h5.9m3.9 0h5.9m3.92 0h5.9m3.92 0H980v3m0 4v6m0 4v6m0 4v6m0 4v3h-2.94m-3.93 0h-5.9m-3.9 0h-5.9m-3.92 0h-5.88m-3.92 0h-5.9m-3.92 0H928m-3.93 0h-5.9m-3.9 0h-5.9m-3.92 0h-5.9m-3.9 0h-5.9m-3.93 0h-5.88m-3.93 0h-5.88m-3.92 0h-5.9m-3.9 0h-5.9m-3.92 0h-5.9m-3.92 0h-5.88m-3.93 0h-5.9m-3.9 0h-5.9m-3.92 0h-5.9m-3.9 0h-5.9m-3.93 0h-5.88m-3.93 0H771m-3.92 0h-5.9m-3.9 0h-5.9m-3.92 0h-5.9m-3.92 0h-2.94v-3m0-4v-6m0-4v-6m0-4v-6m0-4v-3h2.94" stroke="#000" stroke-width="2" fill="none"/><use xlink:href="#K" transform="matrix(1,0,0,1,739.6999999999996,23.666666666666686) translate(2.7145724826388857 21.798828125)"/><use xlink:href="#L" transform="matrix(1,0,0,1,739.6999999999996,23.666666666666686) translate(75.52642144097221 21.798828125)"/><path d="M982.5 250.73h200.4v88.45H982.5z" stroke="#000" stroke-opacity="0" stroke-width="2" fill="#fff" fill-opacity="0"/><use xlink:href="#M" transform="matrix(1,0,0,1,982.4999999999995,250.7254901960784) translate(34.85092592592592 29.309722222222224)"/><use xlink:href="#r" transform="matrix(1,0,0,1,982.4999999999995,250.7254901960784) translate(96.07746913580246 29.309722222222224)"/><use xlink:href="#N" transform="matrix(1,0,0,1,982.4999999999995,250.7254901960784) translate(109.22561728395061 29.309722222222224)"/><use xlink:href="#O" transform="matrix(1,0,0,1,982.4999999999995,250.7254901960784) translate(1.5203703703703866 48.24305555555556)"/><use xlink:href="#m" transform="matrix(1,0,0,1,982.4999999999995,250.7254901960784) translate(100.43827160493828 48.24305555555556)"/><use xlink:href="#P" transform="matrix(1,0,0,1,982.4999999999995,250.7254901960784) translate(138.0858024691358 48.24305555555556)"/><use xlink:href="#Q" transform="matrix(1,0,0,1,982.4999999999995,250.7254901960784) translate(188.88148148148147 48.24305555555556)"/><use xlink:href="#R" transform="matrix(1,0,0,1,982.4999999999995,250.7254901960784) translate(0.31512345679011844 67.1763888888889)"/><use xlink:href="#S" transform="matrix(1,0,0,1,982.4999999999995,250.7254901960784) translate(117.4212962962963 67.1763888888889)"/><use xlink:href="#T" transform="matrix(1,0,0,1,982.4999999999995,250.7254901960784) translate(141.00030864197532 67.1763888888889)"/><path d="M937.5 699.05l-64.32 68.84" stroke="#000" stroke-width="2" fill="none"/><path d="M938.2 699.75l-1.25-1.17 2.93-.63z"/><path d="M862.76 779.05l6.35-13.6 6.78 6.34z" stroke="#000" stroke-width="2"/><path d="M1205.92 812.66l-92.7 159.03" stroke="#000" stroke-width="2" fill="none"/><path d="M1208.8 809.7l-2.03 3.5-.93-.56.97-1.4 1.26-1.96z"/><path d="M1105.54 984.88l3.18-14.66 8 4.67z" stroke="#000" stroke-width="2"/><path d="M982.5 780h200.4v62.7H982.5z" stroke="#000" stroke-opacity="0" stroke-width="2" fill-opacity="0"/><g><use xlink:href="#U" transform="matrix(1,0,0,1,982.4999999999995,780) translate(12.148456790123447 24.434722222222224)"/><use xlink:href="#V" transform="matrix(1,0,0,1,982.4999999999995,780) translate(72.41080246913579 24.434722222222224)"/><use xlink:href="#W" transform="matrix(1,0,0,1,982.4999999999995,780) translate(104.75524691358024 24.434722222222224)"/><use xlink:href="#X" transform="matrix(1,0,0,1,982.4999999999995,780) translate(164.2287037037037 24.434722222222224)"/><use xlink:href="#Y" transform="matrix(1,0,0,1,982.4999999999995,780) translate(13.375617283950618 43.36805555555556)"/><use xlink:href="#Z" transform="matrix(1,0,0,1,982.4999999999995,780) translate(80.78179012345679 43.36805555555556)"/></g><path d="M1549.6 733.73h38.05v24.18h-38.05z" stroke="#000" stroke-opacity="0" stroke-width="2" fill="#fff" fill-opacity="0"/><g><use xlink:href="#aa" transform="matrix(1,0,0,1,1554.6019061999978,738.7346988795367) translate(-2.0302469135802426 10.844444444444445)"/></g><path d="M1476.22 817.9h60v60h-60z" stroke="#ef8d22" stroke-width="2" fill="#fff"/><path d="M1536.22 757.9h60v60h-60z" stroke="#c92d39" stroke-width="2" fill="#fff"/><path d="M1536.22 877.9h60v60h-60z" stroke="#0c7cba" stroke-width="2" fill="#fff"/><path d="M1596.22 817.9h60v60h-60z" stroke="#19967d" stroke-width="2" fill="#fff"/><path d="M1573.58 782.14l12.34 9.87v2.68c0 6.98-5.53 12.64-12.34 12.64-6.82 0-12.34-5.66-12.34-12.64V792zM1580.6 810.83c7.83 0 14.13 4.85 14.13 12.74v15.95h-8.12v-11.18h-1.38v11.18h-23v-11.18h-1.4v11.18h-8.37v-15.95c0-7.9 6.3-12.74 14.12-12.74z" fill="#7d7c7c"/><path d="M1573.57 779.45c6.76.05 12.2 5.72 12.15 12.64-.05 6.92-5.6 12.5-12.35 12.44-6.7-.05-12.12-5.62-12.15-12.52 0-6.95 5.54-12.57 12.32-12.57h.03zM1580.6 808.17c7.83 0 14.13 4.84 14.13 12.73v15.96h-8.12v-11.22h-1.38v11.22h-23v-11.22h-1.4v11.22h-8.37V820.9c0-7.9 6.3-12.73 14.12-12.73z" fill="#d2d3d3"/><path d="M1556.78 775.57h33.62v37.66h-33.62z" stroke="#a3d977" stroke-width="4" fill-opacity="0"/><path d="M1561.1 749.26h50.95v26.3h-50.94z" stroke="#000" stroke-opacity="0" stroke-width="2" fill="#fff" fill-opacity="0"/><g><use xlink:href="#A" transform="matrix(1,0,0,1,1566.1098290598375,754.2645074696494) translate(-3.2033950617283935 11.211111111111112)"/></g><path d="M1536.22 817.9h60v60h-60z" stroke="#000" stroke-width="2" fill-opacity="0"/><path d="M1618.18 797.4h38.04v24.18h-38.04z" stroke="#000" stroke-opacity="0" stroke-width="2" fill="#fff" fill-opacity="0"/><g><use xlink:href="#ab" transform="matrix(1,0,0,1,1623.1788123999954,802.3994706369195) translate(-2.0679012345678984 10.844444444444445)"/></g><path d="M1476.22 795.56h38.05v24.17h-38.05z" stroke="#000" stroke-opacity="0" stroke-width="2" fill="#fff" fill-opacity="0"/><g><use xlink:href="#ac" transform="matrix(1,0,0,1,1481.225,800.5572595704848) translate(-3.574074074074069 10.844444444444445)"/></g><path d="M1547.2 937.9h38.05v24.2h-38.05z" stroke="#000" stroke-opacity="0" stroke-width="2" fill="#fff" fill-opacity="0"/><g><use xlink:href="#ad" transform="matrix(1,0,0,1,1552.2019061999977,942.911566293179) translate(4.7287037037037045 12.719444444444445)"/></g><path d="M1475.07 698.15l49.85 74.4" stroke="#000" stroke-width="2" fill="none"/><path d="M1475.9 697.6l-1.16.8-.8-3.7z"/><path d="M1533.42 785.22l-11.8-9.27 7.7-5.16z" stroke="#000" stroke-width="2"/><path d="M1471.55 250.73h189.35v45.52h-189.35z" stroke="#000" stroke-opacity="0" stroke-width="10" fill="#fff" fill-opacity="0"/><g><use xlink:href="#ae" transform="matrix(1,0,0,1,1476.548093799979,255.7254901960784) translate(0.17037037037054859 32.17777777777771)"/></g><path d="M1475.33 398.83l78.62-88.73" stroke="#000" stroke-width="2" fill="none"/><path d="M1476.02 399.4l-2.86.37 1.44-1.62z"/><path d="M1564.08 298.67l-6 13.75-6.93-6.15z" stroke="#000" stroke-width="2"/><path d="M980.33 61.17V1114.7" stroke="#000" stroke-width="3" fill="none"/><path d="M981.83 61.2h-3v-1.53H981v-3h.83zM981.84 1119.2h-3v-2.05l1.34-.56.8-1.93h.86z"/><path d="M1230.3 378.45c0 81.87-66.08 148.24-147.6 148.24S935.1 460.3 935.1 378.44s66.08-148.23 147.6-148.23 147.6 66.36 147.6 148.23z" stroke="#c92d39" stroke-width="3" fill="#c92d39" fill-opacity=".4"/><path d="M932.6 402.85c0 1.38-1.12 2.5-2.5 2.5s-2.5-1.12-2.5-2.5 1.12-2.5 2.5-2.5 2.5 1.12 2.5 2.5zm-19.04-5.28c0 1.38-1.12 2.5-2.5 2.5s-2.5-1.12-2.5-2.5c0-1.4 1.12-2.5 2.5-2.5s2.5 1.1 2.5 2.5zm-18.4-7.1c0 1.37-1.13 2.5-2.5 2.5-1.4 0-2.5-1.13-2.5-2.5 0-1.4 1.1-2.5 2.5-2.5 1.37 0 2.5 1.1 2.5 2.5zm-16.52-10.74c0 1.38-1.12 2.5-2.5 2.5s-2.5-1.12-2.5-2.5 1.12-2.5 2.5-2.5 2.5 1.12 2.5 2.5zm-4.4-17c0 1.4-1.12 2.5-2.5 2.5s-2.5-1.1-2.5-2.5c0-1.38 1.12-2.5 2.5-2.5s2.5 1.12 2.5 2.5zm18.74-4c0 1.38-1.12 2.5-2.5 2.5-1.4 0-2.5-1.12-2.5-2.5s1.1-2.5 2.5-2.5c1.38 0 2.5 1.12 2.5 2.5zm19.46 3.32c0 1.38-1.12 2.5-2.5 2.5s-2.5-1.12-2.5-2.5 1.12-2.5 2.5-2.5 2.5 1.12 2.5 2.5zM932 364.8c0 1.4-1.12 2.5-2.5 2.5s-2.5-1.1-2.5-2.5c0-1.37 1.12-2.5 2.5-2.5s2.5 1.13 2.5 2.5zm19.73.86c0 1.38-1.12 2.5-2.5 2.5s-2.5-1.12-2.5-2.5 1.12-2.5 2.5-2.5 2.5 1.12 2.5 2.5zm19.6-2.2c0 1.38-1.13 2.5-2.5 2.5-1.4 0-2.5-1.12-2.5-2.5s1.1-2.5 2.5-2.5c1.37 0 2.5 1.12 2.5 2.5zm16.62-9.7c0 1.38-1.12 2.5-2.5 2.5s-2.5-1.12-2.5-2.5c0-1.4 1.12-2.5 2.5-2.5s2.5 1.1 2.5 2.5zm-3.54-18.22c0 1.38-1.1 2.5-2.5 2.5-1.37 0-2.5-1.12-2.5-2.5s1.13-2.5 2.5-2.5c1.4 0 2.5 1.12 2.5 2.5zm-17.94-6.6c0 1.38-1.12 2.5-2.5 2.5s-2.5-1.12-2.5-2.5 1.12-2.5 2.5-2.5 2.5 1.12 2.5 2.5zm-19.7-1.66c0 1.38-1.1 2.5-2.5 2.5-1.37 0-2.5-1.12-2.5-2.5s1.13-2.5 2.5-2.5c1.4 0 2.5 1.12 2.5 2.5zm-19.7-1.4c0 1.37-1.1 2.5-2.5 2.5-1.38 0-2.5-1.13-2.5-2.5 0-1.4 1.12-2.5 2.5-2.5 1.4 0 2.5 1.1 2.5 2.5zm-19.7-1.42c0 1.38-1.12 2.5-2.5 2.5s-2.5-1.12-2.5-2.5 1.12-2.5 2.5-2.5 2.5 1.12 2.5 2.5zm-19.68-1.65c0 1.4-1.12 2.5-2.5 2.5s-2.5-1.1-2.5-2.5c0-1.37 1.12-2.5 2.5-2.5s2.5 1.13 2.5 2.5zm-18.64-5.92c0 1.38-1.12 2.5-2.5 2.5s-2.5-1.12-2.5-2.5 1.12-2.5 2.5-2.5 2.5 1.12 2.5 2.5zm6.8-15.14c0 1.38-1.12 2.5-2.5 2.5-1.4 0-2.5-1.12-2.5-2.5s1.1-2.5 2.5-2.5c1.38 0 2.5 1.12 2.5 2.5zm19.2-4.4c0 1.4-1.12 2.5-2.5 2.5s-2.5-1.1-2.5-2.5c0-1.37 1.12-2.5 2.5-2.5s2.5 1.13 2.5 2.5zm19.5-3.17c0 1.38-1.12 2.5-2.5 2.5s-2.5-1.12-2.5-2.5 1.12-2.5 2.5-2.5 2.5 1.12 2.5 2.5zm19.1-4.76c0 1.4-1.13 2.5-2.5 2.5-1.4 0-2.5-1.1-2.5-2.5 0-1.38 1.1-2.5 2.5-2.5 1.37 0 2.5 1.12 2.5 2.5zm-2.25-13.57c0 1.38-1.13 2.5-2.5 2.5-1.4 0-2.5-1.12-2.5-2.5s1.1-2.5 2.5-2.5c1.37 0 2.5 1.12 2.5 2.5zm-17.9-8.35c0 1.38-1.1 2.5-2.5 2.5-1.37 0-2.5-1.12-2.5-2.5s1.13-2.5 2.5-2.5c1.4 0 2.5 1.12 2.5 2.5zm-18.38-7.2c0 1.38-1.12 2.5-2.5 2.5s-2.5-1.12-2.5-2.5c0-1.4 1.12-2.5 2.5-2.5s2.5 1.1 2.5 2.5z"/><path d="M931.88 403.13l.63.4.63-.4.8-1.8 2.13.58-1.33 4.83-5.36-1.5 1.32-4.77z"/><path d="M877.28 253.94l14.95 1.16-3.53 8.57z" stroke="#000" stroke-width="5"/><path d="M933.46 363.57c-.3-.04-.63-.04-.95-.04-.32 0-.64 0-.94.04-8.58.52-13.84 8.28-10.6 15.08 5.8 12.16 9.52 20.72 10.92 24.48.2.52 1.05.52 1.25 0 1.4-3.76 5.13-12.32 10.93-24.48 3.23-6.8-2.02-14.56-10.6-15.08z" stroke="#000" stroke-opacity="0" stroke-width=".32" fill="#dc8744"/><path d="M940.44 374.1c0 3.75-3.55 6.8-7.93 6.8-4.37 0-7.92-3.05-7.92-6.8 0-3.77 3.55-6.8 7.93-6.8 4.4 0 7.94 3.03 7.94 6.8z" stroke="#000" stroke-opacity="0" stroke-width=".32" fill="#e1e6e9"/><path d="M898.7 226.93h-10.3v-1.44c0-.7-.36-1.25-.9-1.25-.48 0-.83.56-.83 1.24v1.43h-10.3c-.55 0-.9.56-.9 1.24 0 .72.35 1.28.9 1.28h10.3v1.72c-1.08.52-1.9 1.96-1.9 3.72v1.4h-4.9c-.36-1.57-1.43-2.7-2.62-2.7h-14.9c-1.2 0-2.26 1.13-2.62 2.7h-4.9v-1.4c0-1.77-.82-3.2-1.9-3.73v-1.72h10.3c.55 0 .9-.56.9-1.28 0-.68-.35-1.24-.9-1.24h-10.3v-1.44c0-.7-.35-1.25-.83-1.25-.54 0-.9.56-.9 1.24v1.43h-10.3c-.48 0-.9.56-.9 1.24 0 .72.42 1.28.9 1.28h10.3v1.72c-1.07.52-1.84 1.96-1.84 3.72v5.35c0 2.16 1.2 3.92 2.74 3.92 1.5 0 2.74-1.76 2.74-3.92v-1.44h4.9c.35 1.57 1.42 2.7 2.6 2.7h.96v4.2c-1.55.15-2.92 1.75-3.27 3.95l-2.1 12.08h-1.18c-.48 0-.9.56-.9 1.28 0 .7.42 1.25.9 1.25H860.44c.54 0 .9-.56.9-1.24 0-.7-.36-1.27-.9-1.27h-.7l1.95-11.44c.23-1.2.95-2.05 1.78-2.13.36 1.56 1.37 2.68 2.57 2.68h7.5c1.2 0 2.2-1.12 2.57-2.68.83.08 1.55.92 1.8 2.12l1.95 11.43h-.7c-.55 0-.9.56-.9 1.28 0 .7.35 1.25.9 1.25h3.68c.48 0 .9-.56.9-1.24 0-.7-.42-1.27-.9-1.27h-1.2l-2.08-12.08c-.35-2.2-1.72-3.8-3.27-3.96v-4.2h.95c1.2 0 2.26-1.13 2.62-2.7h4.9v1.45c0 2.16 1.24 3.92 2.73 3.92 1.55 0 2.74-1.76 2.74-3.92v-5.36c0-1.77-.77-3.2-1.84-3.73v-1.72h10.3c.48 0 .9-.56.9-1.28 0-.68-.42-1.24-.9-1.24zm-45.65 13.32c0 .76-.4 1.4-.95 1.4-.6 0-1-.64-1-1.4v-5.36c0-.8.4-1.45 1-1.45.54 0 .95.64.95 1.44v5.35zm24.2-1.28h-3.7c-.47 0-.9.56-.9 1.28 0 .68.43 1.24.9 1.24h.96v5.43c0 .8-.4 1.44-.95 1.44h-7.5c-.54 0-.96-.64-.96-1.44v-5.44h4.7c.48 0 .9-.57.9-1.25 0-.72-.42-1.28-.9-1.28H862.35c-.54 0-1-.64-1-1.4 0-.8.46-1.44 1-1.44h14.9c.54 0 1 .64 1 1.44 0 .76-.46 1.4-1 1.4zm11.26 1.28c0 .76-.4 1.4-1 1.4-.54 0-.95-.64-.95-1.4v-5.36c0-.8.4-1.45.95-1.45.6 0 1 .64 1 1.44v5.35z" stroke="#000" stroke-opacity="0" stroke-width=".29"/><defs><path d="M67-125c0 54 23 88 75 88 28 0 53-7 68-21v-34h-60v-39h108v91C232-14 192 4 140 4 58 4 20-42 15-125 8-236 126-280 215-234c19 10 29 26 37 47l-47 15c-11-23-29-39-63-39-53 1-75 33-75 86" id="af"/><path d="M85 4C-2 5 27-109 22-190h50c7 57-23 150 33 157 60-5 35-97 40-157h50l1 190h-47c-2-12 1-28-3-38-12 25-28 42-61 42" id="ag"/><path d="M25-224v-37h50v37H25zM25 0v-190h50V0H25" id="ah"/><path d="M133-34C117-15 103 5 69 4 32 3 11-16 11-54c-1-60 55-63 116-61 1-26-3-47-28-47-18 1-26 9-28 27l-52-2c7-38 36-58 82-57s74 22 75 68l1 82c-1 14 12 18 25 15v27c-30 8-71 5-69-32zm-48 3c29 0 43-24 42-57-32 0-66-3-65 30 0 17 8 27 23 27" id="ai"/><g id="a"><use transform="matrix(0.043827160493827164,0,0,0.043827160493827164,0,0)" xlink:href="#af"/><use transform="matrix(0.043827160493827164,0,0,0.043827160493827164,12.271604938271606,0)" xlink:href="#ag"/><use transform="matrix(0.043827160493827164,0,0,0.043827160493827164,21.869753086419756,0)" xlink:href="#ah"/><use transform="matrix(0.043827160493827164,0,0,0.043827160493827164,26.25246913580247,0)" xlink:href="#ai"/></g><path d="M110-194c64 0 96 36 96 99 0 64-35 99-97 99-61 0-95-36-95-99 0-62 34-99 96-99zm-1 164c35 0 45-28 45-65 0-40-10-65-43-65-34 0-45 26-45 65 0 36 10 65 43 65" id="aj"/><use transform="matrix(0.043827160493827164,0,0,0.043827160493827164,0,0)" xlink:href="#aj" id="b"/><path d="M147 0H94L2-248h55l64 206c17-72 42-137 63-206h54" id="ak"/><path d="M199 0l-22-63H83L61 0H9l90-248h61L250 0h-51zm-33-102l-36-108c-10 38-24 72-36 108h72" id="al"/><path d="M175 0L67-191c6 58 2 128 3 191H24v-248h59L193-55c-6-58-2-129-3-193h46V0h-61" id="am"/><path d="M136-208V0H84v-208H4v-40h212v40h-80" id="an"/><g id="c"><use transform="matrix(0.043827160493827164,0,0,0.043827160493827164,0,0)" xlink:href="#ak"/><use transform="matrix(0.043827160493827164,0,0,0.043827160493827164,9.335185185185185,0)" xlink:href="#al"/><use transform="matrix(0.043827160493827164,0,0,0.043827160493827164,20.68641975308642,0)" xlink:href="#am"/><use transform="matrix(0.043827160493827164,0,0,0.043827160493827164,32.037654320987656,0)" xlink:href="#an"/></g><path d="M135-194c87-1 58 113 63 194h-50c-7-57 23-157-34-157-59 0-34 97-39 157H25l-1-190h47c2 12-1 28 3 38 12-26 28-41 61-42" id="ao"/><g id="d"><use transform="matrix(0.043827160493827164,0,0,0.043827160493827164,0,0)" xlink:href="#ao"/><use transform="matrix(0.043827160493827164,0,0,0.043827160493827164,9.598148148148148,0)" xlink:href="#ai"/></g><path d="M88-194c31-1 46 15 58 34l-1-101h50l1 261h-48c-2-10 0-23-3-31C134-8 116 4 84 4 32 4 16-41 15-95c0-56 19-97 73-99zm17 164c33 0 40-30 41-66 1-37-9-64-41-64s-38 30-39 65c0 43 13 65 39 65" id="ap"/><path d="M135-150c-39-12-60 13-60 57V0H25l-1-190h47c2 13-1 29 3 40 6-28 27-53 61-41v41" id="aq"/><path d="M185-48c-13 30-37 53-82 52C43 2 14-33 14-96s30-98 90-98c62 0 83 45 84 108H66c0 31 8 55 39 56 18 0 30-7 34-22zm-45-69c5-46-57-63-70-21-2 6-4 13-4 21h74" id="ar"/><path d="M190-63c-7 42-38 67-86 67-59 0-84-38-90-98-12-110 154-137 174-36l-49 2c-2-19-15-32-35-32-30 0-35 28-38 64-6 74 65 87 74 30zm-84 77c20 1 33 9 33 27 0 32-36 36-71 33V53c15 1 39 4 39-11 0-13-16-12-31-12L87 0h25" id="as"/><path d="M132-34C116-15 102 5 68 4 31 3 10-16 10-54c-1-60 55-63 116-61 1-26-3-47-28-47-18 1-26 9-28 27l-52-2c7-38 36-58 82-57s74 22 75 68l1 82c-1 14 12 18 25 15v27c-30 8-71 5-69-32zm-48 3c29 0 43-24 42-57-32 0-66-3-65 30 0 17 8 27 23 27zm82-228c-2 27-9 52-40 51-27-1-66-46-73 0H29c0-29 9-51 39-51 28 0 66 44 74 0h24" id="at"/><g id="e"><use transform="matrix(0.043827160493827164,0,0,0.043827160493827164,0,0)" xlink:href="#ap"/><use transform="matrix(0.043827160493827164,0,0,0.043827160493827164,9.598148148148148,0)" xlink:href="#ah"/><use transform="matrix(0.043827160493827164,0,0,0.043827160493827164,13.980864197530863,0)" xlink:href="#aq"/><use transform="matrix(0.043827160493827164,0,0,0.043827160493827164,20.116666666666667,0)" xlink:href="#ar"/><use transform="matrix(0.043827160493827164,0,0,0.043827160493827164,28.882098765432097,0)" xlink:href="#as"/><use transform="matrix(0.043827160493827164,0,0,0.043827160493827164,37.64753086419753,0)" xlink:href="#at"/><use transform="matrix(0.043827160493827164,0,0,0.043827160493827164,46.41296296296296,0)" xlink:href="#aj"/></g><path d="M137-138c1-29-70-34-71-4 15 46 118 7 119 86 1 83-164 76-172 9l43-7c4 19 20 25 44 25 33 8 57-30 24-41C81-84 22-81 20-136c-2-80 154-74 161-7" id="au"/><path d="M115-3C79 11 28 4 28-45v-112H4v-33h27l15-45h31v45h36v33H77v99c-1 23 16 31 38 25v30" id="av"/><path d="M135-194c53 0 70 44 70 98 0 56-19 98-73 100-31 1-45-17-59-34 3 33 2 69 2 105H25l-1-265h48c2 10 0 23 3 31 11-24 29-35 60-35zM114-30c33 0 39-31 40-66 0-38-9-64-40-64-56 0-55 130 0 130" id="aw"/><path d="M25 0v-261h50V0H25" id="ax"/><g id="f"><use transform="matrix(0.043827160493827164,0,0,0.043827160493827164,0,0)" xlink:href="#ar"/><use transform="matrix(0.043827160493827164,0,0,0.043827160493827164,8.765432098765432,0)" xlink:href="#au"/><use transform="matrix(0.043827160493827164,0,0,0.043827160493827164,17.530864197530864,0)" xlink:href="#av"/><use transform="matrix(0.043827160493827164,0,0,0.043827160493827164,22.746296296296297,0)" xlink:href="#ah"/><use transform="matrix(0.043827160493827164,0,0,0.043827160493827164,27.129012345679016,0)" xlink:href="#aw"/><use transform="matrix(0.043827160493827164,0,0,0.043827160493827164,36.72716049382716,0)" xlink:href="#ag"/><use transform="matrix(0.043827160493827164,0,0,0.043827160493827164,46.325308641975305,0)" xlink:href="#ax"/><use transform="matrix(0.043827160493827164,0,0,0.043827160493827164,50.70802469135802,0)" xlink:href="#ai"/><use transform="matrix(0.043827160493827164,0,0,0.043827160493827164,59.47345679012345,0)" xlink:href="#ap"/><use transform="matrix(0.043827160493827164,0,0,0.043827160493827164,69.0716049382716,0)" xlink:href="#ai"/></g><path d="M67-125c0 53 21 87 73 88 37 1 54-22 65-47l45 17C233-25 199 4 140 4 58 4 20-42 15-125 8-235 124-281 211-232c18 10 29 29 36 50l-46 12c-8-25-30-41-62-41-52 0-71 34-72 86" id="ay"/><path d="M220-157c-53 9-28 100-34 157h-49v-107c1-27-5-49-29-50C55-147 81-57 75 0H25l-1-190h47c2 12-1 28 3 38 10-53 101-56 108 0 13-22 24-43 59-42 82 1 51 116 57 194h-49v-107c-1-25-5-48-29-50" id="az"/><g id="g"><use transform="matrix(0.043827160493827164,0,0,0.043827160493827164,0,0)" xlink:href="#ay"/><use transform="matrix(0.043827160493827164,0,0,0.043827160493827164,11.351234567901235,0)" xlink:href="#aj"/><use transform="matrix(0.043827160493827164,0,0,0.043827160493827164,20.949382716049385,0)" xlink:href="#az"/><use transform="matrix(0.043827160493827164,0,0,0.043827160493827164,34.97407407407408,0)" xlink:href="#aw"/><use transform="matrix(0.043827160493827164,0,0,0.043827160493827164,44.57222222222223,0)" xlink:href="#ag"/><use transform="matrix(0.043827160493827164,0,0,0.043827160493827164,54.17037037037037,0)" xlink:href="#av"/><use transform="matrix(0.043827160493827164,0,0,0.043827160493827164,59.385802469135804,0)" xlink:href="#ai"/></g><use transform="matrix(0.043827160493827164,0,0,0.043827160493827164,0,0)" xlink:href="#ar" id="h"/><g id="i"><use transform="matrix(0.043827160493827164,0,0,0.043827160493827164,0,0)" xlink:href="#ar"/><use transform="matrix(0.043827160493827164,0,0,0.043827160493827164,8.765432098765432,0)" xlink:href="#au"/><use transform="matrix(0.043827160493827164,0,0,0.043827160493827164,17.530864197530864,0)" xlink:href="#av"/><use transform="matrix(0.043827160493827164,0,0,0.043827160493827164,22.746296296296297,0)" xlink:href="#ah"/><use transform="matrix(0.043827160493827164,0,0,0.043827160493827164,27.129012345679016,0)" xlink:href="#az"/><use transform="matrix(0.043827160493827164,0,0,0.043827160493827164,41.153703703703705,0)" xlink:href="#ai"/></g><g id="j"><use transform="matrix(0.043827160493827164,0,0,0.043827160493827164,0,0)" xlink:href="#ai"/><use transform="matrix(0.043827160493827164,0,0,0.043827160493827164,8.765432098765432,0)" xlink:href="#au"/></g><path d="M190-63c-7 42-38 67-86 67-59 0-84-38-90-98-12-110 154-137 174-36l-49 2c-2-19-15-32-35-32-30 0-35 28-38 64-6 74 65 87 74 30" id="aA"/><g id="k"><use transform="matrix(0.043827160493827164,0,0,0.043827160493827164,0,0)" xlink:href="#aA"/><use transform="matrix(0.043827160493827164,0,0,0.043827160493827164,8.765432098765432,0)" xlink:href="#aj"/><use transform="matrix(0.043827160493827164,0,0,0.043827160493827164,18.36358024691358,0)" xlink:href="#az"/><use transform="matrix(0.043827160493827164,0,0,0.043827160493827164,32.38827160493827,0)" xlink:href="#aw"/><use transform="matrix(0.043827160493827164,0,0,0.043827160493827164,41.986419753086416,0)" xlink:href="#aj"/><use transform="matrix(0.043827160493827164,0,0,0.043827160493827164,51.584567901234564,0)" xlink:href="#ao"/><use transform="matrix(0.043827160493827164,0,0,0.043827160493827164,61.18271604938271,0)" xlink:href="#ar"/><use transform="matrix(0.043827160493827164,0,0,0.043827160493827164,69.94814814814815,0)" xlink:href="#ao"/><use transform="matrix(0.043827160493827164,0,0,0.043827160493827164,79.5462962962963,0)" xlink:href="#av"/><use transform="matrix(0.043827160493827164,0,0,0.043827160493827164,84.76172839506174,0)" xlink:href="#ar"/><use transform="matrix(0.043827160493827164,0,0,0.043827160493827164,93.52716049382717,0)" xlink:href="#au"/></g><g id="l"><use transform="matrix(0.043827160493827164,0,0,0.043827160493827164,0,0)" xlink:href="#ap"/><use transform="matrix(0.043827160493827164,0,0,0.043827160493827164,9.598148148148148,0)" xlink:href="#ah"/><use transform="matrix(0.043827160493827164,0,0,0.043827160493827164,13.980864197530863,0)" xlink:href="#aq"/><use transform="matrix(0.043827160493827164,0,0,0.043827160493827164,20.116666666666667,0)" xlink:href="#ar"/><use transform="matrix(0.043827160493827164,0,0,0.043827160493827164,28.882098765432097,0)" xlink:href="#aA"/><use transform="matrix(0.043827160493827164,0,0,0.043827160493827164,37.64753086419753,0)" xlink:href="#ah"/><use transform="matrix(0.043827160493827164,0,0,0.043827160493827164,42.03024691358024,0)" xlink:href="#aj"/><use transform="matrix(0.043827160493827164,0,0,0.043827160493827164,51.62839506172839,0)" xlink:href="#ao"/><use transform="matrix(0.043827160493827164,0,0,0.043827160493827164,61.22654320987654,0)" xlink:href="#ai"/><use transform="matrix(0.043827160493827164,0,0,0.043827160493827164,69.99197530864197,0)" xlink:href="#ah"/><use transform="matrix(0.043827160493827164,0,0,0.043827160493827164,74.37469135802469,0)" xlink:href="#au"/></g><g id="m"><use transform="matrix(0.043827160493827164,0,0,0.043827160493827164,0,0)" xlink:href="#aw"/><use transform="matrix(0.043827160493827164,0,0,0.043827160493827164,9.598148148148148,0)" xlink:href="#ai"/><use transform="matrix(0.043827160493827164,0,0,0.043827160493827164,18.36358024691358,0)" xlink:href="#aq"/><use transform="matrix(0.043827160493827164,0,0,0.043827160493827164,24.499382716049386,0)" xlink:href="#ai"/></g><path d="M144 0l-44-69L55 0H2l70-98-66-92h53l41 62 40-62h54l-67 91 71 99h-54" id="aB"/><use transform="matrix(0.043827160493827164,0,0,0.043827160493827164,0,0)" xlink:href="#aB" id="n"/><use transform="matrix(0.043827160493827164,0,0,0.043827160493827164,0,0)" xlink:href="#ar" id="o"/><path d="M123 10C108 53 80 86 19 72V37c35 8 53-11 59-39L3-190h52l48 148c12-52 28-100 44-148h51" id="aC"/><use transform="matrix(0.043827160493827164,0,0,0.043827160493827164,0,0)" xlink:href="#aC" id="p"/><path d="M24 0v-248h52V0H24" id="aD"/><path d="M121-226c-27-7-43 5-38 36h38v33H83V0H34v-157H6v-33h28c-9-59 32-81 87-68v32" id="aE"/><g id="q"><use transform="matrix(0.043827160493827164,0,0,0.043827160493827164,0,0)" xlink:href="#aD"/><use transform="matrix(0.043827160493827164,0,0,0.043827160493827164,4.382716049382716,0)" xlink:href="#ap"/><use transform="matrix(0.043827160493827164,0,0,0.043827160493827164,13.980864197530863,0)" xlink:href="#ar"/><use transform="matrix(0.043827160493827164,0,0,0.043827160493827164,22.746296296296293,0)" xlink:href="#ao"/><use transform="matrix(0.043827160493827164,0,0,0.043827160493827164,32.34444444444444,0)" xlink:href="#av"/><use transform="matrix(0.043827160493827164,0,0,0.043827160493827164,37.559876543209874,0)" xlink:href="#ah"/><use transform="matrix(0.043827160493827164,0,0,0.043827160493827164,41.94259259259259,0)" xlink:href="#aE"/><use transform="matrix(0.043827160493827164,0,0,0.043827160493827164,47.158024691358015,0)" xlink:href="#ah"/><use transform="matrix(0.043827160493827164,0,0,0.043827160493827164,51.54074074074074,0)" xlink:href="#aA"/><use transform="matrix(0.043827160493827164,0,0,0.043827160493827164,60.30617283950617,0)" xlink:href="#ai"/></g><use transform="matrix(0.043827160493827164,0,0,0.043827160493827164,0,0)" xlink:href="#ai" id="r"/><g id="s"><use transform="matrix(0.043827160493827164,0,0,0.043827160493827164,0,0)" xlink:href="#ap"/><use transform="matrix(0.043827160493827164,0,0,0.043827160493827164,9.598148148148148,0)" xlink:href="#ah"/><use transform="matrix(0.043827160493827164,0,0,0.043827160493827164,13.980864197530863,0)" xlink:href="#aq"/><use transform="matrix(0.043827160493827164,0,0,0.043827160493827164,20.116666666666667,0)" xlink:href="#ar"/><use transform="matrix(0.043827160493827164,0,0,0.043827160493827164,28.882098765432097,0)" xlink:href="#as"/><use transform="matrix(0.043827160493827164,0,0,0.043827160493827164,37.64753086419753,0)" xlink:href="#at"/><use transform="matrix(0.043827160493827164,0,0,0.043827160493827164,46.41296296296296,0)" xlink:href="#aj"/></g><g id="t"><use transform="matrix(0.043827160493827164,0,0,0.043827160493827164,0,0)" xlink:href="#ap"/><use transform="matrix(0.043827160493827164,0,0,0.043827160493827164,9.598148148148148,0)" xlink:href="#aj"/></g><g id="u"><use transform="matrix(0.043827160493827164,0,0,0.043827160493827164,0,0)" xlink:href="#ap"/><use transform="matrix(0.043827160493827164,0,0,0.043827160493827164,9.598148148148148,0)" xlink:href="#ar"/><use transform="matrix(0.043827160493827164,0,0,0.043827160493827164,18.36358024691358,0)" xlink:href="#au"/><use transform="matrix(0.043827160493827164,0,0,0.043827160493827164,27.12901234567901,0)" xlink:href="#ax"/><use transform="matrix(0.043827160493827164,0,0,0.043827160493827164,31.511728395061727,0)" xlink:href="#aj"/><use transform="matrix(0.043827160493827164,0,0,0.043827160493827164,41.10987654320987,0)" xlink:href="#aA"/><use transform="matrix(0.043827160493827164,0,0,0.043827160493827164,49.8753086419753,0)" xlink:href="#ai"/><use transform="matrix(0.043827160493827164,0,0,0.043827160493827164,58.64074074074073,0)" xlink:href="#az"/><use transform="matrix(0.043827160493827164,0,0,0.043827160493827164,72.66543209876542,0)" xlink:href="#ar"/><use transform="matrix(0.043827160493827164,0,0,0.043827160493827164,81.43086419753085,0)" xlink:href="#ao"/><use transform="matrix(0.043827160493827164,0,0,0.043827160493827164,91.02901234567899,0)" xlink:href="#av"/><use transform="matrix(0.043827160493827164,0,0,0.043827160493827164,96.24444444444443,0)" xlink:href="#aj"/></g><path d="M76-54c-1 42 2 86-19 110H24C36 42 46 24 48 0H25v-54h51" id="aF"/><g id="v"><use transform="matrix(0.043827160493827164,0,0,0.043827160493827164,0,0)" xlink:href="#am"/><use transform="matrix(0.043827160493827164,0,0,0.043827160493827164,11.351234567901235,0)" xlink:href="#aj"/><use transform="matrix(0.043827160493827164,0,0,0.043827160493827164,20.949382716049385,0)" xlink:href="#aq"/><use transform="matrix(0.043827160493827164,0,0,0.043827160493827164,27.085185185185185,0)" xlink:href="#av"/><use transform="matrix(0.043827160493827164,0,0,0.043827160493827164,32.30061728395062,0)" xlink:href="#ar"/><use transform="matrix(0.043827160493827164,0,0,0.043827160493827164,41.06604938271605,0)" xlink:href="#aF"/></g><g id="w"><use transform="matrix(0.043827160493827164,0,0,0.043827160493827164,0,0)" xlink:href="#au"/><use transform="matrix(0.043827160493827164,0,0,0.043827160493827164,8.765432098765432,0)" xlink:href="#ag"/><use transform="matrix(0.043827160493827164,0,0,0.043827160493827164,18.36358024691358,0)" xlink:href="#ax"/><use transform="matrix(0.043827160493827164,0,0,0.043827160493827164,22.746296296296293,0)" xlink:href="#aF"/></g><path d="M24 0v-248h52v208h133V0H24" id="aG"/><g id="x"><use transform="matrix(0.043827160493827164,0,0,0.043827160493827164,0,0)" xlink:href="#aG"/><use transform="matrix(0.043827160493827164,0,0,0.043827160493827164,9.598148148148148,0)" xlink:href="#ar"/><use transform="matrix(0.043827160493827164,0,0,0.043827160493827164,18.36358024691358,0)" xlink:href="#au"/><use transform="matrix(0.043827160493827164,0,0,0.043827160493827164,27.12901234567901,0)" xlink:href="#av"/><use transform="matrix(0.043827160493827164,0,0,0.043827160493827164,32.34444444444444,0)" xlink:href="#ar"/></g><g id="y"><use transform="matrix(0.043827160493827164,0,0,0.043827160493827164,0,0)" xlink:href="#aj"/><use transform="matrix(0.043827160493827164,0,0,0.043827160493827164,9.598148148148148,0)" xlink:href="#ag"/></g><path d="M140-251c80 0 125 45 125 126S219 4 139 4C58 4 15-44 15-125s44-126 125-126zm-1 214c52 0 73-35 73-88 0-50-21-86-72-86-52 0-73 35-73 86s22 88 72 88" id="aH"/><g id="z"><use transform="matrix(0.043827160493827164,0,0,0.043827160493827164,0,0)" xlink:href="#aH"/><use transform="matrix(0.043827160493827164,0,0,0.043827160493827164,12.271604938271606,0)" xlink:href="#ar"/><use transform="matrix(0.043827160493827164,0,0,0.043827160493827164,21.037037037037038,0)" xlink:href="#au"/><use transform="matrix(0.043827160493827164,0,0,0.043827160493827164,29.802469135802465,0)" xlink:href="#av"/><use transform="matrix(0.043827160493827164,0,0,0.043827160493827164,35.0179012345679,0)" xlink:href="#ar"/></g><path fill="#a3d977" d="M24-248c93 1 206-16 204 79-1 75-69 88-152 82V0H24v-248zm52 121c47 0 100 7 100-41 0-47-54-39-100-39v80" id="aI"/><path fill="#a3d977" d="M185-48c-13 30-37 53-82 52C43 2 14-33 14-96s30-98 90-98c62 0 83 45 84 108H66c0 31 8 55 39 56 18 0 30-7 34-22zm-45-69c5-46-57-63-70-21-2 6-4 13-4 21h74" id="aJ"/><path fill="#a3d977" d="M137-138c1-29-70-34-71-4 15 46 118 7 119 86 1 83-164 76-172 9l43-7c4 19 20 25 44 25 33 8 57-30 24-41C81-84 22-81 20-136c-2-80 154-74 161-7" id="aK"/><path fill="#a3d977" d="M110-194c64 0 96 36 96 99 0 64-35 99-97 99-61 0-95-36-95-99 0-62 34-99 96-99zm-1 164c35 0 45-28 45-65 0-40-10-65-43-65-34 0-45 26-45 65 0 36 10 65 43 65" id="aL"/><path fill="#a3d977" d="M133-34C117-15 103 5 69 4 32 3 11-16 11-54c-1-60 55-63 116-61 1-26-3-47-28-47-18 1-26 9-28 27l-52-2c7-38 36-58 82-57s74 22 75 68l1 82c-1 14 12 18 25 15v27c-30 8-71 5-69-32zm-48 3c29 0 43-24 42-57-32 0-66-3-65 30 0 17 8 27 23 27" id="aM"/><g id="A"><use transform="matrix(0.03765432098765432,0,0,0.03765432098765432,0,0)" xlink:href="#aI"/><use transform="matrix(0.03765432098765432,0,0,0.03765432098765432,9.037037037037036,0)" xlink:href="#aJ"/><use transform="matrix(0.03765432098765432,0,0,0.03765432098765432,16.5679012345679,0)" xlink:href="#aK"/><use transform="matrix(0.03765432098765432,0,0,0.03765432098765432,24.098765432098762,0)" xlink:href="#aK"/><use transform="matrix(0.03765432098765432,0,0,0.03765432098765432,31.629629629629626,0)" xlink:href="#aL"/><use transform="matrix(0.03765432098765432,0,0,0.03765432098765432,39.87592592592592,0)" xlink:href="#aM"/></g><path fill="#fff" d="M609-1161c-125 0-218 36-218 153 0 149 166 161 290 196 235 67 484 129 484 421 0 300-239 408-554 411C302 23 93-114 38-367l285-37c32 128 131 205 296 203 143-2 259-31 259-173 0-164-197-172-333-212-218-64-441-131-441-405 0-276 231-379 511-379 299 0 463 114 513 363l-286 29c-28-115-96-183-233-183" id="aN"/><path fill="#fff" d="M794-190h353V0H118v-190h395v-702H223v-190h571v892zM513-1277v-207h281v207H513" id="aO"/><path fill="#fff" d="M622-916c-112 2-200 14-200 111 0 90 89 101 168 121 234 58 514 77 514 368C1104-4 751 54 434 5 267-21 161-112 121-270l247-37c24 111 113 145 252 141 114-3 226-12 226-124 0-101-103-113-192-134-225-54-490-76-490-351 0-247 201-328 458-328 245 0 413 88 457 292l-249 26c-16-98-92-133-208-131" id="aP"/><path fill="#fff" d="M711 13c-250 0-386-99-385-349l2-556H161v-190h181l88-282h176v282h385v190H606v530c-10 130 45 186 174 184 91-2 176-11 255-27v186C933-1 833 13 711 13" id="aQ"/><path fill="#fff" d="M1113-274C1038-96 884 20 626 20c-352 0-526-209-526-566 0-358 185-556 530-556 358 0 496 251 499 615H395c5 180 68 319 245 319 102 0 186-45 208-129zM857-663c-6-177-128-307-315-247-94 30-141 121-145 247h460" id="aR"/><path fill="#fff" d="M934-1102c199 0 220 177 220 381V0H926c-2-260 10-533-4-785-4-72-14-138-83-138-34 0-61 27-81 81s-29 134-29 241V0H501c-2-260 9-533-5-785-4-72-13-138-82-138-46 0-65 47-80 93-21 67-30 155-30 248V0H75c-3-360 6-732-6-1082h209c6 50 3 123 8 175 36-100 83-195 216-195 135 0 166 79 196 196 42-105 93-196 236-196" id="aS"/><path fill="#fff" d="M775-193C708-75 621 20 439 20 226 20 106-93 106-306c0-251 170-341 417-346l223-4c4-143-12-264-148-264-103 0-141 58-150 153l-293-14c37-219 194-321 455-321 263 0 418 130 417 390v392c1 84 5 161 89 160 21 0 42-2 62-6v152c-57 15-108 27-180 26-145 0-202-73-217-205h-6zm-256 17c168 0 234-139 227-325-166 4-347-25-347 173 0 94 33 152 120 152" id="aT"/><g id="B"><use transform="matrix(0.009874131944444444,0,0,0.009874131944444444,0,0)" xlink:href="#aN"/><use transform="matrix(0.009874131944444444,0,0,0.009874131944444444,12.135308159722221,0)" xlink:href="#aO"/><use transform="matrix(0.009874131944444444,0,0,0.009874131944444444,24.270616319444443,0)" xlink:href="#aP"/><use transform="matrix(0.009874131944444444,0,0,0.009874131944444444,36.405924479166664,0)" xlink:href="#aQ"/><use transform="matrix(0.009874131944444444,0,0,0.009874131944444444,48.541232638888886,0)" xlink:href="#aR"/><use transform="matrix(0.009874131944444444,0,0,0.009874131944444444,60.67654079861111,0)" xlink:href="#aS"/><use transform="matrix(0.009874131944444444,0,0,0.009874131944444444,72.81184895833333,0)" xlink:href="#aT"/></g><path fill="#fff" d="M802-909c-3-189-2-383-2-575h281v1248c-1 83 4 168 8 236H817c-9-50-14-117-15-176h-4C735-49 651 20 482 20 191 20 97-238 97-539c0-243 66-432 221-519 50-28 108-42 175-42 162 2 253 78 309 191zm-70 658c91-113 93-462 2-584-46-61-145-100-224-53-96 56-119 190-120 349 0 123 17 214 52 275 46 82 130 115 222 74 25-12 46-33 68-61" id="aU"/><g id="C"><use transform="matrix(0.009874131944444444,0,0,0.009874131944444444,0,0)" xlink:href="#aU"/><use transform="matrix(0.009874131944444444,0,0,0.009874131944444444,12.135308159722221,0)" xlink:href="#aR"/></g><path fill="#fff" d="M872-915c-35-112-84-223-220-223-91 0-156 41-204 116-89 137-87 550 2 688 51 79 116 122 209 122 150 0 197-126 240-244l273 52C1094-168 961 20 656 20 239 20 80-262 80-681c0-418 154-689 568-689 289 0 425 167 496 389" id="aV"/><path fill="#fff" d="M616-1102c361 0 521 202 521 560 0 354-171 562-527 562C259 20 92-192 92-542c0-351 169-560 524-560zm-9 930c200-2 236-165 236-370 0-199-27-367-223-367-195 0-233 146-233 367 0 129 18 223 55 282s92 88 165 88" id="aW"/><path fill="#fff" d="M768-1103c247 0 336 167 336 416V0H824v-619c-3-164-24-273-171-273-164 0-229 142-229 312V0H143c-4-359 9-736-8-1082h268c7 63 12 146 13 215h4c67-145 160-236 348-236" id="aX"/><path fill="#fff" d="M875-1102c70 0 148 7 206 17v237c-110-17-267-37-359 15-123 69-192 207-192 395V0H250c-10-367 32-789-52-1082h271c19 69 36 149 46 228h4c52-151 151-250 356-248" id="aY"/><path fill="#fff" d="M794-190h353V0H118v-190h395v-1104H223v-190h571v1294" id="aZ"/><g id="D"><use transform="matrix(0.009874131944444444,0,0,0.009874131944444444,0,0)" xlink:href="#aV"/><use transform="matrix(0.009874131944444444,0,0,0.009874131944444444,12.135308159722221,0)" xlink:href="#aW"/><use transform="matrix(0.009874131944444444,0,0,0.009874131944444444,24.270616319444443,0)" xlink:href="#aX"/><use transform="matrix(0.009874131944444444,0,0,0.009874131944444444,36.405924479166664,0)" xlink:href="#aQ"/><use transform="matrix(0.009874131944444444,0,0,0.009874131944444444,48.541232638888886,0)" xlink:href="#aY"/><use transform="matrix(0.009874131944444444,0,0,0.009874131944444444,60.67654079861111,0)" xlink:href="#aW"/><use transform="matrix(0.009874131944444444,0,0,0.009874131944444444,72.81184895833333,0)" xlink:href="#aZ"/><use transform="matrix(0.009874131944444444,0,0,0.009874131944444444,84.94715711805553,0)" xlink:href="#aR"/></g><use transform="matrix(0.009874131944444444,0,0,0.009874131944444444,0,0)" xlink:href="#aR" id="E"/><path fill="#fff" d="M1229 0H935l-92-330H387L295 0H0l443-1349h344zM615-1167c-46 213-110 412-166 615h332c-56-204-119-401-166-615" id="ba"/><path fill="#fff" d="M471 20c-247 0-336-169-336-415v-687h281v607c4 148 31 285 172 285 152 0 207-150 207-312v-580h281c4 359-9 736 8 1082H816c-7-63-11-146-12-215h-5C736-76 644 20 471 20" id="bb"/><path fill="#fff" d="M1109-360C1066-122 902 20 624 20c-347 0-514-209-514-555 0-353 168-567 518-567 270 0 425 136 473 361l-283 14c-16-106-75-183-196-182-75 0-130 31-165 93s-52 152-52 270c0 249 74 374 221 374 120 0 188-82 201-201zM645 102c110 4 185 51 185 153 0 184-210 201-404 184V321c84 11 221 20 221-62 0-75-92-71-174-67L542 0h143" id="bc"/><path fill="#fff" d="M775-193C708-75 621 20 439 20 226 20 106-93 106-306c0-251 170-341 417-346l223-4c4-143-12-264-148-264-103 0-141 58-150 153l-293-14c37-219 194-321 455-321 263 0 418 130 417 390v392c1 84 5 161 89 160 21 0 42-2 62-6v152c-57 15-108 27-180 26-145 0-202-73-217-205h-6zm-256 17c168 0 234-139 227-325-166 4-347-25-347 173 0 94 33 152 120 152zm477-1290c-9 158-56 283-223 283-131 0-203-102-322-113-73-7-90 48-98 113H216c10-157 57-283 225-283 104 0 179 63 255 96 25 11 47 17 66 17 73 1 89-50 99-113h135" id="bd"/><g id="F"><use transform="matrix(0.009874131944444444,0,0,0.009874131944444444,0,0)" xlink:href="#ba"/><use transform="matrix(0.009874131944444444,0,0,0.009874131944444444,12.135308159722221,0)" xlink:href="#bb"/><use transform="matrix(0.009874131944444444,0,0,0.009874131944444444,24.270616319444443,0)" xlink:href="#aQ"/><use transform="matrix(0.009874131944444444,0,0,0.009874131944444444,36.405924479166664,0)" xlink:href="#aW"/><use transform="matrix(0.009874131944444444,0,0,0.009874131944444444,48.541232638888886,0)" xlink:href="#aS"/><use transform="matrix(0.009874131944444444,0,0,0.009874131944444444,60.67654079861111,0)" xlink:href="#aT"/><use transform="matrix(0.009874131944444444,0,0,0.009874131944444444,72.81184895833333,0)" xlink:href="#bc"/><use transform="matrix(0.009874131944444444,0,0,0.009874131944444444,84.94715711805553,0)" xlink:href="#bd"/><use transform="matrix(0.009874131944444444,0,0,0.009874131944444444,97.08246527777777,0)" xlink:href="#aW"/></g><path d="M230 0l2-204L168 0h-37L68-204 70 0H24v-248h70l56 185 57-185h69V0h-46" id="be"/><path d="M110-194c64 0 96 36 96 99 0 64-35 99-97 99-61 0-95-36-95-99 0-62 34-99 96-99zm-1 164c35 0 45-28 45-65 0-40-10-65-43-65-34 0-45 26-45 65 0 36 10 65 43 65zM81-208v-5l45-51h45v8l-60 48H81" id="bf"/><g id="G"><use transform="matrix(0.043827160493827164,0,0,0.043827160493827164,0,0)" xlink:href="#be"/><use transform="matrix(0.043827160493827164,0,0,0.043827160493827164,13.104320987654322,0)" xlink:href="#bf"/><use transform="matrix(0.043827160493827164,0,0,0.043827160493827164,22.70246913580247,0)" xlink:href="#ap"/><use transform="matrix(0.043827160493827164,0,0,0.043827160493827164,32.300617283950615,0)" xlink:href="#ag"/><use transform="matrix(0.043827160493827164,0,0,0.043827160493827164,41.89876543209876,0)" xlink:href="#ax"/><use transform="matrix(0.043827160493827164,0,0,0.043827160493827164,46.28148148148148,0)" xlink:href="#aj"/></g><g id="H"><use transform="matrix(0.043827160493827164,0,0,0.043827160493827164,0,0)" xlink:href="#ap"/><use transform="matrix(0.043827160493827164,0,0,0.043827160493827164,9.598148148148148,0)" xlink:href="#ar"/></g><path d="M114-157C55-157 80-60 75 0H25v-261h50l-1 109c12-26 28-41 61-42 86-1 58 113 63 194h-50c-7-57 23-157-34-157" id="bg"/><g id="I"><use transform="matrix(0.043827160493827164,0,0,0.043827160493827164,0,0)" xlink:href="#aq"/><use transform="matrix(0.043827160493827164,0,0,0.043827160493827164,6.135802469135803,0)" xlink:href="#ar"/><use transform="matrix(0.043827160493827164,0,0,0.043827160493827164,14.901234567901232,0)" xlink:href="#aA"/><use transform="matrix(0.043827160493827164,0,0,0.043827160493827164,23.666666666666664,0)" xlink:href="#aj"/><use transform="matrix(0.043827160493827164,0,0,0.043827160493827164,33.26481481481481,0)" xlink:href="#ao"/><use transform="matrix(0.043827160493827164,0,0,0.043827160493827164,42.86296296296296,0)" xlink:href="#bg"/><use transform="matrix(0.043827160493827164,0,0,0.043827160493827164,52.4611111111111,0)" xlink:href="#ar"/><use transform="matrix(0.043827160493827164,0,0,0.043827160493827164,61.22654320987654,0)" xlink:href="#aA"/><use transform="matrix(0.043827160493827164,0,0,0.043827160493827164,69.99197530864197,0)" xlink:href="#ah"/><use transform="matrix(0.043827160493827164,0,0,0.043827160493827164,74.37469135802469,0)" xlink:href="#az"/><use transform="matrix(0.043827160493827164,0,0,0.043827160493827164,88.39938271604939,0)" xlink:href="#ar"/><use transform="matrix(0.043827160493827164,0,0,0.043827160493827164,97.16481481481482,0)" xlink:href="#ao"/><use transform="matrix(0.043827160493827164,0,0,0.043827160493827164,106.76296296296297,0)" xlink:href="#av"/><use transform="matrix(0.043827160493827164,0,0,0.043827160493827164,111.9783950617284,0)" xlink:href="#aj"/></g><g id="J"><use transform="matrix(0.043827160493827164,0,0,0.043827160493827164,0,0)" xlink:href="#aE"/><use transform="matrix(0.043827160493827164,0,0,0.043827160493827164,5.215432098765432,0)" xlink:href="#ai"/><use transform="matrix(0.043827160493827164,0,0,0.043827160493827164,13.980864197530863,0)" xlink:href="#aA"/><use transform="matrix(0.043827160493827164,0,0,0.043827160493827164,22.746296296296293,0)" xlink:href="#ah"/><use transform="matrix(0.043827160493827164,0,0,0.043827160493827164,27.12901234567901,0)" xlink:href="#ai"/><use transform="matrix(0.043827160493827164,0,0,0.043827160493827164,35.89444444444444,0)" xlink:href="#ax"/></g><path fill="#fff" d="M766 0H467L3-1349h308c102 347 212 687 307 1041 91-356 204-694 304-1041h305" id="bh"/><g id="K"><use transform="matrix(0.009874131944444444,0,0,0.009874131944444444,0,0)" xlink:href="#bh"/><use transform="matrix(0.009874131944444444,0,0,0.009874131944444444,12.135308159722221,0)" xlink:href="#aO"/><use transform="matrix(0.009874131944444444,0,0,0.009874131944444444,24.270616319444443,0)" xlink:href="#aP"/><use transform="matrix(0.009874131944444444,0,0,0.009874131944444444,36.405924479166664,0)" xlink:href="#bd"/><use transform="matrix(0.009874131944444444,0,0,0.009874131944444444,48.541232638888886,0)" xlink:href="#aW"/></g><path fill="#fff" d="M427-171c3 195 2 397 2 596H148V-846c1-83-4-168-8-236h272c10 49 14 118 15 176h4c59-114 151-197 316-197 291 0 385 259 385 560 0 243-65 433-220 521-50 28-109 42-176 42-162-2-253-78-309-191zm69-661c-91 113-92 463-1 586 46 62 145 101 225 54 96-57 118-191 119-351 0-123-18-215-53-276-46-82-128-115-220-74-25 12-48 33-70 61" id="bi"/><path fill="#fff" d="M1109-360C1066-122 902 20 624 20c-347 0-514-209-514-555 0-353 168-567 518-567 270 0 425 136 473 361l-283 14c-16-106-75-183-196-182-75 0-130 31-165 93s-52 152-52 270c0 249 74 374 221 374 120 0 188-82 201-201" id="bj"/><g id="L"><use transform="matrix(0.009874131944444444,0,0,0.009874131944444444,0,0)" xlink:href="#aV"/><use transform="matrix(0.009874131944444444,0,0,0.009874131944444444,12.135308159722221,0)" xlink:href="#aW"/><use transform="matrix(0.009874131944444444,0,0,0.009874131944444444,24.270616319444443,0)" xlink:href="#aS"/><use transform="matrix(0.009874131944444444,0,0,0.009874131944444444,36.405924479166664,0)" xlink:href="#bi"/><use transform="matrix(0.009874131944444444,0,0,0.009874131944444444,48.541232638888886,0)" xlink:href="#bb"/><use transform="matrix(0.009874131944444444,0,0,0.009874131944444444,60.67654079861111,0)" xlink:href="#aQ"/><use transform="matrix(0.009874131944444444,0,0,0.009874131944444444,72.81184895833333,0)" xlink:href="#aT"/><use transform="matrix(0.009874131944444444,0,0,0.009874131944444444,84.94715711805553,0)" xlink:href="#bj"/><use transform="matrix(0.009874131944444444,0,0,0.009874131944444444,97.08246527777777,0)" xlink:href="#aO"/><use transform="matrix(0.009874131944444444,0,0,0.009874131944444444,109.2177734375,0)" xlink:href="#aW"/><use transform="matrix(0.009874131944444444,0,0,0.009874131944444444,121.35308159722223,0)" xlink:href="#aX"/><use transform="matrix(0.009874131944444444,0,0,0.009874131944444444,133.48838975694446,0)" xlink:href="#aT"/><use transform="matrix(0.009874131944444444,0,0,0.009874131944444444,145.62369791666669,0)" xlink:href="#aZ"/></g><path d="M24-248c120-7 223 5 221 122C244-46 201 0 124 0H24v-248zM76-40c74 7 117-18 117-86 0-67-45-88-117-82v168" id="bk"/><g id="M"><use transform="matrix(0.043827160493827164,0,0,0.043827160493827164,0,0)" xlink:href="#bk"/><use transform="matrix(0.043827160493827164,0,0,0.043827160493827164,11.351234567901235,0)" xlink:href="#ar"/><use transform="matrix(0.043827160493827164,0,0,0.043827160493827164,20.116666666666667,0)" xlink:href="#av"/><use transform="matrix(0.043827160493827164,0,0,0.043827160493827164,25.3320987654321,0)" xlink:href="#ar"/><use transform="matrix(0.043827160493827164,0,0,0.043827160493827164,34.09753086419753,0)" xlink:href="#aA"/><use transform="matrix(0.043827160493827164,0,0,0.043827160493827164,42.86296296296296,0)" xlink:href="#av"/><use transform="matrix(0.043827160493827164,0,0,0.043827160493827164,48.0783950617284,0)" xlink:href="#ai"/></g><g id="N"><use transform="matrix(0.043827160493827164,0,0,0.043827160493827164,0,0)" xlink:href="#ai"/><use transform="matrix(0.043827160493827164,0,0,0.043827160493827164,8.765432098765432,0)" xlink:href="#ax"/><use transform="matrix(0.043827160493827164,0,0,0.043827160493827164,13.148148148148149,0)" xlink:href="#av"/><use transform="matrix(0.043827160493827164,0,0,0.043827160493827164,18.363580246913582,0)" xlink:href="#ah"/><use transform="matrix(0.043827160493827164,0,0,0.043827160493827164,22.746296296296297,0)" xlink:href="#av"/><use transform="matrix(0.043827160493827164,0,0,0.043827160493827164,27.96172839506173,0)" xlink:href="#ag"/><use transform="matrix(0.043827160493827164,0,0,0.043827160493827164,37.55987654320988,0)" xlink:href="#ap"/><use transform="matrix(0.043827160493827164,0,0,0.043827160493827164,47.15802469135803,0)" xlink:href="#ar"/></g><g id="O"><use transform="matrix(0.043827160493827164,0,0,0.043827160493827164,0,0)" xlink:href="#ar"/><use transform="matrix(0.043827160493827164,0,0,0.043827160493827164,8.765432098765432,0)" xlink:href="#au"/><use transform="matrix(0.043827160493827164,0,0,0.043827160493827164,17.530864197530864,0)" xlink:href="#aw"/><use transform="matrix(0.043827160493827164,0,0,0.043827160493827164,27.129012345679016,0)" xlink:href="#ar"/><use transform="matrix(0.043827160493827164,0,0,0.043827160493827164,35.894444444444446,0)" xlink:href="#aA"/><use transform="matrix(0.043827160493827164,0,0,0.043827160493827164,44.659876543209876,0)" xlink:href="#ah"/><use transform="matrix(0.043827160493827164,0,0,0.043827160493827164,49.042592592592584,0)" xlink:href="#aE"/><use transform="matrix(0.043827160493827164,0,0,0.043827160493827164,54.25802469135803,0)" xlink:href="#ah"/><use transform="matrix(0.043827160493827164,0,0,0.043827160493827164,58.64074074074073,0)" xlink:href="#aA"/><use transform="matrix(0.043827160493827164,0,0,0.043827160493827164,67.40617283950617,0)" xlink:href="#ai"/><use transform="matrix(0.043827160493827164,0,0,0.043827160493827164,76.1716049382716,0)" xlink:href="#ap"/><use transform="matrix(0.043827160493827164,0,0,0.043827160493827164,85.76975308641974,0)" xlink:href="#ai"/></g><g id="P"><use transform="matrix(0.043827160493827164,0,0,0.043827160493827164,0,0)" xlink:href="#ah"/><use transform="matrix(0.043827160493827164,0,0,0.043827160493827164,4.382716049382716,0)" xlink:href="#ao"/><use transform="matrix(0.043827160493827164,0,0,0.043827160493827164,13.980864197530863,0)" xlink:href="#ah"/><use transform="matrix(0.043827160493827164,0,0,0.043827160493827164,18.36358024691358,0)" xlink:href="#aA"/><use transform="matrix(0.043827160493827164,0,0,0.043827160493827164,27.12901234567901,0)" xlink:href="#ah"/><use transform="matrix(0.043827160493827164,0,0,0.043827160493827164,31.511728395061727,0)" xlink:href="#ai"/><use transform="matrix(0.043827160493827164,0,0,0.043827160493827164,40.277160493827154,0)" xlink:href="#aq"/></g><use transform="matrix(0.043827160493827164,0,0,0.043827160493827164,0,0)" xlink:href="#aj" id="Q"/><g id="R"><use transform="matrix(0.043827160493827164,0,0,0.043827160493827164,0,0)" xlink:href="#aE"/><use transform="matrix(0.043827160493827164,0,0,0.043827160493827164,5.215432098765432,0)" xlink:href="#ag"/><use transform="matrix(0.043827160493827164,0,0,0.043827160493827164,14.813580246913581,0)" xlink:href="#ao"/><use transform="matrix(0.043827160493827164,0,0,0.043827160493827164,24.41172839506173,0)" xlink:href="#aA"/><use transform="matrix(0.043827160493827164,0,0,0.043827160493827164,33.17716049382716,0)" xlink:href="#ah"/><use transform="matrix(0.043827160493827164,0,0,0.043827160493827164,37.559876543209874,0)" xlink:href="#aj"/><use transform="matrix(0.043827160493827164,0,0,0.043827160493827164,47.158024691358015,0)" xlink:href="#ao"/><use transform="matrix(0.043827160493827164,0,0,0.043827160493827164,56.75617283950616,0)" xlink:href="#ai"/><use transform="matrix(0.043827160493827164,0,0,0.043827160493827164,65.52160493827161,0)" xlink:href="#az"/><use transform="matrix(0.043827160493827164,0,0,0.043827160493827164,79.5462962962963,0)" xlink:href="#ar"/><use transform="matrix(0.043827160493827164,0,0,0.043827160493827164,88.31172839506173,0)" xlink:href="#ao"/><use transform="matrix(0.043827160493827164,0,0,0.043827160493827164,97.90987654320989,0)" xlink:href="#av"/><use transform="matrix(0.043827160493827164,0,0,0.043827160493827164,103.12530864197531,0)" xlink:href="#aj"/></g><g id="S"><use transform="matrix(0.043827160493827164,0,0,0.043827160493827164,0,0)" xlink:href="#ap"/><use transform="matrix(0.043827160493827164,0,0,0.043827160493827164,9.598148148148148,0)" xlink:href="#aj"/></g><g id="T"><use transform="matrix(0.043827160493827164,0,0,0.043827160493827164,0,0)" xlink:href="#au"/><use transform="matrix(0.043827160493827164,0,0,0.043827160493827164,8.765432098765432,0)" xlink:href="#ah"/><use transform="matrix(0.043827160493827164,0,0,0.043827160493827164,13.148148148148149,0)" xlink:href="#au"/><use transform="matrix(0.043827160493827164,0,0,0.043827160493827164,21.913580246913583,0)" xlink:href="#av"/><use transform="matrix(0.043827160493827164,0,0,0.043827160493827164,27.129012345679016,0)" xlink:href="#ar"/><use transform="matrix(0.043827160493827164,0,0,0.043827160493827164,35.894444444444446,0)" xlink:href="#az"/><use transform="matrix(0.043827160493827164,0,0,0.043827160493827164,49.91913580246914,0)" xlink:href="#ai"/></g><g id="U"><use transform="matrix(0.043827160493827164,0,0,0.043827160493827164,0,0)" xlink:href="#be"/><use transform="matrix(0.043827160493827164,0,0,0.043827160493827164,13.104320987654322,0)" xlink:href="#bf"/><use transform="matrix(0.043827160493827164,0,0,0.043827160493827164,22.70246913580247,0)" xlink:href="#ap"/><use transform="matrix(0.043827160493827164,0,0,0.043827160493827164,32.300617283950615,0)" xlink:href="#ag"/><use transform="matrix(0.043827160493827164,0,0,0.043827160493827164,41.89876543209876,0)" xlink:href="#ax"/><use transform="matrix(0.043827160493827164,0,0,0.043827160493827164,46.28148148148148,0)" xlink:href="#aj"/></g><path d="M84 4C32 4 15-41 15-95c0-55 18-99 73-99 29 0 47 12 58 34l2-30h48l-1 265h-49V-32C136-9 114 4 84 4zm21-34c32 0 41-29 41-66 0-36-9-64-40-64-33 0-39 30-40 65 0 43 13 65 39 65" id="bl"/><g id="V"><use transform="matrix(0.043827160493827164,0,0,0.043827160493827164,0,0)" xlink:href="#bl"/><use transform="matrix(0.043827160493827164,0,0,0.043827160493827164,9.598148148148148,0)" xlink:href="#ag"/><use transform="matrix(0.043827160493827164,0,0,0.043827160493827164,19.196296296296296,0)" xlink:href="#ar"/></g><g id="W"><use transform="matrix(0.043827160493827164,0,0,0.043827160493827164,0,0)" xlink:href="#ap"/><use transform="matrix(0.043827160493827164,0,0,0.043827160493827164,9.598148148148148,0)" xlink:href="#ar"/><use transform="matrix(0.043827160493827164,0,0,0.043827160493827164,18.36358024691358,0)" xlink:href="#av"/><use transform="matrix(0.043827160493827164,0,0,0.043827160493827164,23.579012345679008,0)" xlink:href="#ar"/><use transform="matrix(0.043827160493827164,0,0,0.043827160493827164,32.34444444444444,0)" xlink:href="#aA"/><use transform="matrix(0.043827160493827164,0,0,0.043827160493827164,41.10987654320987,0)" xlink:href="#av"/><use transform="matrix(0.043827160493827164,0,0,0.043827160493827164,46.325308641975305,0)" xlink:href="#ai"/></g><g id="X"><use transform="matrix(0.043827160493827164,0,0,0.043827160493827164,0,0)" xlink:href="#ag"/><use transform="matrix(0.043827160493827164,0,0,0.043827160493827164,9.598148148148148,0)" xlink:href="#az"/></g><path d="M25 0v-190h50V0H25zm-5-208v-5l45-51h45v8l-60 48H20" id="bm"/><path d="M128 0H69L1-190h53L99-40l48-150h52" id="bn"/><g id="Y"><use transform="matrix(0.043827160493827164,0,0,0.043827160493827164,0,0)" xlink:href="#aw"/><use transform="matrix(0.043827160493827164,0,0,0.043827160493827164,9.598148148148148,0)" xlink:href="#aj"/><use transform="matrix(0.043827160493827164,0,0,0.043827160493827164,19.196296296296296,0)" xlink:href="#au"/><use transform="matrix(0.043827160493827164,0,0,0.043827160493827164,27.961728395061726,0)" xlink:href="#au"/><use transform="matrix(0.043827160493827164,0,0,0.043827160493827164,36.72716049382716,0)" xlink:href="#bm"/><use transform="matrix(0.043827160493827164,0,0,0.043827160493827164,41.10987654320987,0)" xlink:href="#bn"/><use transform="matrix(0.043827160493827164,0,0,0.043827160493827164,49.8753086419753,0)" xlink:href="#ar"/><use transform="matrix(0.043827160493827164,0,0,0.043827160493827164,58.64074074074073,0)" xlink:href="#ax"/></g><g id="Z"><use transform="matrix(0.043827160493827164,0,0,0.043827160493827164,0,0)" xlink:href="#ap"/><use transform="matrix(0.043827160493827164,0,0,0.043827160493827164,9.598148148148148,0)" xlink:href="#ar"/><use transform="matrix(0.043827160493827164,0,0,0.043827160493827164,18.36358024691358,0)" xlink:href="#au"/><use transform="matrix(0.043827160493827164,0,0,0.043827160493827164,27.12901234567901,0)" xlink:href="#ax"/><use transform="matrix(0.043827160493827164,0,0,0.043827160493827164,31.511728395061727,0)" xlink:href="#aj"/><use transform="matrix(0.043827160493827164,0,0,0.043827160493827164,41.10987654320987,0)" xlink:href="#aA"/><use transform="matrix(0.043827160493827164,0,0,0.043827160493827164,49.8753086419753,0)" xlink:href="#ai"/><use transform="matrix(0.043827160493827164,0,0,0.043827160493827164,58.64074074074073,0)" xlink:href="#az"/><use transform="matrix(0.043827160493827164,0,0,0.043827160493827164,72.66543209876542,0)" xlink:href="#ar"/><use transform="matrix(0.043827160493827164,0,0,0.043827160493827164,81.43086419753085,0)" xlink:href="#ao"/><use transform="matrix(0.043827160493827164,0,0,0.043827160493827164,91.02901234567899,0)" xlink:href="#av"/><use transform="matrix(0.043827160493827164,0,0,0.043827160493827164,96.24444444444443,0)" xlink:href="#aj"/></g><path fill="#c92d39" d="M190 0L58-211 59 0H30v-248h39L202-35l-2-213h31V0h-41" id="bo"/><path fill="#c92d39" d="M100-194c62-1 85 37 85 99 1 63-27 99-86 99S16-35 15-95c0-66 28-99 85-99zM99-20c44 1 53-31 53-75 0-43-8-75-51-75s-53 32-53 75 10 74 51 75" id="bp"/><path fill="#c92d39" d="M114-163C36-179 61-72 57 0H25l-1-190h30c1 12-1 29 2 39 6-27 23-49 58-41v29" id="bq"/><path fill="#c92d39" d="M59-47c-2 24 18 29 38 22v24C64 9 27 4 27-40v-127H5v-23h24l9-43h21v43h35v23H59v120" id="br"/><path fill="#c92d39" d="M100-194c63 0 86 42 84 106H49c0 40 14 67 53 68 26 1 43-12 49-29l28 8c-11 28-37 45-77 45C44 4 14-33 15-96c1-61 26-98 85-98zm52 81c6-60-76-77-97-28-3 7-6 17-6 28h103" id="bs"/><g id="aa"><use transform="matrix(0.03765432098765432,0,0,0.03765432098765432,0,0)" xlink:href="#bo"/><use transform="matrix(0.03765432098765432,0,0,0.03765432098765432,9.752469135802468,0)" xlink:href="#bp"/><use transform="matrix(0.03765432098765432,0,0,0.03765432098765432,17.28333333333333,0)" xlink:href="#bq"/><use transform="matrix(0.03765432098765432,0,0,0.03765432098765432,21.764197530864195,0)" xlink:href="#br"/><use transform="matrix(0.03765432098765432,0,0,0.03765432098765432,25.52962962962962,0)" xlink:href="#bs"/></g><path fill="#19967d" d="M30 0v-248h33v221h125V0H30" id="bt"/><path fill="#19967d" d="M100-194c63 0 86 42 84 106H49c0 40 14 67 53 68 26 1 43-12 49-29l28 8c-11 28-37 45-77 45C44 4 14-33 15-96c1-61 26-98 85-98zm52 81c6-60-76-77-97-28-3 7-6 17-6 28h103" id="bu"/><path fill="#19967d" d="M135-143c-3-34-86-38-87 0 15 53 115 12 119 90S17 21 10-45l28-5c4 36 97 45 98 0-10-56-113-15-118-90-4-57 82-63 122-42 12 7 21 19 24 35" id="bv"/><path fill="#19967d" d="M59-47c-2 24 18 29 38 22v24C64 9 27 4 27-40v-127H5v-23h24l9-43h21v43h35v23H59v120" id="bw"/><g id="ab"><use transform="matrix(0.03765432098765432,0,0,0.03765432098765432,0,0)" xlink:href="#bt"/><use transform="matrix(0.03765432098765432,0,0,0.03765432098765432,7.530864197530864,0)" xlink:href="#bu"/><use transform="matrix(0.03765432098765432,0,0,0.03765432098765432,15.061728395061728,0)" xlink:href="#bv"/><use transform="matrix(0.03765432098765432,0,0,0.03765432098765432,21.83950617283951,0)" xlink:href="#bw"/><use transform="matrix(0.03765432098765432,0,0,0.03765432098765432,25.604938271604937,0)" xlink:href="#bu"/></g><path fill="#ef8d22" d="M140-251c81 0 123 46 123 126C263-46 219 4 140 4 59 4 17-45 17-125s42-126 123-126zm0 227c63 0 89-41 89-101s-29-99-89-99c-61 0-89 39-89 99S79-25 140-24" id="bx"/><path fill="#ef8d22" d="M100-194c63 0 86 42 84 106H49c0 40 14 67 53 68 26 1 43-12 49-29l28 8c-11 28-37 45-77 45C44 4 14-33 15-96c1-61 26-98 85-98zm52 81c6-60-76-77-97-28-3 7-6 17-6 28h103" id="by"/><path fill="#ef8d22" d="M135-143c-3-34-86-38-87 0 15 53 115 12 119 90S17 21 10-45l28-5c4 36 97 45 98 0-10-56-113-15-118-90-4-57 82-63 122-42 12 7 21 19 24 35" id="bz"/><path fill="#ef8d22" d="M59-47c-2 24 18 29 38 22v24C64 9 27 4 27-40v-127H5v-23h24l9-43h21v43h35v23H59v120" id="bA"/><g id="ac"><use transform="matrix(0.03765432098765432,0,0,0.03765432098765432,0,0)" xlink:href="#bx"/><use transform="matrix(0.03765432098765432,0,0,0.03765432098765432,10.543209876543209,0)" xlink:href="#by"/><use transform="matrix(0.03765432098765432,0,0,0.03765432098765432,18.074074074074073,0)" xlink:href="#bz"/><use transform="matrix(0.03765432098765432,0,0,0.03765432098765432,24.85185185185185,0)" xlink:href="#bA"/><use transform="matrix(0.03765432098765432,0,0,0.03765432098765432,28.617283950617278,0)" xlink:href="#by"/></g><path fill="#0c7cba" d="M185-189c-5-48-123-54-124 2 14 75 158 14 163 119 3 78-121 87-175 55-17-10-28-26-33-46l33-7c5 56 141 63 141-1 0-78-155-14-162-118-5-82 145-84 179-34 5 7 8 16 11 25" id="bB"/><path fill="#0c7cba" d="M84 4C-5 8 30-112 23-190h32v120c0 31 7 50 39 49 72-2 45-101 50-169h31l1 190h-30c-1-10 1-25-2-33-11 22-28 36-60 37" id="bC"/><path fill="#0c7cba" d="M24 0v-261h32V0H24" id="bD"/><g id="ad"><use transform="matrix(0.03765432098765432,0,0,0.03765432098765432,0,0)" xlink:href="#bB"/><use transform="matrix(0.03765432098765432,0,0,0.03765432098765432,9.037037037037036,0)" xlink:href="#bC"/><use transform="matrix(0.03765432098765432,0,0,0.03765432098765432,16.5679012345679,0)" xlink:href="#bD"/></g><path fill="#ef8d22" d="M212 0l43-212L151 0h-37L90-212C82-137 65-70 52 0H6l48-248h70l20 187 93-187h69L258 0h-46" id="bE"/><path fill="#ef8d22" d="M183 0l-10-63H79L44 0H-7l138-248h61L234 0h-51zm-14-102l-15-108c-16 38-36 73-55 108h70" id="bF"/><path fill="#ef8d22" d="M130 0H70L30-248h54l24 206c31-72 69-137 103-206h54" id="bG"/><path d="M6 0l48-248h52L66-40h133l-8 40H6" id="bH"/><path d="M6 0l48-248h52L58 0H6" id="bI"/><path d="M155 0L90-199 52 0H6l48-248h62l66 201 38-201h46L218 0h-63" id="bJ"/><path d="M175 0l-63-112-37 21L58 0H6l48-248h52L83-135l134-113h65L150-139 232 0h-57" id="bK"/><g id="ae"><use transform="matrix(0.11172839506172817,0,0,0.11172839506172817,0,0)" xlink:href="#bE"/><use transform="matrix(0.11172839506172817,0,0,0.11172839506172817,33.40679012345672,0)" xlink:href="#bF"/><use transform="matrix(0.11172839506172817,0,0,0.11172839506172817,59.32777777777766,0)" xlink:href="#bG"/><use transform="matrix(0.11172839506172817,0,0,0.11172839506172817,86.14259259259242,0)" xlink:href="#bH"/><use transform="matrix(0.11172839506172817,0,0,0.11172839506172817,110.61111111111089,0)" xlink:href="#bI"/><use transform="matrix(0.11172839506172817,0,0,0.11172839506172817,121.78395061728371,0)" xlink:href="#bJ"/><use transform="matrix(0.11172839506172817,0,0,0.11172839506172817,150.7216049382713,0)" xlink:href="#bK"/></g></defs></g></svg>