<?xml version="1.0" encoding="iso-8859-1"?>
<!-- Generator: Adobe Illustrator 19.0.0, SVG Export Plug-In . SVG Version: 6.00 Build 0)  -->
<svg version="1.1" id="Capa_1" xmlns="http://www.w3.org/2000/svg" xmlns:xlink="http://www.w3.org/1999/xlink" x="0px" y="0px"
	 viewBox="0 0 512 512" style="enable-background:new 0 0 512 512;" xml:space="preserve">
<path style="fill:#E0E0E3;" d="M434.721,383.439l-59.019,51.284c-12.27-30.99-36.24-56.078-66.453-69.829
	c-16.235-7.382-34.262-11.503-53.251-11.503c-18.969,0-36.985,4.111-53.2,11.483c-30.245,13.74-54.225,38.838-66.505,69.849
	l-59.019-51.284c38.393-5.436,71.33-27.801,91.023-59.309c12.353-19.756,19.487-43.115,19.487-68.13
	c0-25.036-7.155-48.416-19.518-68.182c-19.704-31.477-52.63-53.821-90.992-59.257l59.019-51.284
	c12.27,30.99,36.24,56.078,66.453,69.829c16.235,7.382,34.262,11.503,53.251,11.503c18.969,0,36.985-4.111,53.2-11.483
	c30.245-13.74,54.225-38.838,66.505-69.849l59.019,51.284c-38.393,5.436-71.33,27.801-91.023,59.309
	c-12.353,19.756-19.487,43.115-19.487,68.13c0,25.036,7.155,48.416,19.518,68.182C363.433,355.659,396.359,378.003,434.721,383.439z
	"/>
<g>
	<path style="fill:#C7C5CC;" d="M434.721,383.439l-59.019,51.284c-12.27-30.99-36.24-56.078-66.453-69.829
		c8.004-16.235,19.911-30.213,34.479-40.713C363.433,355.659,396.359,378.003,434.721,383.439z"/>
	<path style="fill:#C7C5CC;" d="M202.798,364.874c-30.245,13.74-54.225,38.838-66.505,69.849l-59.019-51.284
		c38.393-5.436,71.33-27.801,91.023-59.309c4.773,3.438,9.298,7.289,13.543,11.524C190.508,344.321,197.549,354.189,202.798,364.874
		z"/>
	<path style="fill:#C7C5CC;" d="M434.721,128.561c-38.393,5.436-71.33,27.801-91.023,59.309c-4.773-3.438-9.298-7.289-13.543-11.524
		c-8.666-8.667-15.707-18.534-20.957-29.22c30.245-13.74,54.225-38.838,66.505-69.849L434.721,128.561z"/>
	<path style="fill:#C7C5CC;" d="M202.747,147.105c-8.004,16.235-19.911,30.213-34.479,40.713
		c-19.704-31.477-52.63-53.821-90.992-59.257l59.019-51.284C148.563,108.267,172.533,133.355,202.747,147.105z"/>
</g>
<circle style="fill:#8CC4F0;" cx="407.808" cy="413.31" r="91.19"/>
<circle style="fill:#409DE6;" cx="407.808" cy="413.31" r="45.06"/>
<circle style="fill:#F9C985;" cx="407.808" cy="413.31" r="23.2"/>
<circle style="fill:#8CC4F0;" cx="104.188" cy="413.31" r="91.19"/>
<circle style="fill:#409DE6;" cx="103.498" cy="413.31" r="45.06"/>
<circle style="fill:#F9C985;" cx="104.188" cy="413.31" r="23.2"/>
<circle style="fill:#8CC4F0;" cx="407.808" cy="98.69" r="91.19"/>
<circle style="fill:#409DE6;" cx="407.808" cy="98.69" r="45.06"/>
<circle style="fill:#F9C985;" cx="407.808" cy="98.69" r="23.2"/>
<circle style="fill:#8CC4F0;" cx="104.188" cy="98.69" r="91.19"/>
<circle style="fill:#409DE6;" cx="103.498" cy="98.69" r="45.06"/>
<circle style="fill:#F9C985;" cx="104.188" cy="98.69" r="23.2"/>
<rect x="240.818" y="222.75" style="fill:#44E6A3;" width="30.365" height="61.15"/>
<path d="M407.811,314.628c-18.871,0-36.519,5.328-51.526,14.553c-15.886-20.978-24.577-46.728-24.577-73.181
	c0-26.43,8.688-52.185,24.568-73.164c15.484,9.478,33.339,14.534,51.576,14.534c5.883,0,11.809-0.526,17.704-1.599
	c4.075-0.741,6.778-4.646,6.037-8.721c-0.741-4.076-4.646-6.778-8.721-6.037c-27.065,4.922-54.814-3.732-74.235-23.153
	c-15.806-15.806-24.511-36.821-24.511-59.175c0-22.353,8.705-43.369,24.511-59.175c32.628-32.628,85.719-32.629,118.35,0
	c32.629,32.629,32.629,85.721,0,118.35c-4.757,4.757-10.053,8.922-15.741,12.382c-3.539,2.152-4.664,6.766-2.511,10.305
	c2.152,3.54,6.767,4.664,10.305,2.511c6.709-4.081,12.952-8.99,18.554-14.592c38.478-38.477,38.478-101.085,0-139.563
	s-101.085-38.477-139.563,0c-18.639,18.639-28.904,43.421-28.904,69.781c0,12.7,2.39,25.031,6.944,36.489
	c-18.235,10.422-38.853,15.923-60.006,15.935c-0.022,0-0.043-0.003-0.065-0.003c-0.022,0-0.043,0.003-0.065,0.003
	c-21.169-0.011-41.803-5.521-60.047-15.957c4.504-11.287,6.986-23.592,6.986-36.466C202.872,44.27,158.601,0,104.185,0
	S5.5,44.27,5.5,98.686s44.27,98.686,98.686,98.686c18.871,0,36.52-5.328,51.527-14.553c15.885,20.977,24.575,46.735,24.575,73.182
	c0,6.626-0.539,13.266-1.601,19.735c-0.671,4.087,2.098,7.945,6.186,8.616c0.412,0.067,0.82,0.1,1.225,0.1
	c3.607,0,6.788-2.61,7.392-6.286c1.194-7.27,1.799-14.728,1.799-22.166c0-29.611-9.699-58.455-27.429-81.984
	c8.48-7.179,15.735-15.759,21.406-25.381c18.156,10.219,38.377,16.107,59.233,17.249v49.366h-7.683c-4.142,0-7.5,3.358-7.5,7.5
	v61.146c0,4.142,3.358,7.5,7.5,7.5h7.683v54.721c-20.845,1.14-41.05,7.021-59.197,17.228c-4.214-7.162-9.341-13.818-15.334-19.811
	c-1.964-1.964-4-3.829-6.095-5.605c6.719-8.902,12.329-18.571,16.683-28.855c1.615-3.814-0.168-8.215-3.983-9.831
	c-3.813-1.614-8.216,0.169-9.831,3.983c-3.91,9.235-8.958,17.914-15.012,25.897c-15.357-9.441-33.061-14.494-51.543-14.494
	c-26.36,0-51.142,10.265-69.781,28.904c-38.478,38.477-38.478,101.085,0,139.563c19.239,19.239,44.51,28.858,69.781,28.858
	s50.542-9.619,69.781-28.858c2.929-2.929,2.929-7.678,0-10.606c-2.929-2.929-7.678-2.929-10.606,0
	c-32.628,32.629-85.72,32.629-118.35,0c-32.629-32.629-32.629-85.721,0-118.35c15.806-15.806,36.822-24.511,59.175-24.511
	c22.354,0,43.369,8.705,59.175,24.511c24.606,24.605,31.449,61.079,17.433,92.92c-1.669,3.791,0.052,8.217,3.843,9.886
	c3.791,1.668,8.217-0.051,9.886-3.843c7.925-18.004,10.278-37.795,6.804-57.232c-1.173-6.564-3.002-12.927-5.424-19.03
	c18.241-10.432,38.865-15.939,60.032-15.95c0.022,0,0.043,0.003,0.064,0.003s0.043-0.003,0.065-0.003
	c21.168,0.011,41.803,5.521,60.047,15.958c-4.504,11.286-6.985,23.591-6.985,36.465c0,54.416,44.271,98.686,98.686,98.686
	s98.686-44.27,98.686-98.686S462.226,314.628,407.811,314.628z M104.185,182.372c-46.145,0-83.686-37.542-83.686-83.686
	S58.041,15,104.185,15s83.686,37.541,83.686,83.686S150.33,182.372,104.185,182.372z M248.315,230.25h15.365v46.146h-15.365V230.25z
	 M263.498,346.116v-54.721h7.683c4.142,0,7.5-3.358,7.5-7.5V222.75c0-4.142-3.358-7.5-7.5-7.5h-7.683v-49.366
	c20.836-1.14,41.037-7.017,59.179-17.218c4.206,7.136,9.341,13.79,15.352,19.801c1.958,1.958,3.991,3.817,6.086,5.587
	c-17.716,23.528-27.407,52.361-27.407,81.946c0,29.618,9.698,58.453,27.429,81.983c-8.48,7.179-15.735,15.759-21.406,25.381
	C304.575,353.146,284.354,347.257,263.498,346.116z M407.811,497c-46.145,0-83.686-37.541-83.686-83.686
	s37.542-83.686,83.686-83.686s83.686,37.542,83.686,83.686S453.955,497,407.811,497z"/>
<path d="M415.311,383.55v-37.166c0-4.142-3.358-7.5-7.5-7.5s-7.5,3.358-7.5,7.5v37.166c-13.311,3.356-23.195,15.426-23.195,29.765
	s9.884,26.409,23.195,29.764v39.068c0,4.142,3.358,7.5,7.5,7.5s7.5-3.358,7.5-7.5v-39.068c13.311-3.356,23.195-15.426,23.195-29.764
	S428.622,386.906,415.311,383.55z M407.811,429.009c-8.654,0-15.695-7.041-15.695-15.695s7.041-15.695,15.695-15.695
	s15.695,7.041,15.695,15.695S416.465,429.009,407.811,429.009z"/>
<path d="M156.816,360.684c-2.929-2.929-7.678-2.929-10.606,0l-26.271,26.272c-4.711-2.827-10.116-4.336-15.753-4.336
	c-8.199,0-15.907,3.193-21.705,8.991c-5.797,5.797-8.99,13.505-8.99,21.705c0,5.637,1.509,11.041,4.336,15.752l-27.616,27.616
	c-2.929,2.929-2.929,7.678,0,10.606c1.464,1.464,3.384,2.197,5.303,2.197s3.839-0.732,5.303-2.197l27.625-27.625
	c4.83,2.885,10.286,4.33,15.744,4.33c7.86,0,15.721-2.992,21.705-8.976c5.797-5.797,8.99-13.505,8.99-21.705
	c0-5.637-1.509-11.041-4.336-15.753l26.271-26.272C159.746,368.361,159.746,363.612,156.816,360.684z M115.284,424.413
	c-6.119,6.119-16.076,6.119-22.197,0c-6.12-6.12-6.12-16.077,0-22.196c3.06-3.06,7.079-4.59,11.099-4.59
	c4.019,0,8.038,1.53,11.098,4.59c2.964,2.964,4.597,6.906,4.597,11.098S118.248,421.448,115.284,424.413z"/>
<path d="M386.105,120.39c5.798,5.798,13.506,8.991,21.705,8.991c5.637,0,11.042-1.509,15.753-4.336l26.271,26.272
	c1.464,1.465,3.384,2.197,5.303,2.197s3.839-0.732,5.303-2.197c2.929-2.929,2.929-7.678,0-10.606l-26.271-26.272
	c2.827-4.711,4.336-10.116,4.336-15.753c0-8.199-3.193-15.907-8.99-21.705c-10.139-10.139-25.663-11.685-37.448-4.645L364.441,44.71
	c-2.929-2.929-7.678-2.929-10.606,0c-2.929,2.929-2.929,7.678,0,10.606l27.616,27.616c-2.827,4.711-4.336,10.116-4.336,15.752
	C377.115,106.885,380.308,114.593,386.105,120.39z M407.811,82.998c4.019,0,8.039,1.53,11.098,4.589c6.12,6.12,6.12,16.077,0,22.196
	c-6.12,6.119-16.077,6.119-22.197,0c-2.964-2.964-4.597-6.906-4.597-11.098s1.632-8.134,4.597-11.098
	C399.772,84.527,403.79,82.998,407.811,82.998z"/>
<path d="M111.685,68.921V31.755c0-4.142-3.358-7.5-7.5-7.5s-7.5,3.358-7.5,7.5v37.166C83.374,72.277,73.49,84.347,73.49,98.685
	s9.884,26.409,23.195,29.765v39.068c0,4.142,3.358,7.5,7.5,7.5s7.5-3.358,7.5-7.5V128.45c13.311-3.356,23.195-15.426,23.195-29.765
	S124.997,72.277,111.685,68.921z M104.185,114.381c-8.654,0-15.695-7.041-15.695-15.695s7.041-15.695,15.695-15.695
	s15.695,7.041,15.695,15.695S112.84,114.381,104.185,114.381z"/>
<path d="M214.502,231.402h0.489c4.142,0,7.5-3.358,7.5-7.5s-3.358-7.5-7.5-7.5h-0.489c-4.142,0-7.5,3.358-7.5,7.5
	S210.36,231.402,214.502,231.402z"/>
<path d="M214.502,257.682h0.489c4.142,0,7.5-3.358,7.5-7.5s-3.358-7.5-7.5-7.5h-0.489c-4.142,0-7.5,3.358-7.5,7.5
	S210.36,257.682,214.502,257.682z"/>
<g>
</g>
<g>
</g>
<g>
</g>
<g>
</g>
<g>
</g>
<g>
</g>
<g>
</g>
<g>
</g>
<g>
</g>
<g>
</g>
<g>
</g>
<g>
</g>
<g>
</g>
<g>
</g>
<g>
</g>
</svg>
