<?xml version="1.0"?>
<svg xmlns="http://www.w3.org/2000/svg" viewBox="0 0 512 512" width="512" height="512"><g id="Out_line" data-name="Out line"><path d="M256,376a24,24,0,1,0-24-24A24.02718,24.02718,0,0,0,256,376Zm0-32a8,8,0,1,1-8,8A8.00917,8.00917,0,0,1,256,344Z"/><path d="M336,368.14746l44.19507,33.65576a40.01162,40.01162,0,1,0,26.58179-56.71777L336,292.00049V256a8.00076,8.00076,0,0,0-2.34326-5.65723L312,228.68652v-7.74243l27.57764-13.78882A7.99869,7.99869,0,0,0,344,200V171.29224l52.91626-28.86646a39.99543,39.99543,0,1,0-28.702-42.56689L312,130.523V128a8.00008,8.00008,0,0,0-8-8H208a8.00008,8.00008,0,0,0-8,8v2.523L143.78577,99.85889a40.02919,40.02919,0,1,0-28.702,42.56689L168,171.29224V200a7.99869,7.99869,0,0,0,4.42236,7.15527L200,220.94409v7.74243l-21.65674,21.65625A8.00076,8.00076,0,0,0,176,256v36.20923l-64.23431,52.55371a40.00023,40.00023,0,1,0,29.42224,53.94043L176,369.24854V392a8.00008,8.00008,0,0,0,8,8H328a8.00008,8.00008,0,0,0,8-8ZM440,384a24,24,0,1,1-24-24A24.0275,24.0275,0,0,1,440,384Zm-49.28882-30.96484a39.98522,39.98522,0,0,0-14.35791,25.73217L336,348.03711V312ZM328,195.05566l-16,8V156.94434l16,8Zm13.64294-40.70434a7.96071,7.96071,0,0,0-2.0653-1.50659l-18.30591-9.15284,48.91247-26.68115a40.08942,40.08942,0,0,0,10.41468,16.0896ZM408,80a24,24,0,1,1-24,24A24.0275,24.0275,0,0,1,408,80ZM80,104a24,24,0,1,1,24,24A24.0275,24.0275,0,0,1,80,104Zm61.8158,13.01074,48.91247,26.68115-18.30591,9.15284a7.9597,7.9597,0,0,0-2.0653,1.50659l-38.956-21.251A40.08828,40.08828,0,0,0,141.8158,117.01074ZM184,195.05566V164.94434l16-8v46.11132ZM104,408a24,24,0,1,1,24-24A24.0275,24.0275,0,0,1,104,408Zm39.20221-31.96021a40.06346,40.06346,0,0,0-15.12054-23.95361L176,312.88135v35.40771ZM288,384H224V320h64Zm16,0V312a8.00008,8.00008,0,0,0-8-8H216a8.00008,8.00008,0,0,0-8,8v72H192V259.31348l21.65674-21.65625A8.00076,8.00076,0,0,0,216,232V136h80v96a8.00076,8.00076,0,0,0,2.34326,5.65723L320,259.31348V272H208v16H320v96Z"/><path d="M472,104A64.00885,64.00885,0,0,0,346.65137,85.71777l15.335,4.56446a47.97254,47.97254,0,1,1,39.14746,61.23144l-2.26758,15.83789A64.04327,64.04327,0,0,0,472,104Z"/><path d="M359.53369,50.75391a71.97108,71.97108,0,1,1,26.86279,121.95117l-4.793,15.26562A88.01248,88.01248,0,1,0,320.43408,95.21L336.356,96.79A71.79544,71.79544,0,0,1,359.53369,50.75391Z"/><path d="M104,40a64,64,0,1,0,9.13379,127.35156l-2.26758-15.83789A48.71618,48.71618,0,0,1,104,152a48,48,0,1,1,46.01367-61.71777l15.335-4.56446A64.38383,64.38383,0,0,0,104,40Z"/><path d="M104,192a88.004,88.004,0,0,0,26.39648-4.0293l-4.793-15.26562A72.013,72.013,0,1,1,175.644,96.79L191.56592,95.21A88.00286,88.00286,0,1,0,104,192Z"/><path d="M104,448a64.08948,64.08948,0,0,0,52.52393-27.42285l-13.12305-9.1543A48.00192,48.00192,0,1,1,104,336V320a64,64,0,0,0,0,128Z"/><path d="M104,456a72,72,0,1,1,14.4082-142.55957l3.1836-15.67969a88.00583,88.00583,0,1,0,63.08252,121.44238l-14.66211-6.40624A72.03483,72.03483,0,0,1,104,456Z"/><path d="M464,384a48.00369,48.00369,0,0,1-87.40088,27.42285l-13.12305,9.1543A64.00213,64.00213,0,1,0,416,320v16A48.054,48.054,0,0,1,464,384Z"/><path d="M416,296a88.608,88.608,0,0,0-17.5918,1.76074l3.1836,15.67969a72.00609,72.00609,0,1,1-51.604,99.35645l-14.66211,6.40624A88.00884,88.00884,0,1,0,416,296Z"/></g></svg>
