<svg id="Layer_1" enable-background="new 0 0 256 256" height="512" viewBox="0 0 256 256" width="512" xmlns="http://www.w3.org/2000/svg"><g><g><path d="m62.279 237.325c-2.399 5.175-.15 11.315 5.024 13.715 1.408.652 2.884.96 4.339.96 3.896 0 7.628-2.217 9.376-5.984l55.162-118.934c.026-.055.043-.113.068-.169l25.664 9.138 21.232-59.634 28.427 10.289c.772.28 1.563.412 2.342.412 2.64 0 5.142-1.527 6.282-4.066l13.046-29.047c1.558-3.468.009-7.543-3.46-9.102-3.468-1.556-7.544-.007-9.102 3.461l-10.428 23.22-97.946-38.081c-3.257-1.485-7.108-.229-8.861 2.892l-14.89 26.513c-1.863 3.316-.684 7.512 2.631 9.375 1.067.598 2.223.883 3.365.883 2.408 0 4.747-1.265 6.01-3.514l11.79-20.992 25.912 11.821z" fill="#f4efed"/></g><g><g><path d="m91.185 72.283c1.067.598 2.223.883 3.365.883 1.43 0 2.83-.455 4-1.289-2.822-2.016-3.734-5.875-1.996-8.969l14.891-26.512c.553-.986 1.317-1.784 2.204-2.37l-1.344-.522c-3.257-1.485-7.108-.229-8.86 2.892l-14.891 26.512c-1.863 3.316-.684 7.512 2.631 9.375z" fill="#fff"/></g></g><g><path d="m74.321 68.778h-42.169c-1.104 0-2-.896-2-2s.896-2 2-2h42.169c1.104 0 2 .896 2 2s-.895 2-2 2z" fill="#690589"/></g><g><path d="m54.321 93.267h-32.169c-1.104 0-2-.896-2-2s.896-2 2-2h32.169c1.104 0 2 .896 2 2s-.895 2-2 2z" fill="#690589"/></g><g><path d="m74.321 117.756h-42.169c-1.104 0-2-.896-2-2s.896-2 2-2h42.169c1.104 0 2 .896 2 2s-.895 2-2 2z" fill="#690589"/></g><g><path d="m54.321 142.244h-32.169c-1.104 0-2-.895-2-2 0-1.104.896-2 2-2h32.169c1.104 0 2 .896 2 2 0 1.105-.895 2-2 2z" fill="#690589"/></g><g><path d="m74.321 166.733h-42.169c-1.104 0-2-.895-2-2 0-1.104.896-2 2-2h42.169c1.104 0 2 .896 2 2 0 1.105-.895 2-2 2z" fill="#690589"/></g><g><path d="m54.321 191.222h-32.169c-1.104 0-2-.895-2-2 0-1.104.896-2 2-2h32.169c1.104 0 2 .896 2 2s-.895 2-2 2z" fill="#690589"/></g><g><g><path d="m229.781 44.904c-2.312-1.037-4.889-.689-6.815.681 2.616 1.868 3.642 5.377 2.275 8.42l-13.046 29.047c-.563 1.255-1.462 2.26-2.543 2.959l1.919.695c.772.28 1.563.412 2.342.412 2.64 0 5.142-1.527 6.282-4.066l13.046-29.047c1.558-3.468.009-7.542-3.46-9.101z" fill="#d6d1cf"/></g></g><g><path d="m71.642 254c-1.795 0-3.538-.385-5.179-1.145-6.158-2.857-8.85-10.186-6.01-16.347l75.199-175.021-22.46-10.245-10.888 19.389c-1.572 2.798-4.543 4.535-7.754 4.535-1.514 0-3.016-.395-4.344-1.14-4.272-2.399-5.796-7.827-3.397-12.099l14.891-26.511c2.234-3.976 7.224-5.617 11.379-3.758l96.126 37.374 9.65-21.487c2.008-4.467 7.275-6.472 11.745-4.465 4.469 2.008 6.472 7.276 4.465 11.745l-13.045 29.047c-1.431 3.187-4.612 5.246-8.106 5.246-1.033 0-2.051-.179-3.024-.532l-26.534-9.604-20.559 57.74c-.37 1.04-1.514 1.586-2.555 1.213l-23.938-8.521-54.472 117.443c-2.014 4.339-6.406 7.143-11.19 7.143zm40.709-207.341c.278 0 .561.058.829.181l25.912 11.82c.989.451 1.437 1.61 1.008 2.608l-75.983 176.845c-.008.018-.016.035-.023.052-1.932 4.167-.114 9.128 4.051 11.061 1.109.514 2.286.774 3.497.774 3.233 0 6.201-1.895 7.562-4.826l55.162-118.934c.006-.023.033-.09.063-.156.431-.945 1.512-1.403 2.49-1.054l23.78 8.466 20.561-57.75c.178-.501.549-.911 1.03-1.138.483-.227 1.034-.252 1.534-.072l28.427 10.289c.536.194 1.094.293 1.661.293 1.921 0 3.671-1.132 4.458-2.885l13.046-29.047c1.102-2.457.002-5.354-2.455-6.458-2.456-1.1-5.352-.001-6.458 2.455l-10.429 23.221c-.436.971-1.559 1.427-2.549 1.045l-97.945-38.082c-.035-.014-.07-.028-.105-.045-2.29-1.043-5.053-.143-6.286 2.053l-14.891 26.512c-1.319 2.349-.481 5.333 1.867 6.651.731.411 1.557.628 2.386.628 1.767 0 3.401-.956 4.267-2.494l11.788-20.992c.365-.65 1.042-1.021 1.745-1.021zm-50.072 190.665h.01z" fill="#690589"/></g><g><path d="m172.935 57.527-13.019 13.132-1.791-18.405 5.273-14.81 14.81 5.273z" fill="#ff9f70"/></g><g><path d="m159.916 72.658c-.225 0-.452-.038-.671-.116-.73-.26-1.244-.918-1.319-1.69l-1.791-18.404c-.029-.292.008-.587.106-.864l5.273-14.81c.369-1.04 1.512-1.585 2.555-1.213l14.81 5.272c1.04.37 1.584 1.514 1.213 2.555l-5.272 14.811c-.099.276-.257.528-.464.737l-13.02 13.131c-.382.385-.896.591-1.42.591zm.243-20.154 1.335 13.722 9.707-9.789 4.452-12.507-11.042-3.931zm12.777 5.023h.01z" fill="#690589"/></g><g><path d="m170.058 46.345c-9.316 0-16.868-7.552-16.868-16.868v-8.609c0-9.316 7.552-16.868 16.868-16.868 9.316 0 16.868 7.552 16.868 16.868v8.609c0 9.316-7.552 16.868-16.868 16.868z" fill="#ff9f70"/></g><g><path d="m170.058 48.345c-10.403 0-18.867-8.464-18.867-18.868v-8.608c-.001-10.405 8.463-18.869 18.867-18.869s18.868 8.464 18.868 18.868v8.608c0 10.405-8.464 18.869-18.868 18.869zm0-42.345c-8.198 0-14.867 6.67-14.867 14.868v8.608c0 8.198 6.669 14.868 14.867 14.868s14.868-6.67 14.868-14.868v-8.608c0-8.198-6.67-14.868-14.868-14.868z" fill="#690589"/></g><g><g><path d="m165.66 215.988c-1.384 0-2.789-.279-4.138-.87-5.224-2.289-7.604-8.38-5.316-13.604l18.822-42.965-50.087-18.312c-5.332-2.026-8.013-7.99-5.989-13.322 2.026-5.331 7.986-8.014 13.322-5.989l60.237 22.167c2.645 1.005 4.761 3.049 5.856 5.658 1.095 2.608 1.071 5.55-.063 8.141l-23.177 52.909c-1.699 3.876-5.49 6.187-9.467 6.187z" fill="#f4efed"/></g></g><g><g><path d="m165.66 217.988c-1.705 0-3.367-.35-4.941-1.038-6.227-2.729-9.072-10.013-6.346-16.238l17.967-41.015-48.088-17.582c-6.377-2.422-9.584-9.556-7.172-15.909 2.416-6.354 9.551-9.56 15.902-7.148l60.217 22.159c3.163 1.203 5.711 3.664 7.01 6.761 1.301 3.097 1.273 6.639-.074 9.718l-23.178 52.91c-1.965 4.485-6.399 7.382-11.297 7.382zm-37.042-95.729c-3.366 0-6.535 2.048-7.798 5.368-1.629 4.291.537 9.11 4.829 10.741l50.064 18.304c.519.189.936.585 1.152 1.093.217.507.215 1.082-.007 1.588l-18.821 42.965c-1.842 4.205.081 9.126 4.286 10.969 1.063.466 2.186.702 3.336.702 3.309 0 6.306-1.958 7.634-4.988l23.178-52.909c.91-2.08.929-4.473.051-6.564-.878-2.093-2.6-3.756-4.724-4.563l-60.216-22.158c-.976-.372-1.978-.548-2.964-.548z" fill="#690589"/></g></g><g><path d="m135.769 91.571c-.247 0-.498-.047-.741-.144-1.025-.41-1.525-1.574-1.115-2.6l4.796-12c.409-1.025 1.573-1.523 2.6-1.115 1.025.41 1.525 1.574 1.115 2.6l-4.796 12c-.314.783-1.065 1.259-1.859 1.259z" fill="#690589"/></g></g></svg>