<?xml version="1.0" encoding="UTF-8" standalone="no"?>
<svg
   xmlns:dc="http://purl.org/dc/elements/1.1/"
   xmlns:cc="http://creativecommons.org/ns#"
   xmlns:rdf="http://www.w3.org/1999/02/22-rdf-syntax-ns#"
   xmlns:svg="http://www.w3.org/2000/svg"
   xmlns="http://www.w3.org/2000/svg"
   xmlns:sodipodi="http://sodipodi.sourceforge.net/DTD/sodipodi-0.dtd"
   xmlns:inkscape="http://www.inkscape.org/namespaces/inkscape"
   sodipodi:docname="planocart.svg"
   inkscape:version="1.0 (1.0+r73+1)"
   width="210mm"
   height="297mm"
   viewBox="0 0 210 297"
   version="1.1"
   id="svg8">
  <defs
     id="defs2">
    <marker
       inkscape:stockid="Arrow1Lend"
       orient="auto"
       refY="0.0"
       refX="0.0"
       id="marker2130"
       style="overflow:visible;"
       inkscape:isstock="true">
      <path
         id="path2128"
         d="M 0.0,0.0 L 5.0,-5.0 L -12.5,0.0 L 5.0,5.0 L 0.0,0.0 z "
         style="fill-rule:evenodd;stroke:#000000;stroke-width:1pt;stroke-opacity:1;fill:#000000;fill-opacity:1"
         transform="scale(0.8) rotate(180) translate(12.5,0)" />
    </marker>
    <rect
       id="rect2039"
       height="7.0317554"
       width="26.907684"
       y="149.41769"
       x="99.320226" />
    <rect
       id="rect2015"
       height="5.460153"
       width="27.134261"
       y="102.22678"
       x="73.126839" />
    <marker
       inkscape:collect="always"
       inkscape:isstock="true"
       style="overflow:visible;"
       id="Arrow1Lend"
       refX="0.0"
       refY="0.0"
       orient="auto"
       inkscape:stockid="Arrow1Lend">
      <path
         transform="scale(0.8) rotate(180) translate(12.5,0)"
         style="fill-rule:evenodd;stroke:#000000;stroke-width:1pt;stroke-opacity:1;fill:#000000;fill-opacity:1"
         d="M 0.0,0.0 L 5.0,-5.0 L -12.5,0.0 L 5.0,5.0 L 0.0,0.0 z "
         id="path1050" />
    </marker>
    <marker
       inkscape:isstock="true"
       style="overflow:visible"
       id="Arrow1Lstart"
       refX="0.0"
       refY="0.0"
       orient="auto"
       inkscape:stockid="Arrow1Lstart">
      <path
         transform="scale(0.8) translate(12.5,0)"
         style="fill-rule:evenodd;stroke:#000000;stroke-width:1pt;stroke-opacity:1;fill:#000000;fill-opacity:1"
         d="M 0.0,0.0 L 5.0,-5.0 L -12.5,0.0 L 5.0,5.0 L 0.0,0.0 z "
         id="path1047" />
    </marker>
    <inkscape:path-effect
       fuse_tolerance="0"
       hide_knot="false"
       vertical_pattern="false"
       prop_units="false"
       tang_offset="0"
       normal_offset="0"
       spacing="0"
       scale_y_rel="false"
       prop_scale="1"
       copytype="single_stretched"
       pattern="M 0,5 C 0,2.24 2.24,0 5,0 7.76,0 10,2.24 10,5 10,7.76 7.76,10 5,10 2.24,10 0,7.76 0,5 Z"
       lpeversion="1"
       is_visible="true"
       id="path-effect1043"
       effect="skeletal" />
    <inkscape:path-effect
       fuse_tolerance="0"
       hide_knot="false"
       vertical_pattern="false"
       prop_units="false"
       tang_offset="0"
       normal_offset="0"
       spacing="0"
       scale_y_rel="false"
       prop_scale="1"
       copytype="single_stretched"
       pattern="M 0,5 C 0,2.24 2.24,0 5,0 7.76,0 10,2.24 10,5 10,7.76 7.76,10 5,10 2.24,10 0,7.76 0,5 Z"
       lpeversion="1"
       is_visible="true"
       id="path-effect1039"
       effect="skeletal" />
    <rect
       x="99.320229"
       y="149.41769"
       width="26.907684"
       height="7.0317554"
       id="rect2039-6" />
    <rect
       x="99.320229"
       y="149.41769"
       width="26.907684"
       height="7.0317554"
       id="rect2052" />
  </defs>
  <sodipodi:namedview
     inkscape:snap-object-midpoints="false"
     inkscape:snap-global="true"
     inkscape:snap-bbox="false"
     inkscape:snap-page="false"
     inkscape:snap-others="true"
     inkscape:snap-nodes="true"
     inkscape:object-nodes="false"
     inkscape:snap-midpoints="false"
     inkscape:window-maximized="0"
     inkscape:window-y="-1"
     inkscape:window-x="0"
     inkscape:window-height="1028"
     inkscape:window-width="1920"
     showgrid="false"
     inkscape:document-rotation="0"
     inkscape:current-layer="layer1"
     inkscape:document-units="mm"
     inkscape:cy="489.25183"
     inkscape:cx="308.2294"
     inkscape:zoom="1.52"
     inkscape:pageshadow="2"
     inkscape:pageopacity="0.0"
     borderopacity="1.0"
     bordercolor="#666666"
     pagecolor="#ffffff"
     id="base" />
  <metadata
     id="metadata5">
    <rdf:RDF>
      <cc:Work
         rdf:about="">
        <dc:format>image/svg+xml</dc:format>
        <dc:type
           rdf:resource="http://purl.org/dc/dcmitype/StillImage" />
        <dc:title></dc:title>
      </cc:Work>
    </rdf:RDF>
  </metadata>
  <g
     id="layer1"
     inkscape:groupmode="layer"
     inkscape:label="Layer 1">
    <path
       sodipodi:nodetypes="csc"
       d="m 31.425323,167.37311 c 0,-27.55912 22.341081,-49.9002 49.9002,-49.9002 27.559117,0 49.900197,22.34108 49.900197,49.9002"
       style="fill:none;fill-opacity:1;stroke:#0a0a0a;stroke-width:0.199601;stroke-linejoin:round;stroke-miterlimit:4;stroke-dasharray:none;stroke-opacity:1"
       id="path845" />
    <path
       id="path848"
       style="fill:none;fill-opacity:1;stroke:#0a0a0a;stroke-width:0.199601;stroke-linejoin:round;stroke-miterlimit:4;stroke-dasharray:none;stroke-opacity:1"
       d="m 31.425323,167.37311 c 0,27.55912 22.341081,49.9002 49.9002,49.9002 27.559117,0 49.900197,-22.34108 49.900197,-49.9002"
       sodipodi:nodetypes="csc" />
    <g
       id="g889">
      <path
         style="fill:none;fill-opacity:1;stroke:#0a0a0a;stroke-width:0.199601;stroke-linejoin:round;stroke-miterlimit:4;stroke-dasharray:none;stroke-opacity:1"
         d="m 31.4253,167.373 c 0,-27.559 22.3411,-49.9 49.9002,-49.9 v 0 c 27.5595,0 49.9005,22.341 49.9005,49.9"
         id="path855" />
      <path
         style="fill:none;fill-opacity:1;stroke:#0a0a0a;stroke-width:0.199601;stroke-linejoin:round;stroke-miterlimit:4;stroke-dasharray:none;stroke-opacity:1"
         d="m 31.4253,167.373 c 0,-24.114 22.3411,-43.663 49.9002,-43.663 h 10e-5 c 27.5594,0 49.9004,19.549 49.9004,43.663"
         id="path857" />
      <path
         style="fill:none;fill-opacity:1;stroke:#0a0a0a;stroke-width:0.199601;stroke-linejoin:round;stroke-miterlimit:4;stroke-dasharray:none;stroke-opacity:1"
         d="m 31.4253,167.373 c 0,-20.669 22.3411,-37.425 49.9002,-37.425 h 10e-5 c 27.5594,0 49.9004,16.756 49.9004,37.425"
         id="path859" />
      <path
         style="fill:none;fill-opacity:1;stroke:#0a0a0a;stroke-width:0.199601;stroke-linejoin:round;stroke-miterlimit:4;stroke-dasharray:none;stroke-opacity:1"
         d="m 31.4253,167.373 c 0,-17.224 22.3411,-31.188 49.9002,-31.188 h 10e-5 c 27.5594,0 49.9004,13.964 49.9004,31.188"
         id="path861" />
      <path
         style="fill:none;fill-opacity:1;stroke:#0a0a0a;stroke-width:0.199601;stroke-linejoin:round;stroke-miterlimit:4;stroke-dasharray:none;stroke-opacity:1"
         d="m 31.4253,167.373 c 0,-13.779 22.3411,-24.95 49.9002,-24.95 h 2e-4 c 27.5593,0 49.9003,11.17 49.9003,24.95"
         id="path863" />
      <path
         style="fill:none;fill-opacity:1;stroke:#0a0a0a;stroke-width:0.199601;stroke-linejoin:round;stroke-miterlimit:4;stroke-dasharray:none;stroke-opacity:1"
         d="m 31.4253,167.373 c 0,-10.335 22.3411,-18.712 49.9002,-18.712 h 2e-4 c 27.5593,-0.001 49.9003,8.377 49.9003,18.712"
         id="path865" />
      <path
         style="fill:none;fill-opacity:1;stroke:#0a0a0a;stroke-width:0.199601;stroke-linejoin:round;stroke-miterlimit:4;stroke-dasharray:none;stroke-opacity:1"
         d="m 31.4253,167.373 c 0,-6.89 22.3411,-12.475 49.9002,-12.475 h 3e-4 c 27.5592,0 49.9002,5.585 49.9002,12.475"
         id="path867" />
      <path
         style="fill:none;fill-opacity:1;stroke:#0a0a0a;stroke-width:0.199601;stroke-linejoin:round;stroke-miterlimit:4;stroke-dasharray:none;stroke-opacity:1"
         d="m 31.4253,167.373 c 0,-3.445 22.3411,-6.237 49.9002,-6.237 h 3e-4 c 27.5592,-0.001 49.9002,2.792 49.9002,6.237"
         id="path869" />
      <path
         style="fill:none;fill-opacity:1;stroke:#0a0a0a;stroke-width:0.199601;stroke-linejoin:round;stroke-miterlimit:4;stroke-dasharray:none;stroke-opacity:1"
         d="m 31.4253,167.373 c 0,0 22.3411,0 49.9002,0 h 3e-4 c 27.5592,0 49.9002,0 49.9002,0"
         id="path871" />
      <path
         style="fill:none;fill-opacity:1;stroke:#0a0a0a;stroke-width:0.199601;stroke-linejoin:round;stroke-miterlimit:4;stroke-dasharray:none;stroke-opacity:1"
         d="m 31.4253,167.373 c 0,3.445 22.3411,6.238 49.9002,6.238 h 4e-4 c 27.5591,-10e-4 49.9001,-2.793 49.9001,-6.238"
         id="path873" />
      <path
         style="fill:none;fill-opacity:1;stroke:#0a0a0a;stroke-width:0.199601;stroke-linejoin:round;stroke-miterlimit:4;stroke-dasharray:none;stroke-opacity:1"
         d="m 31.4253,167.373 c 0,6.89 22.3411,12.475 49.9002,12.475 h 4e-4 c 27.5591,0 49.9001,-5.585 49.9001,-12.475"
         id="path875" />
      <path
         style="fill:none;fill-opacity:1;stroke:#0a0a0a;stroke-width:0.199601;stroke-linejoin:round;stroke-miterlimit:4;stroke-dasharray:none;stroke-opacity:1"
         d="m 31.4253,167.373 c 0,10.335 22.3411,18.713 49.9002,18.713 h 5e-4 c 27.559,-0.001 49.9,-8.378 49.9,-18.713"
         id="path877" />
      <path
         style="fill:none;fill-opacity:1;stroke:#0a0a0a;stroke-width:0.199601;stroke-linejoin:round;stroke-miterlimit:4;stroke-dasharray:none;stroke-opacity:1"
         d="m 31.4253,167.373 c 0,13.78 22.3411,24.95 49.9002,24.95 h 5e-4 c 27.559,0 49.9,-11.17 49.9,-24.95"
         id="path879" />
      <path
         style="fill:none;fill-opacity:1;stroke:#0a0a0a;stroke-width:0.199601;stroke-linejoin:round;stroke-miterlimit:4;stroke-dasharray:none;stroke-opacity:1"
         d="m 31.4253,167.373 c 0,17.225 22.3411,31.188 49.9002,31.188 h 5e-4 c 27.559,-0.001 49.9,-13.964 49.9,-31.188"
         id="path881" />
      <path
         style="fill:none;fill-opacity:1;stroke:#0a0a0a;stroke-width:0.199601;stroke-linejoin:round;stroke-miterlimit:4;stroke-dasharray:none;stroke-opacity:1"
         d="m 31.4253,167.373 c 0,20.669 22.3411,37.425 49.9002,37.425 h 6e-4 c 27.5589,0 49.8999,-16.756 49.8999,-37.425"
         id="path883" />
      <path
         style="fill:none;fill-opacity:1;stroke:#0a0a0a;stroke-width:0.199601;stroke-linejoin:round;stroke-miterlimit:4;stroke-dasharray:none;stroke-opacity:1"
         d="m 31.4253,167.373 c 0,24.114 22.3411,43.663 49.9002,43.663 h 6e-4 c 27.5589,-0.001 49.8999,-19.549 49.8999,-43.663"
         id="path885" />
      <path
         style="fill:none;fill-opacity:1;stroke:#0a0a0a;stroke-width:0.199601;stroke-linejoin:round;stroke-miterlimit:4;stroke-dasharray:none;stroke-opacity:1"
         d="m 31.4253,167.373 c 0,27.559 22.3411,49.9 49.9002,49.9 h 7e-4 c 27.5588,0 49.8998,-22.341 49.8998,-49.9"
         id="path887" />
    </g>
    <path
       id="path911"
       style="fill:none;fill-opacity:1;stroke:#0a0a0a;stroke-width:0.199601;stroke-linejoin:round;stroke-miterlimit:4;stroke-dasharray:none;stroke-opacity:1"
       d="m 31.425323,167.37311 c 0,-27.55912 22.341081,-49.9002 49.9002,-49.9002 27.559117,0 49.900197,22.34108 49.900197,49.9002"
       sodipodi:nodetypes="csc" />
    <path
       sodipodi:nodetypes="csc"
       d="m 31.425323,167.37311 c 0,27.55912 22.341081,49.9002 49.9002,49.9002 27.559117,0 49.900197,-22.34108 49.900197,-49.9002"
       style="fill:none;fill-opacity:1;stroke:#0a0a0a;stroke-width:0.199601;stroke-linejoin:round;stroke-miterlimit:4;stroke-dasharray:none;stroke-opacity:1"
       id="path913" />
    <g
       id="g949">
      <path
         id="path915"
         d="m 31.4253,167.373 c 0,-27.559 22.3411,-49.9 49.9002,-49.9 v 0 c 27.5595,0 49.9005,22.341 49.9005,49.9"
         style="fill:none;fill-opacity:1;stroke:#0a0a0a;stroke-width:0.199601;stroke-linejoin:round;stroke-miterlimit:4;stroke-dasharray:none;stroke-opacity:1" />
      <path
         id="path917"
         d="m 31.4253,167.373 c 0,-24.114 22.3411,-43.663 49.9002,-43.663 h 10e-5 c 27.5594,0 49.9004,19.549 49.9004,43.663"
         style="fill:none;fill-opacity:1;stroke:#0a0a0a;stroke-width:0.199601;stroke-linejoin:round;stroke-miterlimit:4;stroke-dasharray:none;stroke-opacity:1" />
      <path
         id="path919"
         d="m 31.4253,167.373 c 0,-20.669 22.3411,-37.425 49.9002,-37.425 h 10e-5 c 27.5594,0 49.9004,16.756 49.9004,37.425"
         style="fill:none;fill-opacity:1;stroke:#0a0a0a;stroke-width:0.199601;stroke-linejoin:round;stroke-miterlimit:4;stroke-dasharray:none;stroke-opacity:1" />
      <path
         id="path921"
         d="m 31.4253,167.373 c 0,-17.224 22.3411,-31.188 49.9002,-31.188 h 10e-5 c 27.5594,0 49.9004,13.964 49.9004,31.188"
         style="fill:none;fill-opacity:1;stroke:#0a0a0a;stroke-width:0.199601;stroke-linejoin:round;stroke-miterlimit:4;stroke-dasharray:none;stroke-opacity:1" />
      <path
         id="path923"
         d="m 31.4253,167.373 c 0,-13.779 22.3411,-24.95 49.9002,-24.95 h 2e-4 c 27.5593,0 49.9003,11.17 49.9003,24.95"
         style="fill:none;fill-opacity:1;stroke:#0a0a0a;stroke-width:0.199601;stroke-linejoin:round;stroke-miterlimit:4;stroke-dasharray:none;stroke-opacity:1" />
      <path
         id="path925"
         d="m 31.4253,167.373 c 0,-10.335 22.3411,-18.712 49.9002,-18.712 h 2e-4 c 27.5593,-0.001 49.9003,8.377 49.9003,18.712"
         style="fill:none;fill-opacity:1;stroke:#0a0a0a;stroke-width:0.199601;stroke-linejoin:round;stroke-miterlimit:4;stroke-dasharray:none;stroke-opacity:1" />
      <path
         id="path927"
         d="m 31.4253,167.373 c 0,-6.89 22.3411,-12.475 49.9002,-12.475 h 3e-4 c 27.5592,0 49.9002,5.585 49.9002,12.475"
         style="fill:none;fill-opacity:1;stroke:#0a0a0a;stroke-width:0.199601;stroke-linejoin:round;stroke-miterlimit:4;stroke-dasharray:none;stroke-opacity:1" />
      <path
         id="path929"
         d="m 31.4253,167.373 c 0,-3.445 22.3411,-6.237 49.9002,-6.237 h 3e-4 c 27.5592,-0.001 49.9002,2.792 49.9002,6.237"
         style="fill:none;fill-opacity:1;stroke:#0a0a0a;stroke-width:0.199601;stroke-linejoin:round;stroke-miterlimit:4;stroke-dasharray:none;stroke-opacity:1" />
      <path
         id="path931"
         d="m 31.4253,167.373 c 0,0 22.3411,0 49.9002,0 h 3e-4 c 27.5592,0 49.9002,0 49.9002,0"
         style="fill:none;fill-opacity:1;stroke:#0a0a0a;stroke-width:0.199601;stroke-linejoin:round;stroke-miterlimit:4;stroke-dasharray:none;stroke-opacity:1" />
      <path
         id="path933"
         d="m 31.4253,167.373 c 0,3.445 22.3411,6.238 49.9002,6.238 h 4e-4 c 27.5591,-10e-4 49.9001,-2.793 49.9001,-6.238"
         style="fill:none;fill-opacity:1;stroke:#0a0a0a;stroke-width:0.199601;stroke-linejoin:round;stroke-miterlimit:4;stroke-dasharray:none;stroke-opacity:1" />
      <path
         id="path935"
         d="m 31.4253,167.373 c 0,6.89 22.3411,12.475 49.9002,12.475 h 4e-4 c 27.5591,0 49.9001,-5.585 49.9001,-12.475"
         style="fill:none;fill-opacity:1;stroke:#0a0a0a;stroke-width:0.199601;stroke-linejoin:round;stroke-miterlimit:4;stroke-dasharray:none;stroke-opacity:1" />
      <path
         id="path937"
         d="m 31.4253,167.373 c 0,10.335 22.3411,18.713 49.9002,18.713 h 5e-4 c 27.559,-0.001 49.9,-8.378 49.9,-18.713"
         style="fill:none;fill-opacity:1;stroke:#0a0a0a;stroke-width:0.199601;stroke-linejoin:round;stroke-miterlimit:4;stroke-dasharray:none;stroke-opacity:1" />
      <path
         id="path939"
         d="m 31.4253,167.373 c 0,13.78 22.3411,24.95 49.9002,24.95 h 5e-4 c 27.559,0 49.9,-11.17 49.9,-24.95"
         style="fill:none;fill-opacity:1;stroke:#0a0a0a;stroke-width:0.199601;stroke-linejoin:round;stroke-miterlimit:4;stroke-dasharray:none;stroke-opacity:1" />
      <path
         id="path941"
         d="m 31.4253,167.373 c 0,17.225 22.3411,31.188 49.9002,31.188 h 5e-4 c 27.559,-0.001 49.9,-13.964 49.9,-31.188"
         style="fill:none;fill-opacity:1;stroke:#0a0a0a;stroke-width:0.199601;stroke-linejoin:round;stroke-miterlimit:4;stroke-dasharray:none;stroke-opacity:1" />
      <path
         id="path943"
         d="m 31.4253,167.373 c 0,20.669 22.3411,37.425 49.9002,37.425 h 6e-4 c 27.5589,0 49.8999,-16.756 49.8999,-37.425"
         style="fill:none;fill-opacity:1;stroke:#0a0a0a;stroke-width:0.199601;stroke-linejoin:round;stroke-miterlimit:4;stroke-dasharray:none;stroke-opacity:1" />
      <path
         id="path945"
         d="m 31.4253,167.373 c 0,24.114 22.3411,43.663 49.9002,43.663 h 6e-4 c 27.5589,-0.001 49.8999,-19.549 49.8999,-43.663"
         style="fill:none;fill-opacity:1;stroke:#0a0a0a;stroke-width:0.199601;stroke-linejoin:round;stroke-miterlimit:4;stroke-dasharray:none;stroke-opacity:1" />
      <path
         id="path947"
         d="m 31.4253,167.373 c 0,27.559 22.3411,49.9 49.9002,49.9 h 7e-4 c 27.5588,0 49.8998,-22.341 49.8998,-49.9"
         style="fill:none;fill-opacity:1;stroke:#0a0a0a;stroke-width:0.199601;stroke-linejoin:round;stroke-miterlimit:4;stroke-dasharray:none;stroke-opacity:1" />
    </g>
    <g
       style="mix-blend-mode:normal;fill:none;fill-opacity:1"
       transform="rotate(90,81.32565,167.373)"
       id="g985">
      <path
         style="fill:none;fill-opacity:1;stroke:#0a0a0a;stroke-width:0.199601;stroke-linejoin:round;stroke-miterlimit:4;stroke-dasharray:none;stroke-opacity:1"
         d="m 31.4253,167.373 c 0,-27.559 22.3411,-49.9 49.9002,-49.9 v 0 c 27.5595,0 49.9005,22.341 49.9005,49.9"
         id="path951" />
      <path
         style="fill:none;fill-opacity:1;stroke:#0a0a0a;stroke-width:0.199601;stroke-linejoin:round;stroke-miterlimit:4;stroke-dasharray:none;stroke-opacity:1"
         d="m 31.4253,167.373 c 0,-24.114 22.3411,-43.663 49.9002,-43.663 h 10e-5 c 27.5594,0 49.9004,19.549 49.9004,43.663"
         id="path953" />
      <path
         style="fill:none;fill-opacity:1;stroke:#0a0a0a;stroke-width:0.199601;stroke-linejoin:round;stroke-miterlimit:4;stroke-dasharray:none;stroke-opacity:1"
         d="m 31.4253,167.373 c 0,-20.669 22.3411,-37.425 49.9002,-37.425 h 10e-5 c 27.5594,0 49.9004,16.756 49.9004,37.425"
         id="path955" />
      <path
         style="fill:none;fill-opacity:1;stroke:#0a0a0a;stroke-width:0.199601;stroke-linejoin:round;stroke-miterlimit:4;stroke-dasharray:none;stroke-opacity:1"
         d="m 31.4253,167.373 c 0,-17.224 22.3411,-31.188 49.9002,-31.188 h 10e-5 c 27.5594,0 49.9004,13.964 49.9004,31.188"
         id="path957" />
      <path
         style="fill:none;fill-opacity:1;stroke:#0a0a0a;stroke-width:0.199601;stroke-linejoin:round;stroke-miterlimit:4;stroke-dasharray:none;stroke-opacity:1"
         d="m 31.4253,167.373 c 0,-13.779 22.3411,-24.95 49.9002,-24.95 h 2e-4 c 27.5593,0 49.9003,11.17 49.9003,24.95"
         id="path959" />
      <path
         style="fill:none;fill-opacity:1;stroke:#0a0a0a;stroke-width:0.199601;stroke-linejoin:round;stroke-miterlimit:4;stroke-dasharray:none;stroke-opacity:1"
         d="m 31.4253,167.373 c 0,-10.335 22.3411,-18.712 49.9002,-18.712 h 2e-4 c 27.5593,-0.001 49.9003,8.377 49.9003,18.712"
         id="path961" />
      <path
         style="fill:none;fill-opacity:1;stroke:#0a0a0a;stroke-width:0.199601;stroke-linejoin:round;stroke-miterlimit:4;stroke-dasharray:none;stroke-opacity:1"
         d="m 31.4253,167.373 c 0,-6.89 22.3411,-12.475 49.9002,-12.475 h 3e-4 c 27.5592,0 49.9002,5.585 49.9002,12.475"
         id="path963" />
      <path
         style="fill:none;fill-opacity:1;stroke:#0a0a0a;stroke-width:0.199601;stroke-linejoin:round;stroke-miterlimit:4;stroke-dasharray:none;stroke-opacity:1"
         d="m 31.4253,167.373 c 0,-3.445 22.3411,-6.237 49.9002,-6.237 h 3e-4 c 27.5592,-0.001 49.9002,2.792 49.9002,6.237"
         id="path965" />
      <path
         style="fill:none;fill-opacity:1;stroke:#0a0a0a;stroke-width:0.199601;stroke-linejoin:round;stroke-miterlimit:4;stroke-dasharray:none;stroke-opacity:1"
         d="m 31.4253,167.373 c 0,0 22.3411,0 49.9002,0 h 3e-4 c 27.5592,0 49.9002,0 49.9002,0"
         id="path967" />
      <path
         style="fill:none;fill-opacity:1;stroke:#0a0a0a;stroke-width:0.199601;stroke-linejoin:round;stroke-miterlimit:4;stroke-dasharray:none;stroke-opacity:1"
         d="m 31.4253,167.373 c 0,3.445 22.3411,6.238 49.9002,6.238 h 4e-4 c 27.5591,-10e-4 49.9001,-2.793 49.9001,-6.238"
         id="path969" />
      <path
         style="fill:none;fill-opacity:1;stroke:#0a0a0a;stroke-width:0.199601;stroke-linejoin:round;stroke-miterlimit:4;stroke-dasharray:none;stroke-opacity:1"
         d="m 31.4253,167.373 c 0,6.89 22.3411,12.475 49.9002,12.475 h 4e-4 c 27.5591,0 49.9001,-5.585 49.9001,-12.475"
         id="path971" />
      <path
         style="fill:none;fill-opacity:1;stroke:#0a0a0a;stroke-width:0.199601;stroke-linejoin:round;stroke-miterlimit:4;stroke-dasharray:none;stroke-opacity:1"
         d="m 31.4253,167.373 c 0,10.335 22.3411,18.713 49.9002,18.713 h 5e-4 c 27.559,-0.001 49.9,-8.378 49.9,-18.713"
         id="path973" />
      <path
         style="fill:none;fill-opacity:1;stroke:#0a0a0a;stroke-width:0.199601;stroke-linejoin:round;stroke-miterlimit:4;stroke-dasharray:none;stroke-opacity:1"
         d="m 31.4253,167.373 c 0,13.78 22.3411,24.95 49.9002,24.95 h 5e-4 c 27.559,0 49.9,-11.17 49.9,-24.95"
         id="path975" />
      <path
         style="fill:none;fill-opacity:1;stroke:#0a0a0a;stroke-width:0.199601;stroke-linejoin:round;stroke-miterlimit:4;stroke-dasharray:none;stroke-opacity:1"
         d="m 31.4253,167.373 c 0,17.225 22.3411,31.188 49.9002,31.188 h 5e-4 c 27.559,-0.001 49.9,-13.964 49.9,-31.188"
         id="path977" />
      <path
         style="fill:none;fill-opacity:1;stroke:#0a0a0a;stroke-width:0.199601;stroke-linejoin:round;stroke-miterlimit:4;stroke-dasharray:none;stroke-opacity:1"
         d="m 31.4253,167.373 c 0,20.669 22.3411,37.425 49.9002,37.425 h 6e-4 c 27.5589,0 49.8999,-16.756 49.8999,-37.425"
         id="path979" />
      <path
         style="fill:none;fill-opacity:1;stroke:#0a0a0a;stroke-width:0.199601;stroke-linejoin:round;stroke-miterlimit:4;stroke-dasharray:none;stroke-opacity:1"
         d="m 31.4253,167.373 c 0,24.114 22.3411,43.663 49.9002,43.663 h 6e-4 c 27.5589,-0.001 49.8999,-19.549 49.8999,-43.663"
         id="path981" />
      <path
         style="fill:none;fill-opacity:1;stroke:#0a0a0a;stroke-width:0.199601;stroke-linejoin:round;stroke-miterlimit:4;stroke-dasharray:none;stroke-opacity:1"
         d="m 31.4253,167.373 c 0,27.559 22.3411,49.9 49.9002,49.9 h 7e-4 c 27.5588,0 49.8998,-22.341 49.8998,-49.9"
         id="path983" />
    </g>
    <rect
       inkscape:transform-center-y="-8.6278536"
       inkscape:transform-center-x="-12.497846"
       transform="matrix(0.97585834,-0.21840443,0.55129256,0.834312,0,0)"
       y="132.9715"
       x="-22.245325"
       height="86.865135"
       width="58.557865"
       id="rect1034"
       style="fill:#12f700;fill-opacity:0.939782;stroke:#0a0a0a;stroke-width:0.216526;stroke-linejoin:round;stroke-miterlimit:4;stroke-dasharray:none;stroke-opacity:1" />
    <path
       id="path1045"
       d="m 80.17,109.40354 23.94405,36.23632 28.57209,-6.39465"
       style="fill:none;stroke:#000000;stroke-width:0.365;stroke-linecap:butt;stroke-linejoin:miter;stroke-miterlimit:2.6;stroke-dasharray:none;stroke-opacity:1;marker-start:url(#Arrow1Lstart);marker-end:url(#Arrow1Lend)" />
    <path
       id="path2011"
       d="m 101.90537,142.26336 6.15119,-1.68692 2.27191,3.70012"
       style="fill:none;stroke:#000000;stroke-width:0.264583px;stroke-linecap:butt;stroke-linejoin:miter;stroke-opacity:1" />
    <text
       transform="rotate(-14.385361,91.267357,126.37253)"
       style="font-size:4.23333px;line-height:1.25;font-family:sans-serif;-inkscape-font-specification:'sans-serif, Normal';white-space:pre;shape-inside:url(#rect2015);"
       id="text2013"
       xml:space="preserve"><tspan
         x="73.126953"
         y="105.97207"><tspan>n=(a,b,c)</tspan></tspan></text>
    <text
       transform="rotate(-12.581319,91.384393,239.60288)"
       style="font-size:4.23333px;line-height:1.25;font-family:sans-serif;-inkscape-font-specification:'sans-serif, Normal';white-space:pre;shape-inside:url(#rect2039);"
       id="text2037"
       xml:space="preserve"><tspan
         x="99.320312"
         y="153.16347"><tspan>A(x0,y0,z0)</tspan></tspan></text>
    <text
       transform="rotate(-12.939193,57.967136,-5.3341556)"
       xml:space="preserve"
       id="text2037-7"
       style="font-size:4.23333px;line-height:1.25;font-family:sans-serif;-inkscape-font-specification:'sans-serif, Normal';white-space:pre;shape-inside:url(#rect2039-6);"><tspan
         x="99.320312"
         y="153.16347"><tspan>P(x,y,z)</tspan></tspan></text>
  </g>
</svg>
